<svg width="24" height="24" viewBox="0 0 24 24" fill="none" xmlns="http://www.w3.org/2000/svg">
<rect x="10.501" y="2" width="3" height="3" fill="#3A4857"/>
<path fill-rule="evenodd" clip-rule="evenodd" d="M14.501 22.75H9.50104V21.25H14.501V22.75Z" fill="#3A4857"/>
<path d="M13.3945 4.93494L13.4062 4.93841L13.418 4.94149C15.9448 5.6029 17.7811 8.02626 17.7811 10.767V17.8789C17.7811 18.7555 18.4715 19.4446 19.3474 19.4446H19.4137V19.576H4.58795V19.4446H4.65424C5.53016 19.4446 6.22052 18.7555 6.22052 17.8789V10.5376C6.22052 7.85167 8.07898 5.58046 10.5791 4.94266L10.597 4.93811L10.6125 4.93333C10.6122 4.93343 10.6122 4.93341 10.6126 4.93329L10.6128 4.93325L10.6193 4.93133C10.6267 4.92922 10.6396 4.92558 10.6577 4.92074C10.6941 4.91106 10.7512 4.89667 10.8261 4.88027C10.9764 4.84737 11.1961 4.80693 11.4625 4.77991C12.0011 4.7253 12.6996 4.72871 13.3945 4.93494Z" stroke="#3A4857" stroke-width="1.5"/>
</svg>
