<svg width="95" height="44" viewBox="0 0 95 44" fill="none" xmlns="http://www.w3.org/2000/svg">
<rect width="95" height="44" fill="white"/>
<path d="M33.3066 32.7379L37.5654 12H41.7183L37.4595 32.7379H33.3066Z" fill="#3A4857"/>
<path d="M57.8789 32.7379V12H68.759V15.553H62.0318V20.4992H68.0333V23.9383H62.0318V29.2989H68.8808V32.7379H57.8842H57.8789Z" fill="#3A4857"/>
<path d="M75.3174 32.7379L79.5762 12H83.7291L79.4702 32.7379H75.3174Z" fill="#3A4857"/>
<path d="M23.2471 32.7379L18.9883 12H14.8354L19.0943 32.7379H23.2471Z" fill="#3A4857"/>
<path d="M26.6422 12H22.4946L20.3652 22.369H24.5181L26.6422 12Z" fill="url(#paint0_linear_3115_14850)"/>
<path d="M30.9014 32.7379L26.6426 12H22.4897L26.7486 32.7379H30.9014Z" fill="#3A4857"/>
<path d="M11.5249 20.5251L12.0705 23.3168H31.8972V20.5251H11.5249Z" fill="#3A4857"/>
<path d="M30.843 12L28.5229 23.3168H32.6758L34.9959 12H30.843Z" fill="#3A4857"/>
<path d="M74.8614 12L77.1868 23.3168H73.034L70.7139 12H74.8614Z" fill="#3A4857"/>
<path d="M51.8037 12V23.524L46.4113 12H43.3496V32.7379H47.1688V24.8292L47.1476 24.4562C47.1476 23.2495 47.1582 22.1411 47.1582 21.3228L52.7995 32.7431H55.6175V12.0052H51.7984L51.8037 12Z" fill="#3A4857"/>
<defs>
<linearGradient id="paint0_linear_3115_14850" x1="20.3652" y1="17.1845" x2="26.6422" y2="17.1845" gradientUnits="userSpaceOnUse">
<stop offset="0.03" stop-color="white"/>
<stop offset="0.74" stop-color="#3A4857"/>
</linearGradient>
</defs>
</svg>
