<svg width="40" height="40" viewBox="0 0 40 40" fill="none" xmlns="http://www.w3.org/2000/svg">
<rect width="40" height="40" rx="8" fill="#F0F2F5"/>
<mask id="mask0_4113_38054" style="mask-type:alpha" maskUnits="userSpaceOnUse" x="0" y="0" width="40" height="40">
<rect width="40" height="40" rx="8" fill="#F2E9FF"/>
</mask>
<g mask="url(#mask0_4113_38054)">
<path d="M20.6546 43.4987C29.5593 43.4987 36.778 36.28 36.778 27.3753C36.778 18.4706 29.5593 11.252 20.6546 11.252C11.7499 11.252 4.53125 18.4706 4.53125 27.3753C4.53125 36.28 11.7499 43.4987 20.6546 43.4987Z" fill="#674AD6"/>
<path d="M36.5274 27.3763C36.5254 29.0465 36.2668 30.7066 35.751 32.295C35.2559 33.8191 34.5243 35.2621 33.5971 36.5692C32.6813 37.8595 31.5652 39.0178 30.3084 39.9792C29.0402 40.9499 27.6246 41.7331 26.1247 42.2817C24.567 42.8512 22.925 43.1748 21.2676 43.2371C19.5975 43.2994 17.9246 43.1038 16.3168 42.6482C14.7632 42.2081 13.284 41.5281 11.9347 40.6404C10.6096 39.7688 9.41911 38.6962 8.40817 37.4743C7.39322 36.249 6.55915 34.8602 5.95888 33.3863C5.34053 31.8676 4.95465 30.253 4.83004 28.617C4.70543 26.9811 4.83339 25.2419 5.23334 23.6052C5.61588 22.0383 6.23758 20.5363 7.07366 19.1569C7.90974 17.7775 8.93206 16.5589 10.1239 15.499C11.3157 14.4392 12.665 13.5662 14.114 12.907C15.5631 12.2478 17.1951 11.7902 18.813 11.606C20.4818 11.4164 22.1814 11.4827 23.8274 11.8184C25.4735 12.154 26.958 12.7114 28.3776 13.5033C29.7658 14.2784 31.0313 15.2585 32.1306 16.4074C33.2354 17.5624 34.1619 18.8815 34.8754 20.3118C35.6009 21.7663 36.094 23.3333 36.3445 24.9391C36.4698 25.7444 36.5274 26.5597 36.5288 27.3743C36.5288 27.6979 37.0319 27.6979 37.0312 27.3743C37.0285 25.6626 36.7659 23.9503 36.2367 22.3223C35.7262 20.7513 34.9779 19.2567 34.0199 17.9108C33.0619 16.5649 31.9075 15.3697 30.5965 14.3635C29.2874 13.3592 27.8276 12.56 26.2794 11.9919C24.6823 11.4057 22.9914 11.0781 21.2917 11.0124C19.5733 10.9455 17.8395 11.1491 16.1848 11.6181C14.5301 12.087 13.0656 12.7663 11.6822 13.6761C10.2987 14.5859 9.07074 15.6853 8.02698 16.9534C6.97384 18.2317 6.12034 19.6586 5.49194 21.1908C4.86354 22.7229 4.46158 24.4232 4.33094 26.1108C4.2003 27.7984 4.33764 29.5791 4.74496 31.2573C5.15228 32.9355 5.78001 34.4267 6.64088 35.847C7.49237 37.2519 8.55623 38.5308 9.78556 39.6201C11.0142 40.7101 12.4037 41.6178 13.901 42.2938C15.4459 42.9919 17.0865 43.4441 18.7708 43.6404C20.455 43.8367 22.2437 43.7636 23.9413 43.4193C25.5753 43.0884 27.1577 42.5001 28.6141 41.6895C30.0498 40.8903 31.3676 39.87 32.5018 38.6815C33.6333 37.4957 34.59 36.1391 35.3195 34.6719C36.0658 33.1713 36.583 31.5574 36.8369 29.9C36.9649 29.0639 37.0312 28.2204 37.0319 27.375C37.0319 27.0514 36.5301 27.0514 36.5294 27.375L36.5274 27.3763Z" fill="black"/>
<path d="M19.3753 43.5006C28.28 43.5006 35.4987 36.282 35.4987 27.3773C35.4987 18.4726 28.28 11.2539 19.3753 11.2539C10.4706 11.2539 3.25195 18.4726 3.25195 27.3773C3.25195 36.282 10.4706 43.5006 19.3753 43.5006Z" fill="#A495FC"/>
<path d="M35.2243 28.2472C35.1318 29.9134 34.7801 31.5594 34.1798 33.1163C33.607 34.6009 32.8011 36.0051 31.8083 37.2492C30.8154 38.4932 29.6383 39.5926 28.3226 40.4896C27.0015 41.3907 25.549 42.0928 24.0196 42.5604C22.4325 43.0455 20.7771 43.2766 19.1176 43.2484C17.4582 43.2203 15.7874 42.9316 14.2063 42.3903C12.6795 41.867 11.2385 41.104 9.94018 40.146C8.67266 39.2107 7.53979 38.0765 6.60523 36.8083C5.65526 35.5187 4.89555 34.0884 4.37166 32.5743C3.84777 31.0603 3.54161 29.3928 3.50543 27.7508C3.46926 26.1088 3.69435 24.3817 4.18207 22.7685C4.64834 21.2249 5.35379 19.7591 6.26222 18.4273C7.16061 17.1109 8.26198 15.9345 9.50807 14.9416C10.7448 13.9561 12.1402 13.1535 13.6141 12.5814C15.1429 11.9878 16.7615 11.6301 18.3981 11.533C20.0763 11.4331 21.7659 11.5946 23.3932 12.0187C24.9669 12.4287 26.4695 13.0819 27.8442 13.9501C29.1875 14.7982 30.398 15.8494 31.4324 17.0553C32.4722 18.2672 33.325 19.6392 33.9594 21.1037C34.5939 22.5682 35.0112 24.176 35.1693 25.7819C35.2497 26.6005 35.2658 27.4252 35.2229 28.2466C35.2062 28.5695 35.7086 28.5688 35.7254 28.2466C35.8151 26.5375 35.641 24.8138 35.2008 23.159C34.7761 21.5639 34.1048 20.0304 33.2218 18.6356C32.3388 17.2408 31.2576 15.9907 30.0088 14.9255C28.76 13.8603 27.3431 12.9713 25.8264 12.3242C24.2507 11.6522 22.5832 11.2308 20.8776 11.0721C19.1639 10.9126 17.4247 11.0258 15.7458 11.405C14.1313 11.7701 12.5703 12.3871 11.14 13.2205C9.72177 14.0472 8.42545 15.0897 7.31536 16.2982C6.2026 17.5095 5.27005 18.8875 4.56795 20.3748C3.84107 21.9156 3.36207 23.5583 3.13965 25.2466C2.91388 26.9609 2.96278 28.7075 3.27966 30.4078C3.58382 32.0411 4.14522 33.6261 4.92838 35.0913C5.70283 36.5397 6.69969 37.8722 7.86739 39.0265C9.03442 40.1801 10.3776 41.1602 11.8348 41.9159C13.3294 42.6911 14.9433 43.2344 16.6034 43.5151C18.3224 43.8052 20.0756 43.8246 21.8007 43.5714C23.4515 43.3288 25.0593 42.8244 26.5586 42.0928C28.0365 41.372 29.4032 40.422 30.601 39.2958C31.7942 38.173 32.8205 36.8673 33.6285 35.4417C34.4364 34.0161 35.0554 32.3968 35.3978 30.7568C35.5706 29.9301 35.6785 29.0887 35.7254 28.2452C35.7435 27.9223 35.241 27.923 35.2229 28.2452L35.2243 28.2472Z" fill="black"/>
<path d="M33.7709 27.3776C33.7689 28.8903 33.5351 30.3963 33.0675 31.8353C32.5999 33.2743 31.9567 34.5251 31.116 35.7096C30.2832 36.884 29.2683 37.9364 28.1247 38.8107C26.9811 39.685 25.6922 40.3991 24.3322 40.8962C22.9722 41.3933 21.4314 41.7048 19.93 41.7611C18.4173 41.8174 16.8999 41.6398 15.4428 41.2272C14.0346 40.8279 12.6934 40.2122 11.4707 39.4083C10.2695 38.6184 9.19027 37.647 8.27379 36.5396C7.35732 35.4322 6.59292 34.1627 6.04625 32.8215C5.48551 31.4447 5.13782 29.9809 5.0246 28.4984C4.9087 26.9769 5.02862 25.4388 5.39106 23.9562C5.73808 22.5366 6.3015 21.1746 7.0592 19.9245C7.81689 18.6744 8.74342 17.5697 9.82336 16.609C10.902 15.6503 12.1253 14.8564 13.439 14.2589C14.7883 13.6452 16.24 13.2432 17.7132 13.0757C19.1864 12.9083 20.7661 12.9659 22.2574 13.2694C23.7004 13.5635 25.0946 14.0793 26.3808 14.7975C27.6383 15.4996 28.7866 16.3886 29.7821 17.4297C30.783 18.4761 31.6238 19.6719 32.2703 20.9676C32.9168 22.2633 33.3763 23.7056 33.6034 25.1607C33.7173 25.893 33.7709 26.6346 33.7716 27.3756C33.7716 27.5913 34.1066 27.5913 34.1066 27.3756C34.1045 25.8347 33.8674 24.2945 33.3911 22.8287C32.9315 21.4145 32.2569 20.0699 31.3947 18.8586C30.5358 17.6514 29.5001 16.5788 28.3243 15.6764C27.1466 14.7727 25.8328 14.0518 24.4394 13.5407C23.0459 13.0295 21.4803 12.7173 19.9501 12.6577C18.4026 12.5974 16.8436 12.7803 15.3537 13.2024C13.92 13.609 12.5466 14.2361 11.3019 15.0554C10.0665 15.8674 8.95244 16.8642 8.01252 18.0058C7.06858 19.1521 6.3015 20.433 5.73808 21.8064C5.15926 23.2159 4.80955 24.7152 4.69164 26.234C4.57373 27.7527 4.697 29.3552 5.06346 30.8659C5.42991 32.3766 5.99467 33.7185 6.76978 34.9968C7.5449 36.275 8.4942 37.4119 9.60027 38.3927C10.7063 39.3734 11.9578 40.1894 13.305 40.7984C14.6904 41.4241 16.1636 41.8301 17.673 42.0063C19.2219 42.1872 20.7989 42.1182 22.3271 41.8093C23.7976 41.5112 25.2219 40.9826 26.5329 40.2531C27.844 39.5235 29.0103 38.6157 30.032 37.5452C31.0503 36.478 31.9105 35.2567 32.5677 33.9356C33.2397 32.5843 33.7039 31.1319 33.9317 29.6399C34.0463 28.8903 34.1045 28.1339 34.1059 27.3756C34.1059 27.1598 33.7709 27.1598 33.7709 27.3756V27.3776Z" fill="black"/>
<path d="M24.2386 22.5707C24.2259 22.9934 24.189 24.2308 23.3516 25.2163C23.1352 25.4709 22.5577 26.1509 21.6413 26.2118C20.8052 26.2674 20.2016 25.7737 20.0361 25.6343C18.865 24.6468 18.8932 22.8668 18.8999 22.432C18.9073 21.9798 18.93 20.4845 19.943 19.5078C20.1198 19.3369 20.637 18.8526 21.4202 18.7882C22.3266 18.7139 22.9939 19.2518 23.2437 19.4877C24.3009 20.4845 24.2533 22.0763 24.2386 22.5707Z" fill="white"/>
<path d="M24.0716 22.5714C24.0535 23.183 23.9658 23.7813 23.7031 24.3507C23.4405 24.9202 22.9776 25.4977 22.4128 25.8105C22.0672 26.0021 21.6699 26.0852 21.276 26.035C20.933 25.9914 20.6094 25.8454 20.328 25.6491C20.3039 25.6323 20.2798 25.6149 20.2563 25.5975C20.251 25.5935 20.2148 25.5653 20.249 25.5921C20.2396 25.5848 20.2302 25.5774 20.2215 25.57C20.1779 25.5352 20.1351 25.499 20.0929 25.4615C19.9569 25.3389 19.8329 25.2029 19.7277 25.0535C19.5241 24.7668 19.3774 24.4459 19.2755 24.1096C19.1174 23.5884 19.0645 23.0852 19.0679 22.5392C19.0712 22.0408 19.1067 21.5852 19.234 21.1082C19.4095 20.4504 19.7519 19.8568 20.2871 19.4281C20.3253 19.3979 20.387 19.3523 20.4452 19.3135C20.5216 19.2626 20.6013 19.2157 20.6831 19.1735C20.8526 19.0857 21.0341 19.0234 21.221 18.9852C21.617 18.9048 22.0363 18.9604 22.4048 19.1239C23.0124 19.3939 23.4787 19.887 23.7527 20.5093C24.0039 21.0808 24.0796 21.6898 24.0783 22.3048C24.0783 22.3939 24.0756 22.4823 24.0736 22.5714C24.0669 22.7871 24.4019 22.7871 24.4086 22.5714C24.426 21.9939 24.3885 21.4111 24.229 20.853C24.0234 20.1335 23.6107 19.495 22.9903 19.069C22.6594 18.8419 22.2802 18.6871 21.8816 18.6342C21.4187 18.5725 20.9504 18.6637 20.5343 18.8733C19.8919 19.1976 19.3934 19.7851 19.1127 20.4403C18.8575 21.0359 18.7523 21.6804 18.7369 22.3255C18.7255 22.8112 18.751 23.2956 18.8468 23.7733C18.9968 24.5189 19.3305 25.2538 19.92 25.7529C20.5096 26.252 21.2358 26.4972 21.9821 26.3317C22.6781 26.1777 23.2382 25.6732 23.6482 25.1111C24.1185 24.4666 24.3382 23.6741 24.3938 22.8863C24.4012 22.7818 24.4052 22.6766 24.4086 22.5714C24.4153 22.3557 24.0803 22.3557 24.0736 22.5714H24.0716Z" fill="black"/>
<path d="M22.4003 22.5609C22.3923 22.9226 22.3695 23.9818 21.8496 24.8259C21.7156 25.0437 21.3572 25.6258 20.7884 25.6781C20.2699 25.7256 19.8954 25.3029 19.7922 25.1837C19.0654 24.3382 19.0828 22.8141 19.0868 22.4416C19.0915 22.0544 19.1056 20.7742 19.734 19.9381C19.8438 19.792 20.1647 19.3773 20.6511 19.3224C21.2138 19.2587 21.6279 19.719 21.7833 19.9213C22.4392 20.7748 22.4097 22.1375 22.401 22.5609H22.4003Z" fill="black"/>
<path d="M22.2329 22.5604C22.2222 23.0501 22.1719 23.5372 22.0292 24.0081C21.9428 24.2935 21.8202 24.5608 21.6608 24.8134C21.5415 25.001 21.4183 25.1665 21.2394 25.3098C21.0391 25.4706 20.7845 25.557 20.5292 25.4927C20.3048 25.4358 20.1286 25.3005 19.9752 25.1377C19.6289 24.7692 19.4594 24.2701 19.3622 23.7831C19.2805 23.3764 19.2523 22.9577 19.2544 22.5356C19.2564 22.1558 19.2745 21.7726 19.3388 21.4034C19.389 21.116 19.4627 20.8293 19.5753 20.5593C19.6309 20.426 19.6985 20.2967 19.7756 20.1748C19.8104 20.1198 19.8472 20.0676 19.8854 20.0153C19.9116 19.9798 19.87 20.0334 19.9022 19.9932C19.9176 19.9745 19.9323 19.9557 19.9484 19.9369C20.1032 19.754 20.2941 19.5879 20.5279 19.5182C20.7925 19.4392 21.0531 19.5095 21.2776 19.6609C21.6896 19.9383 21.9261 20.4052 22.0614 20.8829C22.1967 21.3606 22.2383 21.853 22.2369 22.3474C22.2369 22.4191 22.2356 22.4901 22.2336 22.5617C22.2289 22.7775 22.5638 22.7775 22.5685 22.5617C22.5906 21.5455 22.4828 20.351 21.7197 19.5966C21.5141 19.3936 21.2541 19.2208 20.9647 19.1699C20.6338 19.1116 20.3035 19.2013 20.0342 19.3997C19.5665 19.744 19.2832 20.2893 19.1251 20.8367C18.9824 21.3297 18.9294 21.8476 18.9214 22.3601C18.9147 22.7534 18.9301 23.1453 18.983 23.5352C19.0614 24.112 19.2215 24.7136 19.5786 25.1839C19.9122 25.6227 20.4395 25.9784 21.0129 25.8056C21.5368 25.6475 21.8986 25.1377 22.1291 24.6674C22.4111 24.0932 22.5283 23.4528 22.5598 22.8177C22.5638 22.7319 22.5665 22.6468 22.5685 22.5611C22.5732 22.3454 22.2383 22.3454 22.2336 22.5611L22.2329 22.5604Z" fill="black"/>
<path d="M22.5502 20.5176L20.9316 21.8943L22.8845 22.4979L22.5502 20.5176Z" fill="white"/>
<path d="M18.6898 22.7367C18.6771 23.1594 18.6402 24.3968 17.8028 25.3823C17.5864 25.6369 17.0089 26.3169 16.0924 26.3778C15.2564 26.4334 14.6527 25.9397 14.4873 25.8003C13.3162 24.8129 13.3444 23.0328 13.3511 22.598C13.3584 22.1458 13.3812 20.6505 14.3941 19.6738C14.571 19.5029 15.0882 19.0186 15.8714 18.9543C16.7778 18.8799 17.445 19.4179 17.6949 19.6537C18.7521 20.6505 18.7045 22.2423 18.6898 22.7367Z" fill="white"/>
<path d="M18.5228 22.7374C18.5047 23.3491 18.4169 23.9473 18.1543 24.5168C17.8917 25.0862 17.4288 25.6637 16.864 25.9766C16.5183 26.1682 16.1211 26.2512 15.7271 26.201C15.3841 26.1574 15.0605 26.0114 14.7792 25.8151C14.7551 25.7984 14.7309 25.7809 14.7075 25.7635C14.7021 25.7595 14.666 25.7314 14.7001 25.7582C14.6907 25.7508 14.6814 25.7434 14.6727 25.736C14.6291 25.7012 14.5862 25.665 14.544 25.6275C14.408 25.5049 14.2841 25.3689 14.1789 25.2195C13.9752 24.9328 13.8285 24.6119 13.7267 24.2756C13.5686 23.7544 13.5157 23.2512 13.519 22.7052C13.5224 22.2068 13.5579 21.7513 13.6852 21.2743C13.8607 20.6164 14.203 20.0228 14.7383 19.5941C14.7765 19.5639 14.8381 19.5184 14.8964 19.4795C14.9728 19.4286 15.0525 19.3817 15.1342 19.3395C15.3037 19.2517 15.4853 19.1894 15.6722 19.1512C16.0681 19.0708 16.4875 19.1264 16.856 19.2899C17.4636 19.5599 17.9299 20.053 18.2039 20.6753C18.4551 21.2468 18.5308 21.8558 18.5295 22.4708C18.5295 22.5599 18.5268 22.6483 18.5248 22.7374C18.5181 22.9531 18.8531 22.9531 18.8598 22.7374C18.8772 22.1599 18.8397 21.5771 18.6802 21.019C18.4745 20.2995 18.0619 19.6611 17.4415 19.235C17.1106 19.0079 16.7314 18.8531 16.3328 18.8002C15.8698 18.7386 15.4015 18.8297 14.9855 19.0394C14.343 19.3636 13.8446 19.9511 13.5639 20.6063C13.3087 21.2019 13.2035 21.8464 13.1881 22.4915C13.1767 22.9772 13.2021 23.4616 13.2979 23.9393C13.448 24.6849 13.7816 25.4198 14.3712 25.9189C14.9426 26.4026 15.6869 26.6632 16.4332 26.4978C17.1293 26.3437 17.6894 25.8392 18.0994 25.2771C18.5697 24.6327 18.7894 23.8401 18.845 23.0523C18.8524 22.9478 18.8564 22.8426 18.8598 22.7374C18.8665 22.5217 18.5315 22.5217 18.5248 22.7374H18.5228Z" fill="black"/>
<path d="M16.8515 22.7288C16.8434 23.0906 16.8207 24.1498 16.3008 24.9939C16.1668 25.2116 15.8084 25.7938 15.2396 25.8461C14.7211 25.8936 14.3466 25.4709 14.2434 25.3516C13.5165 24.5062 13.5339 22.9821 13.538 22.6096C13.5427 22.2224 13.5567 20.9421 14.1851 20.106C14.295 19.96 14.6159 19.5453 15.1023 19.4904C15.665 19.4267 16.079 19.887 16.2345 20.0893C16.8903 20.9428 16.8609 22.3054 16.8521 22.7288H16.8515Z" fill="black"/>
<path d="M16.6841 22.7284C16.6733 23.2181 16.6231 23.7052 16.4804 24.1761C16.394 24.4615 16.2714 24.7288 16.1119 24.9814C15.9927 25.169 15.8694 25.3344 15.6906 25.4778C15.4902 25.6386 15.2357 25.725 14.9804 25.6607C14.756 25.6037 14.5798 25.4684 14.4264 25.3056C14.08 24.9372 13.9105 24.4381 13.8134 23.951C13.7317 23.5444 13.7035 23.1257 13.7055 22.7036C13.7075 22.3237 13.7256 21.9405 13.7899 21.5714C13.8402 21.284 13.9139 20.9973 14.0264 20.7273C14.082 20.594 14.1497 20.4647 14.2267 20.3427C14.2616 20.2878 14.2984 20.2356 14.3366 20.1833C14.3627 20.1478 14.3212 20.2014 14.3534 20.1612C14.3688 20.1424 14.3835 20.1237 14.3996 20.1049C14.5543 19.922 14.7453 19.7559 14.9791 19.6862C15.2437 19.6071 15.5043 19.6775 15.7287 19.8289C16.1407 20.1062 16.3772 20.5732 16.5126 21.0509C16.6479 21.5272 16.6894 22.0209 16.6881 22.5153C16.6881 22.587 16.6867 22.658 16.6847 22.7297C16.68 22.9454 17.015 22.9454 17.0197 22.7297C17.0418 21.7134 16.934 20.5189 16.1709 19.7646C15.9652 19.5616 15.7053 19.3888 15.4159 19.3378C15.0849 19.2796 14.7546 19.3693 14.4853 19.5676C14.0177 19.912 13.7343 20.4573 13.5762 21.0046C13.4335 21.4977 13.3806 22.0156 13.3726 22.5281C13.3659 22.9213 13.3813 23.3132 13.4342 23.7031C13.5126 24.28 13.6727 24.8816 14.0298 25.3519C14.3634 25.7907 14.8906 26.1464 15.4641 25.9736C15.988 25.8154 16.3498 25.3056 16.5802 24.8353C16.8623 24.2612 16.9795 23.6207 17.011 22.9856C17.015 22.8999 17.0177 22.8148 17.0197 22.7291C17.0244 22.5133 16.6894 22.5133 16.6847 22.7291L16.6841 22.7284Z" fill="black"/>
<path d="M17.0033 20.6855L15.3848 22.0623L17.3376 22.6659L17.0033 20.6855Z" fill="white"/>
<path d="M18.7765 26.8516C19.5494 26.8516 20.176 26.3864 20.176 25.8125C20.176 25.2386 19.5494 24.7734 18.7765 24.7734C18.0035 24.7734 17.377 25.2386 17.377 25.8125C17.377 26.3864 18.0035 26.8516 18.7765 26.8516Z" fill="#CCFC56"/>
<path d="M20.0491 25.8133C20.0438 26.2648 19.6197 26.5603 19.2224 26.6681C18.7494 26.7967 18.1679 26.7251 17.7914 26.3914C17.6447 26.2615 17.5288 26.09 17.5054 25.8917C17.4819 25.6934 17.5516 25.5031 17.6749 25.3544C17.9911 24.9725 18.5538 24.8466 19.0268 24.9176C19.4864 24.9859 20.0417 25.286 20.0484 25.814C20.0505 25.9754 20.3017 25.9761 20.2997 25.814C20.2923 25.2472 19.7965 24.8546 19.2887 24.7166C18.7226 24.5632 18.0494 24.6643 17.6052 25.065C17.4143 25.2371 17.2823 25.4683 17.2548 25.7255C17.2273 25.9828 17.3198 26.2293 17.4779 26.4269C17.847 26.8885 18.5062 27.0359 19.0683 26.9562C19.6538 26.8731 20.2916 26.4658 20.2997 25.814C20.3017 25.6525 20.0505 25.6518 20.0484 25.814L20.0491 25.8133Z" fill="black"/>
<path d="M16.346 28.5749C16.4826 28.6707 16.6354 28.7458 16.7868 28.8154C17.17 28.9916 17.5746 29.1189 17.99 29.1893C19.0157 29.3634 20.042 29.1899 20.9853 28.7645C21.193 28.6707 21.402 28.5682 21.5922 28.4409C21.7704 28.3217 21.603 28.0316 21.4234 28.1515C20.9377 28.4758 20.3689 28.6855 19.8022 28.8141C19.2877 28.9313 18.7564 28.9568 18.2325 28.8891C17.8285 28.8369 17.3884 28.7149 17.0394 28.5629C16.8598 28.4845 16.6763 28.3981 16.5155 28.2848C16.4411 28.2333 16.3292 28.2714 16.2863 28.3451C16.2374 28.4289 16.2723 28.522 16.3466 28.5743L16.346 28.5749Z" fill="black"/>
<path d="M20.6309 17.9142C20.6309 17.9142 21.2465 17.468 22.0484 17.4084C23.2242 17.3213 24.0194 17.9698 24.1721 18.2866" fill="#A495FC"/>
<path d="M20.7148 18.0585C21.5582 17.4502 22.7849 17.3906 23.6484 17.9842C23.7382 18.0458 23.8119 18.1054 23.8976 18.1952C23.9131 18.2113 23.9278 18.228 23.9425 18.2448C23.9506 18.2542 23.9586 18.2642 23.9667 18.2736C23.9881 18.2997 23.9492 18.2475 23.9687 18.2769C23.9881 18.3064 24.0095 18.3379 24.0263 18.3707C24.0665 18.4518 24.181 18.4739 24.2554 18.431C24.3378 18.3828 24.3559 18.283 24.3157 18.2019C24.2286 18.0257 24.0698 17.885 23.9164 17.7671C23.692 17.595 23.4361 17.4663 23.1674 17.3766C22.4673 17.1421 21.7103 17.2077 21.039 17.4992C20.8682 17.5735 20.6967 17.6593 20.5453 17.7685C20.4723 17.8214 20.4368 17.9145 20.485 17.9976C20.5272 18.0699 20.6404 18.1108 20.7141 18.0579L20.7148 18.0585Z" fill="black"/>
<path d="M17.1526 17.9142C17.1526 17.9142 16.5369 17.468 15.735 17.4084C14.5593 17.3213 13.7641 17.9698 13.6113 18.2866" fill="#A495FC"/>
<path d="M17.2376 17.7696C16.8329 17.4775 16.3137 17.3027 15.822 17.2491C15.1721 17.1781 14.4727 17.3342 13.9368 17.716C13.7579 17.8433 13.567 18.0014 13.4678 18.2024C13.4276 18.2835 13.4457 18.384 13.5281 18.4315C13.6018 18.4751 13.717 18.453 13.7572 18.3712C13.7713 18.3431 13.7874 18.317 13.8048 18.2908C13.8102 18.2828 13.8155 18.2754 13.8209 18.2681C13.8182 18.2721 13.7974 18.2969 13.8162 18.2741C13.8309 18.256 13.8463 18.2379 13.8617 18.2205C13.8926 18.187 13.9247 18.1548 13.9582 18.124C13.9756 18.1079 13.993 18.0925 14.0111 18.0771C14.0219 18.0684 14.0319 18.0597 14.0426 18.051C14.0681 18.0302 14.0326 18.0577 14.062 18.0356C14.2617 17.8849 14.4875 17.7696 14.7253 17.6926C15.345 17.4909 16.0196 17.5398 16.6125 17.8065C16.7693 17.8768 16.9274 17.9572 17.0674 18.0584C17.1411 18.1113 17.2543 18.0711 17.2965 17.9981C17.3461 17.9137 17.3099 17.8219 17.2362 17.769L17.2376 17.7696Z" fill="black"/>
<path d="M34.1194 21.1028H35.5745C35.7359 21.1028 35.7366 20.8516 35.5745 20.8516H34.1194C33.9579 20.8516 33.9573 21.1028 34.1194 21.1028Z" fill="black"/>
<path d="M30.7991 16.1145H32.1115C32.2729 16.1145 32.2736 15.8633 32.1115 15.8633H30.7991C30.6376 15.8633 30.637 16.1145 30.7991 16.1145Z" fill="black"/>
<path d="M32.8088 18.5911H34.1213C34.2827 18.5911 34.2834 18.3398 34.1213 18.3398H32.8088C32.6474 18.3398 32.6467 18.5911 32.8088 18.5911Z" fill="black"/>
<path d="M35.0803 23.8606C35.4635 23.8606 35.8467 23.8606 36.2299 23.8606H36.3927C36.5542 23.8606 36.5549 23.6094 36.3927 23.6094H35.0803C34.9189 23.6094 34.9182 23.8606 35.0803 23.8606Z" fill="black"/>
<path d="M35.4983 26.9622C35.8815 26.9622 36.2647 26.9622 36.6479 26.9622H36.8107C36.9722 26.9622 36.9728 26.7109 36.8107 26.7109H35.4983C35.3368 26.7109 35.3362 26.9622 35.4983 26.9622Z" fill="black"/>
<path d="M35.1799 30.1907C35.5631 30.1907 35.9463 30.1907 36.3296 30.1907H36.4923C36.6538 30.1907 36.6545 29.9395 36.4923 29.9395C36.1091 29.9395 35.7259 29.9395 35.3427 29.9395H35.1799C35.0185 29.9395 35.0178 30.1907 35.1799 30.1907Z" fill="black"/>
<path d="M34.5237 32.8196C34.9069 32.8196 35.2901 32.8196 35.6733 32.8196H35.8361C35.9976 32.8196 35.9982 32.5684 35.8361 32.5684H34.5237C34.3622 32.5684 34.3616 32.8196 34.5237 32.8196Z" fill="black"/>
<path d="M33.2815 35.6887H34.5939C34.7554 35.6887 34.756 35.4375 34.5939 35.4375H33.2815C33.12 35.4375 33.1194 35.6887 33.2815 35.6887Z" fill="black"/>
<path d="M31.8284 37.7708H33.1408C33.3022 37.7708 33.3029 37.5195 33.1408 37.5195C32.7576 37.5195 32.3744 37.5195 31.9912 37.5195H31.8284C31.6669 37.5195 31.6662 37.7708 31.8284 37.7708Z" fill="black"/>
<path d="M29.8596 39.6985H31.172C31.3335 39.6985 31.3342 39.4473 31.172 39.4473C30.7888 39.4473 30.4056 39.4473 30.0224 39.4473H29.8596C29.6982 39.4473 29.6975 39.6985 29.8596 39.6985Z" fill="black"/>
</g>
</svg>
