<svg width="18" height="18" viewBox="0 0 18 18" fill="none" xmlns="http://www.w3.org/2000/svg">
<path fill-rule="evenodd" clip-rule="evenodd" d="M10.9016 5.36367H7.09814V1.56018H10.9016V5.36367ZM11.7907 6.86367H6.20904C5.87087 6.86367 5.59814 6.59095 5.59814 6.25277V0.671076C5.59814 0.332902 5.87087 0.0601807 6.20904 0.0601807H11.7907C12.1289 0.0601807 12.4016 0.332902 12.4016 0.671076V6.25277C12.4016 6.59095 12.1289 6.86367 11.7907 6.86367Z" fill="#BFC7CE"/>
<path fill-rule="evenodd" clip-rule="evenodd" d="M13.2792 9.48004H4.72083L1.88879 16.4398H16.1112L13.2792 9.48004ZM0.0511031 16.9762L3.60375 8.24549C3.66921 8.08549 3.82557 7.98004 4.00011 7.98004H13.9999C14.1744 7.98004 14.3308 8.08549 14.3962 8.24549L17.9489 16.9762C18.0362 17.1908 18.0107 17.438 17.8798 17.6307C17.7489 17.8235 17.5307 17.9398 17.298 17.9398H0.701999C0.469277 17.9398 0.2511 17.8235 0.120193 17.6307C-0.010713 17.438 -0.0361678 17.1908 0.0511031 16.9762Z" fill="#BFC7CE"/>
</svg>
