<svg width="18" height="18" viewBox="0 0 18 18" fill="none" xmlns="http://www.w3.org/2000/svg">
<path fill-rule="evenodd" clip-rule="evenodd" d="M10.5 11.4375L12.75 11.4375C14.0962 11.4375 15.1875 10.3462 15.1875 9C15.1875 7.65381 14.0962 6.5625 12.75 6.5625L10.5 6.5625C10.1893 6.5625 9.9375 6.31066 9.9375 6C9.9375 5.68934 10.1893 5.4375 10.5 5.4375L12.75 5.4375C14.7175 5.4375 16.3125 7.03249 16.3125 9C16.3125 10.9675 14.7175 12.5625 12.75 12.5625L10.5 12.5625C10.1893 12.5625 9.9375 12.3107 9.9375 12C9.9375 11.6893 10.1893 11.4375 10.5 11.4375Z" fill="#758595" stroke="#758595" stroke-width="0.4" stroke-linecap="round"/>
<path fill-rule="evenodd" clip-rule="evenodd" d="M7.5 6.56252L5.25 6.56253C3.90381 6.56253 2.8125 7.65383 2.8125 9.00002C2.8125 10.3462 3.90381 11.4375 5.25 11.4375H7.5C7.81066 11.4375 8.0625 11.6894 8.0625 12C8.0625 12.3107 7.81066 12.5625 7.5 12.5625L5.25 12.5625C3.28249 12.5625 1.6875 10.9675 1.6875 9.00002C1.6875 7.03251 3.28249 5.43753 5.25 5.43752L7.5 5.43752C7.81066 5.43752 8.0625 5.68936 8.0625 6.00002C8.0625 6.31068 7.81066 6.56252 7.5 6.56252Z" fill="#758595" stroke="#758595" stroke-width="0.4" stroke-linecap="round"/>
<path fill-rule="evenodd" clip-rule="evenodd" d="M12 9.56251H6V8.43751H12V9.56251Z" fill="#758595" stroke="#758595" stroke-width="0.5"/>
</svg>
