<svg width="94" height="89" viewBox="0 0 94 89" fill="none" xmlns="http://www.w3.org/2000/svg">
<path d="M78.328 42.0323C78.328 42.0323 79.4142 39.8747 81.5867 40.3199C83.7592 40.7652 83.7592 42.7259 83.0321 44.815C82.3049 46.9041 81.4521 49.1474 79.2167 49.0789C76.9814 49.0104 76.3799 46.7157 77.1789 45.1575C77.1789 45.1575 76.5415 47.5548 74.7281 49.0789C72.9236 50.6029 70.9666 50.3118 70.2394 48.2227C69.5123 46.1335 70.8858 43.9245 70.8858 43.9245C70.8858 43.9245 69.7546 46.9127 68.444 48.2227C67.0166 49.6525 64.9608 49.6097 63.9553 48.2227C63.2371 47.2295 62.896 46.1078 63.9553 43.0855C64.853 40.5169 66.1907 39.3524 66.7652 38.7959C68.5517 37.0749 72.771 38.0938 71.6129 40.885C72.5915 38.539 74.369 38.0596 76.0567 38.599C77.6098 39.0956 78.5883 40.534 78.3369 42.0238L78.328 42.0323Z" fill="white"/>
<path d="M78.6782 42.2289C79.163 41.2956 80.1505 40.5422 81.2816 40.6706C83.5349 40.9275 83.1489 43.2135 82.6462 44.7204C82.1794 46.1075 81.551 48.2565 79.8363 48.6504C77.7177 49.1384 76.784 46.9466 77.5291 45.3626L76.793 45.0629C76.3082 46.8267 74.8898 49.3097 72.8161 49.6265C69.7728 50.0974 70.3024 45.6537 71.2361 44.1211L70.4999 43.8214C69.8536 45.5167 68.8661 48.0767 66.927 48.7446C65.6791 49.1812 64.4851 48.5733 63.9465 47.4517C63.5156 46.5356 63.6862 45.4825 63.9285 44.5492C64.4403 42.5115 65.4816 40.037 67.3938 38.7955C69.0097 37.7339 72.053 38.5558 71.2181 40.7819C71.0655 41.1843 71.7747 41.484 71.9542 41.0816C72.5557 39.7202 73.624 38.5729 75.3117 38.8212C76.9995 39.0695 78.1306 40.4223 77.9331 42.032C77.8703 42.52 78.6782 42.52 78.7411 42.032C78.9835 40.0884 77.5291 38.4103 75.5272 38.0763C73.5253 37.7424 72.0171 38.9925 71.263 40.6963L71.9991 40.996C72.6724 39.2065 71.3887 37.7767 69.5034 37.5969C67.6182 37.4171 66.2626 38.5387 65.1943 39.9172C64.2966 41.073 63.7221 42.4087 63.3091 43.7872C63.0039 44.7889 62.7525 45.8934 62.941 46.9466C63.3091 48.9329 65.3559 50.2429 67.3848 49.4124C69.4137 48.5819 70.5358 45.9705 71.272 44.044C71.4336 43.6245 70.7603 43.3762 70.5358 43.7444C69.3688 45.6794 68.9379 50.0717 72.1697 50.4142C74.9347 50.7138 76.9636 47.4517 77.565 45.277C77.6728 44.8746 77.0174 44.5663 76.8289 44.9773C76.003 46.7325 76.5865 49.147 78.8578 49.4467C81.4343 49.7806 82.5654 47.3318 83.2567 45.414C83.894 43.6502 84.5404 40.9532 82.1794 40.097C80.5006 39.4891 78.759 40.371 77.987 41.8522C77.7536 42.2974 78.4538 42.6827 78.6872 42.2375L78.6782 42.2289Z" fill="black"/>
<path d="M7.36833 42.0323C7.36833 42.0323 6.28208 39.8747 4.10957 40.3199C1.93707 40.7652 1.93707 42.7259 2.66423 44.815C3.39139 46.9041 4.24423 49.1474 6.47958 49.0789C8.71492 49.0104 9.31641 46.7157 8.51743 45.1575C8.51743 45.1575 9.15481 47.5548 10.9682 49.0789C12.7727 50.6029 14.7297 50.3118 15.4569 48.2227C16.184 46.1335 14.8105 43.9245 14.8105 43.9245C14.8105 43.9245 15.9416 46.9127 17.2523 48.2227C18.6797 49.6525 20.7355 49.6097 21.741 48.2227C22.4592 47.2295 22.8003 46.1078 21.741 43.0855C20.8433 40.5169 19.5056 39.3524 18.9311 38.7959C17.1446 37.0749 12.9253 38.0938 14.0833 40.885C13.1048 38.539 11.3273 38.0596 9.63959 38.599C8.08652 39.0956 7.10799 40.534 7.35936 42.0238L7.36833 42.0323Z" fill="white"/>
<path d="M7.01806 42.2289C6.53328 41.2956 5.54578 40.5422 4.41464 40.6706C2.16134 40.9275 2.54736 43.2135 3.05009 44.7204C3.51691 46.1075 4.14532 48.2565 5.85999 48.6504C7.97863 49.1384 8.91226 46.9466 8.16715 45.3626L8.90329 45.0629C9.38806 46.8267 10.8065 49.3097 12.8802 49.6265C15.9235 50.0974 15.3939 45.6537 14.4602 44.1211L15.1964 43.8214C15.8427 45.5167 16.8302 48.0767 18.7693 48.7446C20.0172 49.1812 21.2112 48.5733 21.7498 47.4517C22.1807 46.5356 22.0101 45.4825 21.7677 44.5492C21.256 42.5115 20.2147 40.037 18.3025 38.7955C16.6866 37.7339 13.6433 38.5558 14.4782 40.7819C14.6308 41.1843 13.9216 41.484 13.742 41.0816C13.1406 39.7202 12.0723 38.5729 10.3845 38.8212C8.69681 39.0695 7.56567 40.4223 7.76317 42.032C7.82601 42.52 7.01805 42.52 6.95521 42.032C6.71282 40.0884 8.16714 38.4103 10.1691 38.0763C12.171 37.7424 13.6792 38.9925 14.4333 40.6963L13.6972 40.996C13.0239 39.2065 14.3076 37.7767 16.1928 37.5969C18.0781 37.4171 19.4337 38.5387 20.5019 39.9172C21.3997 41.073 21.9742 42.4087 22.3872 43.7872C22.6924 44.7889 22.9438 45.8934 22.7553 46.9466C22.3872 48.9329 20.3404 50.2429 18.3115 49.4124C16.2826 48.5819 15.1605 45.9705 14.4243 44.044C14.2627 43.6245 14.936 43.3762 15.1605 43.7444C16.3275 45.6794 16.7584 50.0717 13.5266 50.4142C10.7616 50.7138 8.73272 47.4517 8.13124 45.277C8.02351 44.8746 8.67885 44.5663 8.86738 44.9773C9.69329 46.7325 9.10976 49.147 6.83851 49.4467C4.26202 49.7806 3.13088 47.3318 2.43963 45.414C1.80224 43.6502 1.15588 40.9532 3.51691 40.097C5.19567 39.4891 6.93726 40.371 7.70931 41.8522C7.94272 42.2974 7.24249 42.6827 7.00908 42.2375L7.01806 42.2289Z" fill="black"/>
</svg>
