<svg width="338" height="26" viewBox="0 0 338 26" fill="none" xmlns="http://www.w3.org/2000/svg">
<path d="M0.5 13C0.5 6.09644 6.09644 0.5 13 0.5H323.5V25.5H13C6.09644 25.5 0.5 19.9036 0.5 13Z" fill="#CCFC56" stroke="#CCFC56"/>
<path d="M74.734 7.7041V10.5859H76.3717V11.5762H74.734V14.4199H73.5152V7.7041H74.734ZM66.2662 13.5947V8.54199H71.3443V9.51953H67.4596V12.6172C69.7003 12.6045 70.9635 12.541 72.398 12.249L72.5123 13.2266C70.9889 13.5376 69.6305 13.5947 67.1676 13.5947H66.2662ZM67.2311 16.8447C67.2311 15.4546 68.7037 14.6421 71.0523 14.6357C73.3756 14.6421 74.8229 15.4546 74.8229 16.8447C74.8229 18.2476 73.3756 19.0601 71.0523 19.0537C68.7037 19.0601 67.2311 18.2476 67.2311 16.8447ZM68.4244 16.8447C68.4181 17.6318 69.4083 18.0952 71.0523 18.0889C72.6646 18.0952 73.6612 17.6318 73.6676 16.8447C73.6612 16.0576 72.6646 15.6069 71.0523 15.6133C69.4083 15.6069 68.4181 16.0576 68.4244 16.8447ZM86.1518 7.7168V16.0449H84.9457V7.7168H86.1518ZM76.7826 13.4805C78.5663 12.8203 79.62 11.1826 79.6264 9.46875V8.33887H80.8578V9.46875C80.8515 11.1318 81.9052 12.6553 83.6635 13.2646L83.0414 14.2295C81.7274 13.7407 80.7563 12.7759 80.2484 11.5444C79.747 12.8647 78.7631 13.9185 77.4301 14.4326L76.7826 13.4805ZM78.7123 18.8379V15.2578H79.9311V17.8604H86.4945V18.8379H78.7123ZM97.0744 7.7041V19.1045H95.8684V7.7041H97.0744ZM88.048 12.541C88.048 10.1099 89.2731 8.56104 90.9934 8.55469C92.6818 8.56104 93.926 10.1099 93.926 12.541C93.926 14.9976 92.6818 16.5464 90.9934 16.54C89.2731 16.5464 88.048 14.9976 88.048 12.541ZM89.216 12.541C89.2097 14.3501 89.9333 15.4609 90.9934 15.4609C92.0344 15.4609 92.758 14.3501 92.758 12.541C92.758 10.7573 92.0344 9.64014 90.9934 9.63379C89.9333 9.64014 89.2097 10.7573 89.216 12.541ZM105.679 10.0781C105.679 11.5508 106.764 12.9346 108.522 13.4932L107.9 14.4326C106.593 14.001 105.609 13.106 105.088 11.9697C104.58 13.2075 103.565 14.1851 102.213 14.6611L101.591 13.709C103.362 13.106 104.453 11.6333 104.46 10.0781V9.58301H101.908V8.60547H108.179V9.58301H105.679V10.0781ZM103.457 18.8379V15.2324H104.676V17.8604H111.239V18.8379H103.457ZM109.69 16.0195V7.7168H110.896V16.0195H109.69ZM121.882 7.7041V14.4707H120.676V11.5889H118.556V10.5986H120.676V7.7041H121.882ZM112.399 13.4424C114.164 12.8267 115.249 11.2905 115.243 9.72266V9.46875H112.78V8.49121H118.912V9.46875H116.474V9.70996C116.468 11.1509 117.496 12.5537 119.216 13.1377L118.594 14.0898C117.318 13.6519 116.379 12.7378 115.884 11.6143C115.389 12.8838 114.392 13.9058 113.034 14.4072L112.399 13.4424ZM114.227 16.9336C114.221 15.5815 115.681 14.7944 118.074 14.7881C120.454 14.7944 121.914 15.5815 121.921 16.9336C121.914 18.2856 120.454 19.0728 118.074 19.0791C115.681 19.0728 114.221 18.2856 114.227 16.9336ZM115.421 16.9336C115.414 17.7017 116.404 18.1396 118.074 18.127C119.731 18.1396 120.721 17.7017 120.727 16.9336C120.721 16.1592 119.731 15.7212 118.074 15.7275C116.404 15.7212 115.414 16.1592 115.421 16.9336ZM132.272 7.7168V11.373H133.922V12.376H132.272V16.2227H131.066V7.7168H132.272ZM123.347 10.0146V9.03711H126.14V7.7041H127.346V9.03711H130.126V10.0146H123.347ZM123.969 12.7061C123.963 11.4048 125.086 10.5542 126.737 10.5605C128.368 10.5542 129.492 11.4048 129.492 12.7061C129.492 13.9946 128.368 14.8325 126.737 14.8389C125.086 14.8325 123.963 13.9946 123.969 12.7061ZM125.061 18.8379V15.5498H126.267V17.8604H132.754V18.8379H125.061ZM125.137 12.7061C125.124 13.4487 125.772 13.9058 126.737 13.8994C127.702 13.9058 128.349 13.4487 128.362 12.7061C128.349 11.957 127.702 11.4937 126.737 11.4873C125.772 11.4937 125.124 11.957 125.137 12.7061ZM140.876 8.22461C142.59 8.21826 143.828 9.17676 143.834 10.5859C143.828 11.9824 142.59 12.9473 140.876 12.9346C139.168 12.9473 137.937 11.9824 137.943 10.5859C137.937 9.17676 139.168 8.21826 140.876 8.22461ZM137.131 13.8232C139.232 13.8232 142.133 13.7788 144.621 13.4043L144.71 14.3057C143.669 14.5024 142.596 14.623 141.549 14.6929V18.7236H140.343V14.7627C139.238 14.8135 138.197 14.8198 137.296 14.8262L137.131 13.8232ZM139.111 10.5859C139.099 11.4111 139.841 11.957 140.876 11.9443C141.936 11.957 142.679 11.4111 142.679 10.5859C142.679 9.75439 141.936 9.1958 140.876 9.20215C139.841 9.1958 139.099 9.75439 139.111 10.5859ZM145.408 19.0791V7.7168H146.602V19.0791H145.408ZM157.524 7.7041V19.0791H156.318V7.7041H157.524ZM148.777 16.1846V8.80859H149.971V15.1436C151.634 15.1372 153.379 14.9912 155.201 14.623L155.366 15.6387C153.354 16.0513 151.526 16.1909 149.729 16.1846H148.777ZM162.721 8.5166C164.518 8.51025 165.813 9.62109 165.819 11.2207C165.813 12.8203 164.518 13.9312 162.721 13.9375C160.931 13.9312 159.617 12.8203 159.624 11.2207C159.617 9.62109 160.931 8.51025 162.721 8.5166ZM159.078 15.6514C161.147 15.6514 164.016 15.6323 166.504 15.2705L166.593 16.1465C164.023 16.6416 161.261 16.6543 159.23 16.6543L159.078 15.6514ZM160.817 11.2207C160.804 12.23 161.617 12.8838 162.721 12.8838C163.826 12.8838 164.638 12.23 164.638 11.2207C164.638 10.2241 163.826 9.55762 162.721 9.55762C161.617 9.55762 160.804 10.2241 160.817 11.2207ZM167.215 19.1045V7.7041H168.421V19.1045H167.215ZM176.556 8.22461C178.27 8.21826 179.508 9.17676 179.514 10.5859C179.508 11.9824 178.27 12.9473 176.556 12.9346C174.848 12.9473 173.617 11.9824 173.623 10.5859C173.617 9.17676 174.848 8.21826 176.556 8.22461ZM172.811 13.8232C174.912 13.8232 177.813 13.7788 180.301 13.4043L180.39 14.3057C179.349 14.5024 178.276 14.623 177.229 14.6929V18.7236H176.023V14.7627C174.918 14.8135 173.877 14.8198 172.976 14.8262L172.811 13.8232ZM174.791 10.5859C174.779 11.4111 175.521 11.957 176.556 11.9443C177.616 11.957 178.359 11.4111 178.359 10.5859C178.359 9.75439 177.616 9.1958 176.556 9.20215C175.521 9.1958 174.779 9.75439 174.791 10.5859ZM181.088 19.0791V7.7168H182.281V19.0791H181.088ZM193.255 7.7041V19.1045H192.049V12.3633H188.659V11.373H192.049V7.7041H193.255ZM184.368 16.3623V8.96094H185.587V15.3594C187.212 15.334 188.742 15.2324 190.398 14.9023L190.551 15.8926C188.716 16.2671 187.066 16.3687 185.282 16.3623H184.368ZM196.789 8.80859L196.675 15.3467H195.418L195.304 8.80859H196.789ZM195.151 17.1875C195.145 16.6924 195.557 16.2861 196.053 16.2861C196.541 16.2861 196.948 16.6924 196.954 17.1875C196.948 17.6826 196.541 18.0825 196.053 18.0889C195.557 18.0825 195.145 17.6826 195.151 17.1875ZM211.195 13.3916V14.3564H206.599V15.5498H209.925V19.0537H208.706V16.5273H201.978V15.5498H205.406V14.3564H200.823V13.3916H211.195ZM201.381 11.9189C203.641 11.7095 205.203 10.8843 205.336 9.74805H201.864V8.7959H205.406V7.66602H206.599V8.7959H210.154V9.74805H206.669C206.789 10.8843 208.345 11.7095 210.623 11.9189L210.243 12.8203C208.281 12.6426 206.701 11.9888 206.002 10.916C205.298 11.9888 203.711 12.6426 201.762 12.8203L201.381 11.9189ZM220.619 7.7041V12.3125H222.447V13.3154H220.619V19.0791H219.426V7.7041H220.619ZM211.695 10.4717V9.48145H214.5V7.85645H215.706V9.48145H218.436V10.4717H211.695ZM212.279 13.9502C212.279 12.4014 213.472 11.3096 215.11 11.3096C216.741 11.3096 217.934 12.4014 217.941 13.9502C217.934 15.5117 216.741 16.5972 215.11 16.6035C213.472 16.5972 212.279 15.5117 212.279 13.9502ZM213.434 13.9502C213.427 14.9404 214.138 15.6006 215.11 15.5879C216.074 15.6006 216.779 14.9404 216.785 13.9502C216.779 12.979 216.074 12.3062 215.11 12.2998C214.138 12.3062 213.427 12.979 213.434 13.9502ZM231.631 7.7041V10.5605H233.281V11.5762H231.631V14.3311H230.425V7.7041H231.631ZM222.706 9.78613V8.82129H225.499V7.60254H226.705V8.82129H229.485V9.78613H222.706ZM223.328 12.249C223.322 11.0366 224.439 10.2495 226.096 10.2559C227.733 10.2495 228.851 11.0366 228.851 12.249C228.851 13.4614 227.733 14.2549 226.096 14.2422C224.439 14.2549 223.322 13.4614 223.328 12.249ZM224.356 18.9395V14.8008H225.55V15.9053H230.425V14.8008H231.631V18.9395H224.356ZM224.496 12.249C224.483 12.9282 225.131 13.3472 226.096 13.3535C227.061 13.3472 227.708 12.9282 227.721 12.249C227.708 11.5825 227.061 11.1509 226.096 11.1572C225.131 11.1509 224.483 11.5825 224.496 12.249ZM225.55 17.9746H230.425V16.8447H225.55V17.9746ZM243.074 7.7041V19.0791H241.868V7.7041H243.074ZM234.327 16.1846V8.80859H235.52V15.1436C237.183 15.1372 238.929 14.9912 240.751 14.623L240.916 15.6387C238.904 16.0513 237.076 16.1909 235.279 16.1846H234.327ZM253.425 7.7041V12.1094H255.254V13.0996H253.425V19.1045H252.219V7.7041H253.425ZM245.046 16.2734V8.7959H250.366V9.77344H246.253V15.2705C248.163 15.2642 249.591 15.1816 251.216 14.8896L251.369 15.9053C249.585 16.2227 248.074 16.2798 245.961 16.2734H245.046ZM257.594 8.80859L257.48 15.3467H256.223L256.109 8.80859H257.594ZM255.956 17.1875C255.95 16.6924 256.363 16.2861 256.858 16.2861C257.347 16.2861 257.753 16.6924 257.759 17.1875C257.753 17.6826 257.347 18.0825 256.858 18.0889C256.363 18.0825 255.95 17.6826 255.956 17.1875Z" fill="#14191F"/>
<circle cx="325" cy="13" r="12.5" fill="#14191F" stroke="#14191F"/>
<path d="M317.475 16.462H316.305V11.314L315 12.448V11.188L316.305 10.054H317.475V16.462Z" fill="#CCFC56"/>
<path d="M323.127 14.608C323.127 15.832 322.227 16.516 321.183 16.516C320.139 16.516 319.23 15.832 319.23 14.608V11.908C319.23 10.684 320.139 10 321.183 10C322.227 10 323.127 10.684 323.127 11.908V14.608ZM321.957 14.599V11.926C321.957 11.386 321.642 11.053 321.183 11.053C320.724 11.053 320.4 11.386 320.4 11.926V14.599C320.4 15.139 320.724 15.463 321.183 15.463C321.642 15.463 321.957 15.139 321.957 14.599Z" fill="#CCFC56"/>
<path d="M327.788 14.608C327.788 15.832 326.888 16.516 325.844 16.516C324.8 16.516 323.891 15.832 323.891 14.608V11.908C323.891 10.684 324.8 10 325.844 10C326.888 10 327.788 10.684 327.788 11.908V14.608ZM326.618 14.599V11.926C326.618 11.386 326.303 11.053 325.844 11.053C325.385 11.053 325.061 11.386 325.061 11.926V14.599C325.061 15.139 325.385 15.463 325.844 15.463C326.303 15.463 326.618 15.139 326.618 14.599Z" fill="#CCFC56"/>
<path d="M335.222 15.283C335.222 16.093 334.619 16.516 333.917 16.516C333.206 16.516 332.612 16.093 332.612 15.283V14.392C332.612 13.582 333.206 13.159 333.917 13.159C334.619 13.159 335.222 13.582 335.222 14.392V15.283ZM331.136 12.124C331.136 12.934 330.533 13.357 329.831 13.357C329.12 13.357 328.526 12.934 328.526 12.124V11.233C328.526 10.423 329.12 10 329.831 10C330.533 10 331.136 10.423 331.136 11.233V12.124ZM333.854 10.054L330.821 16.462H329.903L332.936 10.054H333.854ZM334.376 15.247V14.428C334.376 14.086 334.205 13.915 333.917 13.915C333.62 13.915 333.458 14.086 333.458 14.428V15.247C333.458 15.589 333.62 15.76 333.917 15.76C334.205 15.76 334.376 15.589 334.376 15.247ZM330.29 12.088V11.269C330.29 10.927 330.119 10.756 329.831 10.756C329.534 10.756 329.372 10.927 329.372 11.269V12.088C329.372 12.43 329.543 12.601 329.831 12.601C330.119 12.601 330.29 12.43 330.29 12.088Z" fill="#CCFC56"/>
</svg>
