<svg width="40" height="40" viewBox="0 0 40 40" fill="none" xmlns="http://www.w3.org/2000/svg">
<rect width="40" height="40" rx="8" fill="#F0F2F5"/>
<mask id="mask0_4113_38102" style="mask-type:alpha" maskUnits="userSpaceOnUse" x="0" y="0" width="40" height="40">
<rect width="40" height="40" rx="8" fill="#F2E9FF"/>
</mask>
<g mask="url(#mask0_4113_38102)">
<path d="M22.0457 50.4762C30.7177 50.4762 37.7477 43.4462 37.7477 34.7742C37.7477 26.1023 30.7177 19.0723 22.0457 19.0723C13.3738 19.0723 6.34375 26.1023 6.34375 34.7742C6.34375 43.4462 13.3738 50.4762 22.0457 50.4762Z" fill="#674AD6"/>
<path d="M37.4977 34.7748C37.4957 36.4008 37.2438 38.0167 36.7413 39.5629C36.2597 41.0468 35.5468 42.4516 34.6444 43.7239C33.7534 44.9793 32.6668 46.1068 31.4441 47.0427C30.2094 47.9873 28.8314 48.7504 27.3716 49.2843C25.8555 49.839 24.2564 50.1539 22.6439 50.2142C21.0179 50.2752 19.39 50.0849 17.8243 49.6414C16.3116 49.2127 14.8719 48.5508 13.5582 47.6872C12.2679 46.8391 11.1096 45.7946 10.1247 44.6048C9.13726 43.4123 8.32529 42.0611 7.7411 40.6267C7.13883 39.1482 6.76367 37.5765 6.64241 35.9841C6.52115 34.3916 6.64577 32.698 7.035 31.1049C7.40749 29.5795 8.01244 28.1177 8.82641 26.7745C9.64039 25.4312 10.6352 24.2454 11.7956 23.2137C12.9539 22.1834 14.269 21.3326 15.6805 20.6908C17.1229 20.0349 18.6792 19.6041 20.2535 19.4246C21.8279 19.245 23.5329 19.3047 25.1354 19.6309C26.7378 19.9572 28.1829 20.4998 29.565 21.2716C30.9162 22.0259 32.1482 22.9806 33.2181 24.0987C34.2941 25.2229 35.1951 26.5072 35.8899 27.9C36.596 29.3155 37.0763 30.8416 37.3202 32.4046C37.4421 33.1878 37.4977 33.9816 37.499 34.7742C37.499 35.0978 38.0022 35.0978 38.0015 34.7742C37.9995 33.1067 37.7429 31.4386 37.2277 29.8521C36.7125 28.2657 36.0011 26.8656 35.0685 25.5545C34.136 24.2434 33.0105 23.0784 31.7322 22.0976C30.454 21.1168 29.035 20.341 27.5264 19.787C26.0177 19.233 24.3227 18.8973 22.6673 18.8324C20.9931 18.7674 19.3042 18.9657 17.6923 19.4226C16.1408 19.862 14.6535 20.5414 13.3063 21.4277C11.9691 22.3066 10.7625 23.3846 9.74489 24.6199C8.71855 25.866 7.88715 27.2561 7.27416 28.7494C6.66117 30.2427 6.2706 31.8981 6.14331 33.5428C6.01335 35.2204 6.15001 36.9213 6.54662 38.5566C6.94322 40.192 7.55553 41.6444 8.39362 43.0278C9.223 44.3958 10.2601 45.6426 11.4573 46.7037C12.6544 47.7656 14.0077 48.6499 15.4661 49.3091C16.9722 49.9891 18.5706 50.4299 20.2113 50.6215C21.8875 50.8171 23.5945 50.7414 25.2486 50.4065C26.8403 50.0842 28.3819 49.5108 29.8008 48.7209C31.1996 47.9424 32.4832 46.9483 33.5879 45.7906C34.69 44.6356 35.6225 43.3139 36.3333 41.8842C37.0441 40.4546 37.5647 38.8501 37.8112 37.2355C37.9358 36.4209 38.0002 35.5989 38.0015 34.7748C38.0015 34.4513 37.4997 34.4513 37.499 34.7748H37.4977Z" fill="black"/>
<path d="M20.7996 50.4782C29.4716 50.4782 36.5016 43.4482 36.5016 34.7762C36.5016 26.1042 29.4716 19.0742 20.7996 19.0742C12.1277 19.0742 5.09766 26.1042 5.09766 34.7762C5.09766 43.4482 12.1277 50.4782 20.7996 50.4782Z" fill="#A495FC"/>
<path d="M36.2275 35.6229C36.1377 37.2448 35.7954 38.8473 35.2105 40.3627C34.6532 41.8078 33.8687 43.1744 32.9026 44.3843C31.9359 45.5956 30.7903 46.6655 29.5094 47.5391C28.2231 48.416 26.8095 49.1 25.3203 49.5549C23.7754 50.0272 22.1635 50.2516 20.5483 50.2248C18.9224 50.198 17.3058 49.9167 15.767 49.3894C14.281 48.8803 12.8775 48.1373 11.614 47.2048C10.3807 46.295 9.27796 45.1909 8.36885 43.9569C7.44367 42.7014 6.70406 41.3093 6.19424 39.8355C5.68442 38.3616 5.38629 36.7383 5.35079 35.1399C5.31461 33.4999 5.53502 31.8599 6.00934 30.2895C6.48365 28.7192 7.15024 27.3599 8.03456 26.0636C8.90882 24.782 9.98139 23.6371 11.194 22.6703C12.3972 21.711 13.7552 20.9305 15.1902 20.3731C16.6781 19.7956 18.2538 19.4466 19.8475 19.3521C21.4815 19.255 23.1262 19.4124 24.7099 19.8251C26.2414 20.2244 27.7046 20.8602 29.0431 21.705C30.3816 22.5498 31.5292 23.554 32.5362 24.7277C33.5431 25.9014 34.3785 27.2433 34.9962 28.669C35.6138 30.0946 36.0198 31.6589 36.1732 33.2218C36.2516 34.0191 36.267 34.8217 36.2255 35.6222C36.2088 35.9451 36.7112 35.9445 36.728 35.6222C36.8157 33.9574 36.6455 32.2779 36.2168 30.666C35.788 29.0542 35.1489 27.6178 34.2887 26.2592C33.4332 24.9079 32.3754 23.6826 31.1588 22.6449C29.9368 21.6025 28.5621 20.7409 27.0842 20.1105C25.6063 19.4801 23.9241 19.0453 22.2613 18.8906C20.5918 18.7351 18.8976 18.8457 17.2623 19.2155C15.6893 19.5705 14.1685 20.1721 12.7757 20.9841C11.3943 21.7894 10.1315 22.805 9.0495 23.9827C7.96555 25.1625 7.05645 26.5051 6.37311 27.9541C5.66499 29.4561 5.19804 31.0566 4.98165 32.702C4.76191 34.3721 4.80948 36.0731 5.11765 37.7298C5.41376 39.3209 5.9611 40.8652 6.72416 42.2928C7.47851 43.7037 8.44991 45.002 9.58747 46.1268C10.725 47.2517 12.0327 48.2056 13.4523 48.9419C14.9088 49.6969 16.4804 50.2268 18.0983 50.4995C19.7739 50.7822 21.4822 50.801 23.1637 50.5544C24.7722 50.318 26.3386 49.8262 27.799 49.1141C29.2387 48.412 30.5706 47.4868 31.7369 46.3895C32.8993 45.2954 33.8995 44.0232 34.686 42.6345C35.4906 41.2149 36.0761 39.668 36.4097 38.0708C36.5779 37.2649 36.6831 36.4456 36.7286 35.6236C36.7467 35.3006 36.2443 35.3013 36.2262 35.6236L36.2275 35.6229Z" fill="black"/>
<path d="M34.8136 34.775C34.8116 36.2482 34.5838 37.714 34.1289 39.1155C33.674 40.5171 33.0469 41.7343 32.229 42.888C31.4183 44.0309 30.4302 45.0552 29.3174 45.9067C28.2046 46.7582 26.9492 47.4529 25.6247 47.9373C24.2507 48.4397 22.8009 48.7245 21.3391 48.7794C19.8659 48.8343 18.3887 48.6615 16.9705 48.2595C15.5998 47.871 14.2934 47.2714 13.1036 46.4882C11.9339 45.7191 10.8834 44.7732 9.99107 43.6952C9.09202 42.6099 8.35508 41.3819 7.82315 40.0762C7.27715 38.7357 6.93817 37.3107 6.8283 35.8677C6.71575 34.3865 6.83233 32.8892 7.18471 31.4454C7.5371 30.0017 8.07104 28.7376 8.80864 27.5203C9.54624 26.303 10.448 25.2278 11.4998 24.2925C12.5516 23.3573 13.7414 22.5862 15.0203 22.0047C16.2992 21.4232 17.7469 21.0159 19.1806 20.8531C20.6531 20.6856 22.1524 20.7459 23.6049 21.042C25.0573 21.3381 26.3677 21.8305 27.6191 22.5293C28.8438 23.2126 29.9612 24.0788 30.9306 25.0918C31.9054 26.1107 32.7234 27.2751 33.3531 28.5366C33.9936 29.8195 34.4297 31.2023 34.6508 32.6192C34.762 33.332 34.8136 34.0535 34.8142 34.775C34.8142 34.9908 35.1492 34.9908 35.1492 34.775C35.1472 33.2744 34.9161 31.7737 34.4525 30.3454C33.9889 28.9171 33.3478 27.6583 32.5083 26.4779C31.6709 25.3014 30.662 24.2564 29.517 23.3767C28.3721 22.4971 27.0905 21.7943 25.7326 21.2959C24.3324 20.7821 22.8498 20.494 21.3599 20.4364C19.87 20.3788 18.3338 20.5563 16.8827 20.967C15.4859 21.3629 14.1487 21.9739 12.9354 22.7718C11.7322 23.563 10.6469 24.5337 9.73114 25.6458C8.81132 26.7626 8.06434 28.0107 7.51499 29.3492C6.95157 30.7226 6.61057 32.1824 6.49534 33.6623C6.38012 35.1422 6.5007 36.7024 6.85777 38.1743C7.20145 39.5892 7.76487 40.9525 8.51989 42.1979C9.2662 43.4299 10.1994 44.5501 11.2773 45.5061C12.3546 46.4614 13.5732 47.2566 14.8863 47.8495C16.1994 48.4424 17.6712 48.8551 19.1424 49.0266C20.6511 49.2028 22.1873 49.1358 23.6759 48.8343C25.1645 48.5329 26.4956 48.0291 27.7732 47.3183C29.0327 46.6175 30.187 45.7231 31.1819 44.6807C32.174 43.641 33.0121 42.4518 33.6519 41.1649C34.3064 39.8491 34.7586 38.4336 34.9811 36.9805C35.0929 36.2502 35.1499 35.5126 35.1506 34.7737C35.1506 34.558 34.8156 34.558 34.8156 34.7737L34.8136 34.775Z" fill="black"/>
<path d="M25.5348 31.7142C25.5227 32.1256 25.4866 33.3308 24.6706 34.2908C24.4602 34.5387 23.8975 35.2006 23.0051 35.2602C22.1912 35.3145 21.6036 34.8341 21.4422 34.6975C20.3019 33.7361 20.3287 32.0023 20.3354 31.5782C20.3421 31.1374 20.3649 29.6816 21.3511 28.7303C21.5232 28.5642 22.0263 28.0925 22.7894 28.0302C23.6724 27.9579 24.3216 28.4811 24.5654 28.7116C25.5944 29.683 25.5482 31.2325 25.5341 31.7142H25.5348Z" fill="white"/>
<path d="M25.3676 31.7149C25.3609 31.9494 25.3434 32.1999 25.3099 32.411C25.2537 32.768 25.1585 33.1231 25.0065 33.4514C24.7438 34.0181 24.303 34.5615 23.7557 34.8649C23.4187 35.0519 23.0295 35.1343 22.6456 35.0833C22.316 35.0391 22.0065 34.9018 21.7352 34.7135C21.7111 34.6968 21.6869 34.6787 21.6628 34.6613C21.6575 34.6573 21.6213 34.6291 21.6548 34.6559C21.6454 34.6486 21.636 34.6412 21.6266 34.6338C21.5858 34.601 21.5456 34.5675 21.5067 34.5327C21.3734 34.4134 21.2515 34.2801 21.1476 34.134C20.952 33.8594 20.8093 33.5519 20.7102 33.2303C20.5514 32.7171 20.4991 32.2234 20.5025 31.6868C20.5052 31.2071 20.5393 30.7676 20.6592 30.3094C20.8281 29.6649 21.1604 29.0827 21.6829 28.6613C21.7164 28.6345 21.77 28.5943 21.8236 28.5582C21.8986 28.5072 21.977 28.4603 22.0574 28.4181C22.2256 28.3297 22.4051 28.2661 22.5914 28.2279C22.9732 28.1495 23.3758 28.2011 23.7329 28.3558C24.3278 28.6131 24.7814 29.0934 25.052 29.6971C25.3026 30.2564 25.3756 30.8567 25.3736 31.4597C25.3736 31.5447 25.3716 31.6298 25.3689 31.7149C25.3622 31.9306 25.6972 31.9306 25.7039 31.7149C25.7206 31.1488 25.6838 30.5773 25.5263 30.0307C25.3233 29.3272 24.916 28.7035 24.3064 28.2909C23.9768 28.0678 23.6003 27.9197 23.2043 27.8721C22.7582 27.8185 22.3066 27.9137 21.9087 28.1187C21.2836 28.4396 20.804 29.0137 20.532 29.6542C20.2861 30.2323 20.1863 30.8587 20.1722 31.4844C20.1615 31.9608 20.1869 32.4364 20.2827 32.904C20.4308 33.6276 20.7577 34.339 21.3319 34.8221C21.906 35.3051 22.6275 35.5476 23.3591 35.3768C24.0351 35.2193 24.579 34.7249 24.975 34.1749C25.4272 33.5472 25.6376 32.7788 25.6905 32.0144C25.6972 31.9145 25.7012 31.8147 25.7045 31.7149C25.7112 31.4992 25.3763 31.4992 25.3696 31.7149H25.3676Z" fill="black"/>
<path d="M23.7429 31.7048C23.7355 32.0571 23.7127 33.0888 23.2069 33.9109C23.0763 34.1232 22.7273 34.69 22.1732 34.7409C21.6681 34.7871 21.303 34.3758 21.2032 34.2592C20.4957 33.4359 20.5125 31.9513 20.5165 31.5889C20.5205 31.2117 20.5346 29.9649 21.1469 29.1503C21.2541 29.0076 21.5663 28.6043 22.0399 28.5507C22.5879 28.4891 22.9912 28.9372 23.142 29.1342C23.7811 29.9656 23.7523 31.2927 23.7429 31.7048Z" fill="black"/>
<path d="M23.5759 31.705C23.5658 32.1827 23.5163 32.6576 23.3763 33.1165C23.2925 33.3919 23.1746 33.6498 23.0212 33.893C22.9039 34.0779 22.7827 34.2414 22.6058 34.3814C22.4142 34.5335 22.1717 34.6165 21.9285 34.5569C21.7081 34.5026 21.5359 34.3707 21.3859 34.2119C21.0496 33.8548 20.8848 33.3705 20.7896 32.8982C20.7099 32.5036 20.6824 32.0969 20.6838 31.6876C20.6851 31.3191 20.7025 30.9466 20.7642 30.5889C20.8124 30.3102 20.8827 30.0322 20.9906 29.7702C21.0422 29.6443 21.1045 29.5223 21.1755 29.4071C21.2117 29.3481 21.2512 29.2912 21.2921 29.2356C21.2961 29.2302 21.3001 29.2249 21.3041 29.2195C21.3263 29.1894 21.2867 29.241 21.3035 29.2209C21.3182 29.2028 21.3323 29.184 21.3477 29.1659C21.4931 28.9911 21.6726 28.8283 21.8923 28.7553C22.1543 28.6688 22.4129 28.7291 22.6387 28.8785C22.8081 28.9911 22.9649 29.1632 23.0687 29.3153C23.2269 29.5478 23.3354 29.8077 23.4111 30.0777C23.5411 30.5373 23.5813 31.0129 23.5799 31.4893C23.5799 31.5616 23.5786 31.6333 23.5772 31.7057C23.5725 31.9214 23.9075 31.9214 23.9122 31.7057C23.9336 30.7121 23.8278 29.5418 23.0768 28.8075C22.8731 28.6085 22.6165 28.4417 22.3311 28.3955C22.0056 28.3426 21.684 28.4357 21.422 28.6333C20.9712 28.9737 20.6985 29.5022 20.5464 30.0362C20.4091 30.5165 20.3588 31.0203 20.3508 31.5181C20.3448 31.904 20.3609 32.2885 20.4138 32.671C20.4908 33.2264 20.6476 33.8046 20.9906 34.2588C21.3148 34.6875 21.8287 35.0352 22.3881 34.8704C22.9046 34.7184 23.2617 34.2139 23.4875 33.7517C23.7581 33.1963 23.8727 32.5779 23.9035 31.9643C23.9082 31.8778 23.9102 31.7921 23.9122 31.7057C23.9169 31.4899 23.5819 31.4899 23.5772 31.7057L23.5759 31.705Z" fill="black"/>
<path d="M23.8908 29.7188L22.3145 31.06L24.2164 31.6475L23.8908 29.7188Z" fill="white"/>
<path d="M20.1324 31.8783C20.1204 32.2896 20.0842 33.4949 19.2682 34.4549C19.0579 34.7027 18.4951 35.3646 17.6028 35.4243C16.7888 35.4785 16.2013 34.9982 16.0398 34.8615C14.8996 33.9002 14.9264 32.1664 14.9331 31.7423C14.9398 31.3015 14.9625 29.8457 15.9487 28.8944C16.1209 28.7283 16.624 28.2566 17.387 28.1943C18.27 28.122 18.9192 28.6452 19.1631 28.8756C20.1921 29.847 20.1458 31.3966 20.1318 31.8783H20.1324Z" fill="white"/>
<path d="M19.9652 31.879C19.9585 32.1134 19.9411 32.364 19.9076 32.575C19.8513 32.9321 19.7562 33.2872 19.6041 33.6154C19.3415 34.1822 18.9007 34.7255 18.3534 35.029C18.0164 35.2159 17.6271 35.2983 17.2433 35.2474C16.9137 35.2032 16.6041 35.0659 16.3328 34.8776C16.3087 34.8609 16.2846 34.8428 16.2605 34.8254C16.2551 34.8213 16.2189 34.7932 16.2524 34.82C16.243 34.8126 16.2337 34.8053 16.2243 34.7979C16.1834 34.7651 16.1432 34.7316 16.1044 34.6967C15.9711 34.5775 15.8491 34.4442 15.7453 34.2981C15.5497 34.0234 15.407 33.7159 15.3078 33.3944C15.149 32.8812 15.0968 32.3874 15.1001 31.8508C15.1028 31.3712 15.137 30.9317 15.2569 30.4734C15.4257 29.829 15.758 29.2468 16.2806 28.8254C16.3141 28.7986 16.3677 28.7584 16.4212 28.7222C16.4963 28.6713 16.5747 28.6244 16.6551 28.5822C16.8232 28.4938 17.0027 28.4301 17.189 28.3919C17.5709 28.3136 17.9735 28.3652 18.3306 28.5199C18.9255 28.7772 19.379 29.2575 19.6497 29.8611C19.9002 30.4205 19.9733 31.0208 19.9712 31.6237C19.9712 31.7088 19.9692 31.7939 19.9665 31.879C19.9598 32.0947 20.2948 32.0947 20.3015 31.879C20.3183 31.3129 20.2814 30.7414 20.124 30.1947C19.921 29.4913 19.5137 28.8676 18.904 28.4549C18.5744 28.2318 18.1979 28.0838 17.802 28.0362C17.3558 27.9826 16.9043 28.0777 16.5063 28.2827C15.8813 28.6036 15.4016 29.1778 15.1296 29.8182C14.8837 30.3964 14.7839 31.0228 14.7699 31.6485C14.7591 32.1248 14.7846 32.6005 14.8804 33.0681C15.0284 33.7916 15.3554 34.5031 15.9295 34.9861C16.5036 35.4692 17.2252 35.7117 17.9567 35.5408C18.6327 35.3834 19.1767 34.889 19.5726 34.339C20.0248 33.7112 20.2352 32.9428 20.2881 32.1784C20.2948 32.0786 20.2988 31.9788 20.3022 31.879C20.3089 31.6632 19.9739 31.6632 19.9672 31.879H19.9652Z" fill="black"/>
<path d="M18.3386 31.8708C18.3312 32.2232 18.3084 33.2549 17.8026 34.0769C17.672 34.2892 17.323 34.856 16.7689 34.9069C16.2638 34.9532 15.8987 34.5418 15.7989 34.4252C15.0914 33.6019 15.1082 32.1173 15.1122 31.7549C15.1162 31.3777 15.1303 30.1309 15.7426 29.3163C15.8498 29.1736 16.162 28.7703 16.6356 28.7167C17.1836 28.6551 17.5869 29.1033 17.7377 29.3002C18.3768 30.1316 18.348 31.4588 18.3386 31.8708Z" fill="black"/>
<path d="M18.1716 31.871C18.1615 32.3487 18.112 32.8237 17.9719 33.2826C17.8882 33.5579 17.7703 33.8158 17.6169 34.059C17.4996 34.2439 17.3784 34.4074 17.2015 34.5474C17.0099 34.6995 16.7674 34.7825 16.5242 34.7229C16.3038 34.6687 16.1316 34.5367 15.9816 34.3779C15.6453 34.0208 15.4805 33.5365 15.3853 33.0642C15.3056 32.6696 15.2781 32.2629 15.2795 31.8536C15.2808 31.4851 15.2982 31.1126 15.3599 30.7549C15.4081 30.4762 15.4784 30.1982 15.5863 29.9362C15.6379 29.8103 15.7002 29.6883 15.7712 29.5731C15.8074 29.5142 15.8469 29.4572 15.8878 29.4016C15.8918 29.3963 15.8958 29.3909 15.8998 29.3855C15.9219 29.3554 15.8824 29.407 15.8992 29.3869C15.9139 29.3688 15.928 29.35 15.9434 29.3319C16.0887 29.1571 16.2683 28.9943 16.488 28.9213C16.75 28.8349 17.0086 28.8951 17.2343 29.0445C17.4038 29.1571 17.5606 29.3293 17.6644 29.4813C17.8226 29.7138 17.9311 29.9737 18.0068 30.2437C18.1367 30.7033 18.1769 31.179 18.1756 31.6553C18.1756 31.7276 18.1743 31.7993 18.1729 31.8717C18.1682 32.0874 18.5032 32.0874 18.5079 31.8717C18.5293 30.8782 18.4235 29.7078 17.6725 28.9735C17.4688 28.7746 17.2122 28.6077 16.9268 28.5615C16.6013 28.5086 16.2797 28.6017 16.0177 28.7993C15.5669 29.1397 15.2942 29.6683 15.1421 30.2022C15.0048 30.6825 14.9546 31.1863 14.9465 31.6841C14.9405 32.07 14.9566 32.4545 15.0095 32.8371C15.0865 33.3924 15.2433 33.9706 15.5863 34.4248C15.9106 34.8536 16.4244 35.2013 16.9838 35.0365C17.5003 34.8844 17.8574 34.3799 18.0832 33.9177C18.3538 33.3623 18.4684 32.7439 18.4992 32.1303C18.5039 32.0439 18.5059 31.9581 18.5079 31.8717C18.5126 31.656 18.1776 31.656 18.1729 31.8717L18.1716 31.871Z" fill="black"/>
<path d="M18.4878 29.8809L16.9121 31.2214L18.8134 31.8096L18.4878 29.8809Z" fill="white"/>
<path d="M18.9375 35.186C18.9375 35.186 15.3419 35.5129 15.0559 37.4323C15.0404 37.5355 14.9741 38.0031 15.2374 38.2349C15.5885 38.5444 16.2946 38.2282 16.4734 38.1485C16.9545 37.9334 17.2613 37.5851 17.4402 37.3258C17.4495 37.3117 17.471 37.3218 17.4663 37.3379C17.3283 37.8309 17.4683 38.4024 17.8569 38.5525C18.3821 38.7554 19.1746 38.6462 19.4935 37.8128C19.5016 37.7914 19.5317 37.7921 19.5397 37.8135C19.7166 38.2624 20.9754 39.3316 22.1692 37.705C22.2972 38.3367 24.2139 39.4314 24.9173 37.4196C25.182 38.1217 26.9512 37.9113 26.2505 36.6177C25.3548 34.9643 20.5078 35.0762 18.9375 35.186Z" fill="#C6C6C6"/>
<path d="M18.9373 35.0606C18.6727 35.0847 18.4087 35.1303 18.1481 35.1819C17.6041 35.2897 17.0668 35.4438 16.559 35.6696C16.0512 35.8953 15.5086 36.2357 15.1903 36.7308C15.0409 36.9625 14.9525 37.2238 14.9217 37.4972C14.8828 37.8435 14.9525 38.2689 15.3069 38.4264C15.6613 38.5838 16.0646 38.4545 16.3936 38.3185C16.7774 38.1597 17.1157 37.9266 17.3837 37.6064C17.4145 37.5695 17.4433 37.532 17.4728 37.4945C17.4842 37.4791 17.4956 37.4643 17.507 37.4489C17.5137 37.4395 17.5224 37.4295 17.5284 37.4194C17.5425 37.396 17.5499 37.4101 17.5157 37.4288H17.3891L17.4005 37.4342L17.3428 37.3592L17.3455 37.3726V37.3056C17.2136 37.7939 17.302 38.4793 17.8393 38.6803C18.2392 38.8303 18.7243 38.7888 19.0807 38.5483C19.1925 38.4726 19.2924 38.3815 19.3754 38.2756C19.4243 38.2133 19.4692 38.1483 19.5081 38.0793C19.5275 38.0438 19.5463 38.0077 19.563 37.9708C19.5697 37.9554 19.5764 37.94 19.5831 37.9246L19.5958 37.8944C19.6179 37.8502 19.6025 37.8589 19.5503 37.9185H19.4833C19.4384 37.9045 19.3996 37.8053 19.4364 37.8884C19.4391 37.8944 19.4418 37.9011 19.4451 37.9072C19.4505 37.9179 19.4552 37.9286 19.4612 37.9386C19.4766 37.9675 19.4947 37.9956 19.5134 38.0231C19.5603 38.0901 19.6126 38.153 19.6695 38.2113C19.8002 38.344 19.9549 38.4578 20.1217 38.5403C20.5445 38.7499 21.0215 38.7493 21.4429 38.5342C21.7845 38.36 22.0532 38.0733 22.2783 37.7685L22.0485 37.7383C22.086 37.9139 22.2099 38.0686 22.3372 38.1892C22.5067 38.3507 22.7077 38.4746 22.9228 38.5644C23.3998 38.7633 23.9592 38.7553 24.3832 38.4351C24.7068 38.1905 24.9058 37.8294 25.0391 37.4529H24.7966C25.0197 38.0237 25.8758 38.0767 26.2992 37.7109C26.5618 37.4838 26.5846 37.1186 26.4741 36.8091C26.3636 36.4996 26.1512 36.2276 25.8798 36.022C25.297 35.5798 24.5319 35.3882 23.8252 35.2569C22.9696 35.0981 22.0967 35.0351 21.2278 35.0137C20.5237 34.9963 19.8176 35.0077 19.1148 35.0499C19.0559 35.0532 18.9976 35.0573 18.9393 35.0613C18.7792 35.0727 18.7779 35.3239 18.9393 35.3125C19.5603 35.2696 20.1834 35.2535 20.8051 35.2582C21.6144 35.2643 22.4277 35.3031 23.2296 35.4143C23.9511 35.5141 24.7048 35.6582 25.358 35.9932C25.6179 36.1265 25.8443 36.2799 26.0279 36.5063C26.0386 36.5191 26.0534 36.5392 26.0721 36.5666C26.0909 36.5941 26.1083 36.6216 26.1251 36.6504C26.172 36.7308 26.2115 36.8152 26.241 36.9029C26.2899 37.0496 26.3073 37.1937 26.2644 37.3283C26.2349 37.4215 26.1586 37.5146 26.0762 37.5682C26.0205 37.605 25.971 37.6271 25.9254 37.6425C25.8959 37.6526 25.8658 37.6613 25.8356 37.668C25.8196 37.672 25.8028 37.6754 25.7861 37.678C25.778 37.6794 25.7378 37.6854 25.7566 37.6827C25.6896 37.6908 25.6213 37.6921 25.5536 37.6868C25.5141 37.6841 25.5134 37.6841 25.4873 37.6787C25.4524 37.672 25.4183 37.6646 25.3848 37.6553C25.3144 37.6352 25.2943 37.6271 25.2327 37.5916C25.1711 37.5561 25.1583 37.5474 25.1108 37.4958C25.0813 37.4643 25.0933 37.4804 25.0726 37.4462C25.0645 37.4335 25.0572 37.4208 25.0505 37.4074C25.0478 37.4027 25.0458 37.3973 25.0431 37.392C25.0337 37.3726 25.0531 37.4194 25.0404 37.3853C24.9955 37.2694 24.8415 37.2634 24.7979 37.3853C24.6921 37.6834 24.5386 37.9735 24.2968 38.1838C24.1307 38.3286 23.9116 38.423 23.7079 38.4424C23.2986 38.4813 22.8732 38.3192 22.5744 38.0633C22.5355 38.0298 22.498 37.9949 22.4632 37.9574C22.4458 37.9387 22.4283 37.9192 22.4116 37.8991C22.4089 37.8964 22.3868 37.8683 22.4049 37.8911C22.3989 37.883 22.3922 37.8743 22.3868 37.8663C22.362 37.8301 22.3406 37.7939 22.3198 37.7551C22.3165 37.7484 22.3138 37.7417 22.3104 37.735C22.3252 37.7678 22.3098 37.7323 22.3078 37.7249C22.3024 37.7068 22.297 37.6894 22.293 37.6707C22.2682 37.5541 22.1222 37.5615 22.0632 37.6405C21.7088 38.1195 21.1662 38.5657 20.5331 38.4217C20.3308 38.3754 20.1311 38.2736 19.9784 38.1497C19.8404 38.0378 19.7426 37.934 19.6675 37.7872C19.6434 37.7403 19.6876 37.8087 19.6508 37.7497C19.628 37.7129 19.5952 37.6861 19.5523 37.6754C19.423 37.6445 19.3855 37.7625 19.3426 37.8536C19.2756 37.9969 19.1879 38.1282 19.072 38.2368C18.8817 38.4143 18.6271 38.5081 18.3679 38.5141C18.1374 38.5195 17.8527 38.4759 17.7046 38.2803C17.6155 38.1631 17.5693 38.0137 17.5505 37.8696C17.5391 37.7819 17.5391 37.6921 17.5465 37.6044C17.5539 37.5166 17.5941 37.4241 17.5941 37.337C17.5941 37.2325 17.4855 37.1615 17.3911 37.2098C17.3315 37.2406 17.2939 37.3196 17.2537 37.3719C17.1526 37.5019 17.0367 37.6218 16.9107 37.7283C16.683 37.9212 16.4163 38.0532 16.145 38.145C15.9112 38.224 15.5689 38.3212 15.3471 38.1597C15.2379 38.08 15.191 37.9427 15.1736 37.8134C15.1655 37.7524 15.1642 37.6894 15.1662 37.6278C15.1676 37.5849 15.1749 37.5005 15.1776 37.4804C15.2004 37.3049 15.2714 37.0912 15.3706 36.921C15.4791 36.7348 15.6198 36.578 15.7839 36.4353C16.1256 36.1379 16.5483 35.9295 16.971 35.7707C17.3938 35.612 17.7904 35.5088 18.2118 35.4244C18.3645 35.3942 18.5179 35.3674 18.672 35.3447C18.6988 35.3406 18.7263 35.3366 18.7531 35.3333C18.7886 35.3279 18.7296 35.3359 18.7631 35.3319C18.7772 35.3299 18.7913 35.3286 18.8053 35.3266C18.8388 35.3225 18.8723 35.3185 18.9058 35.3145C18.9172 35.3132 18.9286 35.3118 18.94 35.3112C19.0994 35.2964 19.1014 35.0452 18.94 35.0599L18.9373 35.0606Z" fill="black"/>
<path d="M20.2123 35.8884C20.9648 35.8884 21.5749 35.4355 21.5749 34.8768C21.5749 34.3181 20.9648 33.8652 20.2123 33.8652C19.4597 33.8652 18.8496 34.3181 18.8496 34.8768C18.8496 35.4355 19.4597 35.8884 20.2123 35.8884Z" fill="#CCFC56"/>
<path d="M21.4495 34.8759C21.4434 35.3174 21.0267 35.6041 20.6388 35.7073C20.1806 35.8292 19.6179 35.7582 19.2541 35.434C19.1141 35.3094 19.0029 35.1446 18.9801 34.955C18.9573 34.7654 19.0236 34.5758 19.1449 34.4304C19.4517 34.0606 19.9957 33.9393 20.4546 34.0063C20.9135 34.0733 21.4441 34.3634 21.4501 34.8766C21.4522 35.038 21.7034 35.0387 21.7014 34.8766C21.694 34.3246 21.213 33.9413 20.7179 33.806C20.1639 33.6539 19.5026 33.7538 19.0685 34.1477C18.8843 34.3152 18.757 34.5389 18.7295 34.7875C18.7021 35.036 18.7918 35.2819 18.9473 35.4755C19.3097 35.9284 19.9575 36.0711 20.5082 35.99C21.077 35.9063 21.6927 35.5083 21.7014 34.8759C21.7034 34.7145 21.4522 34.7138 21.4501 34.8759H21.4495Z" fill="black"/>
<path d="M35.1585 28.6692H36.5754C36.7368 28.6692 36.7375 28.418 36.5754 28.418H35.1585C34.997 28.418 34.9963 28.6692 35.1585 28.6692Z" fill="black"/>
<path d="M31.9241 23.8118H33.2023C33.3638 23.8118 33.3644 23.5605 33.2023 23.5605H31.9241C31.7626 23.5605 31.762 23.8118 31.9241 23.8118Z" fill="black"/>
<path d="M33.8811 26.2239H35.1593C35.3208 26.2239 35.3215 25.9727 35.1593 25.9727H33.8811C33.7197 25.9727 33.719 26.2239 33.8811 26.2239Z" fill="black"/>
<path d="M36.094 31.3547H37.3722C37.5337 31.3547 37.5344 31.1035 37.3722 31.1035H36.094C35.9325 31.1035 35.9319 31.3547 36.094 31.3547Z" fill="black"/>
<path d="M36.5002 34.3743H37.7785C37.9399 34.3743 37.9406 34.123 37.7785 34.123H36.5002C36.3388 34.123 36.3381 34.3743 36.5002 34.3743Z" fill="black"/>
<path d="M36.1897 37.5188C36.5629 37.5188 36.936 37.5188 37.3098 37.5188H37.4679C37.6294 37.5188 37.6301 37.2676 37.4679 37.2676H36.1897C36.0282 37.2676 36.0276 37.5188 36.1897 37.5188Z" fill="black"/>
<path d="M35.551 40.0794H36.8293C36.9907 40.0794 36.9914 39.8281 36.8293 39.8281C36.4561 39.8281 36.083 39.8281 35.7091 39.8281H35.551C35.3896 39.8281 35.3889 40.0794 35.551 40.0794Z" fill="black"/>
<path d="M15.4424 28.2657L15.1777 29.2592L17.9372 29.9988L19.7836 30.1663L20.3898 29.7415L20.4321 30.0417L20.5104 30.3117L22.882 29.7415L24.6908 29.3644L25.3561 28.7969L24.2165 27.3867L20.5158 27.9401L17.9955 27.658L15.4424 28.2657Z" fill="#A495FC"/>
<path d="M13.3691 27.428C14.9308 26.5752 17.1563 27.7616 18.6228 28.1877L13.3691 27.428Z" fill="#A495FC"/>
<path d="M13.4329 27.5359C14.0432 27.207 14.7607 27.2056 15.428 27.3229C16.1542 27.4502 16.8523 27.7027 17.5437 27.9526C17.89 28.0779 18.2364 28.2052 18.5901 28.3084C18.7455 28.3539 18.8119 28.1114 18.6571 28.0659C17.9764 27.8669 17.3213 27.5915 16.646 27.3758C15.9392 27.15 15.1888 26.9598 14.4412 27.0074C14.0446 27.0328 13.6574 27.1293 13.3063 27.3189C13.1643 27.3959 13.2909 27.613 13.4329 27.5359Z" fill="black"/>
<path d="M22.0786 28.0617C22.3761 27.9478 22.6749 27.8373 22.9797 27.7442C23.176 27.6839 23.3756 27.6336 23.5733 27.578C24.3229 27.3684 25.0773 27.2431 25.8571 27.2458C26.2611 27.2471 26.665 27.2772 27.065 27.3315C27.1326 27.3409 27.199 27.3154 27.2197 27.2437C27.2365 27.1855 27.199 27.0984 27.132 27.089C26.3823 26.9878 25.6259 26.9604 24.8736 27.0515C24.2385 27.1285 23.6208 27.294 23.0078 27.4735C22.6709 27.572 22.3406 27.6933 22.0123 27.8192C21.8629 27.8768 21.9279 28.1193 22.0793 28.0617H22.0786Z" fill="black"/>
<path d="M20.3889 30.3476C20.7252 30.3134 21.0602 30.2531 21.3925 30.1908C22.2969 30.0206 23.1913 29.7942 24.0736 29.5329C24.7837 29.3226 25.4872 29.0867 26.1826 28.8308C26.3333 28.7752 26.2676 28.5327 26.1156 28.5883C24.986 29.0043 23.8358 29.3661 22.6674 29.6548C22.0129 29.8163 21.351 29.9583 20.6837 30.0575C20.6375 30.0642 20.5913 30.0709 20.545 30.0776C20.5129 30.0823 20.547 30.0776 20.5403 30.0776C20.5316 30.0789 20.5229 30.0796 20.5149 30.0809C20.5002 30.0829 20.4854 30.0849 20.4707 30.0863C20.4439 30.0896 20.4164 30.093 20.3896 30.0957C20.3219 30.1024 20.2637 30.1486 20.2637 30.2216C20.2637 30.2839 20.3213 30.3543 20.3896 30.3476H20.3889Z" fill="black"/>
<path d="M14.5879 29.0293C14.5879 29.0293 17.2469 30.4898 19.9058 30.2037L14.5879 29.0293Z" fill="#A495FC"/>
<path d="M14.5244 29.1386C14.8714 29.3288 15.2406 29.4836 15.6084 29.6269C16.4297 29.9478 17.2859 30.1823 18.1608 30.2969C18.739 30.3726 19.3252 30.3907 19.906 30.3297C19.9737 30.3223 20.0319 30.2768 20.0319 30.2038C20.0319 30.1415 19.9743 30.0711 19.906 30.0778C18.9225 30.1817 17.929 30.0577 16.9757 29.8078C16.3004 29.631 15.6378 29.3931 15.0054 29.097C14.8862 29.0414 14.7669 28.9845 14.6517 28.9208C14.5097 28.8431 14.383 29.0602 14.5251 29.1379L14.5244 29.1386Z" fill="black"/>
<path d="M8.57032 22.7628C8.57032 22.7628 4.65433 19.4486 5.04605 18.3613C5.43778 17.274 3.82785 15.0438 7.00405 13.3589C10.1803 11.674 14.1966 11.1461 15.4083 11.5112C16.6193 11.8763 18.1791 11.6164 18.6829 11.4013C19.1868 11.1863 20.1912 11.7812 22.7534 10.9022C25.3156 10.0239 30.6336 8.18294 32.8725 11.6324C35.1108 15.082 32.3263 19.2141 31.8916 20.5573C31.4562 21.9006 8.57161 22.7621 8.57161 22.7621L8.57032 22.7628Z" fill="#7C26FA"/>
<path d="M8.65686 22.6731C8.00702 22.1231 7.3826 21.5349 6.78882 20.9226C6.34951 20.4697 5.91606 19.9987 5.55822 19.4741C5.35616 19.1774 5.05829 18.7392 5.16714 18.3862C5.30402 17.942 5.20364 17.4617 5.15085 17.0108C5.08306 16.43 5.0583 15.8391 5.25775 15.281C5.54845 14.4684 6.25629 13.9103 6.97522 13.5157C7.89751 13.0086 8.88565 12.6214 9.8855 12.3105C10.785 12.0311 11.7047 11.8148 12.6348 11.6734C13.3433 11.5662 14.0707 11.4918 14.787 11.5387C15.0425 11.5555 15.2759 11.6098 15.5229 11.6727C16.0078 11.7967 16.5143 11.8315 17.0122 11.8148C17.4366 11.8007 17.8641 11.7511 18.2787 11.6546C18.4723 11.6098 18.7076 11.4959 18.8803 11.4805C19.0654 11.4637 19.2538 11.4865 19.4389 11.4999C19.7139 11.52 19.9896 11.532 20.2654 11.524C21.1681 11.4972 22.0467 11.2761 22.8999 10.9834C24.2237 10.5298 25.5625 10.1044 26.9443 9.88467C28.3261 9.66493 29.9902 9.62138 31.3133 10.3436C32.8659 11.191 33.6454 13.0032 33.6083 14.7591C33.5731 16.4266 32.9187 17.9869 32.2284 19.4674C32.1124 19.7167 31.9938 19.9659 31.8875 20.2198C31.8458 20.3203 31.8113 20.4228 31.7722 20.5239C31.7859 20.4898 31.7474 20.5521 31.7676 20.53C31.7598 20.5387 31.752 20.5481 31.7435 20.5554C31.7226 20.5742 31.7155 20.5789 31.7304 20.5675C31.7037 20.5869 31.6757 20.605 31.647 20.6217C31.6125 20.6412 31.5766 20.6586 31.5401 20.6753C31.5121 20.6881 31.5492 20.6713 31.5336 20.678C31.5238 20.682 31.5134 20.6867 31.5036 20.6907C31.4808 20.6995 31.4586 20.7088 31.4358 20.7169C30.8746 20.9259 30.2665 21.0204 29.6792 21.1162C28.7628 21.2656 27.8399 21.3741 26.9169 21.4726C25.7717 21.5945 24.6252 21.6963 23.4774 21.7888C22.2292 21.8893 20.9804 21.9777 19.7309 22.0594C18.4983 22.1398 17.2645 22.2135 16.0313 22.2818C14.9285 22.3428 13.8256 22.3998 12.7221 22.4534C11.8761 22.4942 11.0294 22.5331 10.1834 22.5699C9.70757 22.5907 9.23175 22.6101 8.75659 22.6289C8.69467 22.6316 8.63276 22.6336 8.57083 22.6362C8.41375 22.6423 8.4131 22.8935 8.57083 22.8875C8.83351 22.8774 9.09552 22.8667 9.35819 22.856C10.0589 22.8272 10.7602 22.7964 11.4609 22.7642C12.4809 22.7173 13.501 22.6677 14.5204 22.6141C15.7282 22.5512 16.936 22.4835 18.1438 22.4105C19.4193 22.3334 20.6949 22.2497 21.9691 22.1559C23.1893 22.0661 24.4088 21.9683 25.627 21.8531C26.6719 21.7546 27.716 21.6454 28.7563 21.5041C29.502 21.4029 30.2522 21.2957 30.9835 21.1135C31.2123 21.0565 31.4411 20.9922 31.6575 20.8951C31.7813 20.8395 31.9253 20.7658 31.9905 20.6365C32.0792 20.4616 32.1346 20.2613 32.2154 20.0811C32.3438 19.7957 32.4787 19.5137 32.6097 19.2289C32.9487 18.4907 33.2628 17.7377 33.4916 16.9545C33.7445 16.089 33.8964 15.1785 33.8455 14.2721C33.7908 13.2967 33.4929 12.348 32.9578 11.5374C32.5322 10.8929 31.9527 10.3724 31.2677 10.0374C30.5826 9.70245 29.8774 9.55774 29.1474 9.50884C27.6091 9.40633 26.0585 9.7413 24.5874 10.1734C23.1163 10.6055 21.6439 11.2761 20.0666 11.2741C19.8052 11.2741 19.5458 11.2547 19.2851 11.2359C19.1117 11.2239 18.9331 11.2091 18.761 11.2446C18.6698 11.2634 18.5857 11.3056 18.497 11.3344C18.336 11.3867 18.1705 11.4242 18.0043 11.4557C17.5409 11.5434 17.065 11.5783 16.5944 11.5629C16.337 11.5548 16.0795 11.5307 15.826 11.4818C15.65 11.4483 15.4812 11.3914 15.3065 11.3532C15.0484 11.2969 14.7818 11.2795 14.5191 11.2741C13.7519 11.2594 12.9809 11.3545 12.2254 11.4845C11.2569 11.6513 10.3007 11.8965 9.36798 12.2127C8.87066 12.3809 8.38116 12.5711 7.90013 12.7835C7.41911 12.9959 6.92635 13.229 6.47791 13.5191C5.81112 13.9505 5.2219 14.5427 4.98269 15.3326C4.81062 15.9014 4.84451 16.4969 4.9149 17.0798C4.94489 17.3297 4.98203 17.5802 4.9892 17.8321C4.99181 17.936 4.99116 18.0412 4.97486 18.1437C4.96053 18.2321 4.92533 18.3131 4.90903 18.4002C4.82625 18.8337 5.13847 19.298 5.36855 19.6302C6.07445 20.6499 7.00065 21.5195 7.9099 22.3428C8.09893 22.5143 8.28991 22.6845 8.48414 22.8493C8.60472 22.9511 8.77875 22.7743 8.65686 22.6718V22.6731Z" fill="black"/>
<path d="M18.6306 20.2366C18.5094 19.1319 17.3179 12.7749 16.8604 11.2668C16.4028 9.75814 17.0435 9.64492 17.3792 9.04667C17.7149 8.44908 17.7761 7.50983 17.7761 7.50983L18.5237 7.36914C18.5237 7.36914 18.8724 8.36936 19.3815 8.93478C19.8906 9.50021 20.5443 9.4694 20.5684 11.2099C20.5919 12.9504 21.404 20.108 21.6276 21.3313" fill="#E6FDAE"/>
<path d="M18.7513 20.2358C18.6802 19.5927 18.5558 18.9542 18.443 18.3178C18.2644 17.3109 18.0747 16.3066 17.8779 15.3037C17.6889 14.341 17.494 13.3797 17.2763 12.423C17.2 12.0887 17.1224 11.7544 17.0318 11.4241C16.9093 10.9773 16.732 10.4896 16.8682 10.0267C16.9132 9.87391 17.009 9.72518 17.1049 9.60794C17.215 9.47262 17.3336 9.34332 17.4301 9.1966C17.7241 8.74774 17.829 8.16356 17.8851 7.63431C17.8896 7.59278 17.8935 7.55123 17.8961 7.50903L17.8062 7.63029C18.0552 7.58339 18.3048 7.5365 18.5538 7.4896L18.4032 7.40184C18.5701 7.87816 18.7956 8.35449 19.087 8.76315C19.2284 8.96146 19.3868 9.13162 19.5745 9.28236C19.7264 9.40428 19.8535 9.49004 19.9917 9.63474C20.371 10.0307 20.4336 10.649 20.4427 11.1943C20.4486 11.5327 20.4701 11.8703 20.4942 12.208C20.5692 13.2611 20.6734 14.3122 20.781 15.3627C20.9003 16.5183 21.028 17.6726 21.1662 18.8256C21.262 19.6242 21.3526 20.4254 21.4817 21.2193C21.4895 21.2675 21.498 21.3164 21.5064 21.3647C21.5351 21.5234 21.7711 21.4564 21.7424 21.2977C21.612 20.5842 21.5397 19.8895 21.4523 19.172C21.3128 18.0297 21.1851 16.8861 21.0645 15.7419C20.9505 14.6573 20.8423 13.572 20.7582 12.484C20.7301 12.1155 20.7034 11.7464 20.691 11.3772C20.6728 10.8259 20.6695 10.235 20.3834 9.74662C20.2817 9.5731 20.1461 9.42706 19.9936 9.30045C19.8411 9.17383 19.7088 9.08472 19.5667 8.95006C19.347 8.74171 19.1815 8.47977 19.0355 8.2138C18.9025 7.97128 18.7832 7.71269 18.6855 7.46012C18.6692 7.41859 18.6535 7.37705 18.6385 7.33484C18.6144 7.26651 18.5577 7.23369 18.488 7.24709C18.239 7.29398 17.9893 7.34088 17.7404 7.38777C17.6856 7.39782 17.6543 7.45677 17.6504 7.50903C17.6217 7.94449 17.5324 8.41344 17.3538 8.81607C17.2672 9.01036 17.1648 9.15239 17.0351 9.3058C16.923 9.43845 16.8076 9.57244 16.7255 9.72787C16.468 10.2183 16.5906 10.8038 16.7418 11.3076C16.8278 11.5956 16.8989 11.8884 16.9673 12.1812C17.1837 13.0983 17.3721 14.0228 17.5565 14.9473C17.7606 15.9717 17.9561 16.998 18.1412 18.0257C18.2677 18.7251 18.3954 19.4252 18.4919 20.13C18.4971 20.1661 18.4886 20.1059 18.4932 20.1407C18.4945 20.1521 18.4958 20.1635 18.4977 20.1749C18.5003 20.1956 18.503 20.2157 18.5049 20.2365C18.5121 20.3042 18.5557 20.3624 18.6274 20.3624C18.6874 20.3624 18.7572 20.3048 18.75 20.2365L18.7513 20.2358Z" fill="black"/>
<path d="M18.9319 7.3681C18.9319 7.3681 21.1904 10.5456 27.213 9.95808C32.4534 9.44691 35.1336 10.9462 33.6788 15.2881C32.3752 19.1798 31.9763 19.7137 31.9763 19.7137L32.445 19.7378C32.445 19.7378 36.6047 12.3189 35.032 10.4893C33.4592 8.65974 31.1981 8.60547 29.3835 8.96054C27.5689 9.31561 23.6333 10.0525 20.5086 8.08694C17.3839 6.12134 18.9326 7.36877 18.9326 7.36877L18.9319 7.3681Z" fill="#E6FDAE"/>
<path d="M18.8265 7.43127C18.9607 7.61952 19.1263 7.787 19.2925 7.94376C19.7305 8.35712 20.2278 8.70481 20.7525 8.99155C21.5673 9.43705 22.4518 9.74121 23.3564 9.9241C24.6294 10.1814 25.9369 10.2061 27.2262 10.0822C28.3668 9.97234 29.5342 9.92544 30.6716 10.0949C31.4746 10.2149 32.3141 10.4453 32.9587 10.9605C33.5069 11.398 33.8452 12.0378 33.9247 12.7419C34.0414 13.7783 33.7252 14.7771 33.3967 15.7418C33.1829 16.3709 32.9633 16.9986 32.7325 17.6217C32.6491 17.8461 32.5644 18.0705 32.4777 18.2936C32.4118 18.4618 32.3415 18.638 32.2802 18.786C32.1609 19.0721 32.0403 19.3622 31.8846 19.6295C31.8806 19.6362 31.8761 19.6429 31.8715 19.6496C31.8109 19.7306 31.895 19.8345 31.9771 19.8385C32.1335 19.8465 32.2893 19.8546 32.4457 19.8626C32.4881 19.8646 32.5305 19.8372 32.5513 19.8003C32.7365 19.47 32.9111 19.1337 33.0832 18.7961C33.4841 18.0109 33.8628 17.2137 34.2095 16.4017C34.6084 15.4692 34.9754 14.5152 35.2335 13.5297C35.3475 13.0942 35.4394 12.6514 35.4844 12.2026C35.5216 11.8321 35.5261 11.4502 35.4447 11.0851C35.4108 10.933 35.3593 10.7836 35.2876 10.6463C35.1794 10.44 35.0112 10.2705 34.8489 10.109C34.3392 9.60387 33.7252 9.22536 33.0565 8.9882C31.8311 8.55408 30.5106 8.6117 29.2545 8.85623C28.1374 9.07329 27.0124 9.2401 25.8737 9.26422C24.4202 9.29503 22.9419 9.10209 21.594 8.51723C20.8809 8.20772 20.2402 7.76155 19.5734 7.36226C19.3746 7.24301 19.1745 7.1251 18.9699 7.0159C18.8675 6.96164 18.7619 6.90202 18.6511 6.86651C18.5664 6.83971 18.4575 6.84775 18.4302 6.95427C18.41 7.034 18.4634 7.10166 18.5116 7.15593C18.5938 7.24771 18.6902 7.32743 18.7841 7.40581C18.8043 7.42256 18.8245 7.43931 18.8454 7.45606C18.8975 7.49826 18.9672 7.50764 19.0181 7.45606C19.0611 7.41318 19.0702 7.32006 19.0181 7.27852C18.9503 7.22426 18.8845 7.16798 18.82 7.1097C18.7743 7.06883 18.7287 7.02729 18.6876 6.98107C18.6798 6.97303 18.6733 6.96365 18.6655 6.95561C18.6453 6.93417 18.6818 6.98643 18.6655 6.95427C18.6505 6.92614 18.6668 6.9603 18.6674 6.96365C18.6772 7.00318 18.6629 7.05744 18.6153 7.08826C18.6068 7.09429 18.5599 7.10233 18.5716 7.10233C18.5534 7.10233 18.5416 7.09362 18.5716 7.10434C18.5866 7.1097 18.6016 7.11439 18.6166 7.11975C18.6251 7.1231 18.6335 7.12645 18.642 7.1298C18.6596 7.1365 18.6296 7.12443 18.6296 7.12443C18.6374 7.12778 18.6459 7.1318 18.6537 7.13515C18.7939 7.20081 18.9301 7.27651 19.0644 7.35288C19.3108 7.4929 19.5532 7.63962 19.795 7.78767C20.1372 7.99736 20.4716 8.22112 20.8223 8.41473C22.1239 9.1329 23.597 9.45046 25.0648 9.50807C26.283 9.55564 27.4999 9.42701 28.6992 9.21464C29.2089 9.1242 29.7141 9.0103 30.2296 8.95805C30.8638 8.89374 31.5098 8.89574 32.1387 9.00762C32.7925 9.12419 33.4247 9.35533 33.9846 9.72446C34.2799 9.91874 34.5504 10.1492 34.7948 10.4085C34.8509 10.4681 34.9063 10.5277 34.9584 10.5907C34.9682 10.6027 34.9786 10.6155 34.9877 10.6275C34.9695 10.6041 35.0027 10.649 35.0073 10.6563C35.0451 10.7126 35.0784 10.7729 35.107 10.8345C35.1116 10.8439 35.1292 10.8841 35.1253 10.8747C35.1214 10.8654 35.1377 10.9069 35.1416 10.9169C35.1546 10.9531 35.167 10.9893 35.1774 11.0261C35.1989 11.0998 35.2159 11.1742 35.2289 11.2499C35.2322 11.2687 35.2354 11.2874 35.238 11.3062C35.24 11.3176 35.2413 11.329 35.2433 11.3403C35.24 11.3156 35.2433 11.341 35.2439 11.347C35.2491 11.3926 35.2537 11.4375 35.2569 11.483C35.2635 11.5701 35.2661 11.6579 35.2654 11.745C35.2641 12.159 35.2054 12.5436 35.1201 12.9469C34.9193 13.9002 34.5895 14.824 34.2271 15.7237C33.8836 16.5766 33.4984 17.4127 33.0904 18.2347C32.8609 18.6969 32.6243 19.1565 32.3754 19.608C32.3636 19.6295 32.3519 19.6509 32.3395 19.6724L32.4451 19.61C32.2887 19.602 32.1329 19.594 31.9765 19.5859L32.0821 19.7749C32.1935 19.6248 32.2652 19.4292 32.3408 19.2597C32.6947 18.4651 32.9906 17.6418 33.2807 16.8211C33.516 16.1559 33.7663 15.4899 33.9527 14.8079C34.0818 14.3343 34.173 13.8459 34.1913 13.3535C34.2193 12.5764 34.0374 11.7999 33.5473 11.1936C33.0571 10.5873 32.3102 10.2262 31.5717 10.0239C30.5542 9.74523 29.4775 9.70704 28.43 9.74657C27.7509 9.77202 27.0763 9.85845 26.3977 9.88859C25.7192 9.91874 25.0746 9.90333 24.4169 9.83299C23.4112 9.7258 22.4087 9.48462 21.4793 9.07127C21.1286 8.91518 20.7871 8.73497 20.4612 8.52863C20.3256 8.44287 20.1933 8.3531 20.0636 8.25931C19.9339 8.16552 19.8504 8.0992 19.7416 8.00875C19.4906 7.79906 19.2508 7.57061 19.0455 7.31269C19.0135 7.27249 19.0598 7.33346 19.0376 7.30264C18.9985 7.2477 18.9321 7.22157 18.8701 7.25775C18.8173 7.28857 18.7874 7.37499 18.8265 7.42993V7.43127Z" fill="black"/>
<path d="M17.3098 7.51635C17.3098 7.51635 16.0252 11.1353 10.0488 12.0438C4.84882 12.8343 2.68484 14.9379 5.31093 18.7706C7.66522 22.2061 8.1997 22.6234 8.1997 22.6234L7.75451 22.7614C7.75451 22.7614 1.65175 16.6221 2.65421 14.4716C3.64494 12.3459 5.82324 11.7148 7.67369 11.6123C9.52479 11.5105 13.5294 11.2573 15.9913 8.59494C18.4524 5.93261 17.3098 7.51635 17.3098 7.51635Z" fill="#E6FDAE"/>
<path d="M17.1917 7.48265C17.1871 7.49604 17.1812 7.50944 17.176 7.52284C17.191 7.4813 17.1773 7.51949 17.1669 7.5436C17.1571 7.56638 17.1467 7.58849 17.1369 7.6106C17.0711 7.75262 16.9955 7.89063 16.9146 8.02395C16.8566 8.12042 16.796 8.21421 16.7322 8.30666C16.6963 8.35892 16.6598 8.40984 16.6226 8.46075C16.6135 8.47281 16.6044 8.48553 16.5953 8.49759C16.5751 8.52506 16.5979 8.49425 16.577 8.52172C16.5562 8.54919 16.534 8.57799 16.5118 8.60612C16.3111 8.86137 16.0914 9.10188 15.8581 9.3263C15.2272 9.93327 14.4958 10.421 13.7182 10.8069C12.6063 11.3589 11.3998 11.6979 10.1829 11.8962C8.96599 12.0945 7.77322 12.3189 6.64039 12.7979C5.84651 13.1342 5.05652 13.5972 4.54682 14.3274C4.10034 14.9678 3.98759 15.7537 4.13555 16.5174C4.3539 17.6429 5.03111 18.5889 5.66661 19.502C6.26105 20.3561 6.86265 21.2083 7.50988 22.0209C7.69303 22.2514 7.87684 22.5006 8.0965 22.6969C8.11018 22.709 8.12388 22.7197 8.13822 22.7311L8.16755 22.5013C8.01894 22.5475 7.87098 22.5931 7.72237 22.6393L7.841 22.6715C7.57376 22.4028 7.31434 22.1255 7.05754 21.8468C6.4618 21.2009 5.88235 20.5377 5.32832 19.8537C4.69477 19.0719 4.08666 18.2619 3.56588 17.3957C3.33384 17.0098 3.11679 16.6112 2.94471 16.1925C2.88084 16.0371 2.81109 15.8408 2.76221 15.6632C2.73874 15.5788 2.71854 15.4931 2.70225 15.4067C2.69443 15.3658 2.6879 15.3243 2.68204 15.2827C2.67682 15.2472 2.68399 15.2995 2.68138 15.2774C2.68008 15.268 2.67943 15.2593 2.67812 15.2499C2.67552 15.2285 2.67355 15.2063 2.6716 15.1849C2.66508 15.1052 2.66314 15.0255 2.66639 14.9457C2.6677 14.9129 2.67095 14.8801 2.67421 14.8473C2.67747 14.8118 2.6716 14.8587 2.67812 14.8185C2.68138 14.7984 2.68464 14.7776 2.6892 14.7575C2.70289 14.6905 2.7218 14.6255 2.74656 14.5625C2.73874 14.5806 2.75764 14.5344 2.74656 14.5625C2.74982 14.5558 2.75242 14.5485 2.75568 14.5418C2.77328 14.5049 2.79023 14.4681 2.80848 14.4312C2.85085 14.3461 2.89517 14.2624 2.94276 14.18C3.27973 13.5925 3.75098 13.0981 4.30827 12.7289C5.34462 12.0422 6.57716 11.799 7.79016 11.7307C8.83629 11.6718 9.88047 11.5706 10.9084 11.3562C12.2048 11.0856 13.4849 10.638 14.6086 9.9105C14.9065 9.71755 15.192 9.50518 15.4624 9.27406C15.7518 9.02685 16.0119 8.75284 16.2713 8.47415C16.65 8.0675 17.0268 7.64812 17.4433 7.28032C17.4635 7.26223 17.4837 7.24548 17.5045 7.22807C17.5097 7.22338 17.515 7.21936 17.5208 7.21467C17.5397 7.19859 17.4974 7.23275 17.5163 7.21869C17.5254 7.21199 17.5339 7.20529 17.543 7.19859C17.5554 7.18988 17.5684 7.18184 17.5808 7.17313C17.6153 7.14902 17.5606 7.17715 17.5834 7.17112C17.5319 7.18452 17.4537 7.12624 17.4537 7.06929C17.4537 7.02307 17.4576 7.04115 17.4524 7.06125C17.4433 7.09408 17.4687 7.03111 17.4511 7.06461C17.3924 7.17581 17.3253 7.28099 17.2536 7.38483C17.238 7.40761 17.2216 7.43039 17.2053 7.45316C17.1656 7.5081 17.1969 7.59319 17.249 7.62534C17.311 7.66353 17.3774 7.63472 17.4165 7.58045C17.4974 7.4679 17.8689 7.00833 17.6003 6.92928C17.5195 6.90583 17.4446 6.96277 17.384 7.01034C17.2562 7.11016 17.1389 7.22405 17.0229 7.33794C16.8071 7.55031 16.5972 7.76937 16.3887 7.98911C16.1032 8.29059 15.8288 8.60479 15.5257 8.8875C14.5024 9.84015 13.2274 10.4592 11.9095 10.8477C10.7812 11.1807 9.61584 11.3509 8.44717 11.4379C7.94464 11.4755 7.44014 11.4882 6.94021 11.5552C6.30275 11.6409 5.67182 11.7897 5.07608 12.0409C4.45948 12.3015 3.88395 12.6653 3.41139 13.1523C3.16697 13.4042 2.95057 13.6876 2.77002 13.9911C2.64748 14.1967 2.51908 14.4172 2.46303 14.6543C2.38611 14.9806 2.42654 15.3263 2.50606 15.6472C2.60643 16.0511 2.77329 16.4377 2.95905 16.8068C3.41531 17.7153 4.00779 18.55 4.62113 19.3519C5.23447 20.1538 5.84194 20.868 6.49113 21.5908C6.85809 21.9988 7.23157 22.4021 7.61483 22.7934C7.63308 22.8121 7.65133 22.8309 7.66958 22.849C7.70022 22.8798 7.74648 22.8945 7.7882 22.8811C7.93681 22.8349 8.08477 22.7894 8.23338 22.7431C8.34223 22.7096 8.34353 22.577 8.26271 22.5133C8.30247 22.5448 8.28357 22.5308 8.26793 22.516C8.24642 22.4953 8.22491 22.4745 8.20405 22.4531C8.10237 22.3485 8.00721 22.2373 7.91401 22.1248C7.39061 21.4991 6.91153 20.8325 6.43768 20.1672C6.02248 19.5844 5.59816 19.0029 5.21491 18.3973C4.9405 17.9638 4.69479 17.5049 4.52728 17.0165C4.39366 16.6266 4.30956 16.2287 4.31608 15.818C4.32194 15.4703 4.40082 15.1179 4.54943 14.8097C4.90466 14.0768 5.59296 13.5811 6.29885 13.2274C7.31891 12.7155 8.45107 12.4442 9.56434 12.2479C10.2455 12.128 10.926 12.0288 11.5967 11.8533C12.1748 11.7019 12.7432 11.5123 13.2939 11.2758C14.1589 10.9047 14.9769 10.423 15.6984 9.80598C16.1794 9.39464 16.6135 8.92301 16.9707 8.39376C17.1421 8.13985 17.2999 7.8712 17.4139 7.58447C17.4192 7.57241 17.4237 7.55969 17.4283 7.54763C17.4824 7.39555 17.2464 7.3299 17.1923 7.48063L17.1917 7.48265Z" fill="black"/>
<path d="M18.0957 7.21426L15.8281 4.30473L17.0046 0.517578L19.3244 3.8753L18.0957 7.21426Z" fill="#C9A6FD"/>
<path d="M18.1822 7.12549C17.9261 6.79722 17.6699 6.46828 17.4144 6.14002C17.0083 5.6188 16.6023 5.09759 16.1955 4.57638C16.1017 4.45646 16.0078 4.33588 15.9146 4.21596L15.9459 4.33788C16.0789 3.91046 16.2118 3.48237 16.3448 3.05495C16.5553 2.37631 16.7665 1.69766 16.977 1.01968L17.123 0.550729L16.8995 0.580881C17.1608 0.959395 17.4222 1.33724 17.6836 1.71575C18.1001 2.31869 18.5166 2.92164 18.9331 3.52391C19.0282 3.66192 19.124 3.79993 19.2192 3.93793L19.2068 3.84146C19.068 4.21796 18.9298 4.59514 18.791 4.97164C18.5707 5.56989 18.351 6.16748 18.1307 6.76573C18.0799 6.90374 18.029 7.04242 17.9782 7.18043C17.9228 7.33184 18.1587 7.39749 18.2141 7.24742C18.3712 6.82 18.5283 6.39325 18.6854 5.96583C18.9109 5.35284 19.1364 4.73985 19.362 4.12752C19.3978 4.02971 19.4812 3.89506 19.4193 3.79524C19.332 3.65589 19.2309 3.52324 19.1377 3.38791C18.7473 2.82315 18.3575 2.2584 17.9671 1.69365C17.6862 1.28699 17.4085 0.878997 17.125 0.474355C17.1204 0.467656 17.1152 0.460291 17.1106 0.453591C17.05 0.36583 16.921 0.375876 16.8871 0.483735C16.76 0.893737 16.6322 1.30374 16.5051 1.71374C16.2972 2.38368 16.0886 3.05361 15.8807 3.72355C15.8266 3.89639 15.7693 4.06924 15.7191 4.24342C15.7021 4.30305 15.7112 4.35329 15.7504 4.40488C15.7862 4.45177 15.8227 4.498 15.8592 4.54422C16.247 5.04198 16.6355 5.53975 17.0233 6.03751C17.346 6.45153 17.6575 6.87828 17.9932 7.28158C17.999 7.28895 18.0043 7.29633 18.0101 7.3037C18.0518 7.35729 18.1392 7.34724 18.1829 7.3037C18.2344 7.25211 18.2239 7.17842 18.1829 7.12616L18.1822 7.12549Z" fill="black"/>
<path d="M19.4656 7.4054L16.715 7.75645L16.6074 7.02487L19.358 6.67383L19.4656 7.4054Z" fill="#E6FDAE"/>
<path d="M19.4659 7.27961C18.6616 7.38211 17.8573 7.48461 17.053 7.58711C16.9409 7.60118 16.8281 7.61592 16.716 7.62999L16.834 7.72244C16.7981 7.47858 16.7623 7.23472 16.7264 6.99087L16.6085 7.14964C17.4128 7.04714 18.2171 6.94464 19.0214 6.84214C19.1335 6.82807 19.2463 6.81333 19.3584 6.79927L19.2404 6.70681L19.348 7.43839C19.3577 7.50538 19.4399 7.54289 19.4985 7.52615C19.5683 7.50605 19.5937 7.43906 19.5839 7.37139L19.4764 6.63982C19.4692 6.59159 19.4066 6.54134 19.3584 6.54737C18.5541 6.64987 17.7497 6.75237 16.9454 6.85487C16.8333 6.86894 16.7206 6.88368 16.6085 6.89774C16.5231 6.90846 16.4774 6.96876 16.4905 7.05652C16.5263 7.30038 16.5622 7.54424 16.598 7.78809C16.6052 7.83633 16.6678 7.88657 16.716 7.88054C17.5203 7.77804 18.3246 7.67555 19.1289 7.57305C19.2411 7.55898 19.3538 7.54424 19.4659 7.53017C19.5311 7.52213 19.5885 7.47858 19.5885 7.40422C19.5885 7.34259 19.5324 7.27023 19.4659 7.27827V7.27961Z" fill="black"/>
<path d="M12.4133 20.9603C12.1506 20.8397 11.8997 20.679 11.667 20.5054C11.2701 20.2093 10.8653 19.8047 10.733 19.2989C10.6502 18.9827 10.7004 18.6537 10.8451 18.3603C10.9161 18.2163 10.705 18.089 10.6339 18.2337C10.4853 18.5358 10.4162 18.8641 10.4644 19.2017C10.5055 19.4898 10.6333 19.7605 10.8014 19.9923C11.111 20.4204 11.5373 20.752 11.9851 21.0146C12.0842 21.0729 12.1858 21.1298 12.2901 21.1774C12.3507 21.2055 12.4211 21.1948 12.4576 21.1325C12.4889 21.0789 12.4739 20.9885 12.414 20.9603H12.4133Z" fill="black"/>
<path d="M17.1336 12.5109C16.8383 12.6664 16.5508 12.7796 16.2334 12.8935C15.5712 13.132 14.8783 13.3061 14.1763 13.3477C13.737 13.3738 13.2945 13.3463 12.8669 13.2351C12.7144 13.1956 12.6492 13.4375 12.8017 13.4777C13.58 13.6806 14.4006 13.6257 15.1801 13.4589C15.7824 13.3303 16.3696 13.1306 16.9341 12.8807C17.0423 12.8325 17.1511 12.7836 17.2561 12.728C17.3962 12.6543 17.2724 12.4379 17.1329 12.5109H17.1336Z" fill="black"/>
<path d="M29.3556 19.7466C29.6404 19.7024 29.9233 19.6354 30.2016 19.559C30.7061 19.4203 31.2302 19.2428 31.663 18.9346C31.8813 18.7792 32.0729 18.5883 32.174 18.3317C32.1987 18.2687 32.1466 18.1943 32.0886 18.1769C32.0188 18.1561 31.9628 18.2024 31.938 18.2647C31.8715 18.4322 31.7125 18.5923 31.5522 18.7082C31.3494 18.8549 31.1239 18.9681 30.8945 19.0626C30.4715 19.2361 30.0276 19.358 29.5818 19.4505C29.4853 19.4706 29.3875 19.49 29.2904 19.5047C29.2252 19.5148 29.1887 19.5992 29.205 19.6595C29.2246 19.7312 29.2898 19.7573 29.3556 19.7472V19.7466Z" fill="black"/>
<path d="M28.0848 19.6902C28.3188 19.2139 28.6088 18.761 28.9112 18.3282C29.5246 17.4506 30.2552 16.6239 31.1378 16.0263C31.6735 15.6632 32.266 15.3932 32.9022 15.2874C33.0573 15.2612 32.9915 15.0194 32.837 15.0448C31.6827 15.2378 30.6763 15.9519 29.8622 16.784C29.2 17.4606 28.6303 18.2391 28.1493 19.0611C28.0528 19.2253 27.9583 19.3921 27.8736 19.5629C27.8032 19.7069 28.0137 19.8342 28.0848 19.6895V19.6902Z" fill="black"/>
<path d="M32.8714 23.1719C28.9646 23.0031 24.9638 23.0031 19.6536 23.6188C15.2879 24.1253 11.2409 24.7885 7.70297 25.8972C7.56023 24.7523 7.41813 23.6081 7.27539 22.4631C10.9522 21.3376 14.8271 20.6644 19.2626 20.1632C24.1048 19.6159 28.3147 19.5141 32.4445 19.7378C32.5872 20.8828 32.7293 22.027 32.8721 23.1719H32.8714Z" fill="#E6FDAE"/>
<path d="M32.871 23.0041C31.4351 22.9425 29.9979 22.905 28.5601 22.9083C26.984 22.9123 25.4086 22.9659 23.8358 23.0684C22.0258 23.187 20.2216 23.3739 18.4214 23.599C16.64 23.8221 14.8626 24.0807 13.0969 24.4123C11.4576 24.7198 9.82745 25.089 8.22533 25.5626C8.03566 25.6189 7.84663 25.6765 7.65826 25.7354L7.86423 25.8969C7.72149 24.752 7.5794 23.6077 7.43665 22.4628L7.31672 22.6243C8.81976 22.1647 10.345 21.7842 11.8819 21.4659C13.5062 21.1296 15.1441 20.861 16.7867 20.6372C18.5472 20.3974 20.3142 20.1991 22.0845 20.055C23.7511 19.9197 25.4217 19.834 27.0929 19.8052C28.6813 19.7777 30.2697 19.8018 31.8568 19.8755C32.0517 19.8849 32.2473 19.8943 32.4422 19.905L32.2792 19.7375C32.422 20.8824 32.564 22.0267 32.7068 23.1716C32.7179 23.262 32.7739 23.3377 32.8697 23.3391C32.9493 23.3397 33.0438 23.2614 33.0327 23.1716C32.8899 22.0267 32.7479 20.8824 32.6051 19.7375C32.5934 19.6437 32.5399 19.5754 32.4422 19.57C30.855 19.4843 29.266 19.4474 27.6769 19.4622C26.0115 19.4782 24.3468 19.5506 22.6861 19.6732C20.9054 19.8052 19.1292 19.9948 17.3583 20.2259C15.7014 20.4416 14.0491 20.6968 12.4086 21.0191C10.854 21.3246 9.30992 21.6897 7.78733 22.1345C7.60157 22.1888 7.4158 22.2444 7.23004 22.3013C7.16877 22.3201 7.10163 22.3904 7.1101 22.4628C7.25285 23.6077 7.39494 24.752 7.53768 25.8969C7.55072 26.0001 7.63219 26.0932 7.74365 26.0583C9.31513 25.5666 10.9166 25.1814 12.5291 24.8612C14.2707 24.5155 16.0267 24.2448 17.7865 24.015C19.6024 23.7779 21.4229 23.5769 23.2486 23.4436C24.837 23.3277 26.4293 23.2614 28.0217 23.246C29.4635 23.2326 30.9046 23.2607 32.3457 23.317C32.5204 23.3237 32.6944 23.331 32.8691 23.3384C33.079 23.3471 33.0783 23.0121 32.8691 23.0034L32.871 23.0041Z" fill="black"/>
</g>
</svg>
