<svg width="248" height="70" viewBox="0 0 248 70" fill="none" xmlns="http://www.w3.org/2000/svg">
<mask id="path-1-inside-1_1693_38806" fill="white">
<path fill-rule="evenodd" clip-rule="evenodd" d="M33 0C14.7746 0 0 14.7746 0 33C0 51.2254 14.7746 66 33 66H215C217.773 66 220.467 65.6579 223.04 65.0136L238.294 69.8999C239.814 70.3868 241.266 68.992 240.835 67.4595L237.841 56.8176C244.102 50.8117 248 42.361 248 33C248 14.7746 233.225 0 215 0H33Z"/>
</mask>
<path fill-rule="evenodd" clip-rule="evenodd" d="M33 0C14.7746 0 0 14.7746 0 33C0 51.2254 14.7746 66 33 66H215C217.773 66 220.467 65.6579 223.04 65.0136L238.294 69.8999C239.814 70.3868 241.266 68.992 240.835 67.4595L237.841 56.8176C244.102 50.8117 248 42.361 248 33C248 14.7746 233.225 0 215 0H33Z" fill="#F7F8FA"/>
<path d="M223.04 65.0136L223.345 64.0612L223.074 63.9743L222.798 64.0435L223.04 65.0136ZM238.294 69.8999L237.989 70.8522L238.294 69.8999ZM240.835 67.4595L241.798 67.1887L240.835 67.4595ZM237.841 56.8176L237.149 56.096L236.716 56.5112L236.879 57.0885L237.841 56.8176ZM1 33C1 15.3269 15.3269 1 33 1V-1C14.2223 -1 -1 14.2223 -1 33H1ZM33 65C15.3269 65 1 50.6731 1 33H-1C-1 51.7777 14.2223 67 33 67V65ZM215 65H33V67H215V65ZM222.798 64.0435C220.303 64.6681 217.691 65 215 65V67C217.856 67 220.631 66.6477 223.283 65.9836L222.798 64.0435ZM238.599 68.9475L223.345 64.0612L222.735 65.9659L237.989 70.8522L238.599 68.9475ZM239.873 67.7304C240.086 68.4893 239.366 69.1933 238.599 68.9475L237.989 70.8522C240.262 71.5802 242.447 69.4948 241.798 67.1887L239.873 67.7304ZM236.879 57.0885L239.873 67.7304L241.798 67.1887L238.804 56.5468L236.879 57.0885ZM247 33C247 42.0775 243.222 50.2708 237.149 56.096L238.534 57.5393C244.983 51.3526 249 42.6446 249 33H247ZM215 1C232.673 1 247 15.3269 247 33H249C249 14.2223 233.778 -1 215 -1V1ZM33 1H215V-1H33V1Z" fill="#E0E5EB" mask="url(#path-1-inside-1_1693_38806)"/>
</svg>
