<svg width="24" height="24" viewBox="0 0 24 24" fill="none" xmlns="http://www.w3.org/2000/svg">
<path fill-rule="evenodd" clip-rule="evenodd" d="M3.25 20.25H20.75V21.75H3.25V20.25Z" fill="#14191F"/>
<path fill-rule="evenodd" clip-rule="evenodd" d="M14.75 2.25C14.9489 2.25 15.1397 2.32902 15.2803 2.46967L19.5303 6.71967C19.8232 7.01256 19.8232 7.48744 19.5303 7.78033L8.78033 18.5303C8.63607 18.6746 8.43927 18.7539 8.2353 18.7499L3.9853 18.6665C3.57689 18.6585 3.25 18.3251 3.25 17.9167L3.25 13.75C3.25 13.5511 3.32902 13.3603 3.46967 13.2197L14.2197 2.46967C14.3603 2.32902 14.5511 2.25 14.75 2.25ZM4.75 14.0607V17.1812L7.94546 17.2439L17.9393 7.25L14.75 4.06066L4.75 14.0607Z" fill="#14191F"/>
</svg>
