<svg width="48" height="48" viewBox="0 0 48 48" fill="none" xmlns="http://www.w3.org/2000/svg">
<rect x="22.501" y="14" width="3" height="3" fill="#3A4857"/>
<path fill-rule="evenodd" clip-rule="evenodd" d="M26.501 34.75H21.501V33.25H26.501V34.75Z" fill="#3A4857"/>
<path d="M25.3945 16.9349L25.4062 16.9384L25.418 16.9415C27.9448 17.6029 29.7811 20.0263 29.7811 22.767V29.8789C29.7811 30.7555 30.4715 31.4446 31.3474 31.4446H31.4137V31.576H16.588V31.4446H16.6542C17.5302 31.4446 18.2205 30.7555 18.2205 29.8789V22.5376C18.2205 19.8517 20.079 17.5805 22.5791 16.9427L22.597 16.9381L22.6125 16.9333C22.6122 16.9334 22.6122 16.9334 22.6126 16.9333L22.6128 16.9332L22.6193 16.9313C22.6267 16.9292 22.6396 16.9256 22.6577 16.9207C22.6941 16.9111 22.7512 16.8967 22.8261 16.8803C22.9764 16.8474 23.1961 16.8069 23.4625 16.7799C24.0011 16.7253 24.6996 16.7287 25.3945 16.9349Z" stroke="#3A4857" stroke-width="1.5"/>
<circle cx="29.501" cy="19" r="3" fill="#7C26FA"/>
</svg>
