<svg width="142" height="92" viewBox="0 0 142 92" fill="none" xmlns="http://www.w3.org/2000/svg">
<mask id="path-1-inside-1_4901_40446" fill="white">
<path d="M0 0H123.176V84C123.176 88.4183 119.595 92 115.176 92H7.99999C3.58172 92 0 88.4183 0 84V0Z"/>
</mask>
<path d="M0 0H123.176V84C123.176 88.4183 119.595 92 115.176 92H7.99999C3.58172 92 0 88.4183 0 84V0Z" fill="white"/>
<path d="M0 0H123.176H0ZM125.176 84C125.176 89.5229 120.699 94 115.176 94H8C2.47715 94 -2 89.5229 -2 84H2C2 87.3137 4.68629 90 8 90H115.176C118.49 90 121.176 87.3137 121.176 84H125.176ZM8 94C2.47715 94 -2 89.5229 -2 84V0H2V84C2 87.3137 4.68629 90 8 90V94ZM125.176 0V84C125.176 89.5229 120.699 94 115.176 94V90C118.49 90 121.176 87.3137 121.176 84V0H125.176Z" fill="#E0E5EB" fill-opacity="0.4" mask="url(#path-1-inside-1_4901_40446)"/>
<rect x="45.0646" y="84" width="33.0473" height="2" rx="1" fill="#97A2AF"/>
<rect x="10.0143" y="34" width="104.149" height="44" rx="4" fill="#F0F2F5"/>
<path d="M10.0143 0H114.164V10C114.164 12.2091 112.373 14 110.164 14H14.0143C11.8052 14 10.0143 12.2091 10.0143 10V0Z" fill="#F0F2F5"/>
<ellipse cx="16.023" cy="26" rx="6.00861" ry="6" fill="#F0F2F5"/>
<rect x="24.0344" y="23" width="32.0459" height="6" rx="1" fill="#F0F2F5"/>
<g filter="url(#filter0_d_4901_40446)">
<ellipse cx="24.2072" cy="24.1756" rx="24.2072" ry="24.1756" transform="matrix(0.966015 0.258457 -0.274861 0.961493 93.5166 32.0228)" fill="#7C26FA"/>
<path fill-rule="evenodd" clip-rule="evenodd" d="M110.683 50.9905C110.886 50.6593 111.295 50.5144 111.659 50.6451C112.185 50.834 112.933 51.2375 113.545 51.8662C114.166 52.5048 114.691 53.427 114.605 54.609C114.601 54.6636 114.591 54.7178 114.576 54.7707L113.714 57.7856L120.315 59.5515C120.745 59.6667 120.995 60.107 120.873 60.5349L120.039 63.4501C120.01 63.552 119.961 63.6475 119.895 63.7311L114.599 70.4191C114.396 70.676 114.058 70.7886 113.743 70.7043L100.322 67.114C99.8917 66.9989 99.6419 66.5586 99.7643 66.1307L102.032 58.1985C102.154 57.7706 102.603 57.5171 103.033 57.6322L106.106 58.4543L110.683 50.9905ZM111.676 52.4424L107.167 59.7968C106.977 60.1064 106.604 60.2558 106.255 60.1622L103.369 59.3904L101.545 65.7729L113.665 69.0154L118.525 62.8786L119.092 60.8927L112.491 59.1268C112.061 59.0116 111.811 58.5714 111.933 58.1434L112.992 54.4403C113.011 53.8688 112.76 53.3891 112.37 52.9881C112.155 52.7669 111.91 52.5841 111.676 52.4424Z" fill="white"/>
<path fill-rule="evenodd" clip-rule="evenodd" d="M103.431 67.0617L105.652 59.2924L107.211 59.7094L104.989 67.4787L103.431 67.0617Z" fill="white"/>
</g>
<path d="M94.8742 25.1719L97.7531 23.2934L101.515 29.043L98.6365 30.9214L94.8742 25.1719Z" fill="#608CFF"/>
<path d="M115.94 5.80078L118.083 8.24946L113.858 11.9384L111.714 9.48974L115.94 5.80078Z" fill="#9ACAFA"/>
<path d="M102.802 18.5684L105.05 19.6365L102.847 24.2605L100.598 23.1924L102.802 18.5684Z" fill="#9ACAFA"/>
<path d="M86.1234 9.21875L89.4371 8.00052L91.877 14.6184L88.5633 15.8366L86.1234 9.21875Z" fill="#FA5C5C"/>
<path d="M83.1191 26.3281L84.3631 23.0004L91.7169 25.7416L90.4728 29.0694L83.1191 26.3281Z" fill="#FA843A"/>
<path d="M103.148 9C103.148 10.1046 102.251 11 101.145 11C100.039 11 99.142 10.1046 99.142 9C99.142 7.89543 100.039 7 101.145 7C102.251 7 103.148 7.89543 103.148 9Z" fill="#FA5C5C"/>
<path d="M78.4372 14.6293C79.1892 14.5074 79.7913 15.2441 79.521 15.9554L78.4083 18.8836C78.138 19.5948 77.198 19.7472 76.7163 19.1578L74.7332 16.7314C74.2515 16.1421 74.5893 15.253 75.3413 15.1311L78.4372 14.6293Z" fill="#7187FE"/>
<path d="M65.6427 24.6178C65.7288 24.2391 66.1932 24.0955 66.4785 24.3594L69.1928 26.8688C69.4782 27.1326 69.3705 27.606 68.999 27.7208L65.4655 28.8134C65.094 28.9283 64.7373 28.5985 64.8235 28.2198L65.6427 24.6178Z" fill="#FA5C5C"/>
<path fill-rule="evenodd" clip-rule="evenodd" d="M97.0409 13.5721C96.6837 13.8357 96.743 14.386 97.1484 14.5676C98.3724 15.1158 98.534 16.7857 97.4379 17.558L96.9111 17.9292L96.2476 16.9902L96.7745 16.619C97.1421 16.36 97.0879 15.7999 96.6774 15.6161C95.4688 15.0747 95.2917 13.4339 96.357 12.6479L96.4221 12.5998C96.7885 12.3295 96.7276 11.7652 96.3119 11.579C95.093 11.033 94.9144 9.37813 95.9889 8.58534L96.0452 8.54378C96.4285 8.26094 96.376 7.67321 95.9486 7.46263L95.2841 7.1353L95.7933 6.10472L96.4577 6.43205C97.658 7.02336 97.8055 8.67377 96.7291 9.46802L96.6728 9.50958C96.3064 9.77993 96.3673 10.3443 96.783 10.5305C98.0019 11.0765 98.1805 12.7313 97.106 13.5241L97.0409 13.5721Z" fill="#FFB1D8"/>
<path d="M141.134 26.9844L142 29.5305L135.239 31.8239L134.373 29.2778L141.134 26.9844Z" fill="#CCFF3B"/>
<path d="M133.332 25.1113L131.992 24.7392L132.786 21.8878L134.126 22.2599L133.332 25.1113Z" fill="#FA5C5C"/>
<path d="M132.896 43.643C132.338 43.2205 132.448 42.3535 133.093 42.0824L136.634 40.5946C137.279 40.3235 137.977 40.8516 137.889 41.5452L137.409 45.3513C137.321 46.0449 136.515 46.3838 135.957 45.9613L132.896 43.643Z" fill="#7187FE"/>
<path fill-rule="evenodd" clip-rule="evenodd" d="M120.463 17.113C121.124 17.1662 121.567 16.4487 121.223 15.8823C120.438 14.5898 121.47 12.957 122.976 13.1091L123.816 13.1939L123.713 14.2087L122.873 14.124C122.206 14.0566 121.748 14.7802 122.096 15.3531C122.873 16.631 121.873 18.2497 120.381 18.1297L120.289 18.1223C119.614 18.068 119.161 18.8005 119.512 19.3787C120.296 20.6684 119.287 22.3021 117.781 22.181L117.696 22.1742C116.999 22.1181 116.522 22.8616 116.864 23.4704L117.335 24.3088L116.445 24.8079L115.974 23.9695C115.231 22.6487 116.266 21.0359 117.778 21.1575L117.863 21.1643C118.538 21.2186 118.99 20.4861 118.639 19.9079C117.855 18.6181 118.865 16.9845 120.371 17.1056L120.463 17.113Z" fill="#FA5C5C"/>
<path fill-rule="evenodd" clip-rule="evenodd" d="M131.436 35.435C131.786 35.6178 132.204 35.3563 132.192 34.9619C132.155 33.7712 133.429 32.9924 134.474 33.5672L134.976 33.8435L134.482 34.7386L133.98 34.4623C133.63 34.2696 133.202 34.5308 133.215 34.9301C133.251 36.1059 132.006 36.8857 130.962 36.3408L130.898 36.3075C130.539 36.1201 130.111 36.3883 130.124 36.7927C130.161 37.9785 128.905 38.765 127.852 38.2155L127.797 38.1866C127.421 37.9906 126.971 38.2612 126.969 38.6845L126.965 39.3424L125.942 39.3368L125.945 38.6789C125.952 37.4903 127.216 36.7303 128.271 37.2809L128.326 37.3097C128.685 37.4971 129.113 37.2289 129.101 36.8245C129.064 35.6387 130.32 34.8522 131.373 35.4018L131.436 35.435Z" fill="#FFB1D8"/>
<path d="M122.84 21.3535L125.536 20.3265L127.759 26.1443L125.063 27.1712L122.84 21.3535Z" fill="#FFB1D8"/>
<defs>
<filter id="filter0_d_4901_40446" x="83.9397" y="35.446" width="56.6331" height="56.1559" filterUnits="userSpaceOnUse" color-interpolation-filters="sRGB">
<feFlood flood-opacity="0" result="BackgroundImageFix"/>
<feColorMatrix in="SourceAlpha" type="matrix" values="0 0 0 0 0 0 0 0 0 0 0 0 0 0 0 0 0 0 127 0" result="hardAlpha"/>
<feOffset dx="2" dy="2"/>
<feGaussianBlur stdDeviation="2"/>
<feComposite in2="hardAlpha" operator="out"/>
<feColorMatrix type="matrix" values="0 0 0 0 0.321569 0 0 0 0 0.4 0 0 0 0 0.478431 0 0 0 0.2 0"/>
<feBlend mode="normal" in2="BackgroundImageFix" result="effect1_dropShadow_4901_40446"/>
<feBlend mode="normal" in="SourceGraphic" in2="effect1_dropShadow_4901_40446" result="shape"/>
</filter>
</defs>
</svg>
