<svg width="135" height="104" viewBox="0 0 135 104" fill="none" xmlns="http://www.w3.org/2000/svg">
<mask id="path-1-inside-1_4020_53688" fill="white">
<path d="M0 0H123V84C123 88.4183 119.418 92 115 92H8C3.58172 92 0 88.4183 0 84V0Z"/>
</mask>
<path d="M0 0H123V84C123 88.4183 119.418 92 115 92H8C3.58172 92 0 88.4183 0 84V0Z" fill="white"/>
<path d="M0 0H123H0ZM125 84C125 89.5229 120.523 94 115 94H8C2.47715 94 -2 89.5229 -2 84H2C2 87.3137 4.68629 90 8 90H115C118.314 90 121 87.3137 121 84H125ZM8 94C2.47715 94 -2 89.5229 -2 84V0H2V84C2 87.3137 4.68629 90 8 90V94ZM125 0V84C125 89.5229 120.523 94 115 94V90C118.314 90 121 87.3137 121 84V0H125Z" fill="#E0E5EB" fill-opacity="0.4" mask="url(#path-1-inside-1_4020_53688)"/>
<rect x="45" y="84" width="33" height="2" rx="1" fill="#97A2AF"/>
<rect x="10" y="34" width="104" height="44" rx="4" fill="#F0F2F5"/>
<path d="M10 0H114V10C114 12.2091 112.209 14 110 14H14C11.7909 14 10 12.2091 10 10V0Z" fill="#F0F2F5"/>
<g filter="url(#filter0_d_4020_53688)">
<rect x="69" y="38" width="60" height="60" rx="30" fill="#CCFC56"/>
</g>
<path fill-rule="evenodd" clip-rule="evenodd" d="M89.625 76.8393H108.375V78.4464H89.625V76.8393Z" fill="#14191F"/>
<path fill-rule="evenodd" clip-rule="evenodd" d="M101.946 57.5536C102.16 57.5536 102.364 57.6383 102.515 57.7889L107.068 62.3425C107.382 62.6563 107.382 63.1651 107.068 63.4789L95.5504 74.9968C95.3958 75.1514 95.1849 75.2363 94.9664 75.232L90.4128 75.1427C89.9752 75.1341 89.625 74.777 89.625 74.3393V69.875C89.625 69.6619 89.7097 69.4575 89.8604 69.3068L101.378 57.7889C101.529 57.6383 101.733 57.5536 101.946 57.5536ZM91.2321 70.2079V73.5513L94.6558 73.6185L105.364 62.9107L101.946 59.4936L91.2321 70.2079Z" fill="#14191F"/>
<circle cx="16" cy="26" r="6" fill="#F0F2F5"/>
<rect x="24" y="23" width="32" height="6" rx="1" fill="#F0F2F5"/>
<defs>
<filter id="filter0_d_4020_53688" x="67" y="36" width="68" height="68" filterUnits="userSpaceOnUse" color-interpolation-filters="sRGB">
<feFlood flood-opacity="0" result="BackgroundImageFix"/>
<feColorMatrix in="SourceAlpha" type="matrix" values="0 0 0 0 0 0 0 0 0 0 0 0 0 0 0 0 0 0 127 0" result="hardAlpha"/>
<feOffset dx="2" dy="2"/>
<feGaussianBlur stdDeviation="2"/>
<feComposite in2="hardAlpha" operator="out"/>
<feColorMatrix type="matrix" values="0 0 0 0 0.0784314 0 0 0 0 0.0980392 0 0 0 0 0.121569 0 0 0 0.12 0"/>
<feBlend mode="normal" in2="BackgroundImageFix" result="effect1_dropShadow_4020_53688"/>
<feBlend mode="normal" in="SourceGraphic" in2="effect1_dropShadow_4020_53688" result="shape"/>
</filter>
</defs>
</svg>
