<svg width="95" height="45" viewBox="0 0 95 45" fill="none" xmlns="http://www.w3.org/2000/svg">
<rect width="95" height="44" fill="white"/>
<path d="M34.288 32.0272L38.2548 12.7112H42.1229L38.1561 32.0272H34.288Z" fill="#7C26FA"/>
<path d="M57.176 32.0272V12.7112H67.3101V16.0206H61.0441V20.6277H66.6341V23.8309H61.0441V28.824H67.4236V32.0272H57.1809H57.176Z" fill="#7C26FA"/>
<path d="M73.4182 32.0272L77.385 12.7112H81.2531L77.2863 32.0272H73.4182Z" fill="#7C26FA"/>
<path d="M24.9185 32.0272L20.9517 12.7112H17.0836L21.0504 32.0272H24.9185Z" fill="#7C26FA"/>
<path d="M28.0811 12.7112H24.218L22.2346 22.3692H26.1027L28.0811 12.7112Z" fill="url(#paint0_linear_1977_6585)"/>
<path d="M32.048 32.0272L28.0812 12.7112H24.2131L28.1799 32.0272H32.048Z" fill="#7C26FA"/>
<path d="M14 20.6519L14.5082 23.2521H32.9755V20.6519H14Z" fill="#7C26FA"/>
<path d="M31.9938 12.7112L29.8327 23.252H33.7009L35.8619 12.7112H31.9938Z" fill="#7C26FA"/>
<path d="M72.9939 12.7112L75.1598 23.252H71.2917L69.1307 12.7112H72.9939Z" fill="#7C26FA"/>
<path d="M51.5169 12.7112V23.445L46.4943 12.7112H43.6425V32.0272H47.1998V24.6607L47.1801 24.3134C47.1801 23.1893 47.19 22.1569 47.19 21.3947L52.4445 32.0321H55.0693V12.716H51.512L51.5169 12.7112Z" fill="#7C26FA"/>
<defs>
<linearGradient id="paint0_linear_1977_6585" x1="22.2346" y1="17.5402" x2="28.0811" y2="17.5402" gradientUnits="userSpaceOnUse">
<stop offset="0.03" stop-color="white"/>
<stop offset="0.74" stop-color="#7C26FA"/>
</linearGradient>
</defs>
</svg>
