<svg width="94" height="90" viewBox="0 0 94 90" fill="none" xmlns="http://www.w3.org/2000/svg">
<path d="M48.766 89.3204C73.362 89.3204 93.311 69.4821 93.311 45.0028C93.311 20.5234 73.3709 0.694092 48.766 0.694092C24.1611 0.694092 4.22998 20.5323 4.22998 45.0117C4.22998 69.491 24.17 89.3293 48.7749 89.3293L48.766 89.3204Z" fill="#674AD6"/>
<path d="M92.6124 45.0119C92.6124 49.5995 91.8961 54.1694 90.4635 58.5343C89.0936 62.7211 87.07 66.6852 84.5093 70.2841C81.9843 73.8295 78.8953 77.0096 75.4212 79.6553C71.9203 82.3278 68.0075 84.4746 63.8619 85.9801C59.5551 87.5479 55.0245 88.4387 50.4492 88.6079C45.838 88.7772 41.2089 88.2427 36.7678 86.9867C32.479 85.7752 28.3871 83.9045 24.6623 81.4726C21.0002 79.0763 17.7142 76.1277 14.9206 72.7694C12.1181 69.4022 9.817 65.5806 8.1516 61.5363C6.44143 57.3585 5.37593 52.9222 5.03569 48.4326C4.68649 43.934 5.03569 39.1593 6.14596 34.6607C7.2025 30.3581 8.92162 26.2248 11.2317 22.4389C13.5418 18.644 16.3622 15.2946 19.6572 12.3817C22.9522 9.46874 26.6769 7.07248 30.6793 5.25523C34.6816 3.4469 39.1943 2.18195 43.6622 1.6831C48.2734 1.16643 52.9652 1.34459 57.5137 2.27103C62.0622 3.19747 66.163 4.72966 70.0848 6.90322C73.917 9.03225 77.4179 11.7314 80.4532 14.8848C83.5065 18.0561 86.0672 21.6817 88.0371 25.6191C90.0427 29.6188 91.4037 33.9214 92.0931 38.3398C92.4423 40.549 92.5945 42.7938 92.6035 45.0297C92.6035 45.9205 93.9913 45.9205 93.9913 45.0297C93.9913 40.3263 93.2571 35.6228 91.7976 31.142C90.3829 26.8216 88.3236 22.715 85.6733 19.0182C83.0229 15.3213 79.8354 12.0343 76.2181 9.27277C72.6008 6.51127 68.5716 4.31989 64.2917 2.75207C59.8954 1.11299 55.2215 0.213272 50.5298 0.0351104C45.7843 -0.151959 40.994 0.409249 36.4186 1.70092C31.8433 2.99259 27.8051 4.85437 23.9818 7.35753C20.1586 9.8607 16.7651 12.8805 13.882 16.3636C10.972 19.8734 8.61719 23.8018 6.88016 28.0064C5.14313 32.211 4.03287 36.8877 3.67472 41.5288C3.31657 46.1699 3.69262 51.0605 4.8208 55.6748C5.94897 60.2892 7.67705 64.3869 10.0587 68.2887C12.4136 72.1458 15.3504 75.6645 18.7439 78.6576C22.1374 81.6507 25.9785 84.145 30.1152 86.0068C34.3861 87.922 38.9167 89.1691 43.5637 89.7036C48.2197 90.247 53.1532 90.0421 57.845 89.0979C62.3577 88.1893 66.7271 86.568 70.7563 84.341C74.7228 82.1407 78.358 79.3436 81.4919 76.0743C84.6167 72.8139 87.2581 69.0904 89.2727 65.055C91.332 60.9306 92.7646 56.4944 93.463 51.9424C93.8212 49.6441 94.0003 47.328 94.0003 45.003C94.0003 44.1122 92.6124 44.1122 92.6124 45.003V45.0119Z" fill="black"/>
<path d="M45.2289 89.3204C69.8249 89.3204 89.7738 69.4821 89.7738 45.0028C89.7738 20.5234 69.8338 0.694092 45.2289 0.694092C20.6239 0.694092 0.692871 20.5323 0.692871 45.0117C0.692871 69.491 20.6329 89.3293 45.2378 89.3293L45.2289 89.3204Z" fill="#A495FC"/>
<path d="M89.0127 47.4001C88.753 51.9788 87.786 56.5041 86.1296 60.78C84.5448 64.8599 82.3242 68.7171 79.5754 72.1378C76.8356 75.5585 73.5764 78.5783 69.9501 81.0458C66.297 83.5223 62.2857 85.4553 58.0596 86.7381C53.6722 88.0743 49.0968 88.7068 44.5215 88.6266C39.9371 88.5464 35.317 87.7536 30.9565 86.266C26.7393 84.8318 22.7549 82.7295 19.1734 80.1016C15.6724 77.5272 12.5386 74.4093 9.95995 70.9263C7.3365 67.3809 5.24132 63.4524 3.79081 59.2924C2.3403 55.1323 1.49864 50.5446 1.40015 46.0372C1.30166 41.5208 1.91947 36.7817 3.27149 32.3455C4.56083 28.1052 6.51275 24.0788 9.0198 20.4176C11.5 16.8009 14.5443 13.5673 17.9825 10.8414C21.4029 8.13337 25.253 5.92418 29.3269 4.35636C33.5531 2.72618 38.021 1.73739 42.5427 1.47905C47.1807 1.2029 51.8456 1.64831 56.3404 2.81526C60.692 3.93768 64.8376 5.73711 68.6339 8.12447C72.3408 10.4584 75.6895 13.3446 78.5458 16.6584C81.4199 19.99 83.7747 23.7581 85.5297 27.7846C87.2846 31.811 88.4397 36.2294 88.8694 40.6389C89.0933 42.8926 89.1381 45.1553 89.0217 47.409C88.9769 48.2998 90.3647 48.2909 90.4095 47.409C90.6602 42.7145 90.1767 37.9754 88.959 33.4234C87.786 29.0406 85.9326 24.8271 83.4882 20.9877C81.0439 17.1572 78.0622 13.7187 74.6151 10.788C71.1679 7.85722 67.2551 5.41642 63.0647 3.6348C58.7132 1.79084 54.102 0.632789 49.3923 0.196294C44.6558 -0.240201 39.8566 0.0715809 35.2185 1.11382C30.7595 2.12043 26.4438 3.81297 22.4952 6.10234C18.5735 8.37389 14.992 11.2423 11.9298 14.565C8.85863 17.8966 6.27995 21.6825 4.33699 25.7713C2.33134 30.0027 1.00619 34.519 0.388378 39.1601C-0.238385 43.8725 -0.104079 48.674 0.77339 53.3418C1.61504 57.8314 3.16404 62.1875 5.33085 66.2139C7.4708 70.1958 10.2196 73.857 13.4519 77.0283C16.6753 80.1996 20.3821 82.8898 24.4113 84.9654C28.539 87.0944 32.998 88.591 37.5823 89.3571C42.3278 90.1499 47.1718 90.2122 51.9441 89.5085C56.5016 88.8404 60.9427 87.4596 65.0882 85.4464C69.1712 83.4688 72.9497 80.8499 76.2536 77.7588C79.5486 74.6766 82.3869 71.0866 84.6164 67.1671C86.8459 63.2475 88.5561 58.8024 89.5052 54.2949C89.9797 52.0234 90.2841 49.7073 90.4095 47.3912C90.4632 46.5004 89.0754 46.5093 89.0217 47.3912L89.0127 47.4001Z" fill="black"/>
<path d="M85.0019 45.012C85.0019 49.172 84.3483 53.3054 83.0589 57.2605C81.7696 61.2157 79.9878 64.6542 77.6688 67.9057C75.3676 71.1304 72.5651 74.0255 69.4044 76.4307C66.2438 78.8359 62.6802 80.7956 58.9285 82.1586C55.168 83.5215 50.9149 84.3767 46.7693 84.537C42.5879 84.6885 38.3976 84.2074 34.3684 83.0672C30.4735 81.9715 26.7756 80.279 23.3911 78.0698C20.0692 75.8962 17.0876 73.2327 14.5627 70.1861C12.0287 67.1396 9.91565 63.6565 8.41142 59.9686C6.86242 56.1827 5.90437 52.1651 5.59099 48.0852C5.26865 43.9074 5.59994 39.676 6.60276 35.6051C7.56081 31.7033 9.11877 27.9619 11.2139 24.5234C13.3091 21.0849 15.8699 18.0473 18.8515 15.4105C21.8331 12.7737 25.2087 10.5912 28.8439 8.95214C32.5687 7.26852 36.58 6.16392 40.6539 5.7007C44.7189 5.23748 49.0884 5.39783 53.2071 6.23519C57.1915 7.04582 61.0416 8.4622 64.5963 10.4309C68.0703 12.3639 71.24 14.8047 73.9888 17.6642C76.7555 20.5415 79.0745 23.8286 80.8652 27.3918C82.647 30.955 83.9185 34.9191 84.5452 38.9188C84.8586 40.9321 85.0108 42.972 85.0108 45.0031C85.0108 45.5999 85.9331 45.5999 85.9331 45.0031C85.9331 40.7717 85.2705 36.5315 83.9543 32.5051C82.6829 28.6211 80.8205 24.9243 78.4388 21.5927C76.066 18.2789 73.2008 15.3303 69.9596 12.845C66.7094 10.3596 63.0741 8.38203 59.224 6.97455C55.3739 5.56708 51.0492 4.71191 46.8231 4.55156C42.5521 4.38231 38.2453 4.89007 34.1266 6.04812C30.1691 7.16162 26.3727 8.88979 22.9344 11.1435C19.523 13.3794 16.4429 16.1142 13.8464 19.2499C11.2408 22.4033 9.11877 25.922 7.56081 29.699C5.95809 33.574 5.00004 37.6895 4.66875 41.8674C4.34641 46.0453 4.68666 50.4459 5.69843 54.597C6.71021 58.7482 8.26816 62.4361 10.4171 65.9548C12.557 69.4646 15.1805 72.5913 18.2337 75.2905C21.2869 77.9896 24.7431 80.2255 28.4678 81.9002C32.2911 83.6195 36.3651 84.733 40.5375 85.2229C44.8174 85.7218 49.1779 85.5347 53.3951 84.6795C57.4601 83.86 61.3908 82.408 65.0171 80.4037C68.6434 78.3994 71.8578 75.9051 74.6872 72.9655C77.4986 70.0347 79.8803 66.6764 81.689 63.0419C83.5424 59.3272 84.8318 55.3364 85.4585 51.2387C85.7719 49.1809 85.9331 47.0964 85.942 45.012C85.942 44.4151 85.0198 44.4151 85.0198 45.012H85.0019Z" fill="black"/>
<path d="M58.6687 31.8017C58.6329 32.9598 58.5344 36.3627 56.2153 39.0707C55.6154 39.7744 54.0217 41.6362 51.4878 41.8055C49.1777 41.9569 47.5123 40.6029 47.0556 40.2199C43.8233 37.5029 43.895 32.6124 43.9129 31.4187C43.9308 30.1716 43.9935 26.0649 46.796 23.3836C47.2884 22.9115 48.7121 21.5842 50.8789 21.406C53.386 21.2011 55.2215 22.6799 55.9199 23.3302C58.8388 26.0738 58.7045 30.4477 58.6687 31.8017Z" fill="white"/>
<path d="M58.2032 31.8016C58.1495 33.4853 57.9077 35.1243 57.1824 36.6922C56.4572 38.26 55.1768 39.8456 53.6188 40.7008C52.6608 41.2264 51.5684 41.458 50.4761 41.3154C49.527 41.1996 48.6316 40.7899 47.8616 40.2554C47.7989 40.2108 47.7273 40.1574 47.6646 40.1129C47.6467 40.1039 47.5482 40.0238 47.6467 40.095C47.6198 40.0772 47.593 40.0505 47.5751 40.0327C47.4497 39.9347 47.3333 39.8367 47.2169 39.7387C46.8409 39.4002 46.5006 39.0261 46.2051 38.6163C45.641 37.8324 45.2381 36.9505 44.9516 36.0241C44.5129 34.5899 44.3696 33.2091 44.3786 31.7036C44.3875 30.3318 44.486 29.0847 44.8352 27.7663C45.3187 25.958 46.2678 24.3278 47.7452 23.1519C47.8526 23.0717 48.0227 22.947 48.1839 22.8401C48.3988 22.6976 48.6137 22.5729 48.8375 22.4571C49.3031 22.2166 49.8045 22.0473 50.3239 21.9404C51.4162 21.7177 52.5713 21.8692 53.592 22.3235C55.2753 23.0628 56.5557 24.4169 57.3168 26.1272C58.0062 27.695 58.2211 29.3697 58.2121 31.0623C58.2121 31.3028 58.2121 31.5522 58.2032 31.7927C58.1853 32.3896 59.1075 32.3896 59.1254 31.7927C59.1702 30.2071 59.0717 28.6036 58.633 27.0715C58.0689 25.0939 56.9228 23.339 55.2126 22.172C54.2993 21.5485 53.2517 21.1209 52.1504 20.9783C50.87 20.8091 49.5807 21.0585 48.4257 21.6375C46.6528 22.5283 45.2739 24.1407 44.495 25.9401C43.7876 27.5792 43.5011 29.3519 43.4563 31.1246C43.4205 32.4608 43.4921 33.7881 43.7608 35.1065C44.1726 37.1554 45.0949 39.1775 46.7245 40.5493C48.354 41.9212 50.3597 42.5982 52.419 42.1439C54.3441 41.7163 55.8931 40.3356 57.0213 38.7856C58.3196 37.0128 58.9284 34.8393 59.0806 32.6746C59.0985 32.3896 59.1165 32.0956 59.1165 31.8105C59.1344 31.2137 58.2121 31.2137 58.1942 31.8105L58.2032 31.8016Z" fill="black"/>
<path d="M43.3396 32.2561C43.3038 33.4141 43.2053 36.817 40.8862 39.5251C40.2863 40.2288 38.6926 42.0906 36.1587 42.2598C33.8486 42.4113 32.1832 41.0572 31.7265 40.6742C28.4942 37.9572 28.5659 33.0667 28.5838 31.873C28.6017 30.6259 28.6644 26.5193 31.4669 23.838C31.9593 23.3658 33.383 22.0385 35.5498 21.8604C38.0568 21.6555 39.9013 23.1342 40.5908 23.7845C43.5097 26.5282 43.3754 30.9021 43.3396 32.2561Z" fill="white"/>
<path d="M42.883 32.2557C42.8293 33.9394 42.5876 35.5784 41.8623 37.1463C41.137 38.7141 39.8567 40.2997 38.2987 41.1549C37.3406 41.6805 36.2483 41.9121 35.1559 41.7695C34.2068 41.6537 33.3115 41.2529 32.5414 40.7095C32.4698 40.6649 32.4071 40.6115 32.3445 40.567C32.3265 40.5581 32.2281 40.4779 32.3265 40.5491C32.2997 40.5313 32.2728 40.5046 32.246 40.4868C32.1296 40.3888 32.0042 40.2908 31.8878 40.1928C31.5118 39.8543 31.1715 39.4802 30.876 39.0704C30.3119 38.2865 29.909 37.4046 29.6225 36.4782C29.1838 35.044 29.0405 33.6632 29.0495 32.1578C29.0584 30.7859 29.1569 29.5388 29.5061 28.2204C29.9896 26.4121 30.9387 24.7819 32.4161 23.606C32.5235 23.5258 32.6936 23.4011 32.8548 23.2942C33.0697 23.1517 33.2846 23.027 33.5084 22.9112C33.974 22.6707 34.4754 22.5014 34.9948 22.3945C36.0871 22.1718 37.2422 22.3233 38.2629 22.7776C39.9462 23.5169 41.2266 24.871 41.9877 26.5813C42.6771 28.1491 42.892 29.8238 42.892 31.5164C42.892 31.7569 42.892 32.0063 42.8741 32.2468C42.8562 32.8437 43.7784 32.8437 43.7963 32.2468C43.8411 30.6612 43.7426 29.0577 43.3039 27.5256C42.7308 25.548 41.5937 23.7931 39.8835 22.6261C38.9702 22.0026 37.9226 21.575 36.8213 21.4324C35.5409 21.2632 34.2516 21.5126 33.0966 22.0916C31.3237 22.9824 29.9448 24.5948 29.1659 26.3942C28.4585 28.0333 28.172 29.806 28.1272 31.5787C28.0914 32.9149 28.163 34.2422 28.4317 35.5606C28.8435 37.6095 29.7658 39.6316 31.3954 41.0035C32.9712 42.3308 35.0306 43.0523 37.0899 42.598C39.015 42.1704 40.564 40.7897 41.6922 39.2397C42.9905 37.467 43.5993 35.2934 43.7515 33.1287C43.7694 32.8437 43.7874 32.5497 43.7963 32.2646C43.8142 31.6678 42.892 31.6678 42.8741 32.2646L42.883 32.2557Z" fill="black"/>
<path d="M41.4955 28.3452C41.4686 28.9866 41.3881 30.884 39.6063 32.3894C39.1496 32.7814 37.914 33.8147 35.9621 33.9127C34.1803 34.0018 32.8999 33.2446 32.5417 33.0308C30.0436 31.5254 30.1063 28.8084 30.1242 28.1403C30.1421 27.4455 30.1869 25.165 32.3448 23.6774C32.7208 23.419 33.8221 22.6797 35.4965 22.5817C37.4305 22.4659 38.8541 23.2854 39.3824 23.6506C41.6388 25.1739 41.5313 27.6058 41.5045 28.363L41.4955 28.3452Z" fill="black"/>
<path d="M40.9128 28.1935C40.877 29.0487 40.7069 29.895 40.2144 30.7056C39.919 31.2044 39.4981 31.6677 38.952 32.1042C38.5401 32.4338 38.1193 32.7188 37.5014 32.9682C36.812 33.2444 35.9435 33.3958 35.066 33.2889C34.296 33.1909 33.6871 32.9504 33.1678 32.6743C31.977 32.0329 31.395 31.1688 31.0637 30.3225C30.7861 29.6188 30.6876 28.8884 30.6966 28.1579C30.6966 27.4987 30.7682 26.8306 30.9831 26.1892C31.1532 25.6904 31.4129 25.1915 31.7979 24.7194C31.9859 24.4878 32.2187 24.2651 32.4873 24.0513C32.6037 23.9533 32.738 23.8642 32.8634 23.7751C32.9529 23.7128 32.8097 23.8108 32.9171 23.7395C32.9708 23.7039 33.0246 23.6771 33.0783 23.6415C33.6066 23.3208 34.2691 23.0358 35.066 22.911C35.9793 22.7774 36.8657 22.8932 37.6447 23.1605C39.0594 23.6415 39.8742 24.4521 40.3398 25.2806C40.8054 26.109 40.9486 26.9642 40.9397 27.8283C40.9397 27.953 40.9397 28.0777 40.9307 28.2024C40.9128 28.5766 42.0679 28.5766 42.0768 28.2024C42.1484 26.4386 41.7813 24.3631 39.1579 23.0536C38.4505 22.6972 37.5552 22.4033 36.5703 22.3142C35.4331 22.2162 34.296 22.3677 33.3738 22.7151C31.771 23.3119 30.7951 24.2651 30.2489 25.2093C29.7564 26.0645 29.5774 26.9642 29.5505 27.855C29.5326 28.5409 29.5774 29.218 29.7654 29.895C30.034 30.9016 30.5802 31.9438 31.8069 32.7634C32.9529 33.5294 34.7616 34.1441 36.7314 33.8412C38.5311 33.5651 39.7757 32.6832 40.5636 31.8636C41.5306 30.8659 41.9336 29.7524 42.041 28.6478C42.0589 28.4964 42.0679 28.3539 42.0679 28.2024C42.0858 27.8283 40.9307 27.8283 40.9218 28.2024L40.9128 28.1935Z" fill="black"/>
<path d="M57.2891 27.8821C57.2623 28.6037 57.1817 30.7327 55.3551 32.4252C54.8895 32.8617 53.627 34.0287 51.6303 34.1356C49.8127 34.2336 48.4965 33.3873 48.1384 33.1468C45.5866 31.4542 45.6492 28.3988 45.6671 27.6505C45.685 26.8755 45.7298 24.31 47.9414 22.6353C48.3264 22.3413 49.4546 21.5129 51.1558 21.397C53.1256 21.2723 54.5851 22.1899 55.1313 22.5996C57.4324 24.31 57.3249 27.0448 57.2981 27.891L57.2891 27.8821Z" fill="black"/>
<path d="M56.1345 28.3453C56.0987 29.2183 55.9286 30.0913 55.4361 30.9286C55.1406 31.4364 54.7198 31.9174 54.1736 32.3628C53.7618 32.7013 53.3409 32.9953 52.7231 33.2447C52.0337 33.5298 51.1652 33.6812 50.2877 33.5743C49.5177 33.4763 48.9088 33.2269 48.3895 32.9418C47.1987 32.2826 46.6167 31.3918 46.2854 30.5278C46.0078 29.8062 45.9093 29.0579 45.9183 28.3007C45.9183 27.6237 45.9899 26.9378 46.2048 26.2786C46.3749 25.7619 46.6346 25.2542 47.0196 24.7731C47.2076 24.5326 47.4404 24.301 47.709 24.0872C47.8254 23.9892 47.9597 23.9002 48.0851 23.8022C48.1746 23.7398 48.0314 23.8378 48.1388 23.7665C48.1925 23.7309 48.2462 23.6953 48.3 23.6685C48.8282 23.3389 49.4908 23.045 50.2877 22.9203C51.201 22.7777 52.0874 22.9025 52.8664 23.1786C54.2811 23.6775 55.0959 24.5059 55.5615 25.3611C56.0271 26.2073 56.1703 27.0892 56.1614 27.9711C56.1614 28.0958 56.1614 28.2295 56.1524 28.3542C56.1345 28.7372 57.2895 28.7372 57.2985 28.3542C57.3701 26.5458 57.003 24.4079 54.3796 23.0628C53.6722 22.6976 52.7768 22.3947 51.7919 22.3056C50.6548 22.1987 49.5177 22.3591 48.5954 22.7154C46.9927 23.33 46.0168 24.301 45.4706 25.2809C44.9781 26.1628 44.799 27.0803 44.7722 27.9979C44.7543 28.7016 44.799 29.3964 44.9871 30.0913C45.2557 31.1157 45.8019 32.1936 47.0285 33.0309C48.1746 33.8148 49.9833 34.4473 51.9531 34.1355C53.7528 33.8505 54.9974 32.9418 55.7853 32.1045C56.7523 31.08 57.1552 29.9398 57.2627 28.8085C57.2806 28.6571 57.2895 28.5056 57.2895 28.3542C57.3075 27.9711 56.1524 27.9711 56.1435 28.3542L56.1345 28.3453Z" fill="black"/>
<path d="M57.7014 30.2778L52.8037 28.0864L54.1289 34.3132L57.7014 30.2778Z" fill="white"/>
<path d="M43.5726 43.5691C45.7036 43.5691 47.4406 42.2863 47.4406 40.7096C47.4406 39.1329 45.7126 37.8501 43.5726 37.8501C41.4327 37.8501 39.7046 39.1329 39.7046 40.7096C39.7046 42.2863 41.4327 43.5691 43.5726 43.5691Z" fill="#CCFC56"/>
<path d="M43.5728 43.7916C41.3165 43.7916 39.481 42.4108 39.481 40.7094C39.481 39.0079 41.3165 37.6272 43.5728 37.6272C45.8292 37.6272 47.6647 39.0079 47.6647 40.7094C47.6647 42.4108 45.8292 43.7916 43.5728 43.7916ZM43.5728 38.0815C41.5672 38.0815 39.9286 39.2663 39.9286 40.7183C39.9286 42.1703 41.5582 43.3551 43.5728 43.3551C45.5874 43.3551 47.217 42.1703 47.217 40.7183C47.217 39.2663 45.5874 38.0815 43.5728 38.0815Z" fill="black"/>
<path d="M47.0913 40.7098C47.0734 41.948 45.9004 42.7586 44.8081 43.0615C43.5008 43.4178 41.8981 43.2219 40.8505 42.3043C40.4476 41.948 40.1253 41.4759 40.0626 40.9325C39.9999 40.3891 40.1879 39.8635 40.5282 39.4538C41.4057 38.4026 42.9547 38.0552 44.2619 38.2512C45.5333 38.4382 47.0644 39.2667 47.0823 40.7187C47.0823 41.1641 47.7807 41.1641 47.7718 40.7187C47.7539 39.1598 46.384 38.0819 44.9782 37.6989C43.4113 37.2802 41.5579 37.5563 40.3312 38.652C39.8029 39.1242 39.4358 39.7566 39.3642 40.4693C39.2836 41.173 39.5433 41.85 39.982 42.3934C41.0027 43.6584 42.8204 44.0681 44.3783 43.8454C45.9989 43.6138 47.7539 42.5003 47.7807 40.7098C47.7807 40.2644 47.0913 40.2644 47.0913 40.7098Z" fill="black"/>
<path d="M43.5998 44.0233C42.3373 44.0233 40.8331 43.6314 39.9019 42.4733C39.4184 41.8676 39.1856 41.155 39.2662 40.4601C39.3378 39.7564 39.6959 39.0883 40.269 38.5716C41.4509 37.5116 43.3133 37.1285 45.0234 37.5917C46.4292 37.9748 47.8618 39.0794 47.8976 40.6917C47.8976 40.6917 47.8976 40.7096 47.8976 40.7185C47.8976 40.7274 47.8976 40.7363 47.8976 40.7452C47.8618 42.5446 46.1158 43.7294 44.3967 43.9699C44.146 44.0055 43.8774 44.0233 43.5998 44.0233ZM43.564 37.6274C42.3731 37.6274 41.227 38.0193 40.4212 38.7409C39.8929 39.2219 39.5616 39.8366 39.49 40.4869C39.4184 41.1193 39.6333 41.7696 40.081 42.3308C41.1554 43.667 43.0626 43.9254 44.3698 43.7472C45.8651 43.5334 47.3783 42.5802 47.6379 41.1282C47.5753 41.155 47.5126 41.1639 47.4499 41.1639C47.3514 41.1639 47.2529 41.1371 47.1723 41.0837C46.9574 42.215 45.8203 42.9098 44.8444 43.1771C43.3759 43.5779 41.7822 43.2662 40.7883 42.3932C40.457 42.0992 40.0362 41.6093 39.9646 40.9501C39.9019 40.4067 40.072 39.8455 40.457 39.3912C41.4419 38.1975 43.1431 37.9748 44.2982 38.1529C45.5696 38.34 46.9395 39.1061 47.1813 40.3621C47.1902 40.3621 47.1992 40.3443 47.2171 40.3443C47.3514 40.2731 47.5126 40.2641 47.6469 40.3176C47.4141 39.0259 46.1874 38.144 44.9787 37.8144C44.522 37.6897 44.0475 37.6274 43.5819 37.6274H43.564ZM43.564 38.3133C42.5611 38.3133 41.3703 38.6251 40.6182 39.5248C40.2779 39.9346 40.1168 40.4334 40.1705 40.9144C40.2421 41.5024 40.6182 41.9478 40.9226 42.215C41.8628 43.0435 43.3759 43.3285 44.7727 42.9544C45.7576 42.6871 46.9037 41.9656 46.9754 40.7897V40.7096C46.9574 39.3644 45.5517 38.5449 44.2534 38.3578C44.0385 38.3222 43.8147 38.3044 43.5729 38.3044L43.564 38.3133ZM47.1992 40.7363C47.2171 40.8966 47.3514 40.9323 47.441 40.9323C47.5394 40.9323 47.6648 40.8788 47.6648 40.7274V40.6828C47.6648 40.6116 47.629 40.5492 47.5663 40.5136C47.4947 40.469 47.3783 40.469 47.2977 40.5136C47.2529 40.5403 47.1992 40.5848 47.1902 40.6739V40.7274L47.1992 40.7363Z" fill="black"/>
<path d="M36.8664 48.2993C37.2425 48.5665 37.6633 48.7714 38.0841 48.9585C39.1407 49.4395 40.2599 49.7958 41.406 49.9829C44.2354 50.4639 47.0737 49.9829 49.6793 48.8159C50.2523 48.5576 50.8343 48.2725 51.3536 47.9251C51.8461 47.5955 51.3805 46.8027 50.888 47.1323C49.545 48.0231 47.978 48.6021 46.4111 48.9496C44.9875 49.2703 43.5191 49.3415 42.0775 49.1544C40.9583 49.0119 39.7495 48.6734 38.7825 48.2547C38.2901 48.0409 37.7797 47.8004 37.332 47.4886C37.1261 47.3461 36.8217 47.453 36.6963 47.6579C36.562 47.8895 36.6605 48.1478 36.8664 48.2904V48.2993Z" fill="black"/>
<path d="M48.7031 19.0004C48.7031 19.0004 50.4043 17.7711 52.6159 17.6107C55.8661 17.3702 58.0598 19.1518 58.4806 20.0248" fill="#A495FC"/>
<path d="M47.7716 15.8382C50.1086 14.1724 53.511 14.0031 55.9106 15.6333C56.1613 15.8025 56.3673 15.9629 56.6 16.2123C56.6448 16.2569 56.6806 16.3014 56.7254 16.3459C56.7523 16.3727 56.7702 16.3994 56.7881 16.4261C56.8508 16.4974 56.7433 16.3548 56.7881 16.435C56.8418 16.5152 56.9045 16.6043 56.9492 16.6933C57.0567 16.9161 57.379 16.9784 57.585 16.8626C57.8178 16.729 57.8625 16.4528 57.7551 16.2301C57.5133 15.7491 57.0746 15.3571 56.6448 15.0365C56.027 14.5643 55.3107 14.208 54.5675 13.9675C52.6246 13.3261 50.5294 13.5043 48.667 14.306C48.1925 14.5109 47.7179 14.7425 47.2971 15.0454C47.0912 15.1879 46.9927 15.4462 47.127 15.6778C47.2434 15.8738 47.5567 15.9896 47.7627 15.8471L47.7716 15.8382Z" fill="black"/>
<path d="M39.0949 19.0004C39.0949 19.0004 37.3937 17.7711 35.1821 17.6107C31.9319 17.3702 29.7382 19.1518 29.3174 20.0248" fill="#A495FC"/>
<path d="M40.2237 18.6081C39.1045 17.8064 37.6718 17.3253 36.3109 17.1739C34.5201 16.9779 32.5861 17.4055 31.0998 18.4566C30.6073 18.8041 30.0791 19.2405 29.8015 19.7928C29.694 20.0155 29.7388 20.2917 29.9716 20.4253C30.1775 20.5411 30.4909 20.4877 30.6073 20.2561C30.6431 20.1759 30.6879 20.1046 30.7416 20.0334C30.7595 20.0155 30.7685 19.9888 30.7864 19.971C30.7864 19.9799 30.7237 20.0512 30.7685 19.9888C30.8133 19.9354 30.8491 19.8908 30.8938 19.8374C30.9834 19.7483 31.064 19.6592 31.1625 19.5701C31.2072 19.5256 31.261 19.4811 31.3057 19.4454C31.3326 19.4187 31.3594 19.4009 31.3953 19.3742C31.4669 19.3207 31.3684 19.392 31.449 19.3296C32.0041 18.911 32.6219 18.5992 33.2845 18.3854C34.9947 17.8331 36.8571 17.9667 38.4956 18.6972C38.9254 18.8931 39.3641 19.1158 39.7491 19.392C39.9551 19.5345 40.2684 19.4276 40.3848 19.2227C40.5191 18.9911 40.4207 18.7417 40.2147 18.5903L40.2237 18.6081Z" fill="black"/>
<path d="M85.9685 27.7668H89.9882C90.4358 27.7668 90.4358 27.0718 89.9882 27.0718H85.9685C85.5209 27.0718 85.5209 27.7668 85.9685 27.7668Z" fill="black"/>
<path d="M76.7908 14.0569H80.4165C80.8641 14.0569 80.8641 13.3618 80.4165 13.3618H76.7908C76.3432 13.3618 76.3432 14.0569 76.7908 14.0569Z" fill="black"/>
<path d="M82.3421 20.8623H85.9678C86.4154 20.8623 86.4154 20.1672 85.9678 20.1672H82.3421C81.8944 20.1672 81.8944 20.8623 82.3421 20.8623Z" fill="black"/>
<path d="M88.6189 35.3469H92.2446C92.6922 35.3469 92.6922 34.6519 92.2446 34.6519H88.6189C88.1713 34.6519 88.1713 35.3469 88.6189 35.3469Z" fill="black"/>
<path d="M89.7737 43.8721H93.3994C93.847 43.8721 93.847 43.177 93.3994 43.177H89.7737C89.3261 43.177 89.3261 43.8721 89.7737 43.8721Z" fill="black"/>
<path d="M88.8963 52.7444H92.522C92.9696 52.7444 92.9696 52.0493 92.522 52.0493H88.8963C88.4486 52.0493 88.4486 52.7444 88.8963 52.7444Z" fill="black"/>
<path d="M87.0784 59.9687H90.7041C91.1517 59.9687 91.1517 59.2737 90.7041 59.2737H87.0784C86.6308 59.2737 86.6308 59.9687 87.0784 59.9687Z" fill="black"/>
<path d="M83.6492 67.8525H87.2749C87.7225 67.8525 87.7225 67.1575 87.2749 67.1575H83.6492C83.2016 67.1575 83.2016 67.8525 83.6492 67.8525Z" fill="black"/>
<path d="M79.638 73.5715H83.2637C83.7113 73.5715 83.7113 72.8765 83.2637 72.8765H79.638C79.1903 72.8765 79.1903 73.5715 79.638 73.5715Z" fill="black"/>
<path d="M74.1941 78.8721H77.8198C78.2674 78.8721 78.2674 78.177 77.8198 78.177H74.1941C73.7465 78.177 73.7465 78.8721 74.1941 78.8721Z" fill="black"/>
<path d="M19.8179 46.0009C19.8179 46.0009 22.7458 42.4644 25.0737 41.6359C27.4017 40.8075 30.061 42.1615 28.8612 44.6468C27.6614 47.1322 26.0855 48.994 25.6915 50.054C25.2976 51.1141 19.8179 46.0009 19.8179 46.0009Z" fill="white"/>
<path d="M20.1047 46.2861C21.1165 45.0657 22.2715 43.8988 23.5429 42.9634C24.4025 42.3309 25.3516 41.7964 26.4529 41.7964C27.3393 41.7964 28.4586 42.1439 28.7093 43.097C28.8615 43.6761 28.6287 44.2373 28.369 44.745C28.0288 45.4309 27.6438 46.0901 27.2408 46.7315C26.6589 47.6758 25.9515 48.5755 25.468 49.5732C25.4322 49.6534 25.3695 49.7424 25.3516 49.8315C25.3337 49.9384 25.3068 49.8493 25.3516 49.8493C25.3785 49.8493 25.468 49.7603 25.4501 49.7959C25.4501 49.787 25.4232 49.7959 25.4411 49.7959C25.2263 49.7335 25.0561 49.6623 24.8502 49.5465C24.2055 49.1812 23.6056 48.718 23.0236 48.2548C22.0208 47.4531 21.0448 46.6068 20.0957 45.7249C19.7197 45.3686 19.1466 45.9387 19.5227 46.295C20.4628 47.1769 21.4388 48.0232 22.4506 48.8249C23.0953 49.3416 23.7578 49.8671 24.492 50.2769C24.9218 50.5085 25.6381 50.8559 25.9963 50.3304C26.2201 50.0097 26.3634 49.5999 26.5693 49.2614C26.9185 48.6913 27.2946 48.1479 27.6527 47.5867C28.0915 46.8919 28.5212 46.1881 28.9062 45.4666C29.2196 44.8608 29.542 44.2373 29.5599 43.5424C29.5778 42.4467 28.8167 41.6094 27.8228 41.2441C26.6947 40.8255 25.4143 41.0036 24.3577 41.5292C23.14 42.126 22.0835 43.0792 21.1254 44.0235C20.5703 44.5758 20.0241 45.137 19.5317 45.7427C19.2004 46.1347 19.7734 46.7048 20.1047 46.3128V46.2861Z" fill="black"/>
<path d="M42.6325 30.385L37.4751 28.4875L39.1047 34.3134L42.6325 30.3761V30.385Z" fill="white"/>
<path d="M68.079 45.3322C68.079 45.3322 65.1511 41.7957 62.8232 40.9672C60.4952 40.1388 57.8359 41.4928 59.0357 43.9781C60.2355 46.4635 61.8114 48.3253 62.2054 49.3853C62.5993 50.4454 68.079 45.3322 68.079 45.3322Z" fill="white"/>
<path d="M68.3658 45.0473C67.1929 43.6398 65.8319 42.2769 64.2919 41.2703C63.298 40.62 62.1519 40.2102 60.9521 40.3528C59.8956 40.4775 58.8211 41.0298 58.463 42.0809C57.9974 43.4082 58.9733 44.8068 59.618 45.8936C60.2627 46.9804 61.1133 48.0671 61.7042 49.243C61.8385 49.5191 61.9102 49.8042 62.2414 49.9022C62.4742 49.9735 62.7249 49.9022 62.9488 49.822C63.6651 49.5459 64.2919 49.047 64.8918 48.5838C66.1005 47.6574 67.2556 46.6597 68.3748 45.6174C68.7508 45.2611 68.1867 44.6999 67.8017 45.0473C67.0049 45.7867 66.1901 46.4993 65.3574 47.1941C64.7575 47.693 64.1396 48.1829 63.486 48.6105C63.2353 48.7709 62.9757 48.9401 62.707 49.0559C62.6623 49.0737 62.5638 49.1005 62.4922 49.1272H62.4474C62.4474 49.0916 62.4742 49.1628 62.5369 49.1628C62.5996 49.1628 62.5727 49.2341 62.5817 49.2074C62.5996 49.1717 62.4832 48.9847 62.4653 48.9401C62.3668 48.7352 62.2594 48.5393 62.143 48.3522C61.8475 47.8623 61.5251 47.3812 61.2118 46.9002C60.8357 46.3212 60.4686 45.7421 60.1284 45.1453C59.7881 44.5485 59.3404 43.8714 59.1972 43.1677C58.9912 42.1611 59.7254 41.4485 60.6477 41.2168C61.7221 40.9496 62.7966 41.2792 63.7099 41.8404C65.2768 42.8025 66.6467 44.201 67.8107 45.6085C68.142 46.0094 68.7061 45.4393 68.3837 45.0384L68.3658 45.0473Z" fill="black"/>
</svg>
