<svg width="14" height="14" viewBox="0 0 14 14" fill="none" xmlns="http://www.w3.org/2000/svg">
<path fill-rule="evenodd" clip-rule="evenodd" d="M4.72893 0.437575C4.80669 0.160904 5.07114 -0.0218506 5.35907 0.00210456C5.77509 0.0367173 6.39445 0.182784 6.96246 0.516612C7.53934 0.855649 8.10539 1.41676 8.2859 2.28172C8.29424 2.32173 8.29845 2.36248 8.29845 2.40335V4.7329H13.3978C13.7304 4.7329 14 5.00094 14 5.3316V7.58406C14 7.66282 13.9844 7.7408 13.954 7.81354L11.526 13.6308C11.4327 13.8543 11.2132 14 10.9698 14H0.602151C0.269592 14 0 13.732 0 13.4013V7.27238C0 6.94172 0.269592 6.67368 0.602151 6.67368H2.97609L4.72893 0.437575ZM5.74009 1.28888L4.01296 7.43352C3.94025 7.6922 3.70317 7.87107 3.43303 7.87107H1.2043V12.8026H10.5677L12.7957 7.46476V5.93029H7.6963C7.36374 5.93029 7.09415 5.66225 7.09415 5.3316V2.47029C6.9903 2.05651 6.71199 1.76034 6.34965 1.54739C6.14983 1.42995 5.93642 1.34583 5.74009 1.28888Z" fill="#A266FC"/>
<path fill-rule="evenodd" clip-rule="evenodd" d="M2.82288 13.3654V7.36206H4.02718V13.3654H2.82288Z" fill="#A266FC"/>
</svg>
