<svg width="40" height="40" viewBox="0 0 40 40" fill="none" xmlns="http://www.w3.org/2000/svg">
<rect width="40" height="40" rx="8" fill="#F0F2F5"/>
<mask id="mask0_4113_37700" style="mask-type:alpha" maskUnits="userSpaceOnUse" x="0" y="0" width="40" height="40">
<rect width="40" height="40" rx="8" fill="#F2E9FF"/>
</mask>
<g mask="url(#mask0_4113_37700)">
<path d="M34.5401 17.3419C36.852 21.6938 33.8018 25.422 32.3025 15.4748C32.0345 13.6955 31.1113 13.798 31.1113 13.798" fill="#CCFC56"/>
<path d="M34.4305 17.4056C34.6777 17.8719 34.8747 18.3475 35.0201 18.856C35.1433 19.2861 35.2197 19.6928 35.2438 20.1215C35.2539 20.3024 35.2539 20.484 35.2398 20.6642C35.2365 20.705 35.2324 20.7459 35.2278 20.7868C35.2264 20.7955 35.2257 20.8042 35.2244 20.8129C35.2211 20.839 35.2244 20.8176 35.2237 20.8183C35.2211 20.8384 35.2177 20.8578 35.215 20.8779C35.2036 20.9496 35.1889 21.0212 35.1708 21.0916C35.1547 21.1539 35.136 21.2155 35.1132 21.2758C35.1078 21.2899 35.1025 21.3033 35.0971 21.3167C35.1098 21.2859 35.0958 21.3194 35.0884 21.3348C35.0763 21.3602 35.0636 21.3857 35.0502 21.4105C35.0375 21.4339 35.0234 21.4567 35.0087 21.4788C35.002 21.4889 34.9946 21.4989 34.9879 21.509C34.9672 21.5398 35.0047 21.4915 34.9805 21.5183C34.9651 21.5358 34.9497 21.5538 34.933 21.5706C34.9202 21.5833 34.8646 21.6242 34.9042 21.5974C34.8868 21.6094 34.8693 21.6215 34.8506 21.6322C34.8419 21.6369 34.8325 21.6409 34.8238 21.6456C34.795 21.6617 34.8519 21.6383 34.8204 21.647C34.801 21.6523 34.7816 21.6584 34.7621 21.663C34.7581 21.6644 34.7534 21.6644 34.7487 21.6657C34.726 21.6717 34.7789 21.6637 34.7621 21.6637C34.7514 21.6637 34.7407 21.6657 34.73 21.6657C34.7086 21.6657 34.6878 21.6637 34.667 21.6624C34.6885 21.6637 34.6905 21.6671 34.6643 21.661C34.6529 21.6584 34.6416 21.6557 34.6302 21.653C34.6188 21.6503 34.6087 21.6463 34.598 21.6429C34.59 21.6403 34.5525 21.6249 34.5752 21.6349C34.598 21.645 34.5612 21.6282 34.5545 21.6249C34.5424 21.6188 34.5304 21.6121 34.5183 21.6054C34.4942 21.5914 34.4707 21.5766 34.4479 21.5605C34.4386 21.5538 34.4011 21.525 34.4332 21.5505C34.4205 21.5404 34.4078 21.5304 34.3957 21.5197C34.3441 21.4755 34.2959 21.4272 34.2503 21.377C34.2242 21.3482 34.1987 21.318 34.1746 21.2872C34.1679 21.2792 34.1612 21.2705 34.1545 21.2624C34.1505 21.2571 34.1659 21.2778 34.1512 21.2584C34.1378 21.2403 34.1244 21.2222 34.111 21.2041C34.0554 21.1264 34.0038 21.046 33.9549 20.9643C33.6809 20.5041 33.4906 20.0083 33.3225 19.5012C33.0639 18.7214 32.8736 17.9201 32.7128 17.1148C32.6083 16.591 32.5172 16.0644 32.4368 15.5358C32.3725 15.1164 32.2827 14.6923 32.0683 14.3205C31.8794 13.9916 31.5625 13.6915 31.1653 13.6707C31.1472 13.67 31.1284 13.6694 31.1103 13.6707C31.0427 13.6781 30.9844 13.723 30.9844 13.7966C30.9844 13.8589 31.042 13.9293 31.1103 13.9226C31.1298 13.9206 31.1499 13.9213 31.1693 13.9226C31.1793 13.9226 31.1887 13.9246 31.1981 13.9253C31.2188 13.9266 31.1934 13.9253 31.1854 13.9233C31.1927 13.9246 31.2001 13.9253 31.2075 13.9266C31.2363 13.932 31.2651 13.9387 31.2939 13.9474C31.31 13.9521 31.3254 13.9574 31.3408 13.9628C31.3495 13.9661 31.3589 13.9695 31.3676 13.9728C31.3803 13.9782 31.3569 13.9682 31.3569 13.9682C31.3636 13.9708 31.3703 13.9742 31.377 13.9769C31.4158 13.9963 31.4533 14.0157 31.4895 14.0392C31.5431 14.074 31.5478 14.0787 31.592 14.1182C31.6362 14.1577 31.6791 14.2026 31.718 14.2495C31.933 14.5081 32.0509 14.8685 32.1239 15.2008C32.1836 15.4715 32.2164 15.7482 32.2613 16.0222C32.3062 16.2962 32.3504 16.5487 32.3993 16.8114C32.5601 17.6695 32.7517 18.5244 33.0129 19.3578C33.1858 19.9091 33.3874 20.4612 33.6681 20.9683C33.8336 21.2671 34.0339 21.5726 34.316 21.7742C34.5009 21.9056 34.7333 21.9645 34.9457 21.864C35.1581 21.7635 35.28 21.5411 35.3577 21.3314C35.4676 21.034 35.4991 20.7057 35.5011 20.3908C35.5038 19.9634 35.4441 19.5346 35.3477 19.1193C35.2304 18.6142 35.0536 18.1231 34.8345 17.6535C34.7755 17.5262 34.7126 17.4009 34.6469 17.277C34.5712 17.1343 34.3542 17.2609 34.4299 17.4036L34.4305 17.4056Z" fill="black"/>
<path d="M31.5215 14.3576L32.657 16.1275L33.2117 16.8551L34.6146 16.7539L33.8281 14.3066L31.5215 14.3576Z" fill="#CCFC56"/>
<path d="M30.5153 13L28.8633 15.395L32.1882 18.7795L33.6332 16.8213L33.4999 13.3993L30.5153 13Z" fill="#CCFC56"/>
<path d="M31.111 13.7989C31.111 13.7989 32.9319 17.4527 32.2539 17.5056C31.261 17.5833 30.841 15.0757 30.1148 14.4393C29.3886 13.8022 29.5922 14.8306 29.3651 14.7039C29.3651 14.7039 30.3767 14.3361 29.812 15.0717C29.2472 15.8073 27.9918 14.8594 27.7171 14.4447C27.4424 14.03 20.6553 11.9471 20.6553 11.9471L18.9121 11.7334C18.9121 11.7334 18.9369 11.2625 19.4735 9.85761C19.9096 8.71603 20.3196 8.11109 21.4605 7.30984C22.3033 6.71762 23.8381 5.63031 24.3975 6.38801C24.6655 6.75112 24.4183 7.10015 23.806 7.46594C23.0898 7.89336 22.3094 8.49362 22.3094 8.49362C22.3094 8.49362 24.7345 7.70242 26.1146 7.19059C26.9922 6.865 28.3441 6.97353 28.0179 7.84311C27.8437 8.30671 26.5132 8.54186 26.1146 8.57535C26.1146 8.57535 30.0404 8.64771 30.9582 9.02555C31.7059 9.33372 31.45 9.82412 31.3133 9.88776C30.5784 10.2301 29.1715 10.1537 29.1715 10.1537C29.1715 10.1537 32.6331 10.287 34.6154 11.9652C35.6907 12.8757 37.3602 14.7341 36.9877 15.5816C36.5629 16.5469 35.0844 14.0809 35.0844 14.0809C35.0844 14.0809 35.1668 16.0317 35.6491 17.0052C36.3881 18.4951 36.0826 19.0317 35.5466 19.0257C34.5565 19.015 33.5214 15.6338 33.5214 15.6338" fill="#CCFC56"/>
<path d="M31.0024 13.8613C31.196 14.2498 31.3775 14.6444 31.5517 15.041C31.6998 15.3773 31.8411 15.717 31.9691 16.0613C32.0803 16.3615 32.1875 16.6676 32.2491 16.9825C32.2551 17.0113 32.2598 17.0408 32.2645 17.0696C32.2652 17.0756 32.2712 17.1151 32.2692 17.1024C32.2679 17.0924 32.2719 17.1292 32.2732 17.1386C32.2779 17.1875 32.2793 17.2371 32.2772 17.2866C32.2772 17.2974 32.2752 17.3081 32.2746 17.3181C32.2772 17.292 32.2772 17.3054 32.2732 17.3215C32.2685 17.3389 32.2645 17.3556 32.2585 17.3724C32.2786 17.3141 32.2297 17.4206 32.2625 17.367C32.2592 17.3724 32.2538 17.3757 32.2498 17.3804C32.2371 17.3972 32.2752 17.365 32.2525 17.3778C32.2297 17.3905 32.2719 17.3791 32.2585 17.3764C32.2525 17.3751 32.2437 17.3831 32.237 17.3818C32.2645 17.3858 32.2565 17.3804 32.233 17.3804C32.2136 17.3804 32.1942 17.3804 32.1741 17.3804C32.1372 17.3784 32.0521 17.3563 32.0153 17.3382C31.88 17.2726 31.7768 17.1694 31.6803 17.0468C31.4304 16.7306 31.265 16.3447 31.1022 15.9783C30.93 15.5904 30.7719 15.1924 30.5602 14.8233C30.4751 14.6746 30.3793 14.5278 30.2594 14.4046C30.1314 14.2726 29.9479 14.1185 29.7549 14.1038C29.6156 14.0931 29.505 14.1801 29.4481 14.3014C29.422 14.3577 29.4032 14.4166 29.3865 14.4763C29.3798 14.501 29.3731 14.5265 29.3657 14.5513C29.3617 14.5654 29.3409 14.6277 29.3536 14.5922C29.3516 14.5975 29.3456 14.6123 29.3409 14.6163C29.3302 14.625 29.3597 14.5982 29.363 14.5962C29.3543 14.6015 29.3831 14.5901 29.3865 14.5895C29.3912 14.5895 29.4314 14.5922 29.418 14.5895C29.4025 14.5868 29.4488 14.6049 29.4267 14.5935L29.3965 14.8233C29.4394 14.8079 29.4829 14.7945 29.5265 14.7824C29.5647 14.7717 29.6029 14.7623 29.6417 14.7543C29.7013 14.7422 29.7087 14.7402 29.7556 14.7375C29.777 14.7362 29.7978 14.7362 29.8192 14.7362C29.8293 14.7362 29.8393 14.7375 29.8487 14.7382C29.8447 14.7382 29.8206 14.7362 29.8427 14.7382C29.8507 14.7382 29.8608 14.7422 29.8682 14.7449C29.8293 14.7295 29.8668 14.7416 29.8675 14.7449C29.8675 14.7476 29.8561 14.7302 29.8588 14.7349C29.8454 14.7114 29.8816 14.7536 29.8554 14.7181C29.8581 14.7215 29.8561 14.7422 29.8554 14.7462C29.8635 14.7188 29.8427 14.7844 29.838 14.7951C29.8125 14.8548 29.7616 14.9285 29.7181 14.9847C29.3141 15.5059 28.5363 15.035 28.1571 14.7201C28.0526 14.6337 27.9521 14.5399 27.8657 14.4347C27.8416 14.4052 27.8121 14.3543 27.7713 14.3188C27.6922 14.2492 27.5937 14.2016 27.4999 14.156C27.1616 13.9912 26.8059 13.8592 26.4535 13.7279C25.4231 13.3441 24.3774 12.9997 23.3309 12.6607C22.5236 12.3988 21.7137 12.1422 20.9031 11.891C20.8361 11.8702 20.7697 11.8461 20.7021 11.8287C20.6257 11.8092 20.542 11.8059 20.4636 11.7965C19.9846 11.7376 19.5056 11.6793 19.0272 11.6203C18.9884 11.6156 18.9495 11.6109 18.9113 11.6063L19.0373 11.7322C19.0373 11.7322 19.038 11.7161 19.0386 11.7161C19.0386 11.7161 19.0406 11.6974 19.0406 11.696C19.0426 11.6686 19.0346 11.7309 19.0406 11.692C19.0534 11.6156 19.0681 11.5399 19.0849 11.4642C19.1639 11.1165 19.2744 10.7755 19.3917 10.4392C19.6798 9.61319 20.0013 8.79117 20.625 8.15674C20.9439 7.83182 21.3104 7.56385 21.6822 7.30391C22.0292 7.06139 22.3803 6.82424 22.7521 6.62125C23.071 6.44774 23.4347 6.26484 23.8052 6.25278C23.9426 6.24876 24.0826 6.27221 24.1938 6.35662C24.299 6.43634 24.3921 6.57435 24.376 6.71169C24.3532 6.90195 24.1683 7.05671 24.027 7.16457C23.8046 7.33406 23.5533 7.46604 23.3195 7.61946C22.9712 7.84791 22.6315 8.08975 22.2985 8.34031C22.2798 8.35438 22.2617 8.36844 22.2429 8.38251C22.1398 8.46156 22.1913 8.66054 22.3394 8.6123C23.3523 8.28135 24.3633 7.94303 25.3682 7.58863C25.6804 7.47876 25.9892 7.3488 26.3068 7.25568C26.6056 7.16792 26.9211 7.12906 27.232 7.1505C27.4517 7.16591 27.7364 7.21548 27.8764 7.3977C27.9903 7.54509 27.9381 7.79565 27.8061 7.91825C27.5843 8.12459 27.242 8.21503 26.9573 8.29006C26.6726 8.3651 26.3885 8.42271 26.1111 8.44683C25.9524 8.4609 25.947 8.6947 26.1111 8.69805C27.0471 8.71547 27.985 8.75768 28.9182 8.83137C29.4917 8.87693 30.0772 8.92114 30.6379 9.05647C30.8784 9.11475 31.1926 9.20854 31.3092 9.44704C31.332 9.49326 31.34 9.53548 31.3393 9.57902C31.3393 9.61654 31.34 9.60582 31.3333 9.63328C31.3306 9.64467 31.3273 9.65673 31.3239 9.66812C31.3212 9.67549 31.3186 9.68286 31.3159 9.69023C31.3212 9.6775 31.3212 9.67817 31.3152 9.6909C31.3058 9.70965 31.2951 9.72775 31.2837 9.74517C31.265 9.77196 31.2991 9.72439 31.2797 9.74918C31.2744 9.75588 31.2683 9.76191 31.2616 9.76727C31.2409 9.78536 31.2857 9.7532 31.2636 9.7666C31.2583 9.76995 31.2529 9.7733 31.2469 9.77598C31.206 9.79407 31.1651 9.81082 31.1229 9.82555C30.723 9.96758 30.2875 10.0071 29.8661 10.0245C29.6343 10.0339 29.4005 10.0373 29.1681 10.0245V10.2757C29.7402 10.2979 30.307 10.3856 30.867 10.4968C31.9825 10.7179 33.1046 11.073 34.0593 11.7047C34.5376 12.0216 34.959 12.4242 35.3563 12.8356C35.777 13.271 36.1783 13.736 36.5019 14.2498C36.6338 14.4595 36.7564 14.6792 36.8362 14.9144C36.8944 15.0859 36.936 15.2808 36.8971 15.4436C36.8871 15.4852 36.8784 15.512 36.865 15.5394C36.8576 15.5542 36.8502 15.5683 36.8422 15.5823C36.8321 15.5984 36.8134 15.6239 36.8208 15.6145C36.8107 15.6259 36.8007 15.6359 36.7899 15.6466C36.7765 15.6594 36.8047 15.6393 36.7792 15.6547C36.7745 15.6574 36.739 15.6754 36.7558 15.6687C36.7712 15.662 36.7296 15.6754 36.7216 15.6775C36.7042 15.6815 36.7437 15.6788 36.7122 15.6775C36.6988 15.6775 36.6854 15.6775 36.672 15.6761C36.6848 15.6768 36.6761 15.6781 36.6546 15.6721C36.6385 15.6674 36.6231 15.6634 36.607 15.658C36.5883 15.652 36.5769 15.646 36.5836 15.6486C36.5682 15.6419 36.5535 15.6339 36.5387 15.6259C36.5052 15.6078 36.4724 15.587 36.4409 15.5656C36.1589 15.3713 35.9056 15.0484 35.6926 14.761C35.5231 14.5325 35.363 14.296 35.2136 14.0535C35.2055 14.0401 35.1975 14.0274 35.1895 14.014C35.1278 13.9108 34.9496 13.9497 34.9557 14.0776C34.9818 14.69 35.0561 15.3063 35.1761 15.9072C35.2652 16.3514 35.3965 16.7681 35.5914 17.1761C35.7864 17.5841 35.9833 18.0316 35.9572 18.4785C35.9539 18.5394 35.9445 18.5883 35.9237 18.6547C35.9157 18.6801 35.8835 18.7431 35.8648 18.7679C35.8406 18.7987 35.8085 18.8255 35.7777 18.8436C35.7676 18.8496 35.7569 18.855 35.7462 18.8603C35.7207 18.8737 35.7542 18.8583 35.7341 18.8657C35.7093 18.8744 35.6845 18.8818 35.6584 18.8878C35.6464 18.8905 35.6336 18.8925 35.6216 18.8945C35.6464 18.8911 35.6142 18.8945 35.6055 18.8952C35.578 18.8965 35.5506 18.8972 35.5231 18.8965C35.5117 18.8965 35.4936 18.8938 35.5157 18.8965C35.5037 18.8952 35.4923 18.8925 35.4802 18.8898C35.4541 18.8838 35.4293 18.8764 35.4045 18.867C35.3851 18.8596 35.4146 18.8724 35.3891 18.8603C35.377 18.8543 35.3657 18.8489 35.3536 18.8422C35.3275 18.8282 35.3027 18.8128 35.2779 18.796C35.2364 18.7679 35.1955 18.7337 35.1479 18.6882C34.9255 18.4758 34.7594 18.2085 34.6093 17.9412C34.4351 17.631 34.2837 17.3074 34.1457 16.9791C33.9581 16.5336 33.7993 16.0787 33.6466 15.6205C33.6439 15.6125 33.6419 15.6044 33.6392 15.5964C33.5917 15.4423 33.3491 15.508 33.3967 15.6634C33.5233 16.0774 33.6747 16.4847 33.8369 16.886C33.9782 17.2351 34.131 17.5801 34.3078 17.913C34.4673 18.2145 34.6468 18.514 34.8759 18.7679C35.0461 18.9561 35.2678 19.1363 35.5325 19.1471C35.779 19.1571 36.0202 19.0392 36.1287 18.8121C36.2855 18.4825 36.193 18.0732 36.0885 17.7435C35.9987 17.4595 35.8748 17.1882 35.7448 16.9202C35.6524 16.7293 35.5867 16.5256 35.5305 16.3213C35.3342 15.6084 35.2464 14.8595 35.2076 14.1219C35.2069 14.1071 35.2062 14.0917 35.2055 14.077L34.9717 14.1406C35.089 14.3356 35.2163 14.5252 35.3476 14.7114C35.58 15.041 35.8293 15.3746 36.1341 15.6413C36.3511 15.8315 36.7062 16.0687 36.9702 15.8195C37.285 15.5227 37.1537 15.0095 37.0083 14.6665C36.7772 14.1225 36.4034 13.6395 36.0222 13.194C35.641 12.7485 35.1901 12.2903 34.7239 11.893C33.7846 11.0924 32.5901 10.6382 31.4016 10.3561C30.924 10.2429 30.4403 10.1578 29.9532 10.0969C29.7054 10.0654 29.4535 10.0339 29.2029 10.0265C29.1908 10.0265 29.1795 10.0252 29.1674 10.0245C29.0053 10.0185 29.0066 10.267 29.1674 10.2757C29.7683 10.3079 30.4048 10.2811 30.9883 10.129C31.1337 10.0909 31.3266 10.0507 31.4392 9.9448C31.5162 9.87245 31.5658 9.7666 31.5825 9.66343C31.6448 9.2742 31.2918 9.02029 30.9715 8.89434C30.7618 8.81261 30.5347 8.77308 30.3137 8.73691C29.9968 8.68465 29.6765 8.64847 29.357 8.61833C28.6743 8.55267 27.989 8.51449 27.3043 8.48501C27.045 8.47429 26.7858 8.46492 26.5258 8.45688C26.3959 8.45286 26.2592 8.43678 26.1292 8.44683C26.1232 8.44683 26.1172 8.44683 26.1111 8.44683V8.69805C26.3831 8.67461 26.6545 8.62302 26.9198 8.5587C27.2252 8.48434 27.5441 8.39122 27.8135 8.22373C28.054 8.07434 28.2134 7.83919 28.188 7.54509C28.1625 7.25098 27.9528 7.08485 27.7036 6.99106C27.4115 6.88186 27.0772 6.87649 26.7704 6.90999C26.4186 6.94817 26.1011 7.06005 25.7708 7.1793C25.0553 7.4379 24.3351 7.68243 23.6143 7.92494C23.1674 8.07501 22.7206 8.22374 22.2731 8.36978L22.3696 8.59957C22.6375 8.3939 22.9135 8.19694 23.1922 8.006C23.4327 7.84187 23.6786 7.68846 23.9258 7.53504C24.1449 7.39905 24.3693 7.2396 24.5147 7.02254C24.6225 6.86176 24.6607 6.66211 24.5884 6.47855C24.5227 6.31174 24.3914 6.16435 24.2293 6.0853C23.891 5.92184 23.4897 6.02099 23.1574 6.15162C22.7327 6.31844 22.3401 6.55694 21.9609 6.80749C21.5817 7.05805 21.1804 7.33339 20.8213 7.63352C20.483 7.91557 20.1802 8.23714 19.9377 8.6056C19.6952 8.97407 19.5096 9.40015 19.3488 9.82087C19.1773 10.2691 19.0158 10.7239 18.8919 11.1882C18.8477 11.355 18.7914 11.5372 18.7847 11.7114C18.7847 11.7175 18.7834 11.7235 18.7834 11.7295C18.7794 11.8032 18.845 11.8474 18.9093 11.8555C19.3327 11.9071 19.7561 11.9593 20.1795 12.0109C20.337 12.0303 20.4944 12.0497 20.6518 12.0685C20.5882 12.0611 20.6304 12.0672 20.6498 12.0732C20.68 12.0832 20.7115 12.0919 20.7423 12.102C21.5221 12.3432 22.3005 12.589 23.077 12.8403C24.1569 13.1893 25.2362 13.543 26.3007 13.9363C26.5091 14.0133 26.7174 14.0924 26.9238 14.1755C26.968 14.1935 27.0122 14.2116 27.0564 14.2297C27.0671 14.2344 27.0772 14.2384 27.0879 14.2431C27.0625 14.2324 27.096 14.2465 27.0986 14.2478C27.1181 14.2565 27.1382 14.2646 27.1576 14.2733C27.2273 14.3034 27.2963 14.3349 27.3646 14.3677C27.4175 14.3932 27.4705 14.42 27.5207 14.4495C27.5401 14.4608 27.5589 14.4729 27.5783 14.485C27.5864 14.4903 27.5937 14.4957 27.6018 14.5017C27.6078 14.5057 27.5756 14.4789 27.5984 14.5004C27.6212 14.5218 27.6172 14.5205 27.6064 14.5051C27.6386 14.554 27.6761 14.6009 27.715 14.6451C27.8081 14.7516 27.9139 14.8467 28.0245 14.9352C28.4861 15.303 29.2887 15.7431 29.8166 15.2487C29.9633 15.1114 30.2681 14.7114 30.0062 14.5366C29.8527 14.4341 29.6223 14.4937 29.4588 14.5392C29.4153 14.5513 29.3717 14.5647 29.3289 14.5801C29.2344 14.6143 29.1962 14.7563 29.2987 14.8099C29.4401 14.8836 29.5466 14.7905 29.5935 14.6592C29.6116 14.6082 29.6236 14.5546 29.639 14.5031C29.6598 14.4347 29.6571 14.4334 29.692 14.3771C29.7007 14.363 29.6812 14.3898 29.7007 14.3671C29.7221 14.3416 29.694 14.3711 29.7087 14.359C29.7335 14.3396 29.702 14.359 29.7188 14.3543C29.7395 14.3476 29.7181 14.3543 29.7127 14.3543C29.7228 14.3543 29.7328 14.353 29.7429 14.3543C29.7154 14.3516 29.7603 14.3584 29.767 14.3604C29.7844 14.3651 29.7904 14.3677 29.8038 14.3738C29.8527 14.3959 29.899 14.4274 29.9412 14.4595C30.0825 14.566 30.1837 14.6933 30.2761 14.84C30.7317 15.5649 30.9206 16.4392 31.4311 17.1326C31.6234 17.3938 31.8994 17.6591 32.2511 17.6296C32.4863 17.6102 32.5385 17.3757 32.5258 17.1774C32.507 16.8807 32.4132 16.5872 32.3194 16.3065C32.1968 15.9407 32.0521 15.5823 31.9021 15.2266C31.6931 14.7335 31.482 14.2311 31.2295 13.7581C31.2248 13.75 31.2214 13.7413 31.2167 13.7326C31.1444 13.5879 30.928 13.7152 30.9997 13.8592L31.0024 13.8613Z" fill="black"/>
<path d="M32.25 12.7168C32.25 12.7168 35.5508 15.5158 34.3549 15.8809C33.8063 16.0484 32.9327 14.5263 32.5066 13.9836" fill="#CCFC56"/>
<path d="M20.6992 10.9081C20.6992 10.9081 22.2139 9.06578 22.8169 9.19776C23.5418 9.35653 22.2273 10.3762 22.2273 10.3762C22.2273 10.3762 23.7963 9.12876 24.8434 9.13479" fill="#CCFC56"/>
<path d="M20.7879 10.9969C21.159 10.5453 21.5664 10.1092 22.0132 9.73268C22.1465 9.6208 22.2859 9.51429 22.4379 9.42719C22.5096 9.38633 22.5565 9.36288 22.6215 9.34144C22.649 9.33206 22.6771 9.32536 22.7053 9.31933C22.7334 9.31331 22.6898 9.31799 22.726 9.31665C22.7401 9.31665 22.7542 9.31665 22.7682 9.31665C22.7997 9.31665 22.7488 9.31062 22.779 9.31732C22.7984 9.32201 22.8178 9.3267 22.8372 9.33273C22.8614 9.3401 22.852 9.33809 22.8627 9.34345C22.8687 9.34613 22.8754 9.35014 22.8814 9.35416C22.9015 9.36689 22.8727 9.3468 22.8841 9.35484C22.8895 9.35818 22.923 9.39235 22.8975 9.36623C22.9022 9.37092 22.923 9.40642 22.9036 9.37427C22.9089 9.38298 22.9103 9.41848 22.9076 9.3823C22.9089 9.39704 22.9082 9.41179 22.9076 9.42719C22.9103 9.39772 22.9062 9.43054 22.9029 9.44126C22.8989 9.45466 22.8948 9.46805 22.8902 9.48078C22.8888 9.4848 22.8814 9.50289 22.8902 9.48145C22.8868 9.48815 22.8841 9.49553 22.8808 9.50223C22.8721 9.52031 22.8627 9.53773 22.852 9.55515C22.8124 9.62281 22.7743 9.67306 22.728 9.72867C22.5552 9.93501 22.3502 10.1206 22.1378 10.286L22.3154 10.4636L22.3254 10.4555C22.3254 10.4555 22.3368 10.4468 22.3368 10.4462C22.316 10.4622 22.32 10.4535 22.3368 10.4462C22.3763 10.416 22.4165 10.3859 22.4567 10.3564C22.5947 10.2552 22.7354 10.1574 22.8788 10.0643C23.27 9.80839 23.6827 9.56922 24.1235 9.4091C24.354 9.32536 24.5958 9.25971 24.8424 9.25904C25.0038 9.25904 25.0045 9.00781 24.8424 9.00781C24.3553 9.00781 23.8783 9.21482 23.4529 9.43456C23.0737 9.63085 22.7126 9.86198 22.3676 10.1125C22.2899 10.1688 22.2129 10.2264 22.1378 10.286C22.0842 10.3283 22.0943 10.4194 22.1378 10.4636C22.1901 10.5172 22.2624 10.5051 22.3154 10.4636C22.513 10.3102 22.7019 10.138 22.8674 9.95041C23.0469 9.74675 23.3491 9.32737 22.994 9.1284C22.6872 8.95622 22.3381 9.17395 22.0903 9.35416C21.7452 9.60472 21.4384 9.90687 21.1456 10.2157C20.9607 10.4107 20.7799 10.611 20.6097 10.8187C20.5661 10.8716 20.5588 10.9446 20.6097 10.9962C20.6539 11.0411 20.7443 11.0484 20.7872 10.9962L20.7879 10.9969Z" fill="black"/>
<path d="M20.1571 47.6872C28.829 47.6872 35.859 40.6571 35.859 31.9852C35.859 23.3132 28.829 16.2832 20.1571 16.2832C11.4851 16.2832 4.45508 23.3132 4.45508 31.9852C4.45508 40.6571 11.4851 47.6872 20.1571 47.6872Z" fill="#674AD6"/>
<path d="M35.609 31.9858C35.607 33.6117 35.3551 35.2276 34.8527 36.7738C34.371 38.2577 33.6582 39.6626 32.7558 40.9348C31.8534 42.207 30.7781 43.3178 29.5555 44.2537C28.3208 45.1983 26.9427 45.9613 25.4829 46.4953C24.0231 47.0292 22.3677 47.3648 20.7552 47.4251C19.1293 47.4861 17.5013 47.2958 15.9357 46.8523C14.4229 46.4236 12.9832 45.7617 11.6695 44.8981C10.3792 44.05 9.22088 43.0056 8.23607 41.8158C7.24858 40.6233 6.43662 39.272 5.85244 37.8377C5.26825 36.4033 4.875 34.7874 4.75374 33.195C4.62913 31.5604 4.75709 29.909 5.14632 28.3159C5.53556 26.7227 6.12377 25.3286 6.93774 23.9854C7.74234 22.6576 8.74657 21.4564 9.9069 20.4247C11.0672 19.393 12.3803 18.5435 13.7919 17.9017C15.2342 17.2458 16.7905 16.8151 18.3649 16.6355C19.9894 16.4506 21.6442 16.5156 23.2467 16.8418C24.7969 17.1581 26.2942 17.7108 27.6763 18.4825C29.0584 19.2543 30.2596 20.1915 31.3295 21.3097C32.3994 22.4278 33.3065 23.7181 34.0012 25.1109C34.7073 26.5265 35.1876 28.0526 35.4315 29.6155C35.5534 30.3987 35.609 31.1926 35.6104 31.9851C35.6104 32.3087 36.1135 32.3087 36.1128 31.9851C36.1108 30.3176 35.8542 28.6495 35.339 27.0631C34.8419 25.5323 34.1124 24.0765 33.1798 22.7654C32.2459 21.453 31.1218 20.2893 29.8435 19.3086C28.5687 18.3298 27.1464 17.552 25.6377 16.9979C24.129 16.4439 22.434 16.1083 20.7786 16.0433C19.1045 15.9783 17.4156 16.1766 15.8037 16.6335C14.2521 17.073 12.7649 17.7523 11.4176 18.6386C10.0804 19.5176 8.87386 20.5955 7.85622 21.8309C6.83859 23.0662 5.99849 24.4671 5.3855 25.9604C4.7591 27.4865 4.38193 29.1091 4.25464 30.7538C4.12467 32.4313 4.26134 34.1322 4.65795 35.7676C5.05455 37.4029 5.66687 38.8553 6.50496 40.2387C7.34305 41.6221 8.3714 42.8535 9.56858 43.9147C10.7658 44.9758 12.119 45.8608 13.5775 46.5201C15.0835 47.2 16.682 47.6409 18.3226 47.8325C19.9633 48.0241 21.7058 47.9524 23.3599 47.6174C25.014 47.2824 26.4932 46.7217 27.9121 45.9318C29.3109 45.1534 30.5945 44.1592 31.6993 43.0015C32.8013 41.8466 33.7339 40.5248 34.4447 39.0951C35.1555 37.6655 35.676 36.061 35.9226 34.4464C36.0472 33.6318 36.1115 32.8098 36.1128 31.9858C36.1128 31.6622 35.611 31.6622 35.6104 31.9858H35.609Z" fill="black"/>
<path d="M18.9129 47.6891C27.5849 47.6891 34.6149 40.6591 34.6149 31.9871C34.6149 23.3152 27.5849 16.2852 18.9129 16.2852C10.241 16.2852 3.21094 23.3152 3.21094 31.9871C3.21094 40.6591 10.241 47.6891 18.9129 47.6891Z" fill="#A495FC"/>
<path d="M34.3408 32.8338C34.251 34.4558 33.9087 36.0582 33.3238 37.5736C32.739 39.089 31.9819 40.3854 31.0159 41.5953C30.0492 42.8065 28.9036 43.8764 27.6227 44.75C26.3364 45.6269 24.9228 46.311 23.4336 46.7658C21.8887 47.2381 20.2768 47.4626 18.6616 47.4358C17.0357 47.409 15.4191 47.1276 13.8803 46.6004C12.3943 46.0912 10.9908 45.3483 9.72731 44.4157C8.49395 43.5059 7.39124 42.4019 6.48214 41.1679C5.55695 39.9124 4.81735 38.5203 4.30752 37.0464C3.78497 35.5357 3.49957 33.9493 3.46407 32.3508C3.42789 30.7108 3.6483 29.0708 4.12262 27.5005C4.59694 25.9301 5.26352 24.5708 6.14784 23.2745C7.02211 21.9929 8.09468 20.848 9.30726 19.8813C10.5198 18.9146 11.8684 18.1415 13.3034 17.5841C14.7384 17.0267 16.3671 16.6575 17.9608 16.5631C19.5948 16.4659 21.2395 16.6234 22.8232 17.0361C24.3547 17.4353 25.8179 18.0711 27.1564 18.9159C28.4641 19.7419 29.6425 20.7649 30.6494 21.9387C31.6617 23.1184 32.4918 24.4543 33.1094 25.8799C33.7338 27.3209 34.1331 28.8698 34.2865 30.4328C34.3649 31.23 34.3803 32.0326 34.3388 32.8332C34.322 33.1561 34.8245 33.1554 34.8412 32.8332C34.929 31.1684 34.7588 29.4888 34.3301 27.877C33.9167 26.3227 33.2622 24.8288 32.402 23.4701C31.5465 22.1189 30.4887 20.8935 29.2721 19.8558C28.0501 18.8134 26.6754 17.9519 25.1975 17.3214C23.7196 16.691 22.0374 16.2562 20.3746 16.1015C18.7051 15.9461 17.0109 16.0566 15.3755 16.4264C13.8025 16.7815 12.2818 17.3831 10.889 18.195C9.50757 19.0003 8.24474 20.0159 7.16279 21.1937C6.07884 22.3734 5.16973 23.716 4.48639 25.1651C3.77827 26.6671 3.31132 28.2675 3.09493 29.9129C2.87519 31.5831 2.92276 33.284 3.23093 34.9408C3.5391 36.5975 4.07438 38.0761 4.83744 39.5037C5.59179 40.9146 6.56319 42.2129 7.70075 43.3378C8.8383 44.4626 10.146 45.4166 11.5656 46.1528C12.9852 46.8891 14.5937 47.4378 16.2116 47.7104C17.8871 47.9932 19.5955 48.0119 21.277 47.7654C22.9586 47.5189 24.4519 47.0372 25.9123 46.325C27.352 45.6229 28.6838 44.6977 29.8502 43.6004C31.0166 42.503 32.0128 41.2342 32.7993 39.8454C33.5858 38.4566 34.1894 36.8789 34.523 35.2818C34.6912 34.4758 34.7963 33.6565 34.8419 32.8345C34.86 32.5116 34.3575 32.5123 34.3394 32.8345L34.3408 32.8338Z" fill="black"/>
<path d="M29.4193 22.7141C30.4711 23.9066 31.3246 25.2773 31.9169 26.7539C32.5091 28.2304 32.8668 29.8945 32.9184 31.5305C32.9626 32.9381 32.7998 34.3483 32.4267 35.7062C32.0736 36.9912 31.5363 38.2205 30.8356 39.3534C30.1476 40.4655 29.3041 41.4777 28.3374 42.358C27.3633 43.2444 26.2646 43.9913 25.0835 44.5728C23.8776 45.1664 22.5846 45.5811 21.2602 45.8062C19.8942 46.038 18.4913 46.0621 17.1173 45.8886C15.7821 45.7198 14.465 45.352 13.235 44.8046C12.0311 44.2687 10.9003 43.5639 9.89268 42.7138C8.88509 41.8636 8.01149 40.8929 7.2826 39.8089C6.54165 38.7076 5.9568 37.503 5.55484 36.2375C5.13948 34.9278 4.91906 33.5618 4.90031 32.1877C4.88155 30.8137 5.06109 29.4416 5.43893 28.1212C5.81677 26.8008 6.35608 25.619 7.06822 24.4948C7.77099 23.3854 8.63051 22.3778 9.61197 21.5049C10.5921 20.634 11.6948 19.9031 12.8766 19.3363C14.0898 18.7548 15.3895 18.3542 16.718 18.1438C18.2287 17.904 19.7876 17.9147 21.295 18.1747C22.8948 18.4507 24.4417 19.004 25.8519 19.81C26.5272 20.1959 27.171 20.6373 27.7733 21.1291C27.9388 21.2644 28.1773 21.0286 28.0104 20.8919C26.7409 19.8555 25.3073 19.0355 23.7644 18.4801C22.1686 17.9053 20.4683 17.6226 18.7727 17.6394C17.3698 17.6528 15.9677 17.8705 14.6285 18.2892C13.3281 18.6959 12.086 19.2894 10.9539 20.0471C9.82166 20.8048 8.82814 21.6925 7.96192 22.7162C7.09167 23.7452 6.36412 24.8928 5.8141 26.1235C5.26408 27.3541 4.86815 28.7362 4.68659 30.1143C4.50504 31.4923 4.52849 32.9622 4.76163 34.3664C4.99476 35.7705 5.41147 37.0414 6.01307 38.2768C6.6053 39.4914 7.37304 40.6202 8.28014 41.6218C9.18723 42.6233 10.2223 43.4835 11.3618 44.1903C12.5168 44.9071 13.7763 45.4578 15.0867 45.8203C16.4527 46.1974 17.877 46.3683 19.2932 46.3314C20.7095 46.2946 22.0869 46.0554 23.4154 45.6159C24.7016 45.1905 25.9276 44.5822 27.0424 43.8131C28.1572 43.0441 29.1534 42.1296 30.0075 41.0878C30.8624 40.0447 31.5725 38.8851 32.1031 37.645C32.6337 36.405 33.0062 35.0256 33.1663 33.6475C33.3512 32.0584 33.2681 30.4385 32.9238 28.8762C32.5714 27.2784 31.9383 25.7409 31.0667 24.3562C30.6493 23.6929 30.1764 23.0659 29.6585 22.4777C29.5158 22.3155 29.2793 22.5534 29.4213 22.7148L29.4193 22.7141Z" fill="black"/>
<path d="M24.3336 27.931C24.3216 28.3424 24.2854 29.5476 23.4694 30.5076C23.259 30.7555 22.6963 31.4174 21.8039 31.477C20.99 31.5313 20.4024 31.0509 20.241 30.9143C19.1008 29.9529 19.1275 28.2191 19.1342 27.795C19.1409 27.3542 19.1637 25.8984 20.1499 24.9471C20.322 24.781 20.8252 24.3093 21.5882 24.247C22.4712 24.1747 23.1204 24.6979 23.3642 24.9284C24.3933 25.8998 24.347 27.4493 24.333 27.931H24.3336Z" fill="white"/>
<path d="M24.1664 27.9317C24.1597 28.1662 24.1423 28.4167 24.1088 28.6278C24.0525 28.9848 23.9574 29.3399 23.8053 29.6682C23.5427 30.2349 23.1019 30.7783 22.5545 31.0817C22.2176 31.2687 21.8283 31.3511 21.4444 31.3001C21.1148 31.2559 20.8053 31.1186 20.534 30.9303C20.5099 30.9136 20.4858 30.8955 20.4616 30.8781C20.4563 30.8741 20.4201 30.8459 20.4536 30.8727C20.4442 30.8654 20.4348 30.858 20.4255 30.8506C20.3846 30.8178 20.3444 30.7843 20.3055 30.7495C20.1722 30.6302 20.0503 30.4969 19.9465 30.3508C19.7508 30.0762 19.6081 29.7687 19.509 29.4471C19.3502 28.9339 19.298 28.4402 19.3013 27.9036C19.304 27.4239 19.3382 26.9844 19.4581 26.5262C19.6269 25.8817 19.9592 25.2995 20.4817 24.8781C20.5152 24.8513 20.5688 24.8111 20.6224 24.775C20.6975 24.724 20.7758 24.6771 20.8562 24.6349C21.0244 24.5465 21.2039 24.4829 21.3902 24.4447C21.772 24.3663 22.1747 24.4179 22.5317 24.5726C23.1267 24.8299 23.5802 25.3102 23.8509 25.9138C24.1014 26.4732 24.1744 27.0735 24.1724 27.6765C24.1724 27.7615 24.1704 27.8466 24.1677 27.9317C24.161 28.1474 24.496 28.1474 24.5027 27.9317C24.5195 27.3656 24.4826 26.7941 24.3252 26.2475C24.1222 25.544 23.7149 24.9203 23.1052 24.5076C22.7756 24.2846 22.3991 24.1365 22.0032 24.0889C21.557 24.0353 21.1055 24.1305 20.7075 24.3355C20.0825 24.6564 19.6028 25.2305 19.3308 25.871C19.0849 26.4491 18.9851 27.0755 18.971 27.7012C18.9603 28.1776 18.9858 28.6532 19.0816 29.1208C19.2296 29.8444 19.5566 30.5558 20.1307 31.0389C20.7048 31.5219 21.4264 31.7644 22.1579 31.5936C22.8339 31.4361 23.3779 30.9417 23.7738 30.3917C24.226 29.764 24.4364 28.9956 24.4893 28.2312C24.496 28.1313 24.5 28.0315 24.5034 27.9317C24.5101 27.716 24.1751 27.716 24.1684 27.9317H24.1664Z" fill="black"/>
<path d="M22.5417 27.9196C22.5344 28.272 22.5116 29.3037 22.0058 30.1257C21.8751 30.3381 21.5261 30.9048 20.9721 30.9558C20.4669 31.002 20.1018 30.5906 20.002 30.4741C19.2945 29.6507 19.3113 28.1661 19.3153 27.8037C19.3193 27.4265 19.3334 26.1798 19.9457 25.3651C20.0529 25.2224 20.3651 24.8191 20.8387 24.7655C21.3868 24.7039 21.7901 25.1521 21.9408 25.349C22.5799 26.1804 22.5511 27.5076 22.5417 27.9196Z" fill="black"/>
<path d="M22.3747 27.9198C22.3647 28.3975 22.3151 28.8725 22.1751 29.3314C22.0913 29.6067 21.9734 29.8647 21.82 30.1078C21.7028 30.2927 21.5815 30.4562 21.4046 30.5962C21.213 30.7483 20.9705 30.8314 20.7273 30.7718C20.5069 30.7175 20.3348 30.5855 20.1847 30.4267C19.8484 30.0697 19.6836 29.5853 19.5884 29.113C19.5087 28.7184 19.4813 28.3117 19.4826 27.9024C19.4839 27.534 19.5014 27.1615 19.563 26.8037C19.6112 26.525 19.6816 26.247 19.7894 25.985C19.841 25.8591 19.9033 25.7372 19.9743 25.6219C20.0105 25.563 20.05 25.506 20.0909 25.4504C20.0949 25.4451 20.0989 25.4397 20.103 25.4344C20.1251 25.4042 20.0855 25.4558 20.1023 25.4357C20.117 25.4176 20.1311 25.3989 20.1465 25.3808C20.2919 25.2059 20.4714 25.0431 20.6912 24.9701C20.9531 24.8837 21.2117 24.944 21.4375 25.0934C21.607 25.2059 21.7637 25.3781 21.8676 25.5302C22.0257 25.7626 22.1342 26.0226 22.2099 26.2926C22.3399 26.7521 22.3801 27.2278 22.3787 27.7041C22.3787 27.7765 22.3774 27.8481 22.3761 27.9205C22.3714 28.1362 22.7063 28.1362 22.711 27.9205C22.7325 26.927 22.6266 25.7566 21.8756 25.0223C21.672 24.8234 21.4154 24.6566 21.13 24.6103C20.8044 24.5574 20.4828 24.6505 20.2209 24.8482C19.77 25.1885 19.4973 25.7171 19.3453 26.251C19.2079 26.7314 19.1577 27.2352 19.1496 27.7329C19.1436 28.1188 19.1597 28.5033 19.2126 28.8859C19.2897 29.4413 19.4464 30.0194 19.7894 30.4736C20.1137 30.9024 20.6275 31.2501 21.1869 31.0853C21.7034 30.9332 22.0605 30.4287 22.2863 29.9665C22.5569 29.4111 22.6715 28.7928 22.7023 28.1791C22.707 28.0927 22.709 28.0069 22.711 27.9205C22.7157 27.7048 22.3807 27.7048 22.3761 27.9205L22.3747 27.9198Z" fill="black"/>
<path d="M22.6896 25.9316L21.1133 27.2729L23.0152 27.8604L22.6896 25.9316Z" fill="white"/>
<path d="M18.9313 28.0912C18.9192 28.5025 18.883 29.7077 18.0671 30.6678C17.8567 30.9156 17.294 31.5775 16.4016 31.6372C15.5876 31.6914 15.0001 31.2111 14.8386 31.0744C13.6984 30.113 13.7252 28.3792 13.7319 27.9552C13.7386 27.5144 13.7614 26.0586 14.7475 25.1073C14.9197 24.9411 15.4228 24.4695 16.1859 24.4072C17.0689 24.3348 17.718 24.8581 17.9619 25.0885C18.9909 26.0599 18.9447 27.6095 18.9306 28.0912H18.9313Z" fill="white"/>
<path d="M18.764 28.0919C18.7573 28.3263 18.7399 28.5769 18.7064 28.7879C18.6502 29.145 18.555 29.5001 18.4029 29.8283C18.1403 30.3951 17.6995 30.9384 17.1522 31.2419C16.8152 31.4288 16.426 31.5112 16.0421 31.4603C15.7125 31.4161 15.403 31.2787 15.1316 31.0905C15.1075 31.0737 15.0834 31.0557 15.0593 31.0382C15.0539 31.0342 15.0178 31.0061 15.0513 31.0329C15.0419 31.0255 15.0325 31.0181 15.0231 31.0108C14.9823 30.9779 14.9421 30.9444 14.9032 30.9096C14.7699 30.7904 14.648 30.657 14.5441 30.511C14.3485 30.2363 14.2058 29.9288 14.1066 29.6073C13.9479 29.0941 13.8956 28.6003 13.899 28.0637C13.9016 27.584 13.9358 27.1446 14.0557 26.6863C14.2245 26.0418 14.5568 25.4597 15.0794 25.0383C15.1129 25.0115 15.1665 24.9713 15.2201 24.9351C15.2951 24.8842 15.3735 24.8373 15.4539 24.7951C15.622 24.7067 15.8016 24.643 15.9878 24.6048C16.3697 24.5264 16.7723 24.578 17.1294 24.7328C17.7243 24.99 18.1779 25.4704 18.4485 26.074C18.6991 26.6334 18.7721 27.2337 18.7701 27.8366C18.7701 27.9217 18.7681 28.0068 18.7654 28.0919C18.7587 28.3076 19.0937 28.3076 19.1004 28.0919C19.1171 27.5258 19.0803 26.9543 18.9228 26.4076C18.7198 25.7042 18.3125 25.0805 17.7029 24.6678C17.3733 24.4447 16.9968 24.2967 16.6008 24.2491C16.1546 24.1955 15.7031 24.2906 15.3052 24.4956C14.6801 24.8165 14.2004 25.3907 13.9284 26.0311C13.6826 26.6093 13.5828 27.2357 13.5687 27.8614C13.558 28.3377 13.5834 28.8134 13.6792 29.281C13.8273 30.0045 14.1542 30.716 14.7283 31.199C15.3025 31.682 16.024 31.9246 16.7556 31.7537C17.4315 31.5963 17.9755 31.1019 18.3715 30.5519C18.8237 29.9241 19.034 29.1557 19.087 28.3913C19.0937 28.2915 19.0977 28.1917 19.101 28.0919C19.1077 27.8761 18.7728 27.8761 18.7661 28.0919H18.764Z" fill="black"/>
<path d="M17.1394 28.0837C17.132 28.436 17.1092 29.4678 16.6034 30.2898C16.4728 30.5021 16.1238 31.0689 15.5697 31.1198C15.0646 31.166 14.6995 30.7547 14.5997 30.6381C13.8922 29.8148 13.9089 28.3302 13.913 27.9678C13.917 27.5906 13.9311 26.3438 14.5434 25.5292C14.6506 25.3865 14.9628 24.9832 15.4364 24.9296C15.9844 24.868 16.3877 25.3161 16.5384 25.5131C17.1776 26.3445 17.1488 27.6716 17.1394 28.0837Z" fill="black"/>
<path d="M16.9724 28.0839C16.9623 28.5616 16.9127 29.0365 16.7727 29.4954C16.689 29.7708 16.5711 30.0287 16.4177 30.2719C16.3004 30.4568 16.1792 30.6203 16.0023 30.7603C15.8107 30.9124 15.5682 30.9954 15.325 30.9358C15.1046 30.8815 14.9324 30.7496 14.7823 30.5908C14.446 30.2337 14.2812 29.7494 14.1861 29.2771C14.1064 28.8825 14.0789 28.4758 14.0803 28.0665C14.0816 27.698 14.099 27.3255 14.1606 26.9678C14.2089 26.6891 14.2792 26.4111 14.3871 26.1491C14.4387 26.0232 14.501 25.9012 14.572 25.786C14.6082 25.7271 14.6477 25.6701 14.6886 25.6145C14.6926 25.6092 14.6966 25.6038 14.7006 25.5984C14.7227 25.5683 14.6832 25.6199 14.6999 25.5998C14.7147 25.5817 14.7287 25.5629 14.7442 25.5448C14.8895 25.37 15.0691 25.2072 15.2888 25.1342C15.5508 25.0477 15.8094 25.108 16.0351 25.2574C16.2046 25.37 16.3614 25.5422 16.4652 25.6942C16.6233 25.9267 16.7319 26.1866 16.8076 26.4566C16.9375 26.9162 16.9777 27.3919 16.9764 27.8682C16.9764 27.9405 16.975 28.0122 16.9737 28.0846C16.969 28.3003 17.304 28.3003 17.3087 28.0846C17.3301 27.0911 17.2243 25.9207 16.4733 25.1864C16.2696 24.9874 16.013 24.8206 15.7276 24.7744C15.402 24.7215 15.0805 24.8146 14.8185 25.0122C14.3677 25.3526 14.095 25.8811 13.9429 26.4151C13.8056 26.8954 13.7553 27.3992 13.7473 27.897C13.7413 28.2829 13.7573 28.6674 13.8103 29.0499C13.8873 29.6053 14.0441 30.1835 14.3871 30.6377C14.7113 31.0665 15.2252 31.4142 15.7846 31.2493C16.3011 31.0973 16.6582 30.5928 16.8839 30.1306C17.1546 29.5752 17.2692 28.9568 17.3 28.3432C17.3047 28.2567 17.3067 28.171 17.3087 28.0846C17.3134 27.8688 16.9784 27.8688 16.9737 28.0846L16.9724 28.0839Z" fill="black"/>
<path d="M17.2873 26.0938L15.7109 27.4343L17.6122 28.0225L17.2873 26.0938Z" fill="white"/>
<path d="M19.0111 32.1013C19.7637 32.1013 20.3737 31.6484 20.3737 31.0897C20.3737 30.531 19.7637 30.0781 19.0111 30.0781C18.2585 30.0781 17.6484 30.531 17.6484 31.0897C17.6484 31.6484 18.2585 32.1013 19.0111 32.1013Z" fill="#CCFC56"/>
<path d="M20.2483 31.0888C20.2423 31.5303 19.8256 31.817 19.4377 31.9202C18.9794 32.0421 18.4167 31.9711 18.0529 31.6469C17.9129 31.5222 17.8017 31.3574 17.7789 31.1679C17.7561 30.9783 17.8224 30.7887 17.9437 30.6433C18.2505 30.2735 18.7945 30.1522 19.2534 30.2192C19.7123 30.2862 20.2429 30.5763 20.249 31.0895C20.251 31.2509 20.5022 31.2516 20.5002 31.0895C20.4928 30.5374 20.0118 30.1542 19.5167 30.0189C18.9627 29.8668 18.3015 29.9667 17.8673 30.3606C17.6831 30.5281 17.5558 30.7518 17.5284 31.0004C17.5009 31.2489 17.5907 31.4948 17.7461 31.6884C18.1085 32.1413 18.7563 32.284 19.307 32.2029C19.8758 32.1192 20.4915 31.7212 20.5002 31.0888C20.5022 30.9273 20.251 30.9267 20.249 31.0888H20.2483Z" fill="black"/>
<path d="M33.2717 25.8801H34.6887C34.8501 25.8801 34.8508 25.6289 34.6887 25.6289H33.2717C33.1103 25.6289 33.1096 25.8801 33.2717 25.8801Z" fill="black"/>
<path d="M30.0374 21.0227H31.3156C31.4771 21.0227 31.4777 20.7715 31.3156 20.7715H30.0374C29.8759 20.7715 29.8752 21.0227 30.0374 21.0227Z" fill="black"/>
<path d="M31.9924 23.4348H33.2707C33.4321 23.4348 33.4328 23.1836 33.2707 23.1836H31.9924C31.831 23.1836 31.8303 23.4348 31.9924 23.4348Z" fill="black"/>
<path d="M34.2073 28.5657H35.4855C35.647 28.5657 35.6476 28.3145 35.4855 28.3145H34.2073C34.0458 28.3145 34.0452 28.5657 34.2073 28.5657Z" fill="black"/>
<path d="M34.6135 31.5852H35.8918C36.0532 31.5852 36.0539 31.334 35.8918 31.334C35.5186 31.334 35.1455 31.334 34.7716 31.334H34.6135C34.4521 31.334 34.4514 31.5852 34.6135 31.5852Z" fill="black"/>
<path d="M34.303 34.7317H35.5812C35.7427 34.7317 35.7433 34.4805 35.5812 34.4805C35.2081 34.4805 34.8349 34.4805 34.4611 34.4805H34.303C34.1415 34.4805 34.1409 34.7317 34.303 34.7317Z" fill="black"/>
<path d="M33.6643 37.2903C34.0375 37.2903 34.4106 37.2903 34.7844 37.2903H34.9425C35.104 37.2903 35.1047 37.0391 34.9425 37.0391C34.5694 37.0391 34.1962 37.0391 33.8224 37.0391H33.6643C33.5029 37.0391 33.5022 37.2903 33.6643 37.2903Z" fill="black"/>
<path d="M32.4534 40.0852C32.8265 40.0852 33.1997 40.0852 33.5735 40.0852H33.7316C33.8931 40.0852 33.8937 39.834 33.7316 39.834C33.3585 39.834 32.9853 39.834 32.6115 39.834H32.4534C32.2919 39.834 32.2912 40.0852 32.4534 40.0852Z" fill="black"/>
<path d="M16.6956 34.5186C18.014 34.1348 19.4169 34.055 20.7695 34.2982C21.0843 34.3552 21.3965 34.4289 21.704 34.5186C21.8594 34.5642 21.9258 34.3217 21.771 34.2761C20.4244 33.8842 18.9968 33.8058 17.6154 34.047C17.2824 34.1053 16.9535 34.1817 16.6292 34.2761C16.4745 34.321 16.5401 34.5635 16.6962 34.5186H16.6956Z" fill="black"/>
<path d="M28.7283 20.7248C28.7283 20.7248 29.338 30.1984 29.5041 30.8556C29.6703 31.5128 33.4695 31.5128 34.1066 31.2368C34.7437 30.9607 34.0115 27.6151 35.2093 27.2352C36.4072 26.8554 36.0936 27.0148 35.8826 24.804C35.555 21.3646 33.3194 15.9843 27.373 12.5703" fill="#C6C6C6"/>
<path d="M28.5603 20.7259C28.5716 20.9001 28.583 21.0742 28.5944 21.2477C28.6239 21.7 28.654 22.1515 28.6842 22.6037C28.7257 23.2288 28.7686 23.8531 28.8115 24.4782C28.859 25.1709 28.908 25.8629 28.9582 26.555C29.0058 27.2095 29.0547 27.8647 29.1063 28.5192C29.1471 29.0317 29.1887 29.5436 29.2376 30.0547C29.2637 30.3281 29.2724 30.6208 29.3394 30.8881C29.3856 31.0744 29.5558 31.1843 29.7219 31.2559C29.9772 31.3658 30.2525 31.4201 30.5265 31.4616C31.238 31.5695 31.9642 31.5936 32.683 31.5748C32.9919 31.5668 33.3014 31.5507 33.6082 31.5125C33.8018 31.4884 34.045 31.4737 34.2165 31.3692C34.4028 31.2559 34.4704 31.0201 34.508 30.8191C34.5629 30.523 34.5756 30.2195 34.5877 29.9187C34.6017 29.5764 34.6111 29.2334 34.6393 28.8917C34.6647 28.5762 34.6982 28.2854 34.7987 27.9732C34.8101 27.9384 34.8222 27.9036 34.8349 27.8694C34.8402 27.8553 34.8456 27.8413 34.8516 27.8265C34.8396 27.8547 34.8603 27.8078 34.865 27.7984C34.8918 27.7408 34.9226 27.6845 34.9588 27.6316C34.9662 27.6202 34.9742 27.6095 34.9823 27.5981C34.9963 27.578 34.9655 27.6189 34.9803 27.6001C34.9843 27.5947 34.9883 27.5894 34.993 27.5847C35.0131 27.5619 35.0332 27.5391 35.0553 27.5177C35.0647 27.509 35.074 27.5003 35.0834 27.4916C35.0895 27.4855 35.0962 27.4808 35.1029 27.4755C35.1022 27.4762 35.0787 27.4936 35.0941 27.4822C35.1183 27.4648 35.1431 27.4487 35.1685 27.434C35.1812 27.4266 35.1946 27.4199 35.208 27.4139C35.2368 27.3998 35.1853 27.4212 35.2154 27.4105C35.2502 27.3978 35.2858 27.387 35.3213 27.3757C35.3909 27.3536 35.4599 27.3321 35.5289 27.3093C35.6455 27.2712 35.7621 27.2316 35.874 27.18C36.0388 27.1043 36.1741 26.9831 36.223 26.8035C36.2813 26.5871 36.2371 26.346 36.2089 26.1289C36.152 25.6934 36.0924 25.2607 36.0495 24.8205C36.0187 24.5036 35.9765 24.1881 35.9215 23.8746C35.8023 23.1953 35.6274 22.526 35.409 21.8721C35.1578 21.1225 34.8483 20.3909 34.4892 19.6868C34.0946 18.913 33.6384 18.1714 33.1279 17.4693C32.5651 16.6949 31.9394 15.9673 31.2574 15.296C30.5104 14.5611 29.6965 13.8932 28.8349 13.2963C28.3881 12.9868 27.9272 12.6967 27.4555 12.426C27.2686 12.3182 27.0991 12.6076 27.2867 12.7154C28.2193 13.2521 29.1096 13.8624 29.9363 14.5511C30.6893 15.1788 31.3914 15.8688 32.0292 16.6138C32.608 17.2898 33.1319 18.0126 33.5948 18.773C34.0149 19.4624 34.3867 20.1825 34.6975 20.9275C34.9776 21.5988 35.2114 22.2902 35.3909 22.995C35.4713 23.3125 35.541 23.6327 35.5979 23.9556C35.6549 24.2785 35.6864 24.5197 35.7172 24.8373C35.7581 25.2613 35.8217 25.7249 35.874 26.1209C35.8907 26.2482 35.9074 26.3761 35.9135 26.5041C35.9155 26.551 35.9162 26.5979 35.9135 26.6448C35.9135 26.6541 35.9115 26.6628 35.9108 26.6722C35.9095 26.7084 35.9182 26.6421 35.9115 26.6669C35.9075 26.6836 35.9048 26.701 35.9001 26.7185C35.8934 26.7426 35.8746 26.7741 35.8981 26.7319C35.89 26.7459 35.8813 26.7613 35.8746 26.7761C35.8559 26.8143 35.8967 26.7587 35.8686 26.7848C35.8565 26.7962 35.8425 26.8082 35.8317 26.821C35.813 26.8431 35.8485 26.8096 35.8411 26.8143C35.8331 26.8196 35.8257 26.8256 35.8177 26.8303C35.8003 26.8411 35.7835 26.8518 35.7654 26.8612C35.7487 26.8705 35.7319 26.8786 35.7145 26.8866C35.7038 26.892 35.6931 26.896 35.6824 26.9013C35.6824 26.9013 35.7098 26.8906 35.6777 26.9034C35.5631 26.9469 35.4465 26.9851 35.33 27.0219C35.198 27.0635 35.0613 27.099 34.9454 27.178C34.443 27.5217 34.3619 28.2513 34.311 28.806C34.2802 29.145 34.2695 29.486 34.2561 29.8263C34.25 29.9851 34.2433 30.1445 34.2319 30.3033C34.2272 30.373 34.2212 30.442 34.2145 30.511C34.2112 30.5431 34.2072 30.5759 34.2038 30.6081C34.1991 30.6476 34.2058 30.5987 34.2011 30.6282C34.1984 30.6443 34.1964 30.6604 34.1938 30.6764C34.1844 30.7334 34.1737 30.7903 34.1589 30.8466C34.1529 30.8707 34.1462 30.8948 34.1381 30.919C34.1348 30.9297 34.1315 30.9397 34.1274 30.9498C34.1248 30.9585 34.1087 30.9987 34.1187 30.9732C34.1281 30.9511 34.104 31.0034 34.098 31.0141C34.0886 31.0308 34.0772 31.0462 34.0671 31.0623C34.0879 31.0295 34.0691 31.0536 34.0537 31.0737C34.035 31.0978 34.0598 31.0697 34.0611 31.069C34.0537 31.073 34.047 31.0797 34.0397 31.0831C33.9955 31.1012 34.0712 31.0751 34.0303 31.0878C34.0122 31.0931 33.9948 31.0998 33.9767 31.1052C33.9345 31.1179 33.8916 31.128 33.8481 31.1367C33.7978 31.1474 33.7469 31.1561 33.696 31.1642C33.6806 31.1662 33.6658 31.1688 33.6504 31.1709C33.6444 31.1715 33.6049 31.1769 33.6257 31.1742C33.6451 31.1715 33.6015 31.1776 33.5922 31.1782C33.5754 31.1802 33.5587 31.1822 33.5419 31.1843C32.8787 31.26 32.202 31.2593 31.5354 31.2245C31.1985 31.207 30.8548 31.1776 30.5446 31.1273C30.4053 31.1045 30.2666 31.0777 30.1299 31.0416C30.0703 31.0262 30.0107 31.0087 29.9524 30.9886C29.9269 30.9799 29.9021 30.9699 29.8767 30.9605C29.8452 30.9491 29.8814 30.9632 29.8733 30.9592C29.8599 30.9531 29.8459 30.9471 29.8325 30.9404C29.7916 30.921 29.7541 30.8975 29.7159 30.8734C29.6844 30.8533 29.7367 30.8962 29.7025 30.862C29.6898 30.8493 29.6777 30.8352 29.665 30.8225C29.7045 30.8634 29.673 30.8252 29.6623 30.8118C29.6442 30.7897 29.669 30.8453 29.6677 30.8238C29.6677 30.8185 29.6636 30.8124 29.663 30.8071C29.6603 30.7923 29.6563 30.7769 29.6536 30.7622C29.6496 30.7421 29.6469 30.722 29.6435 30.7012C29.6422 30.6905 29.6402 30.6798 29.6389 30.6691C29.6375 30.659 29.6308 30.6108 29.6355 30.647C29.6402 30.6831 29.6342 30.6349 29.6328 30.6242C29.6308 30.6081 29.6288 30.5914 29.6268 30.5753C29.6228 30.5404 29.6188 30.5049 29.6147 30.4701C29.5672 30.0507 29.5323 29.6307 29.4968 29.2106C29.4466 28.6104 29.4004 28.0101 29.3555 27.4098C29.3046 26.7305 29.2556 26.0505 29.2081 25.3705C29.1605 24.6906 29.117 24.0595 29.0721 23.4043C29.0359 22.8677 28.9997 22.3304 28.9642 21.7937C28.9435 21.4795 28.9227 21.1654 28.9026 20.8512C28.8999 20.8089 28.8972 20.7667 28.8946 20.7252C28.8805 20.5108 28.5455 20.5095 28.5596 20.7252L28.5603 20.7259Z" fill="black"/>
<path d="M9.34116 20.846C9.34116 20.846 9.18104 30.3336 9.05978 30.9962C8.93852 31.6588 5.57076 31.7941 4.99461 31.5408C4.41847 31.2876 4.92092 27.9634 3.85639 27.5822C3.35059 27.4006 3.33651 27.7912 3.43433 25.5744C3.58707 22.1262 5.03011 15.4851 10.9671 12.5957" fill="#DADADA"/>
<path d="M9.17464 20.8458C9.17196 21.0173 9.16861 21.1888 9.16593 21.3603C9.15789 21.8065 9.14985 22.252 9.14114 22.6982C9.12909 23.3158 9.11702 23.9335 9.1043 24.5512C9.08956 25.2386 9.07481 25.9252 9.05807 26.6126C9.04132 27.3 9.02525 27.9203 9.00649 28.5735C8.99108 29.0914 8.975 29.6092 8.95222 30.1271C8.94485 30.3033 8.93614 30.4788 8.92542 30.655C8.9214 30.7166 8.91738 30.7783 8.91202 30.8399C8.91001 30.864 8.90801 30.8875 8.90533 30.9116C8.90399 30.921 8.90331 30.931 8.90197 30.9404C8.89795 30.9779 8.90398 30.925 8.90398 30.9243C8.89796 30.9417 8.89326 30.9672 8.89125 30.9846C8.89125 30.9893 8.91269 30.9511 8.89595 30.9725C8.89059 30.9792 8.8859 30.9893 8.88188 30.9967C8.87183 31.0188 8.87585 31.004 8.88858 30.9893C8.88054 30.998 8.87384 31.0074 8.86513 31.0154C8.85173 31.0288 8.83766 31.0409 8.82359 31.0536C8.80282 31.0717 8.85508 31.0342 8.82091 31.0549C8.81019 31.0616 8.80014 31.069 8.79009 31.0757C8.74654 31.1039 8.70032 31.1266 8.65343 31.1487C8.64539 31.1528 8.63735 31.1561 8.62931 31.1595C8.63065 31.1595 8.65678 31.1481 8.63869 31.1554C8.62596 31.1608 8.61323 31.1655 8.6005 31.1708C8.56901 31.1829 8.53752 31.1943 8.50537 31.205C8.43837 31.2278 8.37005 31.2472 8.30171 31.2653C8.15165 31.3048 7.99957 31.3357 7.84682 31.3618C7.18291 31.475 6.46608 31.5139 5.77806 31.4857C5.64206 31.4804 5.50539 31.471 5.37007 31.4549C5.35667 31.4536 5.34327 31.4515 5.33054 31.4502C5.36002 31.4542 5.34126 31.4515 5.32451 31.4489C5.29704 31.4448 5.26958 31.4402 5.24278 31.4355C5.19856 31.4274 5.15435 31.4174 5.1108 31.4047C5.09539 31.4 5.07998 31.3933 5.0639 31.3892C5.03509 31.3819 5.0907 31.3872 5.07395 31.3939C5.07127 31.3953 5.0552 31.3839 5.05319 31.3819C5.02907 31.3611 5.07664 31.408 5.06123 31.3886C5.05721 31.3832 5.05051 31.3779 5.04515 31.3732C5.01031 31.3417 5.0572 31.3993 5.03175 31.3564C5.02237 31.341 5.01299 31.3256 5.00495 31.3095C4.99959 31.2995 4.99557 31.2888 4.99021 31.2787C4.99021 31.278 5.00026 31.3082 4.98954 31.276C4.97212 31.2265 4.95605 31.1769 4.94332 31.126C4.92925 31.069 4.91719 31.0114 4.90714 30.9538C4.90178 30.9223 4.89642 30.8908 4.89173 30.8587C4.88972 30.8433 4.88704 30.8285 4.88503 30.8131C4.88503 30.8111 4.88101 30.7856 4.88369 30.8044C4.88637 30.8252 4.88101 30.783 4.88034 30.7796C4.86158 30.6275 4.84752 30.4748 4.83479 30.322C4.80598 29.9797 4.78454 29.6367 4.74702 29.295C4.70951 28.9534 4.66596 28.6244 4.57083 28.3022C4.49513 28.0449 4.38325 27.7696 4.17825 27.5867C4.03354 27.4574 3.86472 27.4045 3.68049 27.3623C3.65771 27.3569 3.63493 27.3509 3.61215 27.3442C3.57598 27.3341 3.60143 27.3288 3.61818 27.3482C3.61148 27.3408 3.59741 27.3402 3.59004 27.3328C3.56994 27.3134 3.6289 27.3629 3.59942 27.3395C3.56994 27.316 3.60076 27.3348 3.60143 27.3448C3.60143 27.3401 3.58803 27.3194 3.58468 27.3154C3.56928 27.2973 3.59339 27.3402 3.59272 27.3341C3.59138 27.3261 3.58669 27.318 3.58468 27.31C3.58066 27.2953 3.57664 27.2799 3.57329 27.2651C3.57061 27.2537 3.56257 27.2001 3.56659 27.2289C3.57061 27.2577 3.56325 27.1948 3.56258 27.182C3.56057 27.1552 3.55922 27.1278 3.55788 27.101C3.55186 26.9563 3.55521 26.8102 3.55856 26.6655C3.56994 26.2294 3.58804 25.7933 3.61349 25.3578C3.64833 24.7549 3.71466 24.1667 3.80644 23.5905C3.91765 22.8938 4.06637 22.2031 4.25328 21.5231C4.45694 20.7828 4.70549 20.0526 5.00629 19.3458C5.32853 18.5888 5.70906 17.8559 6.15055 17.1618C6.59203 16.4677 7.13669 15.7636 7.73092 15.148C8.36 14.4968 9.06142 13.918 9.82381 13.4289C10.2197 13.175 10.6304 12.9459 11.0525 12.7395C11.2461 12.6451 11.0766 12.3563 10.8836 12.4501C10.0161 12.8735 9.20211 13.3994 8.45848 14.0164C7.76978 14.5879 7.14808 15.2377 6.60007 15.9445C6.07082 16.6272 5.60722 17.3581 5.21062 18.1252C4.83546 18.852 4.51723 19.6098 4.25261 20.3835C4.00942 21.0957 3.81113 21.8232 3.65637 22.5595C3.51769 23.218 3.41318 23.8839 3.34351 24.5532C3.26714 25.2834 3.23565 26.0204 3.22091 26.754C3.21689 26.9663 3.19545 27.2149 3.2678 27.4185C3.31872 27.5626 3.42524 27.6423 3.57062 27.6778C3.62823 27.6919 3.68651 27.7033 3.74346 27.72C3.76088 27.7254 3.77763 27.7307 3.79504 27.7361C3.80643 27.7401 3.81782 27.7441 3.82854 27.7481C3.84596 27.7548 3.81715 27.7435 3.81648 27.7428C3.82385 27.7461 3.83122 27.7495 3.83859 27.7535C3.86137 27.7669 3.88415 27.7796 3.90626 27.7937C3.91497 27.7991 3.94779 27.8272 3.9163 27.8004C3.92769 27.8098 3.93841 27.8191 3.94913 27.8292C3.96923 27.848 3.98866 27.8674 4.00675 27.8882C4.01546 27.8982 4.0235 27.9083 4.03153 27.9183C4.00742 27.8882 4.03957 27.9297 4.04493 27.9377C4.08111 27.99 4.1126 28.0456 4.14006 28.1032C4.14676 28.1166 4.15279 28.13 4.15882 28.1441C4.1749 28.1796 4.15882 28.1407 4.16887 28.1675C4.18294 28.2017 4.19567 28.2365 4.20773 28.2714C4.23252 28.3424 4.25395 28.4147 4.27271 28.4878C4.44153 29.1389 4.4489 29.8136 4.51187 30.4909C4.53733 30.7635 4.56011 31.0489 4.64519 31.3109C4.71151 31.5132 4.81603 31.6673 5.02773 31.7282C5.26757 31.7972 5.52884 31.8086 5.77672 31.8187C6.11972 31.8327 6.4634 31.826 6.80641 31.8066C7.17755 31.7852 7.54937 31.7477 7.91583 31.686C8.21395 31.6358 8.51274 31.5701 8.79076 31.4489C8.97298 31.3691 9.17531 31.2439 9.22086 31.0342C9.24297 30.9317 9.24565 30.8218 9.25302 30.7173C9.28049 30.3187 9.29389 29.9187 9.30796 29.5195C9.3294 28.9212 9.34614 28.3223 9.36222 27.7234C9.38031 27.032 9.39706 26.3413 9.41246 25.6499C9.42787 24.9585 9.44194 24.2966 9.45534 23.62C9.46673 23.0646 9.47678 22.5099 9.4875 21.9545C9.49353 21.6269 9.49956 21.3 9.50492 20.9724C9.50559 20.9289 9.50626 20.886 9.50693 20.8424C9.51028 20.6267 9.17531 20.6267 9.17196 20.8424L9.17464 20.8458Z" fill="black"/>
<path d="M9.18945 13.7022C9.18945 13.7022 9.18946 11.5195 9.91567 10.9675C10.6982 10.3733 27.0553 10.3914 27.9423 10.7893C28.6029 11.0854 28.635 11.2013 29.096 13.6948" fill="#C6C6C6"/>
<path d="M9.35768 13.7014C9.35768 13.3772 9.38381 13.0509 9.42334 12.7294C9.48363 12.2376 9.57675 11.6528 9.87889 11.2421C9.89162 11.2247 9.9298 11.1805 9.96263 11.1483C9.98206 11.1296 10.0015 11.1121 10.0229 11.0954C10.0156 11.1014 9.99412 11.1141 10.0115 11.1048C10.0196 11.1007 10.0276 11.0961 10.035 11.0914C10.0685 11.0713 10.045 11.0894 10.029 11.0927C10.0872 11.08 10.1449 11.0545 10.2038 11.0411C10.2896 11.021 10.3767 11.0063 10.4644 10.9922C10.4892 10.9882 10.5147 10.9848 10.5401 10.9808C10.5528 10.9788 10.5649 10.9775 10.5776 10.9755C10.6339 10.9674 10.5495 10.9788 10.593 10.9735C10.6513 10.9661 10.7096 10.9587 10.7679 10.952C11.4358 10.8756 12.1084 10.8395 12.779 10.8073C13.7049 10.7631 14.6321 10.7356 15.5586 10.7155C16.6138 10.6928 17.6682 10.68 18.7234 10.674C19.7933 10.668 20.8625 10.67 21.9324 10.68C22.879 10.6887 23.8263 10.7035 24.7729 10.7303C25.4831 10.7504 26.1932 10.7738 26.902 10.8227C27.1278 10.8381 27.3535 10.8555 27.578 10.8837C27.5893 10.885 27.6001 10.8864 27.6115 10.8877C27.6496 10.8924 27.5692 10.881 27.6021 10.8864C27.6215 10.8897 27.6416 10.8917 27.6617 10.8951C27.6952 10.9004 27.7287 10.9058 27.7615 10.9125C27.7876 10.9178 27.8138 10.9232 27.8399 10.9306C27.8714 10.9393 27.9149 10.9708 27.858 10.9333C27.9591 10.9996 28.0797 11.0378 28.1829 11.1061C28.2037 11.1195 28.207 11.1249 28.1829 11.1054C28.1936 11.1141 28.205 11.1229 28.2157 11.1322C28.2372 11.151 28.2579 11.1711 28.2767 11.1919C28.2867 11.2026 28.2955 11.214 28.3055 11.2247C28.3202 11.2414 28.2834 11.1912 28.3095 11.23C28.3276 11.2568 28.3457 11.283 28.3611 11.3104C28.3765 11.3379 28.3933 11.3694 28.4073 11.3995C28.4147 11.4149 28.4214 11.431 28.4288 11.4464C28.4187 11.423 28.4328 11.4558 28.4415 11.4799C28.4743 11.565 28.5011 11.6521 28.5259 11.7399C28.5996 12.0011 28.6545 12.2671 28.7081 12.5331C28.7885 12.9344 28.8622 13.3363 28.9366 13.739C28.9533 13.8281 29.0605 13.8783 29.1429 13.8562C29.2367 13.8307 29.2762 13.7396 29.2602 13.6499C29.1356 12.9732 29.0337 12.2818 28.8408 11.6199C28.7517 11.3145 28.6298 11.0183 28.3658 10.8261C28.2211 10.7209 28.0429 10.6291 27.8667 10.5923C27.6905 10.5554 27.5016 10.5373 27.3194 10.5206C26.6883 10.4623 26.0538 10.4382 25.4214 10.4161C24.5103 10.3839 23.5985 10.3658 22.6867 10.3538C21.6242 10.3397 20.561 10.3343 19.4985 10.3363C18.436 10.3384 17.3286 10.3477 16.244 10.3672C15.2659 10.3846 14.2877 10.4087 13.311 10.4489C12.5667 10.479 11.8224 10.5152 11.0808 10.5849C10.8282 10.6083 10.5756 10.6358 10.3251 10.678C10.175 10.7028 10.0156 10.7283 9.87822 10.7973C9.74088 10.8663 9.63772 11.0009 9.55665 11.1249C9.40793 11.3513 9.31548 11.6173 9.24647 11.8772C9.11249 12.3817 9.05621 12.9089 9.03276 13.4294C9.02874 13.5199 9.02539 13.611 9.02539 13.7021C9.02539 13.9178 9.36036 13.9178 9.36036 13.7021L9.35768 13.7014Z" fill="black"/>
<path d="M30.4942 21.9893C30.6503 20.4698 30.7447 18.8446 30.4097 17.354C29.7492 14.4109 29.9314 13.6934 28.9446 13.6934C27.7601 13.6934 10.9642 13.7383 9.17007 13.6934C8.27168 13.6713 7.58634 19.1963 7.51465 19.7959C7.51063 19.8307 7.51064 19.8656 7.51532 19.8997C7.55083 20.1543 7.70759 21.2925 7.7967 21.9846C7.82282 22.1889 7.997 22.3416 8.20267 22.3416H30.0888C30.2932 22.3416 30.466 22.1916 30.4942 21.9893Z" fill="#DADADA"/>
<path d="M30.6613 21.9894C30.7806 20.8264 30.8623 19.65 30.7524 18.4829C30.6982 17.9028 30.5742 17.3407 30.4543 16.7712C30.3599 16.3217 30.2734 15.8702 30.1877 15.4186C30.1294 15.1125 30.0738 14.805 29.9961 14.5028C29.9445 14.3025 29.8822 14.0922 29.7696 13.9166C29.5733 13.6111 29.2591 13.5254 28.9121 13.5254C28.3929 13.5254 27.8731 13.5274 27.3539 13.5281C26.357 13.5301 25.3601 13.5321 24.3633 13.5341C23.0857 13.5368 21.8081 13.5388 20.5305 13.5408C19.1773 13.5428 17.8247 13.5442 16.4714 13.5448C15.2488 13.5455 14.0261 13.5455 12.8042 13.5448C11.9091 13.5435 11.0134 13.5428 10.1184 13.5368C9.8551 13.5354 9.59181 13.5334 9.32853 13.5294C9.22871 13.5281 9.12554 13.516 9.02974 13.5502C8.86895 13.6078 8.75439 13.7498 8.66596 13.8892C8.40267 14.3019 8.26802 14.8083 8.14341 15.2766C7.97593 15.9043 7.84863 16.5428 7.73474 17.1819C7.63291 17.7547 7.54315 18.3288 7.46275 18.905C7.43328 19.114 7.40581 19.323 7.37901 19.532C7.35824 19.6948 7.33882 19.8416 7.36226 20.0064C7.41251 20.3715 7.46275 20.7373 7.51233 21.103C7.54114 21.3188 7.56995 21.5338 7.59875 21.7495C7.6289 21.9773 7.63827 22.2071 7.82585 22.3679C7.98396 22.5039 8.16083 22.5092 8.35109 22.5092H9.75259C10.6061 22.5092 11.4603 22.5092 12.3138 22.5092C13.4192 22.5092 14.5246 22.5092 15.63 22.5092C16.8593 22.5092 18.0886 22.5092 19.318 22.5092H29.9974C30.0256 22.5092 30.0537 22.5099 30.0818 22.5092C30.3532 22.5019 30.6164 22.3163 30.656 22.0343C30.6687 21.9438 30.6339 21.8554 30.5387 21.8279C30.4603 21.8051 30.3451 21.8554 30.3324 21.9452C30.3009 22.1696 30.1227 22.1743 29.9525 22.1743H24.5837C23.4227 22.1743 22.2617 22.1743 21.1 22.1743C19.8727 22.1743 18.6447 22.1743 17.4173 22.1743H8.37722C8.28276 22.1743 8.16149 22.1897 8.07842 22.1401C7.91898 22.0443 7.93841 21.785 7.91697 21.6236C7.88616 21.3925 7.85534 21.1613 7.82385 20.9302C7.77696 20.5845 7.71465 20.2375 7.68115 19.8898C7.6691 19.7638 7.70259 19.6232 7.71867 19.4972C7.73006 19.4068 7.74212 19.317 7.75418 19.2266C7.74949 19.2607 7.75953 19.187 7.76087 19.1776C7.76489 19.1502 7.76825 19.1234 7.77226 19.0959C7.7803 19.0383 7.78834 18.98 7.79638 18.9224C7.96655 17.7152 8.16016 16.5006 8.47838 15.3222C8.60165 14.8653 8.72023 14.401 8.97949 14.0205C8.98954 14.0057 8.99959 13.9917 9.01031 13.9769C8.99959 13.9917 9.00562 13.9809 9.02571 13.9588C9.04916 13.9334 9.07328 13.9086 9.09941 13.8858C9.10811 13.8784 9.06926 13.9006 9.10811 13.8811C9.11883 13.8758 9.13022 13.8691 9.14027 13.863C9.16573 13.8476 9.10543 13.8644 9.14027 13.8644C9.14764 13.8644 9.15501 13.8583 9.16238 13.859C9.18985 13.8604 9.1175 13.8604 9.14698 13.861C9.23139 13.8617 9.31579 13.8637 9.40088 13.8644C10.0762 13.8738 10.7515 13.8744 11.4268 13.8764C12.5101 13.8791 13.594 13.8798 14.6773 13.8798C15.9756 13.8798 17.274 13.8791 18.5723 13.8778C19.8914 13.8764 21.2112 13.8744 22.5303 13.8724C23.6772 13.8704 24.8242 13.8684 25.9711 13.8657C26.7522 13.8644 27.5334 13.8624 28.3139 13.861C28.5075 13.861 28.7011 13.8604 28.894 13.8604C28.9429 13.8604 28.9918 13.8604 29.0407 13.863C29.0629 13.8644 29.0843 13.8664 29.1057 13.8684C29.1513 13.8724 29.0917 13.8644 29.1285 13.8718C29.168 13.8791 29.2062 13.8885 29.2451 13.8999C29.2571 13.9032 29.3127 13.9267 29.2652 13.9052C29.2813 13.9126 29.2967 13.92 29.3121 13.928C29.3255 13.9354 29.3389 13.9434 29.3516 13.9515C29.359 13.9562 29.3657 13.9609 29.3724 13.9655C29.4025 13.9856 29.3436 13.9408 29.371 13.9642C29.3985 13.9877 29.4213 14.0118 29.4454 14.0379C29.4742 14.0701 29.4353 14.0211 29.4561 14.052C29.4682 14.0694 29.4802 14.0868 29.4909 14.1049C29.5124 14.1404 29.5311 14.1779 29.5492 14.2154C29.5693 14.2583 29.5472 14.2061 29.5646 14.2509C29.5734 14.2737 29.5821 14.2965 29.5901 14.3193C29.6289 14.4291 29.6598 14.5417 29.6872 14.6549C29.7643 14.9691 29.8212 15.288 29.8815 15.6055C29.9686 16.0638 30.057 16.522 30.1542 16.9789C30.2728 17.535 30.3853 18.0836 30.4295 18.6524C30.5159 19.7645 30.4369 20.882 30.3237 21.9887C30.3143 22.0791 30.4074 22.1555 30.4912 22.1562C30.5896 22.1575 30.6493 22.0785 30.6586 21.9887L30.6613 21.9894Z" fill="black"/>
<path d="M28.1905 14.573C28.1457 14.8356 28.1222 15.1029 28.1028 15.3682C28.0566 16.0066 28.0572 16.6484 28.1028 17.2869C28.1905 18.4981 28.4076 19.7201 28.77 20.8804C28.8317 21.0781 28.8953 21.2764 28.9757 21.4673C29.0018 21.5296 29.0588 21.5752 29.1305 21.5551C29.1894 21.5383 29.245 21.4639 29.2182 21.4003C28.9817 20.8389 28.8337 20.2306 28.7037 19.6377C28.4109 18.3059 28.2642 16.9378 28.3406 15.5745C28.354 15.3394 28.3728 15.1049 28.4009 14.8711C28.4049 14.8349 28.4096 14.7987 28.4143 14.7626C28.4176 14.7391 28.4143 14.7652 28.4136 14.7686C28.415 14.7606 28.4156 14.7518 28.417 14.7438C28.419 14.7317 28.4203 14.7197 28.4223 14.7083C28.4257 14.6855 28.429 14.6627 28.4331 14.64C28.4599 14.4819 28.218 14.4142 28.1905 14.573Z" fill="black"/>
<path d="M9.58064 14.5642C9.62217 14.7531 9.64361 14.9333 9.66438 15.1102C9.73003 15.6702 9.75817 16.2343 9.7642 16.7977C9.7776 18.0304 9.68581 19.2718 9.4098 20.4757C9.36223 20.6834 9.31199 20.8931 9.24366 21.0947C9.1914 21.2481 9.43392 21.3138 9.48617 21.1617C9.54178 20.9976 9.58399 20.8281 9.62486 20.6593C9.73807 20.1896 9.8198 19.7133 9.88144 19.2343C10.0523 17.9159 10.071 16.5613 9.93034 15.2388C9.90421 14.9916 9.87675 14.7404 9.82315 14.4965C9.78832 14.3384 9.54647 14.4054 9.58064 14.5635V14.5642Z" fill="black"/>
<path d="M8.07941 18.5321C8.09844 18.1796 7.95034 17.8851 7.74862 17.8742C7.54689 17.8633 7.36793 18.1402 7.3489 18.4927C7.32988 18.8451 7.47799 19.1397 7.67971 19.1506C7.88144 19.1615 8.06039 18.8846 8.07941 18.5321Z" fill="#DADADA"/>
<path d="M7.95634 18.4986C7.953 18.6072 7.93491 18.715 7.89337 18.8162C7.86658 18.8825 7.817 18.9616 7.7701 18.9964C7.75603 19.0065 7.73996 19.0165 7.72388 19.0232C7.74666 19.0145 7.68569 19.0299 7.71383 19.0266C7.70579 19.0279 7.67363 19.0265 7.68033 19.0279C7.69239 19.0292 7.63679 19.0111 7.65621 19.0205C7.62406 19.0051 7.61334 18.9951 7.58721 18.9636C7.57046 18.9435 7.54501 18.8999 7.53094 18.8678C7.4492 18.6802 7.45724 18.4477 7.52089 18.2568C7.54701 18.1771 7.58721 18.1014 7.6475 18.0438C7.66224 18.0297 7.6609 18.031 7.67765 18.021C7.68502 18.0163 7.69306 18.0116 7.70109 18.0082C7.72119 17.9995 7.68703 18.0143 7.70713 18.0069C7.73192 17.9969 7.71048 18.0042 7.72991 18.0015C7.73728 18.0009 7.74732 18.0015 7.75469 18.0015C7.73125 17.9995 7.76675 18.0056 7.7701 18.0062C7.77345 18.0069 7.79154 18.0156 7.77479 18.0076C7.78417 18.0123 7.79355 18.0176 7.80226 18.0237C7.80427 18.025 7.82169 18.0397 7.83375 18.0531C7.85653 18.0779 7.88198 18.1208 7.89873 18.1583C7.94563 18.2648 7.95768 18.3827 7.95634 18.4973C7.95433 18.6588 8.20556 18.6594 8.20757 18.4973C8.21092 18.2508 8.14594 17.9305 7.9128 17.7959C7.67966 17.6612 7.44786 17.8327 7.34134 18.0391C7.20936 18.2943 7.18257 18.6266 7.27636 18.8986C7.35139 19.1163 7.54634 19.3468 7.80293 19.2584C8.09971 19.1558 8.19886 18.7753 8.20824 18.4973C8.2136 18.3358 7.96237 18.3358 7.95702 18.4973L7.95634 18.4986Z" fill="black"/>
<path d="M30.6286 19.1994C30.8299 19.183 30.9699 18.8845 30.9412 18.5327C30.9126 18.1808 30.7261 17.9089 30.5247 17.9254C30.3234 17.9418 30.1834 18.2403 30.2121 18.5921C30.2408 18.9439 30.4272 19.2158 30.6286 19.1994Z" fill="#DADADA"/>
<path d="M30.8055 18.5082C30.8236 18.6817 30.8142 18.9168 30.6876 19.0434C30.6682 19.0629 30.6487 19.0742 30.6327 19.0803C30.6266 19.0823 30.6206 19.0836 30.6146 19.085C30.5938 19.089 30.6313 19.0823 30.6106 19.085C30.6072 19.085 30.5817 19.0843 30.5965 19.085C30.6112 19.0856 30.5797 19.0809 30.5764 19.0803C30.5643 19.0769 30.5315 19.0588 30.5161 19.0461C30.4859 19.02 30.4618 18.9892 30.4404 18.9557C30.3345 18.7848 30.3024 18.5564 30.3386 18.3608C30.354 18.2777 30.3814 18.1859 30.433 18.1223C30.4538 18.0961 30.4679 18.0841 30.4953 18.07C30.4967 18.07 30.5014 18.0653 30.5188 18.0626C30.5208 18.0626 30.5509 18.0613 30.5389 18.06C30.5992 18.068 30.6514 18.1162 30.6943 18.1832C30.7559 18.2804 30.7914 18.3949 30.8055 18.5088C30.8135 18.5758 30.8571 18.6348 30.9315 18.6348C30.9931 18.6348 31.0654 18.5772 31.0574 18.5088C31.0273 18.263 30.9321 17.9541 30.6849 17.8442C30.4377 17.7344 30.2227 17.9273 30.1369 18.1531C30.0337 18.4237 30.0632 18.754 30.1865 19.0133C30.2876 19.227 30.5161 19.4186 30.76 19.2993C31.0326 19.166 31.0849 18.7755 31.0574 18.5088C31.0507 18.4412 31.0045 18.3829 30.9315 18.3829C30.8691 18.3829 30.7988 18.4405 30.8055 18.5088V18.5082Z" fill="black"/>
<path d="M30.5709 21.163C30.7729 21.163 30.9367 20.8769 30.9367 20.5239C30.9367 20.1709 30.7729 19.8848 30.5709 19.8848C30.3688 19.8848 30.2051 20.1709 30.2051 20.5239C30.2051 20.8769 30.3688 21.163 30.5709 21.163Z" fill="#DADADA"/>
<path d="M30.8102 20.4882C30.8142 20.661 30.7854 20.8935 30.6427 21.0087C30.6286 21.0201 30.6038 21.0342 30.5824 21.0362C30.6025 21.0342 30.5656 21.0362 30.5596 21.0362C30.5388 21.0355 30.5763 21.0402 30.5563 21.0362C30.5462 21.0335 30.5362 21.0315 30.5261 21.0275C30.5402 21.0335 30.506 21.0148 30.4993 21.0101C30.5047 21.0141 30.4792 20.9913 30.4718 20.9839C30.445 20.9558 30.4249 20.923 30.4062 20.8861C30.3144 20.7073 30.309 20.4748 30.3613 20.2839C30.3827 20.2041 30.4169 20.1211 30.4732 20.0628C30.4939 20.0413 30.5161 20.0239 30.5382 20.0159C30.5268 20.0199 30.5764 20.0078 30.5509 20.0112C30.5589 20.0099 30.5676 20.0099 30.5757 20.0105C30.6112 20.0119 30.5569 20.0038 30.5911 20.0125C30.6192 20.0199 30.6346 20.03 30.6594 20.0534C30.6902 20.0836 30.7103 20.1144 30.7318 20.1539C30.7854 20.2557 30.8061 20.3743 30.8108 20.4889C30.8175 20.6496 31.0688 20.651 31.0621 20.4889C31.052 20.2437 30.975 19.9241 30.7358 19.8008C30.4966 19.6776 30.2735 19.8511 30.1757 20.0655C30.0551 20.3281 30.0451 20.6577 30.1523 20.927C30.2387 21.1454 30.4457 21.3671 30.7016 21.2626C30.987 21.1454 31.0688 20.7642 31.0627 20.4895C31.0594 20.3281 30.8082 20.3274 30.8115 20.4895L30.8102 20.4882Z" fill="black"/>
<path d="M7.74399 21.1335C7.94438 21.1078 8.07045 20.8032 8.0256 20.4531C7.98075 20.103 7.78196 19.84 7.58158 19.8656C7.3812 19.8913 7.25511 20.1959 7.29996 20.546C7.34481 20.8962 7.54361 21.1592 7.74399 21.1335Z" fill="#DADADA"/>
<path d="M7.9026 20.4455C7.92739 20.6089 7.91735 20.8454 7.80011 20.964C7.78068 20.9834 7.76192 20.9948 7.74584 20.9995C7.73847 21.0015 7.72976 21.0042 7.72172 21.0048C7.74383 21.0022 7.72239 21.0035 7.71904 21.0035C7.69425 21.0022 7.71034 21.0035 7.71637 21.0048C7.70431 21.0035 7.69158 20.9995 7.68019 20.9955C7.69761 21.0015 7.65607 20.9827 7.65138 20.9801C7.6353 20.97 7.63128 20.9667 7.62056 20.9573C7.59309 20.9325 7.56898 20.9044 7.54888 20.8735C7.437 20.7014 7.39546 20.4709 7.42829 20.2693C7.44102 20.1922 7.46983 20.0978 7.5127 20.0435C7.53749 20.0127 7.54821 20.002 7.58037 19.9879C7.56295 19.9953 7.60515 19.9819 7.60984 19.9812C7.60381 19.9819 7.58841 19.9832 7.61252 19.9825C7.63664 19.9819 7.60783 19.9798 7.62123 19.9825C7.6487 19.9879 7.67751 20.0013 7.69962 20.0187C7.73244 20.0448 7.75924 20.0777 7.78202 20.1125C7.84767 20.213 7.88183 20.3275 7.90193 20.4448C7.91332 20.5118 7.99573 20.5493 8.05669 20.5325C8.1277 20.5131 8.15584 20.4455 8.14445 20.3778C8.10291 20.1339 7.97563 19.8311 7.71837 19.748C7.4658 19.6663 7.27621 19.884 7.20922 20.1038C7.12414 20.3818 7.16769 20.7201 7.31373 20.9707C7.42963 21.169 7.65942 21.3365 7.88921 21.2092C8.16656 21.0564 8.18598 20.6511 8.14445 20.3785C8.1344 20.3115 8.04999 20.2746 7.9897 20.2907C7.91801 20.3101 7.89188 20.3778 7.90193 20.4455H7.9026Z" fill="black"/>
<path d="M10.2689 11.6779C10.2709 11.6887 10.2722 11.7 10.2742 11.7108C10.2776 11.7295 10.2702 11.6719 10.2736 11.7047C10.2736 11.7114 10.2749 11.7181 10.2762 11.7248C10.2782 11.7443 10.2803 11.7637 10.2816 11.7831C10.2923 11.9104 10.2936 12.0384 10.2896 12.1656C10.2749 12.64 10.1798 13.1076 10.0431 13.5611C9.9962 13.7165 10.2387 13.7822 10.2856 13.6281C10.429 13.1545 10.5261 12.6614 10.5415 12.1656C10.5476 11.9821 10.5462 11.7912 10.5121 11.6103C10.4819 11.4515 10.2401 11.5185 10.2695 11.6773L10.2689 11.6779Z" fill="black"/>
<path d="M27.7571 11.4135C27.7055 11.6252 27.6888 11.851 27.6807 12.068C27.662 12.5939 27.7323 13.1239 27.8783 13.629C27.9232 13.7837 28.1657 13.7181 28.1209 13.562C27.9808 13.0763 27.9145 12.5732 27.9326 12.068C27.94 11.8563 27.9514 11.6781 27.9996 11.4805C28.0378 11.3237 27.7959 11.2567 27.7571 11.4135Z" fill="black"/>
<path d="M13.0196 24.7049C13.0196 24.7049 12.0643 23.8226 13.2943 23.2605C14.5243 22.6991 15.69 23.8219 17.2603 23.8487" fill="#A495FC"/>
<path d="M13.1087 24.616C13.0718 24.5819 13.0377 24.543 13.0062 24.5035C12.9988 24.4948 12.9921 24.486 12.9854 24.4773C13.0008 24.4968 12.9821 24.4727 12.9767 24.4653C12.9599 24.4418 12.9439 24.4191 12.9285 24.3949C12.899 24.348 12.8641 24.2851 12.8467 24.2442C12.8005 24.1357 12.7771 24.0104 12.8018 23.8992C12.8367 23.7431 12.9499 23.6171 13.0812 23.5247C13.4436 23.2701 13.8845 23.1891 14.3186 23.2493C14.7527 23.3096 15.1841 23.4791 15.6042 23.6232C16.1415 23.8074 16.6895 23.9628 17.2609 23.9749C17.4224 23.9782 17.4224 23.727 17.2609 23.7237C16.7283 23.7123 16.2179 23.5676 15.7174 23.3967C15.2645 23.242 14.813 23.0631 14.3353 23.0001C13.8577 22.9372 13.3746 23.0229 12.974 23.2942C12.6585 23.5079 12.4629 23.8429 12.5747 24.2268C12.6364 24.4378 12.7697 24.6442 12.9311 24.7936C13.0497 24.9034 13.2279 24.7259 13.1087 24.616Z" fill="black"/>
<path d="M14.3242 23.943L14.55 25.1897L16.8184 25.6761L18.6647 25.8436L19.2717 25.4195L19.3139 25.719L19.3923 25.989L21.7639 25.4195L23.5727 25.0417L24.2373 24.4742L23.1781 23.4258L19.5973 24.1473L17.0046 24.2398L14.3242 23.943Z" fill="#A495FC"/>
<path d="M19.9258 23.9501C20.8449 23.7397 21.5785 23.5381 22.0635 23.3987C23.3431 23.0302 24.0807 22.4695 24.754 23.0021C25.1573 23.3217 25.2384 24.0305 25.1051 24.2388" fill="#A495FC"/>
<path d="M19.9577 24.0717C20.889 23.858 21.8322 23.6356 22.7319 23.312C23.1239 23.1706 23.5191 22.9891 23.9338 22.9248C24.25 22.8752 24.5716 22.9569 24.7833 23.2082C24.9146 23.3642 24.987 23.5666 25.0218 23.7649C25.0365 23.8486 25.0405 23.935 25.0352 24.0194C25.0312 24.0777 25.0171 24.1394 24.995 24.1762C24.9112 24.3149 25.1283 24.4415 25.2121 24.3028C25.2904 24.1729 25.2965 24.0014 25.2844 23.8546C25.2677 23.653 25.2147 23.4567 25.1243 23.2758C24.9481 22.9234 24.6031 22.6903 24.2105 22.6615C23.8179 22.6327 23.3999 22.7995 23.0281 22.9368C22.5685 23.1063 22.1076 23.2591 21.6353 23.3897C21.0571 23.5498 20.4756 23.6959 19.8907 23.8299C19.7333 23.866 19.7996 24.1085 19.9577 24.0724V24.0717Z" fill="black"/>
<path d="M19.2107 26.0248C19.4425 26.0422 19.683 26.0128 19.9128 25.9853C20.6758 25.8955 21.4282 25.718 22.1664 25.5083C22.8438 25.316 23.5117 25.0916 24.1722 24.8484C24.323 24.7928 24.2573 24.5503 24.1052 24.6059C23.0709 24.9871 22.0157 25.3261 20.9364 25.5579C20.7596 25.5961 20.582 25.6309 20.4032 25.661C20.3281 25.6738 20.2531 25.6858 20.1781 25.6972C20.103 25.7086 20.0461 25.7166 19.9925 25.7233C19.8049 25.7475 19.6167 25.7655 19.4271 25.7722C19.3554 25.7749 19.2824 25.7776 19.2107 25.7722C19.0492 25.7602 19.0499 26.0114 19.2107 26.0235V26.0248Z" fill="black"/>
<path d="M13.9961 24.9375C13.9961 24.9375 16.089 26.3893 18.7238 25.8821L13.9961 24.9375Z" fill="#A495FC"/>
<path d="M13.934 25.0454C14.2066 25.2337 14.5128 25.3817 14.8156 25.5137C15.5378 25.8286 16.3055 26.0316 17.0914 26.0945C17.6488 26.1394 18.2095 26.1066 18.7582 26.0028C18.917 25.9726 18.85 25.7308 18.6912 25.7602C17.7988 25.9297 16.877 25.8835 15.9987 25.6584C15.4226 25.5104 14.8625 25.292 14.3433 25.0012C14.2468 24.9469 14.1504 24.892 14.0599 24.829C13.9266 24.7366 13.8007 24.9543 13.9333 25.0461L13.934 25.0454Z" fill="black"/>
</g>
</svg>
