<svg width="21" height="21" viewBox="0 0 21 21" fill="none" xmlns="http://www.w3.org/2000/svg">
<path fill-rule="evenodd" clip-rule="evenodd" d="M2.42334 18.1155H18.5772V19.5001H2.42334V18.1155Z" fill="#97A2AF"/>
<path fill-rule="evenodd" clip-rule="evenodd" d="M13.0387 1.5C13.2223 1.5 13.3984 1.57294 13.5283 1.70277L17.4513 5.62585C17.7217 5.89621 17.7217 6.33456 17.4513 6.60492L7.52826 16.528C7.3951 16.6612 7.21344 16.7343 7.02515 16.7306L3.10208 16.6537C2.72509 16.6463 2.42334 16.3386 2.42334 15.9615L2.42334 12.1154C2.42334 11.9318 2.49628 11.7557 2.62611 11.6258L12.5492 1.70277C12.679 1.57294 12.8551 1.5 13.0387 1.5ZM3.80796 12.4021V15.2827L6.75761 15.3405L15.9827 6.11538L13.0387 3.17138L3.80796 12.4021Z" fill="#97A2AF"/>
</svg>
