<svg width="24" height="24" viewBox="0 0 24 24" fill="none" xmlns="http://www.w3.org/2000/svg">
<path fill-rule="evenodd" clip-rule="evenodd" d="M18.1501 4.5H5.8501L5.8501 19.5H18.1501L18.1501 4.5ZM5.8501 3C5.02167 3 4.3501 3.67157 4.3501 4.5V19.5C4.3501 20.3284 5.02167 21 5.8501 21H18.1501C18.9785 21 19.6501 20.3284 19.6501 19.5V4.5C19.6501 3.67157 18.9785 3 18.1501 3H5.8501Z" fill="#BFC7CE"/>
<path fill-rule="evenodd" clip-rule="evenodd" d="M7.20117 8.06195C7.20117 7.64774 7.53696 7.31195 7.95117 7.31195H16.0512C16.4654 7.31195 16.8012 7.64774 16.8012 8.06195C16.8012 8.47616 16.4654 8.81195 16.0512 8.81195H7.95117C7.53696 8.81195 7.20117 8.47616 7.20117 8.06195Z" fill="#BFC7CE"/>
<path fill-rule="evenodd" clip-rule="evenodd" d="M7.20129 11.988C7.20257 11.5738 7.5394 11.239 7.95361 11.2403L14.2536 11.2599C14.6678 11.2611 15.0025 11.598 15.0012 12.0122C15 12.4264 14.6631 12.7611 14.2489 12.7598L7.94896 12.7403C7.53474 12.739 7.2 12.4022 7.20129 11.988Z" fill="#BFC7CE"/>
<path fill-rule="evenodd" clip-rule="evenodd" d="M7.20117 15.938C7.20117 15.5238 7.53696 15.188 7.95117 15.188H12.4512C12.8654 15.188 13.2012 15.5238 13.2012 15.938C13.2012 16.3523 12.8654 16.688 12.4512 16.688H7.95117C7.53696 16.688 7.20117 16.3523 7.20117 15.938Z" fill="#BFC7CE"/>
</svg>
