<svg width="36" height="36" viewBox="0 0 36 36" fill="none" xmlns="http://www.w3.org/2000/svg">
<g clip-path="url(#clip0_2430_47099)">
<circle cx="18" cy="18" r="18" fill="#C9A6FD"/>
<mask id="mask0_2430_47099" style="mask-type:alpha" maskUnits="userSpaceOnUse" x="0" y="0" width="36" height="36">
<circle cx="18" cy="18" r="18" fill="#C9A6FD"/>
</mask>
<g mask="url(#mask0_2430_47099)">
<g clip-path="url(#clip1_2430_47099)">
<path d="M2.30436 32.8156C2.30436 32.8156 1.15582 38.4814 1.23324 41.4157L2.30436 32.8156Z" fill="#674AD6"/>
<path d="M1.46912 32.5842C1.03062 34.7507 0.677051 36.9496 0.4708 39.1501C0.400316 39.9024 0.349476 40.6592 0.367386 41.4149C0.377785 41.8678 0.758511 42.3028 1.23399 42.2815C1.70946 42.2601 2.11214 41.9002 2.10059 41.4149C2.08557 40.7695 2.12138 40.1242 2.17511 39.4812C2.20631 39.1074 2.24444 38.7342 2.28662 38.3615C2.30684 38.1842 2.32821 38.0074 2.35017 37.83C2.36114 37.7416 2.3727 37.6532 2.38425 37.5648C2.38888 37.5267 2.39407 37.4892 2.39927 37.4516C2.38252 37.5776 2.39292 37.4978 2.4039 37.4181C2.57317 36.1974 2.77422 34.9806 3.00127 33.7691C3.04634 33.5276 3.09255 33.2861 3.14108 33.0447C3.23063 32.6015 3.01398 32.0874 2.53562 31.9787C2.10405 31.8805 1.56561 32.1087 1.4697 32.5842H1.46912Z" fill="black"/>
<path d="M18.8799 42.1162C28.3216 42.1162 35.9756 34.4622 35.9756 25.0205C35.9756 15.5788 28.3216 7.9248 18.8799 7.9248C9.43819 7.9248 1.78418 15.5788 1.78418 25.0205C1.78418 34.4622 9.43819 42.1162 18.8799 42.1162Z" fill="#674AD6"/>
<path d="M35.7592 25.02C35.7569 26.7948 35.4825 28.5603 34.9342 30.2485C34.386 31.9366 33.6309 33.4035 32.6453 34.7924C31.6596 36.1812 30.4805 37.4014 29.1402 38.4257C27.7911 39.457 26.2873 40.2889 24.6922 40.8724C23.037 41.4779 21.2905 41.8211 19.5296 41.8869C17.7548 41.9534 15.9759 41.7454 14.267 41.2612C12.6158 40.7933 11.0427 40.0705 9.60872 39.1277C8.19963 38.2016 6.93439 37.0617 5.85923 35.7629C4.77714 34.4561 3.88916 32.9783 3.24961 31.4068C2.61006 29.8354 2.18369 28.0756 2.05081 26.3366C1.91505 24.552 2.05544 22.7483 2.48007 21.0094C2.9047 19.2704 3.54772 17.7469 4.43627 16.2812C5.32483 14.8155 6.41154 13.519 7.67794 12.393C8.94317 11.2682 10.3783 10.338 11.9191 9.63726C13.4998 8.91856 15.2018 8.44713 16.9269 8.25128C18.7005 8.04965 20.5071 8.12129 22.257 8.47832C23.9498 8.82323 25.5848 9.42812 27.0932 10.2705C28.5682 11.0937 29.9143 12.1365 31.0825 13.3573C32.257 14.585 33.2421 15.9871 34.0006 17.5071C34.7719 19.0532 35.2976 20.7188 35.5634 22.4254C35.6974 23.2833 35.7592 24.1522 35.7604 25.0206C35.7604 25.2996 36.1943 25.2996 36.1937 25.0206C36.1914 23.21 35.9123 21.3993 35.3531 19.6771C34.8135 18.015 34.0208 16.4349 33.0075 15.0113C31.9942 13.5878 30.7786 12.3295 29.3955 11.2682C28.0113 10.2057 26.4676 9.35995 24.8297 8.75853C23.1392 8.13688 21.3512 7.79024 19.5532 7.72034C17.7351 7.64985 15.9025 7.86477 14.1514 8.36104C12.4662 8.83825 10.8526 9.57602 9.38918 10.5385C7.93734 11.4929 6.62819 12.664 5.52357 14.0055C4.41316 15.3539 3.51132 16.8601 2.84809 18.476C2.16809 20.1329 1.75732 21.8945 1.61867 23.6796C1.48001 25.4648 1.62502 27.3477 2.05601 29.1231C2.47025 30.8303 3.15082 32.4751 4.06133 33.9772C4.96201 35.4631 6.08801 36.815 7.38791 37.9682C8.68781 39.1213 10.1581 40.0803 11.7411 40.7956C13.3709 41.5316 15.103 42.0094 16.8789 42.2168C18.6988 42.4288 20.5527 42.3479 22.3483 41.9846C24.0763 41.6344 25.7506 41.0128 27.2908 40.1555C28.8311 39.2981 30.2026 38.2316 31.4026 36.9733C32.5996 35.719 33.6107 34.2839 34.3831 32.7316C35.1728 31.144 35.7188 29.4368 35.9869 27.6839C36.1215 26.8023 36.1908 25.912 36.192 25.02C36.192 24.7409 35.7592 24.7409 35.7587 25.02H35.7592Z" fill="black"/>
<path d="M17.5234 42.1162C26.9651 42.1162 34.6192 34.4622 34.6192 25.0205C34.6192 15.5788 26.9651 7.9248 17.5234 7.9248C8.08175 7.9248 0.427734 15.5788 0.427734 25.0205C0.427734 34.4622 8.08175 42.1162 17.5234 42.1162Z" fill="#A495FC"/>
<path d="M34.3777 25.9407C34.2795 27.7115 33.9069 29.4615 33.2685 31.1167C32.6584 32.6996 31.7993 34.1948 30.7409 35.5207C29.6825 36.8466 28.4334 38.0108 27.0353 38.9646C25.6372 39.9184 24.0866 40.6683 22.4608 41.1652C20.7744 41.6805 19.0135 41.9261 17.2502 41.8966C15.4749 41.8671 13.7093 41.5604 12.0298 40.9849C10.407 40.4291 8.87425 39.6186 7.49463 38.6006C6.14331 37.6035 4.937 36.396 3.94099 35.0441C2.93111 33.6731 2.12459 32.1525 1.56766 30.543C0.997437 28.8935 0.686038 27.1603 0.64733 25.4156C0.608622 23.6708 0.848382 21.8342 1.36603 20.1201C1.88368 18.4059 2.61105 16.9212 3.57702 15.5051C4.54299 14.0891 5.70134 12.8545 7.02608 11.799C8.34447 10.7481 9.82983 9.89362 11.4018 9.28353C13.027 8.65265 14.7475 8.27308 16.4876 8.17024C18.2711 8.06451 20.0678 8.23668 21.797 8.68731C23.469 9.12292 25.067 9.81736 26.5281 10.74C27.9562 11.6413 29.2434 12.7586 30.3428 14.04C31.4486 15.3278 32.3557 16.786 33.0304 18.343C33.7145 19.9219 34.1518 21.6158 34.32 23.3282C34.4055 24.1966 34.4222 25.0701 34.3766 25.9413C34.3621 26.2198 34.7954 26.2192 34.8099 25.9413C34.9052 24.133 34.7215 22.3108 34.2552 20.5603C33.8063 18.8728 33.0963 17.2516 32.1621 15.7761C31.2331 14.3092 30.084 12.9793 28.7627 11.8521C27.4357 10.7198 25.9428 9.78616 24.3379 9.10155C22.7329 8.41693 20.9165 7.94781 19.1175 7.78085C17.3184 7.61388 15.4656 7.73116 13.6897 8.13211C11.9137 8.53306 10.3313 9.1703 8.81821 10.0525C7.31784 10.9272 5.94746 12.0295 4.77292 13.3086C3.59608 14.59 2.60989 16.0476 1.86808 17.6214C1.10143 19.2465 0.595334 20.9809 0.360775 22.7621C0.126215 24.5432 0.172433 26.4226 0.506941 28.2211C0.828739 29.9491 1.42207 31.6256 2.25054 33.1751C3.07901 34.7246 4.12355 36.1169 5.35932 37.3377C6.59394 38.5579 8.01459 39.5943 9.55598 40.3933C11.1372 41.2131 12.8444 41.7868 14.6007 42.0838C16.3571 42.3807 18.2659 42.4108 20.0852 42.1433C21.8311 41.8868 23.5325 41.3541 25.1184 40.5805C26.6817 39.8179 28.1278 38.8144 29.3942 37.6225C30.6565 36.4347 31.7421 35.0539 32.5966 33.546C33.4701 32.0046 34.105 30.3252 34.4673 28.5908C34.6493 27.7184 34.7636 26.831 34.8128 25.9413C34.8284 25.6629 34.3951 25.6634 34.3795 25.9413L34.3777 25.9407Z" fill="black"/>
<path d="M32.8195 25.0205C32.8172 26.6278 32.5688 28.2275 32.0725 29.7562C31.5959 31.2237 30.8928 32.6143 30.0002 33.872C29.1133 35.1222 28.0341 36.2413 26.8163 37.172C25.5944 38.1062 24.2315 38.8584 22.7872 39.387C21.288 39.9353 19.7055 40.2455 18.111 40.3051C16.5043 40.3651 14.8919 40.1762 13.3447 39.7377C11.8495 39.3142 10.4237 38.6597 9.12493 37.8058C7.84871 36.9669 6.70191 35.9351 5.72843 34.7588C4.75495 33.5826 3.93977 32.2301 3.35799 30.8019C2.76235 29.3391 2.39376 27.7844 2.27359 26.2095C2.15053 24.5936 2.27821 22.9598 2.66298 21.3849C3.031 19.877 3.63011 18.4298 4.43489 17.1021C5.23043 15.7895 6.22355 14.6 7.37093 13.5803C8.51657 12.5617 9.8159 11.7182 11.2117 11.0833C12.6479 10.4299 14.1922 10.0029 15.7602 9.82442C17.3669 9.64185 19.003 9.70829 20.5877 10.0312C22.1205 10.3438 23.6018 10.8921 24.9675 11.6547C26.3033 12.4005 27.5234 13.3451 28.5807 14.4509C29.6379 15.5567 30.5369 16.8329 31.2238 18.2091C31.9223 19.6089 32.3995 21.1174 32.6404 22.6634C32.7617 23.4428 32.8189 24.2319 32.8201 25.0211C32.8201 25.2071 33.109 25.2071 33.109 25.0211C33.1066 23.3902 32.8553 21.7604 32.3515 20.2086C31.8651 18.7117 31.151 17.2893 30.2382 16.0067C29.3254 14.7242 28.2363 13.5976 26.9948 12.6443C25.7486 11.6876 24.3586 10.9244 22.8836 10.3831C21.3619 9.82442 19.7523 9.51129 18.1329 9.44831C16.4951 9.38476 14.8451 9.5783 13.2679 10.0249C11.7501 10.4547 10.2971 11.1191 8.97934 11.9863C7.67193 12.846 6.49335 13.9015 5.4985 15.1095C4.50133 16.3199 3.69077 17.6741 3.09512 19.1248C2.49948 20.5755 2.11124 22.2029 1.98645 23.8108C1.85877 25.4515 1.99165 27.1142 2.37989 28.7134C2.75311 30.2513 3.3655 31.7321 4.18589 33.0851C4.99702 34.4237 6.01094 35.6404 7.18201 36.6792C8.3525 37.7174 9.67724 38.5805 11.1031 39.2247C12.5659 39.8856 14.1235 40.3149 15.7174 40.5009C17.3565 40.6921 19.0261 40.6205 20.6432 40.2929C22.2002 39.9775 23.7075 39.4182 25.0952 38.6464C26.4639 37.8849 27.7175 36.9138 28.7985 35.7808C29.8765 34.6508 30.7865 33.359 31.4821 31.9603C32.1776 30.5616 32.6837 28.9925 32.9252 27.4135C33.0466 26.6214 33.1078 25.8224 33.109 25.0211C33.109 24.8351 32.8201 24.8351 32.8201 25.0211L32.8195 25.0205Z" fill="black"/>
<path d="M22.6803 19.9233C22.667 20.371 22.6278 21.6831 21.7398 22.7287C21.5104 22.9985 20.898 23.7196 19.9263 23.7843C19.04 23.8432 18.3999 23.3203 18.2243 23.1719C16.9827 22.125 17.0122 20.2376 17.0197 19.776C17.0272 19.2964 17.052 17.7111 18.1255 16.6753C18.3132 16.4944 18.8609 15.9808 19.6917 15.9126C20.6531 15.8341 21.3602 16.4037 21.6254 16.6545C22.7462 17.7117 22.6959 19.3987 22.6803 19.9233Z" fill="white"/>
<path d="M22.536 19.9248C22.5164 20.5788 22.4211 21.2189 22.142 21.8255C21.863 22.4322 21.3638 23.0555 20.756 23.3906C20.3817 23.5969 19.949 23.687 19.5237 23.6286C19.1615 23.579 18.8201 23.4276 18.5214 23.2202C18.4948 23.2017 18.4688 23.1832 18.4434 23.1641C18.4388 23.1607 18.4064 23.1364 18.4214 23.148C18.4347 23.1578 18.4012 23.1318 18.3954 23.1272C18.3509 23.0913 18.307 23.0544 18.2643 23.0162C18.1199 22.8863 17.9876 22.7412 17.8749 22.5835C17.6565 22.2779 17.4982 21.9347 17.3879 21.576C17.218 21.0219 17.1597 20.4783 17.1625 19.8982C17.1654 19.3713 17.2036 18.8802 17.3364 18.3753C17.5236 17.6653 17.894 17.0217 18.4728 16.5606C18.4948 16.5433 18.5087 16.5329 18.5404 16.5092C18.5763 16.4832 18.6127 16.4578 18.6496 16.4335C18.7265 16.3833 18.8056 16.3365 18.8871 16.2943C19.0743 16.1973 19.2747 16.1273 19.4821 16.0869C19.9068 16.0037 20.3563 16.0638 20.7509 16.2406C21.0386 16.3694 21.2824 16.5347 21.5019 16.7374C21.7983 17.0113 22.0248 17.3469 22.1883 17.7144C22.4592 18.3245 22.5424 18.9825 22.5407 19.6405C22.5407 19.7347 22.5384 19.8295 22.5355 19.9236C22.5297 20.1097 22.8186 20.1097 22.8243 19.9236C22.8422 19.3141 22.8035 18.7 22.6354 18.1107C22.4193 17.355 21.986 16.6831 21.3332 16.2365C20.9831 15.9968 20.5827 15.835 20.161 15.7807C19.6792 15.7189 19.1904 15.8165 18.7588 16.0361C18.0858 16.3781 17.5658 16.9934 17.2712 17.6809C17.0025 18.3089 16.8927 18.9889 16.8766 19.6689C16.865 20.1773 16.891 20.6845 16.991 21.1842C17.1481 21.9717 17.4988 22.7476 18.1216 23.2745C18.7207 23.7812 19.5029 24.0544 20.2852 23.8771C21.0143 23.7118 21.6019 23.1809 22.0305 22.5899C22.5216 21.9116 22.751 21.0808 22.8093 20.2541C22.8168 20.1443 22.8214 20.0346 22.8243 19.9242C22.8301 19.7382 22.5412 19.7382 22.5355 19.9242L22.536 19.9248Z" fill="black"/>
<path d="M20.729 19.9131C20.721 20.2967 20.6967 21.4198 20.145 22.3147C20.0028 22.5458 19.6227 23.1628 19.0195 23.2183C18.4695 23.2691 18.072 22.8208 17.9634 22.6937C17.1927 21.7971 17.2112 20.1811 17.2158 19.786C17.2205 19.3752 17.2361 18.0181 17.9022 17.1313C18.0189 16.9764 18.3586 16.5362 18.8745 16.4784C19.4713 16.4114 19.9098 16.899 20.0745 17.1134C20.7701 18.0187 20.7389 19.4636 20.729 19.9125V19.9131Z" fill="black"/>
<path d="M20.5841 19.914C20.5725 20.4363 20.5188 20.9562 20.3663 21.4583C20.2732 21.7651 20.1415 22.0528 19.9699 22.3232C19.8417 22.5254 19.7048 22.7068 19.5112 22.8599C19.294 23.032 19.0184 23.1239 18.7428 23.0569C18.499 22.9974 18.3026 22.8495 18.1362 22.6727C17.7653 22.2798 17.5816 21.7477 17.4759 21.2272C17.3869 20.7881 17.3563 20.3369 17.3586 19.8834C17.3603 19.472 17.3811 19.059 17.4528 18.658C17.5065 18.357 17.5845 18.0577 17.7023 17.7752C17.7624 17.632 17.8346 17.4927 17.9184 17.3616C17.9554 17.3032 17.9952 17.2472 18.0363 17.1917C18.0594 17.1605 18.0241 17.2067 18.0513 17.1727C18.0692 17.1495 18.0877 17.127 18.1067 17.1051C18.272 16.9104 18.4759 16.7347 18.7243 16.6585C19.0167 16.5689 19.3073 16.644 19.5551 16.8116C19.6522 16.8769 19.74 16.956 19.8226 17.0432C19.8573 17.0796 19.8908 17.1178 19.9231 17.1565C19.9301 17.1651 19.9734 17.22 19.9491 17.1883C19.974 17.2206 19.9982 17.2541 20.0214 17.2876C20.197 17.5441 20.3166 17.8313 20.4009 18.1294C20.5448 18.6361 20.5887 19.1629 20.587 19.6881C20.587 19.7632 20.5852 19.8389 20.5835 19.914C20.5794 20.1 20.8683 20.1 20.8724 19.914C20.8833 19.4154 20.8608 18.9163 20.7666 18.4252C20.6522 17.8284 20.4217 17.2281 19.9826 16.7942C19.7654 16.5793 19.4916 16.3991 19.186 16.3477C18.837 16.2893 18.4938 16.3927 18.2142 16.6053C17.7387 16.967 17.4499 17.528 17.2864 18.0918C17.1362 18.6124 17.0801 19.1583 17.0709 19.6985C17.0639 20.1162 17.0795 20.5328 17.1367 20.947C17.2188 21.5467 17.3852 22.1724 17.7538 22.6634C18.0987 23.1239 18.6504 23.5029 19.2495 23.3203C19.8001 23.1528 20.1785 22.6086 20.4183 22.114C20.7094 21.5132 20.8308 20.8442 20.8631 20.1815C20.8677 20.0925 20.87 20.003 20.8718 19.914C20.8758 19.728 20.587 19.728 20.5829 19.914H20.5841Z" fill="black"/>
<path d="M20.8892 17.7488L19.1733 19.2087L21.2439 19.8488L20.8892 17.7488Z" fill="white"/>
<path d="M16.798 20.1014C16.7847 20.5491 16.7454 21.8612 15.8575 22.9068C15.6281 23.1767 15.0157 23.8977 14.0439 23.9624C13.1577 24.0213 12.5176 23.4984 12.3419 23.35C11.1004 22.3031 11.1299 20.4157 11.1374 19.9541C11.1449 19.4745 11.1697 17.8892 12.2432 16.8534C12.4309 16.6725 12.9786 16.1589 13.8094 16.0907C14.7707 16.0122 15.4779 16.5818 15.7431 16.8326C16.8639 17.8898 16.8136 19.5768 16.798 20.1014Z" fill="white"/>
<path d="M16.6527 20.1006C16.6331 20.7546 16.5378 21.3947 16.2587 22.0013C15.9699 22.6293 15.4805 23.2313 14.8727 23.5664C14.4984 23.7726 14.0657 23.8628 13.6404 23.8044C13.2782 23.7547 12.9368 23.6034 12.6381 23.396C12.6115 23.3775 12.5855 23.359 12.5601 23.3399C12.5555 23.3365 12.5231 23.3122 12.5381 23.3237C12.5514 23.3336 12.5179 23.3076 12.5121 23.3029C12.4676 23.2671 12.4237 23.2302 12.381 23.192C12.2366 23.062 12.1042 22.917 11.9916 22.7593C11.7732 22.4537 11.6149 22.1105 11.5046 21.7517C11.3347 21.1977 11.2764 20.654 11.2792 20.074C11.2821 19.5471 11.3203 19.056 11.4531 18.5511C11.6403 17.8411 12.0107 17.1975 12.5895 16.7364C12.6115 16.7191 12.6254 16.7087 12.6571 16.685C12.693 16.659 12.7294 16.6336 12.7663 16.6093C12.8432 16.5591 12.9223 16.5123 13.0038 16.4701C13.191 16.373 13.3914 16.3031 13.5988 16.2627C14.0235 16.1795 14.473 16.2396 14.8675 16.4164C15.1553 16.5452 15.3991 16.7104 15.6186 16.9132C15.915 17.1871 16.1415 17.5227 16.3049 17.8902C16.5759 18.5003 16.6591 19.1583 16.6574 19.8163C16.6574 19.9105 16.6551 20.0052 16.6522 20.0994C16.6464 20.2854 16.9353 20.2854 16.941 20.0994C16.9589 19.4899 16.9202 18.8758 16.7521 18.2865C16.536 17.5308 16.1027 16.8589 15.4499 16.4123C15.0998 16.1726 14.6994 16.0108 14.2777 15.9565C13.7959 15.8947 13.3071 15.9923 12.8755 16.2118C12.2025 16.5539 11.6825 17.1692 11.3879 17.8567C11.1192 18.4847 11.0094 19.1646 10.9933 19.8446C10.9817 20.353 11.0077 20.8603 11.1077 21.36C11.2648 22.1475 11.6155 22.9234 12.2383 23.4503C12.8611 23.9772 13.6196 24.2302 14.4019 24.0528C15.131 23.8876 15.7186 23.3567 16.1472 22.7657C16.6383 22.0874 16.8677 21.2566 16.926 20.4299C16.9335 20.3201 16.9381 20.2103 16.941 20.1C16.9468 19.914 16.6579 19.914 16.6522 20.1L16.6527 20.1006Z" fill="black"/>
<path d="M14.8467 20.091C14.8386 20.4747 14.8144 21.5978 14.2626 22.4927C14.1205 22.7238 13.7404 23.3408 13.1372 23.3963C12.5872 23.4471 12.1897 22.9988 12.0811 22.8717C11.3104 21.975 11.3289 20.3591 11.3335 19.9639C11.3381 19.5532 11.3537 18.1961 12.0199 17.3093C12.1366 17.1544 12.4763 16.7142 12.9922 16.6564C13.589 16.5894 14.0275 17.077 14.1921 17.2913C14.8877 18.1967 14.8565 19.6416 14.8467 20.0905V20.091Z" fill="black"/>
<path d="M14.7022 20.0898C14.6907 20.6121 14.6369 21.132 14.4844 21.6341C14.3914 21.9408 14.2597 22.2286 14.0881 22.4989C13.9598 22.7011 13.8229 22.8825 13.6294 23.0356C13.4122 23.2078 13.1366 23.2997 12.861 23.2327C12.6172 23.1731 12.4208 23.0252 12.2544 22.8485C11.8835 22.4556 11.6998 21.9235 11.594 21.403C11.5051 20.9639 11.4744 20.5127 11.4767 20.0592C11.4785 19.6478 11.4993 19.2347 11.5709 18.8338C11.6246 18.5328 11.7026 18.2335 11.8205 17.951C11.8806 17.8077 11.9528 17.6685 12.0366 17.5374C12.0735 17.479 12.1134 17.423 12.1544 17.3675C12.1775 17.3363 12.1423 17.3825 12.1695 17.3484C12.1874 17.3253 12.2058 17.3028 12.2249 17.2808C12.3901 17.0861 12.5941 16.9105 12.8425 16.8343C13.1348 16.7447 13.4254 16.8198 13.6733 16.9874C13.7703 17.0526 13.8582 17.1318 13.9408 17.219C13.9754 17.2554 14.009 17.2936 14.0413 17.3323C14.0482 17.3409 14.0916 17.3958 14.0673 17.364C14.0921 17.3964 14.1164 17.4299 14.1395 17.4634C14.3152 17.7199 14.4347 18.0071 14.5191 18.3052C14.6629 18.8118 14.7069 19.3387 14.7051 19.8639C14.7051 19.939 14.7034 20.0147 14.7017 20.0898C14.6976 20.2758 14.9865 20.2758 14.9905 20.0898C15.0015 19.5912 14.979 19.092 14.8848 18.601C14.7704 18.0042 14.5399 17.4039 14.1008 16.97C13.8836 16.7551 13.6097 16.5749 13.3041 16.5234C12.9552 16.4651 12.612 16.5685 12.3324 16.7811C11.8569 17.1428 11.568 17.7037 11.4045 18.2676C11.2543 18.7881 11.1983 19.3341 11.189 19.8743C11.1821 20.292 11.1977 20.7085 11.2549 21.1228C11.3369 21.7225 11.5033 22.3481 11.8719 22.8392C12.2168 23.2997 12.7686 23.6787 13.3677 23.4961C13.9182 23.3286 14.2967 22.7843 14.5364 22.2898C14.8276 21.6889 14.9489 21.0199 14.9813 20.3573C14.9859 20.2683 14.9882 20.1788 14.9899 20.0898C14.994 19.9038 14.7051 19.9038 14.7011 20.0898H14.7022Z" fill="black"/>
<path d="M15.0079 17.9246L13.2915 19.3845L15.3621 20.0246L15.0079 17.9246Z" fill="white"/>
<path d="M16.8865 24.4654C17.7058 24.4654 18.3701 23.9722 18.3701 23.3637C18.3701 22.7552 17.7058 22.262 16.8865 22.262C16.0671 22.262 15.4028 22.7552 15.4028 23.3637C15.4028 23.9722 16.0671 24.4654 16.8865 24.4654Z" fill="#CCFC56"/>
<path d="M18.2609 23.3631C18.2557 23.8542 17.7953 24.1778 17.3631 24.2945C16.8542 24.4314 16.2314 24.3534 15.8258 23.9952C15.6658 23.8536 15.5392 23.6653 15.5144 23.4486C15.4896 23.232 15.5641 23.0246 15.6993 22.8611C16.039 22.4497 16.641 22.3146 17.15 22.3879C17.6509 22.4601 18.2546 22.79 18.2604 23.3631C18.2615 23.5024 18.4782 23.503 18.477 23.3631C18.4707 22.7733 17.9484 22.3648 17.4203 22.2227C16.8282 22.0632 16.1222 22.169 15.6588 22.5901C15.4612 22.7698 15.3255 23.0102 15.2977 23.2776C15.27 23.5451 15.3653 23.7895 15.5242 23.9906C15.9125 24.4816 16.6144 24.6365 17.2077 24.5469C17.8011 24.4574 18.4707 24.035 18.4776 23.3626C18.4787 23.2233 18.2621 23.2228 18.2609 23.3626V23.3631Z" fill="black"/>
<path d="M14.3274 26.2614C14.4724 26.3631 14.6353 26.4434 14.7959 26.5167C15.1992 26.7022 15.6256 26.8351 16.0635 26.9096C16.6528 27.0096 17.249 27.0078 17.8371 26.9009C18.3167 26.8137 18.7817 26.6583 19.2254 26.4572C19.4415 26.359 19.6593 26.2521 19.8569 26.1198C20.0106 26.017 19.8661 25.7669 19.7113 25.8703C19.5565 25.9737 19.3918 26.0586 19.226 26.1389C18.8337 26.3296 18.4166 26.478 17.985 26.5763C17.4345 26.7016 16.8671 26.7294 16.3067 26.6566C16.0629 26.6248 15.8214 26.5728 15.5851 26.5046C15.4811 26.4746 15.3789 26.4411 15.2772 26.4047C15.2321 26.3885 15.1877 26.3717 15.1432 26.3538C15.0987 26.3359 15.0623 26.3209 15.0334 26.3088C14.8416 26.2256 14.6457 26.1326 14.473 26.0124C14.4089 25.9679 14.3124 26.0008 14.2754 26.0644C14.2332 26.1366 14.2633 26.2169 14.3274 26.262V26.2614Z" fill="black"/>
<path d="M18.855 14.9865C18.855 14.9865 19.5072 14.5133 20.3577 14.4504C21.6038 14.3579 22.4473 15.0454 22.6091 15.3817" fill="#A495FC"/>
<path d="M18.9284 15.113C19.3022 14.8432 19.78 14.6664 20.2347 14.6087C20.8719 14.5272 21.5444 14.6699 22.0753 15.0368C22.1701 15.1026 22.255 15.1708 22.3446 15.2644C22.363 15.284 22.3809 15.3037 22.3983 15.3245C22.4029 15.3302 22.4075 15.3354 22.4121 15.3412C22.4381 15.3724 22.4075 15.3337 22.4208 15.3528C22.4445 15.3863 22.4665 15.4198 22.4849 15.4568C22.519 15.5267 22.619 15.5457 22.6825 15.5088C22.7542 15.4672 22.7686 15.3817 22.7345 15.3112C22.6444 15.128 22.4786 14.9819 22.3197 14.8594C22.0834 14.678 21.8125 14.5428 21.5299 14.4486C20.7945 14.2042 20.0013 14.2741 19.297 14.5821C19.1191 14.6595 18.94 14.7496 18.7822 14.864C18.7193 14.9097 18.6881 14.99 18.7303 15.0616C18.7666 15.124 18.8643 15.1592 18.9278 15.1136L18.9284 15.113Z" fill="black"/>
<path d="M15.1692 14.9865C15.1692 14.9865 14.5169 14.5133 13.6665 14.4504C12.4203 14.3579 11.5768 15.0454 11.415 15.3817" fill="#A495FC"/>
<path d="M15.2417 14.8621C15.1129 14.7691 14.9684 14.6934 14.8252 14.6252C14.4895 14.4663 14.1348 14.3571 13.765 14.3155C13.0793 14.2381 12.3432 14.4016 11.777 14.8037C11.5916 14.9355 11.3917 15.1001 11.2894 15.3092C11.2554 15.3792 11.2704 15.4652 11.3414 15.5068C11.405 15.5438 11.5044 15.5253 11.539 15.4548C11.554 15.4242 11.5719 15.3947 11.5916 15.3664C11.5974 15.3584 11.6031 15.3508 11.6089 15.3428C11.5858 15.3739 11.6072 15.3451 11.6118 15.3393C11.6263 15.322 11.6401 15.3052 11.6551 15.2884C11.7193 15.2174 11.8163 15.1319 11.8735 15.0885C12.089 14.9262 12.3328 14.802 12.5893 14.7188C13.2543 14.5027 13.9788 14.5582 14.6143 14.8442C14.7801 14.9187 14.9476 15.0042 15.0955 15.1111C15.1591 15.1567 15.2567 15.1221 15.2931 15.0591C15.3359 14.9863 15.3047 14.9071 15.2411 14.8615L15.2417 14.8621Z" fill="black"/>
<path d="M33.1569 18.3434H34.6994C34.8387 18.3434 34.8392 18.1267 34.6994 18.1267H33.1569C33.0177 18.1267 33.0171 18.3434 33.1569 18.3434Z" fill="black"/>
<path d="M29.6359 13.0545H31.0277C31.1669 13.0545 31.1675 12.8379 31.0277 12.8379H29.6359C29.4967 12.8379 29.4961 13.0545 29.6359 13.0545Z" fill="black"/>
<path d="M31.7653 15.6803H33.157C33.2963 15.6803 33.2969 15.4636 33.157 15.4636H31.7653C31.6261 15.4636 31.6255 15.6803 31.7653 15.6803Z" fill="black"/>
<path d="M34.1754 21.2657H35.5672C35.7064 21.2657 35.707 21.0491 35.5672 21.0491H34.1754C34.0362 21.0491 34.0356 21.2657 34.1754 21.2657Z" fill="black"/>
<path d="M34.6193 24.555H36.011C36.1503 24.555 36.1509 24.3384 36.011 24.3384H34.6193C34.4801 24.3384 34.4795 24.555 34.6193 24.555Z" fill="black"/>
<path d="M34.2809 27.9784H35.6727C35.8119 27.9784 35.8125 27.7617 35.6727 27.7617H34.2809C34.1417 27.7617 34.1411 27.9784 34.2809 27.9784Z" fill="black"/>
<path d="M33.5846 30.7667H34.9764C35.1156 30.7667 35.1162 30.55 34.9764 30.55H33.5846C33.4454 30.55 33.4448 30.7667 33.5846 30.7667Z" fill="black"/>
<path d="M32.2672 33.8099H33.659C33.7982 33.8099 33.7988 33.5933 33.659 33.5933H32.2672C32.128 33.5933 32.1274 33.8099 32.2672 33.8099Z" fill="black"/>
<path d="M30.7282 36.016H32.1199C32.2592 36.016 32.2597 35.7993 32.1199 35.7993H30.7282C30.5889 35.7993 30.5884 36.016 30.7282 36.016Z" fill="black"/>
<path d="M34.9764 42.1152C34.9764 42.1152 34.907 35.0986 34.2808 31.3411L34.9764 42.1152Z" fill="#674AD6"/>
<path d="M35.8436 42.1169C35.817 39.4535 35.7119 36.7821 35.4802 34.128C35.3924 33.1193 35.2815 32.1111 35.1168 31.1122C35.0405 30.65 34.468 30.3924 34.0509 30.5068C33.5604 30.6414 33.3692 31.1093 33.4454 31.5727C33.4772 31.7645 33.5067 31.9569 33.5338 32.1498C33.5402 32.1943 33.5459 32.2388 33.5523 32.2839C33.5482 32.255 33.5275 32.0932 33.5482 32.2579C33.5627 32.374 33.5777 32.4907 33.5916 32.6074C33.643 33.0372 33.6869 33.4676 33.7262 33.8992C33.81 34.8201 33.8729 35.7428 33.9244 36.666C34.0087 38.1825 34.063 39.7008 34.0948 41.2191C34.1011 41.5184 34.1069 41.8182 34.1098 42.1175C34.1144 42.5704 34.505 43.0054 34.9764 42.9841C35.4478 42.9627 35.8476 42.6033 35.843 42.1175L35.8436 42.1169Z" fill="black"/>
</g>
</g>
<g clip-path="url(#clip2_2430_47099)">
<circle cx="18" cy="18" r="18" fill="#C9A6FD"/>
<circle cx="18" cy="18" r="18" fill="#C9A6FD"/>
<mask id="mask1_2430_47099" style="mask-type:alpha" maskUnits="userSpaceOnUse" x="0" y="0" width="36" height="36">
<circle cx="18" cy="18" r="18" fill="#C9A6FD"/>
</mask>
<g mask="url(#mask1_2430_47099)">
<g clip-path="url(#clip3_2430_47099)">
<path d="M33.8792 15.3661C36.3341 19.9874 33.0951 23.9458 31.5036 13.3837C31.2191 11.4942 30.2388 11.6035 30.2388 11.6035" fill="#CCFC56"/>
<path d="M33.7838 15.4219C34.0471 15.918 34.2575 16.4269 34.4121 16.9682C34.4791 17.2033 34.5349 17.4414 34.5766 17.6823C34.5978 17.8046 34.6113 17.8963 34.6231 18.0032C34.6348 18.1102 34.6442 18.2142 34.6501 18.32C34.6607 18.511 34.6607 18.7026 34.6454 18.893C34.6419 18.9371 34.6378 18.9806 34.6325 19.0241C34.6313 19.0347 34.6301 19.0447 34.629 19.0553C34.6254 19.0835 34.6301 19.0494 34.6278 19.0641C34.6248 19.0841 34.6219 19.104 34.619 19.124C34.6066 19.201 34.5913 19.278 34.5714 19.3538C34.5543 19.4208 34.5337 19.4872 34.5091 19.5525C34.5032 19.5672 34.4973 19.5819 34.4914 19.5971C34.5038 19.5672 34.4867 19.6077 34.4803 19.6212C34.4679 19.6483 34.455 19.6741 34.4403 19.7C34.4256 19.7259 34.4115 19.7494 34.3956 19.7735C34.388 19.7846 34.3803 19.7952 34.3727 19.8058C34.3533 19.8334 34.3868 19.7911 34.3621 19.8193C34.3463 19.8381 34.3304 19.8563 34.3128 19.8734C34.3045 19.8816 34.2957 19.8898 34.2869 19.8975C34.2757 19.9075 34.2475 19.9269 34.2775 19.9057C34.2587 19.9186 34.2405 19.9321 34.2205 19.9433C34.2111 19.9486 34.2011 19.9527 34.1917 19.958C34.167 19.9721 34.2175 19.9504 34.1852 19.9609C34.1641 19.9674 34.1441 19.9739 34.1229 19.9792C34.1065 19.9833 34.08 19.9827 34.117 19.9809C34.1059 19.9809 34.0947 19.9833 34.083 19.9833C34.0606 19.9839 34.0395 19.9815 34.0177 19.9809C34.0048 19.9809 34.0494 19.9874 34.0259 19.9821C34.0207 19.9809 34.0148 19.9803 34.0089 19.9792C33.9966 19.9768 33.9848 19.9739 33.9725 19.9709C33.9478 19.9645 33.9243 19.9557 33.9008 19.9463C33.9337 19.9586 33.9025 19.9468 33.8896 19.9404C33.8767 19.9339 33.8637 19.9274 33.8514 19.9204C33.8255 19.9057 33.8003 19.8898 33.7756 19.8734C33.7638 19.8651 33.7521 19.8563 33.7409 19.8481C33.7297 19.8399 33.7603 19.864 33.7397 19.8469C33.7321 19.8405 33.7238 19.834 33.7162 19.8275C33.6604 19.7811 33.6087 19.7294 33.5599 19.6753C33.5317 19.6442 33.5046 19.6124 33.4788 19.5801C33.4723 19.5719 33.4653 19.5636 33.4588 19.5548C33.4464 19.5395 33.4705 19.5701 33.4535 19.5484C33.4394 19.5296 33.4247 19.5102 33.4112 19.4908C33.3512 19.4079 33.296 19.3227 33.2437 19.2351C32.9527 18.7496 32.7506 18.2248 32.5719 17.6894C32.2963 16.8624 32.0929 16.0114 31.9219 15.1574C31.8114 14.6056 31.715 14.0513 31.6298 13.4953C31.5604 13.0434 31.4705 12.5885 31.243 12.1859C31.0467 11.8385 30.7153 11.5153 30.2956 11.4935C30.2762 11.4924 30.2568 11.4918 30.2374 11.4935C30.1781 11.5 30.127 11.5394 30.127 11.604C30.127 11.6587 30.1775 11.7204 30.2374 11.7145C30.258 11.7122 30.2786 11.7134 30.2992 11.7145C30.3097 11.7151 30.3197 11.7163 30.3303 11.7169C30.3491 11.7181 30.3379 11.7181 30.3233 11.7157C30.3315 11.7169 30.3397 11.7181 30.3474 11.7198C30.3773 11.7257 30.4073 11.7322 30.4367 11.741C30.4537 11.7463 30.4708 11.7516 30.4872 11.758C30.496 11.7615 30.5049 11.7651 30.5137 11.768C30.5313 11.7751 30.5102 11.7663 30.5078 11.7657C30.5149 11.7686 30.5219 11.7715 30.5284 11.7751C30.5683 11.7939 30.6077 11.815 30.6453 11.8391C30.7017 11.8756 30.7147 11.8856 30.7623 11.9279C30.8075 11.9678 30.8493 12.0113 30.8881 12.0578C31.1202 12.3316 31.2489 12.7101 31.3294 13.0634C31.3935 13.3467 31.4282 13.6358 31.4746 13.9226C31.521 14.2094 31.5698 14.4892 31.6227 14.7719C31.7926 15.6829 31.9953 16.5909 32.271 17.476C32.4544 18.0643 32.6677 18.6527 32.9651 19.194C33.1391 19.5113 33.3501 19.8369 33.648 20.052C33.8373 20.1884 34.0759 20.253 34.2957 20.152C34.5155 20.0509 34.6436 19.8187 34.7242 19.6024C34.8417 19.2874 34.8752 18.9389 34.877 18.6051C34.8793 18.1543 34.8164 17.7023 34.7148 17.2639C34.5902 16.7261 34.4021 16.2036 34.1682 15.7034C34.1065 15.5712 34.0412 15.4407 33.973 15.312C33.9049 15.1833 33.7162 15.2979 33.7826 15.4231L33.7838 15.4219Z" fill="black"/>
<path d="M30.6748 12.1991L31.8808 14.0786L32.4697 14.8509L33.959 14.7434L33.1239 12.145L30.6748 12.1991Z" fill="#CCFC56"/>
<path d="M29.605 10.7563L27.8506 13.3L31.3811 16.8934L32.915 14.814L32.774 11.1807L29.605 10.7563Z" fill="#CCFC56"/>
<path d="M30.2387 11.6045C30.2387 11.6045 32.1717 15.4841 31.4518 15.5406C30.3974 15.6234 29.9519 12.961 29.1802 12.2845C28.4091 11.6081 28.6254 12.7001 28.3844 12.5655C28.3844 12.5655 29.4588 12.1752 28.8587 12.9563C28.2586 13.7374 26.9263 12.7306 26.6342 12.2904C26.3426 11.8502 19.1359 9.63858 19.1359 9.63858L17.2852 9.41172C17.2852 9.41172 17.3116 8.91156 17.8811 7.41991C18.3437 6.20801 18.7797 5.56562 19.9911 4.71518C20.8862 4.08631 22.5159 2.93201 23.1095 3.73661C23.394 4.12216 23.1313 4.49243 22.4813 4.88092C21.7207 5.33524 20.892 5.97175 20.892 5.97175C20.892 5.97175 23.4675 5.13129 24.9327 4.58823C25.8648 4.24265 27.3 4.35726 26.9533 5.28058C26.7687 5.77251 25.3553 6.02229 24.9327 6.05814C24.9327 6.05814 29.1008 6.13455 30.0759 6.53596C30.8699 6.86274 30.5978 7.38347 30.4526 7.45106C29.6721 7.81427 28.1781 7.73375 28.1781 7.73375C28.1781 7.73375 31.8538 7.8754 33.959 9.65739C35.101 10.6242 36.8736 12.5978 36.478 13.497C36.0272 14.522 34.4574 11.9031 34.4574 11.9031C34.4574 11.9031 34.5444 13.9748 35.0575 15.0081C35.8427 16.5896 35.5177 17.1597 34.9487 17.1539C33.8973 17.1421 32.7982 13.5523 32.7982 13.5523" fill="#CCFC56"/>
<path d="M30.1438 11.6599C30.3489 12.0719 30.5417 12.491 30.7274 12.913C30.8855 13.2721 31.0365 13.6341 31.1723 14.002C31.2904 14.3206 31.4039 14.6462 31.4697 14.98C31.4926 15.0946 31.5073 15.1851 31.5008 15.3091C31.5008 15.3203 31.4991 15.3315 31.4979 15.3426C31.5008 15.3179 31.4979 15.342 31.4956 15.352C31.4914 15.3702 31.4867 15.3885 31.4797 15.4061C31.4979 15.3597 31.4532 15.4566 31.4779 15.4102C31.4756 15.4149 31.4691 15.422 31.4644 15.4249C31.4456 15.4367 31.4862 15.4114 31.4626 15.4261C31.4391 15.4408 31.4779 15.4161 31.4638 15.4267C31.4591 15.4302 31.4468 15.4325 31.4409 15.4325C31.4715 15.4308 31.445 15.4325 31.4303 15.4325C31.4097 15.4325 31.3886 15.4331 31.368 15.4325C31.3116 15.429 31.2422 15.4102 31.1882 15.3849C31.043 15.3162 30.926 15.1969 30.8273 15.0723C30.5599 14.7349 30.3836 14.3235 30.2102 13.9333C30.0274 13.5213 29.8593 13.0987 29.6348 12.7073C29.5455 12.5509 29.445 12.3969 29.3192 12.267C29.1934 12.1372 28.9977 11.9697 28.8002 11.955C28.6598 11.9444 28.5522 12.0314 28.4946 12.1536C28.4676 12.2112 28.4488 12.2723 28.4311 12.334C28.4235 12.3605 28.417 12.3875 28.4088 12.414C28.4047 12.4281 28.3841 12.4857 28.3935 12.4628C28.3935 12.4645 28.3812 12.4886 28.38 12.488C28.3788 12.4874 28.3824 12.4827 28.3953 12.4751C28.3865 12.481 28.41 12.471 28.4117 12.4704C28.4147 12.4704 28.4494 12.4727 28.4358 12.4704C28.4223 12.468 28.4617 12.4833 28.4394 12.4722L28.4129 12.6738C28.5369 12.6291 28.6839 12.5891 28.7996 12.5821C28.8226 12.5803 28.8449 12.5803 28.8672 12.5809C28.8778 12.5809 28.8884 12.5821 28.899 12.5832C28.8949 12.5827 28.8778 12.5809 28.899 12.5838C28.9307 12.5885 28.9113 12.5962 28.9307 12.5944C28.9307 12.5897 28.9319 12.5944 28.9307 12.5944C28.9272 12.5756 28.926 12.6179 28.9289 12.5856C28.9278 12.5956 28.9307 12.6056 28.9289 12.6156C28.9307 12.6073 28.9154 12.6596 28.9095 12.6732C28.8778 12.7472 28.8279 12.8172 28.7797 12.88C28.3418 13.4507 27.5008 12.9482 27.0858 12.6038C26.9753 12.5121 26.8672 12.4122 26.7761 12.3005C26.7432 12.26 26.7167 12.2124 26.6762 12.1771C26.5939 12.1048 26.4905 12.0555 26.3929 12.0079C26.035 11.8339 25.66 11.694 25.2874 11.5553C24.193 11.1474 23.0828 10.7824 21.972 10.4222C21.1145 10.1436 20.2553 9.87146 19.3936 9.60463C19.3225 9.58289 19.252 9.55703 19.1797 9.53881C19.1004 9.51824 19.014 9.5153 18.9323 9.50531C18.4239 9.44301 17.9155 9.38071 17.4071 9.31841L17.2837 9.30313L17.3942 9.41362C17.3942 9.41362 17.3942 9.39834 17.3954 9.39658C17.3977 9.39481 17.3977 9.37777 17.3977 9.37483C17.4001 9.34956 17.393 9.40187 17.3995 9.36484C17.413 9.28373 17.4283 9.20322 17.4465 9.12328C17.5305 8.75419 17.6475 8.39215 17.7721 8.0354C18.0789 7.15381 18.4227 6.27809 19.088 5.60162C19.4283 5.25544 19.8186 4.96981 20.2153 4.6924C20.5832 4.43498 20.957 4.18284 21.3514 3.96773C21.6934 3.78142 22.0843 3.5863 22.4816 3.57395C22.6308 3.56925 22.7837 3.5957 22.9059 3.68738C23.0282 3.77907 23.1304 3.93482 23.1098 4.09115C23.0828 4.2998 22.8853 4.4673 22.729 4.58543C22.4921 4.76469 22.2259 4.90575 21.9779 5.06855C21.6082 5.31128 21.2467 5.56753 20.8941 5.83436C20.8747 5.84905 20.8547 5.86433 20.8353 5.87902C20.7448 5.94838 20.7901 6.12293 20.92 6.08061C21.9955 5.72974 23.0687 5.37005 24.136 4.9939C24.4675 4.87753 24.7955 4.73942 25.1322 4.64009C25.4514 4.54606 25.7887 4.50433 26.1208 4.52784C26.3565 4.54429 26.6674 4.59543 26.8214 4.79702C26.9548 4.97098 26.8972 5.24251 26.7467 5.38298C26.5081 5.60514 26.1419 5.70329 25.8351 5.78381C25.5283 5.86433 25.2351 5.92428 24.9306 5.95073C24.7913 5.96307 24.7866 6.16819 24.9306 6.17112C25.9245 6.18934 26.9201 6.2346 27.911 6.31277C28.5216 6.36096 29.1458 6.40857 29.7429 6.55256C30.0045 6.61545 30.3424 6.71889 30.47 6.97749C30.5164 7.07211 30.5135 7.18202 30.4764 7.26019C30.4553 7.30485 30.4447 7.3219 30.4159 7.34599C30.3942 7.36421 30.4353 7.33483 30.413 7.34893C30.4071 7.35246 30.4012 7.35598 30.3947 7.35892C30.3501 7.37949 30.3042 7.39771 30.2578 7.41417C29.8311 7.5658 29.3668 7.60753 28.9172 7.62634C28.6709 7.63633 28.4223 7.63986 28.1761 7.62634V7.84674C28.7826 7.87025 29.3921 7.96428 29.9863 8.08183C31.1723 8.31692 32.366 8.69483 33.3816 9.3666C33.8911 9.70396 34.3402 10.1324 34.7633 10.5709C35.2118 11.0346 35.6385 11.53 35.9829 12.0766C36.1239 12.3005 36.255 12.5362 36.3402 12.7878C36.4013 12.9682 36.4501 13.1721 36.4049 13.362C36.389 13.429 36.3496 13.5148 36.3173 13.5536C36.3073 13.5653 36.2961 13.5771 36.2844 13.5877C36.2726 13.5982 36.2879 13.5871 36.2679 13.6C36.235 13.6223 36.2438 13.6171 36.2015 13.6265C36.1862 13.6294 36.2121 13.6276 36.1856 13.6276C36.1715 13.6276 36.1574 13.6276 36.1433 13.6265C36.1509 13.627 36.1357 13.6265 36.1186 13.6212C36.1016 13.6159 36.0851 13.6118 36.0681 13.6065C36.0158 13.5888 35.9447 13.5471 35.8859 13.5066C35.5662 13.2862 35.3123 12.9529 35.083 12.6438C34.9032 12.401 34.7328 12.1501 34.5741 11.8927C34.5653 11.8786 34.557 11.865 34.5488 11.8509C34.4947 11.7604 34.3384 11.7945 34.3437 11.9068C34.3713 12.5544 34.4495 13.2074 34.577 13.8427C34.671 14.3117 34.8098 14.7531 35.0155 15.1845C35.2212 15.6159 35.4351 16.1002 35.4075 16.5792C35.4004 16.6968 35.3699 16.8172 35.3046 16.9001C35.2464 16.9747 35.173 17.0141 35.0736 17.0359C34.9808 17.0559 34.8903 17.0523 34.7915 17.0141C34.6999 16.9789 34.5911 16.8966 34.5088 16.8184C34.2714 16.5915 34.0927 16.3053 33.9329 16.0209C33.7466 15.69 33.5855 15.3444 33.4386 14.9941C33.2393 14.521 33.0713 14.0379 32.9085 13.5518C32.9055 13.5436 32.9032 13.5348 32.9008 13.5265C32.8591 13.3914 32.6463 13.449 32.6881 13.5853C32.8226 14.0249 32.9831 14.4575 33.1559 14.883C33.3058 15.2515 33.4668 15.6165 33.6531 15.9686C33.8218 16.2871 34.0104 16.6033 34.2526 16.8719C34.4289 17.067 34.6587 17.2569 34.9338 17.268C35.1877 17.278 35.4351 17.1581 35.5468 16.9236C35.7102 16.5798 35.6108 16.1508 35.5015 15.8069C35.4063 15.5072 35.2758 15.221 35.1389 14.9389C35.0396 14.7343 34.969 14.5163 34.9091 14.2976C34.7004 13.5389 34.607 12.7413 34.5658 11.9561C34.5653 11.9403 34.5641 11.9244 34.5635 11.9085L34.3584 11.9644C34.483 12.1718 34.6182 12.3728 34.7574 12.5703C35.0031 12.9188 35.267 13.2709 35.5891 13.553C35.8089 13.7458 36.1739 13.9956 36.4442 13.7422C36.7704 13.436 36.6311 12.9 36.4807 12.5462C36.2362 11.9708 35.8406 11.4589 35.4369 10.987C35.0331 10.515 34.5535 10.0272 34.0586 9.60581C33.0642 8.75831 31.7988 8.27872 30.5417 7.98015C30.0368 7.86026 29.5249 7.77033 29.0101 7.70568C28.7467 7.67277 28.4793 7.63868 28.2131 7.63104C28.2007 7.63104 28.1878 7.62987 28.1755 7.62928C28.0332 7.62399 28.0344 7.84204 28.1755 7.84968C28.8114 7.88376 29.4849 7.85614 30.1026 7.69452C30.2525 7.65514 30.4541 7.614 30.5711 7.50468C30.6504 7.43063 30.7004 7.3219 30.7174 7.21611C30.7815 6.81645 30.4118 6.55667 30.0844 6.42855C29.8623 6.34157 29.6201 6.29984 29.3856 6.26163C29.0506 6.20698 28.7132 6.16877 28.3759 6.13645C27.6512 6.0671 26.9236 6.02596 26.196 5.99539C25.9204 5.98364 25.6453 5.97365 25.3697 5.96542C25.2327 5.96131 25.0852 5.94191 24.9488 5.95484C24.9424 5.95484 24.9359 5.95484 24.9295 5.95484V6.17524C25.2163 6.15055 25.5025 6.0959 25.7822 6.02831C26.1049 5.95014 26.4417 5.85199 26.7256 5.67508C26.9742 5.52051 27.1381 5.27895 27.1117 4.97451C27.0864 4.68829 26.869 4.50433 26.6139 4.40853C26.3059 4.29274 25.9527 4.28804 25.6294 4.32331C25.2586 4.36386 24.923 4.48199 24.5745 4.60835C23.8151 4.88282 23.0499 5.14319 22.2841 5.40003C21.8098 5.5593 21.3355 5.7174 20.86 5.87256L20.9447 6.07415C21.2291 5.85551 21.5218 5.64687 21.8186 5.4441C22.0737 5.26955 22.3352 5.10734 22.5979 4.94454C22.8272 4.80231 23.0628 4.63598 23.2151 4.40853C23.3261 4.2422 23.3661 4.03826 23.2909 3.84901C23.2227 3.67739 23.0869 3.52635 22.92 3.44583C22.5674 3.27539 22.1454 3.38294 21.7998 3.51871C21.3514 3.69503 20.9353 3.94775 20.535 4.21281C20.1218 4.48611 19.7098 4.7688 19.3296 5.08618C18.9722 5.38474 18.6513 5.72386 18.3951 6.11353C18.1388 6.50319 17.9425 6.95339 17.7721 7.3983C17.5899 7.87436 17.4183 8.35747 17.2872 8.85058C17.2408 9.02572 17.1814 9.21732 17.1738 9.4001C17.1738 9.40657 17.1726 9.41303 17.172 9.4195C17.1685 9.48415 17.2261 9.52294 17.2825 9.52999C17.7321 9.58524 18.1817 9.6399 18.6308 9.69514C18.7965 9.71571 18.9681 9.72512 19.1321 9.75686C19.0716 9.7451 19.1215 9.75803 19.1356 9.76273C19.168 9.7739 19.2009 9.78272 19.2338 9.79271C20.0619 10.0484 20.8882 10.3099 21.7128 10.5767C22.8595 10.9476 24.0055 11.3232 25.1363 11.741C25.526 11.885 25.9063 12.0243 26.2712 12.2012C26.3277 12.2283 26.3835 12.2565 26.437 12.2882C26.4575 12.3005 26.4781 12.3129 26.4981 12.3258C26.5063 12.3311 26.5146 12.3376 26.5228 12.3434C26.5269 12.3464 26.5016 12.327 26.524 12.3452C26.5298 12.3499 26.5345 12.3552 26.5398 12.3605C26.5598 12.3787 26.524 12.3387 26.5357 12.3546C26.5722 12.4034 26.6074 12.4522 26.6474 12.4986C26.7461 12.6115 26.8584 12.7131 26.9759 12.8066C27.4549 13.1886 28.2965 13.6547 28.8461 13.1392C28.9889 13.0052 29.3116 12.5956 29.0524 12.4199C28.896 12.3141 28.6557 12.3787 28.4893 12.4251C28.4429 12.4381 28.3965 12.4522 28.3512 12.468C28.2683 12.498 28.2348 12.6226 28.3248 12.6696C28.4605 12.7402 28.5587 12.6479 28.6033 12.5239C28.6421 12.4151 28.6545 12.3011 28.7103 12.2183C28.7285 12.1912 28.7432 12.1759 28.785 12.1812C28.8461 12.1895 28.9431 12.2482 29.0077 12.2964C29.1576 12.4093 29.2722 12.5509 29.3715 12.709C29.8552 13.4789 30.0562 14.407 30.5975 15.1434C30.7967 15.4143 31.0836 15.6911 31.4479 15.66C31.6836 15.64 31.7289 15.3996 31.7165 15.2033C31.6966 14.8901 31.5972 14.5803 31.4985 14.2847C31.3692 13.898 31.2164 13.5195 31.0571 13.1439C30.8355 12.6203 30.611 12.0866 30.343 11.5847C30.3383 11.5759 30.3342 11.5671 30.3301 11.5582C30.2666 11.4313 30.0768 11.543 30.1397 11.6693L30.1438 11.6599Z" fill="black"/>
<path d="M31.4468 10.4574C31.4468 10.4574 34.952 13.429 33.6819 13.8174C33.0995 13.9955 32.1714 12.3793 31.7195 11.8027" fill="#CCFC56"/>
<path d="M31.3696 10.5355C31.5758 10.7106 31.7763 10.8928 31.9737 11.0768C32.3769 11.4518 32.7695 11.8402 33.1292 12.2575C33.3026 12.4579 33.4578 12.6513 33.6012 12.8741C33.6605 12.9657 33.7158 13.0604 33.7622 13.1591C33.7669 13.1691 33.7716 13.1791 33.7757 13.1891C33.7881 13.2161 33.7757 13.1891 33.7828 13.2049C33.7916 13.2267 33.7998 13.2484 33.8075 13.2702C33.8216 13.3107 33.8333 13.3519 33.8415 13.3936C33.8433 13.4036 33.8451 13.413 33.8468 13.423C33.8504 13.443 33.8457 13.4001 33.8468 13.4259C33.848 13.4453 33.8498 13.4647 33.8492 13.4841C33.8492 13.4918 33.8486 13.4994 33.848 13.507C33.848 13.5112 33.8439 13.5417 33.8468 13.5211C33.8498 13.5006 33.8457 13.5264 33.8445 13.5311C33.8415 13.5411 33.8392 13.5511 33.8368 13.5605C33.8351 13.5676 33.8321 13.574 33.8298 13.5805C33.8292 13.5829 33.8415 13.5593 33.8298 13.5787C33.821 13.5934 33.8127 13.6081 33.8033 13.6222C33.8192 13.5987 33.7975 13.6281 33.7863 13.6393C33.7804 13.6452 33.7734 13.6504 33.7669 13.6563C33.7569 13.6651 33.7869 13.6452 33.7598 13.661C33.7446 13.6698 33.7293 13.6792 33.714 13.6875C33.7075 13.691 33.6787 13.7033 33.7058 13.6922C33.6958 13.6963 33.6858 13.6998 33.6758 13.7033C33.6646 13.7069 33.6541 13.7104 33.6429 13.7139C33.6358 13.7163 33.6012 13.7221 33.6253 13.7186C33.5994 13.7216 33.5735 13.7216 33.5477 13.7186C33.5712 13.7216 33.5324 13.7151 33.5271 13.7139C33.5154 13.711 33.503 13.708 33.4913 13.7039C33.4542 13.6922 33.4484 13.6892 33.4184 13.674C33.3614 13.6452 33.3067 13.6087 33.2562 13.5699C32.9782 13.356 32.7566 13.061 32.5497 12.7806C32.3428 12.5003 32.1389 12.1917 31.9285 11.9008C31.8856 11.8414 31.8415 11.7826 31.7962 11.725C31.7592 11.678 31.6793 11.6868 31.6405 11.725C31.5935 11.7709 31.6041 11.8344 31.6405 11.8808C32.0795 12.4427 32.4433 13.1256 32.9829 13.6252C33.1751 13.8033 33.4478 14.0107 33.7263 13.9185C33.9068 13.8591 34.0414 13.7286 34.0643 13.5353C34.0872 13.3419 34.0079 13.1579 33.925 12.9951C33.8092 12.7671 33.6552 12.559 33.4965 12.3592C33.1357 11.9031 32.7237 11.4864 32.3029 11.0862C32.0531 10.8482 31.7998 10.6113 31.5353 10.3897C31.5312 10.3862 31.5277 10.3833 31.5235 10.3797C31.416 10.2886 31.2591 10.4438 31.3678 10.5355H31.3696Z" fill="black"/>
<path d="M19.1855 8.53657C19.1855 8.53657 20.7936 6.58002 21.4342 6.72049C22.2041 6.88917 20.8083 7.97176 20.8083 7.97176C20.8083 7.97176 22.4745 6.64761 23.5865 6.65408" fill="#CCFC56"/>
<path d="M19.2626 8.61373C19.6604 8.13003 20.0971 7.66161 20.5779 7.2602C20.7225 7.13971 20.8741 7.02452 21.0387 6.93283C21.1139 6.8911 21.1592 6.86877 21.2332 6.84585C21.2632 6.83644 21.2932 6.82939 21.3243 6.8241C21.2955 6.8288 21.339 6.82293 21.3461 6.82293C21.3625 6.82234 21.3784 6.82293 21.3942 6.8241C21.4007 6.8241 21.4148 6.82822 21.3884 6.82293C21.3978 6.82469 21.4072 6.82645 21.416 6.8288C21.4354 6.83409 21.4542 6.8388 21.473 6.84585C21.4759 6.84702 21.493 6.85408 21.4765 6.84644C21.4853 6.85055 21.4942 6.85525 21.503 6.85995C21.5083 6.86289 21.5136 6.86642 21.5188 6.86936C21.5382 6.8817 21.5059 6.8576 21.5271 6.87582C21.5324 6.87994 21.5365 6.88523 21.5412 6.88993C21.5588 6.90873 21.5306 6.87641 21.54 6.88875C21.5518 6.90345 21.5547 6.91579 21.5482 6.90227C21.5565 6.9199 21.5541 6.93166 21.5535 6.91638C21.5547 6.93107 21.5541 6.94459 21.5535 6.95928C21.5523 6.98631 21.5594 6.93577 21.5529 6.96281C21.5518 6.9681 21.5506 6.97397 21.5494 6.97985C21.5453 6.99454 21.5412 7.00865 21.5359 7.02334C21.5271 7.0492 21.5359 7.02628 21.5241 7.05096C21.5147 7.06977 21.5053 7.08858 21.4947 7.1068C21.4536 7.1785 21.4078 7.23904 21.3602 7.29664C21.1756 7.51762 20.957 7.71627 20.7295 7.89318L20.8853 8.04893C20.8853 8.04893 20.8935 8.0407 20.8959 8.0407C20.8982 8.0407 20.9058 8.03247 20.9088 8.03071C20.9241 8.02248 20.8847 8.04893 20.9 8.03717C20.9041 8.03423 20.9082 8.03071 20.9123 8.02777C20.9552 7.99544 20.9981 7.96312 21.041 7.93138C21.1885 7.82324 21.339 7.71921 21.4918 7.61871C21.9103 7.34483 22.3522 7.08976 22.8236 6.91931C23.0681 6.83115 23.3243 6.76239 23.5859 6.76239C23.7275 6.76239 23.7281 6.54199 23.5859 6.54199C23.074 6.54199 22.5721 6.75945 22.1254 6.99043C21.7222 7.19848 21.3384 7.44415 20.9711 7.7104C20.89 7.76917 20.8089 7.82912 20.7301 7.892C20.6831 7.92903 20.6919 8.00896 20.7301 8.04775C20.776 8.09477 20.8394 8.08419 20.8859 8.04775C21.0951 7.88495 21.2949 7.70334 21.4707 7.50469C21.6464 7.30604 21.9773 6.85995 21.6064 6.66424C21.2814 6.49262 20.9229 6.72419 20.6637 6.91402C20.3005 7.18027 19.9766 7.4994 19.6681 7.82618C19.4747 8.03071 19.2861 8.23994 19.1068 8.4574C19.0686 8.50383 19.0621 8.56789 19.1068 8.61315C19.1456 8.65252 19.2249 8.65899 19.2626 8.61315V8.61373Z" fill="black"/>
<path d="M18.6087 47.5888C27.8168 47.5888 35.2814 40.1242 35.2814 30.9161C35.2814 21.708 27.8168 14.2434 18.6087 14.2434C9.40065 14.2434 1.93604 21.708 1.93604 30.9161C1.93604 40.1242 9.40065 47.5888 18.6087 47.5888Z" fill="#674AD6"/>
<path d="M35.06 30.9177C35.0576 32.648 34.7902 34.3683 34.2554 36.0145C33.7423 37.5937 32.9847 39.0895 32.0244 40.4436C31.0734 41.7837 29.915 42.9862 28.6097 43.9841C27.2949 44.9891 25.8285 45.8008 24.274 46.3691C22.6601 46.9592 20.958 47.2942 19.2413 47.3583C17.5116 47.4229 15.7772 47.2201 14.1116 46.7482C12.5018 46.2921 10.9684 45.5874 9.57079 44.6682C8.17317 43.749 6.96421 42.6541 5.9157 41.3881C4.8672 40.1222 3.99618 38.6746 3.37319 37.1435C2.73198 35.5696 2.3335 33.8963 2.20479 32.2013C2.07608 30.5063 2.2089 28.7038 2.62325 27.0082C3.01997 25.3849 3.66353 23.828 4.52984 22.3992C5.38616 20.9857 6.45524 19.7068 7.69006 18.6089C8.92311 17.5128 10.3225 16.606 11.8241 15.9224C13.364 15.2219 15.0226 14.7629 16.7029 14.5718C18.432 14.3755 20.1928 14.4449 21.8984 14.7928C23.5487 15.129 25.1421 15.7185 26.6126 16.5396C28.0507 17.3424 29.3625 18.3586 30.501 19.5487C31.6394 20.7389 32.6056 22.1124 33.345 23.5941C34.0843 25.0757 34.6086 26.7249 34.8684 28.3882C34.9989 29.2245 35.0588 30.0708 35.06 30.9166C35.06 31.2004 35.5014 31.2004 35.5008 30.9166C35.4984 29.1499 35.2263 27.3831 34.6809 25.7028C34.1355 24.0225 33.3808 22.5397 32.3923 21.1503C31.4055 19.7632 30.2165 18.5325 28.8665 17.4964C27.5165 16.4602 26.0095 15.6345 24.4115 15.0479C22.7629 14.4425 21.0186 14.1046 19.2642 14.0364C17.4904 13.9677 15.702 14.1775 13.994 14.6612C12.3502 15.1272 10.7756 15.8466 9.34745 16.7852C7.93103 17.7168 6.6533 18.8593 5.57541 20.1676C4.49105 21.4841 3.61122 22.954 2.96413 24.5315C2.31704 26.1089 1.90034 27.8668 1.76458 29.6089C1.62646 31.3862 1.77104 33.1875 2.19127 34.9202C2.6115 36.6528 3.25976 38.1909 4.14782 39.6567C5.03587 41.1225 6.12494 42.426 7.39325 43.5504C8.66157 44.6747 10.0956 45.6115 11.6408 46.3092C13.1859 47.0068 14.9226 47.494 16.6564 47.6962C18.432 47.9031 20.2404 47.8243 21.993 47.4693C23.7456 47.1144 25.3125 46.5213 26.8153 45.6844C28.2976 44.8592 29.6564 43.8072 30.8272 42.58C31.995 41.3564 32.9818 39.9564 33.7352 38.4412C34.5057 36.892 35.0382 35.227 35.3004 33.5161C35.432 32.6551 35.4996 31.7864 35.5008 30.9154C35.5008 30.6315 35.0606 30.6315 35.06 30.9154V30.9177Z" fill="black"/>
<path d="M17.285 47.5888C26.493 47.5888 33.9577 40.1242 33.9577 30.9161C33.9577 21.708 26.493 14.2434 17.285 14.2434C8.07692 14.2434 0.612305 21.708 0.612305 30.9161C0.612305 40.1242 8.07692 47.5888 17.285 47.5888Z" fill="#A495FC"/>
<path d="M33.7132 31.816C33.6174 33.5422 33.2542 35.2478 32.6318 36.8611C32.037 38.4033 31.2001 39.8603 30.1692 41.1521C29.1401 42.4416 27.92 43.5794 26.557 44.5092C25.1882 45.4425 23.683 46.1701 22.0979 46.6544C20.4541 47.1569 18.7373 47.3961 17.0188 47.3673C15.2879 47.3385 13.5676 47.0394 11.9296 46.4781C10.3481 45.9362 8.85406 45.1463 7.50875 44.1536C6.16344 43.1609 5.01679 42.0055 4.04645 40.6884C3.062 39.3519 2.27562 37.8696 1.73315 36.301C1.19067 34.7323 0.873301 33.0038 0.835686 31.3029C0.796896 29.558 1.0314 27.8118 1.53626 26.1409C2.01937 24.5417 2.74992 23.0224 3.69146 21.6424C4.62242 20.2783 5.76261 19.0588 7.05385 18.0303C8.33863 17.0064 9.7862 16.1736 11.3172 15.5794C12.9012 14.9647 14.5785 14.5944 16.2747 14.4939C18.0132 14.391 19.7647 14.5585 21.4503 14.9976C23.08 15.4225 24.6381 16.0996 26.0622 16.9988C27.4539 17.8775 28.7087 18.9665 29.7807 20.2154C30.8586 21.4708 31.7426 22.8919 32.4002 24.4101C33.0667 25.9481 33.4928 27.5991 33.6568 29.2676C33.7402 30.1145 33.7567 30.9667 33.712 31.816C33.6973 32.0993 34.1381 32.0987 34.1528 31.816C34.2457 30.0517 34.0664 28.2738 33.6115 26.5658C33.1731 24.919 32.4807 23.3374 31.5692 21.8975C30.6576 20.4576 29.5415 19.1687 28.2526 18.069C26.9637 16.9694 25.5015 16.0531 23.9358 15.3855C22.3701 14.7178 20.5945 14.2594 18.8384 14.096C17.0699 13.9314 15.275 14.0478 13.5424 14.4392C11.8097 14.8307 10.2658 15.4525 8.78941 16.3129C7.32597 17.1663 5.9883 18.2418 4.84223 19.4896C3.69381 20.7397 2.7317 22.162 2.00762 23.6971C1.25944 25.284 0.765159 26.9767 0.535945 28.7152C0.306731 30.4537 0.352574 32.2868 0.678763 34.0412C0.99261 35.7268 1.57152 37.363 2.37965 38.8752C3.18778 40.3874 4.20748 41.7451 5.41291 42.9364C6.61835 44.1277 8.00362 45.1386 9.50762 45.918C11.0116 46.6973 12.716 47.278 14.4298 47.5671C16.2001 47.8663 18.0073 47.8863 19.7835 47.6253C21.4873 47.375 23.147 46.8554 24.6939 46.1002C26.2191 45.3561 27.6302 44.3764 28.8656 43.2138C30.0975 42.0548 31.1566 40.7078 31.99 39.2361C32.8422 37.7321 33.4622 36.0935 33.8155 34.4014C33.993 33.5498 34.1046 32.6835 34.1528 31.8148C34.1687 31.5316 33.7279 31.5321 33.712 31.8148L33.7132 31.816Z" fill="black"/>
<path d="M28.465 21.0479C29.5852 22.3186 30.4938 23.7779 31.125 25.3512C31.7563 26.9246 32.1342 28.6919 32.1894 30.4316C32.237 31.9285 32.0631 33.429 31.6663 34.8736C31.2914 36.2401 30.7195 37.549 29.9737 38.7538C29.242 39.9369 28.3445 41.0136 27.316 41.9505C26.2798 42.8938 25.1114 43.6884 23.8543 44.3073C22.5712 44.9391 21.1965 45.3804 19.7866 45.6196C18.3337 45.8665 16.8415 45.8929 15.3792 45.7084C13.9551 45.5285 12.5522 45.1365 11.2416 44.5529C9.96035 43.9828 8.75845 43.2323 7.68644 42.3278C6.61442 41.4233 5.68581 40.39 4.91001 39.2369C4.12186 38.065 3.49946 36.7837 3.07277 35.4373C2.64608 34.0908 2.39688 32.5903 2.3769 31.1292C2.35691 29.6681 2.54793 28.2082 2.94993 26.8029C3.35194 25.3977 3.92556 24.1405 4.68255 22.9445C5.43955 21.7485 6.34406 20.6917 7.38787 19.7637C8.4305 18.8369 9.60302 18.0587 10.8608 17.4563C12.1514 16.8374 13.5337 16.4113 14.9472 16.1868C16.5576 15.9311 18.2174 15.9429 19.8236 16.2197C21.5251 16.513 23.1701 17.1025 24.6694 17.9588C25.3888 18.3696 26.0741 18.8404 26.7159 19.3646C26.8611 19.4834 27.0703 19.2765 26.924 19.1566C25.5804 18.0599 24.0617 17.1918 22.429 16.6035C20.7369 15.994 18.935 15.6943 17.1371 15.7119C15.6502 15.726 14.1644 15.957 12.745 16.4007C11.3668 16.8321 10.0503 17.461 8.85014 18.2638C7.6688 19.0537 6.59737 20.0082 5.67934 21.0932C4.7572 22.1834 3.98668 23.4006 3.40366 24.7047C2.80359 26.0471 2.40276 27.4694 2.21057 28.927C2.01368 30.4228 2.04248 31.9456 2.28874 33.4337C2.52677 34.8707 2.97697 36.2695 3.61465 37.5783C4.25234 38.8872 5.05576 40.0621 6.0167 41.1235C6.97058 42.1773 8.07434 43.0965 9.28212 43.8459C10.5064 44.6052 11.8411 45.1894 13.2299 45.5732C14.6187 45.957 16.1867 46.1539 17.6884 46.1145C19.1706 46.0757 20.6488 45.8218 22.057 45.3558C23.4199 44.905 24.7194 44.2596 25.9013 43.4445C27.0832 42.6293 28.1382 41.6595 29.0433 40.5552C29.949 39.4497 30.7013 38.2201 31.2637 36.9054C31.8403 35.5572 32.2188 34.1337 32.3887 32.6767C32.585 30.9923 32.4974 29.2743 32.1324 27.6187C31.7586 25.9243 31.088 24.2951 30.1635 22.827C29.7215 22.1252 29.2214 21.4611 28.673 20.8387C28.5479 20.6964 28.3404 20.9051 28.465 21.0467V21.0479Z" fill="black"/>
<path d="M23.043 26.6104C23.0301 27.0471 22.9919 28.3265 22.1256 29.3463C21.9017 29.6096 21.3045 30.3125 20.3571 30.3754C19.4926 30.433 18.8684 29.9228 18.6974 29.7782C17.4867 28.7574 17.5155 26.9166 17.5225 26.4664C17.5296 25.9986 17.5543 24.4528 18.601 23.4425C18.7838 23.2662 19.3186 22.7649 20.1285 22.699C21.0659 22.6226 21.7553 23.178 22.0145 23.4225C23.1077 24.4534 23.0583 26.0991 23.043 26.6104Z" fill="white"/>
<path d="M22.8961 26.6093C22.8773 27.2476 22.7838 27.8723 22.5105 28.4647C22.2302 29.073 21.7559 29.6555 21.1682 29.9817C20.8044 30.1833 20.3835 30.272 19.9698 30.2162C19.616 30.1686 19.2821 30.0211 18.9906 29.8183C18.9659 29.8012 18.9413 29.783 18.9166 29.7648C18.9054 29.7566 18.8948 29.7483 18.8837 29.7401C18.9089 29.7595 18.8807 29.7378 18.8719 29.7307C18.829 29.6966 18.7873 29.6614 18.7461 29.6249C18.6062 29.4997 18.4775 29.3604 18.3682 29.2076C18.1537 28.9097 17.9979 28.5752 17.8898 28.2255C17.7223 27.6825 17.6653 27.1506 17.6682 26.5817C17.6712 26.0703 17.7076 25.5955 17.8363 25.1059C18.0179 24.4141 18.377 23.787 18.9401 23.3374C18.983 23.3027 19.0506 23.254 19.1123 23.2134C19.1875 23.164 19.2651 23.1182 19.3444 23.0765C19.5249 22.983 19.7171 22.9154 19.9163 22.8755C20.3271 22.7932 20.762 22.849 21.1446 23.0165C21.3057 23.087 21.4591 23.1752 21.6031 23.2757C21.633 23.2963 21.6624 23.318 21.6918 23.3398C21.7083 23.3521 21.713 23.3556 21.7142 23.3568C21.7288 23.3686 21.743 23.3797 21.7576 23.3915C21.8023 23.4279 21.8458 23.4655 21.8881 23.5049C22.1773 23.7717 22.3983 24.0985 22.5575 24.4576C22.822 25.0524 22.902 25.6942 22.9008 26.336C22.9008 26.4271 22.8984 26.5182 22.8955 26.6093C22.8896 26.7985 23.1835 26.7985 23.1894 26.6093C23.207 26.0122 23.1688 25.4103 23.003 24.8338C22.7909 24.0944 22.3648 23.4379 21.7241 23.003C21.3827 22.7708 20.9924 22.6145 20.5822 22.5622C20.1114 22.5022 19.6342 22.5986 19.2128 22.8137C18.5534 23.1499 18.045 23.7535 17.7576 24.4282C17.4972 25.0389 17.3914 25.7001 17.3761 26.3607C17.3644 26.8614 17.3908 27.361 17.4902 27.8529C17.6447 28.6176 17.9868 29.3699 18.5921 29.8818C19.1758 30.3755 19.9363 30.6423 20.6991 30.473C21.4121 30.3149 21.9863 29.7989 22.4059 29.2235C22.8896 28.5605 23.1165 27.746 23.1735 26.9355C23.1811 26.8273 23.1852 26.7186 23.1888 26.6099C23.1946 26.4206 22.9008 26.4206 22.8949 26.6099L22.8961 26.6093Z" fill="black"/>
<path d="M21.1397 26.5985C21.1315 26.9723 21.108 28.0678 20.5702 28.9412C20.4315 29.1668 20.0607 29.7687 19.4729 29.8222C18.9363 29.8715 18.549 29.4343 18.4427 29.3108C17.691 28.4363 17.7092 26.8606 17.7133 26.4751C17.718 26.0742 17.7327 24.7507 18.3827 23.8861C18.4961 23.7351 18.8282 23.306 19.3307 23.2496C19.9126 23.1838 20.3404 23.6598 20.5015 23.8691C21.1797 24.7518 21.1491 26.1606 21.1397 26.5991V26.5985Z" fill="black"/>
<path d="M20.9934 26.5983C20.9823 27.1079 20.93 27.6145 20.7813 28.1035C20.6913 28.3991 20.565 28.6771 20.3992 28.9386C20.2729 29.1379 20.1395 29.3159 19.9496 29.4664C19.7422 29.631 19.4771 29.7215 19.2138 29.6592C18.9734 29.6028 18.7806 29.4582 18.6167 29.2842C18.2576 28.904 18.0789 28.3897 17.9766 27.886C17.8896 27.4581 17.8591 27.0197 17.8608 26.5777C17.8626 26.1839 17.8814 25.7872 17.9472 25.404C17.999 25.1043 18.0754 24.8057 18.1917 24.5242C18.2482 24.3873 18.3169 24.255 18.3951 24.1292C18.4327 24.0693 18.4733 24.0111 18.5156 23.9541C18.5203 23.9476 18.525 23.9418 18.5297 23.9353C18.5068 23.9641 18.5426 23.9183 18.5297 23.9353C18.545 23.9159 18.5608 23.8965 18.5767 23.8777C18.7377 23.6849 18.937 23.5086 19.1809 23.4316C19.46 23.344 19.738 23.4093 19.9778 23.5668C20.0789 23.6332 20.17 23.7143 20.2547 23.8036C20.2899 23.8407 20.324 23.8795 20.3563 23.9188C20.3634 23.9277 20.3998 23.9735 20.3757 23.9423C20.401 23.9753 20.4257 24.0093 20.4492 24.044C20.6173 24.2909 20.7331 24.5671 20.8142 24.8533C20.9552 25.3488 20.9987 25.8642 20.997 26.3785C20.997 26.4514 20.9952 26.5248 20.994 26.5977C20.9899 26.787 21.2838 26.787 21.2879 26.5977C21.2985 26.1111 21.2767 25.6238 21.185 25.1448C21.0734 24.5612 20.8471 23.9747 20.418 23.5503C20.2035 23.3388 19.9338 23.1618 19.6317 23.1131C19.289 23.0578 18.9546 23.1618 18.6813 23.3699C18.2111 23.729 17.9284 24.2879 17.7715 24.8469C17.6305 25.3488 17.577 25.8736 17.5687 26.3938C17.5623 26.8011 17.5781 27.2072 17.6334 27.6109C17.7145 28.1999 17.8791 28.8134 18.2435 29.2942C18.5832 29.7421 19.1256 30.107 19.7087 29.9237C20.2458 29.755 20.6161 29.2219 20.8494 28.7359C21.1286 28.1528 21.2467 27.5063 21.2785 26.8645C21.2826 26.7758 21.2855 26.687 21.2873 26.5977C21.2914 26.4085 20.9975 26.4085 20.9934 26.5977V26.5983Z" fill="black"/>
<path d="M21.2963 24.4871L19.623 25.9105L21.6419 26.5347L21.2963 24.4871Z" fill="white"/>
<path d="M17.3062 26.7818C17.2933 27.2184 17.2551 28.4979 16.3888 29.5176C16.1649 29.7809 15.5677 30.4839 14.6203 30.5468C13.7558 30.6044 13.1316 30.0942 12.9606 29.9496C11.7498 28.9287 11.7786 27.088 11.7857 26.6378C11.7928 26.1699 11.8174 24.6242 12.8642 23.6139C13.047 23.4376 13.5818 22.9363 14.3917 22.8704C15.3291 22.794 16.0185 23.3494 16.2777 23.5939C17.3709 24.6248 17.3215 26.2704 17.3062 26.7818Z" fill="white"/>
<path d="M17.1593 26.7826C17.1405 27.4209 17.047 28.0457 16.7737 28.6381C16.5004 29.2305 16.0191 29.8288 15.4313 30.155C15.0675 30.3566 14.6467 30.4454 14.233 30.3895C13.8791 30.3419 13.5453 30.1944 13.2538 29.9916C13.2291 29.9746 13.2044 29.9564 13.1798 29.9381C13.1686 29.9299 13.158 29.9217 13.1468 29.9135C13.1721 29.9329 13.1439 29.9111 13.1351 29.9041C13.0922 29.87 13.0505 29.8347 13.0093 29.7983C12.8694 29.6731 12.7407 29.5338 12.6314 29.381C12.4169 29.083 12.2611 28.7486 12.153 28.3989C11.9855 27.8558 11.9285 27.3239 11.9314 26.755C11.9344 26.2437 11.9708 25.7688 12.0995 25.2792C12.2811 24.5875 12.6402 23.9604 13.2033 23.5107C13.2462 23.4761 13.3138 23.4273 13.3755 23.3867C13.4507 23.3374 13.5283 23.2915 13.6076 23.2498C13.7881 23.1563 13.9802 23.0888 14.1795 23.0488C14.5903 22.9665 15.0252 23.0223 15.4078 23.1898C15.5689 23.2604 15.7223 23.3485 15.8663 23.449C15.8962 23.4696 15.9256 23.4914 15.955 23.5131C15.9715 23.5254 15.9762 23.529 15.9773 23.5301C15.992 23.5419 16.0061 23.5531 16.0208 23.5648C16.0655 23.6013 16.109 23.6389 16.1513 23.6783C16.4405 23.9451 16.6615 24.2719 16.8207 24.631C17.0852 25.2257 17.1651 25.8675 17.164 26.5093C17.164 26.6004 17.1616 26.6915 17.1587 26.7826C17.1528 26.9719 17.4467 26.9719 17.4525 26.7826C17.4702 26.1855 17.432 25.5837 17.2662 25.0071C17.0541 24.2677 16.628 23.6112 15.9873 23.1763C15.6459 22.9442 15.2556 22.7878 14.8454 22.7355C14.3746 22.6756 13.8974 22.772 13.476 22.9871C12.8165 23.3233 12.3082 23.9269 12.0208 24.6016C11.7604 25.2122 11.6546 25.8734 11.6393 26.534C11.6276 27.0348 11.654 27.5343 11.7533 28.0263C11.9079 28.7909 12.25 29.5432 12.8553 30.0551C13.4607 30.567 14.1995 30.8156 14.9623 30.6464C15.6752 30.4883 16.2495 29.9722 16.6691 29.3968C17.1528 28.7339 17.3797 27.9193 17.4367 27.1088C17.4443 27.0007 17.4484 26.8919 17.4519 26.7832C17.4578 26.594 17.164 26.594 17.1581 26.7832L17.1593 26.7826Z" fill="black"/>
<path d="M15.4039 26.7721C15.3957 27.1459 15.3722 28.2414 14.8344 29.1147C14.6957 29.3404 14.3248 29.9423 13.7371 29.9958C13.2005 30.0451 12.8132 29.6078 12.7068 29.4844C11.9551 28.6099 11.9733 27.0342 11.9774 26.6486C11.9821 26.2478 11.9968 24.9242 12.6469 24.0597C12.7603 23.9086 13.0924 23.4796 13.5949 23.4232C14.1767 23.3574 14.6046 23.8334 14.7656 24.0427C15.4439 24.9254 15.4133 26.3342 15.4039 26.7726V26.7721Z" fill="black"/>
<path d="M15.2566 26.7721C15.2454 27.2817 15.1931 27.7883 15.0444 28.2773C14.9545 28.5729 14.8282 28.8509 14.6624 29.1125C14.5361 29.3117 14.4026 29.4898 14.2128 29.6402C14.0053 29.8048 13.7403 29.8953 13.477 29.833C13.2366 29.7766 13.0438 29.632 12.8798 29.458C12.5207 29.0778 12.3421 28.5635 12.2398 28.0598C12.1528 27.632 12.1223 27.1935 12.124 26.7515C12.1258 26.3578 12.1446 25.9611 12.2104 25.5779C12.2621 25.2781 12.3385 24.9795 12.4549 24.698C12.5113 24.5611 12.5801 24.4288 12.6583 24.3031C12.6959 24.2431 12.7364 24.1849 12.7788 24.1279C12.7835 24.1215 12.7882 24.1156 12.7929 24.1091C12.7699 24.1379 12.8058 24.0921 12.7929 24.1091C12.8081 24.0897 12.824 24.0703 12.8399 24.0515C13.0009 23.8587 13.2002 23.6824 13.4441 23.6054C13.7232 23.5179 14.0012 23.5831 14.241 23.7406C14.3421 23.807 14.4332 23.8881 14.5178 23.9775C14.5531 24.0145 14.5872 24.0533 14.6195 24.0927C14.6266 24.1015 14.663 24.1473 14.6389 24.1162C14.6642 24.1491 14.6889 24.1832 14.7124 24.2179C14.8805 24.4647 14.9963 24.7409 15.0774 25.0272C15.2184 25.5226 15.2619 26.038 15.2601 26.5523C15.2601 26.6252 15.2584 26.6987 15.2572 26.7715C15.2531 26.9608 15.547 26.9608 15.5511 26.7715C15.5616 26.2849 15.5399 25.7977 15.4482 25.3187C15.3365 24.7351 15.1103 24.1485 14.6812 23.7242C14.4667 23.5126 14.1969 23.3357 13.8948 23.2869C13.5522 23.2316 13.2178 23.3357 12.9445 23.5437C12.4743 23.9028 12.1916 24.4618 12.0347 25.0207C11.8936 25.5226 11.8402 26.0474 11.8319 26.5676C11.8255 26.9749 11.8413 27.381 11.8966 27.7848C11.9777 28.3737 12.1422 28.9873 12.5066 29.468C12.8463 29.9159 13.3888 30.2809 13.9718 30.0975C14.509 29.9288 14.8793 29.3957 15.1126 28.9097C15.3918 28.3267 15.5099 27.6802 15.5417 27.0384C15.5458 26.9496 15.5487 26.8609 15.5505 26.7715C15.5546 26.5823 15.2607 26.5823 15.2566 26.7715V26.7721Z" fill="black"/>
<path d="M15.5606 24.6606L13.8867 26.0841L15.9062 26.7083L15.5606 24.6606Z" fill="white"/>
<path d="M17.3928 31.0369C18.1919 31.0369 18.8398 30.5559 18.8398 29.9626C18.8398 29.3692 18.1919 28.8882 17.3928 28.8882C16.5936 28.8882 15.9458 29.3692 15.9458 29.9626C15.9458 30.5559 16.5936 31.0369 17.3928 31.0369Z" fill="#CCFC56"/>
<path d="M18.7295 29.9624C18.7242 30.4408 18.2751 30.754 17.8543 30.8669C17.3589 30.9997 16.7529 30.9221 16.3591 30.5724C16.204 30.4343 16.0823 30.2504 16.0594 30.04C16.0365 29.8295 16.1105 29.628 16.2434 29.4699C16.5784 29.0731 17.1632 28.9415 17.6598 29.0167C18.1429 29.0902 18.723 29.4081 18.7289 29.9618C18.7306 30.1034 18.951 30.104 18.9493 29.9618C18.9434 29.387 18.4374 28.9885 17.9231 28.8475C17.3412 28.6876 16.6436 28.7916 16.1893 29.2083C15.9983 29.3835 15.8666 29.6162 15.8396 29.8754C15.8126 30.1346 15.906 30.3826 16.0647 30.5818C16.4426 31.0555 17.1208 31.206 17.6962 31.1231C18.2716 31.0403 18.9422 30.6242 18.9493 29.9618C18.951 29.8201 18.7306 29.8196 18.7289 29.9618L18.7295 29.9624Z" fill="black"/>
<path d="M32.5317 24.4108H34.0363C34.178 24.4108 34.1786 24.1904 34.0363 24.1904H32.5317C32.3901 24.1904 32.3895 24.4108 32.5317 24.4108Z" fill="black"/>
<path d="M29.0972 19.2516H30.4542C30.5959 19.2516 30.5965 19.0312 30.4542 19.0312H29.0972C28.9555 19.0312 28.9549 19.2516 29.0972 19.2516Z" fill="black"/>
<path d="M31.1748 21.8137H32.5319C32.6735 21.8137 32.6741 21.5933 32.5319 21.5933H31.1748C31.0332 21.5933 31.0326 21.8137 31.1748 21.8137Z" fill="black"/>
<path d="M33.5259 27.2607H34.883C35.0246 27.2607 35.0252 27.0403 34.883 27.0403H33.5259C33.3842 27.0403 33.3837 27.2607 33.5259 27.2607Z" fill="black"/>
<path d="M33.9575 30.4687H35.3146C35.4562 30.4687 35.4568 30.2483 35.3146 30.2483H33.9575C33.8159 30.2483 33.8153 30.4687 33.9575 30.4687Z" fill="black"/>
<path d="M33.6279 33.8063H34.985C35.1266 33.8063 35.1272 33.5859 34.985 33.5859H33.6279C33.4863 33.5859 33.4857 33.8063 33.6279 33.8063Z" fill="black"/>
<path d="M14.9252 33.5823C16.3287 33.1732 17.8216 33.0892 19.2609 33.3484C19.5959 33.4089 19.928 33.4871 20.2548 33.5823C20.3911 33.6223 20.4493 33.4095 20.3135 33.3695C18.8865 32.954 17.372 32.8712 15.9079 33.1268C15.5565 33.1879 15.2091 33.2696 14.8665 33.3695C14.7307 33.4089 14.7883 33.6217 14.9252 33.5823Z" fill="black"/>
<path d="M16.293 39.9268C16.293 39.9268 22.5864 36.8077 29.9712 34.5526C35.8567 32.7553 38.9887 33.1033 38.9887 33.1033C38.9887 33.1033 37.125 35.8227 34.8834 39.3403C34.8834 39.3403 21.6854 41.6677 16.34 43.3738L16.293 39.9268Z" fill="#B2B2B2"/>
<path d="M16.3677 40.054C17.0389 39.7214 17.7212 39.4105 18.4041 39.1025C20.1238 38.3279 21.8647 37.6003 23.6226 36.9185C25.9841 36.0028 28.3802 35.1506 30.8164 34.4571C32.723 33.914 34.6766 33.4868 36.6531 33.3046C37.1874 33.2552 37.7234 33.224 38.26 33.2235C38.4939 33.2235 38.7278 33.247 38.9617 33.2481C38.9705 33.2481 38.9799 33.2499 38.9893 33.2511L38.8624 33.0301C38.6067 33.4033 38.354 33.7789 38.1019 34.1544C37.4518 35.123 36.8089 36.0957 36.1718 37.0725C35.6963 37.8019 35.2249 38.533 34.7571 39.2671L34.8447 39.1995C34.3933 39.2788 33.9425 39.3611 33.4917 39.444C32.3468 39.6538 31.2031 39.8689 30.06 40.0887C28.5342 40.3826 27.0108 40.6858 25.4898 41.0026C23.8965 41.3341 22.3055 41.6797 20.721 42.0541C19.371 42.3732 18.0221 42.7076 16.6939 43.1108C16.5628 43.1508 16.4317 43.1913 16.3007 43.2331L16.4864 43.3747C16.4729 42.3673 16.4588 41.36 16.4452 40.352C16.4435 40.2104 16.4411 40.0687 16.4394 39.9277C16.437 39.739 16.1432 39.7384 16.1455 39.9277C16.159 40.935 16.1731 41.9424 16.1866 42.9504C16.1884 43.092 16.1908 43.2336 16.1925 43.3747C16.1937 43.467 16.286 43.5457 16.3782 43.5163C17.1734 43.263 17.9792 43.0426 18.7868 42.8334C19.7518 42.5836 20.721 42.3521 21.6925 42.1293C22.7392 41.8895 23.7889 41.6609 24.8392 41.4387C25.883 41.2183 26.9286 41.0044 27.9747 40.7957C28.9174 40.6077 29.8607 40.4243 30.8052 40.2439C31.5657 40.0987 32.3263 39.9559 33.0874 39.8154C33.5693 39.7267 34.0518 39.6385 34.5343 39.5515C34.6454 39.5315 34.7559 39.5116 34.867 39.4922C34.884 39.4892 34.9034 39.4881 34.9199 39.4828C35.0339 39.4457 35.1056 39.263 35.1662 39.1677C35.2814 38.9873 35.3971 38.8069 35.5129 38.6264C36.2805 37.4322 37.0575 36.2444 37.8444 35.063C38.2459 34.46 38.6496 33.8582 39.0581 33.2593C39.0769 33.2317 39.0951 33.2046 39.1139 33.1776C39.1833 33.0759 39.0875 32.9678 38.987 32.9566C38.3658 32.8879 37.7216 32.9296 37.1015 32.9737C35.2514 33.1047 33.4171 33.4633 31.6245 33.9311C29.149 34.577 26.7205 35.4286 24.3296 36.3337C22.4536 37.0437 20.597 37.8071 18.7638 38.6212C18.1861 38.8774 17.6107 39.1389 17.0388 39.4075C16.7761 39.531 16.5075 39.6485 16.2507 39.7843C16.2395 39.7901 16.2284 39.7954 16.2172 39.8007C16.0479 39.8848 16.1966 40.1381 16.3653 40.0546L16.3677 40.054Z" fill="black"/>
<path d="M16.3041 40.7238L16.293 39.9268C16.293 39.9268 22.5864 36.8077 29.9712 34.5526C35.8567 32.7553 38.9887 33.1033 38.9887 33.1033C38.9887 33.1033 38.5373 33.7504 37.4976 35.3225C37.4976 35.3225 31.0737 34.7084 16.3035 40.7238H16.3041Z" fill="#EDEDED"/>
<path d="M16.4151 40.7232C16.4115 40.4575 16.408 40.1919 16.4039 39.9262L16.3492 40.0214C17.0204 39.6888 17.7028 39.3779 18.3857 39.0699C20.1078 38.2935 21.8521 37.5647 23.613 36.8818C25.9745 35.9661 28.3706 35.1139 30.8068 34.4204C32.7169 33.8767 34.6734 33.4495 36.6535 33.2667C37.1877 33.2173 37.7238 33.1862 38.2603 33.1856C38.4937 33.1856 38.7294 33.2144 38.9621 33.2103C38.9709 33.2103 38.9803 33.212 38.9897 33.2132L38.8945 33.0475C38.3844 33.778 37.8948 34.5238 37.4034 35.2667L37.4987 35.2121C37.4369 35.2062 37.3752 35.2038 37.3129 35.2015C37.1254 35.1938 36.9374 35.1933 36.7493 35.1962C36.4313 35.2009 36.114 35.2156 35.7966 35.2362C35.3423 35.2661 34.8891 35.3102 34.4372 35.3637C33.8436 35.4336 33.2523 35.5194 32.6628 35.6182C31.9323 35.7404 31.2053 35.8815 30.4818 36.0372C29.606 36.2259 28.735 36.4363 27.8687 36.6638C26.8437 36.9329 25.8258 37.2262 24.8131 37.5383C23.6359 37.9015 22.4663 38.2906 21.3044 38.7008C19.9638 39.1745 18.6332 39.6759 17.3114 40.2001C16.9652 40.3376 16.6202 40.4763 16.2752 40.6168C16.1453 40.6697 16.2023 40.8831 16.334 40.8296C17.6875 40.2789 19.0499 39.7505 20.4228 39.2503C21.6223 38.8137 22.8295 38.3987 24.0455 38.0102C25.0899 37.6764 26.1408 37.362 27.1981 37.0722C28.1009 36.8248 29.0089 36.5944 29.9217 36.3869C30.681 36.2141 31.4445 36.0566 32.2109 35.9191C32.8262 35.8086 33.4433 35.7105 34.0634 35.6305C34.543 35.5682 35.0237 35.5165 35.5063 35.4783C35.8554 35.4507 36.2051 35.4301 36.5548 35.4207C36.7734 35.4148 36.9926 35.4131 37.2118 35.4189C37.3029 35.4213 37.3976 35.4354 37.4881 35.4325C37.4916 35.4325 37.4951 35.4331 37.4987 35.4336C37.538 35.4372 37.5739 35.4095 37.5939 35.379C38.0852 34.6361 38.5754 33.8903 39.0849 33.1597C39.1378 33.0839 39.0644 33.0022 38.9897 32.994C38.3685 32.9252 37.7243 32.9669 37.1043 33.011C35.2571 33.1415 33.4263 33.5 31.6372 33.9667C29.1617 34.6126 26.7332 35.4642 24.3424 36.3693C22.4693 37.0781 20.6156 37.8404 18.7854 38.6526C18.2076 38.9089 17.6323 39.1704 17.0604 39.439C16.7977 39.5624 16.5291 39.68 16.2723 39.8157C16.2611 39.8216 16.2499 39.8269 16.2388 39.8322C16.2053 39.8487 16.1835 39.891 16.1841 39.9274C16.1876 40.1931 16.1911 40.4587 16.1953 40.7244C16.197 40.866 16.4174 40.8666 16.4157 40.7244L16.4151 40.7232Z" fill="black"/>
<path d="M17.0278 42.615C17.0278 42.615 17.5773 44.9001 17.6249 45.338C17.6725 45.7764 17.0836 46.6169 16.7991 45.4714C16.5147 44.3259 15.2469 39.6529 14.9055 38.5279C14.564 37.403 15.4133 35.6598 16.0227 38.3211C16.6322 40.9823 17.0278 42.615 17.0278 42.615Z" fill="#674AD6"/>
<path d="M27.7083 18.9605C27.7083 18.9605 28.356 29.0195 28.5323 29.7177C28.7086 30.4153 32.7428 30.4153 33.4192 30.1221C34.0957 29.8288 33.3182 26.276 34.59 25.8734C35.8618 25.4708 35.5286 25.6395 35.3053 23.2915C34.9573 19.6393 32.5841 13.926 26.2695 10.3015" fill="#C6C6C6"/>
<path d="M27.561 18.9598C27.5728 19.1444 27.5851 19.3295 27.5969 19.5141C27.628 19.9943 27.6604 20.4738 27.6921 20.954C27.7368 21.6176 27.7814 22.2811 27.8273 22.9441C27.8778 23.6793 27.9301 24.4146 27.983 25.1492C28.0336 25.8445 28.0853 26.5398 28.1405 27.2351C28.1834 27.7787 28.2275 28.3229 28.2798 28.866C28.3074 29.154 28.3163 29.4614 28.3868 29.7429C28.4338 29.9327 28.6101 30.0421 28.7788 30.1149C29.0474 30.2301 29.3383 30.2865 29.6257 30.33C30.3786 30.4441 31.1473 30.4687 31.9073 30.4488C32.2352 30.4399 32.5638 30.4229 32.89 30.3823C33.0898 30.3571 33.3431 30.3424 33.5206 30.2342C33.711 30.1185 33.7774 29.8734 33.8156 29.6683C33.8738 29.3568 33.8862 29.0364 33.8997 28.7208C33.9285 28.0338 33.9114 27.3085 34.1248 26.6473C34.1689 26.511 34.2141 26.4017 34.2976 26.2777C34.3546 26.1924 34.4357 26.1102 34.5321 26.0567C34.5462 26.049 34.5597 26.042 34.5744 26.0349C34.5991 26.0232 34.5638 26.0379 34.5897 26.0285C34.6267 26.0144 34.6649 26.0032 34.7025 25.9914C34.776 25.9679 34.85 25.945 34.9235 25.9215C35.0452 25.8821 35.1662 25.8404 35.2826 25.7875C35.4501 25.7105 35.5894 25.5894 35.6388 25.4061C35.6999 25.1798 35.6523 24.9253 35.6229 24.6984C35.5624 24.2359 35.4989 23.7739 35.4536 23.309C35.4213 22.9752 35.3766 22.6431 35.319 22.3128C35.1927 21.5917 35.007 20.8811 34.7742 20.187C34.5086 19.3936 34.1806 18.6196 33.8004 17.8737C33.3819 17.0527 32.897 16.2645 32.3551 15.5193C31.7592 14.6994 31.0962 13.9289 30.3739 13.2177C29.5822 12.439 28.7206 11.7314 27.8079 11.0996C27.333 10.771 26.844 10.4631 26.3433 10.1751C26.1793 10.0804 26.0306 10.3343 26.1951 10.429C27.1878 10.9997 28.1352 11.6497 29.0145 12.3832C29.8144 13.0497 30.5596 13.7825 31.2367 14.5736C31.8532 15.2936 32.411 16.0629 32.9041 16.8722C33.3513 17.6063 33.7469 18.3739 34.0778 19.1673C34.3752 19.8802 34.6238 20.6137 34.8136 21.3625C34.9787 22.0119 35.0969 22.6678 35.1609 23.3267C35.205 23.7822 35.2679 24.2365 35.3273 24.6896C35.3449 24.8248 35.3625 24.9606 35.369 25.0969C35.3714 25.1469 35.3719 25.1968 35.369 25.2468C35.3684 25.2568 35.3672 25.2662 35.3666 25.2762C35.3637 25.3108 35.3713 25.2538 35.3666 25.2785C35.3631 25.2967 35.3596 25.315 35.3549 25.3332C35.3502 25.3496 35.3302 25.3949 35.3496 25.3543C35.342 25.3702 35.3326 25.3855 35.3243 25.4014C35.3061 25.4372 35.339 25.3919 35.3132 25.4172C35.3002 25.4296 35.2873 25.4431 35.2738 25.4554C35.2538 25.4748 35.285 25.4478 35.2779 25.4531C35.2697 25.4589 35.262 25.4648 35.2532 25.4701C35.235 25.4819 35.2168 25.493 35.198 25.503C35.1803 25.5124 35.1621 25.5218 35.1439 25.5301C35.1327 25.5354 35.121 25.5406 35.1092 25.5453C35.1092 25.5453 35.1227 25.5401 35.0969 25.55C34.9758 25.5977 34.8518 25.637 34.7278 25.6764C34.5903 25.7199 34.4474 25.7569 34.327 25.8392C33.8045 26.1965 33.7216 26.9647 33.6687 27.5407C33.6358 27.901 33.6246 28.2624 33.6105 28.6239C33.6041 28.7925 33.597 28.9618 33.5852 29.1299C33.5758 29.2692 33.5617 29.4208 33.5429 29.5343C33.5329 29.5948 33.5212 29.6553 33.5059 29.7153C33.4994 29.7411 33.4924 29.7664 33.4842 29.7917C33.4806 29.8028 33.4771 29.8134 33.473 29.8246C33.4701 29.8328 33.4554 29.871 33.4624 29.8534C33.4677 29.8411 33.4454 29.8887 33.4389 29.9004C33.4289 29.918 33.4183 29.9351 33.4066 29.9515C33.4242 29.9257 33.4013 29.9539 33.3872 29.9698C33.3684 29.9909 33.3889 29.9698 33.3889 29.9698C33.3813 29.9745 33.3731 29.9792 33.366 29.9845C33.3308 30.008 33.3848 29.9809 33.349 29.9927C33.3296 29.9986 33.3108 30.0056 33.292 30.0115C33.2473 30.025 33.2015 30.0356 33.1556 30.045C33.1021 30.0562 33.0481 30.0656 32.994 30.0738C32.9188 30.0855 32.9011 30.0873 32.8224 30.0967C32.1177 30.1766 31.3995 30.1766 30.6924 30.1396C30.3375 30.1214 29.9813 30.092 29.6322 30.035C29.4841 30.0109 29.3366 29.9821 29.192 29.9439C29.1285 29.9274 29.0656 29.9086 29.0039 29.8875C28.9769 29.8781 28.9498 29.8681 28.9234 29.8575C28.8969 29.8469 28.9187 29.8557 28.9122 29.8534C28.8975 29.8469 28.8834 29.8405 28.8687 29.8334C28.8252 29.8128 28.7847 29.7887 28.7447 29.7623C28.7271 29.7482 28.7294 29.7517 28.7447 29.7623C28.7382 29.7564 28.7306 29.7511 28.7241 29.7447C28.7106 29.7306 28.6971 29.7176 28.6842 29.7023C28.7147 29.7376 28.6842 29.6971 28.6765 29.6847C28.6607 29.66 28.6836 29.7123 28.6789 29.69C28.6777 29.6841 28.6748 29.6782 28.6742 29.6724C28.6712 29.6565 28.6671 29.6406 28.6642 29.6248C28.6601 29.6036 28.6566 29.5819 28.6536 29.5601C28.6519 29.5489 28.6501 29.5378 28.6483 29.526C28.6471 29.5166 28.6407 29.469 28.6442 29.499C28.6477 29.529 28.6419 29.4808 28.6407 29.4708C28.6383 29.4531 28.6366 29.4361 28.6342 29.4185C28.6295 29.3814 28.6254 29.3438 28.6213 29.3068C28.5707 28.8619 28.5337 28.4152 28.4961 27.9691C28.4426 27.332 28.3938 26.6944 28.3456 26.0567C28.2916 25.3349 28.2399 24.6132 28.1887 23.8915C28.1376 23.1697 28.0917 22.4997 28.0447 21.8033C28.0059 21.2332 27.9677 20.6631 27.9301 20.093C27.9084 19.7592 27.886 19.4259 27.8643 19.0921C27.8614 19.0474 27.8584 19.0028 27.8555 18.9581C27.8431 18.77 27.5493 18.7688 27.5616 18.9581L27.561 18.9598Z" fill="black"/>
<path d="M7.12157 19.0858C7.12157 19.0858 6.95172 29.16 6.82301 29.8635C6.6943 30.5671 3.11797 30.711 2.50673 30.4419C1.89549 30.1727 2.42798 26.6434 1.29836 26.2384C0.761178 26.0462 0.746485 26.4606 0.850513 24.1067C1.01214 20.4452 2.54493 13.3936 8.84891 10.3257" fill="#DADADA"/>
<path d="M6.97515 19.0861C6.97221 19.2683 6.96869 19.4499 6.96575 19.6321C6.95752 20.1058 6.9487 20.579 6.9393 21.0527C6.92696 21.7086 6.91344 22.3645 6.89992 23.0204C6.88464 23.7497 6.86818 24.4791 6.85114 25.2091C6.8341 25.939 6.81646 26.5973 6.79589 27.2914C6.77944 27.8415 6.76239 28.3916 6.7383 28.9412C6.73007 29.1281 6.72125 29.3149 6.7095 29.5018C6.70538 29.5671 6.70068 29.6329 6.69539 29.6981C6.69304 29.7234 6.69069 29.7487 6.68834 29.7746C6.6854 29.8039 6.676 29.8451 6.68658 29.7963C6.68187 29.8175 6.67835 29.8386 6.67247 29.8598C6.67071 29.8668 6.68893 29.831 6.67423 29.8545C6.66894 29.8627 6.66424 29.8715 6.65954 29.8798C6.65072 29.8968 6.64837 29.895 6.66189 29.8786C6.65425 29.888 6.64602 29.898 6.63721 29.9062C6.6231 29.9203 6.60841 29.9338 6.59313 29.9468C6.57373 29.9632 6.61487 29.9327 6.58431 29.9532C6.57314 29.9609 6.56257 29.9685 6.5514 29.9756C6.50497 30.0049 6.45619 30.0296 6.40623 30.0531C6.37802 30.0661 6.38331 30.0637 6.34275 30.0796C6.30925 30.0925 6.27575 30.1049 6.24167 30.116C6.17055 30.1401 6.09826 30.1613 6.02538 30.1801C5.86611 30.2218 5.70507 30.2547 5.54286 30.2823C4.81936 30.4058 4.07119 30.4451 3.33829 30.4146C3.19371 30.4087 3.04854 30.3993 2.90454 30.3823C2.89044 30.3805 2.87633 30.3787 2.86223 30.377C2.8875 30.3805 2.85635 30.3758 2.84753 30.3746C2.81874 30.3699 2.78935 30.3658 2.76055 30.3599C2.71353 30.3511 2.66651 30.3411 2.62067 30.327C2.60422 30.3217 2.58776 30.3158 2.5713 30.3106C2.54133 30.3006 2.5954 30.3235 2.57483 30.3123C2.56719 30.3082 2.55955 30.3041 2.5525 30.2994C2.52663 30.2835 2.5713 30.3182 2.55485 30.3017C2.54956 30.2959 2.54368 30.2906 2.5378 30.2853C2.50665 30.2559 2.54192 30.3012 2.51841 30.2612C2.509 30.2447 2.49842 30.2283 2.48961 30.2112C2.48432 30.2007 2.47903 30.1895 2.47433 30.1789C2.47433 30.1789 2.4802 30.1954 2.47021 30.1683C2.45141 30.116 2.43495 30.0631 2.42084 30.0091C2.34797 29.7205 2.32975 29.4478 2.30447 29.1469C2.2745 28.7836 2.25099 28.4193 2.21161 28.0566C2.17223 27.694 2.1258 27.3502 2.02589 27.0105C1.94713 26.7419 1.83076 26.4551 1.61683 26.264C1.46755 26.1306 1.29182 26.0777 1.10198 26.0337C1.07788 26.0278 1.05379 26.0219 1.02969 26.0149C1.00383 26.0072 0.999129 25.9972 1.0291 26.016C1.02264 26.0119 1.00618 26.0007 0.999717 26.0002C0.979146 25.9984 1.02734 26.0231 1.00324 26.0025C0.977383 25.9802 0.996778 25.9943 1.0003 26.0025C0.995603 25.9925 0.98855 25.9808 0.982673 25.9714C0.969155 25.9508 0.990313 25.9919 0.987962 25.9837C0.985611 25.9755 0.981497 25.9667 0.979146 25.9584C0.975032 25.9426 0.97033 25.9267 0.967392 25.9108C0.965041 25.8991 0.9574 25.8491 0.959751 25.8685C0.96269 25.892 0.958576 25.855 0.957988 25.8479C0.956813 25.8368 0.956225 25.8262 0.955049 25.815C0.952698 25.7862 0.950935 25.7574 0.94976 25.7286C0.943295 25.5746 0.946821 25.4201 0.950935 25.2661C0.963277 24.803 0.982085 24.3398 1.00912 23.8773C1.04556 23.2443 1.1155 22.6154 1.21483 21.9924C1.33237 21.2531 1.49047 20.5196 1.68912 19.7973C1.90599 19.0085 2.17106 18.231 2.49196 17.4781C2.8346 16.6747 3.23779 15.8965 3.70679 15.1595C4.1758 14.4225 4.75648 13.6702 5.38946 13.0155C6.05947 12.322 6.80647 11.706 7.61754 11.1853C8.03776 10.9155 8.47386 10.6722 8.9223 10.453C9.09215 10.3701 8.94345 10.1168 8.77419 10.1991C7.85498 10.6475 6.99278 11.2041 6.20581 11.8571C5.47468 12.4642 4.81466 13.1542 4.23281 13.9047C3.67271 14.6276 3.18195 15.4017 2.7629 16.2145C2.3656 16.9838 2.02883 17.7855 1.74907 18.6054C1.49106 19.3618 1.28065 20.134 1.11609 20.9163C0.969743 21.6128 0.858662 22.3169 0.785196 23.0251C0.704089 23.8003 0.671177 24.5831 0.655308 25.3619C0.650606 25.584 0.627685 25.8456 0.704089 26.0595C0.755222 26.2023 0.860425 26.2782 1.00383 26.3134C1.06495 26.3287 1.12725 26.3405 1.18779 26.3581C1.20601 26.3634 1.22423 26.3693 1.24245 26.3751C1.2542 26.3792 1.26655 26.3834 1.2783 26.3881C1.29417 26.3945 1.27477 26.3869 1.27301 26.3857C1.28065 26.3892 1.28888 26.3928 1.29593 26.3969C1.35823 26.4304 1.38409 26.4492 1.41994 26.4821C1.60919 26.6567 1.70323 26.9276 1.77258 27.1944C1.95242 27.8891 1.96124 28.6185 2.02765 29.3296C2.0541 29.6165 2.0782 29.9162 2.16812 30.1918C2.23453 30.3964 2.33856 30.5521 2.5525 30.6132C2.80404 30.6855 3.0791 30.6973 3.33946 30.7085C3.70327 30.7237 4.06883 30.7167 4.43264 30.6955C4.82406 30.6732 5.21549 30.6338 5.6028 30.5686C5.91665 30.5157 6.23226 30.4475 6.52495 30.32C6.71067 30.2389 6.92167 30.1125 6.96751 29.8986C6.99043 29.7922 6.99337 29.6788 7.00042 29.5706C7.02922 29.1474 7.04333 28.7231 7.05861 28.2988C7.08094 27.6634 7.09916 27.0275 7.11621 26.3916C7.1356 25.6575 7.15323 24.924 7.16969 24.19C7.18556 23.4718 7.20084 22.753 7.21553 22.0348C7.22729 21.4453 7.23845 20.8558 7.24962 20.2669C7.25608 19.9195 7.26255 19.5716 7.26843 19.2242C7.26901 19.1784 7.27019 19.132 7.27078 19.0861C7.27372 18.8969 6.97985 18.8969 6.97691 19.0861H6.97515Z" fill="black"/>
<path d="M6.96338 11.502C6.96338 11.502 6.96338 9.18397 7.73389 8.59859C8.56435 7.96737 25.9335 7.98735 26.875 8.40934C27.5762 8.72378 27.6109 8.84661 28.0999 11.4943" fill="#C6C6C6"/>
<path d="M7.10959 11.5008C7.10959 11.1564 7.13722 10.8102 7.17894 10.4682C7.2148 10.1772 7.26652 9.88748 7.34468 9.60478C7.41521 9.34971 7.50631 9.08758 7.66676 8.87365C7.69379 8.8378 7.72612 8.80077 7.76021 8.76786C7.78019 8.74787 7.80135 8.72848 7.82427 8.71144C7.81428 8.71908 7.80429 8.72436 7.81839 8.71672C7.84367 8.70262 7.89245 8.68499 7.84484 8.70086C7.90655 8.68029 7.96709 8.66089 8.03056 8.6462C8.12166 8.62504 8.21452 8.60917 8.30679 8.59448C8.33324 8.59036 8.36028 8.58625 8.38673 8.58272C8.39966 8.58096 8.41317 8.5792 8.4261 8.57685C8.47841 8.5692 8.41141 8.57861 8.45079 8.57332C8.5125 8.56509 8.5748 8.55745 8.63651 8.5504C9.34531 8.46929 10.0594 8.43109 10.7723 8.39641C11.7556 8.34939 12.7394 8.3206 13.7239 8.29885C14.8441 8.27475 15.9643 8.26065 17.0845 8.25477C18.2047 8.24889 19.3561 8.25066 20.4916 8.26124C21.4972 8.27064 22.5022 8.28651 23.5078 8.31472C24.2619 8.33588 25.0159 8.36115 25.7682 8.41228C26.008 8.42874 26.2478 8.44696 26.4858 8.47693C26.4976 8.47811 26.5093 8.47987 26.5211 8.48163C26.5575 8.48634 26.4882 8.47693 26.5193 8.48163C26.5405 8.48457 26.5616 8.48751 26.5822 8.49104C26.6175 8.49633 26.6533 8.5022 26.688 8.50926C26.7156 8.51455 26.7438 8.52101 26.7709 8.52806C26.792 8.53394 26.8608 8.56333 26.7973 8.53394C26.9166 8.58919 27.0324 8.64385 27.1423 8.71731C27.1564 8.72672 27.1735 8.74082 27.1488 8.72143C27.1605 8.73083 27.1723 8.74023 27.1835 8.75023C27.2064 8.77021 27.2281 8.79137 27.2481 8.8137C27.2587 8.82487 27.2687 8.83721 27.2787 8.84896C27.291 8.86366 27.264 8.82663 27.2875 8.86131C27.3069 8.88952 27.3257 8.91714 27.3427 8.94711C27.4285 9.09581 27.4691 9.22687 27.5208 9.41024C27.5996 9.68765 27.6578 9.97035 27.7142 10.2525C27.7994 10.6786 27.8776 11.1058 27.9563 11.5331C27.9904 11.7188 28.2737 11.6401 28.2396 11.455C28.1068 10.7367 27.9992 10.0021 27.7947 9.29975C27.703 8.98414 27.5778 8.675 27.3045 8.47517C27.1529 8.36468 26.9666 8.26888 26.782 8.23009C26.5975 8.1913 26.4 8.17249 26.209 8.15486C25.539 8.09256 24.8655 8.06728 24.1937 8.04378C23.2263 8.00969 22.2577 7.99088 21.2897 7.97795C20.1613 7.96326 19.0328 7.95738 17.9044 7.95973C16.7525 7.96208 15.6005 7.97207 14.4486 7.99264C13.41 8.01086 12.3715 8.03672 11.3342 8.07963C10.5443 8.11195 9.75319 8.15015 8.96564 8.22421C8.69999 8.24948 8.43433 8.27769 8.17162 8.32177C8.01528 8.34763 7.84837 8.37408 7.70496 8.44519C7.56156 8.51631 7.45753 8.65501 7.37407 8.78137C7.21715 9.01941 7.12076 9.29916 7.04788 9.57305C6.90624 10.1061 6.84688 10.6633 6.82219 11.2128C6.81808 11.3092 6.81396 11.4056 6.81396 11.502C6.81396 11.6912 7.10783 11.6912 7.10783 11.502L7.10959 11.5008Z" fill="black"/>
<path d="M29.5835 20.3036C29.7492 18.6903 29.8491 16.9647 29.4942 15.3819C28.793 12.257 28.9864 11.4947 27.9384 11.4947C26.6807 11.4947 8.84667 11.5423 6.94126 11.4947C5.98738 11.4712 5.25977 17.3379 5.18336 17.9744C5.17866 18.0114 5.17925 18.0479 5.18454 18.0849C5.22215 18.3553 5.38907 19.5636 5.48311 20.2983C5.51073 20.5152 5.69586 20.6774 5.9145 20.6774H29.1533C29.3701 20.6774 29.5535 20.5181 29.5835 20.3036Z" fill="#DADADA"/>
<path d="M29.7304 20.3032C29.8568 19.0684 29.9438 17.8195 29.8274 16.58C29.7698 15.9664 29.6387 15.3722 29.5118 14.7709C29.4113 14.2937 29.3202 13.8141 29.2291 13.3351C29.1674 13.0101 29.1086 12.6833 29.0257 12.3624C28.9711 12.152 28.9064 11.9316 28.7883 11.7471C28.5855 11.432 28.2611 11.3474 27.9049 11.3474C27.3536 11.3474 26.8018 11.3492 26.2505 11.3504C25.192 11.3527 24.1335 11.3545 23.075 11.3568C21.7185 11.3592 20.362 11.3615 19.0055 11.3639C17.5691 11.3656 16.1321 11.3674 14.6957 11.3686C13.3974 11.3692 12.0997 11.3697 10.8014 11.368C9.85109 11.3668 8.90015 11.3656 7.94979 11.3598C7.67003 11.358 7.39086 11.3562 7.1111 11.3515C7.00825 11.3498 6.9007 11.3374 6.80196 11.3727C6.63916 11.4309 6.52396 11.5778 6.43404 11.7183C6.15604 12.1544 6.01381 12.6898 5.88216 13.1847C5.70467 13.8511 5.56949 14.5288 5.44842 15.2076C5.34028 15.8153 5.24507 16.426 5.15985 17.0372C5.12928 17.2564 5.0999 17.4757 5.07169 17.6949C5.04994 17.8647 5.02878 18.0187 5.05229 18.1903C5.10577 18.5782 5.15926 18.9661 5.21157 19.3546C5.24272 19.5862 5.27386 19.8178 5.30443 20.0493C5.33499 20.2809 5.3438 20.5195 5.53599 20.6841C5.69762 20.8222 5.87805 20.8251 6.072 20.8251C6.56804 20.8251 7.06408 20.8251 7.56013 20.8251C8.4664 20.8251 9.37327 20.8251 10.2795 20.8251H29.0569C29.0868 20.8251 29.1168 20.8257 29.1462 20.8251C29.4219 20.8175 29.6857 20.6294 29.7257 20.3432C29.7369 20.2638 29.7063 20.1863 29.6229 20.1622C29.5541 20.1422 29.453 20.1863 29.4418 20.265C29.406 20.5177 29.2026 20.5313 29.0087 20.5313H28.4744C27.7815 20.5313 27.0886 20.5313 26.3956 20.5313H6.09904C5.99207 20.5313 5.86101 20.5471 5.76638 20.4907C5.58419 20.382 5.60417 20.1005 5.57948 19.9159C5.54716 19.6732 5.51483 19.431 5.48192 19.1883C5.43196 18.821 5.36849 18.4525 5.33087 18.0834C5.31677 17.9458 5.35203 17.7954 5.36908 17.6584C5.39729 17.4404 5.42138 17.2611 5.45253 17.0401C5.63297 15.7583 5.83867 14.4688 6.17662 13.2176C6.30415 12.7444 6.43522 12.2343 6.71204 11.8282C6.74906 11.7735 6.7761 11.7371 6.84486 11.6795C6.85309 11.6724 6.82664 11.6883 6.86073 11.6695C6.8719 11.663 6.88365 11.6566 6.89482 11.6501C6.92421 11.6342 6.8672 11.6624 6.90187 11.6483C6.90834 11.6454 6.91774 11.643 6.92479 11.6425C6.95183 11.6395 6.88777 11.6442 6.91657 11.643C7.0059 11.6395 7.09641 11.6454 7.18574 11.6472C7.90277 11.6571 8.6198 11.6577 9.33742 11.6601C10.4882 11.663 11.6384 11.6636 12.7891 11.6642C14.168 11.6642 15.5462 11.663 16.925 11.6618C18.3261 11.6601 19.7267 11.6583 21.1278 11.656C22.3456 11.6536 23.5634 11.6519 24.7817 11.6489C25.611 11.6472 26.4403 11.6454 27.2696 11.6442C27.4753 11.6442 27.6804 11.6436 27.8861 11.643C27.9378 11.643 27.9901 11.643 28.0419 11.646C28.0648 11.6472 28.0883 11.6489 28.1112 11.6513C28.1488 11.6548 28.1136 11.6501 28.1435 11.656C28.1859 11.6636 28.2264 11.6736 28.267 11.6854C28.2764 11.6883 28.331 11.71 28.2958 11.6948C28.3128 11.7018 28.3293 11.71 28.3451 11.7189C28.3592 11.7265 28.3733 11.7353 28.3869 11.7441C28.3945 11.7488 28.4021 11.7541 28.4092 11.7594C28.4392 11.7806 28.3857 11.7394 28.4139 11.7629C28.4421 11.7864 28.468 11.8135 28.4927 11.8411C28.5173 11.8687 28.4909 11.8364 28.5091 11.8623C28.522 11.8805 28.5344 11.8993 28.5461 11.9187C28.6519 12.0927 28.7054 12.2948 28.7583 12.5099C28.84 12.8432 28.9005 13.1823 28.9646 13.5197C29.0569 14.0063 29.1509 14.4929 29.2544 14.9778C29.3813 15.5714 29.5006 16.1562 29.5482 16.7627C29.6399 17.9435 29.5564 19.1295 29.436 20.305C29.4166 20.4931 29.711 20.4919 29.7298 20.305L29.7304 20.3032Z" fill="black"/>
<path d="M27.1588 12.4316C27.1118 12.7084 27.0871 12.9899 27.0665 13.2697C27.0166 13.9567 27.0177 14.6473 27.0689 15.3344C27.1259 16.1019 27.2399 16.8683 27.3945 17.6224C27.4985 18.129 27.6231 18.6321 27.7777 19.1258C27.8423 19.3321 27.9087 19.5402 27.9928 19.74C28.0157 19.7946 28.0657 19.8346 28.1286 19.817C28.1803 19.8023 28.2291 19.737 28.2055 19.6812C28.1385 19.5219 28.0839 19.3568 28.0304 19.1928C27.8829 18.7403 27.7624 18.2795 27.6601 17.8152C27.3469 16.3935 27.1905 14.933 27.2734 13.4777C27.2875 13.2327 27.3075 12.9876 27.3363 12.7431C27.341 12.7049 27.3457 12.6667 27.3504 12.6285C27.351 12.6226 27.3551 12.5938 27.3504 12.6255C27.3516 12.6161 27.3528 12.6061 27.3545 12.5967C27.3563 12.5844 27.358 12.5721 27.3598 12.5597C27.3633 12.5362 27.3669 12.5127 27.3704 12.4898C27.3939 12.3511 27.1817 12.2917 27.1576 12.431L27.1588 12.4316Z" fill="black"/>
<path d="M7.39844 12.4126C7.4431 12.6154 7.46602 12.8093 7.48895 13.0027C7.55889 13.5975 7.58827 14.197 7.59474 14.7953C7.60884 16.1047 7.51069 17.4236 7.21742 18.7019C7.16687 18.9223 7.11398 19.145 7.0411 19.3596C6.99525 19.4941 7.20801 19.5517 7.25385 19.4183C7.31322 19.2426 7.35847 19.0616 7.40196 18.8817C7.52127 18.3875 7.60708 17.8861 7.67232 17.3824C7.77223 16.6137 7.81572 15.8391 7.8169 15.0644C7.81749 14.4238 7.79339 13.782 7.7258 13.1449C7.69759 12.881 7.66879 12.6136 7.61178 12.3538C7.58122 12.2151 7.36905 12.2739 7.39902 12.4126H7.39844Z" fill="black"/>
<path d="M5.78265 16.6311C5.80286 16.2568 5.64557 15.9439 5.43132 15.9324C5.21708 15.9208 5.02702 16.2149 5.00681 16.5893C4.9866 16.9636 5.14389 17.2765 5.35814 17.288C5.57238 17.2996 5.76244 17.0055 5.78265 16.6311Z" fill="#DADADA"/>
<path d="M5.67451 16.5942C5.66863 16.7775 5.62337 17.0238 5.46527 17.1425C5.41649 17.1789 5.36654 17.1883 5.32069 17.1678C5.25193 17.1366 5.20785 17.0614 5.17905 16.995C5.0903 16.791 5.09794 16.5389 5.16671 16.3309C5.19551 16.2445 5.23841 16.1563 5.30717 16.0946C5.35478 16.0517 5.40768 16.0299 5.45998 16.0493C5.64512 16.1187 5.67686 16.4249 5.67509 16.5942C5.67333 16.7358 5.89373 16.7364 5.89549 16.5942C5.89902 16.3408 5.83437 16.0076 5.59399 15.8695C5.35361 15.7314 5.12615 15.9118 5.0186 16.1193C4.88107 16.3849 4.85404 16.7311 4.95219 17.0144C5.02742 17.233 5.22313 17.471 5.48232 17.3799C5.78617 17.2736 5.88609 16.8786 5.89549 16.5942C5.90019 16.4525 5.67979 16.4525 5.67509 16.5942H5.67451Z" fill="black"/>
<path d="M29.7211 17.3448C29.935 17.3274 30.0836 17.0103 30.0532 16.6367C30.0227 16.263 29.8247 15.9742 29.6108 15.9916C29.397 16.0091 29.2483 16.3261 29.2788 16.6998C29.3092 17.0734 29.5073 17.3622 29.7211 17.3448Z" fill="#DADADA"/>
<path d="M29.9379 16.6032C29.9573 16.7913 29.9497 17.044 29.8063 17.188C29.7622 17.2321 29.714 17.248 29.6658 17.2333C29.6 17.2133 29.5453 17.1498 29.5077 17.0899C29.3925 16.9036 29.3573 16.6538 29.3972 16.4399C29.4143 16.3488 29.4425 16.2524 29.5013 16.1789C29.5389 16.1319 29.5959 16.099 29.6376 16.1037C29.7134 16.1125 29.7763 16.1818 29.8169 16.2453C29.8845 16.3523 29.9227 16.4775 29.9379 16.6027C29.945 16.6614 29.9832 16.7131 30.0484 16.7131C30.1025 16.7131 30.166 16.6626 30.1589 16.6027C30.1278 16.3499 30.0296 16.0296 29.7746 15.9168C29.5195 15.8039 29.3126 16.0061 29.2268 16.2306C29.1192 16.5121 29.1492 16.8565 29.2773 17.1257C29.379 17.3403 29.6071 17.5413 29.8545 17.4214C30.1366 17.2844 30.1871 16.8759 30.1589 16.6021C30.1531 16.5427 30.1125 16.4916 30.0484 16.4916C29.9938 16.4916 29.9321 16.5421 29.9379 16.6021V16.6032Z" fill="black"/>
<path d="M29.6649 19.4243C29.8794 19.4243 30.0533 19.1204 30.0533 18.7455C30.0533 18.3706 29.8794 18.0667 29.6649 18.0667C29.4503 18.0667 29.2764 18.3706 29.2764 18.7455C29.2764 19.1204 29.4503 19.4243 29.6649 19.4243Z" fill="#DADADA"/>
<path d="M29.9427 18.7082C29.9468 18.8945 29.9168 19.1525 29.7575 19.2777C29.7099 19.3153 29.6629 19.3253 29.6118 19.303C29.5506 19.2759 29.5019 19.2036 29.4701 19.1419C29.3702 18.9468 29.3632 18.6935 29.4202 18.4848C29.4443 18.3973 29.4807 18.3062 29.5448 18.2398C29.59 18.1927 29.6429 18.1681 29.6929 18.1804C29.7658 18.1986 29.8198 18.2744 29.8557 18.3414C29.915 18.4537 29.9374 18.583 29.9427 18.7088C29.9485 18.8498 30.1689 18.851 30.1631 18.7088C30.1525 18.4572 30.0749 18.1246 29.8281 17.9982C29.5812 17.8718 29.3632 18.0552 29.265 18.2709C29.1398 18.5442 29.131 18.888 29.2421 19.1678C29.3291 19.3864 29.5365 19.6145 29.7946 19.5087C30.089 19.3882 30.1695 18.9903 30.1636 18.7088C30.1607 18.5671 29.9403 18.5665 29.9433 18.7088L29.9427 18.7082Z" fill="black"/>
<path d="M5.42943 19.3859C5.64225 19.3586 5.77615 19.0351 5.72852 18.6632C5.68088 18.2914 5.46974 18.012 5.25692 18.0393C5.0441 18.0665 4.9102 18.3901 4.95784 18.7619C5.00547 19.1338 5.21661 19.4132 5.42943 19.3859Z" fill="#DADADA"/>
<path d="M5.61738 18.6554C5.64441 18.8346 5.63971 19.0897 5.50218 19.2284C5.45399 19.2772 5.4058 19.2878 5.35231 19.2678C5.29236 19.2454 5.23653 19.1849 5.1995 19.1279C5.07726 18.9398 5.03318 18.6883 5.06961 18.4685C5.08372 18.3821 5.11017 18.2886 5.16541 18.2187C5.18599 18.1928 5.21126 18.1687 5.24182 18.1564C5.26239 18.1476 5.29001 18.1464 5.30353 18.1487C5.38052 18.1611 5.44517 18.2316 5.48808 18.2974C5.5586 18.4056 5.59622 18.5296 5.61738 18.656C5.62737 18.7147 5.69966 18.7476 5.75314 18.7329C5.81544 18.7159 5.84013 18.6565 5.83014 18.5972C5.78782 18.3462 5.65852 18.0312 5.39404 17.9448C5.12956 17.8584 4.94913 18.0859 4.88154 18.3063C4.79279 18.5954 4.83805 18.9481 4.99027 19.2084C5.10664 19.4077 5.33703 19.5816 5.56977 19.4535C5.85423 19.2966 5.87245 18.8764 5.83014 18.5972C5.82132 18.5384 5.74727 18.5061 5.69437 18.5202C5.63148 18.5372 5.60856 18.5966 5.61738 18.656V18.6554Z" fill="black"/>
<path d="M8.1304 9.34506C8.13158 9.35212 8.13275 9.35917 8.13393 9.36622C8.13804 9.38914 8.13569 9.3815 8.13393 9.36798C8.13569 9.3815 8.13745 9.39502 8.13863 9.40913C8.14744 9.492 8.15215 9.57604 8.15391 9.6595C8.16037 9.97099 8.1304 10.2831 8.07633 10.5899C8.0299 10.8496 7.96642 11.1059 7.89002 11.3586C7.84888 11.4944 8.06164 11.5526 8.10278 11.4174C8.29438 10.7838 8.42779 10.0921 8.36138 9.42676C8.35667 9.38033 8.35197 9.33331 8.34316 9.28688C8.31671 9.14759 8.10454 9.20636 8.1304 9.34565V9.34506Z" fill="black"/>
<path d="M26.6987 9.07675C26.664 9.21898 26.6475 9.36767 26.6346 9.51284C26.6017 9.87194 26.6117 10.2352 26.6575 10.5931C26.6934 10.8717 26.7492 11.1467 26.8274 11.4171C26.8667 11.5528 27.0795 11.4953 27.0401 11.3583C26.9179 10.9346 26.8473 10.4979 26.8374 10.0571C26.8338 9.89545 26.8374 9.73383 26.8497 9.57338C26.8585 9.46053 26.8685 9.37061 26.885 9.27187C26.8926 9.22662 26.9002 9.18078 26.9114 9.13552C26.9449 8.99799 26.7327 8.93922 26.6987 9.07675Z" fill="black"/>
<path d="M11.0288 23.188C11.0288 23.188 10.0144 22.2511 11.3203 21.6546C12.6268 21.0581 13.864 22.2511 15.5314 22.2794" fill="#A495FC"/>
<path d="M11.1075 23.1098C11.0675 23.0728 11.0316 23.031 10.997 22.9893C10.9899 22.9805 10.9829 22.9717 10.9758 22.9629C10.9917 22.9828 10.967 22.9505 10.9629 22.9452C10.9441 22.92 10.9264 22.8935 10.91 22.8671C10.8782 22.8171 10.843 22.7513 10.8236 22.7054C10.7742 22.5885 10.7489 22.4521 10.7742 22.3334C10.8107 22.1612 10.9323 22.0219 11.0763 21.9191C11.4624 21.6446 11.935 21.5558 12.3993 21.617C12.8636 21.6781 13.3214 21.8579 13.7681 22.0119C14.34 22.2088 14.9242 22.3763 15.533 22.3886C15.6747 22.3916 15.6747 22.1712 15.533 22.1683C14.9694 22.1565 14.4275 22.0043 13.8974 21.8238C13.4219 21.6616 12.9476 21.4718 12.4469 21.403C11.942 21.3337 11.4284 21.4183 10.9993 21.7051C10.8201 21.825 10.6625 21.9814 10.5873 22.1871C10.5297 22.344 10.5338 22.5197 10.5814 22.6784C10.6467 22.8964 10.7848 23.1092 10.9523 23.2644C11.0563 23.3608 11.2127 23.205 11.108 23.1086L11.1075 23.1098Z" fill="black"/>
<path d="M12.4146 22.3759L12.6543 23.6989L15.0634 24.2161L17.0235 24.3936L17.6683 23.9428L17.7129 24.2614L17.7958 24.5482L20.3142 23.9428L22.2349 23.5426L22.9408 22.9396L21.8159 21.8264L18.0138 22.5922L15.2609 22.691L12.4146 22.3759Z" fill="#A495FC"/>
<path d="M18.3604 22.384C19.336 22.1606 20.1153 21.9467 20.6302 21.7986C21.989 21.4072 22.7718 20.8118 23.4865 21.3778C23.915 21.7169 24.0008 22.4692 23.8591 22.6913" fill="#A495FC"/>
<path d="M18.3898 22.4908C18.9276 22.3674 19.463 22.2346 19.9955 22.0906C20.4534 21.9672 20.9088 21.8379 21.3555 21.6768C21.7687 21.5276 22.186 21.336 22.6238 21.2707C22.9694 21.219 23.3203 21.3136 23.5472 21.5922C23.6841 21.7603 23.7611 21.9748 23.7969 22.1864C23.8122 22.2757 23.8169 22.368 23.811 22.4585C23.8087 22.4967 23.8052 22.5232 23.7946 22.5631C23.7905 22.579 23.7858 22.5949 23.7799 22.6107C23.787 22.5925 23.7687 22.6307 23.7658 22.636C23.6917 22.7577 23.8822 22.8682 23.9562 22.7471C24.0379 22.6131 24.042 22.4338 24.0297 22.2822C24.0121 22.0688 23.955 21.859 23.8575 21.6686C23.6688 21.2989 23.2997 21.0574 22.8848 21.0368C22.4699 21.0162 22.0326 21.1931 21.6394 21.3389C21.1557 21.5181 20.6691 21.6768 20.1724 21.8144C19.5629 21.983 18.9494 22.137 18.3328 22.2787C18.1947 22.3104 18.2529 22.5232 18.3916 22.4914L18.3898 22.4908Z" fill="black"/>
<path d="M17.6027 24.5639C17.849 24.5827 18.1052 24.551 18.3491 24.5222C19.1566 24.4276 19.9518 24.2395 20.7329 24.0173C21.4529 23.8128 22.1629 23.5748 22.8646 23.3162C22.9969 23.2674 22.9393 23.0546 22.8059 23.1034C21.7033 23.5095 20.5784 23.871 19.4282 24.1167C19.2425 24.156 19.0561 24.1925 18.8692 24.2248C18.7911 24.2383 18.7129 24.2507 18.6347 24.2624C18.5971 24.2683 18.5589 24.2736 18.5213 24.2789C18.5066 24.2806 18.4925 24.283 18.4778 24.2847C18.5013 24.2818 18.4667 24.2865 18.4649 24.2865C18.4543 24.2877 18.4443 24.2894 18.4337 24.2906C18.2333 24.3159 18.0323 24.3359 17.8301 24.3429C17.7543 24.3459 17.6779 24.3482 17.6021 24.3429C17.4605 24.3323 17.4611 24.5527 17.6021 24.5633L17.6027 24.5639Z" fill="black"/>
<path d="M12.0664 23.4302C12.0664 23.4302 14.2886 24.9718 17.0868 24.4334L12.0664 23.4302Z" fill="#A495FC"/>
<path d="M12.0113 23.5261C12.3005 23.7265 12.6261 23.8835 12.9476 24.0233C13.7099 24.3554 14.5215 24.5699 15.3514 24.6369C15.9415 24.6845 16.5351 24.651 17.1164 24.5405C17.2556 24.5141 17.1969 24.3013 17.0576 24.3278C16.1055 24.5088 15.1216 24.4594 14.1842 24.2185C13.57 24.0609 12.9729 23.8276 12.4198 23.5167C12.3187 23.4603 12.2176 23.4015 12.1224 23.3357C12.0055 23.2546 11.895 23.4456 12.0113 23.5261Z" fill="black"/>
</g>
</g>
</g>
</g>
<defs>
<clipPath id="clip0_2430_47099">
<rect width="36" height="36" fill="white"/>
</clipPath>
<clipPath id="clip1_2430_47099">
<rect width="43.3052" height="52.0313" fill="white" transform="translate(-3.65234 7.70801)"/>
</clipPath>
<clipPath id="clip2_2430_47099">
<rect width="36" height="36" fill="white"/>
</clipPath>
<clipPath id="clip3_2430_47099">
<rect width="39.6276" height="61.4329" fill="white" transform="translate(-0.487305 3.3501)"/>
</clipPath>
</defs>
</svg>
