<svg width="24" height="24" viewBox="0 0 24 24" fill="none" xmlns="http://www.w3.org/2000/svg">
<path d="M13.0176 8.91522C13.0957 8.99332 13.0957 9.11996 13.0176 9.19806L12.1414 10.0742C12.0633 10.1523 11.9367 10.1523 11.8586 10.0742L10.9824 9.19806C10.9043 9.11996 10.9043 8.99332 10.9824 8.91522L11.8586 8.03907C11.9367 7.96096 12.0633 7.96096 12.1414 8.03907L13.0176 8.91522Z" fill="#BFC7CE"/>
<path fill-rule="evenodd" clip-rule="evenodd" d="M12 11.0024C12.4142 11.0024 12.75 11.3382 12.75 11.7524L12.75 15.5027C12.75 15.9169 12.4142 16.2527 12 16.2527C11.5857 16.2527 11.25 15.9169 11.25 15.5027L11.25 11.7524C11.25 11.3382 11.5857 11.0024 12 11.0024Z" fill="#BFC7CE"/>
<path fill-rule="evenodd" clip-rule="evenodd" d="M12 18.5C15.5899 18.5 18.5 15.5899 18.5 12C18.5 8.41015 15.5899 5.5 12 5.5C8.41017 5.5 5.50002 8.41015 5.50002 12C5.50002 15.5899 8.41017 18.5 12 18.5ZM12 20C16.4183 20 20 16.4183 20 12C20 7.58172 16.4183 4 12 4C7.58175 4 4.00002 7.58172 4.00002 12C4.00002 16.4183 7.58175 20 12 20Z" fill="#BFC7CE"/>
</svg>
