<svg width="25" height="25" viewBox="0 0 25 25" fill="none" xmlns="http://www.w3.org/2000/svg">
<g clip-path="url(#clip0_1533_37546)">
<path d="M13.0086 11.8216C13.0086 11.5407 12.7808 11.3129 12.4999 11.3129C12.2189 11.3129 11.9911 11.5407 11.9911 11.8216V15.8914C11.9911 16.1723 12.2189 16.4001 12.4999 16.4001C12.7808 16.4001 13.0086 16.1723 13.0086 15.8914V11.8216Z" fill="#BFC7CE"/>
<path fill-rule="evenodd" clip-rule="evenodd" d="M12.4999 11.2087C12.8383 11.2087 13.1127 11.4831 13.1127 11.8216V15.8914C13.1127 16.2299 12.8383 16.5043 12.4999 16.5043C12.1614 16.5043 11.887 16.2299 11.887 15.8914V11.8216C11.887 11.4831 12.1614 11.2087 12.4999 11.2087ZM12.4999 11.3129C12.7808 11.3129 13.0086 11.5407 13.0086 11.8216V15.8914C13.0086 16.1723 12.7808 16.4001 12.4999 16.4001C12.2189 16.4001 11.9911 16.1723 11.9911 15.8914V11.8216C11.9911 11.5407 12.2189 11.3129 12.4999 11.3129Z" fill="#BFC7CE"/>
<g filter="url(#filter0_d_1533_37546)">
<path fill-rule="evenodd" clip-rule="evenodd" d="M12.4999 5.20825C8.47284 5.20825 5.20825 8.47284 5.20825 12.4999C5.20825 16.527 8.47284 19.7916 12.4999 19.7916C16.527 19.7916 19.7916 16.527 19.7916 12.4999C19.7916 8.47284 16.527 5.20825 12.4999 5.20825ZM6.22569 12.4999C6.22569 9.03476 9.03476 6.22569 12.4999 6.22569C15.9651 6.22569 18.7741 9.03476 18.7741 12.4999C18.7741 15.9651 15.9651 18.7741 12.4999 18.7741C9.03476 18.7741 6.22569 15.9651 6.22569 12.4999Z" fill="#BFC7CE"/>
<path d="M12.4999 5.15617C8.44408 5.15617 5.15617 8.44408 5.15617 12.4999C5.15617 16.5558 8.44408 19.8437 12.4999 19.8437C16.5558 19.8437 19.8437 16.5558 19.8437 12.4999C19.8437 8.44408 16.5558 5.15617 12.4999 5.15617ZM6.27778 12.4999C6.27778 9.06353 9.06353 6.27778 12.4999 6.27778C15.9363 6.27778 18.7221 9.06353 18.7221 12.4999C18.7221 15.9363 15.9363 18.7221 12.4999 18.7221C9.06353 18.7221 6.27778 15.9363 6.27778 12.4999Z" stroke="#BFC7CE" stroke-width="0.104167"/>
</g>
<path d="M13.2672 9.63906C13.3486 9.72042 13.3486 9.85233 13.2672 9.93369L12.6474 10.5536C12.566 10.6349 12.4341 10.6349 12.3527 10.5536L11.7328 9.93369C11.6515 9.85233 11.6515 9.72042 11.7328 9.63906L12.3527 9.01918C12.4341 8.93782 12.566 8.93782 12.6474 9.01918L13.2672 9.63906Z" fill="#BFC7CE"/>
</g>
<defs>
<filter id="filter0_d_1533_37546" x="1.104" y="5.104" width="22.7917" height="22.7917" filterUnits="userSpaceOnUse" color-interpolation-filters="sRGB">
<feFlood flood-opacity="0" result="BackgroundImageFix"/>
<feColorMatrix in="SourceAlpha" type="matrix" values="0 0 0 0 0 0 0 0 0 0 0 0 0 0 0 0 0 0 127 0" result="hardAlpha"/>
<feOffset dy="4"/>
<feGaussianBlur stdDeviation="2"/>
<feComposite in2="hardAlpha" operator="out"/>
<feColorMatrix type="matrix" values="0 0 0 0 0 0 0 0 0 0 0 0 0 0 0 0 0 0 0.25 0"/>
<feBlend mode="normal" in2="BackgroundImageFix" result="effect1_dropShadow_1533_37546"/>
<feBlend mode="normal" in="SourceGraphic" in2="effect1_dropShadow_1533_37546" result="shape"/>
</filter>
<clipPath id="clip0_1533_37546">
<rect width="25" height="25" fill="white"/>
</clipPath>
</defs>
</svg>
