<svg width="24" height="24" viewBox="0 0 24 24" fill="none" xmlns="http://www.w3.org/2000/svg">
<path d="M13.0173 8.91522C13.0954 8.99332 13.0954 9.11996 13.0173 9.19806L12.1411 10.0742C12.063 10.1523 11.9364 10.1523 11.8583 10.0742L10.9821 9.19806C10.904 9.11996 10.904 8.99332 10.9821 8.91522L11.8583 8.03907C11.9364 7.96096 12.063 7.96096 12.1411 8.03907L13.0173 8.91522Z" fill="#BFC7CE"/>
<path fill-rule="evenodd" clip-rule="evenodd" d="M11.9995 11.0024C12.4137 11.0024 12.7495 11.3382 12.7495 11.7524L12.7495 15.5027C12.7495 15.9169 12.4137 16.2527 11.9995 16.2527C11.5853 16.2527 11.2495 15.9169 11.2495 15.5027L11.2495 11.7524C11.2495 11.3382 11.5853 11.0024 11.9995 11.0024Z" fill="#BFC7CE"/>
<path fill-rule="evenodd" clip-rule="evenodd" d="M12 18.5C15.5899 18.5 18.5 15.5899 18.5 12C18.5 8.41015 15.5899 5.5 12 5.5C8.41015 5.5 5.5 8.41015 5.5 12C5.5 15.5899 8.41015 18.5 12 18.5ZM12 20C16.4183 20 20 16.4183 20 12C20 7.58172 16.4183 4 12 4C7.58172 4 4 7.58172 4 12C4 16.4183 7.58172 20 12 20Z" fill="#BFC7CE"/>
</svg>
