<svg width="40" height="40" viewBox="0 0 40 40" fill="none" xmlns="http://www.w3.org/2000/svg">
<rect width="40" height="40" rx="8" fill="#F0F2F5"/>
<mask id="mask0_4113_37882" style="mask-type:alpha" maskUnits="userSpaceOnUse" x="0" y="0" width="40" height="40">
<rect width="40" height="40" rx="8" fill="#F2E9FF"/>
</mask>
<g mask="url(#mask0_4113_37882)">
<path d="M34.8122 34.7039C34.8122 34.7039 37.2066 32.3297 37.4377 32.4288C37.6688 32.528 38.326 33.6709 38.4051 34.1425C38.4821 34.6007 35.7937 34.8158 34.8062 35.1642C33.8194 35.5125 34.8122 34.7039 34.8122 34.7039Z" fill="#B6ED31"/>
<path d="M34.9008 34.7931C35.2907 34.4066 35.6873 34.0267 36.0893 33.6529C36.3774 33.3856 36.6681 33.1196 36.9716 32.8697C37.0882 32.7739 37.1645 32.7103 37.2905 32.6265C37.328 32.6018 37.3669 32.5803 37.4064 32.5582C37.4298 32.5455 37.4158 32.5555 37.4044 32.5582C37.4111 32.5562 37.4178 32.5515 37.4245 32.5515C37.4553 32.5495 37.4031 32.5488 37.3984 32.5482C37.3528 32.5401 37.3937 32.5421 37.3917 32.5468C37.3923 32.5455 37.4272 32.5743 37.4037 32.5542C37.4305 32.577 37.4553 32.6018 37.4788 32.6286C37.5404 32.6969 37.59 32.7666 37.6422 32.8436C37.7816 33.0479 37.9048 33.2643 38.0167 33.4854C38.1152 33.6797 38.2103 33.8813 38.2646 34.0937C38.2693 34.1131 38.2733 34.1326 38.278 34.1527C38.28 34.1607 38.2813 34.1687 38.2827 34.1768C38.2753 34.1259 38.2807 34.1533 38.28 34.16C38.2753 34.1915 38.2874 34.1279 38.28 34.16C38.274 34.1855 38.2981 34.1406 38.2793 34.162C38.2679 34.1748 38.2659 34.1795 38.2807 34.162C38.2726 34.1707 38.2646 34.1788 38.2566 34.1875C38.2472 34.1975 38.2311 34.2089 38.2519 34.1929C38.2405 34.2016 38.2284 34.2096 38.2164 34.2176C38.0911 34.2974 37.9732 34.3315 37.8198 34.3771C37.6174 34.4367 37.4111 34.4829 37.2048 34.5265C36.7231 34.6276 36.238 34.708 35.7557 34.8025C35.5379 34.8454 35.3209 34.8903 35.1058 34.9445C34.9049 34.9961 34.7106 35.0785 34.5076 35.1201C34.4774 35.1261 34.4908 35.1241 34.4748 35.1247C34.4661 35.1247 34.4567 35.1247 34.448 35.1261C34.4225 35.1288 34.4453 35.1174 34.4506 35.1281C34.4506 35.1274 34.4372 35.1254 34.4366 35.1247C34.4835 35.1582 34.452 35.1321 34.45 35.1301C34.4808 35.1602 34.4868 35.1763 34.4915 35.1991C34.5036 35.2547 34.4808 35.1971 34.4942 35.1991C34.4942 35.1991 34.4794 35.2232 34.4982 35.1944C34.5062 35.1817 34.5143 35.169 34.523 35.1562C34.5404 35.1301 34.5197 35.1582 34.5418 35.1321C34.6302 35.0269 34.7327 34.9338 34.8365 34.844C34.8566 34.8266 34.8774 34.8092 34.8982 34.7925C34.9511 34.7489 34.9424 34.6598 34.8982 34.6149C34.8466 34.5627 34.7729 34.572 34.7206 34.6149C34.6409 34.6799 34.5632 34.7496 34.4895 34.8213C34.393 34.9157 34.2436 35.049 34.2403 35.1958C34.2356 35.4322 34.5364 35.376 34.6771 35.3364C34.8861 35.2775 35.0884 35.2045 35.3001 35.1549C35.7992 35.037 36.3064 34.9546 36.8102 34.8588C37.2456 34.7764 37.6985 34.7034 38.1132 34.5419C38.2445 34.491 38.3966 34.4287 38.4796 34.3081C38.5721 34.1748 38.5051 34.0086 38.4555 33.8706C38.3684 33.6261 38.2532 33.3909 38.1286 33.1638C38.004 32.9367 37.876 32.7277 37.7199 32.5301C37.6375 32.4262 37.5216 32.2735 37.3702 32.305C37.2771 32.3244 37.1907 32.3867 37.1143 32.4403C36.8128 32.652 36.5362 32.9026 36.2628 33.1491C35.7456 33.6154 35.2425 34.0977 34.7467 34.5874C34.7374 34.5962 34.7287 34.6055 34.7193 34.6142C34.6041 34.7281 34.7823 34.9057 34.8968 34.7918L34.9008 34.7931Z" fill="black"/>
<path d="M41.5001 40.7063C42.7837 38.0265 41.6844 35.7655 40.1442 35.0942C38.6047 34.4229 36.9359 35.3937 34.7076 35.882C32.4801 36.3704 31.498 35.2201 31.498 35.2201C31.498 35.2201 30.747 39.6967 35.5297 38.5069C41.5524 37.0089 41.4995 40.7069 41.4995 40.7069L41.5001 40.7063Z" fill="#C6C6C6"/>
<path d="M41.6079 40.7689C42.1479 39.6347 42.3824 38.3223 41.9978 37.1024C41.7138 36.2013 41.0881 35.3693 40.2071 34.9847C39.1379 34.5184 37.9749 34.8192 36.909 35.1361C36.2571 35.3297 35.6086 35.5381 34.9467 35.6969C34.3532 35.8396 33.7456 35.9273 33.1359 35.8429C32.7494 35.7893 32.3735 35.6721 32.0386 35.4778C31.9803 35.4436 31.9227 35.4081 31.8671 35.3693C31.8436 35.3532 31.8208 35.3364 31.798 35.3197C31.79 35.3137 31.7646 35.2942 31.7873 35.3116C31.7759 35.3029 31.7652 35.2942 31.7538 35.2848C31.7016 35.2426 31.6527 35.1964 31.6051 35.1495C31.5991 35.1435 31.5931 35.1368 31.587 35.1301C31.5287 35.0618 31.3921 35.0946 31.3773 35.1857C31.3499 35.3485 31.3385 35.5146 31.3331 35.6794C31.3204 36.0439 31.3472 36.4117 31.4229 36.7688C31.5147 37.2009 31.6875 37.6169 31.9655 37.9626C32.2911 38.3679 32.7587 38.6305 33.2612 38.7464C34.0296 38.9233 34.8376 38.8054 35.5919 38.6198C36.4943 38.3974 37.4282 38.2406 38.3608 38.2795C38.6884 38.2929 39.0126 38.3324 39.3308 38.4114C39.5934 38.4764 39.8299 38.5608 40.0584 38.6794C40.1595 38.7317 40.2574 38.7906 40.3518 38.8549C40.4463 38.9193 40.4952 38.9574 40.5863 39.0392C40.66 39.1048 40.7296 39.1752 40.7946 39.2489C40.8248 39.283 40.8536 39.3179 40.8811 39.3534C40.9005 39.3782 40.873 39.3426 40.8864 39.3607C40.8938 39.3701 40.9011 39.3802 40.9078 39.3895C40.9212 39.4076 40.934 39.4257 40.9467 39.4438C41.0398 39.5785 41.1182 39.7225 41.1845 39.8719C41.1979 39.9027 41.1799 39.8598 41.1866 39.8766C41.1892 39.8833 41.1926 39.8907 41.1953 39.8974C41.2026 39.9154 41.21 39.9335 41.2167 39.9523C41.2294 39.9851 41.2408 40.0186 41.2522 40.0521C41.273 40.1137 41.2911 40.176 41.3071 40.2397C41.3205 40.294 41.3326 40.3482 41.3426 40.4032C41.3473 40.4273 41.3514 40.4521 41.3547 40.4762C41.356 40.4869 41.3574 40.4976 41.3594 40.5077C41.3634 40.5318 41.3554 40.4762 41.3574 40.4936C41.3581 40.4996 41.3587 40.5063 41.3601 40.5124C41.3668 40.5693 41.3708 40.6256 41.3735 40.6825C41.3735 40.6899 41.3735 40.6973 41.3735 40.7046C41.3715 40.8661 41.6227 40.8668 41.6247 40.7046C41.626 40.584 41.6073 40.4614 41.5858 40.3435C41.5363 40.0709 41.4425 39.8049 41.3118 39.5604C41.1276 39.2154 40.8636 38.9199 40.5488 38.6888C40.124 38.3766 39.6115 38.1957 39.0957 38.1053C38.3005 37.9666 37.4845 38.0168 36.6906 38.1394C35.7768 38.2808 34.8885 38.6037 33.9539 38.5783C33.6478 38.5702 33.3496 38.5267 33.0582 38.4262C32.8445 38.3525 32.6013 38.2198 32.4352 38.0825C32.3467 38.0088 32.2643 37.9277 32.1886 37.8407C32.1712 37.8206 32.1551 37.8005 32.1384 37.7797C32.123 37.7603 32.125 37.7629 32.1002 37.7294C32.0674 37.6846 32.0366 37.639 32.0077 37.5914C31.8865 37.3958 31.8168 37.2357 31.7505 37.028C31.6882 36.8344 31.646 36.6348 31.6178 36.4331C31.6178 36.4331 31.6198 36.4472 31.6165 36.4231C31.6152 36.4117 31.6138 36.4003 31.6125 36.3896C31.6091 36.3641 31.6065 36.3387 31.6038 36.3132C31.5991 36.2683 31.5951 36.2234 31.5924 36.1785C31.5864 36.0914 31.5823 36.0044 31.581 35.9166C31.579 35.7752 31.583 35.6345 31.5931 35.4932C31.5964 35.4443 31.6011 35.3954 31.6065 35.3465C31.6085 35.3284 31.6105 35.3096 31.6131 35.2915C31.6138 35.2848 31.6152 35.2775 31.6158 35.2708C31.6125 35.3036 31.6212 35.2889 31.6145 35.2822C31.6118 35.2795 31.6185 35.2554 31.6192 35.2507L31.4095 35.3063C31.4973 35.4081 31.6105 35.4932 31.7197 35.5702C31.9943 35.7645 32.3105 35.9039 32.6341 35.9936C33.8259 36.3246 35.0466 35.9575 36.1915 35.6145C36.7857 35.4363 37.3773 35.2413 37.9842 35.1107C38.4968 35.0001 39.0347 34.9378 39.5539 35.0396C40.4831 35.2225 41.2066 35.9059 41.5959 36.7493C42.0923 37.8232 42.0065 39.0673 41.5992 40.1539C41.5376 40.3194 41.4673 40.4815 41.3916 40.641C41.3226 40.7864 41.5389 40.9136 41.6086 40.7676L41.6079 40.7689Z" fill="black"/>
<path d="M31.7128 35.5523C31.9533 35.8846 32.1751 36.2296 32.4853 36.503C32.6748 36.6698 32.8852 36.8065 33.119 36.9036C33.379 37.0121 33.6603 37.057 33.939 37.0885C34.4401 37.1455 34.9446 37.1133 35.439 37.0195C35.8899 36.9344 36.3287 36.7984 36.7675 36.6664C37.1842 36.5412 37.6063 36.4172 38.039 36.3603C38.4919 36.3007 38.9515 36.3208 39.3943 36.4373C39.8593 36.5593 40.3228 36.7676 40.7101 37.0543C40.9392 37.2238 41.1261 37.4422 41.2514 37.7062C41.3914 38.0003 41.4504 38.36 41.4718 38.6957C41.5046 39.2089 41.4698 39.7254 41.4229 40.2365C41.4088 40.3926 41.3927 40.5487 41.3753 40.7048C41.368 40.7725 41.4383 40.8308 41.5013 40.8308C41.5756 40.8308 41.6192 40.7732 41.6272 40.7048C41.6889 40.1448 41.7418 39.5807 41.7351 39.0166C41.7311 38.6274 41.6996 38.2274 41.5783 37.8549C41.4805 37.5541 41.3204 37.2788 41.0953 37.055C40.7992 36.7609 40.4133 36.5552 40.0334 36.3931C39.5658 36.1935 39.0681 36.0776 38.5582 36.0749C38.1101 36.0729 37.6659 36.1553 37.2344 36.2698C36.3401 36.5063 35.4725 36.8473 34.5353 36.8641C34.0161 36.8735 33.4426 36.8239 32.9864 36.5572C32.6045 36.3342 32.3251 35.9891 32.0759 35.6307C32.0277 35.5617 31.9801 35.4914 31.9306 35.423C31.8904 35.3674 31.822 35.342 31.7584 35.3782C31.7034 35.409 31.674 35.4954 31.7135 35.5503L31.7128 35.5523Z" fill="black"/>
<path d="M20.5379 45.2067C29.2099 45.2067 36.2399 38.1767 36.2399 29.5047C36.2399 20.8328 29.2099 13.8027 20.5379 13.8027C11.866 13.8027 4.83594 20.8328 4.83594 29.5047C4.83594 38.1767 11.866 45.2067 20.5379 45.2067Z" fill="#674AD6"/>
<path d="M35.9899 29.5053C35.9879 31.1312 35.736 32.7471 35.2335 34.2934C34.7311 35.8396 34.039 37.1821 33.1366 38.4543C32.2456 39.7098 31.159 40.8373 29.9363 41.7732C28.7137 42.7091 27.3236 43.4809 25.8638 44.0148C24.3477 44.5695 22.7486 44.8844 21.136 44.9447C19.5101 45.0056 17.8822 44.8154 16.3165 44.3719C14.8038 43.9431 13.3641 43.2812 12.0504 42.4177C10.7366 41.5541 9.60174 40.5251 8.61693 39.3353C7.63212 38.1455 6.81749 36.7915 6.23331 35.3572C5.63103 33.8787 5.25587 32.307 5.13461 30.7145C5.01 29.0799 5.13796 27.4285 5.52719 25.8354C5.91642 24.2423 6.50463 22.8481 7.3186 21.5049C8.1232 20.1771 9.12744 18.9759 10.2878 17.9442C11.4481 16.9125 12.7612 16.063 14.1727 15.4212C15.6151 14.7654 17.1714 14.3346 18.7457 14.155C20.3703 13.9701 22.0251 14.0351 23.6275 14.3614C25.1778 14.6776 26.6751 15.2303 28.0572 16.0021C29.4084 16.7564 30.6404 17.7111 31.7103 18.8292C32.7863 19.9533 33.6873 21.2376 34.382 22.6304C35.0768 24.0232 35.5685 25.5721 35.8124 27.1351C35.9343 27.9182 35.9899 28.7121 35.9912 29.5046C35.9912 29.8282 36.4943 29.8282 36.4937 29.5046C36.4917 27.8372 36.2351 26.169 35.7199 24.5826C35.2228 23.0518 34.4932 21.596 33.5607 20.285C32.6268 18.9726 31.5026 17.8089 30.2244 16.8281C28.9495 15.8493 27.5272 15.0715 26.0185 14.5175C24.5098 13.9634 22.8149 13.6278 21.1595 13.5628C19.4853 13.4978 17.7964 13.6961 16.1846 14.153C14.633 14.5925 13.1457 15.2718 11.7985 16.1582C10.4512 17.0445 9.25472 18.115 8.23708 19.3504C7.21945 20.5858 6.37936 21.9866 5.76636 23.4799C5.13997 25.006 4.76279 26.6286 4.6355 28.2733C4.50553 29.9508 4.6422 31.6518 5.0388 33.2871C5.42 34.8588 6.04773 36.3748 6.88582 37.7583C7.71521 39.1263 8.75227 40.373 9.94944 41.4342C11.1466 42.4961 12.4999 43.3804 13.9583 44.0396C15.4644 44.7196 17.0628 45.1604 18.7035 45.352C20.3797 45.5476 22.0867 45.4719 23.7408 45.1369C25.3325 44.8147 26.8741 44.2412 28.293 43.4514C29.6918 42.6729 30.9754 41.6787 32.0801 40.5211C33.1849 39.3634 34.1147 38.0443 34.8255 36.6147C35.5531 35.1522 36.0569 33.5805 36.3034 31.966C36.428 31.1513 36.4923 30.3293 36.4937 29.5053C36.4937 29.1817 35.9919 29.1817 35.9912 29.5053H35.9899Z" fill="black"/>
<path d="M19.284 45.2418C27.956 45.2418 34.986 38.2118 34.986 29.5399C34.986 20.8679 27.956 13.8379 19.284 13.8379C10.6121 13.8379 3.58203 20.8679 3.58203 29.5399C3.58203 38.2118 10.6121 45.2418 19.284 45.2418Z" fill="#A495FC"/>
<path d="M34.7124 30.3866C34.6226 32.0085 34.2803 33.611 33.6954 35.1264C33.138 36.5714 32.3536 37.9381 31.3875 39.148C30.4208 40.3593 29.2752 41.4291 27.9943 42.3027C26.708 43.1797 25.2944 43.8637 23.8052 44.3186C22.2603 44.7909 20.6484 45.0153 19.0332 44.9885C17.418 44.9617 15.7907 44.6803 14.2519 44.1531C12.7659 43.6439 11.3624 42.901 10.0989 41.9684C8.83542 41.0359 7.76286 39.9546 6.85375 38.7206C5.92857 37.4651 5.18895 36.073 4.67913 34.5991C4.16931 33.1253 3.87119 31.502 3.83568 29.9035C3.80018 28.3051 4.01991 26.6235 4.49423 25.0532C4.96854 23.4829 5.63514 22.1236 6.51946 20.8272C7.40377 19.5309 8.46629 18.4007 9.67887 17.434C10.8821 16.4747 12.24 15.6942 13.675 15.1368C15.163 14.5593 16.7387 14.2103 18.3324 14.1158C19.9664 14.0187 21.6111 14.1761 23.1948 14.5888C24.7263 14.9881 26.1895 15.6238 27.528 16.4686C28.8357 17.2947 30.0141 18.3177 31.0211 19.4914C32.0333 20.6711 32.8634 22.007 33.4811 23.4326C34.0987 24.8582 34.5047 26.4226 34.6581 27.9855C34.7365 28.7827 34.7519 29.5853 34.7104 30.3859C34.6936 30.7088 35.1961 30.7081 35.2128 30.3859C35.3006 28.7211 35.1304 27.0416 34.7017 25.4297C34.2729 23.8178 33.6338 22.3815 32.7736 21.0229C31.9181 19.6716 30.8603 18.4463 29.6437 17.4086C28.4217 16.3661 27.047 15.5046 25.5691 14.8742C24.0336 14.219 22.409 13.809 20.7462 13.6542C19.0767 13.4988 17.3825 13.6093 15.7472 13.9791C14.1742 14.3342 12.6534 14.9358 11.2606 15.7478C9.87919 16.553 8.61635 17.5687 7.5344 18.7464C6.45045 19.9262 5.54134 21.2687 4.85801 22.7178C4.14989 24.2198 3.68294 25.8203 3.46655 27.4656C3.25016 29.111 3.29438 30.8368 3.60255 32.4935C3.91072 34.1503 4.446 35.6288 5.20905 37.0565C5.97211 38.4841 6.93481 39.7657 8.07236 40.8905C9.20925 42.014 10.5176 42.9693 11.9372 43.7056C13.3937 44.4606 14.9653 44.9905 16.5832 45.2632C18.2588 45.5459 19.9671 45.5647 21.6486 45.3181C23.2571 45.0816 24.8235 44.5899 26.2839 43.8778C27.7236 43.1757 29.0554 42.2505 30.2218 41.1531C31.3882 40.0558 32.3844 38.7869 33.1709 37.3981C33.9574 36.0094 34.561 34.4317 34.8946 32.8345C35.0628 32.0286 35.168 31.2093 35.2135 30.3872C35.2316 30.0643 34.7291 30.065 34.7111 30.3872L34.7124 30.3866Z" fill="black"/>
<path d="M33.3086 29.5055C33.3065 30.9787 33.0788 32.4445 32.6239 33.846C32.1871 35.1912 31.5419 36.4648 30.7239 37.6184C29.906 38.7721 28.9252 39.7857 27.8124 40.6372C26.6996 41.4887 25.4442 42.1834 24.1197 42.6677C22.7952 43.1521 21.2959 43.4549 19.8341 43.5099C18.3609 43.5648 16.8837 43.3919 15.4655 42.99C14.0948 42.6014 12.7884 42.0018 11.5986 41.2187C10.4088 40.4355 9.37841 39.5036 8.48605 38.4257C7.587 37.3404 6.85008 36.1124 6.31815 34.8067C5.77215 33.4662 5.43315 32.0412 5.32328 30.5982C5.21341 29.1551 5.32731 27.6196 5.67969 26.1759C6.03208 24.7322 6.56602 23.468 7.30362 22.2508C8.03318 21.0475 8.94295 19.9582 9.99475 19.023C11.0445 18.0891 12.2364 17.3167 13.5153 16.7352C14.8283 16.1376 16.2419 15.7463 17.6756 15.5835C19.1481 15.4161 20.6474 15.4763 22.0998 15.7725C23.5047 16.0585 24.8627 16.561 26.1141 17.2597C27.3388 17.9431 28.4562 18.8093 29.4256 19.8222C30.4004 20.8412 31.2183 22.0056 31.8481 23.267C32.4885 24.55 32.9247 25.9327 33.1458 27.3496C33.257 28.0625 33.3086 28.784 33.3092 29.5055C33.3092 29.7212 33.6442 29.7212 33.6442 29.5055C33.6422 28.0048 33.4111 26.5042 32.9475 25.0759C32.4839 23.6476 31.8427 22.3888 31.0033 21.2083C30.1659 20.0319 29.1569 18.9868 28.012 18.1072C26.8651 17.2269 25.5855 16.5248 24.2276 16.0264C22.8274 15.5125 21.3448 15.2245 19.8549 15.1668C18.365 15.1092 16.8288 15.2868 15.3777 15.6974C13.9809 16.0934 12.6437 16.7043 11.4304 17.5022C10.2272 18.2934 9.14193 19.2642 8.22612 20.3763C7.3063 21.493 6.55932 22.7411 6.00997 24.0797C5.46062 25.4182 5.10556 26.9128 4.99033 28.3927C4.87309 29.9028 4.99569 31.4329 5.35276 32.9048C5.69644 34.3197 6.25985 35.683 7.01487 36.9284C7.76989 38.1738 8.69442 39.2805 9.77234 40.2365C10.8496 41.1919 12.0682 41.9871 13.3813 42.58C14.7312 43.1896 16.1662 43.5856 17.6374 43.7571C19.1461 43.9333 20.6823 43.8663 22.1709 43.5648C23.6032 43.2747 24.9906 42.7595 26.2682 42.0487C27.5277 41.348 28.682 40.4536 29.6768 39.4112C30.669 38.3714 31.5071 37.1823 32.1469 35.8953C32.7867 34.6084 33.2536 33.164 33.476 31.7109C33.5879 30.9807 33.6449 30.2431 33.6455 29.5042C33.6455 29.2884 33.3106 29.2884 33.3106 29.5042L33.3086 29.5055Z" fill="black"/>
<path d="M24.2809 26.5032C24.2688 26.934 24.2327 28.1948 23.4167 29.1997C23.2063 29.459 22.6436 30.1517 21.7512 30.214C20.9372 30.271 20.3497 29.7678 20.1883 29.6251C19.048 28.6189 19.0748 26.804 19.0815 26.3612C19.0882 25.9003 19.111 24.3762 20.0971 23.3807C20.2693 23.2065 20.7724 22.7127 21.5355 22.6477C22.4185 22.572 23.0676 23.12 23.3115 23.3606C24.3405 24.3768 24.2943 25.9988 24.2802 26.5026L24.2809 26.5032Z" fill="white"/>
<path d="M24.1137 26.5026C24.0963 27.1203 24.0126 27.7212 23.7634 28.3C23.5142 28.8788 23.0673 29.4758 22.5072 29.8027C22.1716 29.999 21.7804 30.0901 21.3925 30.0352C21.0535 29.9869 20.7386 29.8369 20.4653 29.6352C20.4284 29.6084 20.4164 29.599 20.3634 29.5541C20.3172 29.5153 20.2723 29.4751 20.2295 29.4335C20.0981 29.3076 19.9816 29.1683 19.8804 29.0169C19.6841 28.7227 19.5448 28.3972 19.4476 28.0582C19.2962 27.5316 19.2453 27.0184 19.2493 26.4677C19.2527 25.9673 19.2875 25.499 19.4081 25.0207C19.5749 24.3581 19.8998 23.7485 20.4264 23.303C20.6756 23.0919 21.0012 22.9157 21.3409 22.8434C21.7308 22.7603 22.1435 22.8193 22.5019 22.9894C23.0928 23.2695 23.5463 23.7773 23.8022 24.395C24.0581 25.0126 24.1218 25.6022 24.1205 26.2319C24.1205 26.3217 24.1184 26.4115 24.1158 26.5019C24.1097 26.7176 24.4447 26.7176 24.4507 26.5019C24.4675 25.9184 24.432 25.3302 24.2792 24.7641C24.0843 24.0399 23.6897 23.3867 23.0774 22.9432C22.7571 22.7107 22.3833 22.5473 21.99 22.4937C21.5318 22.4314 21.0702 22.5238 20.6629 22.7409C20.0157 23.0859 19.5454 23.6962 19.2708 24.3655C19.0262 24.961 18.9324 25.6122 18.9184 26.2527C18.9077 26.7438 18.9318 27.2335 19.0236 27.7172C19.1656 28.4635 19.4798 29.2098 20.0539 29.727C20.606 30.2241 21.3449 30.5041 22.0872 30.3313C22.7812 30.1691 23.3319 29.6406 23.7245 29.0678C24.1767 28.4079 24.3837 27.6107 24.4367 26.8201C24.444 26.7143 24.4474 26.6084 24.4507 26.5026C24.4568 26.2869 24.1218 26.2869 24.1158 26.5026H24.1137Z" fill="black"/>
<path d="M18.8766 26.6732C18.8645 27.1039 18.8284 28.3647 18.0124 29.3696C17.802 29.6289 17.2393 30.3216 16.3469 30.3839C15.5329 30.4409 14.9454 29.9378 14.784 29.7951C13.6437 28.7888 13.6705 26.9739 13.6772 26.5311C13.6839 26.0702 13.7067 24.5461 14.6929 23.5506C14.865 23.3764 15.3681 22.8826 16.1312 22.8177C17.0142 22.742 17.6634 23.29 17.9072 23.5305C18.9362 24.5468 18.89 26.1687 18.8759 26.6725L18.8766 26.6732Z" fill="#F2E9FF"/>
<path d="M18.7094 26.6725C18.692 27.2902 18.6083 27.8911 18.3591 28.4699C18.1099 29.0488 17.663 29.6457 17.1029 29.9726C16.7673 30.1689 16.376 30.26 15.9882 30.2051C15.6492 30.1568 15.3343 30.0068 15.061 29.8051C15.0241 29.7783 15.0121 29.7689 14.9591 29.7241C14.9129 29.6852 14.868 29.645 14.8252 29.6035C14.6938 29.4775 14.5773 29.3382 14.4761 29.1868C14.2798 28.8927 14.1405 28.5671 14.0433 28.2281C13.8919 27.7015 13.841 27.1884 13.845 26.6377C13.8484 26.1372 13.8832 25.6689 14.0038 25.1906C14.1706 24.528 14.4955 23.9184 15.0221 23.4729C15.2713 23.2619 15.5969 23.0857 15.9366 23.0133C16.3265 22.9302 16.7392 22.9892 17.0976 23.1594C17.6885 23.4394 18.142 23.9472 18.3979 24.5649C18.6538 25.1826 18.7175 25.7721 18.7161 26.4018C18.7161 26.4916 18.7141 26.5814 18.7115 26.6718C18.7054 26.8876 19.0404 26.8876 19.0464 26.6718C19.0632 26.0883 19.0277 25.5001 18.8749 24.934C18.68 24.2098 18.2854 23.5566 17.6731 23.1131C17.3528 22.8807 16.979 22.7172 16.5858 22.6636C16.1275 22.6013 15.6659 22.6937 15.2586 22.9108C14.6114 23.2558 14.1411 23.8661 13.8665 24.5354C13.6219 25.131 13.5282 25.7822 13.5141 26.4226C13.5034 26.9137 13.5275 27.4034 13.6193 27.8871C13.7613 28.6334 14.0755 29.3797 14.6496 29.8969C15.2238 30.4141 15.9406 30.674 16.6829 30.5012C17.3769 30.3391 17.9276 29.8105 18.3202 29.2377C18.7724 28.5778 18.9794 27.7806 19.0324 26.9901C19.0397 26.8842 19.0431 26.7784 19.0464 26.6725C19.0525 26.4568 18.7175 26.4568 18.7115 26.6725H18.7094Z" fill="black"/>
<path d="M18.9584 30.865C19.7109 30.865 20.321 30.3911 20.321 29.8065C20.321 29.2219 19.7109 28.748 18.9584 28.748C18.2058 28.748 17.5957 29.2219 17.5957 29.8065C17.5957 30.3911 18.2058 30.865 18.9584 30.865Z" fill="#CCFC56"/>
<path d="M20.1951 29.8072C20.1897 30.2587 19.7884 30.5703 19.3858 30.6828C18.9235 30.8121 18.3615 30.7324 18.0011 30.3974C17.6969 30.1147 17.6259 29.6786 17.8872 29.3402C18.1826 28.957 18.7313 28.8211 19.1929 28.8907C19.6545 28.9604 20.1884 29.2806 20.1951 29.8079C20.1971 29.9693 20.4483 29.97 20.4463 29.8079C20.4396 29.2465 19.9727 28.8398 19.4642 28.6938C18.9055 28.533 18.2349 28.6435 17.8081 29.0549C17.4256 29.4233 17.3593 29.9975 17.6869 30.4242C18.0453 30.8912 18.6851 31.0539 19.2471 30.9695C19.8092 30.8851 20.4383 30.453 20.4463 29.8085C20.4483 29.6471 20.1971 29.6464 20.1951 29.8085V29.8072Z" fill="black"/>
<path d="M20.7656 21.7577C20.7656 21.7577 21.3652 21.3028 22.1457 21.2426C23.2906 21.1535 24.0651 21.8147 24.2138 22.1383" fill="#A495FC"/>
<path d="M20.8507 21.9025C21.6693 21.2848 22.8678 21.2232 23.7066 21.8295C23.7528 21.863 23.7816 21.8857 23.8332 21.9326C23.8707 21.9661 23.9069 22.0016 23.9411 22.0392C23.9592 22.0593 23.9773 22.08 23.994 22.1008C23.9994 22.1068 24.0134 22.1262 23.9913 22.0968C23.9987 22.1061 24.0054 22.1162 24.0121 22.1256C24.0335 22.1564 24.053 22.1892 24.069 22.2234C24.1079 22.3051 24.2251 22.3266 24.2982 22.2837C24.3819 22.2348 24.3967 22.137 24.3585 22.0546C24.2801 21.8877 24.1354 21.7464 23.9933 21.6318C23.7676 21.4503 23.515 21.3123 23.2417 21.2165C22.559 20.976 21.8167 21.043 21.1635 21.3391C20.996 21.4148 20.8272 21.5032 20.6805 21.6144C20.6081 21.6687 20.5706 21.7591 20.6202 21.8435C20.6618 21.9145 20.777 21.9588 20.8493 21.9038L20.8507 21.9025Z" fill="black"/>
<path d="M17.3798 21.7577C17.3798 21.7577 16.7802 21.3028 15.9997 21.2426C14.8548 21.1535 14.0804 21.8147 13.9316 22.1383" fill="#A495FC"/>
<path d="M17.465 21.6133C17.071 21.3158 16.5585 21.1349 16.0722 21.082C15.4371 21.0123 14.7564 21.1765 14.2419 21.5617C14.0671 21.6923 13.8828 21.8518 13.7877 22.0534C13.7488 22.1352 13.7649 22.2343 13.848 22.2826C13.921 22.3254 14.0382 22.3047 14.0771 22.2223C14.0898 22.1948 14.1046 22.1687 14.1213 22.1432C14.132 22.1271 14.1434 22.111 14.1548 22.0956C14.13 22.1291 14.1689 22.0796 14.1776 22.0695C14.2419 21.9958 14.3136 21.9288 14.39 21.8672C14.5541 21.7345 14.802 21.6019 15.0257 21.5262C15.6267 21.3239 16.2799 21.3755 16.852 21.6441C17.0054 21.7165 17.1601 21.7989 17.2961 21.9014C17.3685 21.9556 17.4837 21.9127 17.5253 21.8411C17.5755 21.7553 17.5373 21.6669 17.465 21.6119V21.6133Z" fill="black"/>
<path d="M33.6526 23.3997H35.0695C35.231 23.3997 35.2316 23.1484 35.0695 23.1484H33.6526C33.4911 23.1484 33.4905 23.3997 33.6526 23.3997Z" fill="black"/>
<path d="M30.4182 18.5422H31.6964C31.8579 18.5422 31.8586 18.291 31.6964 18.291H30.4182C30.2568 18.291 30.2561 18.5422 30.4182 18.5422Z" fill="black"/>
<path d="M32.3752 20.9524H33.6535C33.8149 20.9524 33.8156 20.7012 33.6535 20.7012H32.3752C32.2138 20.7012 32.2131 20.9524 32.3752 20.9524Z" fill="black"/>
<path d="M34.5881 26.0833H35.8664C36.0278 26.0833 36.0285 25.832 35.8664 25.832C35.4932 25.832 35.1201 25.832 34.7462 25.832H34.5881C34.4267 25.832 34.426 26.0833 34.5881 26.0833Z" fill="black"/>
<path d="M34.9963 29.1047H36.2746C36.436 29.1047 36.4367 28.8535 36.2746 28.8535H34.9963C34.8349 28.8535 34.8342 29.1047 34.9963 29.1047Z" fill="black"/>
<path d="M34.6858 32.2493C35.059 32.2493 35.4321 32.2493 35.8059 32.2493H35.964C36.1255 32.2493 36.1262 31.998 35.964 31.998H34.6858C34.5243 31.998 34.5237 32.2493 34.6858 32.2493Z" fill="black"/>
<path d="M34.0471 34.8098H35.3254C35.4868 34.8098 35.4875 34.5586 35.3254 34.5586H34.0471C33.8857 34.5586 33.885 34.8098 34.0471 34.8098Z" fill="black"/>
<path d="M32.8362 37.6047H34.1144C34.2759 37.6047 34.2766 37.3535 34.1144 37.3535H32.8362C32.6747 37.3535 32.6741 37.6047 32.8362 37.6047Z" fill="black"/>
<path d="M31.4221 39.6301H32.7004C32.8618 39.6301 32.8625 39.3789 32.7004 39.3789H31.4221C31.2607 39.3789 31.26 39.6301 31.4221 39.6301Z" fill="black"/>
<path d="M8.69526 17.6175L6.82546 17.5371L4.94428 18.0804L3.48516 19.1463L2.87082 20.6751L2.9894 22.4444L3.66269 23.8734L2.68458 24.5601L2.21094 26.5236L2.43402 28.2152L3.18904 29.3575L4.37483 29.9423L5.67048 30.1279H6.19304L6.95544 30.2217L7.77611 29.8532L8.59008 29.4044L9.21647 28.3077L9.44491 26.8868L9.15282 25.5911L8.5807 24.4395L9.4898 23.8238L10.3473 22.4518L10.7667 20.9578L10.3681 19.7305L9.6613 18.9185L8.87346 18.5099L8.69526 17.6175Z" fill="#C6C6C6"/>
<path d="M32.3755 17.8822C33.8205 15.2782 30.6001 11.1708 26.9698 9.99706C23.3387 8.82333 20.472 9.8135 20.472 9.8135C15.8448 8.05291 10.2823 10.4734 8.04538 13.3622C5.80846 16.2503 9.03553 18.6526 9.03553 18.6526C11.519 19.4445 12.3135 18.2152 12.3135 18.2152L12.4877 17.9512L14.042 17.9304L14.2115 17.8125C14.2115 17.8125 13.5677 17.1761 14.2175 16.9905C14.8673 16.8043 17.0152 16.6328 17.0152 16.6328L19.0444 17.1486C19.0444 17.1486 20.8023 17.422 21.1855 16.9061C21.5687 16.3896 22.4148 16.5785 22.6775 16.9269C22.9401 17.2753 24.022 17.5017 24.8775 16.9845C25.7331 16.4673 24.4387 17.3436 25.2467 17.2364C26.054 17.1292 27.9499 16.1498 26.6643 17.6183C25.3787 19.0861 27.0575 18.1763 28.0035 18.4316C28.9494 18.6868 29.0285 18.2018 29.0285 18.2018C29.0285 18.2018 27.9204 20.15 28.7672 22.0164C29.614 23.8828 30.3449 24.1414 31.1495 24.1428C31.1495 24.1428 30.3489 25.4914 30.6577 26.7462C30.9666 28.0016 31.5387 29.4674 34.1595 28.979C34.1595 28.979 35.1825 28.9677 35.4712 28.8022C35.76 28.6367 36.4654 29.036 37.7678 27.2868L37.9527 25.0693L36.846 23.1251L35.7841 22.8022L36.9451 21.7035L37.3122 20.1727L36.8962 18.8885L36.0226 17.8226L34.8495 17.5359L33.7743 16.9825L32.7835 17.1011L32.3768 17.8829L32.3755 17.8822Z" fill="#C6C6C6"/>
<path d="M12.1667 18.1301C12.1366 18.1763 12.1821 18.1174 12.1527 18.1489C12.1145 18.1904 12.077 18.2326 12.0354 18.2708C11.9081 18.3874 11.7413 18.4912 11.5631 18.5669C10.9327 18.8342 10.1697 18.8034 9.53524 18.5682C8.90081 18.3331 8.36217 17.8387 7.99036 17.2518C7.6708 16.748 7.44637 16.1739 7.42359 15.5723C7.37 14.144 8.44591 12.995 9.4756 12.1429C10.5053 11.2907 11.7795 10.5886 13.0738 10.1197C14.4686 9.61521 15.9532 9.34121 17.4385 9.38811C18.1888 9.41156 18.9351 9.52008 19.6586 9.72174C19.8435 9.77332 20.0264 9.83093 20.208 9.89391C20.3045 9.9274 20.419 9.99574 20.5222 9.97095C20.5872 9.95487 20.6515 9.93075 20.7158 9.91334C21.6772 9.64871 22.6935 9.56497 23.6877 9.59445C25.2968 9.64268 26.9288 10.0111 28.3564 10.7655C29.5831 11.414 30.7072 12.3244 31.5333 13.4446C32.2012 14.3503 32.7492 15.4852 32.6119 16.6402C32.5831 16.8847 32.5154 17.1245 32.4223 17.3523C32.3874 17.4367 32.4598 17.5359 32.5395 17.5587C32.6353 17.5861 32.711 17.5252 32.7459 17.4414C33.2008 16.3347 32.8926 15.0966 32.3419 14.0857C31.6659 12.845 30.6121 11.8146 29.4478 11.0295C28.071 10.1009 26.4907 9.5643 24.848 9.35193C23.5758 9.18712 22.2634 9.22196 21.0079 9.4973C20.8645 9.52879 20.7218 9.56363 20.5811 9.60383C20.5503 9.61254 20.4472 9.62459 20.4264 9.65139C20.4847 9.57904 20.4961 9.66478 20.4606 9.63129C20.4445 9.61655 20.409 9.61254 20.3882 9.6045C20.346 9.58909 20.3038 9.57435 20.2609 9.55961C20.1638 9.52611 20.0666 9.49462 19.9688 9.46447C19.7799 9.40686 19.589 9.35528 19.3967 9.30972C19.0128 9.21928 18.6222 9.1543 18.2303 9.11075C16.6895 8.93925 15.1138 9.13286 13.6346 9.58171C12.1554 10.0306 10.8778 10.6663 9.69803 11.546C9.17682 11.9352 8.68441 12.3653 8.25096 12.8517C7.72908 13.4365 7.28157 14.1105 7.13954 14.895C7.0156 15.579 7.12948 16.2637 7.41421 16.8934C7.69893 17.5231 8.09621 18.0524 8.62546 18.4483C9.25922 18.9226 10.0571 19.141 10.8443 19.0741C11.3688 19.0292 11.9048 18.8597 12.2927 18.4892C12.3523 18.4323 12.4106 18.3686 12.4562 18.2996C12.5741 18.1187 12.2846 17.9506 12.1667 18.1308V18.1301Z" fill="black"/>
<path d="M15.4057 10.5098C15.1907 10.5078 14.991 10.684 14.8584 10.8354C14.648 11.0759 14.502 11.374 14.4343 11.6862C14.3452 12.0982 14.3841 12.529 14.5268 12.9249C14.7338 13.4997 15.1197 13.9928 15.5591 14.4102C16.2472 15.0633 17.0745 15.5651 17.9187 15.9905C18.054 16.0589 18.1907 16.1252 18.328 16.1902C18.4097 16.229 18.5089 16.2129 18.5571 16.1299C18.6 16.0569 18.5792 15.9396 18.4968 15.9008C17.6259 15.4901 16.7644 15.0144 16.0308 14.3854C15.5645 13.9854 15.1699 13.556 14.916 12.9999C14.9093 12.9859 14.9033 12.9718 14.8972 12.9577C14.8912 12.9437 14.8825 12.9222 14.8939 12.9497C14.8825 12.9222 14.8718 12.8941 14.8611 12.8659C14.8417 12.8137 14.8236 12.7614 14.8082 12.7078C14.778 12.6067 14.7552 12.5035 14.7385 12.399C14.7351 12.3769 14.7351 12.3742 14.7385 12.4003C14.7371 12.3876 14.7351 12.3756 14.7338 12.3628C14.7311 12.338 14.7284 12.3132 14.7271 12.2885C14.7237 12.2416 14.7217 12.1953 14.7217 12.1484C14.7217 12.1015 14.7231 12.0587 14.7258 12.0131C14.7271 11.9923 14.7291 11.9709 14.7311 11.9501C14.7331 11.9314 14.7425 11.8644 14.7338 11.9187C14.7586 11.7585 14.8001 11.6071 14.8591 11.4571C14.8403 11.5053 14.8591 11.4591 14.8671 11.4403C14.8751 11.4229 14.8832 11.4062 14.8912 11.3894C14.9066 11.3579 14.9234 11.3264 14.9415 11.2963C14.9743 11.2387 15.0111 11.1837 15.0507 11.1301C15.0788 11.0913 15.0292 11.1549 15.056 11.1228C15.0667 11.11 15.0775 11.0966 15.0882 11.0839C15.1069 11.0618 15.1264 11.0404 15.1465 11.0196C15.1652 11.0002 15.1847 10.9814 15.2054 10.9633C15.2148 10.9553 15.2242 10.9466 15.2336 10.9392C15.2416 10.9325 15.2778 10.9044 15.249 10.9265C15.2202 10.9486 15.2543 10.9231 15.2617 10.9178C15.2711 10.9111 15.2811 10.9044 15.2905 10.8983C15.3079 10.887 15.326 10.8762 15.3448 10.8669C15.3528 10.8628 15.3622 10.8595 15.3696 10.8548C15.3903 10.8427 15.32 10.8702 15.3595 10.8595C15.3749 10.8555 15.3917 10.8514 15.4064 10.8461C15.4077 10.8461 15.4171 10.8454 15.4178 10.8441C15.4111 10.8575 15.3742 10.8367 15.3863 10.8488C15.3883 10.8508 15.4044 10.8481 15.4077 10.8481C15.6235 10.8501 15.6235 10.5151 15.4077 10.5131L15.4057 10.5098Z" fill="black"/>
<path d="M13.1378 10.1339C12.8517 10.296 12.6085 10.572 12.4431 10.8507C12.0411 11.5253 12.0887 12.3406 12.3714 13.0508C12.7325 13.9579 13.3743 14.7303 14.1367 15.3312C14.7986 15.8531 15.5409 16.2598 16.3233 16.57C16.8412 16.775 17.3852 16.9525 17.9399 17.0202C18.0417 17.0329 18.1429 17.0476 18.2434 17.0671C18.3318 17.0845 18.4243 17.0423 18.4497 16.9498C18.4725 16.8674 18.4222 16.7609 18.3325 16.7435C18.2152 16.7207 18.0973 16.7033 17.9787 16.6892C17.9647 16.6872 17.8689 16.6738 17.9352 16.6845C17.9131 16.6812 17.8903 16.6778 17.8682 16.6745C17.7617 16.657 17.6558 16.6349 17.5507 16.6102C17.2686 16.5438 16.9906 16.4588 16.7173 16.3616C16.0038 16.1077 15.3084 15.76 14.6753 15.3165C13.9531 14.8114 13.32 14.1669 12.8986 13.3884C12.6816 12.9878 12.5114 12.5376 12.4846 12.0901C12.4793 12.0003 12.4793 11.9099 12.4846 11.8201C12.4873 11.7792 12.4906 11.7384 12.496 11.6982C12.5 11.6633 12.498 11.6848 12.4967 11.6921C12.498 11.6808 12.5 11.67 12.502 11.6586C12.5054 11.6372 12.5094 11.6151 12.5141 11.5937C12.5288 11.5186 12.5482 11.4449 12.5717 11.3719C12.5824 11.3384 12.5945 11.3056 12.6065 11.2728C12.6126 11.2567 12.6193 11.2413 12.6253 11.2252C12.6119 11.2567 12.6327 11.2091 12.6373 11.1997C12.6916 11.0818 12.7579 10.97 12.8343 10.8648C12.8424 10.8534 12.8511 10.842 12.8598 10.8306C12.8397 10.8567 12.8564 10.8353 12.8665 10.8226C12.8846 10.8005 12.9026 10.779 12.9207 10.7576C12.9549 10.7187 12.9911 10.6805 13.0279 10.6444C13.0594 10.6136 13.0916 10.5841 13.1244 10.5553C13.1385 10.5432 13.1525 10.5311 13.1673 10.5198C13.174 10.5144 13.1807 10.509 13.1874 10.5037C13.2162 10.4796 13.1646 10.5204 13.1807 10.509C13.2175 10.4829 13.2544 10.4568 13.2919 10.4313C13.2966 10.428 13.3019 10.4253 13.3073 10.4219C13.4949 10.3154 13.326 10.026 13.1385 10.1325L13.1378 10.1339Z" fill="black"/>
<path d="M20.662 16.489C20.9628 16.0321 21.204 15.5297 21.4137 15.0259C21.8069 14.0826 22.0769 13.0341 21.9349 12.0078C21.8498 11.3921 21.5886 10.8187 21.1665 10.3611C21.0198 10.2023 20.7833 10.4395 20.9293 10.5983C21.6361 11.3647 21.7386 12.4279 21.5584 13.4066C21.3976 14.2796 21.0727 15.0734 20.6547 15.8398C20.5656 16.0026 20.4745 16.1654 20.372 16.3202C20.2527 16.5004 20.5428 16.6686 20.6614 16.489H20.662Z" fill="black"/>
<path d="M21.4239 16.3976C21.9511 16.265 22.4556 16.0325 22.889 15.7029C23.3211 15.3739 23.6903 14.9639 23.9844 14.5077C24.5244 13.6696 24.8298 12.5595 24.318 11.635C24.0594 11.1681 23.628 10.8184 23.1583 10.5785C22.9667 10.4807 22.7972 10.7695 22.9895 10.8679C23.224 10.9872 23.4458 11.1299 23.638 11.3101C23.7794 11.4421 23.8812 11.5627 23.9783 11.7174C24.1813 12.0423 24.2651 12.4209 24.2463 12.8027C24.2222 13.2971 24.034 13.7748 23.7841 14.1969C23.5342 14.6189 23.2073 15.0082 22.8281 15.327C22.3973 15.6895 21.8808 15.938 21.3361 16.0747C21.1271 16.1269 21.2155 16.4505 21.4252 16.3976H21.4239Z" fill="black"/>
<path d="M25.9291 10.863C25.9446 10.8884 25.9579 10.9145 25.9713 10.9413C25.9868 10.9715 26.0015 11.0023 26.0156 11.0331C26.0243 11.0525 26.033 11.072 26.0417 11.0914C26.0591 11.1309 26.0337 11.0706 26.041 11.0887C26.0464 11.1021 26.0517 11.1155 26.0571 11.1289C26.163 11.3929 26.2373 11.6696 26.2829 11.9503C26.2856 11.9684 26.2889 11.9864 26.2916 12.0045C26.2936 12.0159 26.2949 12.0273 26.2963 12.0387C26.3003 12.0668 26.2916 11.9972 26.2963 12.0427C26.3023 12.0903 26.3077 12.1385 26.3117 12.1861C26.3204 12.2819 26.3257 12.3784 26.3278 12.4748C26.3318 12.6805 26.3164 12.9284 26.2902 13.1012C26.2139 13.6144 26.0404 14.1061 25.7905 14.559C25.3999 15.2671 24.8452 15.866 24.2302 16.3846C24.1612 16.4429 24.1699 16.5614 24.2302 16.6217C24.2985 16.6901 24.3977 16.68 24.4673 16.6217C25.4696 15.7769 26.3331 14.6756 26.5843 13.3611C26.727 12.6155 26.6755 11.8283 26.4088 11.1155C26.3552 10.9722 26.2969 10.8254 26.2186 10.6935C26.1087 10.5086 25.8186 10.6767 25.9291 10.8623V10.863Z" fill="black"/>
<path d="M29.8522 13.0378C29.8549 13.0431 29.8576 13.0491 29.8596 13.0545C29.8737 13.0853 29.8562 13.0485 29.8529 13.0378C29.8562 13.0478 29.8609 13.0572 29.865 13.0672C29.8897 13.1295 29.9105 13.1932 29.9299 13.2575C29.9581 13.354 29.9815 13.4524 29.9989 13.5516C30.0036 13.5791 30.0083 13.6065 30.0123 13.6347C30.0143 13.6461 30.0204 13.7017 30.0143 13.6461C30.0164 13.6635 30.019 13.6809 30.0204 13.699C30.0277 13.766 30.0331 13.833 30.0358 13.9006C30.0418 14.05 30.0365 14.1994 30.0197 14.3482C30.0184 14.3582 30.0103 14.4198 30.0164 14.3783C30.0137 14.3964 30.011 14.4151 30.0083 14.4332C30.0009 14.4775 29.9929 14.5217 29.9842 14.5659C29.9661 14.6536 29.944 14.7401 29.9179 14.8258C29.8576 15.0241 29.8006 15.1581 29.7035 15.339C29.599 15.5339 29.4724 15.7222 29.3364 15.887C28.9056 16.4089 28.3509 16.8088 27.762 17.1351C27.5738 17.2396 27.7419 17.529 27.9308 17.4245C28.8962 16.8892 29.8026 16.1282 30.1905 15.0643C30.4022 14.4835 30.4297 13.8363 30.2716 13.2387C30.2381 13.1135 30.1979 12.9875 30.141 12.8709C30.1014 12.7892 29.9855 12.7678 29.9118 12.8107C29.8288 12.8596 29.812 12.958 29.8516 13.0398L29.8522 13.0378Z" fill="black"/>
<path d="M31.1978 17.1109C30.7161 17.0519 30.2244 17.1297 29.7869 17.3414C29.3253 17.5651 28.9502 17.947 28.7083 18.3965C28.3995 18.97 28.293 19.6325 28.3057 20.2784C28.3198 21.0253 28.4658 21.785 28.7633 22.4717C29.1244 23.3058 29.8311 24.1365 30.7764 24.2859C31.0993 24.3368 31.4222 24.3094 31.6922 24.1111C32.0768 23.829 32.3662 23.4184 32.5933 23.005C33.2565 21.7964 33.426 20.3159 32.886 19.0289C32.6516 18.4702 32.3045 17.8813 31.7572 17.5785C31.376 17.3675 30.9245 17.328 30.5118 17.4673C29.59 17.7788 28.9937 18.7395 28.8323 19.66C28.7338 20.2248 28.7767 20.8103 28.9689 21.3509C29.0768 21.6544 29.2248 21.9425 29.4084 22.2071C29.592 22.4717 29.7849 22.7015 30.0315 22.8904C30.3564 23.139 30.7744 23.2629 31.1677 23.1042C31.5576 22.9467 31.8376 22.6017 32.0292 22.2379C32.259 21.8025 32.3869 21.3188 32.4358 20.8304C32.4848 20.342 32.4506 19.8536 32.2811 19.4054C32.1987 19.1877 32.0888 18.9894 31.9408 18.8099C31.8832 18.7402 31.7639 18.7502 31.7036 18.8099C31.6346 18.8789 31.646 18.9767 31.7036 19.047C31.713 19.0584 31.7224 19.0698 31.7317 19.0812C31.7277 19.0758 31.7137 19.0564 31.7324 19.0825C31.7472 19.1026 31.7612 19.1227 31.7753 19.1428C31.8061 19.1884 31.8343 19.2353 31.8611 19.2835C31.8838 19.3257 31.9053 19.3693 31.9254 19.4128C31.9307 19.4242 31.9361 19.4362 31.9408 19.4476C31.9287 19.4188 31.9414 19.4503 31.9448 19.4577C31.9548 19.4845 31.9656 19.5106 31.9749 19.5374C32.0111 19.6399 32.0399 19.7444 32.062 19.8509C32.0728 19.9012 32.0821 19.9521 32.0895 20.003C32.0922 20.0191 32.0942 20.0352 32.0969 20.0519C32.0929 20.0231 32.0969 20.0519 32.0969 20.0566C32.1009 20.0894 32.1042 20.1223 32.1069 20.1558C32.127 20.3856 32.123 20.618 32.0989 20.8478C32.0962 20.8759 32.0928 20.9041 32.0888 20.9322C32.0888 20.9362 32.0841 20.965 32.0882 20.9382C32.0861 20.9523 32.0841 20.9664 32.0821 20.9805C32.0734 21.0394 32.0627 21.0977 32.0513 21.1566C32.0285 21.2719 32.0004 21.3864 31.9669 21.4997C31.9012 21.7221 31.8396 21.8808 31.7358 22.0758C31.6319 22.2707 31.5468 22.3954 31.4196 22.5287C31.3894 22.5602 31.3579 22.591 31.3244 22.6198C31.3084 22.6339 31.2916 22.6473 31.2755 22.6613C31.2434 22.6874 31.2956 22.6473 31.2742 22.662C31.2621 22.6707 31.2507 22.6794 31.2387 22.6875C31.2065 22.7096 31.1737 22.7303 31.1402 22.7491C31.1241 22.7578 31.1087 22.7658 31.092 22.7739C31.0812 22.7792 31.0705 22.7839 31.0598 22.7886C31.1007 22.7699 31.0638 22.7866 31.0565 22.79C31.0196 22.8034 30.9828 22.8154 30.9446 22.8248C30.9258 22.8295 30.9064 22.8328 30.8876 22.8369C30.8803 22.8382 30.8722 22.8395 30.8648 22.8402C30.9138 22.8328 30.8675 22.8395 30.8568 22.8402C30.8193 22.8422 30.7818 22.8435 30.7443 22.8415C30.7242 22.8402 30.7041 22.8382 30.684 22.8362C30.7335 22.8422 30.6552 22.8302 30.6431 22.8275C30.6009 22.8181 30.5594 22.8054 30.5192 22.7906C30.5105 22.7873 30.5024 22.7846 30.4944 22.7812C30.4522 22.7652 30.5259 22.796 30.4837 22.7766C30.4622 22.7665 30.4408 22.7565 30.42 22.7451C30.3202 22.6928 30.2365 22.6325 30.1681 22.5742C29.9551 22.392 29.7782 22.1676 29.6261 21.9331C29.3267 21.4688 29.1418 20.9309 29.1163 20.3936C29.0935 19.9119 29.1893 19.4182 29.3876 18.9974C29.4359 18.8949 29.4895 18.7951 29.5491 18.6993C29.5779 18.6524 29.6087 18.6062 29.6402 18.5606C29.6556 18.5385 29.6717 18.5164 29.6884 18.4943C29.6864 18.4977 29.7186 18.4548 29.7052 18.4722C29.6985 18.4809 29.728 18.4441 29.732 18.4387C29.7983 18.357 29.87 18.2786 29.9457 18.2056C29.9825 18.1701 30.0207 18.1359 30.0603 18.1024C30.1132 18.0575 30.1072 18.0629 30.1634 18.022C30.2445 17.9637 30.3302 17.9115 30.4193 17.8666C30.4408 17.8559 30.4622 17.8458 30.4837 17.8358C30.4924 17.8318 30.5011 17.8277 30.5098 17.8244C30.4736 17.8405 30.5165 17.8217 30.5219 17.8197C30.5654 17.8029 30.6089 17.7875 30.6538 17.7741C30.6987 17.7607 30.7423 17.75 30.7871 17.7406C30.8093 17.7359 30.832 17.7326 30.8541 17.7286C30.8977 17.7212 30.8294 17.7313 30.8568 17.7286C30.8729 17.7266 30.8883 17.7252 30.9044 17.7239C30.9948 17.7165 31.0859 17.7179 31.1757 17.7286C31.1322 17.7232 31.2012 17.7333 31.2125 17.7353C31.2353 17.7393 31.2581 17.744 31.2802 17.7493C31.3278 17.7607 31.3753 17.7748 31.4216 17.7916C31.4343 17.7962 31.4852 17.8163 31.4752 17.8123C31.4638 17.8076 31.51 17.8284 31.5214 17.8344C31.571 17.8585 31.6192 17.886 31.6661 17.9155C31.7652 17.9785 31.8115 18.0153 31.8999 18.0997C31.9883 18.1841 32.0761 18.284 32.1384 18.369C32.5518 18.9331 32.8063 19.6258 32.8633 20.3219C32.9142 20.951 32.8164 21.5814 32.6027 22.1743C32.5095 22.4336 32.3936 22.6814 32.2556 22.9219C32.1337 23.133 32.0011 23.3279 31.857 23.4967C31.7927 23.5718 31.7257 23.6435 31.654 23.7104C31.6219 23.7406 31.5897 23.7694 31.5556 23.7969C31.5475 23.8036 31.5395 23.8096 31.5314 23.8163C31.5113 23.8324 31.5636 23.7929 31.5314 23.8163C31.5147 23.8284 31.4973 23.8411 31.4798 23.8531C31.4524 23.8719 31.4236 23.8893 31.3941 23.9054C31.38 23.9128 31.3653 23.9195 31.3512 23.9275C31.3144 23.9469 31.3854 23.9188 31.3331 23.9342C31.305 23.9422 31.2782 23.951 31.2494 23.957C31.2347 23.9603 31.2193 23.963 31.2045 23.9657C31.1985 23.967 31.1918 23.9677 31.1858 23.969C31.1536 23.9764 31.2293 23.965 31.1878 23.969C31.1188 23.9751 31.0504 23.9784 30.9814 23.9751C30.9452 23.9731 30.9097 23.969 30.8736 23.9657C30.8508 23.9637 30.9064 23.9717 30.8575 23.963C30.8367 23.9597 30.8159 23.9556 30.7958 23.9516C30.7128 23.9349 30.6317 23.9121 30.552 23.8846C30.5339 23.8786 30.5165 23.8719 30.4984 23.8652C30.4883 23.8612 30.4361 23.8397 30.4522 23.8471C30.4683 23.8545 30.422 23.8337 30.412 23.829C30.3879 23.8176 30.3631 23.8062 30.3396 23.7942C30.1534 23.6997 30.0013 23.5925 29.8653 23.4726C29.6905 23.3185 29.5377 23.143 29.4144 22.9661C29.0734 22.4751 28.8711 21.905 28.7539 21.3221C28.6199 20.6535 28.5784 19.94 28.7358 19.2714C28.853 18.7743 29.0788 18.3215 29.4466 17.9785C29.537 17.8941 29.59 17.8525 29.6858 17.7875C29.7816 17.7225 29.8754 17.6703 29.9758 17.6227C30.0375 17.5933 30.0335 17.5953 30.0917 17.5732C30.1467 17.5524 30.2029 17.5336 30.2592 17.5169C30.3624 17.4867 30.4676 17.464 30.5734 17.4479C30.6264 17.4398 30.5399 17.4512 30.5929 17.4452C30.6036 17.4439 30.6143 17.4425 30.625 17.4418C30.6518 17.4392 30.6786 17.4365 30.7054 17.4345C30.7597 17.4305 30.8133 17.4284 30.8675 17.4284C30.9767 17.4284 31.0859 17.4351 31.1945 17.4485C31.2842 17.4593 31.3619 17.3635 31.3619 17.2811C31.3619 17.1812 31.2849 17.125 31.1945 17.1136L31.1978 17.1109Z" fill="black"/>
<path d="M31.102 18.2549C30.6036 18.1692 30.1601 18.5309 29.8921 18.9155C29.5371 19.426 29.4386 20.0885 29.6021 20.6848C29.7247 21.1323 29.9839 21.5276 30.3001 21.8625C30.4482 22.02 30.6847 21.7821 30.5373 21.6254C30.0891 21.1504 29.7843 20.5294 29.874 19.8648C29.9055 19.6316 29.9893 19.3965 30.1139 19.1895C30.1789 19.0816 30.2278 19.0153 30.3075 18.9289C30.345 18.8887 30.3839 18.8498 30.4254 18.813C30.4455 18.7955 30.4656 18.7781 30.4864 18.7614C30.4649 18.7781 30.5172 18.7393 30.5272 18.7319C30.5761 18.6984 30.6271 18.6676 30.68 18.6421C30.6887 18.6381 30.6974 18.6341 30.7054 18.6301C30.741 18.6127 30.6833 18.6381 30.7168 18.6254C30.7423 18.6153 30.7677 18.6066 30.7939 18.5993C30.8173 18.5926 30.8401 18.5872 30.8642 18.5818C30.8749 18.5792 30.885 18.5778 30.8957 18.5765C30.8522 18.5838 30.891 18.5765 30.9011 18.5765C30.9259 18.5751 30.95 18.5738 30.9748 18.5745C30.9828 18.5745 30.9908 18.5758 30.9989 18.5758C31.0478 18.5778 30.9848 18.5725 31.0136 18.5771C31.1027 18.5926 31.1938 18.5537 31.22 18.4599C31.2421 18.3795 31.1925 18.269 31.1027 18.2536L31.102 18.2549Z" fill="black"/>
<path d="M31.1967 17.4458C31.4098 17.4284 31.6282 17.4418 31.8399 17.4652C31.864 17.4679 31.8881 17.4706 31.9122 17.4739C31.9444 17.478 31.8807 17.4692 31.9136 17.4739C31.927 17.4759 31.9404 17.478 31.9544 17.48C32.0067 17.488 32.0583 17.4967 32.1099 17.5068C32.2204 17.5282 32.3303 17.5543 32.4388 17.5858C32.4957 17.6026 32.552 17.6206 32.6083 17.6401C32.6344 17.6495 32.6605 17.6588 32.6867 17.6689C32.7001 17.6736 32.7128 17.6789 32.7262 17.6843C32.7336 17.687 32.7791 17.7064 32.7651 17.7004C32.749 17.6937 32.7851 17.7091 32.7905 17.7118C32.8039 17.7178 32.8166 17.7238 32.8294 17.7292C32.8602 17.7432 32.8903 17.758 32.9205 17.7734C32.9747 17.8009 33.0283 17.8303 33.0806 17.8618C33.1355 17.8953 33.1898 17.9302 33.242 17.9677C33.2561 17.9777 33.2702 17.9884 33.2843 17.9992C33.2997 18.0106 33.2829 17.9978 33.2802 17.9958C33.2863 18.0005 33.2923 18.0052 33.2983 18.0099C33.3238 18.0307 33.3492 18.0514 33.3747 18.0735C33.4256 18.1177 33.4738 18.164 33.5201 18.2129C33.5435 18.2377 33.5663 18.2631 33.5891 18.2893C33.5998 18.3013 33.6098 18.3134 33.6199 18.3261C33.6246 18.3321 33.654 18.369 33.6386 18.3489C33.8316 18.5981 33.9448 18.8587 34.0178 19.1582C34.0661 19.3578 34.0842 19.5487 34.1009 19.7544C34.121 20.0016 34.1337 20.2502 34.1378 20.498C34.1438 20.8839 34.127 21.2926 34.0694 21.659C34.0245 21.9431 33.9562 22.2231 33.8557 22.4924C33.8456 22.5192 33.8356 22.5454 33.8249 22.5715C33.8195 22.5842 33.8142 22.5969 33.8095 22.6097C33.7947 22.6458 33.8135 22.6003 33.8028 22.6264C33.78 22.6787 33.7566 22.7303 33.7318 22.7812C33.6862 22.8763 33.6366 22.9688 33.5844 23.0605C33.5603 23.1034 33.5348 23.1463 33.51 23.1885C33.4001 23.3741 33.6896 23.5429 33.7994 23.3573C34.0587 22.9198 34.2543 22.4569 34.3555 21.9572C34.4312 21.5833 34.4647 21.2015 34.4727 20.8203C34.4828 20.3225 34.4647 19.814 34.391 19.3209C34.2952 18.6745 33.9743 18.097 33.4491 17.7044C33.0478 17.4043 32.554 17.2354 32.0623 17.1591C31.7843 17.1162 31.4942 17.0874 31.2121 17.1088C31.2074 17.1088 31.2034 17.1088 31.1987 17.1095C31.1083 17.1169 31.0312 17.1812 31.0312 17.277C31.0312 17.3621 31.1083 17.4518 31.1987 17.4445L31.1967 17.4458Z" fill="black"/>
<path d="M32.7821 17.2663C32.8605 17.2576 32.9402 17.2562 33.0193 17.2555C33.107 17.2549 33.1948 17.2576 33.2825 17.2629C33.3341 17.2663 33.3851 17.2703 33.436 17.275C33.4634 17.2777 33.4909 17.281 33.5177 17.2837C33.5324 17.2857 33.5472 17.2877 33.5626 17.289C33.5184 17.2837 33.5592 17.289 33.5787 17.2917C33.8426 17.3306 34.1032 17.3969 34.3511 17.496C34.3591 17.4994 34.4168 17.5235 34.3745 17.5054C34.39 17.5121 34.4054 17.5188 34.4208 17.5255C34.4556 17.5409 34.4904 17.5577 34.5246 17.5744C34.5909 17.6073 34.6552 17.6428 34.7189 17.681C34.7879 17.7225 34.8549 17.7674 34.9192 17.8149C34.9272 17.821 34.9681 17.8525 34.9393 17.8303C34.954 17.8417 34.9681 17.8531 34.9822 17.8645C35.0143 17.8913 35.0458 17.9181 35.0766 17.9462C35.1403 18.0039 35.2006 18.0655 35.2568 18.1298C35.283 18.1593 35.3078 18.1894 35.3325 18.2203C35.3386 18.2283 35.3453 18.2357 35.3513 18.2437C35.3332 18.2203 35.3493 18.241 35.3526 18.2457C35.3674 18.2658 35.3828 18.2866 35.3975 18.3073C35.4505 18.3824 35.4987 18.4601 35.5422 18.5405C35.5644 18.5813 35.5858 18.6222 35.6059 18.6644C35.6153 18.6845 35.6253 18.7046 35.634 18.7254C35.6474 18.7555 35.6514 18.7649 35.6575 18.7796C35.8363 19.2178 35.9007 19.6787 35.904 20.147C35.9074 20.6742 35.8471 21.2068 35.6615 21.7033C35.5389 22.0322 35.3493 22.341 35.0994 22.5836C35.0431 22.6378 34.9842 22.6894 34.9232 22.7376C34.952 22.7149 34.9179 22.7417 34.9078 22.749C34.8951 22.7584 34.8817 22.7678 34.8683 22.7772C34.8395 22.7973 34.81 22.8174 34.7798 22.8361C34.7249 22.871 34.6686 22.9024 34.6104 22.9319C34.5842 22.9453 34.5574 22.958 34.5306 22.9701C34.5186 22.9755 34.5058 22.9808 34.4938 22.9862C34.4683 22.9976 34.5038 22.9815 34.5065 22.9808C34.4971 22.9842 34.4884 22.9882 34.4797 22.9915C34.3866 23.0277 34.2921 23.0585 34.1943 23.08C34.1568 23.088 34.1193 23.0927 34.0818 23.1007C34.0577 23.1054 34.134 23.0954 34.0945 23.0987C34.0865 23.0994 34.0784 23.1007 34.0704 23.1014C34.0557 23.1028 34.0416 23.1041 34.0268 23.1048C34.0061 23.1054 33.9853 23.1061 33.9652 23.1048C33.8748 23.0974 33.7977 23.1872 33.7977 23.2722C33.7977 23.3694 33.8748 23.4324 33.9652 23.4397C34.1159 23.4525 34.2801 23.4109 34.4228 23.3674C34.6901 23.285 34.9359 23.151 35.1557 22.9788C35.8605 22.4261 36.1492 21.5257 36.2209 20.6628C36.2999 19.7095 36.1626 18.6785 35.5235 17.9275C35.1054 17.4364 34.5032 17.1363 33.8788 17.007C33.5284 16.9346 33.1559 16.8971 32.7982 16.93C32.7922 16.93 32.7868 16.9306 32.7808 16.9313C32.691 16.9413 32.6133 17.001 32.6133 17.0988C32.6133 17.1819 32.6903 17.2763 32.7808 17.2663H32.7821Z" fill="black"/>
<path d="M34.8485 17.7035C34.9014 17.6975 34.9563 17.6975 35.0099 17.6981C35.0682 17.6995 35.1271 17.7028 35.1854 17.7089C35.1948 17.7095 35.2518 17.7169 35.2223 17.7129C35.1928 17.7089 35.2531 17.7176 35.2625 17.7189C35.3034 17.7256 35.3442 17.7337 35.3844 17.7424C35.4708 17.7618 35.5559 17.7866 35.6397 17.8167C35.6611 17.8248 35.6825 17.8328 35.7033 17.8408C35.7087 17.8429 35.7515 17.8609 35.7147 17.8455C35.7234 17.8496 35.7321 17.8529 35.7408 17.8569C35.7897 17.8797 35.8379 17.9032 35.8855 17.9286C36.1012 18.0472 36.2567 18.1765 36.4201 18.3688C36.8422 18.8665 37.0385 19.6048 37.0512 20.26C37.0626 20.8629 36.8904 21.4753 36.53 21.9442C36.3484 22.18 36.1388 22.3663 35.8909 22.5096C35.8313 22.5445 35.7703 22.576 35.7073 22.6041C35.6698 22.6215 35.6082 22.6456 35.5445 22.6664C35.4849 22.6858 35.4246 22.7019 35.3636 22.7153C35.3322 22.722 35.3007 22.7274 35.2692 22.7327C35.2611 22.7341 35.2263 22.7381 35.2591 22.7341C35.2384 22.7367 35.2176 22.7388 35.1968 22.7401C35.1064 22.7481 35.0293 22.8118 35.0293 22.9076C35.0293 22.992 35.1064 23.0831 35.1968 23.0751C35.7455 23.0275 36.2506 22.7468 36.6238 22.3475C37.0753 21.8645 37.3252 21.2321 37.3775 20.5762C37.409 20.1809 37.3641 19.779 37.2689 19.3944C37.1798 19.034 37.0445 18.6776 36.8368 18.3681C36.5468 17.936 36.128 17.6111 35.6289 17.459C35.3851 17.3846 35.105 17.3364 34.8491 17.3665C34.7594 17.3772 34.6816 17.4362 34.6816 17.534C34.6816 17.6164 34.7587 17.7122 34.8491 17.7015L34.8485 17.7035Z" fill="black"/>
<path d="M30.8296 24.1527C30.7037 24.487 30.6206 24.8421 30.5576 25.1925C30.4303 25.904 30.3968 26.659 30.6018 27.3597C30.7137 27.7416 30.8999 28.098 31.1652 28.3955C31.4674 28.7344 31.8647 28.9723 32.2894 29.1257C32.7141 29.2791 33.1616 29.3541 33.6045 29.2804C33.9495 29.2228 34.2691 29.0527 34.519 28.8081C35.0261 28.3117 35.2378 27.5801 35.3229 26.8948C35.3617 26.5793 35.3724 26.259 35.349 25.9422C35.3302 25.6829 35.2921 25.4229 35.2009 25.1784C35.0629 24.8066 34.8713 24.4502 34.6308 24.1347C34.3689 23.7896 34.048 23.4795 33.6366 23.3227C33.2052 23.1586 32.7362 23.2503 32.3584 23.5016C32.0904 23.6798 31.8667 23.9143 31.6697 24.1682C31.4922 24.3966 31.3428 24.6344 31.2389 24.9051C30.9301 25.711 31.1271 26.6918 31.7635 27.286C32.0402 27.5446 32.4006 27.7235 32.7845 27.7249C33.1998 27.7255 33.577 27.5105 33.8483 27.2063C34.0272 27.0053 34.1679 26.7735 34.2811 26.5303C34.3193 26.4486 34.3039 26.3501 34.2208 26.3012C34.1485 26.259 34.0299 26.2791 33.9917 26.3615C33.8872 26.5853 33.7619 26.8037 33.5978 26.9839C33.4625 27.1326 33.3392 27.2318 33.1543 27.3149C33.1241 27.3282 33.1456 27.3182 33.1516 27.3162C33.1422 27.3202 33.1328 27.3236 33.1235 27.3269C33.102 27.3343 33.0813 27.3416 33.0598 27.3483C33.0203 27.3604 32.9794 27.3705 32.9386 27.3778C32.9285 27.3798 32.8743 27.3865 32.9118 27.3825C32.8903 27.3845 32.8689 27.3865 32.8475 27.3879C32.8073 27.3899 32.7671 27.3899 32.7269 27.3879C32.7081 27.3865 32.6893 27.3852 32.6706 27.3832C32.625 27.3792 32.694 27.3872 32.6659 27.3832C32.6565 27.3818 32.6471 27.3805 32.6378 27.3785C32.5982 27.3718 32.5587 27.3624 32.5205 27.3517C32.4823 27.341 32.4435 27.3269 32.4053 27.3128C32.3671 27.2988 32.4147 27.3189 32.3785 27.3014C32.3584 27.2921 32.339 27.2827 32.3195 27.2733C32.2445 27.2351 32.1735 27.1896 32.1058 27.14C32.0797 27.1206 32.0985 27.1346 32.1038 27.1387C32.0958 27.1326 32.0877 27.1259 32.0804 27.1199C32.063 27.1052 32.0455 27.0904 32.0281 27.075C31.9953 27.0455 31.9638 27.0154 31.933 26.9839C31.9022 26.9524 31.872 26.9182 31.8439 26.8841C31.8084 26.8412 31.8117 26.8459 31.7776 26.7977C31.724 26.722 31.6764 26.6422 31.6335 26.5598C31.5846 26.4654 31.5665 26.4225 31.5324 26.322C31.5009 26.2295 31.4761 26.1351 31.4573 26.0393C31.4527 26.0138 31.448 25.9877 31.4439 25.9616C31.4392 25.9328 31.4466 25.983 31.4426 25.9542C31.4413 25.9428 31.4399 25.9308 31.4386 25.9194C31.4332 25.8691 31.4299 25.8189 31.4279 25.7686C31.4245 25.6655 31.4285 25.5623 31.4406 25.4598C31.4607 25.2869 31.5297 25.0485 31.6114 24.8763C31.7354 24.615 31.9116 24.3785 32.1052 24.1648C32.2807 23.9719 32.479 23.797 32.7148 23.6811C32.8836 23.598 33.0545 23.5612 33.2447 23.5739C33.2554 23.5746 33.3044 23.5793 33.295 23.5779C33.2856 23.5766 33.3345 23.5846 33.3445 23.5866C33.3921 23.596 33.439 23.6081 33.4852 23.6235C33.5315 23.6389 33.5616 23.6503 33.581 23.6597C33.6259 23.6804 33.6695 23.7025 33.7123 23.7273C33.8818 23.8245 34.0024 23.9277 34.1431 24.075C34.4024 24.3464 34.6074 24.6706 34.7735 25.0237C34.7909 25.0605 34.8077 25.098 34.8238 25.1355C34.8258 25.1396 34.8378 25.1684 34.8298 25.1496C34.8204 25.1268 34.8385 25.1711 34.8378 25.1697C34.8459 25.1891 34.8539 25.2092 34.8613 25.2287C34.8841 25.287 34.9055 25.3459 34.9229 25.4062C34.9537 25.5121 34.9732 25.6206 34.9899 25.7291C34.9966 25.7713 34.9866 25.6963 34.9913 25.7392C34.9933 25.7539 34.9953 25.7693 34.9966 25.784C35.0006 25.8189 35.004 25.8537 35.0073 25.8886C35.0134 25.9582 35.0174 26.0279 35.0201 26.0976C35.0261 26.2483 35.0241 26.3997 35.016 26.5504C35.012 26.6302 35.0053 26.7092 34.9973 26.789C34.9933 26.8291 34.9886 26.8693 34.9832 26.9095C34.9825 26.9169 34.9785 26.9424 34.9832 26.9075C34.9819 26.9169 34.9805 26.9263 34.9792 26.9363C34.9758 26.9578 34.9732 26.9792 34.9698 27.0006C34.9444 27.1634 34.9102 27.3249 34.8666 27.4837C34.8445 27.5627 34.8204 27.6411 34.793 27.7188C34.7796 27.757 34.7655 27.7952 34.7501 27.8334C34.7434 27.8508 34.736 27.8689 34.7286 27.8863C34.7427 27.8528 34.7179 27.9098 34.7146 27.9185C34.6503 28.0625 34.5739 28.2018 34.4834 28.3318C34.4714 28.3486 34.4593 28.3653 34.4473 28.3814C34.4419 28.3888 34.4365 28.3961 34.4312 28.4028C34.4345 28.3981 34.452 28.3767 34.4325 28.4008C34.4084 28.431 34.3836 28.4598 34.3582 28.4886C34.3072 28.5449 34.253 28.5985 34.1954 28.648C34.18 28.6608 34.1646 28.6735 34.1491 28.6862C34.1773 28.6634 34.1384 28.6942 34.1297 28.7003C34.0989 28.7224 34.0674 28.7438 34.0353 28.7639C34.0031 28.784 33.9696 28.8028 33.9354 28.8209C33.9194 28.8296 33.9033 28.8376 33.8865 28.845C33.8758 28.8497 33.8309 28.8698 33.8436 28.8644C33.8577 28.8584 33.8075 28.8785 33.7988 28.8812C33.7814 28.8879 33.7633 28.8939 33.7458 28.8993C33.707 28.912 33.6681 28.9227 33.6286 28.9321C33.5891 28.9415 33.5469 28.9502 33.506 28.9569C33.4959 28.9589 33.4859 28.9602 33.4765 28.9616C33.4832 28.9609 33.5094 28.9575 33.4765 28.9616C33.4537 28.9642 33.4303 28.9662 33.4075 28.9683C33.2119 28.9837 33.0283 28.9683 32.8562 28.9348C32.6364 28.8919 32.404 28.8215 32.2097 28.7344C32.1105 28.6902 32.0141 28.6407 31.9209 28.585C31.8794 28.5603 31.8379 28.5341 31.7977 28.5067C31.7782 28.4933 31.7588 28.4799 31.7394 28.4658C31.73 28.4591 31.7206 28.4517 31.7106 28.445C31.6851 28.4263 31.7153 28.4497 31.6891 28.4283C31.391 28.1925 31.1907 27.9278 31.0359 27.5808C31.0145 27.5326 31.0205 27.5466 30.9984 27.4904C30.9817 27.4468 30.9656 27.4026 30.9515 27.3577C30.9241 27.274 30.8999 27.1882 30.8798 27.1025C30.835 26.9115 30.8182 26.791 30.8035 26.6101C30.776 26.2724 30.7901 25.9328 30.8303 25.5971C30.8323 25.5784 30.835 25.5603 30.837 25.5415C30.8403 25.5134 30.8336 25.5643 30.8403 25.5174C30.8464 25.4772 30.8524 25.437 30.8584 25.3968C30.8698 25.3238 30.8832 25.2514 30.8973 25.1791C30.9221 25.0505 30.9509 24.9225 30.983 24.7952C31.0246 24.6304 31.0714 24.4663 31.1271 24.3055C31.1344 24.2834 31.1425 24.2613 31.1505 24.2398C31.1827 24.1554 31.115 24.0563 31.0333 24.0335C30.9395 24.0074 30.8591 24.0657 30.8269 24.1507L30.8296 24.1527Z" fill="black"/>
<path d="M33.0285 27.3156C33.0252 27.3115 33.0218 27.3075 33.0191 27.3035C33.0151 27.2988 33.0118 27.2934 33.0077 27.2888C32.9836 27.2599 33.0372 27.3289 33.0124 27.2948C32.9776 27.2472 32.9428 27.1996 32.9106 27.1507C32.863 27.0791 32.8188 27.0054 32.7773 26.9303C32.7538 26.8881 32.7317 26.8453 32.7103 26.8017C32.6989 26.7789 32.6882 26.7555 32.6775 26.7327C32.6721 26.7206 32.6667 26.7086 32.6614 26.6972C32.6426 26.6543 32.6627 26.7019 32.652 26.6758C32.6084 26.5672 32.5709 26.4567 32.5428 26.3435C32.5287 26.2865 32.5173 26.2289 32.508 26.1713C32.5073 26.1659 32.5006 26.117 32.506 26.1572C32.5039 26.1425 32.5026 26.1277 32.5013 26.1123C32.4979 26.0775 32.4952 26.042 32.4939 26.0072C32.4838 25.7439 32.5354 25.5094 32.6647 25.283C32.8617 24.9359 33.2027 24.686 33.5604 24.4978C33.7514 24.3973 33.5819 24.1079 33.3916 24.2084C33.0258 24.4013 32.6855 24.6539 32.449 24.9976C32.2708 25.2562 32.1723 25.5637 32.1596 25.8772C32.1402 26.3662 32.3257 26.8533 32.5837 27.262C32.6473 27.3624 32.7156 27.4616 32.7927 27.5527C32.851 27.6217 32.9696 27.613 33.0298 27.5527C33.0982 27.4844 33.0881 27.3852 33.0298 27.3156H33.0285Z" fill="black"/>
<path d="M33.922 29.1564C34.21 29.2053 34.5102 29.1919 34.7969 29.147C35.373 29.0573 35.8963 28.7678 36.2467 28.2975C36.4778 27.9874 36.6158 27.6102 36.6861 27.2323C36.7752 26.7554 36.7833 26.2603 36.6982 25.7819C36.5769 25.1006 36.2225 24.4709 35.6866 24.0307C35.4153 23.8083 35.0876 23.5953 34.7453 23.5001C34.74 23.4988 34.7353 23.4968 34.7299 23.4954C34.5222 23.4365 34.4338 23.7594 34.6408 23.8183C34.6602 23.8237 34.679 23.8304 34.6984 23.8371C34.7205 23.8451 34.7426 23.8532 34.7641 23.8612C34.7775 23.8666 34.7902 23.8719 34.8036 23.8773C34.8378 23.8907 34.7741 23.8639 34.7942 23.8733C34.8029 23.8773 34.8116 23.8806 34.8204 23.8847C34.9959 23.9624 35.1634 24.0582 35.3195 24.1687C35.3429 24.1855 35.3657 24.2022 35.3885 24.219C35.422 24.2438 35.3757 24.2083 35.3992 24.227C35.4126 24.2377 35.426 24.2484 35.4394 24.2592C35.491 24.3014 35.5412 24.3449 35.5901 24.3911C35.6926 24.4869 35.7877 24.5908 35.8742 24.7013C35.8554 24.6772 35.8909 24.7234 35.8943 24.7288C35.905 24.7435 35.9157 24.7583 35.9264 24.773C35.9492 24.8058 35.972 24.8387 35.9934 24.8722C36.0363 24.9398 36.0765 25.0088 36.114 25.0798C36.1957 25.2366 36.2493 25.3719 36.3009 25.5501C36.4215 25.9655 36.4436 26.3949 36.4061 26.8277C36.388 27.0354 36.3512 27.2404 36.2929 27.4407C36.2406 27.6202 36.185 27.7589 36.0926 27.921C36.053 27.99 36.0095 28.057 35.9626 28.1214C35.9566 28.1301 35.9499 28.1381 35.9438 28.1468C35.9458 28.1441 35.9579 28.1294 35.9458 28.1441C35.9338 28.1589 35.9231 28.1723 35.911 28.1863C35.8849 28.2172 35.8574 28.2473 35.8293 28.2768C35.7804 28.3277 35.7281 28.3759 35.6732 28.4208C35.6605 28.4315 35.6477 28.4416 35.6343 28.4523C35.6598 28.4322 35.6263 28.4583 35.6176 28.4644C35.5894 28.4845 35.5606 28.5046 35.5318 28.5233C35.4749 28.5602 35.4166 28.5937 35.3563 28.6238C35.3288 28.6379 35.3014 28.6513 35.2732 28.6633C35.2672 28.666 35.225 28.6841 35.2458 28.6754C35.2639 28.668 35.2217 28.6854 35.2123 28.6888C35.0997 28.733 34.9838 28.7672 34.8652 28.7933C34.811 28.8054 34.7567 28.8154 34.7024 28.8234C34.6897 28.8255 34.677 28.8268 34.6643 28.8288C34.7138 28.8214 34.6723 28.8275 34.6602 28.8288C34.6321 28.8322 34.6046 28.8348 34.5765 28.8375C34.4867 28.8456 34.3963 28.8496 34.3058 28.8489C34.2368 28.8489 34.1678 28.8456 34.0988 28.8402C34.0747 28.8382 34.0513 28.8355 34.0271 28.8335C34.0191 28.8328 34.0111 28.8315 34.0024 28.8308C33.9796 28.8288 34.0586 28.8389 34.0251 28.8342C34.0204 28.8335 34.0151 28.8328 34.0104 28.8322C33.9213 28.8167 33.8302 28.8556 33.8041 28.9494C33.782 29.0298 33.8315 29.1403 33.9213 29.1557L33.922 29.1564Z" fill="black"/>
<path d="M35.6357 22.9941C35.6571 22.9941 35.6785 22.9947 35.6993 22.9961C35.7227 22.9974 35.7462 22.9994 35.7696 23.0021C35.7844 23.0034 35.7985 23.0055 35.8132 23.0075C35.7529 23.0008 35.8246 23.0095 35.838 23.0115C35.9251 23.0256 36.0115 23.0457 36.0966 23.0704C36.1448 23.0845 36.193 23.1006 36.2399 23.118C36.3056 23.1421 36.3136 23.1455 36.3759 23.175C36.936 23.4396 37.2958 23.9333 37.5242 24.5014C37.7527 25.0695 37.8659 25.7368 37.7828 26.3699C37.6997 27.003 37.4036 27.6274 36.9474 28.0956C36.8215 28.2249 36.6935 28.3382 36.5287 28.4152C36.3853 28.4822 36.2272 28.5204 36.0718 28.5465C35.9164 28.5726 35.7174 28.5867 35.5405 28.574C35.4501 28.5673 35.373 28.6557 35.373 28.7415C35.373 28.8373 35.4501 28.9022 35.5405 28.9089C35.706 28.9203 35.8748 28.9089 36.0383 28.8868C36.3706 28.8433 36.6989 28.7475 36.9648 28.5358C37.2502 28.3087 37.4914 28.0032 37.6763 27.6903C37.8612 27.3775 37.9858 27.0539 38.0608 26.7102C38.2109 26.0235 38.1533 25.2987 37.9295 24.6347C37.7064 23.9742 37.3413 23.3478 36.729 22.9827C36.4114 22.7931 36.0102 22.6517 35.6343 22.6584C35.4193 22.6625 35.4186 22.9974 35.6343 22.9934L35.6357 22.9941Z" fill="black"/>
<path d="M18.1993 17.071C18.3882 17.2003 18.6301 17.2747 18.8505 17.3262C19.4374 17.4629 20.0551 17.4187 20.6345 17.266C21.145 17.1313 21.6321 16.9116 22.089 16.6489L21.8599 16.5886C22.1814 17.0556 22.7395 17.3644 23.2942 17.4354C24.0392 17.5306 24.7955 17.3604 25.3737 16.8693C25.7194 16.5759 25.982 16.1914 26.191 15.7921C26.2908 15.6012 26.0021 15.4317 25.9016 15.6233C25.582 16.2322 25.1251 16.7937 24.4659 17.0094C23.8328 17.2171 23.0684 17.1755 22.5131 16.7729C22.4273 16.7106 22.3168 16.6114 22.2303 16.5163C22.2042 16.4875 22.1801 16.456 22.154 16.4265C22.1466 16.4178 22.1814 16.4634 22.156 16.4285C22.154 16.4252 22.1513 16.4225 22.1493 16.4192C22.0977 16.3441 22.0032 16.3113 21.9202 16.3589C21.2442 16.7468 20.4858 17.0435 19.7073 17.0703C19.5747 17.075 19.4414 17.0723 19.3087 17.0609C19.2773 17.0583 19.2464 17.0549 19.215 17.0516C19.2103 17.0516 19.16 17.0449 19.1995 17.0502C19.1895 17.0489 19.1801 17.0476 19.1701 17.0462C19.1124 17.0375 19.0548 17.0275 18.9979 17.0154C18.9061 16.996 18.815 16.9718 18.7252 16.943C18.6904 16.9317 18.6556 16.9196 18.6214 16.9062C18.6046 16.8995 18.5879 16.8928 18.5711 16.8861C18.533 16.8714 18.6067 16.9022 18.5584 16.8807C18.4941 16.8513 18.4278 16.8211 18.3688 16.7816C18.2938 16.7307 18.1833 16.7675 18.1397 16.8419C18.0915 16.925 18.125 17.0201 18.2 17.071H18.1993Z" fill="black"/>
<path d="M25.1857 17.4354C25.4664 17.3282 25.7524 17.2324 26.0412 17.1473C26.2529 17.0844 26.4666 17.0267 26.6843 16.9892C26.7091 16.9852 26.7339 16.9812 26.7587 16.9778C26.7091 16.9852 26.7728 16.9765 26.7848 16.9752C26.8284 16.9705 26.8726 16.9678 26.9168 16.9678C26.9336 16.9678 26.9503 16.9691 26.967 16.9698C27.0206 16.9718 26.9429 16.9597 26.9791 16.9711C26.9898 16.9745 27.0032 16.9785 27.0139 16.9798C27.0441 16.9845 26.9784 16.9564 27.0186 16.9839C26.9711 16.951 26.9925 16.9611 27.0019 16.9711C27.0119 16.9819 27.0066 16.9825 26.9858 16.949C27.0079 16.9852 26.9758 16.9088 26.9838 16.9417C26.9838 16.9443 26.9804 16.8928 26.9798 16.9376C26.9798 16.8948 26.9764 16.9122 26.9737 16.9417C26.9711 16.9698 26.9945 16.9082 26.9771 16.9329C26.9717 16.9403 26.9684 16.9504 26.9637 16.9584C26.9483 16.9865 26.9309 17.0133 26.9141 17.0401C26.8692 17.1091 26.8203 17.1761 26.7687 17.2398C26.5631 17.4937 26.3125 17.7148 26.1263 17.9841C26.0586 18.0812 26.0017 18.2005 26.0278 18.3217C26.0566 18.4544 26.1772 18.5294 26.3018 18.5575C26.4492 18.591 26.6073 18.587 26.758 18.591C26.9215 18.5957 27.0856 18.5977 27.2491 18.5984C27.7964 18.6018 28.3438 18.5951 28.8911 18.5817C29.1062 18.5763 29.1068 18.2413 28.8911 18.2467C28.4262 18.2588 27.9612 18.2641 27.4956 18.2648C27.168 18.2648 26.8398 18.2634 26.5128 18.248C26.4358 18.244 26.417 18.2433 26.3487 18.2239L26.336 18.2199C26.3567 18.2293 26.3587 18.2299 26.3433 18.2226C26.3293 18.2253 26.3105 18.1844 26.3433 18.2259C26.3259 18.2045 26.3514 18.2393 26.3514 18.24C26.3333 18.1998 26.3614 18.2701 26.3514 18.242C26.3634 18.2775 26.3561 18.2742 26.3554 18.2521C26.3567 18.2956 26.3507 18.2768 26.3561 18.2588C26.3681 18.2179 26.342 18.2755 26.3648 18.236C26.3969 18.1797 26.4331 18.1281 26.4572 18.0973C26.6689 17.8367 26.9135 17.6062 27.1144 17.3362C27.2323 17.1781 27.4186 16.9236 27.2411 16.7373C27.1252 16.6161 26.9255 16.6234 26.7728 16.6402C26.5477 16.665 26.3273 16.7172 26.1095 16.7775C25.7672 16.872 25.4282 16.9845 25.0959 17.1111C25.0115 17.1433 24.9532 17.2237 24.9787 17.3175C25.0008 17.3986 25.0999 17.4669 25.185 17.4347L25.1857 17.4354Z" fill="black"/>
<path d="M14.4007 17.7631C14.3545 17.7229 14.3116 17.6774 14.2728 17.6305C14.2707 17.6278 14.2493 17.6003 14.2486 17.601C14.2526 17.599 14.2815 17.6466 14.2587 17.6137C14.2547 17.6077 14.25 17.6017 14.2453 17.5956C14.2279 17.5715 14.2118 17.5467 14.197 17.5213C14.193 17.5146 14.1562 17.4402 14.1562 17.4402C14.1642 17.4382 14.1736 17.4898 14.1622 17.4536C14.1602 17.4469 14.1575 17.4402 14.1548 17.4335C14.1502 17.4188 14.1455 17.4034 14.1421 17.388C14.1408 17.3813 14.1394 17.3739 14.1381 17.3672C14.1287 17.333 14.1381 17.398 14.1401 17.3839C14.1421 17.3699 14.1374 17.3518 14.1374 17.337C14.1374 17.331 14.1381 17.3243 14.1381 17.3183C14.1374 17.2808 14.1508 17.329 14.1354 17.3344C14.1374 17.3337 14.1448 17.2928 14.1461 17.2875C14.1481 17.2801 14.1522 17.2734 14.1535 17.2667C14.1589 17.2399 14.1294 17.3076 14.1475 17.2814C14.1568 17.2674 14.1656 17.2506 14.1736 17.2359C14.1883 17.2084 14.1756 17.2412 14.1656 17.2453C14.1709 17.2433 14.1783 17.2299 14.1823 17.2252C14.197 17.2104 14.2124 17.1964 14.2272 17.1816C14.2587 17.1515 14.2111 17.191 14.2252 17.1823C14.2332 17.1776 14.2406 17.1709 14.2486 17.1655C14.2701 17.1515 14.2922 17.1381 14.3149 17.126C14.3391 17.1133 14.3639 17.1019 14.3886 17.0905C14.3726 17.0979 14.3672 17.0985 14.3967 17.0878C14.4141 17.0818 14.4308 17.0751 14.4483 17.0691C14.5173 17.0456 14.5876 17.0269 14.6586 17.0108C14.7002 17.0014 14.741 16.9934 14.7832 16.986C14.802 16.9826 14.8208 16.9793 14.8395 16.9766C14.8543 16.9746 14.869 16.9719 14.8837 16.9699C14.8911 16.9686 14.9353 16.9625 14.8998 16.9672C15.5584 16.8801 16.2363 16.919 16.8962 16.9692C16.9867 16.9759 17.0637 16.8875 17.0637 16.8018C17.0637 16.7053 16.9867 16.641 16.8962 16.6343C16.2638 16.586 15.62 16.5519 14.9876 16.6216C14.6801 16.6557 14.3257 16.7033 14.0651 16.8868C13.9029 17.0014 13.787 17.1729 13.8045 17.3786C13.8172 17.532 13.8862 17.672 13.9773 17.7933C14.0329 17.867 14.0932 17.9393 14.1635 17.9996C14.2339 18.0599 14.333 18.0673 14.4007 17.9996C14.461 17.9393 14.4697 17.8221 14.4007 17.7624V17.7631Z" fill="black"/>
<path d="M6.63503 17.4946C6.44677 17.5214 6.25918 17.5669 6.07562 17.6165C5.63748 17.7344 5.20873 17.8965 4.80475 18.1049C4.31168 18.3595 3.84808 18.6944 3.49101 19.1212C3.07096 19.623 2.81906 20.2259 2.75274 20.8771C2.66297 21.7567 2.91352 22.639 3.26122 23.4383C3.31682 23.5662 3.37578 23.6922 3.43675 23.8168C3.47627 23.8978 3.59217 23.9199 3.66586 23.8771C3.74893 23.8288 3.76568 23.7297 3.72616 23.648C3.50776 23.2024 3.32352 22.7388 3.2036 22.2558C3.1078 21.8699 3.0589 21.5189 3.07163 21.1156C3.07431 21.0285 3.08034 20.9407 3.08972 20.8536C3.09173 20.8335 3.09441 20.8141 3.09709 20.794C3.09307 20.8201 3.10043 20.7679 3.09709 20.794C3.09842 20.784 3.09977 20.7746 3.10111 20.7645C3.10714 20.7237 3.1145 20.6828 3.12187 20.6419C3.15202 20.4865 3.19356 20.3324 3.24782 20.1837C3.25988 20.1502 3.27328 20.1167 3.28667 20.0832C3.29002 20.0752 3.29338 20.0665 3.29672 20.0584C3.29472 20.0638 3.28266 20.0899 3.29538 20.0618C3.30342 20.0437 3.31147 20.0256 3.31951 20.0075C3.35033 19.9398 3.38382 19.8735 3.41933 19.8092C3.48833 19.6846 3.56671 19.5654 3.65179 19.4515C3.67926 19.4146 3.6471 19.4568 3.66385 19.4354C3.67457 19.4227 3.68462 19.4093 3.69534 19.3965C3.71879 19.3677 3.7429 19.3389 3.76769 19.3108C3.81258 19.2592 3.8588 19.2096 3.90637 19.1607C4.0015 19.0636 4.10266 18.9718 4.20851 18.886C4.22124 18.876 4.2333 18.8659 4.24603 18.8559C4.25273 18.8505 4.29426 18.8177 4.27617 18.8318C4.25808 18.8458 4.29761 18.8157 4.3023 18.8123C4.31637 18.8016 4.33111 18.7909 4.34585 18.7802C4.40011 18.7407 4.45505 18.7018 4.51132 18.665C4.61918 18.5933 4.73039 18.5263 4.84428 18.4633C4.95817 18.4003 5.06469 18.3467 5.17791 18.2938C5.23285 18.2684 5.28845 18.2436 5.34473 18.2194C5.38291 18.2027 5.33267 18.2241 5.35344 18.2161C5.36616 18.2107 5.37889 18.2054 5.39162 18.2C5.42043 18.1886 5.44857 18.1766 5.47737 18.1659C5.66897 18.0908 5.86459 18.0252 6.06223 17.9682C6.27795 17.9066 6.49701 17.8711 6.71407 17.8195C6.71742 17.8188 6.72011 17.8188 6.72346 17.8182C6.81323 17.8054 6.86214 17.6915 6.8407 17.6118C6.8139 17.5153 6.7248 17.4825 6.63435 17.4946H6.63503Z" fill="black"/>
<path d="M4.67208 29.8129C4.5803 29.7888 4.48718 29.7673 4.39606 29.7405C4.32706 29.7204 4.25873 29.6983 4.1904 29.6742C4.15154 29.6608 4.11335 29.6461 4.07516 29.6313C4.05506 29.6233 4.03496 29.6153 4.01554 29.6072C4.00616 29.6032 4.05105 29.6226 4.0209 29.6092C4.00884 29.6039 3.99745 29.5992 3.98539 29.5938C3.80116 29.5114 3.62363 29.4123 3.45949 29.295C3.43873 29.2803 3.41862 29.2649 3.39786 29.2502C3.36436 29.2254 3.41259 29.2622 3.38915 29.2435C3.37642 29.2334 3.36436 29.2233 3.35163 29.2133C3.30742 29.1771 3.26387 29.1389 3.22166 29.1001C3.13323 29.0177 3.05016 28.9292 2.97446 28.8355C2.97111 28.8314 2.9423 28.7953 2.95369 28.81C2.96508 28.8247 2.93828 28.7892 2.93359 28.7832C2.91283 28.7551 2.89273 28.7269 2.8733 28.6988C2.83578 28.6439 2.80028 28.5869 2.76678 28.5293C2.73328 28.4717 2.69978 28.4074 2.66964 28.3444C2.6549 28.3142 2.6415 28.2834 2.6281 28.2533C2.61738 28.2292 2.63078 28.2613 2.61738 28.2278C2.60934 28.2077 2.6013 28.1883 2.59393 28.1682C2.47267 27.8493 2.4097 27.5224 2.38759 27.1961C2.35879 26.7647 2.39229 26.3292 2.46531 25.9038C2.54168 25.457 2.66829 25.0188 2.92622 24.6417C3.11581 24.365 3.36369 24.1533 3.67186 24.0126C3.71272 23.9938 3.70871 23.9958 3.75761 23.9771C3.79714 23.9623 3.83734 23.9489 3.87753 23.9362C3.9519 23.9134 4.02827 23.8953 4.10464 23.8819C4.12072 23.8793 4.13747 23.8766 4.15355 23.8739C4.16427 23.8719 4.17565 23.8706 4.18637 23.8692C4.18302 23.8692 4.16292 23.8719 4.18302 23.8692C4.22389 23.8645 4.26476 23.8605 4.30562 23.8578C4.38133 23.8531 4.45769 23.8525 4.53407 23.8551C4.61044 23.8578 4.68414 23.8645 4.7585 23.8746C4.84827 23.8866 4.92599 23.7888 4.92599 23.7071C4.92599 23.6066 4.84827 23.5517 4.7585 23.5396C4.06579 23.4485 3.35029 23.6682 2.86793 24.1834C2.56177 24.5097 2.36213 24.9224 2.24289 25.3504C2.11024 25.8274 2.04794 26.3393 2.04325 26.8344C2.03588 27.5311 2.17456 28.2506 2.56446 28.8388C2.83846 29.2522 3.22033 29.5844 3.66182 29.8102C3.9385 29.9516 4.23193 30.0494 4.53273 30.1244C4.54948 30.1284 4.56623 30.1325 4.58231 30.1371C4.79066 30.1921 4.87976 29.8692 4.67141 29.8142L4.67208 29.8129Z" fill="black"/>
<path d="M5.96877 29.9065C5.94331 29.9132 5.91784 29.9186 5.89238 29.9233C5.86358 29.9287 5.83477 29.934 5.80529 29.938C5.79658 29.9394 5.78855 29.94 5.77984 29.9421C5.74969 29.9474 5.83276 29.936 5.79189 29.9407C5.77112 29.9427 5.75036 29.9454 5.72959 29.9481C5.62776 29.9581 5.52526 29.9628 5.42276 29.9608C5.3638 29.9601 5.30552 29.9568 5.24656 29.9514C5.21776 29.9488 5.18896 29.9454 5.16082 29.9427C5.11526 29.9374 5.19431 29.9488 5.1501 29.9414C5.13134 29.938 5.11258 29.9354 5.09382 29.9327C4.95448 29.9086 4.81713 29.8717 4.68516 29.8201C4.6731 29.8154 4.61884 29.7927 4.66573 29.8128C4.64899 29.8054 4.63291 29.7987 4.61616 29.7906C4.58266 29.7752 4.54983 29.7592 4.51767 29.7417C4.44666 29.7042 4.379 29.662 4.31335 29.6158C4.29727 29.6044 4.28118 29.5923 4.26577 29.581C4.23429 29.5575 4.28654 29.5977 4.26645 29.581C4.25841 29.5749 4.25104 29.5682 4.243 29.5622C4.20816 29.5334 4.17399 29.5039 4.14117 29.4724C4.07685 29.4115 4.01589 29.3458 3.96029 29.2768C3.95292 29.2681 3.94621 29.2594 3.93885 29.25C3.96028 29.2775 3.94086 29.2527 3.9355 29.246C3.92143 29.2272 3.90803 29.2085 3.89464 29.189C3.86583 29.1475 3.83836 29.1053 3.81223 29.0618C3.75596 28.9686 3.70638 28.8715 3.66216 28.7717C3.64541 28.7335 3.65613 28.7589 3.64006 28.7201C3.62934 28.694 3.61929 28.6672 3.60924 28.6404C3.58646 28.5787 3.56569 28.5171 3.54693 28.4548C3.50808 28.3275 3.4766 28.1989 3.45114 28.0682C3.39017 27.7601 3.36471 27.4472 3.35802 27.1323C3.34529 26.5254 3.39754 25.9084 3.60589 25.3349C3.64809 25.2183 3.68025 25.1433 3.73988 25.0267C3.78811 24.9323 3.84171 24.8412 3.90066 24.7527C3.96565 24.6563 3.99244 24.6207 4.07417 24.5296C4.13916 24.4573 4.20883 24.3883 4.28319 24.3253C4.30061 24.3106 4.31803 24.2965 4.33545 24.2824C4.3723 24.2523 4.32675 24.2871 4.36493 24.2597C4.40312 24.2322 4.43996 24.2061 4.47815 24.1806C4.55184 24.1324 4.62822 24.0895 4.70727 24.0506C4.74479 24.0319 4.78297 24.0145 4.82183 23.9977C4.78029 24.0158 4.84058 23.9903 4.8513 23.9863C4.87475 23.9776 4.89753 23.9689 4.92098 23.9602C5.00204 23.9314 5.08444 23.9073 5.16752 23.8872C5.25059 23.8671 5.32763 23.853 5.40869 23.8403C5.41874 23.8389 5.42812 23.8376 5.43816 23.8362C5.39462 23.8423 5.42342 23.8383 5.43481 23.8369C5.45424 23.8349 5.47368 23.8322 5.4931 23.8302C5.5333 23.8262 5.57417 23.8228 5.61504 23.8202C5.77046 23.8108 5.92655 23.8135 6.08131 23.8269C6.11615 23.8302 6.15099 23.8336 6.18582 23.8376C6.19922 23.8389 6.25751 23.8476 6.20257 23.8396C6.21932 23.8423 6.23607 23.8443 6.25215 23.847C6.31847 23.857 6.38479 23.8697 6.45045 23.8845C6.56367 23.9099 6.67554 23.9414 6.78407 23.9823C6.80551 23.9903 6.86513 24.0171 6.81153 23.9923C6.83163 24.0017 6.85174 24.0104 6.87184 24.0198C6.9529 24.0593 7.05272 24.0419 7.10095 23.9595C7.14383 23.8858 7.1224 23.7699 7.04066 23.7304C6.51811 23.4772 5.88099 23.4329 5.31423 23.518C4.50159 23.64 3.8129 24.1377 3.4431 24.872C3.17512 25.4039 3.06458 26.0001 3.03176 26.591C2.99558 27.2429 3.03376 27.9249 3.2267 28.5526C3.35801 28.9787 3.57039 29.39 3.89531 29.7009C4.14452 29.9394 4.45135 30.1115 4.78364 30.2053C5.17623 30.3159 5.63981 30.34 6.03843 30.2355C6.04512 30.2335 6.05183 30.2321 6.05786 30.2308C6.26621 30.1752 6.17779 29.8523 5.96877 29.9079V29.9065Z" fill="black"/>
<path d="M8.11694 17.7938C8.11694 17.7938 5.13372 16.8183 4.19112 19.7909C3.49572 21.9836 4.70094 24.122 6.34429 24.1582" fill="#C6C6C6"/>
<path d="M8.161 17.6318C7.89704 17.5461 7.61165 17.5072 7.3363 17.4851C6.75413 17.4389 6.15855 17.5186 5.62595 17.7665C4.89706 18.1055 4.39997 18.7587 4.11658 19.4963C3.74008 20.4744 3.70926 21.6079 4.11457 22.582C4.45155 23.392 5.11412 24.1349 6.01385 24.2917C6.12305 24.3104 6.23358 24.3225 6.34412 24.3259C6.55984 24.3319 6.55984 23.9969 6.34412 23.9909C5.96494 23.9808 5.60787 23.8475 5.29299 23.6184C4.97812 23.3893 4.7135 23.0469 4.52994 22.6885C4.08376 21.8176 4.0583 20.7718 4.34839 19.8487C4.46964 19.4608 4.65923 19.0622 4.90376 18.758C5.1235 18.4847 5.35596 18.2877 5.65677 18.1256C5.72242 18.0901 5.78941 18.0579 5.85842 18.0278C5.88254 18.0171 5.83564 18.0372 5.86043 18.0271C5.86713 18.0244 5.8745 18.0211 5.8812 18.0184C5.89996 18.011 5.91871 18.0037 5.93747 17.9963C5.9723 17.9829 6.00781 17.9708 6.04265 17.9588C6.17932 17.9132 6.32 17.8784 6.46203 17.8536C6.49419 17.8482 6.52634 17.8429 6.5585 17.8382C6.60204 17.8315 6.54443 17.8395 6.57525 17.8355C6.59333 17.8335 6.61143 17.8308 6.62952 17.8288C6.69584 17.8214 6.76216 17.8161 6.82916 17.8127C6.95376 17.806 7.07905 17.806 7.20366 17.8121C7.3142 17.8174 7.42406 17.8275 7.53326 17.8409C7.52924 17.8409 7.56944 17.8449 7.53326 17.8409C7.54465 17.8429 7.55604 17.8442 7.56676 17.8456C7.5902 17.8489 7.61298 17.8523 7.63643 17.8563C7.67864 17.863 7.72017 17.871 7.76237 17.8791C7.86219 17.8985 7.95934 17.9259 8.05783 17.9507C8.06251 17.9521 8.0672 17.9534 8.07189 17.9548C8.27756 18.0218 8.36533 17.6982 8.161 17.6318Z" fill="black"/>
<path d="M6.80139 27.016C6.80474 27.0053 6.80875 26.9952 6.8121 26.9852C6.81545 26.9758 6.81948 26.9664 6.82283 26.9563C6.84025 26.9095 6.80742 26.9872 6.83154 26.9362C6.86771 26.8579 6.9079 26.7815 6.95815 26.7105C6.96552 26.7004 6.97289 26.6897 6.98026 26.6803C6.95681 26.7105 6.97557 26.6864 6.9816 26.6797C6.99768 26.6629 7.01241 26.6448 7.02849 26.6281C7.03787 26.6187 7.09549 26.5718 7.06132 26.5966C7.08142 26.5819 7.10287 26.5698 7.12431 26.5571C7.13234 26.5524 7.16918 26.5396 7.12898 26.5537C7.14037 26.5497 7.15243 26.5457 7.16382 26.5423C7.17387 26.5396 7.18392 26.5376 7.19396 26.5356C7.21808 26.5303 7.1531 26.5356 7.19396 26.5363C7.20669 26.5363 7.2201 26.5363 7.23283 26.5363C7.27637 26.537 7.19867 26.5269 7.24221 26.5376C7.25628 26.541 7.27034 26.5443 7.28441 26.5484C7.29111 26.5504 7.32796 26.5651 7.3025 26.5537C7.3695 26.5825 7.4231 26.6241 7.47401 26.6716C7.50416 26.6998 7.5323 26.7292 7.55976 26.7594C7.5745 26.7761 7.58923 26.7929 7.6033 26.8103C7.57584 26.7768 7.61 26.821 7.61469 26.8277C7.62675 26.8458 7.63746 26.8639 7.64751 26.8826C7.65354 26.894 7.68369 26.9637 7.66829 26.9242C7.68704 26.9738 7.70178 27.024 7.71182 27.0756C7.7145 27.089 7.71652 27.1024 7.71853 27.1151C7.7125 27.0769 7.71786 27.1077 7.71853 27.1178C7.72054 27.1433 7.72323 27.168 7.7239 27.1935C7.72591 27.2504 7.72389 27.3074 7.71853 27.3643C7.71719 27.3791 7.71585 27.3931 7.71384 27.4079C7.7192 27.3677 7.71251 27.4166 7.71117 27.422C7.70648 27.4467 7.70245 27.4709 7.69709 27.495C7.68436 27.5546 7.66828 27.6129 7.64953 27.6705C7.58454 27.8675 7.45726 28.0926 7.31724 28.2453C7.28039 28.2855 7.24154 28.3237 7.20067 28.3592C7.18995 28.3686 7.17856 28.378 7.16717 28.3873C7.13033 28.4175 7.19398 28.3686 7.15512 28.3967C7.13234 28.4135 7.10889 28.4295 7.08477 28.4449C7.04123 28.4724 6.99634 28.4965 6.94944 28.5166C6.98629 28.5005 6.94409 28.518 6.93873 28.52C6.926 28.5247 6.91327 28.5294 6.89987 28.5334C6.87374 28.5414 6.84762 28.5481 6.82082 28.5541C6.80742 28.5568 6.79402 28.5595 6.78062 28.5615C6.8235 28.5541 6.77862 28.5615 6.77125 28.5615C6.74646 28.5629 6.72099 28.5649 6.69621 28.5642C6.67142 28.5635 6.6453 28.5622 6.61984 28.5595C6.66205 28.5642 6.61514 28.5588 6.60844 28.5568C6.58968 28.5528 6.57093 28.5488 6.55218 28.5441C6.45303 28.518 6.35187 28.465 6.27014 28.4027C6.03164 28.2192 5.84539 27.9438 5.72949 27.6685C5.74155 27.6973 5.72077 27.6464 5.72077 27.6457C5.71475 27.6303 5.70871 27.6142 5.70336 27.5981C5.69331 27.5693 5.68326 27.5399 5.67455 27.5104C5.65445 27.4441 5.63771 27.3764 5.62431 27.3081C5.61895 27.2806 5.61426 27.2531 5.61024 27.2257C5.61024 27.2237 5.60287 27.1694 5.60689 27.2042C5.60488 27.1875 5.60286 27.1714 5.60152 27.1546C5.59482 27.0883 5.59081 27.0213 5.59014 26.955C5.58679 26.6877 5.61761 26.4827 5.69331 26.2221C5.82462 25.7672 6.06781 25.3358 6.41953 25.0155C6.44097 24.9961 6.4624 24.9774 6.48451 24.9593C6.49255 24.9526 6.54615 24.9104 6.51667 24.9331C6.56222 24.899 6.60911 24.8661 6.65735 24.8367C6.70022 24.8105 6.74445 24.7864 6.79001 24.765C6.79805 24.7616 6.80541 24.7576 6.81345 24.7543C6.85297 24.7362 6.77996 24.767 6.82015 24.7509C6.84762 24.7402 6.87441 24.7301 6.90255 24.7214C6.94543 24.708 6.98897 24.6966 7.03319 24.6886C7.04525 24.6866 7.05664 24.6846 7.0687 24.6826C7.02582 24.6893 7.05462 24.6839 7.06601 24.6832C7.09147 24.6819 7.11759 24.6792 7.14305 24.6792C7.1665 24.6792 7.19062 24.6792 7.21407 24.6812C7.22747 24.6819 7.28911 24.6913 7.2402 24.6832C7.28777 24.6913 7.33465 24.702 7.38021 24.7174C7.3916 24.7214 7.40299 24.7255 7.41505 24.7301C7.45457 24.7442 7.38223 24.7147 7.42108 24.7322C7.44051 24.7409 7.45926 24.7502 7.47802 24.7603C7.51888 24.7817 7.58924 24.8293 7.60599 24.842C7.58589 24.8266 7.62206 24.8554 7.62206 24.8554C7.63278 24.8648 7.6435 24.8742 7.65422 24.8836C7.67633 24.9037 7.69776 24.9244 7.71786 24.9459C7.73595 24.9646 7.75337 24.9834 7.77012 25.0035C7.78084 25.0155 7.79088 25.0283 7.80093 25.0403C7.81299 25.0557 7.81433 25.0571 7.80496 25.045C7.81165 25.0537 7.81836 25.0631 7.82506 25.0718C8.01331 25.3297 8.12853 25.6305 8.21763 25.9347C8.42598 26.6455 8.53184 27.4213 8.39383 28.1468C8.3389 28.4356 8.2518 28.7055 8.1225 28.9514C8.00125 29.1832 7.88199 29.348 7.6991 29.5256C7.53965 29.6796 7.38423 29.7882 7.16248 29.8873C7.13367 29.9001 7.15913 29.8887 7.16449 29.8873C7.15176 29.8927 7.13903 29.8974 7.1263 29.9027C7.10084 29.9128 7.07539 29.9215 7.04926 29.9302C6.99835 29.9469 6.94609 29.9617 6.89383 29.9737C6.8724 29.9784 6.85029 29.9831 6.82885 29.9871C6.81612 29.9898 6.73707 30.0012 6.78196 29.9959C6.72971 30.0026 6.67744 30.0066 6.62519 30.0086C6.57762 30.0099 6.5294 30.0086 6.48183 30.0059C6.4557 30.0039 6.43025 30.0019 6.40412 29.9985C6.35991 29.9938 6.44096 30.0046 6.39675 29.9979C6.38402 29.9958 6.37128 29.9938 6.35856 29.9912C6.25539 29.9724 6.15422 29.9436 6.05708 29.9034C6.07986 29.9128 6.05374 29.9021 6.05039 29.9007C6.03499 29.894 6.01957 29.8867 6.00483 29.88C5.97468 29.8659 5.94521 29.8505 5.91574 29.8344C5.85745 29.8029 5.80051 29.7681 5.74624 29.7306C5.65647 29.6689 5.56804 29.5932 5.47625 29.4994C5.10779 29.1202 4.89475 28.6091 4.78689 28.0765C4.67903 27.5439 4.68439 26.8987 4.811 26.3387C4.93762 25.7786 5.17344 25.2447 5.55664 24.832C5.76633 24.6062 6.01689 24.4173 6.28888 24.2739C6.42153 24.2042 6.53744 24.156 6.68482 24.1125C6.74847 24.0937 6.81344 24.0783 6.8791 24.0656C6.95614 24.0508 6.97959 24.0482 7.06132 24.0421C7.32996 24.024 7.54971 24.0569 7.80361 24.162C7.83309 24.1741 7.76877 24.146 7.81768 24.1687C7.83309 24.1761 7.84849 24.1828 7.8639 24.1902C7.89472 24.2049 7.92487 24.221 7.95435 24.2371C8.01464 24.2706 8.07361 24.3074 8.12988 24.3476C8.22367 24.4146 8.3275 24.5071 8.41928 24.6062C8.86345 25.0859 9.08587 25.7746 9.16024 26.4271C9.2413 27.1379 9.22657 27.8963 8.94787 28.5655C8.7489 29.0439 8.40454 29.4338 7.93224 29.6622C7.83175 29.7111 7.7393 29.746 7.61402 29.7828C7.55439 29.8002 7.49343 29.8156 7.43247 29.829C7.39897 29.8364 7.3648 29.8431 7.33063 29.8485C7.31322 29.8511 7.29647 29.8545 7.27905 29.8572C7.27905 29.8572 7.22211 29.8652 7.25427 29.8612C7.1645 29.8733 7.08678 29.9295 7.08678 30.0287C7.08678 30.1097 7.16383 30.2082 7.25427 30.1962C7.84113 30.1184 8.3945 29.8753 8.79512 29.4291C9.25269 28.9186 9.45635 28.2466 9.51665 27.5754C9.59034 26.7547 9.49253 25.8737 9.14952 25.1194C8.88289 24.5332 8.42532 24.0227 7.8063 23.8063C7.18727 23.5899 6.55752 23.7272 6.02158 24.0388C5.44945 24.3711 5.00997 24.8775 4.74334 25.4805C4.4767 26.0834 4.35545 26.7554 4.37756 27.4166C4.39832 28.0423 4.54035 28.6808 4.85656 29.2254C5.13794 29.7105 5.58076 30.1278 6.13011 30.2819C6.59304 30.4119 7.09281 30.3255 7.50617 30.0883C7.98919 29.8109 8.33219 29.35 8.53987 28.8402C8.81723 28.1609 8.83398 27.4019 8.72746 26.685C8.66315 26.2536 8.55796 25.8168 8.38981 25.4128C8.27056 25.1274 8.11446 24.844 7.87998 24.6364C7.69709 24.4749 7.48138 24.3717 7.23752 24.3476C7.01242 24.3255 6.78532 24.3905 6.58634 24.4916C6.13347 24.7221 5.79045 25.1636 5.57205 25.6125C5.31546 26.139 5.19689 26.7319 5.28733 27.3148C5.33221 27.6055 5.44075 27.8835 5.59886 28.1314C5.78711 28.4269 6.0323 28.7035 6.36459 28.8335C6.8925 29.0405 7.40299 28.7143 7.70514 28.2929C7.9912 27.8936 8.17811 27.2973 7.98651 26.8203C7.87731 26.5484 7.61536 26.2643 7.31791 26.2087C7.03721 26.1564 6.81277 26.3279 6.66137 26.5477C6.58366 26.6609 6.52068 26.7922 6.47781 26.9229C6.41148 27.1285 6.7344 27.2163 6.80072 27.0119L6.80139 27.016Z" fill="black"/>
<path d="M7.93244 21.7711C7.29868 22.031 6.1303 20.1277 8.18165 19.5482C9.46994 19.1838 10.1265 22.2293 8.03896 23.1237C5.95144 24.0174 4.33019 19.772 7.09904 18.674C8.78862 18.004 11.9949 19.3761 10.1184 22.9341C7.98805 26.9725 3.30653 22.5985 5.38199 19.4625" fill="#C6C6C6"/>
<path d="M7.88807 21.6084C7.87266 21.6145 7.85725 21.6185 7.84185 21.6232C7.79428 21.6393 7.86796 21.6272 7.83045 21.6259C7.81437 21.6252 7.79695 21.6252 7.78087 21.6259C7.76613 21.6259 7.74069 21.6158 7.79227 21.6279C7.78155 21.6252 7.76949 21.6239 7.75877 21.6212C7.74471 21.6178 7.73063 21.6138 7.71656 21.6091C7.70785 21.6064 7.69982 21.6024 7.69111 21.5997C7.65962 21.591 7.72594 21.6192 7.69713 21.6024C7.66095 21.5803 7.62344 21.5622 7.58794 21.5388C7.57923 21.5334 7.57118 21.5267 7.56314 21.5207C7.602 21.5495 7.57185 21.5274 7.56448 21.5207C7.55108 21.5086 7.5377 21.4972 7.5243 21.4852C7.48879 21.4523 7.45663 21.4162 7.42515 21.3793C7.41979 21.3726 7.39567 21.3411 7.42246 21.3773C7.41577 21.3679 7.40839 21.3586 7.40169 21.3492C7.38762 21.3297 7.37489 21.3103 7.36216 21.2902C7.33603 21.2494 7.3126 21.2071 7.29183 21.1636C7.28647 21.1522 7.25699 21.0825 7.27374 21.1247C7.26436 21.1013 7.25564 21.0785 7.2476 21.0551C7.23153 21.0075 7.21814 20.9586 7.20809 20.9097C7.20541 20.897 7.19334 20.8193 7.19937 20.8668C7.19602 20.8414 7.19402 20.8159 7.19201 20.7905C7.18866 20.7342 7.19066 20.6792 7.19535 20.623C7.19937 20.5734 7.18999 20.6384 7.20004 20.5901C7.2054 20.564 7.21076 20.5386 7.21746 20.5124C7.22416 20.4863 7.23221 20.4608 7.24159 20.4354C7.24627 20.4227 7.25096 20.4099 7.25632 20.3972C7.24091 20.4354 7.26436 20.3805 7.26771 20.3738C7.32733 20.2518 7.37288 20.1935 7.46198 20.1064C7.66229 19.9108 7.96846 19.7675 8.26123 19.6985C8.284 19.6931 8.30678 19.6891 8.33023 19.6851C8.27798 19.6931 8.351 19.6844 8.3644 19.6837C8.38651 19.683 8.40794 19.683 8.43005 19.6837C8.44077 19.6837 8.45149 19.6864 8.46221 19.6864C8.49705 19.6864 8.42871 19.6777 8.4602 19.6864C8.50173 19.6971 8.54259 19.7052 8.58345 19.7186C8.5935 19.7219 8.60356 19.7259 8.61294 19.7299C8.56806 19.7118 8.60289 19.7252 8.6116 19.7299C8.63371 19.742 8.65582 19.7527 8.67793 19.7654C8.69333 19.7748 8.70807 19.7849 8.72348 19.7949C8.73286 19.801 8.74156 19.8076 8.75027 19.8143C8.71275 19.7869 8.74424 19.8097 8.75094 19.8157C8.78846 19.8485 8.82397 19.882 8.85746 19.9189C8.87354 19.9363 8.88828 19.9544 8.90302 19.9731C8.87421 19.9369 8.91374 19.9879 8.92043 19.9972C8.95125 20.0415 8.98006 20.0877 9.00552 20.1353C9.03098 20.1828 9.05308 20.2284 9.07385 20.2766C9.05777 20.2384 9.08323 20.3014 9.08725 20.3114C9.09864 20.3416 9.10868 20.3717 9.11873 20.4019C9.15357 20.5111 9.17837 20.623 9.19646 20.7362C9.19713 20.7415 9.20383 20.7905 9.19847 20.7503C9.20048 20.765 9.20181 20.7797 9.20382 20.7945C9.20717 20.8246 9.20985 20.8541 9.21186 20.8842C9.21655 20.9499 9.2179 21.0162 9.21723 21.0825C9.21656 21.1395 9.21387 21.1964 9.20918 21.2534C9.2065 21.2849 9.20316 21.3157 9.19981 21.3472C9.19378 21.3988 9.20517 21.3137 9.19713 21.3653C9.19378 21.386 9.19042 21.4068 9.18707 21.4276C9.14017 21.6949 9.06313 21.9119 8.9345 22.1337C8.67122 22.5879 8.19624 22.9577 7.68373 23.0575C7.67101 23.0602 7.59128 23.0716 7.63483 23.0662C7.61272 23.0689 7.59061 23.0709 7.56851 23.0729C7.51223 23.0769 7.45596 23.0776 7.39968 23.0749C7.37422 23.0736 7.34877 23.0709 7.32332 23.0689C7.27977 23.0649 7.36016 23.0749 7.31728 23.0689C7.30455 23.0669 7.29249 23.0649 7.27976 23.0629C7.23018 23.0542 7.18061 23.0421 7.13171 23.028C7.0828 23.014 7.03524 22.9966 6.98835 22.9771C7.02854 22.9939 6.95819 22.9624 6.9468 22.957C6.92403 22.9456 6.90125 22.9342 6.87847 22.9215C6.83291 22.8967 6.7887 22.8693 6.74649 22.8405C6.72505 22.8257 6.70362 22.8103 6.68285 22.7949C6.64735 22.7688 6.70964 22.817 6.6748 22.7889C6.66074 22.7775 6.64735 22.7668 6.63395 22.7554C6.55088 22.6857 6.47384 22.6087 6.40349 22.5269C6.38541 22.5062 6.36798 22.4847 6.35057 22.4633C6.34454 22.4559 6.33918 22.4485 6.33315 22.4412C6.35726 22.472 6.32845 22.4351 6.3251 22.4305C6.28892 22.3809 6.25343 22.3306 6.2206 22.279C6.1583 22.1812 6.10269 22.0801 6.05312 21.9749C6.04039 21.9481 6.02833 21.9213 6.01694 21.8945C5.99751 21.8496 6.02899 21.9253 6.0109 21.8804C6.00554 21.867 5.99951 21.853 5.99416 21.8389C5.97272 21.7833 5.95263 21.7277 5.93454 21.6707C5.89702 21.5542 5.86687 21.4349 5.84342 21.3143C5.81863 21.1844 5.81059 21.1214 5.80322 20.976C5.79652 20.8548 5.79853 20.7335 5.80858 20.6129C5.81126 20.5828 5.81462 20.5526 5.81797 20.5225C5.81797 20.5178 5.82532 20.4682 5.81996 20.5071C5.8213 20.497 5.82265 20.487 5.82466 20.4769C5.83538 20.4119 5.84744 20.3476 5.86285 20.284C5.97808 19.803 6.25276 19.3836 6.65204 19.1029C6.86843 18.9508 7.09487 18.8389 7.34275 18.7672C7.44525 18.7378 7.54908 18.7163 7.65426 18.6996C7.66163 18.6982 7.70718 18.6922 7.66363 18.6982C7.67703 18.6962 7.69044 18.6949 7.70451 18.6935C7.73197 18.6902 7.75944 18.6875 7.78624 18.6855C7.84385 18.6808 7.90147 18.6775 7.95976 18.6768C8.07498 18.6741 8.19088 18.6788 8.30611 18.6895C8.33224 18.6922 8.35836 18.6949 8.38449 18.6982C8.39386 18.6996 8.42603 18.7036 8.38985 18.6982C8.40392 18.7003 8.41865 18.7023 8.43272 18.7043C8.49435 18.7136 8.55666 18.725 8.61762 18.7384C8.73151 18.7626 8.84406 18.794 8.9546 18.8309C9.01021 18.8496 9.06447 18.8704 9.1194 18.8918C9.12342 18.8939 9.16832 18.9126 9.13349 18.8972C9.1422 18.9012 9.15157 18.9046 9.16028 18.9086C9.19176 18.9227 9.22257 18.9367 9.25339 18.9515C9.35857 19.0024 9.46108 19.06 9.55889 19.1243C9.67746 19.202 9.7257 19.2389 9.82686 19.33C9.91462 19.409 9.99636 19.4941 10.0707 19.5852C10.0801 19.5966 10.0895 19.608 10.0989 19.6201C10.0761 19.5913 10.1062 19.6301 10.1089 19.6335C10.1236 19.6536 10.1384 19.6737 10.1525 19.6944C10.1893 19.748 10.2241 19.8036 10.2563 19.8599C10.2864 19.9135 10.3146 19.9678 10.34 20.0234C10.3441 20.0327 10.3487 20.0421 10.3528 20.0515C10.3735 20.0984 10.3407 20.0214 10.3601 20.0689C10.3742 20.1031 10.3869 20.1373 10.399 20.1721C10.4425 20.2954 10.4747 20.422 10.4968 20.5506C10.5082 20.6176 10.5122 20.6464 10.5182 20.7281C10.5243 20.8032 10.5269 20.8775 10.5269 20.9526C10.5269 21.1053 10.5136 21.2628 10.4908 21.4001C10.4332 21.7558 10.3226 22.1049 10.1779 22.4345C10.0245 22.7835 9.84294 23.1245 9.61248 23.4293C9.44232 23.6544 9.21522 23.8809 8.99682 24.0309C8.88896 24.1046 8.77506 24.1703 8.65648 24.2245C8.6116 24.2446 8.57676 24.2594 8.50843 24.2835C8.45082 24.3036 8.39185 24.321 8.3329 24.3358C8.27394 24.3505 8.21567 24.3619 8.15604 24.3719C8.15068 24.3726 8.10178 24.3793 8.14131 24.3746C8.12657 24.3766 8.11182 24.378 8.09708 24.38C8.0676 24.3833 8.03814 24.3853 8.00866 24.3873C7.88807 24.3947 7.7668 24.392 7.64688 24.3793C7.63482 24.378 7.62211 24.3766 7.61005 24.3753C7.56115 24.3693 7.64487 24.3806 7.59597 24.3733C7.56649 24.3686 7.5377 24.3639 7.50822 24.3585C7.44457 24.3465 7.3816 24.3317 7.31929 24.315C7.26637 24.3002 7.21343 24.2842 7.16118 24.2661C7.13237 24.256 7.10423 24.246 7.0761 24.2353C7.06203 24.2299 7.04797 24.2239 7.0339 24.2185C7.02452 24.2145 7.01515 24.2111 7.00577 24.2071C7.02251 24.2138 7.02184 24.2138 7.00375 24.2058C6.89054 24.1562 6.78065 24.0993 6.6748 24.0363C6.62121 24.0041 6.56829 23.97 6.51671 23.9351C6.49527 23.9204 6.47317 23.905 6.45173 23.8896C6.439 23.8802 6.42626 23.8708 6.41354 23.8614C6.40885 23.8581 6.35995 23.8206 6.38406 23.8393C6.17504 23.6772 5.98545 23.4896 5.8173 23.2846C5.49975 22.8974 5.2512 22.4104 5.12726 21.9079C4.99796 21.3854 5.00332 20.836 5.16477 20.3135C5.24985 20.0388 5.36844 19.7949 5.53258 19.5464C5.65115 19.3655 5.36174 19.198 5.24316 19.3775C4.89345 19.9095 4.7005 20.5339 4.70117 21.1716C4.70184 21.7652 4.86532 22.3527 5.14468 22.8753C5.42404 23.3978 5.80323 23.8313 6.27018 24.1703C6.70564 24.4865 7.22482 24.6969 7.76479 24.725C8.33156 24.7545 8.87489 24.5568 9.31839 24.2105C9.91999 23.7402 10.3112 23.0347 10.5812 22.3333C10.8277 21.6922 10.9524 20.978 10.7876 20.3014C10.6583 19.7708 10.3441 19.3032 9.91329 18.9702C9.50797 18.656 9.01624 18.4564 8.5091 18.3814C8.03144 18.311 7.52631 18.3318 7.07209 18.5086C6.50733 18.7277 6.01425 19.1183 5.73756 19.665C5.48768 20.16 5.42338 20.7194 5.49975 21.2648C5.57143 21.7779 5.77777 22.273 6.09867 22.6803C6.39076 23.0515 6.80343 23.3382 7.27842 23.4012C7.85456 23.4776 8.43474 23.1908 8.84206 22.7983C9.27015 22.3856 9.50865 21.8141 9.55018 21.2259C9.58435 20.7402 9.48653 20.1949 9.18908 19.7983C9.05442 19.6187 8.88627 19.4727 8.67189 19.3977C8.42401 19.3106 8.17279 19.3682 7.93362 19.4559C7.61272 19.5738 7.30857 19.7487 7.09888 20.0247C6.94479 20.227 6.86105 20.4756 6.86038 20.7302C6.86038 21.1636 7.09151 21.6352 7.47003 21.8617C7.61942 21.9515 7.81437 22.001 7.98252 21.9347C8.06627 21.9012 8.12522 21.8228 8.09976 21.7284C8.07765 21.6486 7.97851 21.5776 7.89343 21.6111L7.88807 21.6084Z" fill="black"/>
<path d="M14.0236 17.8602C13.3309 17.901 12.6247 17.8829 11.9488 17.7141C11.4771 17.5962 11.0584 17.418 10.6625 17.1259C10.6558 17.1205 10.6002 17.0783 10.6257 17.0978C10.6062 17.083 10.5875 17.0676 10.5687 17.0522C10.5278 17.0187 10.4883 16.9845 10.4495 16.9497C10.3798 16.8867 10.3128 16.8204 10.2478 16.7521C10.1828 16.6837 10.1279 16.6194 10.0709 16.5498C10.0575 16.533 10.0441 16.5169 10.0314 16.5002C10.0013 16.4627 10.0401 16.5122 10.0113 16.4747C9.98384 16.4385 9.95705 16.4024 9.93092 16.3655C9.83847 16.2369 9.75272 16.1042 9.66898 15.9703C9.49346 15.6875 9.39898 15.3646 9.37152 15.0337C9.334 14.5775 9.38225 14.1192 9.53231 13.6851C9.56179 13.5994 9.49882 13.5022 9.41507 13.4788C9.32262 13.4533 9.23887 13.5103 9.20873 13.596C9.07474 13.9832 9.01981 14.4167 9.02584 14.824C9.0312 15.1864 9.09618 15.5462 9.24222 15.8785C9.32798 16.0741 9.44857 16.2543 9.56849 16.4305C9.78488 16.7481 10.0334 17.0448 10.3315 17.2887C10.7194 17.6062 11.1676 17.8334 11.6466 17.9781C12.4124 18.2092 13.2304 18.242 14.0242 18.1951C14.2386 18.1824 14.24 17.8474 14.0242 17.8602H14.0236Z" fill="#1D1D1B"/>
<path d="M14.196 25.9194C14.1786 26.0507 14.1793 26.1861 14.1799 26.3187C14.1806 26.5934 14.2014 26.8674 14.2382 27.1394C14.3287 27.8033 14.5364 28.4773 14.9745 28.9965C15.2324 29.302 15.5761 29.5458 15.9781 29.6041C16.3901 29.6637 16.7987 29.5773 17.1411 29.3368C17.7273 28.9248 18.0689 28.2106 18.2351 27.5313C18.3624 27.0114 18.4133 26.4534 18.3624 25.9194C18.3537 25.8297 18.2914 25.752 18.1949 25.752C18.1111 25.752 18.0187 25.829 18.0274 25.9194C18.0669 26.3294 18.0421 26.7615 17.9731 27.1508C17.8613 27.7879 17.6141 28.4552 17.1364 28.9107C16.9106 29.1258 16.6044 29.2852 16.2762 29.2899C16.1047 29.2926 15.9325 29.2705 15.7731 29.2041C15.5962 29.1304 15.4441 29.0058 15.3108 28.8698C14.8787 28.4263 14.6811 27.8033 14.5832 27.2044C14.5404 26.9404 14.5169 26.645 14.5142 26.3596C14.5129 26.2142 14.5109 26.0648 14.5303 25.9201C14.5424 25.8303 14.4446 25.7526 14.3628 25.7526C14.2623 25.7526 14.2074 25.8303 14.1954 25.9201L14.196 25.9194Z" fill="black"/>
<path d="M24.1261 26.4904C24.1194 26.8588 24.1006 27.9388 23.6752 28.799C23.5653 29.0214 23.2719 29.6143 22.8063 29.6679C22.3815 29.7168 22.0747 29.286 21.9903 29.1641C21.3954 28.3026 21.4095 26.749 21.4128 26.3691C21.4162 25.9745 21.4282 24.6695 21.9427 23.8173C22.0325 23.6686 22.2951 23.2459 22.6937 23.1896C23.1547 23.1253 23.4936 23.5942 23.6203 23.7999C24.1576 24.6702 24.1334 26.0589 24.1261 26.4904Z" fill="black"/>
<path d="M23.9578 26.4911C23.9491 26.9735 23.9122 27.4552 23.8017 27.9261C23.734 28.2135 23.6409 28.4942 23.5082 28.7582C23.4145 28.9458 23.3086 29.1313 23.1666 29.2807C23.0085 29.4469 22.8162 29.5541 22.5898 29.4784C22.4913 29.4455 22.4049 29.3812 22.3298 29.3095C22.293 29.2747 22.2575 29.2372 22.2247 29.1983C22.2113 29.1822 22.1979 29.1662 22.1845 29.1494C22.2052 29.1756 22.1691 29.1293 22.1624 29.1199C21.8662 28.7099 21.7383 28.2001 21.6612 27.707C21.5976 27.2991 21.5775 26.8803 21.5788 26.4663C21.5802 26.0878 21.5942 25.7086 21.6438 25.3335C21.7122 24.8136 21.8428 24.2823 22.1275 23.8362C22.2381 23.6633 22.3821 23.4791 22.5864 23.392C22.8035 23.2995 23.0199 23.3839 23.1867 23.5333C23.5485 23.8576 23.7287 24.3627 23.8312 24.8417C23.9337 25.3207 23.9618 25.7964 23.9598 26.2767C23.9598 26.3484 23.9585 26.4201 23.9571 26.4918C23.9531 26.7075 24.2881 26.7075 24.2921 26.4918C24.3001 26.0235 24.2827 25.5572 24.2144 25.0936C24.132 24.5302 23.9685 23.9567 23.6121 23.5025C23.4459 23.2908 23.2202 23.0925 22.9489 23.0363C22.636 22.9719 22.3432 23.0992 22.1195 23.3143C21.7215 23.6955 21.5172 24.2609 21.4013 24.7861C21.2921 25.2812 21.2512 25.7904 21.2452 26.2962C21.2405 26.68 21.2506 27.0639 21.2921 27.4458C21.3544 28.0172 21.4683 28.6108 21.7597 29.1139C22.0063 29.54 22.4725 29.9956 23.0071 29.7906C23.5015 29.601 23.7796 29.0302 23.9578 28.5652C24.1789 27.9898 24.2619 27.3634 24.2861 26.7504C24.2894 26.664 24.2914 26.5775 24.2928 26.4911C24.2968 26.2754 23.9618 26.2754 23.9578 26.4911Z" fill="black"/>
<path d="M21.0768 25.0762L20.916 27.236L22.6739 26.2586L21.0768 25.0762Z" fill="white"/>
<path d="M24.0425 24.5724C23.8984 24.1443 23.67 23.7169 23.3116 23.3625C23.0677 23.122 22.4186 22.574 21.5356 22.6497C20.7725 22.7147 20.2694 23.2084 20.0972 23.3826C19.7844 23.6981 19.5686 24.0666 19.4199 24.4378L24.0432 24.5724H24.0425Z" fill="#F2E9FF"/>
<path d="M24.164 24.5378C23.8907 23.7365 23.342 23.0311 22.5502 22.6948C22.1067 22.5065 21.6136 22.4623 21.1466 22.5909C20.7722 22.6941 20.4332 22.9004 20.1464 23.1597C19.7673 23.5027 19.4906 23.9308 19.2983 24.4031C19.2661 24.4822 19.3465 24.5599 19.4196 24.5619C19.9408 24.5773 20.462 24.592 20.9832 24.6074C21.8132 24.6316 22.6433 24.6557 23.4733 24.6798C23.6629 24.6852 23.8532 24.6905 24.0428 24.6965C24.2042 24.7012 24.2042 24.45 24.0428 24.4453C23.5216 24.4299 23.0004 24.4152 22.4792 24.3998C21.6491 24.3756 20.8191 24.3515 19.989 24.3274C19.7994 24.322 19.6092 24.3167 19.4196 24.3107L19.5408 24.4694C19.8175 23.7881 20.3488 23.1396 21.0582 22.8823C21.4702 22.733 21.9131 22.7316 22.3271 22.8757C22.6306 22.9815 22.9099 23.161 23.1471 23.3774C23.5115 23.7104 23.7634 24.1398 23.9215 24.6041C23.9731 24.7562 24.2163 24.6912 24.164 24.5371V24.5378Z" fill="black"/>
</g>
</svg>
