<svg width="196" height="67" viewBox="0 0 196 67" fill="none" xmlns="http://www.w3.org/2000/svg">
<path d="M57.333 60.1028L68.1941 6.01367H78.7849L67.9239 60.1028H57.333Z" fill="black"/>
<path d="M120 60.1028V6.01367H147.747V15.2807H130.591V28.1816H145.896V37.1514H130.591V51.133H148.058V60.1028H120.014H120Z" fill="black"/>
<path d="M164.471 60.1028L175.332 6.01367H185.923L175.062 60.1028H164.471Z" fill="black"/>
<path d="M31.6802 60.1028L20.8191 6.01367H10.2283L21.0893 60.1028H31.6802Z" fill="black"/>
<path d="M40.3399 6H29.7626L24.332 33.0446H34.9229L40.3399 6Z" fill="url(#paint0_linear_3633_106516)"/>
<path d="M51.201 60.1028L40.3399 6.01367H29.749L40.6101 60.1028H51.201Z" fill="black"/>
<path d="M1.78516 28.2354L3.17656 35.5301H53.7399V28.2354H1.78516Z" fill="black"/>
<path d="M51.0514 6L45.1345 35.5302H55.7254L61.6422 6H51.0514Z" fill="black"/>
<path d="M163.31 6L169.24 35.5302H158.649L152.732 6H163.31Z" fill="black"/>
<path d="M104.506 6V36.057L90.7544 6H82.9463V60.0891H92.6861V39.4612L92.6321 38.4886C92.6321 35.341 92.6591 32.4502 92.6591 30.3158L107.046 60.1026H114.233V6.01351H104.493L104.506 6Z" fill="black"/>
<defs>
<linearGradient id="paint0_linear_3633_106516" x1="24.332" y1="19.5223" x2="40.3399" y2="19.5223" gradientUnits="userSpaceOnUse">
<stop offset="0.03" stop-color="white"/>
<stop offset="0.831224"/>
</linearGradient>
</defs>
</svg>
