<svg width="115" height="45" viewBox="0 0 115 45" fill="none" xmlns="http://www.w3.org/2000/svg">
<path d="M60.2966 35.9591L58.6855 32.4822V35.9591H57.9756V31.6948H59.0314L60.6379 35.1855V31.6948H61.3525V35.9591H60.2966Z" fill="#575756"/>
<path d="M63.5008 33.9842H64.2199C64.2199 33.7839 64.1425 33.6337 63.9878 33.5336C63.833 33.4335 63.61 33.3834 63.3142 33.3834H63.296C63.0184 33.3834 62.7226 33.4471 62.4131 33.5791L62.2356 33.033C62.5587 32.8919 62.9137 32.8236 63.3006 32.8191H63.3142C63.8285 32.8191 64.2244 32.9192 64.4975 33.1149C64.7751 33.3152 64.9116 33.6292 64.9116 34.0615V35.9593H64.2517V35.6225C64.1197 35.7545 63.9605 35.8546 63.7693 35.9274C63.5782 36.0003 63.387 36.0367 63.1913 36.0367C62.8227 36.0367 62.5269 35.9411 62.2993 35.7454C62.0718 35.5497 61.958 35.3131 61.958 35.0309C61.958 34.7169 62.0991 34.4575 62.3813 34.2527C62.6407 34.0752 63.0138 33.9842 63.4963 33.9842M63.3051 35.4814C63.4826 35.4814 63.6646 35.4359 63.8376 35.3495C64.0151 35.263 64.138 35.1583 64.2153 35.0445V34.5257H63.5964C63.246 34.5257 63.0002 34.5712 62.8591 34.6623C62.7271 34.7624 62.6589 34.8853 62.6589 35.0309C62.6589 35.1629 62.718 35.2675 62.8318 35.354C62.9456 35.4405 63.1049 35.4814 63.3006 35.4814" fill="#575756"/>
<path d="M66.6137 31.9088V32.8964H67.2827V33.4607H66.6137V35.0217C66.6137 35.1673 66.6501 35.2674 66.7229 35.3221C66.7957 35.3767 66.8959 35.404 67.0278 35.404H67.2827V35.9592H66.8595C66.5272 35.9592 66.2906 35.8864 66.1358 35.7408C65.9857 35.5951 65.9083 35.3767 65.9083 35.0854V33.4561H65.3804V32.8918H65.9083V31.9042H66.6137V31.9088Z" fill="#575756"/>
<path d="M68.6704 32.0316C68.6704 32.1499 68.6249 32.2546 68.5384 32.341C68.4519 32.4321 68.3473 32.473 68.2244 32.473C68.1015 32.473 67.9968 32.4275 67.9104 32.341C67.8239 32.2546 67.7784 32.1499 67.7784 32.0316C67.7784 31.9132 67.8239 31.804 67.9104 31.7176C67.9968 31.6311 68.1015 31.5856 68.2244 31.5856C68.3473 31.5856 68.4519 31.6311 68.5384 31.7176C68.6249 31.804 68.6704 31.9087 68.6704 32.0316ZM67.8785 32.8963H68.5794V35.9637H67.8785V32.8963Z" fill="#575756"/>
<path d="M70.837 36.0368C70.3865 36.0368 70.0042 35.882 69.6902 35.5771C69.3716 35.2676 69.2169 34.8899 69.2169 34.4348C69.2169 33.9797 69.3761 33.602 69.6902 33.2879C70.0042 32.9785 70.3865 32.8237 70.837 32.8237C71.2876 32.8237 71.6744 32.9785 71.9884 33.2879C72.3025 33.5974 72.4617 33.9797 72.4617 34.4348C72.4617 34.8899 72.3025 35.2676 71.9884 35.5771C71.6744 35.8866 71.2921 36.0368 70.837 36.0368ZM70.837 35.4633C71.0919 35.4633 71.3058 35.3678 71.4878 35.1721C71.6699 34.9809 71.7609 34.7306 71.7609 34.4348C71.7609 34.139 71.6699 33.8932 71.4878 33.6975C71.3058 33.4973 71.0873 33.4017 70.837 33.4017C70.5867 33.4017 70.3728 33.5018 70.1908 33.6975C70.0087 33.8978 69.9177 34.1435 69.9177 34.4348C69.9177 34.7261 70.0087 34.9809 70.1908 35.1721C70.3728 35.3632 70.5867 35.4633 70.837 35.4633Z" fill="#575756"/>
<path d="M73.7494 34.4165V35.9593H73.0576V32.8919H73.7266V33.3015C73.8085 33.1605 73.9269 33.0421 74.0816 32.9511C74.2363 32.8601 74.4047 32.8146 74.5822 32.8146C74.9463 32.8146 75.2376 32.9375 75.456 33.1878C75.6745 33.4335 75.7837 33.7657 75.7837 34.1753V35.9593H75.0874V34.3528C75.0874 34.0252 75.0328 33.7839 74.9281 33.6292C74.8234 33.4699 74.6596 33.3926 74.4366 33.3926C74.3228 33.3926 74.209 33.429 74.1044 33.5063C73.9951 33.5837 73.9132 33.6838 73.8586 33.8158C73.7903 33.966 73.7539 34.1662 73.7539 34.4165" fill="#575756"/>
<path d="M77.9092 33.9842H78.6328C78.6328 33.7839 78.5554 33.6337 78.4007 33.5336C78.246 33.4335 78.023 33.3834 77.7271 33.3834H77.7089C77.4313 33.3834 77.1355 33.4471 76.826 33.5791L76.6485 33.033C76.9717 32.8919 77.3266 32.8236 77.7135 32.8191H77.7271C78.2414 32.8191 78.6373 32.9192 78.915 33.1149C79.188 33.3152 79.3291 33.6292 79.3291 34.0615V35.9593H78.6692V35.6225C78.5372 35.7545 78.3779 35.8546 78.1868 35.9274C77.9957 36.0003 77.8045 36.0367 77.6088 36.0367C77.2402 36.0367 76.9444 35.9411 76.7168 35.7454C76.4893 35.5497 76.3755 35.3131 76.3755 35.0309C76.3755 34.7169 76.5166 34.4575 76.7987 34.2527C77.0581 34.0752 77.4313 33.9842 77.9137 33.9842M77.7226 35.4814C77.9046 35.4814 78.0821 35.4359 78.2551 35.3495C78.428 35.263 78.5554 35.1583 78.6328 35.0445V34.5257H78.0139C77.6634 34.5257 77.4177 34.5712 77.2811 34.6623C77.1446 34.7624 77.0809 34.8853 77.0809 35.0309C77.0809 35.1629 77.1401 35.2675 77.2538 35.354C77.3676 35.4405 77.5223 35.4814 77.7226 35.4814Z" fill="#575756"/>
<path d="M80.8265 31.6948H80.1348V35.9637H80.8265V31.6948Z" fill="#575756"/>
<path d="M85.0724 32.2956V35.9591H84.3534V32.2956H83.0518V31.6948H86.374V32.2956H85.0724Z" fill="#575756"/>
<path d="M87.7165 33.9842H88.4401C88.4401 33.7839 88.3627 33.6337 88.208 33.5336C88.0533 33.4335 87.8302 33.3834 87.5344 33.3834H87.5162C87.2386 33.3834 86.9473 33.4471 86.6333 33.5791L86.4558 33.033C86.779 32.8919 87.1339 32.8236 87.5208 32.8191H87.5344C88.0487 32.8191 88.4446 32.9192 88.7177 33.1149C88.9953 33.3152 89.1318 33.6292 89.1318 34.0615V35.9593H88.4719V35.6225C88.34 35.7545 88.1807 35.8546 87.9895 35.9274C87.7984 36.0003 87.6072 36.0367 87.4116 36.0367C87.0429 36.0367 86.7471 35.9411 86.5195 35.7454C86.292 35.5497 86.1782 35.3131 86.1782 35.0309C86.1782 34.7169 86.3193 34.4575 86.6015 34.2527C86.8609 34.0752 87.2341 33.9842 87.7165 33.9842ZM87.5253 35.4814C87.7074 35.4814 87.8803 35.4359 88.0578 35.3495C88.2353 35.263 88.3582 35.1583 88.4355 35.0445V34.5257H87.8166C87.4662 34.5257 87.2204 34.5712 87.0793 34.6623C86.9473 34.7624 86.8791 34.8853 86.8791 35.0309C86.8791 35.1629 86.9382 35.2675 87.052 35.354C87.1658 35.4405 87.3251 35.4814 87.5253 35.4814Z" fill="#575756"/>
<path d="M90.297 35.9593H89.5142L90.702 34.3574L89.6189 32.8965H90.4017L91.0934 33.8249L91.7806 32.8965H92.5634L91.4848 34.3574L92.6681 35.9593H91.8853L91.0934 34.8898L90.297 35.9593Z" fill="#575756"/>
<path d="M94.4976 35.099L94.9709 34.6211C95.0983 34.8896 95.2576 35.0899 95.4487 35.2173C95.6581 35.3584 95.8674 35.4266 96.0768 35.4266C96.2998 35.4266 96.4909 35.3675 96.6502 35.2491C96.8095 35.1354 96.8914 34.9852 96.8914 34.794C96.8914 34.6257 96.8095 34.4891 96.6502 34.389C96.4909 34.2843 96.3134 34.1979 96.1268 34.1205C95.9357 34.0522 95.7445 33.9749 95.5397 33.8929C95.2121 33.7746 94.98 33.6199 94.8389 33.4287C94.6978 33.2376 94.625 33.0328 94.625 32.8234C94.625 32.4958 94.7661 32.2091 95.0482 31.977C95.3304 31.7449 95.6763 31.6265 96.0813 31.6265C96.5091 31.6265 96.8595 31.7357 97.1281 31.9542C97.2646 32.0634 97.3647 32.1818 97.4148 32.3092L96.987 32.7643C96.9506 32.6915 96.8823 32.6095 96.7867 32.514C96.5774 32.3228 96.3316 32.2318 96.0449 32.2318C95.8674 32.2318 95.7081 32.2819 95.5716 32.382C95.4351 32.4821 95.3668 32.6141 95.3668 32.7825C95.3668 33.0373 95.6444 33.2603 96.1996 33.456C96.2998 33.4879 96.409 33.5243 96.5182 33.5653C96.8914 33.7063 97.169 33.8793 97.3556 34.0704C97.5422 34.2616 97.6332 34.5028 97.6332 34.7895C97.6332 35.1263 97.4876 35.4175 97.2009 35.6633C96.9142 35.9136 96.5455 36.0365 96.0904 36.0365C95.6763 36.0365 95.3304 35.9409 95.0573 35.7543C94.7934 35.5723 94.6068 35.3538 94.5021 35.099" fill="#575756"/>
<path d="M98.7849 34.7351C98.8258 34.9217 98.9123 35.0764 99.0488 35.1947C99.2445 35.3722 99.5039 35.4632 99.8271 35.4632C100.168 35.4632 100.482 35.3404 100.774 35.0901L100.983 35.6043C100.651 35.891 100.259 36.0321 99.8088 36.0321C99.29 36.0321 98.8713 35.8865 98.5437 35.5907C98.2205 35.2994 98.0567 34.9126 98.0567 34.4347C98.0567 33.9569 98.1978 33.5791 98.489 33.2742C98.7758 32.9693 99.1535 32.8191 99.6177 32.8191C100.082 32.8191 100.451 32.9693 100.742 33.2742C101.033 33.5791 101.179 33.9477 101.179 34.3937C101.179 34.5166 101.17 34.6304 101.147 34.7351H98.7849ZM98.7712 34.1844H100.473C100.464 33.9842 100.382 33.8021 100.223 33.6383C100.064 33.4744 99.8635 33.388 99.6177 33.388C99.3719 33.388 99.1535 33.479 98.9942 33.6565C98.8759 33.793 98.8031 33.966 98.7758 34.1844" fill="#575756"/>
<path d="M101.774 35.9594V32.892H102.43V33.3516C102.53 33.2014 102.657 33.0831 102.803 33.0012C102.976 32.8965 103.185 32.8419 103.422 32.8419H103.472V33.4654H103.399C103.108 33.4654 102.88 33.5519 102.707 33.7294C102.548 33.9023 102.466 34.1663 102.466 34.5304V35.9594H101.774Z" fill="#575756"/>
<path d="M105.27 35.3814L106.089 32.8965H106.813L105.748 35.9593H104.792L103.727 32.8965H104.446L105.27 35.3814Z" fill="#575756"/>
<path d="M108.023 32.0316C108.023 32.1499 107.978 32.2546 107.891 32.341C107.805 32.4321 107.7 32.473 107.577 32.473C107.455 32.473 107.35 32.4275 107.263 32.341C107.177 32.2546 107.131 32.1499 107.131 32.0316C107.131 31.9132 107.177 31.804 107.263 31.7176C107.35 31.6311 107.455 31.5856 107.577 31.5856C107.7 31.5856 107.805 31.6311 107.891 31.7176C107.978 31.804 108.023 31.9087 108.023 32.0316ZM107.232 32.8963H107.928V35.9637H107.232V32.8963Z" fill="#575756"/>
<path d="M108.569 34.4302C108.569 33.9887 108.733 33.611 109.07 33.2924C109.402 32.9738 109.825 32.8191 110.335 32.8191C110.736 32.8191 111.109 32.9465 111.464 33.2059L111.236 33.7521C110.931 33.5154 110.631 33.3971 110.335 33.3971C110.021 33.3971 109.766 33.4972 109.571 33.6974C109.375 33.8977 109.279 34.1434 109.279 34.4302C109.279 34.7169 109.375 34.9626 109.571 35.1629C109.766 35.3631 110.021 35.4587 110.335 35.4587C110.631 35.4587 110.936 35.3404 111.245 35.1083L111.473 35.6544C111.136 35.9092 110.754 36.0367 110.335 36.0367C109.825 36.0367 109.402 35.8819 109.07 35.5634C108.738 35.2493 108.569 34.8716 108.569 34.4302Z" fill="#575756"/>
<path d="M112.606 34.7351C112.647 34.9217 112.734 35.0764 112.87 35.1947C113.066 35.3722 113.325 35.4632 113.648 35.4632C113.99 35.4632 114.304 35.3404 114.595 35.0901L114.804 35.6043C114.472 35.891 114.081 36.0321 113.63 36.0321C113.111 36.0321 112.688 35.8865 112.365 35.5907C112.042 35.2994 111.878 34.9126 111.878 34.4347C111.878 33.9569 112.024 33.5791 112.31 33.2742C112.597 32.9693 112.975 32.8191 113.439 32.8191C113.903 32.8191 114.272 32.9693 114.563 33.2742C114.854 33.5791 115 33.9477 115 34.3937C115 34.5166 114.991 34.6304 114.968 34.7351H112.602H112.606ZM112.592 34.1844H114.295C114.285 33.9842 114.204 33.8021 114.044 33.6383C113.885 33.4744 113.685 33.388 113.439 33.388C113.193 33.388 112.979 33.479 112.815 33.6565C112.697 33.793 112.624 33.966 112.592 34.1844Z" fill="#575756"/>
<path d="M34.7426 21.4758C30.8332 18.8221 25.8271 19.9054 23.2012 23.902C21.003 27.2385 17.6944 27.6527 16.411 27.6527C12.2332 27.6527 9.37057 24.7122 8.52408 21.667C8.51953 21.6351 8.51043 21.6078 8.50588 21.5805C8.49678 21.5486 8.48767 21.5122 8.47857 21.4758C8.14635 20.2058 8.06443 19.6004 8.06443 18.2531C8.06443 10.9746 15.5281 2.87224 26.2868 2.87224C37.0454 2.87224 43.5989 11.2568 45.219 15.9134C45.1917 15.8315 45.169 15.7495 45.1417 15.663C42.0015 6.55472 33.3591 0 23.1875 0C10.3809 0 0 10.3829 0 23.1964C0 34.6444 8.25557 44.4446 19.706 44.4446C28.8399 44.4446 34.9792 39.3238 37.7918 32.2638C39.3391 28.4038 38.2423 23.8656 34.738 21.4804" fill="#003863"/>
<path d="M45.3511 16.3686C43.9994 11.8258 37.6507 2.87683 26.2732 2.87683C15.5191 2.87683 8.05084 10.9792 8.05084 18.2577C8.05084 19.605 8.13276 20.215 8.46499 21.4804C8.3239 20.9296 8.25109 20.3743 8.25109 19.8281C8.25109 12.2492 15.8377 6.99174 23.6427 6.99174C34.2011 6.99174 42.757 15.5538 42.757 26.1142C42.757 34.3941 37.9921 41.5588 31.0745 45C39.9945 41.7727 46.366 33.2288 46.366 23.1919C46.366 20.8113 46.0474 18.722 45.342 16.3641" fill="#E4032E"/>
<path d="M73.1491 19.1771V25.4405H70.9145V21.1299H59.091V19.1771H65.1165V16.5325H57.9669V14.5797H74.4825V16.5325H67.3329V19.1771H73.1536H73.1491ZM73.1491 7.79285V13.1504H70.9145V9.76837H59.2958V7.79285H73.1536H73.1491Z" fill="#575756"/>
<path d="M82.6876 7.55161L87.7028 22.1768L85.8278 22.9415L82.6876 13.7149L79.5838 23.0781L77.6724 22.3179L82.6876 7.54706V7.55161ZM88.7314 7.45147H90.8021V25.2994H88.7314V16.0136H86.4968V14.0016H88.7314V7.45147ZM92.4996 7.43326H94.6568V25.3996H92.4996V7.42871V7.43326Z" fill="#575756"/>
<path d="M99.0988 10.7925V8.92165H103.309V7.21014H105.684V8.92165H109.694V10.7925H105.32L109.853 15.3853L108.401 16.7555L104.492 12.6861L100.623 17.0786L99.1353 15.6903L103.686 10.7925H99.0943H99.0988ZM113.439 21.5714C113.439 22.1768 113.316 22.7457 113.071 23.2692C112.82 23.8018 112.488 24.2661 112.069 24.6712C111.651 25.0763 111.159 25.3949 110.59 25.6316C110.021 25.8638 109.411 25.9821 108.77 25.9821C108.128 25.9821 107.536 25.8638 106.958 25.6316C106.38 25.3949 105.884 25.0763 105.47 24.6712C105.052 24.2706 104.719 23.8018 104.474 23.2692C104.223 22.7412 104.1 22.1768 104.1 21.5714C104.1 20.966 104.223 20.4015 104.474 19.8735C104.719 19.3409 105.052 18.8721 105.47 18.467C105.884 18.0664 106.38 17.7478 106.958 17.5111C107.536 17.2698 108.142 17.156 108.77 17.156C109.398 17.156 110.021 17.2698 110.59 17.5111C111.159 17.7432 111.655 18.0664 112.069 18.467C112.488 18.8721 112.816 19.3409 113.071 19.8735C113.316 20.4015 113.439 20.9705 113.439 21.5714ZM111.246 21.5531C111.246 20.8795 111 20.3059 110.508 19.8234C110.017 19.3409 109.43 19.0951 108.747 19.0951C108.064 19.0951 107.496 19.3409 107.013 19.8234C106.531 20.3059 106.289 20.884 106.289 21.5531C106.289 22.2223 106.531 22.8186 107.013 23.292C107.496 23.7699 108.073 24.0066 108.747 24.0066C109.421 24.0066 110.017 23.7654 110.508 23.292C111 22.8186 111.246 22.2405 111.246 21.5531ZM112.734 17.0013V13.5782H109.594V11.6619H112.734V7.43319H114.968V17.0013H112.734Z" fill="#575756"/>
</svg>
