<svg width="40" height="40" viewBox="0 0 40 40" fill="none" xmlns="http://www.w3.org/2000/svg">
<rect width="40" height="40" rx="8" fill="#F0F2F5"/>
<rect x="8" y="8" width="24" height="24" fill="#F0F2F5"/>
<path fill-rule="evenodd" clip-rule="evenodd" d="M17.712 13.4385C17.7895 13.1613 18.053 12.9781 18.3399 13.0021C18.7545 13.0368 19.3716 13.1832 19.9376 13.5177C20.5124 13.8575 21.0764 14.4198 21.2563 15.2867C21.2646 15.3268 21.2688 15.3676 21.2688 15.4086V17.7432H26.35C26.6814 17.7432 26.95 18.0118 26.95 18.3432V20.6006C26.95 20.6795 26.9344 20.7576 26.9042 20.8305L24.4848 26.6604C24.3918 26.8845 24.1731 27.0305 23.9306 27.0305H13.6C13.2686 27.0305 13 26.7618 13 26.4305V20.2882C13 19.9568 13.2686 19.6882 13.6 19.6882H15.9655L17.712 13.4385ZM18.7196 14.2917L16.9986 20.4497C16.9262 20.7089 16.6899 20.8882 16.4208 20.8882H14.2V25.8305H23.53L25.75 20.481V18.9432H20.6688C20.3374 18.9432 20.0688 18.6746 20.0688 18.3432V15.4757C19.9653 15.061 19.688 14.7642 19.327 14.5508C19.1279 14.4331 18.9152 14.3488 18.7196 14.2917Z" fill="#7C26FA"/>
<path fill-rule="evenodd" clip-rule="evenodd" d="M15.8125 26.3953V20.3789H17.0125V26.3953H15.8125Z" fill="#7C26FA"/>
</svg>
