<svg width="15" height="16" viewBox="0 0 15 16" fill="none" xmlns="http://www.w3.org/2000/svg">
<path fill-rule="evenodd" clip-rule="evenodd" d="M5.3971 1.43377C5.47458 1.15649 5.73809 0.97334 6.02499 0.997347C6.43952 1.03204 7.05667 1.17842 7.62265 1.51297C8.19747 1.85275 8.76151 2.41508 8.94136 3.28192C8.94968 3.32202 8.95387 3.36286 8.95387 3.40382V5.73844H14.0351C14.3664 5.73844 14.6351 6.00707 14.6351 6.33844V8.5958C14.6351 8.67473 14.6195 8.75288 14.5892 8.82579L12.1698 14.6557C12.0769 14.8797 11.8582 15.0257 11.6157 15.0257H1.28506C0.953688 15.0257 0.685059 14.7571 0.685059 14.4257V8.28344C0.685059 7.95207 0.953688 7.68344 1.28506 7.68344H3.65052L5.3971 1.43377ZM6.40465 2.28692L4.68369 8.44493C4.61124 8.70418 4.375 8.88344 4.10583 8.88344H1.88506V13.8257H11.2151L13.4351 8.47625V6.93844H8.35387C8.0225 6.93844 7.75387 6.66981 7.75387 6.33844V3.47091C7.65039 3.05622 7.37308 2.75941 7.01203 2.546C6.81292 2.42831 6.60027 2.344 6.40465 2.28692Z" fill="white"/>
<path fill-rule="evenodd" clip-rule="evenodd" d="M3.49756 14.3898V8.37338H4.69756V14.3898H3.49756Z" fill="white"/>
</svg>
