<svg width="280" height="280" viewBox="0 0 280 280" fill="none" xmlns="http://www.w3.org/2000/svg">
<ellipse cx="91.5384" cy="13.3333" rx="91.5384" ry="13.3333" transform="matrix(1 0 0 -1 64.6162 280)" fill="#E0E5EB"/>
<g clip-path="url(#clip0_3633_106387)">
<path d="M72.4672 79.8441C72.4672 79.8441 68.7319 77.5956 67.9332 77.2966C67.1344 76.9976 67.2871 74.4113 67.2871 74.4113C67.2871 74.4113 68.219 70.2599 69.2487 69.5337C70.2785 68.8075 71.457 67.627 72.6434 67.926C72.6434 67.926 78.4929 71.0715 79.0724 71.5375L79.5109 70.9162L79.9221 61.4796L76.085 57.5341L75.2314 56.0545C75.2314 56.0545 70.3803 52.408 70.3803 52.1439C70.3803 51.8798 58.1447 40.2607 58.1447 40.2607L50.0751 44.9363L33.4817 62.831L41.1715 75.6035L44.5896 76.9393H55.4901L60.9207 81.1217L72.4633 79.848L72.4672 79.8441Z" fill="white"/>
<path d="M73.7632 79.6694C73.7632 79.6694 66.6685 88.4031 59.3859 86.1391C53.5872 84.3372 53.5872 76.9355 53.5872 76.9355C53.5872 76.9355 42.6554 84.345 37.1387 70.9512" fill="white"/>
<path d="M73.075 78.9812C72.3937 79.82 71.6067 80.5851 70.808 81.3074C69.2262 82.7326 67.386 84.0607 65.3617 84.8374C63.173 85.6723 60.7102 85.8859 58.6155 84.7714C57.7189 84.2937 56.928 83.5753 56.3994 82.8219C56.1136 82.418 55.8669 81.987 55.6476 81.5404C55.4714 81.1792 55.3383 80.8452 55.1739 80.3443C55.029 79.8938 54.9076 79.4317 54.8097 78.9696C54.7667 78.7676 54.7314 78.5618 54.6962 78.356C54.6805 78.2667 54.6688 78.1812 54.657 78.0919C54.6375 77.9677 54.6805 78.2939 54.6492 78.0143C54.6101 77.657 54.5709 77.292 54.5709 76.9308C54.5709 76.2357 53.7252 75.6687 53.0987 76.092C52.762 76.3211 52.3979 76.5114 52.0377 76.6978C51.8497 76.7949 51.6579 76.8842 51.466 76.9696C51.3681 77.0162 51.2663 77.0551 51.1684 77.1017C51.1136 77.125 51.372 77.0201 51.1919 77.09C51.1293 77.1133 51.0627 77.1405 51.0001 77.1677C50.4872 77.3696 49.9625 77.5405 49.4261 77.6764C49.1403 77.7502 48.8505 77.8123 48.5569 77.8667C48.412 77.8939 48.2671 77.9172 48.1223 77.9366C48.3729 77.9016 47.9187 77.956 47.8208 77.9677C47.1552 78.0259 46.4856 78.0181 45.82 77.9444C45.6243 77.9249 45.9531 77.9677 45.7574 77.9366C45.6752 77.9211 45.5929 77.9094 45.5146 77.8939C45.3384 77.8628 45.1583 77.824 44.986 77.7813C44.6219 77.6919 44.2695 77.5754 43.9211 77.4395C43.878 77.424 43.8388 77.4085 43.7997 77.389C43.8153 77.3968 43.9328 77.4473 43.8271 77.4007C43.7449 77.3619 43.6626 77.3269 43.5804 77.2881C43.4003 77.2026 43.2241 77.1094 43.0479 77.0085C42.7308 76.8298 42.3236 76.558 42.0965 76.3832C40.2954 75.0008 38.9838 72.8299 38.095 70.6902C37.8953 70.2048 37.445 69.8591 36.889 70.0106C36.427 70.1349 36.0042 70.7174 36.2038 71.2067C37.7857 75.0163 40.4364 78.8026 44.7511 79.7191C47.4214 80.286 50.1583 79.7191 52.5976 78.5851C53.1105 78.3482 53.6234 78.088 54.0932 77.7735L52.621 76.9347C52.6289 80.2822 54.0423 83.9442 56.8223 85.9441C61.4972 89.3071 67.4447 86.6276 71.3405 83.4238C72.4603 82.4996 73.5527 81.486 74.4689 80.3559C74.8017 79.9482 74.8722 79.3812 74.4689 78.9812C74.1243 78.6395 73.4196 78.5696 73.0828 78.9812H73.075Z" fill="black"/>
<path d="M66.7606 76.6973C71.0988 78.8564 75.2609 81.4195 79.3094 84.068C81.3062 85.3767 83.2718 86.7281 85.206 88.1261C86.1926 88.8406 87.1715 89.5668 88.1425 90.3047C87.3085 89.6639 88.7611 90.794 88.9373 90.9299C89.505 91.3765 90.065 91.8308 90.6249 92.2852C94.9044 95.7841 98.9724 99.5549 102.653 103.675C105.026 106.331 106.044 107.601 107.954 110.432C109.732 113.065 111.294 115.83 112.598 118.723C113.765 121.31 117.555 121.923 119.83 120.603C122.512 119.046 122.895 116.024 121.725 113.43C116.921 102.782 108.651 93.7803 99.7868 86.2737C92.6726 80.2506 84.9554 74.8721 76.8584 70.2314C75.2922 69.3344 73.7182 68.4451 72.1012 67.6412C69.5523 66.3714 66.373 66.9694 64.8695 69.5208C63.4991 71.8469 64.2038 75.4197 66.7645 76.6934L66.7606 76.6973Z" fill="black"/>
<path d="M131.463 191.568C119.783 188.291 107.246 193.937 101.107 204.038C97.4734 210.018 95.9581 216.884 95.0967 223.731C94.7404 226.546 97.7788 228.973 100.383 228.973C103.534 228.973 105.312 226.554 105.668 223.731C105.77 222.938 106.025 221.42 106.287 220.142C106.573 218.756 106.913 217.377 107.324 216.022C107.669 214.873 108.076 213.746 108.511 212.628C108.147 213.568 108.632 212.36 108.777 212.053C109.047 211.486 109.333 210.923 109.635 210.372C110.077 209.572 110.555 208.791 111.075 208.038C111.267 207.758 112.297 206.578 111.346 207.63C111.659 207.284 111.941 206.912 112.258 206.566C112.818 205.952 113.409 205.374 114.032 204.826C114.31 204.585 114.611 204.364 114.885 204.119C113.734 205.149 114.799 204.213 115.179 203.96C115.786 203.56 116.416 203.195 117.062 202.861C117.352 202.714 117.653 202.578 117.947 202.434C118.93 201.953 116.815 202.819 118.068 202.395C119.321 201.972 120.57 201.638 121.87 201.382C122.951 201.168 121.792 201.622 121.518 201.413C121.62 201.49 122.273 201.331 122.422 201.316C122.994 201.265 123.565 201.238 124.137 201.226C125.065 201.211 125.985 201.261 126.909 201.331C127.14 201.351 127.371 201.397 127.602 201.405C127.767 201.413 125.958 201.137 126.882 201.312C127.191 201.37 127.504 201.413 127.814 201.475C128.1 201.533 128.385 201.591 128.663 201.669C131.408 202.438 134.415 200.722 135.167 198.007C135.919 195.293 134.231 192.333 131.475 191.557L131.463 191.568Z" fill="black"/>
<path d="M152.906 31.5045C141.199 50.1913 133.603 80.2487 133.603 114.151C133.603 148.053 141.199 178.11 152.906 196.797V215.795C152.906 216.323 153.356 216.746 153.889 216.715L181.011 215.177C206.218 209.608 228.418 170.673 228.418 114.151C228.418 57.628 207.995 21.5203 181.731 12.9613L155.236 11.6448C153.967 11.5827 152.906 12.5846 152.906 13.8428V31.5045Z" fill="#674AD6"/>
<path d="M153.837 218.073C153.254 218.073 152.682 217.852 152.259 217.452C151.801 217.025 151.539 216.419 151.539 215.794V197.181C145.697 187.752 140.858 175.422 137.533 161.492C134.017 146.763 132.236 130.833 132.236 114.15C132.236 97.4669 134.017 81.5373 137.533 66.8076C140.858 52.874 145.697 40.5481 151.539 31.1192V13.8421C151.539 12.8712 151.946 11.9314 152.655 11.2635C153.363 10.5955 154.33 10.2422 155.305 10.2888L181.985 11.613L182.161 11.6712C195.947 16.1604 207.705 27.6786 216.158 44.9752C225.074 63.2193 229.788 87.141 229.788 114.15C229.788 141.159 224.811 165.438 215.395 184.369C206.53 202.19 194.424 213.603 181.307 216.5L181.088 216.532L153.966 218.069C153.923 218.069 153.88 218.069 153.837 218.069V218.073ZM155.125 13.0032C154.906 13.0032 154.702 13.0848 154.542 13.2362C154.373 13.3955 154.279 13.6129 154.279 13.8459V31.892L154.072 32.2221C142.114 51.309 134.977 81.9334 134.977 114.15C134.977 146.367 142.114 176.991 154.072 196.078L154.279 196.408V215.332L180.822 213.825C193.073 211.068 204.475 200.186 212.94 183.169C222.168 164.611 227.047 140.743 227.047 114.154C227.047 87.5643 222.427 64.0426 213.692 46.1674C205.606 29.6203 194.467 18.6109 181.48 14.3158L155.168 13.011C155.168 13.011 155.137 13.011 155.125 13.011V13.0032Z" fill="black"/>
<path d="M154.363 216.767C180.545 216.767 201.771 170.823 201.771 114.149C201.771 57.4742 180.545 11.5303 154.363 11.5303C128.181 11.5303 106.956 57.4742 106.956 114.149C106.956 170.823 128.181 216.767 154.363 216.767Z" fill="#A495FC"/>
<path d="M154.364 218.126C141.134 218.126 128.789 207.171 119.595 187.277C110.563 167.72 105.586 141.748 105.586 114.149C105.586 86.5493 110.563 60.5773 119.595 41.0205C128.785 21.1259 141.134 10.1709 154.364 10.1709C167.594 10.1709 179.939 21.1259 189.133 41.0205C198.165 60.5773 203.142 86.5493 203.142 114.149C203.142 141.748 198.165 167.72 189.133 187.277C179.943 207.171 167.594 218.126 154.364 218.126ZM154.364 12.8854C142.269 12.8854 130.805 23.2773 122.09 42.1506C113.217 61.3578 108.331 86.926 108.331 114.149C108.331 141.371 113.217 166.935 122.09 186.147C130.809 205.016 142.269 215.412 154.364 215.412C166.459 215.412 177.923 205.02 186.639 186.147C195.511 166.939 200.397 141.371 200.397 114.149C200.397 86.926 195.511 61.3617 186.639 42.1506C177.919 23.2812 166.459 12.8854 154.364 12.8854Z" fill="black"/>
<path d="M127.226 40.1784C127.856 40.1784 127.856 39.2075 127.226 39.2075C126.596 39.2075 126.596 40.1784 127.226 40.1784Z" fill="black"/>
<path d="M127.862 40.0579C131.687 33.4174 136.734 26.6836 143.876 23.3089C148.516 21.1148 153.743 20.94 158.496 22.8468C162.799 24.571 166.405 27.7243 169.388 31.1805C173.198 35.5921 176.154 40.7065 178.621 45.9568C185.144 59.8438 188.488 75.2181 190.218 90.375C192.258 108.239 192.035 126.479 189.384 144.269C187.231 158.727 183.55 173.413 176.589 186.388C172.137 194.687 165.446 204.077 155.63 206.348C146.542 208.453 138.535 202.69 133.112 196.003C129.365 191.386 126.468 186.101 124.056 180.695C121.096 174.062 118.88 167.103 117.142 160.066C112.925 143.01 111.464 125.283 111.977 107.757C112.482 90.5459 114.906 73.1522 120.474 56.7953C121.617 53.4401 122.901 50.1353 124.365 46.9082C124.749 46.0617 123.485 45.3199 123.097 46.1743C116.186 61.3933 112.823 78.1229 111.296 94.67C109.597 113.101 110.231 131.865 113.52 150.094C116.077 164.276 120.2 178.78 127.885 191.137C132.834 199.09 140.278 207.416 150.305 208.201C160.093 208.97 168.042 201.82 173.335 194.438C177.043 189.265 179.89 183.51 182.247 177.627C185.093 170.52 187.203 163.13 188.805 155.655C192.599 137.989 193.691 119.714 192.65 101.699C191.694 85.1751 188.958 68.4766 183.116 52.9197C180.821 46.8112 178.03 40.823 174.388 35.3823C171.511 31.0834 168.061 27.0447 163.77 24.0778C160.23 21.6313 156.061 20.043 151.707 20.043C144.686 20.043 138.563 24.1011 133.966 29.0641C131.092 32.1669 128.692 35.6736 126.585 39.3279C126.116 40.1434 127.384 40.8773 127.854 40.0618L127.862 40.0579Z" fill="black"/>
<path d="M182.815 136.153C185.199 138.743 187.858 141.119 190.587 143.341C196.092 147.822 202.169 151.989 209.079 154.001C215.99 156.012 224.721 155.313 229.083 148.867C232.912 143.205 231.742 135.411 229.991 129.256C228.241 123.1 225.403 116.246 221.589 110.747C219.972 108.417 216.949 107.361 214.357 108.868C212.032 110.219 210.837 113.695 212.462 116.04C213.711 117.846 214.772 119.78 215.755 121.737C216.303 122.825 216.804 123.932 217.31 125.038C217.905 126.335 216.91 124.021 217.45 125.361C217.56 125.629 217.67 125.897 217.779 126.168C218.108 126.988 218.421 127.819 218.715 128.65C219.69 131.403 220.457 134.219 220.916 137.1C220.692 135.698 220.963 137.768 220.986 138.137C221.025 138.782 221.037 139.426 221.013 140.071C221.002 140.362 220.927 140.708 220.959 140.999C221.037 141.706 221.272 139.756 220.986 140.851C220.818 141.512 220.634 142.168 220.461 142.828C220.497 142.684 221.049 141.752 220.606 142.475C220.469 142.696 220.332 142.945 220.215 143.174C219.706 144.172 220.857 142.502 219.952 143.481C219.624 143.834 218.899 144.106 220.019 143.492C219.898 143.558 219.612 143.822 219.447 143.849C219.283 143.877 217.916 144.405 219.424 143.919C219.044 144.04 218.672 144.18 218.288 144.28C217.995 144.358 217.599 144.374 217.325 144.498C216.675 144.797 218.57 144.447 217.36 144.498C216.695 144.529 216.037 144.568 215.367 144.541C215.097 144.529 214.831 144.498 214.561 144.486C213.206 144.428 215.677 144.75 214.342 144.459C213.66 144.312 212.975 144.183 212.298 143.997C211.62 143.811 210.927 143.589 210.254 143.348C209.843 143.201 209.436 143.042 209.032 142.879C209.22 142.956 209.972 143.317 209.079 142.882C207.603 142.16 206.143 141.434 204.733 140.587C203.586 139.904 202.466 139.174 201.374 138.409C200.779 137.997 200.199 137.562 199.612 137.139C198.453 136.304 200.442 137.807 199.338 136.933C199.017 136.677 198.692 136.424 198.375 136.168C195.532 133.877 192.764 131.415 190.289 128.724C188.363 126.63 184.769 126.786 182.815 128.724C180.716 130.805 180.885 134.04 182.815 136.137V136.153Z" fill="black"/>
<path d="M222.897 202.484C222.897 202.484 222.897 194.259 228.982 189.556C233.07 186.399 241.918 185.362 249.632 192.372C256.026 198.181 267.599 213.579 265.195 231.345C263.625 242.96 251.957 242.533 244.209 237.974C238.618 234.689 231.359 225.551 229.42 220.375" fill="white"/>
<path d="M223.877 202.485C223.877 202.279 223.889 202.073 223.905 201.867C223.92 201.631 223.944 201.394 223.967 201.157C223.975 201.079 223.987 201.001 223.995 200.928C223.999 200.893 224.03 200.671 224.011 200.811C223.991 200.951 224.026 200.718 224.03 200.683C224.046 200.594 224.058 200.5 224.073 200.411C224.355 198.675 224.864 196.908 225.608 195.363C226.552 193.402 227.93 191.545 229.657 190.264C231.117 189.18 232.671 188.629 234.472 188.303C239.069 187.476 243.983 189.103 247.667 191.984C250.619 194.295 253.125 197.293 255.275 200.279C257.996 204.058 260.283 208.178 261.904 212.539C263.744 217.494 264.731 222.748 264.511 228.038C264.417 230.337 264.175 232.857 263.211 234.896C263.012 235.319 262.785 235.727 262.53 236.119C262.26 236.534 262.123 236.717 261.817 237.055C261.214 237.727 260.713 238.146 260.016 238.573C259.664 238.791 259.296 238.981 258.92 239.148C258.779 239.21 258.951 239.14 258.756 239.218C258.666 239.253 258.576 239.288 258.485 239.319C258.29 239.389 258.09 239.455 257.89 239.513C257.471 239.637 257.041 239.738 256.61 239.816C256.512 239.831 256.414 239.847 256.316 239.863C256.269 239.87 256.218 239.878 256.171 239.886C256.191 239.886 256.301 239.87 256.187 239.886C255.956 239.913 255.725 239.936 255.49 239.952C253.63 240.08 252.029 239.882 250.271 239.435C248.411 238.962 246.814 238.321 245.161 237.404C243.325 236.383 241.716 235.047 240.201 233.603C236.786 230.344 233.705 226.542 231.442 222.403C231.007 221.611 230.635 220.842 230.361 220.119C230.177 219.63 229.7 219.292 229.155 219.44C228.682 219.568 228.286 220.139 228.47 220.636C229.226 222.64 230.33 224.504 231.524 226.278C232.981 228.441 234.602 230.5 236.352 232.437C238.102 234.375 239.837 236.045 241.841 237.56C243.49 238.802 245.306 239.762 247.229 240.507C250.76 241.874 254.911 242.503 258.591 241.338C260.361 240.779 262.001 239.789 263.227 238.398C264.652 236.783 265.529 234.771 265.952 232.674C267.06 227.179 266.489 221.257 265.02 215.883C263.669 210.924 261.457 206.19 258.689 201.856C256.512 198.454 253.983 195.215 251.07 192.4C247.303 188.761 242.464 186.214 237.119 186.159C234.95 186.136 232.789 186.54 230.796 187.39C228.803 188.241 227.088 189.709 225.749 191.425C223.439 194.388 222.202 198.136 221.939 201.852C221.924 202.066 221.912 202.279 221.912 202.493C221.912 203.743 223.866 203.743 223.87 202.493L223.877 202.485Z" fill="black"/>
<path d="M224.773 201.529L220.216 205.875L220 212.247L222.083 216.146L230.243 220.857L237.103 219.137L241.789 208.803L224.773 201.529Z" fill="white"/>
<path d="M184.652 201.529C184.679 209.964 188.25 219.423 194.777 224.95C200.388 229.699 207.756 232.235 215.066 230.378C220.783 228.926 225.763 225.082 229.639 220.787C232.161 217.99 234.561 214.888 236.366 211.571C237.721 209.082 236.992 205.863 234.471 204.399C232.067 203.004 228.598 203.781 227.239 206.278C226.914 206.876 226.554 207.459 226.186 208.033C225.818 208.608 225.411 209.222 225.004 209.804C224.745 210.173 224.483 210.538 224.213 210.903C224.083 211.074 223.954 211.245 223.825 211.42C223.14 212.363 224.604 210.507 223.817 211.428C222.361 213.121 220.924 214.791 219.248 216.286C218.794 216.693 218.324 217.078 217.854 217.462C218.723 216.748 217.627 217.618 217.279 217.858C216.198 218.592 215.066 219.21 213.888 219.777C213.203 220.107 214.737 219.486 214.013 219.719C213.688 219.823 213.371 219.952 213.046 220.049C212.521 220.212 211.985 220.313 211.456 220.453C210.532 220.701 211.429 220.48 211.636 220.46C211.358 220.491 211.084 220.519 210.806 220.534C210.094 220.577 209.393 220.534 208.684 220.503C209.972 220.569 208.019 220.355 207.682 220.266C206.973 220.08 206.272 219.851 205.595 219.571C206.48 219.932 204.781 219.148 204.612 219.055C203.919 218.682 203.273 218.251 202.615 217.824C201.785 217.28 202.435 217.688 202.6 217.824C202.373 217.633 202.146 217.447 201.922 217.249C201.433 216.818 200.971 216.359 200.529 215.886C200.305 215.645 199.15 214.181 199.875 215.171C199.475 214.62 199.088 214.064 198.727 213.486C198.14 212.534 197.717 211.517 197.177 210.546C196.825 209.913 197.478 211.443 197.271 210.764C197.2 210.531 197.091 210.305 197.005 210.08C196.797 209.525 196.609 208.965 196.437 208.402C196.124 207.381 195.861 206.344 195.65 205.3C195.56 204.845 195.482 204.391 195.403 203.933C195.141 202.426 195.47 204.795 195.395 203.905C195.329 203.113 195.231 202.329 195.227 201.533C195.207 194.787 184.636 194.776 184.656 201.533L184.652 201.529Z" fill="black"/>
<path d="M222.897 208.543L224.522 209.778L228.845 209.782L232.764 211.988L233.347 217.215L242.22 219.541L239.667 197.08L235.998 196.575L229.777 198.699L222.897 208.543Z" fill="white"/>
<path d="M222.453 214.592C221.776 213.528 221.416 212.592 221.094 211.361C220.832 210.351 220.703 209.303 220.828 208.262C220.965 207.124 221.463 206.122 222.136 205.202C223.248 203.683 224.74 202.72 226.533 202.379C226.631 202.359 226.729 202.344 226.827 202.328C227.144 202.278 226.639 202.344 226.956 202.313C227.148 202.293 227.343 202.278 227.535 202.27C227.939 202.254 228.346 202.262 228.749 202.297C228.839 202.305 228.929 202.313 229.019 202.324C229.047 202.324 229.34 202.363 229.113 202.332C229.285 202.355 229.454 202.382 229.626 202.414C229.971 202.476 230.311 202.557 230.648 202.647C230.961 202.732 231.274 202.829 231.584 202.938C231.713 202.984 231.846 203.031 231.975 203.082C232.026 203.101 232.077 203.12 232.124 203.14C232.367 203.233 231.971 203.07 232.116 203.14C232.32 203.237 232.531 203.322 232.731 203.427C233.839 204.025 234.826 202.348 233.718 201.75C231.56 200.584 228.878 200.087 226.455 200.429C224.352 200.728 222.434 201.819 221.067 203.427C220.182 204.468 219.438 205.648 219.094 206.977C218.769 208.223 218.78 209.501 218.976 210.767C219.235 212.421 219.861 214.145 220.766 215.567C221.435 216.619 223.13 215.648 222.457 214.588L222.453 214.592Z" fill="black"/>
<path d="M228.908 221.888C231.441 222.743 234.636 222.378 236.938 221.081C239.358 219.718 240.47 216.902 240.622 214.261C240.697 212.972 240.54 211.636 239.976 210.46C239.749 209.986 239.064 209.861 238.637 210.11C238.148 210.393 238.058 210.964 238.285 211.438C238.305 211.485 238.328 211.527 238.348 211.574C238.344 211.562 238.285 211.419 238.324 211.524C238.355 211.613 238.391 211.702 238.418 211.795C238.489 212.021 238.543 212.254 238.586 212.487C238.598 212.553 238.633 212.782 238.626 212.735C238.618 212.685 238.645 212.937 238.649 212.999C238.673 213.275 238.68 213.555 238.676 213.83C238.661 214.89 238.489 215.881 238.054 216.914C237.682 217.795 237.028 218.716 236.194 219.252C234.937 220.059 233.367 220.382 231.891 220.374C230.987 220.37 230.286 220.308 229.421 220.017C228.226 219.613 227.713 221.488 228.9 221.888H228.908Z" fill="black"/>
<path d="M225.014 211.25C226.705 210.29 228.89 210.364 230.425 211.607C231.959 212.85 232.484 214.725 232.034 216.508C231.728 217.719 233.616 218.236 233.921 217.024C234.548 214.539 233.753 211.785 231.713 210.154C229.516 208.399 226.474 208.182 224.027 209.572C222.935 210.193 223.917 211.871 225.014 211.25Z" fill="black"/>
<path d="M178.295 142.677C178.295 142.677 179.259 147.807 185.605 147.038C193.573 146.075 197.207 139.943 199.153 135.279C200.918 131.046 199.705 122.421 194.442 120.934" fill="white"/>
<path d="M177.351 142.932C177.683 144.679 179.019 146.326 180.553 147.176C182.225 148.1 184.159 148.209 186.019 147.953C188.087 147.673 190.099 147.013 191.896 145.957C194.993 144.135 197.292 141.258 198.913 138.112C199.606 136.765 200.291 135.355 200.596 133.864C200.933 132.225 200.968 130.532 200.757 128.874C200.291 125.227 198.568 121.13 194.7 119.996C193.49 119.643 192.973 121.515 194.179 121.868C195.385 122.222 196.395 123.06 197.104 124.124C197.942 125.379 198.396 126.718 198.686 128.225C198.952 129.612 199.014 131.2 198.819 132.691C198.819 132.699 198.795 132.854 198.772 132.998C198.744 133.165 198.713 133.328 198.674 133.495C198.599 133.841 198.505 134.178 198.396 134.512C198.177 135.157 197.981 135.557 197.668 136.225C196.352 139.006 194.625 141.635 192.119 143.479C190.682 144.539 189.061 145.3 187.323 145.735C185.585 146.17 183.85 146.365 182.229 145.809C181.744 145.642 181.074 145.246 180.718 144.928C180.499 144.73 180.299 144.512 180.111 144.287C180.268 144.473 180.009 144.143 179.97 144.085C179.903 143.984 179.837 143.883 179.778 143.778C179.665 143.584 179.575 143.378 179.469 143.18C179.379 143.013 179.543 143.367 179.496 143.246C179.477 143.196 179.453 143.145 179.434 143.091C179.406 143.017 179.379 142.947 179.355 142.873C179.304 142.722 179.257 142.567 179.226 142.411C179.128 141.895 178.502 141.604 178.02 141.732C177.476 141.879 177.237 142.407 177.335 142.928L177.351 142.932Z" fill="black"/>
<path d="M152.094 114.15L162.967 116.084L162.67 101.505L152.689 105.715L152.094 114.15Z" fill="white"/>
<path d="M161.331 116.082L159.393 121.674L162.967 129.405L170.493 125.957L161.331 116.082Z" fill="white"/>
<path d="M64.3564 60.2271C64.3564 60.2271 57.0385 63.726 55.4919 72.8364L64.3564 60.2271Z" fill="white"/>
<path d="M63.9892 59.6013C63.0025 60.075 62.0981 60.7624 61.2602 61.4536C59.326 63.042 57.7128 65.0419 56.5735 67.2632C55.7082 68.9602 55.113 70.7738 54.7841 72.6456C54.6236 73.5621 56.041 73.9543 56.2015 73.0339C56.7066 70.1369 57.8695 67.3642 59.7332 65.0652C60.9274 63.5895 62.2938 62.3468 63.8326 61.376C64.1223 61.1935 64.4199 61.0109 64.7292 60.8634C65.5788 60.4556 64.8349 59.1974 63.9892 59.6052V59.6013Z" fill="black"/>
<path d="M79.7993 72.1748C79.7993 72.1748 87.3403 62.579 83.3544 57.7014C79.6779 53.2045 71.5574 56.3655 71.5574 56.3655" fill="white"/>
<path d="M80.4933 72.8609C81.2607 71.8822 81.9499 70.8415 82.5841 69.7736C83.7705 67.7736 84.8316 65.5873 85.274 63.2961C85.7478 60.869 85.4463 58.337 83.5982 56.5273C81.6954 54.6633 78.9154 54.1623 76.3352 54.3526C74.6398 54.4769 72.8857 54.8109 71.2922 55.4283C70.7988 55.6186 70.4582 56.0807 70.607 56.6244C70.7362 57.0904 71.3157 57.4943 71.8129 57.304C72.9797 56.8535 74.2326 56.57 75.466 56.3875C75.6187 56.3642 75.4503 56.3875 75.6578 56.3642C75.7792 56.3526 75.8967 56.337 76.018 56.3254C76.3195 56.2982 76.621 56.2788 76.9225 56.2671C77.4902 56.2477 78.058 56.2671 78.6179 56.3254C79.5732 56.4302 80.693 56.7797 81.5622 57.3661C81.7737 57.5098 81.9538 57.6574 82.1691 57.8632C82.267 57.9603 82.3649 58.0574 82.4589 58.1622C82.5137 58.2205 82.5646 58.2826 82.6155 58.3448C82.7486 58.5079 82.5019 58.1778 82.682 58.4302C83.007 58.8807 83.1558 59.1913 83.2889 59.6146C83.4612 60.1622 83.5003 60.4496 83.5199 60.9233C83.5317 61.1874 83.5278 61.4553 83.5121 61.7194C83.5043 61.8359 83.4964 61.9563 83.4847 62.0728C83.4769 62.1388 83.469 62.2087 83.4612 62.2747C83.4377 62.4611 83.5003 62.0495 83.4455 62.3718C83.101 64.5543 82.2396 66.4183 81.1629 68.3056C80.6969 69.125 80.1918 69.925 79.6515 70.7017C79.4871 70.9386 79.3226 71.1716 79.1504 71.4046C79.0525 71.5366 78.8097 71.8473 79.0916 71.4861C78.7666 71.8978 78.6844 72.457 79.0916 72.8609C79.4283 73.1948 80.1488 73.2764 80.4777 72.8609H80.4933Z" fill="black"/>
<path d="M30.4222 53.0933C30.4222 53.0933 22.6267 57.1281 26.08 63.726C29.3376 69.9472 36.8787 71.8578 40.7823 69.287C44.2239 67.0191 44.2083 65.1745 43.8128 63.2716C43.5818 62.1493 42.9514 60.8212 42.9514 60.8212" fill="white"/>
<path d="M29.9254 52.2544C28.5158 52.9884 27.1963 54.0951 26.2058 55.3184C25.3365 56.3863 24.6318 57.6135 24.3655 58.9727C24.0288 60.6969 24.3459 62.3978 25.1094 63.9667C26.6521 67.1472 29.573 69.6131 32.9285 70.7393C35.7632 71.6908 39.0717 71.6597 41.5893 69.916C43.2573 68.7588 44.7608 67.252 44.9487 65.1472C45.0975 63.5007 44.4867 61.7998 43.7976 60.3357C43.5744 59.8619 42.8853 59.7416 42.4585 59.9862C41.9691 60.2697 41.883 60.8367 42.1061 61.3143C42.345 61.8231 42.5799 62.4366 42.76 63.0852C42.8461 63.3919 42.9049 63.7065 42.9597 64.0211C42.9675 64.0677 42.991 64.2657 42.9675 64.0754C42.9753 64.1337 42.9832 64.1958 42.9871 64.2541C42.9988 64.4016 43.0106 64.5492 43.0106 64.7007C43.0106 65.221 42.9323 65.6327 42.7013 66.0754C42.3489 66.755 41.8164 67.2831 41.2252 67.7724C40.1093 68.6967 39.1304 69.1743 37.7248 69.3724C37.8697 69.3529 37.533 69.3918 37.4742 69.3957C37.3176 69.4073 37.161 69.419 37.0044 69.4229C36.6677 69.4345 36.327 69.4267 35.9903 69.4034C35.3638 69.3607 34.7922 69.2559 34.107 69.0695C31.2762 68.3006 28.7703 66.386 27.259 63.8385C26.4955 62.557 26.0726 61.2716 26.1979 59.8348C26.2136 59.6328 26.2058 59.7416 26.1979 59.7882C26.2097 59.7027 26.2253 59.6212 26.241 59.5396C26.2684 59.3921 26.2997 59.2445 26.3389 59.1008C26.4094 58.8406 26.5425 58.4523 26.609 58.2931C26.7852 57.8853 27.1415 57.2989 27.4587 56.8562C27.6662 56.5688 28.1634 56.0213 28.5667 55.6368C28.7703 55.4465 28.9778 55.2601 29.1971 55.0854C29.2911 55.0077 29.389 54.93 29.4868 54.8563C29.2872 55.0116 29.5612 54.8019 29.62 54.7592C30.0311 54.4602 30.4618 54.1689 30.916 53.932C32.0318 53.3534 31.0452 51.6758 29.9293 52.2544H29.9254Z" fill="black"/>
<path d="M40.8496 35.8491C40.8496 35.8491 26.8795 40.9053 29.307 50.1012C30.3289 53.9651 32.733 57.4446 36.4213 59.5106C40.1095 61.5766 44.9059 60.9164 46.5347 57.4291" fill="white"/>
<path d="M40.588 34.9118C39.2685 35.3895 37.9882 36.0147 36.7627 36.6943C34.4017 38.003 32.1112 39.6379 30.4276 41.7582C28.4895 44.197 27.5655 47.1833 28.3329 50.2551C29.3783 54.4375 32.1151 58.2315 35.9248 60.3519C39.6444 62.4178 45.3256 62.1848 47.3773 57.9209C47.6044 57.4471 47.5104 56.8724 47.0249 56.5927C46.5981 56.3442 45.9129 56.4646 45.6859 56.9423C44.2215 59.9829 40.2552 60.313 37.4009 58.9305C33.9162 57.2452 31.4299 53.9132 30.365 50.2667C30.1418 49.5017 30.0282 48.9541 30.0047 48.2357C29.993 47.9056 30.0047 47.5794 30.0361 47.2493C30.0556 47.028 30.0948 46.7833 30.1809 46.4222C30.4746 45.2028 30.9836 44.2436 31.7902 43.164C31.9781 42.9155 31.6766 43.3038 31.8685 43.0591C31.9076 43.0087 31.9468 42.9621 31.9898 42.9116C32.0916 42.7873 32.1934 42.6669 32.2992 42.5504C32.5223 42.3019 32.7533 42.0572 32.9883 41.8242C33.4503 41.3699 33.9397 40.9388 34.4487 40.5349C34.4996 40.4961 34.5466 40.4573 34.5975 40.4184C34.8402 40.2282 34.4526 40.5272 34.6954 40.3408C34.805 40.2553 34.9185 40.1738 35.0321 40.0922C35.2905 39.9058 35.5528 39.7233 35.8191 39.5447C36.3124 39.2185 36.8136 38.9078 37.3265 38.6127C38.2349 38.0923 39.1667 37.6185 40.1221 37.1913C40.2787 37.1214 40.4392 37.0554 40.5998 36.9855C40.7603 36.9156 40.357 37.0826 40.5136 37.0205C40.5489 37.0088 40.5802 36.9933 40.6154 36.9778C40.6742 36.9545 40.7329 36.9312 40.7916 36.9079C40.8973 36.8651 40.9991 36.8263 41.1049 36.7875C41.6021 36.6088 41.9349 36.1273 41.79 35.5914C41.6569 35.1176 41.0853 34.7332 40.5841 34.9118H40.588Z" fill="black"/>
<path d="M55.494 34.2439C55.494 34.2439 49.4526 27.5723 46.2537 21.5025C44.1746 17.5687 39.394 7.84855 34.4488 9.78636C29.5037 11.7242 29.3745 20.8851 32.6282 26.1743C35.8819 31.4634 42.444 37.5759 46.7079 41.102" fill="white"/>
<path d="M56.1878 33.5606C53.3061 30.3723 50.6358 26.9122 48.3844 23.2579C45.8825 19.1998 44.1402 14.6407 40.7494 11.1689C39.2655 9.64666 37.3 8.29524 35.0682 8.62533C32.9148 8.94376 31.2781 10.7107 30.452 12.6097C29.4731 14.862 29.2774 17.4173 29.5593 19.8367C29.8412 22.256 30.6203 24.8385 32.0025 27.0093C33.6704 29.6228 35.7338 31.9956 37.8756 34.2363C40.0173 36.477 42.2334 38.5468 44.5552 40.5507C45.0407 40.9662 45.5262 41.3817 46.0196 41.7895C46.4268 42.1234 47.0062 42.1817 47.4056 41.7895C47.7541 41.4438 47.8128 40.7526 47.4056 40.4147C45.2717 38.6478 43.2083 36.7915 41.2271 34.8537C39.0776 32.7489 36.9868 30.547 35.1739 28.1471C33.6548 26.1394 32.4488 24.1123 31.8576 21.6735C31.329 19.4988 31.2116 17.1144 31.7206 14.9747C31.9672 13.9339 32.2687 13.1262 32.8834 12.2446C33.3141 11.6272 34.015 11.0097 34.7432 10.7146C34.8098 10.6874 35.123 10.5903 35.2875 10.5554C35.3423 10.5437 35.6242 10.5088 35.4206 10.5282C35.5381 10.5165 35.6516 10.5127 35.7691 10.5088C35.8709 10.5088 35.9727 10.5165 36.0745 10.5204C36.3016 10.5321 36.0392 10.501 36.2037 10.5398C36.4229 10.5864 36.6344 10.6408 36.8458 10.7146C36.8889 10.7301 37.1473 10.8389 36.9946 10.769C37.0964 10.8156 37.1943 10.8622 37.2882 10.9126C37.5036 11.0253 37.7111 11.1495 37.9147 11.2854C38.2828 11.5301 38.5921 11.7903 38.9758 12.1514C42.2099 15.2038 43.9131 19.46 46.1096 23.2502C48.4902 27.3549 51.4737 31.1723 54.6256 34.7256C54.6882 34.7955 54.7509 34.8654 54.8135 34.9353C55.6553 35.8673 57.0374 34.4887 56.1995 33.5606H56.1878Z" fill="black"/>
<path d="M73.767 55.7186C73.767 55.7186 70.85 43.6529 66.1985 39.2763C61.5471 34.8998 53.176 33.3814 48.0507 35.8667C42.9255 38.3521 36.7079 44.1228 37.6632 49.9168C38.6186 55.7108 44.4016 58.2972 50.1259 56.1186C57.8783 53.1672 57.0365 45.9014 57.0365 45.9014" fill="white"/>
<path d="M74.7108 55.4588C74.3663 54.0297 73.9356 52.62 73.4814 51.222C72.5456 48.3483 71.4493 45.494 69.9928 42.8378C69.2919 41.5602 68.4854 40.3175 67.5104 39.2262C66.418 38.003 65.0359 37.0049 63.599 36.2127C60.4627 34.4846 56.7705 33.5759 53.184 33.7157C51.5318 33.7817 49.8638 34.0613 48.3329 34.6904C46.6375 35.3856 45.0635 36.3758 43.6109 37.4787C40.6352 39.7427 37.7809 42.7834 36.8686 46.4959C36.0425 49.8667 37.2171 53.6491 39.9892 55.8161C42.7691 57.9869 46.5396 58.3325 49.8442 57.2452C52.8552 56.2549 55.5685 54.2666 56.9389 51.3696C57.6946 49.7657 58.1213 47.9522 58.0391 46.1736C58.0352 46.0804 58.0313 45.9911 58.0195 45.8979C57.9608 45.3775 57.6123 44.927 57.0407 44.927C56.5591 44.927 56.0031 45.3736 56.0619 45.8979C56.0971 46.2125 56.0932 46.5348 56.0814 46.8493C56.0775 47.0008 56.0658 47.1483 56.054 47.2998C56.0462 47.3891 56.0384 47.4784 56.0305 47.5639C56.0266 47.6144 56.0188 47.6687 56.0149 47.7192C55.9953 47.9134 56.0501 47.5056 56.0149 47.7192C55.9405 48.1541 55.8622 48.5852 55.7447 49.0124C55.6821 49.2376 55.6116 49.459 55.5333 49.6803C55.4902 49.8007 55.4432 49.9211 55.3962 50.0454C55.3767 50.0997 55.3532 50.1541 55.3297 50.2085C55.408 50.0221 55.2905 50.2939 55.2827 50.3055C55.036 50.8259 54.7541 51.3308 54.4213 51.8006C53.7283 52.787 52.6398 53.7385 51.4926 54.3986C48.885 55.8976 45.4707 56.4995 42.7065 55.218C40.0401 53.9831 38.38 51.2181 38.5562 48.259C38.7519 44.9348 41.2186 42.0339 43.6344 39.9447C46.0032 37.8942 48.8184 36.1351 51.9429 35.7545C55.0673 35.3739 58.4307 35.9448 61.3124 37.2418C62.7767 37.902 64.1745 38.7447 65.3609 39.8282C66.3397 40.7213 66.9936 41.6262 67.6866 42.7601C69.1627 45.1678 70.2121 47.7425 71.1361 50.391C71.743 52.1346 72.2911 53.9054 72.7492 55.6918C72.7727 55.785 72.7962 55.8782 72.8197 55.9714C73.1134 57.1869 75.0006 56.6704 74.7069 55.4549L74.7108 55.4588Z" fill="#1D1D1B"/>
<path d="M76.2187 66.3279L70.5962 68.0444L68.3175 72.1724L67.0567 75.916L68.0003 78.7315L61.4773 76.3859L61.7905 68.0832L73.7677 59.6602L76.2187 66.3279Z" fill="white"/>
<path d="M75.633 65.281C74.5328 65.4325 73.4326 65.8752 72.4498 66.3761C70.3473 67.444 68.5893 69.1838 67.6222 71.3352C66.8313 73.1021 66.5298 75.0128 66.5533 76.935C66.565 77.8709 68.0333 77.8748 68.0215 76.935C67.9824 74.1817 68.7028 71.4245 70.684 69.4285C71.3888 68.7178 72.1014 68.2052 73.0019 67.7275C73.7263 67.3431 74.1648 67.1606 74.9831 66.9237C75.3237 66.8266 75.6683 66.7334 76.0207 66.6829C76.4122 66.6285 76.6315 66.1315 76.5336 65.7858C76.4161 65.3664 76.0246 65.2227 75.6291 65.2771L75.633 65.281Z" fill="black"/>
<path d="M92.5596 220.712C92.5596 220.712 99.3332 219.901 106.921 225.601C111.992 229.411 115.116 237.174 109.995 242.374" fill="white"/>
<path d="M92.5597 221.684C93.4054 221.583 94.2824 221.645 95.1242 221.73C95.6215 221.781 95.735 221.796 96.2597 221.889C96.7844 221.983 97.2699 222.084 97.771 222.212C98.9613 222.511 100.14 222.903 101.264 223.396C106.044 225.505 110.531 229.132 111.502 234.499C111.98 237.139 111.181 239.757 109.302 241.691C108.429 242.592 109.811 243.966 110.688 243.066C112.642 241.054 113.714 238.402 113.581 235.598C113.456 232.942 112.399 230.359 110.829 228.227C109 225.738 106.495 223.885 103.765 222.453C101.444 221.233 98.9222 220.336 96.3223 219.944C95.1007 219.761 93.7969 219.598 92.5597 219.746C92.035 219.808 91.5808 220.15 91.5808 220.717C91.5808 221.194 92.0311 221.75 92.5597 221.687V221.684Z" fill="black"/>
<path d="M102.308 228.919C102.308 228.919 87.2459 214.515 72.9039 213.311C58.5618 212.107 53.2291 220.286 54.6464 229.012C55.7741 235.978 61.1891 247.877 72.3988 256.595C83.6085 265.314 90.5231 267.97 98.0446 267.783C105.284 267.601 110.468 262.774 111.075 254.557C111.682 246.339 108.26 235.353 108.26 235.353" fill="white"/>
<path d="M103.002 228.231C100.738 226.068 98.2365 224.122 95.7072 222.286C90.719 218.666 85.2531 215.462 79.3291 213.622C76.1028 212.62 72.7395 212.134 69.3566 212.231C66.3418 212.317 63.2917 212.88 60.594 214.262C58.4601 215.358 56.6199 217.008 55.3748 219.055C54.1297 221.101 53.5737 223.315 53.4641 225.61C53.3545 227.905 53.7851 230.192 54.4116 232.386C55.1594 235 56.2088 237.536 57.4382 239.959C60.5313 246.063 64.9009 251.586 70.1475 256.013C73.178 258.568 76.4435 260.925 79.8107 263.022C82.4183 264.645 85.1513 266.086 88.0526 267.131C90.4136 267.981 92.8803 268.513 95.39 268.692C98.0486 268.882 100.793 268.735 103.291 267.741C105.922 266.692 108.123 264.894 109.634 262.51C111.322 259.842 112.003 256.688 112.117 253.574C112.238 250.192 111.807 246.79 111.204 243.465C110.762 241.023 110.202 238.596 109.532 236.204C109.431 235.835 109.325 235.466 109.211 235.097C108.839 233.905 106.952 234.413 107.324 235.613C108.612 239.749 109.513 244.083 109.951 248.386C110.268 251.496 110.382 254.735 109.56 257.784C108.875 260.319 107.559 262.591 105.519 264.257C101.772 267.317 96.2162 267.236 91.7487 266.203C85.8874 264.851 80.6721 261.504 75.864 257.997C72.81 255.768 69.8969 253.395 67.3089 250.638C65.0536 248.238 63.045 245.625 61.3027 242.836C58.6285 238.549 56.4202 233.808 55.598 228.798C55.5432 228.476 55.5431 228.483 55.5079 228.153C55.4766 227.87 55.4531 227.582 55.4335 227.299C55.3983 226.736 55.3944 226.177 55.4218 225.614C55.4335 225.353 55.4531 225.093 55.4805 224.833C55.4922 224.705 55.5079 224.577 55.5236 224.449C55.504 224.596 55.5627 224.208 55.5745 224.134C55.6645 223.618 55.782 223.105 55.9308 222.604C56.5102 220.658 57.5752 218.95 59.1649 217.556C59.9558 216.86 60.919 216.251 61.9722 215.75C63.0842 215.222 64.4076 214.826 65.6957 214.569C68.7419 213.963 72.0113 214.022 75.0613 214.569C81.0715 215.653 86.6509 218.561 91.7017 221.878C95.0885 224.103 98.1621 226.448 101.157 229.179C101.31 229.318 101.467 229.462 101.619 229.606C102.528 230.472 103.914 229.101 103.005 228.231H103.002Z" fill="black"/>
<path d="M60.0315 219.952C60.0315 219.952 76.8755 208.546 99.0757 241.52L60.0315 219.952Z" fill="white"/>
<path d="M60.4001 220.58C60.5489 220.479 60.7095 220.394 60.8661 220.309C61.0501 220.211 61.238 220.118 61.4299 220.029C61.5513 219.975 61.6766 219.92 61.7979 219.866C61.5278 219.982 61.9624 219.8 62.0603 219.765C62.7729 219.497 63.505 219.283 64.249 219.124C64.4643 219.078 64.6836 219.035 64.8989 219C65.0085 218.98 65.1182 218.961 65.2278 218.945C65.2826 218.938 65.3414 218.93 65.3962 218.922C65.6076 218.891 65.2983 218.934 65.4706 218.911C65.9874 218.848 66.5081 218.806 67.0289 218.786C67.6044 218.767 68.1839 218.771 68.7595 218.806C69.0727 218.825 69.3899 218.848 69.7031 218.883C69.8558 218.899 70.0046 218.918 70.1573 218.938C70.2434 218.949 70.1377 218.938 70.126 218.934C70.169 218.942 70.216 218.945 70.2591 218.953C70.3491 218.965 70.4353 218.98 70.5253 218.992C71.9897 219.221 73.4305 219.61 74.8205 220.114C78.4696 221.442 81.8878 223.675 84.883 226.196C89.4719 230.052 93.3638 234.689 96.821 239.551C97.3731 240.324 97.9095 241.104 98.442 241.892C98.9745 242.681 100.239 241.939 99.7106 241.158C96.1045 235.815 92.0678 230.669 87.2597 226.332C84.0804 223.466 80.533 220.918 76.5628 219.248C73.826 218.095 70.9012 217.365 67.9177 217.326C65.9756 217.303 64.0023 217.571 62.1621 218.196C61.3242 218.479 60.4315 218.813 59.6875 219.314C59.6758 219.322 59.668 219.326 59.6562 219.334C58.881 219.858 59.6131 221.12 60.3962 220.592L60.4001 220.58Z" fill="black"/>
<path d="M111.428 67.3309C111.428 67.3309 109.873 62.4106 114.49 60.3019C119.286 58.1117 123.385 59.4049 125.586 60.3019" fill="#A495FC"/>
<path d="M112.37 67.0707C112.331 66.9465 112.304 66.8183 112.276 66.6901C112.245 66.5503 112.225 66.4105 112.202 66.2707C112.175 66.1154 112.222 66.496 112.198 66.2241C112.19 66.1232 112.178 66.0222 112.171 65.9174C112.155 65.7038 112.151 65.4863 112.159 65.2727C112.159 65.164 112.167 65.0552 112.175 64.9465C112.178 64.8766 112.229 64.4921 112.198 64.6902C112.237 64.4494 112.288 64.2125 112.355 63.9795C112.39 63.8592 112.429 63.7388 112.472 63.6184C112.547 63.4009 112.503 63.5097 112.605 63.3116C113.224 62.0689 114.367 61.3388 115.718 60.8379C117.441 60.201 119.25 59.9525 121.082 60.1195C122.546 60.2515 123.972 60.6864 125.326 61.2379C125.816 61.4359 126.403 61.0204 126.532 60.5583C126.685 60.003 126.34 59.5641 125.847 59.3622C122.593 58.0418 119.003 57.6923 115.628 58.8108C113.858 59.3971 112.182 60.2748 111.16 61.8825C110.487 62.9427 110.193 64.2203 110.197 65.4669C110.197 66.1659 110.272 66.9115 110.483 67.5833C110.855 68.7716 112.746 68.2668 112.37 67.0668V67.0707Z" fill="black"/>
<path d="M133.782 84.7989C133.715 87.0668 133.512 93.7112 128.962 99.0004C127.788 100.367 124.647 104.018 119.671 104.344C115.129 104.643 111.852 101.994 110.951 101.241C104.589 95.9403 104.742 86.3833 104.777 84.0494C104.816 81.6184 104.941 73.5953 110.442 68.3527C111.406 67.4362 114.213 64.8344 118.469 64.4926C123.394 64.0965 127.016 66.978 128.379 68.2479C134.123 73.5992 133.864 82.1426 133.782 84.7989Z" fill="white"/>
<path d="M132.802 84.7981C132.704 88.0602 132.238 91.2329 130.825 94.2775C129.411 97.3221 126.913 100.421 123.863 102.103C121.988 103.139 119.83 103.59 117.693 103.322C115.856 103.093 114.118 102.32 112.603 101.287C112.481 101.205 112.364 101.12 112.246 101.035C112.184 100.988 112.117 100.941 112.054 100.895C112.25 101.042 112.062 100.899 112.027 100.871C111.788 100.681 111.549 100.487 111.322 100.285C110.61 99.6521 109.952 98.9492 109.392 98.1803C108.26 96.6308 107.446 94.8872 106.882 93.062C106.021 90.2698 105.735 87.6019 105.751 84.6777C105.766 82.0099 105.95 79.5827 106.628 77.0391C107.571 73.4975 109.423 70.3014 112.325 67.9947C112.528 67.8355 112.841 67.6064 113.159 67.3967C113.57 67.1248 113.996 66.8724 114.435 66.6472C115.339 66.1812 116.299 65.8433 117.297 65.6375C119.466 65.1831 121.772 65.4705 123.793 66.3637C125.269 67.0161 126.49 67.8394 127.587 68.8452C129.082 70.2121 130.222 71.8859 131.048 73.7227C132.43 76.7906 132.833 80.0759 132.826 83.3846C132.826 83.8584 132.814 84.3282 132.798 84.802C132.759 86.0525 134.717 86.0525 134.756 84.802C134.85 81.6448 134.638 78.4604 133.738 75.4159C132.591 71.548 130.308 68.1306 126.913 65.8705C125.077 64.6472 122.986 63.8395 120.79 63.5754C118.303 63.2764 115.786 63.7968 113.562 64.9152C110.073 66.6705 107.376 69.8277 105.845 73.3577C104.451 76.5809 103.883 80.0682 103.805 83.5593C103.746 86.1923 103.895 88.8174 104.431 91.4038C105.261 95.392 107.094 99.3065 110.289 101.963C113.425 104.572 117.501 105.963 121.581 105.046C125.355 104.2 128.389 101.489 130.621 98.4638C133.186 94.992 134.376 90.7125 134.678 86.4641C134.717 85.9127 134.74 85.3573 134.756 84.802C134.795 83.5516 132.837 83.5516 132.798 84.802L132.802 84.7981Z" fill="black"/>
<path d="M163.882 83.6307C163.808 85.9102 163.593 92.5897 158.706 97.9099C157.445 99.2846 154.074 102.954 148.73 103.281C143.851 103.58 140.331 100.916 139.364 100.162C132.532 94.8343 132.696 85.2229 132.735 82.8773C132.779 80.4347 132.912 72.365 138.82 67.0952C139.854 66.1749 142.869 63.5575 147.438 63.2118C152.727 62.8119 156.619 65.7127 158.08 66.9865C164.247 72.3689 163.969 80.9589 163.882 83.6268V83.6307Z" fill="white"/>
<path d="M162.904 83.6318C162.794 86.9793 162.258 90.2375 160.688 93.3325C159.051 96.5557 156.342 99.4994 153.115 101.115C149.243 103.057 144.752 102.532 141.158 100.249C140.903 100.086 140.653 99.9188 140.406 99.7401C140.308 99.6702 140.214 99.5964 140.116 99.5265C140.061 99.4877 139.94 99.3867 140.163 99.5615C140.089 99.5032 140.015 99.445 139.94 99.3867C139.083 98.7033 138.296 97.9227 137.614 97.0645C136.428 95.5733 135.563 93.8413 134.96 92.0549C133.997 89.1967 133.683 86.4822 133.699 83.4843C133.707 82.5018 133.73 81.5232 133.809 80.5445C133.934 78.9368 134.185 77.4301 134.658 75.7796C135.218 73.8302 136.056 71.9778 137.227 70.3157C137.853 69.4264 138.585 68.6148 139.392 67.8808C139.603 67.6905 139.815 67.5002 140.034 67.3177C140.136 67.2323 140.242 67.1469 140.347 67.0614C140.418 67.0071 140.484 66.9527 140.555 66.8983C140.414 67.0071 140.711 66.7857 140.739 66.7663C142.379 65.5741 144.227 64.7197 146.228 64.3392C148.554 63.8965 150.95 64.211 153.139 65.0692C153.977 65.3954 154.776 65.8265 155.535 66.3042C155.88 66.5216 156.212 66.7507 156.541 66.9915C156.592 67.0265 156.639 67.0653 156.686 67.1003C156.921 67.275 156.541 66.9838 156.761 67.1585C156.902 67.2711 157.039 67.3837 157.176 67.4964C158.769 68.84 160.026 70.4904 160.942 72.3545C162.465 75.4534 162.931 78.7931 162.927 82.1678C162.927 82.6532 162.916 83.1386 162.9 83.6241C162.861 84.8745 164.818 84.8706 164.858 83.6241C164.959 80.4203 164.728 77.1854 163.742 74.1136C162.465 70.1332 159.936 66.708 156.334 64.51C154.368 63.3101 152.172 62.5373 149.877 62.281C147.231 61.9858 144.549 62.5179 142.152 63.6557C138.55 65.3683 135.629 68.475 133.969 72.0555C132.473 75.2787 131.847 78.8048 131.757 82.3348C131.69 85.0182 131.851 87.7016 132.442 90.3268C133.366 94.416 135.398 98.3188 138.773 100.932C142.148 103.546 146.416 104.855 150.672 103.992C154.556 103.204 157.845 100.614 160.253 97.581C163.045 94.0665 164.427 89.7598 164.768 85.3366C164.811 84.7697 164.834 84.1988 164.854 83.6279C164.893 82.3775 162.935 82.3814 162.896 83.6279L162.904 83.6318Z" fill="black"/>
<path d="M124.553 84.8481C124.509 86.8014 124.388 92.5178 121.573 97.0769C120.845 98.2535 118.907 101.395 115.829 101.679C113.022 101.935 110.994 99.6554 110.438 99.0108C106.503 94.4478 106.597 86.2189 106.62 84.2112C106.644 82.122 106.722 75.2095 110.124 70.697C110.719 69.9087 112.454 67.668 115.089 67.3728C118.135 67.0311 120.375 69.5126 121.217 70.6038C124.768 75.2134 124.607 82.5647 124.56 84.852L124.553 84.8481Z" fill="black"/>
<path d="M123.575 84.8481C123.52 87.4577 123.25 90.0518 122.498 92.5644C122.036 94.1022 121.386 95.5468 120.528 96.906C119.879 97.9351 119.229 98.805 118.261 99.6011C117.224 100.452 115.877 100.941 114.53 100.626C113.305 100.343 112.341 99.6166 111.507 98.7389C109.636 96.774 108.72 94.1061 108.191 91.5042C107.741 89.3023 107.584 87.0383 107.592 84.751C107.6 82.7161 107.694 80.654 108.035 78.6774C108.301 77.1434 108.688 75.6173 109.276 74.1726C109.565 73.462 109.918 72.7707 110.321 72.1183C110.525 71.7882 110.748 71.4659 110.979 71.1552C110.998 71.1319 111.163 70.9145 111.081 71.0193C110.998 71.1242 111.1 70.9921 111.124 70.9688C111.167 70.9145 111.21 70.8601 111.257 70.8057C112.067 69.8349 113.066 68.9223 114.299 68.5262C115.732 68.0602 117.146 68.398 118.375 69.2097C118.88 69.5436 119.334 69.9514 119.761 70.398C119.941 70.5883 120.117 70.7863 120.286 70.9883C120.329 71.0387 120.521 71.2834 120.368 71.0853C120.509 71.2679 120.642 71.4543 120.775 71.6446C121.64 72.9222 122.232 74.3435 122.655 75.8192C123.379 78.3706 123.602 81.0113 123.594 83.6559C123.594 84.052 123.586 84.4442 123.579 84.8403C123.551 86.0908 125.509 86.0908 125.536 84.8403C125.654 79.3298 125.07 72.8445 120.893 68.7592C119.738 67.6291 118.273 66.6893 116.644 66.4408C114.847 66.169 113.081 66.6893 111.641 67.7689C109.131 69.6485 107.608 72.5688 106.758 75.5163C105.983 78.1919 105.697 81.0035 105.654 83.7801C105.619 85.9393 105.709 88.0907 106.006 90.2304C106.441 93.3372 107.33 96.5642 109.272 99.0923C111.1 101.469 114.013 103.376 117.134 102.393C119.988 101.496 121.954 98.7118 123.199 96.1448C124.694 93.0614 125.325 89.6441 125.493 86.2461C125.517 85.7762 125.528 85.3063 125.54 84.8364C125.568 83.586 123.61 83.586 123.582 84.8364L123.575 84.8481Z" fill="black"/>
<path d="M153.148 83.5703C153.101 85.5236 152.968 91.24 149.933 95.7991C149.15 96.9757 147.059 100.117 143.739 100.401C140.713 100.657 138.528 98.3776 137.925 97.733C133.684 93.17 133.786 84.9411 133.81 82.9334C133.837 80.8441 133.919 73.9317 137.584 69.4192C138.226 68.6309 140.098 66.3902 142.933 66.095C146.214 65.7533 148.629 68.2348 149.538 69.326C153.367 73.9356 153.195 81.2868 153.14 83.5741L153.148 83.5703Z" fill="black"/>
<path d="M152.169 83.5707C152.106 86.2425 151.809 88.8521 150.967 91.4035C150.458 92.9413 149.738 94.3704 148.821 95.7102C148.199 96.6189 147.471 97.5237 146.499 98.2654C145.341 99.147 143.868 99.6673 142.404 99.3722C141.1 99.1081 140.012 98.4014 139.119 97.5509C137.106 95.6364 136.057 92.9918 135.462 90.3394C134.957 88.091 134.781 85.8153 134.792 83.4697C134.8 81.3999 134.91 79.3262 135.286 77.3379C135.826 74.4875 136.84 71.6409 138.837 69.4624C139.738 68.4799 140.81 67.6294 142.118 67.2449C143.63 66.8022 145.157 67.1129 146.484 67.9129C151.268 70.7944 152.208 77.3262 152.192 82.4173C152.192 82.8057 152.185 83.1901 152.173 83.5785C152.145 84.8289 154.103 84.8289 154.131 83.5785C154.26 77.967 153.532 71.3807 149.052 67.4119C147.823 66.3207 146.331 65.4392 144.679 65.1906C142.776 64.9033 140.877 65.3887 139.307 66.4799C136.684 68.2973 135.012 71.1827 134.064 74.1651C133.211 76.8602 132.894 79.7106 132.847 82.5261C132.807 84.728 132.909 86.9182 133.246 89.0968C133.739 92.2928 134.785 95.516 136.895 98.0324C138.872 100.382 141.95 102.036 145.082 101.147C148.026 100.308 150.153 97.6247 151.535 95.0422C153.183 91.9666 153.888 88.4754 154.08 85.0192C154.107 84.5416 154.119 84.06 154.131 83.5785C154.158 82.328 152.2 82.328 152.173 83.5785L152.169 83.5707Z" fill="black"/>
<path d="M125.492 74.4087L116.048 81.8376L127.442 85.0958L125.492 74.4087Z" fill="white"/>
<path d="M154.027 72.5483L144.583 79.9811L155.977 83.2393L154.027 72.5483Z" fill="white"/>
<path d="M142.271 60.0645C142.271 60.0645 146.033 57.3617 150.935 57.0005C158.12 56.4724 162.983 60.4024 163.915 62.3246" fill="#A495FC"/>
<path d="M142.762 60.9023C147.954 57.1859 155.523 56.8403 160.816 60.5062C161.314 60.8518 161.776 61.2285 162.269 61.7373C162.379 61.8499 162.48 61.9625 162.582 62.0829C162.613 62.1217 162.645 62.1567 162.676 62.1955C162.821 62.3625 162.578 62.0596 162.692 62.2188C162.829 62.413 162.958 62.6071 163.064 62.8168C163.299 63.2867 163.968 63.4149 164.403 63.1663C164.884 62.8867 164.99 62.312 164.755 61.8382C164.223 60.7664 163.244 59.9121 162.3 59.1975C160.949 58.1723 159.407 57.4073 157.798 56.8675C153.538 55.4384 148.921 55.8229 144.83 57.5782C143.773 58.0325 142.708 58.5568 141.772 59.2286C141.345 59.5354 141.134 60.0752 141.419 60.5567C141.666 60.9761 142.328 61.213 142.759 60.9062L142.762 60.9023Z" fill="black"/>
<path d="M129.137 119.843C129.137 119.843 132.618 123.952 131.721 126.701L136.232 126.958L143.483 126.453L149.932 123.284L156.302 116.632L158.69 111.816L157.923 108.551L155.386 108.011L149.99 109.417L140.687 113.622L133.902 115.044L128.189 115.327L125.766 115.11L129.137 119.847V119.843Z" fill="black"/>
<path d="M136.243 127.102L131.521 126.838L131.579 126.659C132.437 124.019 129.054 119.98 129.023 119.941L129.015 119.929L125.46 114.935L128.2 115.18L133.893 114.893L140.655 113.475L149.931 109.281L155.385 107.86L155.42 107.868L158.047 108.427L158.85 111.833L156.415 116.73L150.001 123.413L143.498 126.597L136.247 127.102H136.243ZM131.912 126.566L136.243 126.811L143.447 126.306L149.849 123.16L156.188 116.543L158.541 111.794L157.805 108.668L155.393 108.155L150.033 109.549L140.753 113.747L133.937 115.18L128.2 115.467L126.071 115.277L129.258 119.755C129.446 119.98 132.629 123.805 131.92 126.566H131.912Z" fill="black"/>
<path d="M124.92 114.946C124.92 114.946 125.841 120.192 131.843 120.344C137.845 120.495 144.157 119.404 148.483 115.579C152.81 111.754 152.767 108.55 152.767 108.55" fill="white"/>
<path d="M124.212 115.14C124.416 116.27 125.027 117.377 125.735 118.266C127.372 120.324 129.839 121.054 132.399 121.085C139.306 121.171 146.659 119.509 151.13 113.874C152.019 112.751 152.775 111.516 153.206 110.15C153.366 109.645 153.507 109.086 153.503 108.553C153.495 107.618 152.027 107.614 152.035 108.553C152.035 108.647 152.023 108.74 152.015 108.833C152.004 108.996 152.043 108.682 152.015 108.818C152.004 108.88 151.996 108.946 151.98 109.012C151.949 109.171 151.913 109.33 151.87 109.485C151.608 110.441 151.146 111.322 150.594 112.146C148.84 114.763 146.17 116.759 143.241 117.909C140.312 119.058 137.027 119.551 133.824 119.625C132.407 119.656 130.962 119.695 129.604 119.248C128.668 118.942 127.83 118.406 127.157 117.687C126.851 117.361 126.64 117.078 126.397 116.674C126.295 116.503 126.197 116.328 126.111 116.149C126.068 116.064 126.029 115.975 125.986 115.889C125.943 115.796 126.005 115.951 125.943 115.792C125.814 115.458 125.688 115.113 125.622 114.755C125.457 113.835 124.044 114.223 124.204 115.144L124.212 115.14Z" fill="black"/>
<path d="M122.444 111.278L122.714 114.109L129.723 115.324L139.523 114.206L146.332 111.46L152.765 108.548L154.316 108.008L153.846 106.521H150.306L139.668 107.503L122.444 111.278Z" fill="#A495FC"/>
<path d="M120.389 112.055C120.413 112.878 120.973 113.671 121.576 114.183C123.471 115.799 126.302 116.039 128.69 116.063C132.249 116.098 135.894 115.69 139.336 114.773C141.756 114.133 144.062 113.177 146.298 112.063C148.063 111.181 149.833 110.176 151.622 109.527C152.605 109.17 153.651 108.859 154.696 108.766C155.346 108.708 156.004 108.712 156.626 108.921C157.01 109.053 157.378 109.321 157.57 109.593C158.134 110.409 158.008 111.531 157.723 112.517C157.3 113.966 156.466 115.259 155.534 116.439C153.498 119.022 151.282 121.562 148.518 123.406C147.096 124.354 145.558 125.111 143.913 125.585C142.03 126.132 140.053 126.276 138.099 126.369C135.291 126.505 132.132 126.517 129.532 125.286C129.058 125.061 128.612 124.797 128.193 124.486C127.872 124.249 127.375 124.435 127.187 124.746C126.963 125.115 127.132 125.507 127.449 125.744C129.614 127.344 132.48 127.756 135.107 127.853C137.104 127.927 139.109 127.802 141.094 127.593C142.969 127.395 144.767 126.944 146.497 126.187C149.649 124.808 152.28 122.478 154.532 119.931C156.603 117.585 158.979 114.933 159.383 111.713C159.528 110.556 159.324 109.356 158.525 108.459C157.648 107.477 156.219 107.22 154.958 107.294C152.738 107.422 150.616 108.284 148.643 109.244C146.67 110.203 144.829 111.247 142.829 112.067C140.053 113.205 137.12 113.931 134.14 114.288C132.124 114.529 130.072 114.669 128.04 114.595C126.642 114.544 125.241 114.374 123.921 113.888C123.216 113.628 122.707 113.29 122.214 112.766C122.081 112.626 122.257 112.836 122.191 112.742C122.151 112.688 122.112 112.634 122.077 112.579C122.022 112.49 121.975 112.397 121.924 112.304C121.842 112.152 121.971 112.463 121.932 112.327C121.92 112.288 121.901 112.253 121.893 112.218C121.877 112.16 121.866 112.094 121.846 112.036C121.776 111.83 121.854 112.23 121.846 112.059C121.822 111.123 120.354 111.119 120.378 112.059L120.389 112.055Z" fill="black"/>
<path d="M131.82 104.561C135.26 104.561 138.049 102.202 138.049 99.2917C138.049 96.3813 135.26 94.022 131.82 94.022C128.38 94.022 125.591 96.3813 125.591 99.2917C125.591 102.202 128.38 104.561 131.82 104.561Z" fill="#CCFC56"/>
<path d="M137.312 99.2915C137.285 101.369 135.645 102.969 133.722 103.552C131.62 104.188 129.133 103.746 127.559 102.161C126.138 100.728 125.919 98.5731 127.117 96.9343C128.393 95.1867 130.825 94.4683 132.912 94.8411C135.151 95.2372 137.281 96.8838 137.312 99.2954C137.324 100.231 138.792 100.235 138.781 99.2954C138.746 96.5809 136.702 94.445 134.18 93.6528C131.659 92.8606 128.413 93.447 126.483 95.4392C124.662 97.3187 124.306 100.223 125.852 102.387C127.493 104.678 130.429 105.61 133.166 105.175C136.114 104.705 138.742 102.379 138.785 99.2954C138.796 98.3595 137.328 98.3556 137.316 99.2954L137.312 99.2915Z" fill="black"/>
<path d="M164.645 108.64C169.149 108.64 172.801 106.165 172.801 103.113C172.801 100.062 169.149 97.5874 164.645 97.5874C160.141 97.5874 156.489 100.062 156.489 103.113C156.489 106.165 160.141 108.64 164.645 108.64Z" fill="#CCFC56"/>
<path d="M172.069 103.112C172.033 105.625 169.359 107.089 167.202 107.613C164.481 108.273 161.133 107.924 158.893 106.13C158.083 105.481 157.394 104.592 157.245 103.543C157.096 102.495 157.531 101.473 158.236 100.708C160.15 98.627 163.408 98.0483 166.113 98.4056C168.576 98.7279 172.026 100.204 172.065 103.112C172.077 104.048 173.545 104.052 173.533 103.112C173.486 99.9473 170.467 97.9279 167.66 97.2251C164.367 96.4018 160.467 96.8988 157.805 99.1046C156.728 99.9978 155.941 101.233 155.781 102.631C155.62 104.029 156.168 105.369 157.077 106.421C159.285 108.976 163.196 109.683 166.403 109.244C169.61 108.801 173.478 106.77 173.533 103.12C173.545 102.184 172.077 102.184 172.065 103.12L172.069 103.112Z" fill="black"/>
<path d="M175.01 21.4953H182.065C185.832 21.4953 189.603 21.4953 193.369 21.4953H195.957C196.901 21.4953 196.905 20.0391 195.957 20.0391H188.902C185.135 20.0391 181.365 20.0391 177.598 20.0391C176.737 20.0391 175.871 20.0391 175.01 20.0391C174.066 20.0391 174.062 21.4953 175.01 21.4953Z" fill="black"/>
<path d="M158.724 99.466C158.724 99.466 152.772 97.6874 149.229 105.536C145.451 113.908 151.833 117.361 153.884 117.881" fill="white"/>
<path d="M158.986 98.5285C156.014 97.6508 152.682 99.1925 150.728 101.375C148.665 103.678 147.232 106.882 147.087 109.973C146.981 112.241 147.768 114.435 149.303 116.116C150.427 117.351 151.993 118.392 153.626 118.819C154.843 119.138 155.364 117.266 154.146 116.947C153.919 116.889 153.7 116.808 153.481 116.726C153.289 116.656 153.516 116.742 153.481 116.726C153.418 116.695 153.355 116.672 153.293 116.641C153.148 116.575 153.007 116.505 152.866 116.427C152.553 116.26 152.251 116.077 151.961 115.876C151.887 115.825 151.817 115.775 151.746 115.72C151.609 115.623 151.84 115.802 151.668 115.658C151.511 115.53 151.359 115.402 151.214 115.27C150.904 114.986 150.615 114.679 150.352 114.349C150.458 114.485 150.297 114.272 150.266 114.233C150.207 114.147 150.149 114.062 150.09 113.977C149.965 113.786 149.851 113.592 149.741 113.39C149.691 113.293 149.644 113.196 149.597 113.099C149.569 113.041 149.542 112.986 149.518 112.928C149.534 112.967 149.577 113.076 149.507 112.897C149.42 112.668 149.338 112.435 149.272 112.198C149.123 111.658 149.072 111.351 149.045 110.843C148.9 108.194 150.063 105.398 151.656 103.297C152.318 102.427 153.085 101.713 153.95 101.196C154.138 101.084 154.33 100.979 154.526 100.882C154.62 100.835 154.714 100.792 154.812 100.75C154.918 100.703 154.796 100.758 154.781 100.761C154.847 100.734 154.914 100.711 154.98 100.684C155.352 100.548 155.732 100.439 156.124 100.365C156.217 100.346 156.311 100.334 156.409 100.315C156.64 100.276 156.261 100.323 156.492 100.307C156.672 100.292 156.852 100.276 157.032 100.272C157.326 100.264 157.615 100.276 157.905 100.299C157.96 100.303 158.022 100.323 158.077 100.319C158.093 100.319 157.811 100.272 158.007 100.311C158.089 100.326 158.175 100.338 158.257 100.358C158.328 100.373 158.398 100.389 158.469 100.408C159.679 100.765 160.196 98.8935 158.99 98.5362L158.986 98.5285Z" fill="black"/>
<path d="M165.201 136.819C165.201 136.819 167.19 143.937 178.294 142.675C201.442 140.042 195.491 109.138 186.336 100.719C178.85 93.8295 162.245 95.6275 157.558 101.076C153.78 105.472 156.235 109.701 158.099 110.415" fill="white"/>
<path d="M164.259 137.075C164.783 138.931 166.275 140.543 167.822 141.623C171.624 144.283 176.878 144.162 181.22 143.157C184.869 142.31 188.295 140.461 190.727 137.599C192.998 134.92 194.36 131.615 194.971 128.186C195.621 124.543 195.519 120.831 194.94 117.188C194.36 113.546 193.358 110.311 191.878 107.111C190.648 104.459 189.051 101.802 186.827 99.849C183.248 96.6996 178.307 95.488 173.632 95.2938C169.141 95.1074 164.349 95.7986 160.312 97.8452C158.378 98.8238 156.71 100.214 155.645 102.117C154.368 104.393 154.184 107.309 155.692 109.53C156.24 110.338 156.933 110.987 157.849 111.355C158.339 111.554 158.926 111.142 159.055 110.676C159.208 110.121 158.863 109.682 158.37 109.48C158.613 109.577 158.213 109.379 158.131 109.328C157.935 109.212 158.17 109.375 158.041 109.266C157.955 109.192 157.869 109.115 157.79 109.037C157.728 108.975 157.665 108.909 157.606 108.843C157.567 108.796 157.524 108.75 157.489 108.703C157.501 108.719 157.563 108.804 157.497 108.711C157.348 108.509 157.215 108.299 157.097 108.078C156.663 107.262 156.475 106.241 156.6 105.231C156.765 103.927 157.446 102.688 158.311 101.709C158.562 101.426 158.836 101.158 159.126 100.913C159.2 100.847 159.278 100.785 159.357 100.723C159.392 100.696 159.423 100.668 159.458 100.641C159.427 100.665 159.317 100.746 159.47 100.633C159.639 100.509 159.811 100.389 159.987 100.276C161.608 99.216 163.217 98.618 165.101 98.1209C167.238 97.5539 169.321 97.2782 171.526 97.22C175.836 97.0996 180.39 97.8102 184.043 100.164C185.273 100.956 186.326 101.985 187.277 103.169C187.383 103.301 187.187 103.045 187.32 103.224C187.371 103.29 187.422 103.356 187.473 103.426C187.575 103.562 187.673 103.697 187.771 103.837C187.974 104.121 188.166 104.412 188.354 104.707C188.742 105.313 189.106 105.938 189.442 106.575C189.807 107.259 190.143 107.958 190.457 108.668C190.492 108.746 190.523 108.824 190.558 108.901C190.617 109.041 190.504 108.765 190.558 108.905C190.574 108.944 190.594 108.983 190.609 109.025C190.688 109.212 190.762 109.398 190.836 109.585C190.989 109.965 191.134 110.346 191.271 110.734C191.839 112.311 192.297 113.926 192.657 115.565C192.837 116.396 192.99 117.231 193.115 118.07C193.131 118.179 193.146 118.283 193.162 118.392C193.178 118.509 193.162 118.384 193.162 118.365C193.17 118.427 193.178 118.489 193.186 118.551C193.213 118.765 193.24 118.982 193.264 119.2C193.311 119.631 193.35 120.062 193.385 120.497C193.511 122.198 193.514 123.907 193.366 125.604C193.33 126.011 193.287 126.415 193.233 126.819C193.26 126.625 193.217 126.916 193.209 126.963C193.193 127.068 193.178 127.169 193.162 127.273C193.127 127.479 193.092 127.685 193.052 127.891C192.9 128.703 192.708 129.51 192.469 130.299C192.355 130.675 192.23 131.048 192.097 131.417C192.027 131.607 191.956 131.798 191.878 131.984C191.847 132.066 191.811 132.143 191.78 132.225C191.721 132.365 191.839 132.093 191.78 132.233C191.756 132.287 191.733 132.337 191.709 132.392C191.388 133.11 191.024 133.809 190.609 134.481C190.398 134.823 190.179 135.153 189.944 135.479C189.885 135.561 189.826 135.638 189.764 135.72C189.736 135.755 189.713 135.79 189.685 135.821C189.709 135.79 189.795 135.681 189.681 135.829C189.556 135.984 189.431 136.139 189.298 136.295C188.777 136.9 188.213 137.464 187.606 137.98C187.45 138.112 187.289 138.244 187.125 138.372C187.038 138.442 187.132 138.368 187.148 138.357C187.113 138.384 187.078 138.411 187.042 138.438C186.944 138.508 186.85 138.582 186.753 138.648C186.404 138.893 186.048 139.126 185.684 139.343C185.32 139.561 184.952 139.759 184.572 139.945C184.149 140.155 183.789 140.31 183.475 140.434C181.58 141.18 179.533 141.611 177.591 141.774C175.284 141.968 173.01 141.848 170.84 141.025C170.551 140.916 170.194 140.757 169.795 140.543C169.45 140.357 169.114 140.151 168.793 139.922C168.726 139.875 168.664 139.828 168.601 139.782C168.46 139.677 168.71 139.875 168.526 139.72C168.393 139.607 168.26 139.498 168.135 139.386C167.9 139.172 167.677 138.947 167.465 138.71C167.375 138.609 167.289 138.504 167.203 138.399C167.074 138.248 167.195 138.392 167.191 138.388C167.148 138.326 167.101 138.267 167.054 138.205C166.917 138.015 166.792 137.825 166.671 137.623C166.569 137.452 166.475 137.277 166.385 137.098C166.35 137.029 166.318 136.959 166.287 136.893C166.165 136.64 166.365 137.11 166.287 136.893C166.244 136.78 166.197 136.667 166.165 136.551C165.825 135.351 163.938 135.86 164.278 137.067L164.259 137.075Z" fill="black"/>
<path d="M173.543 109.605C173.543 109.605 157.06 105.955 154.143 116.029C152.894 120.339 156.39 122.852 158.779 124.091" fill="white"/>
<path d="M173.804 108.671C170.804 108.011 167.582 107.817 164.528 108.104C162.089 108.333 159.61 108.889 157.5 110.174C155.241 111.553 153.526 113.82 153.04 116.434C152.668 118.438 153.169 120.352 154.442 121.945C155.46 123.218 156.846 124.177 158.287 124.931C159.403 125.513 160.393 123.836 159.274 123.253C156.96 122.045 154.63 120.17 154.88 117.323C154.994 116.03 155.483 114.974 156.204 113.945C156.274 113.844 156.349 113.743 156.423 113.646C156.333 113.762 156.584 113.459 156.619 113.417C156.799 113.215 156.987 113.017 157.187 112.834C157.386 112.652 157.59 112.473 157.801 112.31C157.664 112.415 157.915 112.228 157.966 112.197C158.087 112.112 158.212 112.026 158.338 111.949C158.808 111.65 159.305 111.397 159.814 111.168C159.837 111.156 160.01 111.083 159.908 111.129C159.783 111.184 160.057 111.071 160.045 111.075C160.158 111.032 160.272 110.989 160.386 110.947C160.66 110.85 160.934 110.76 161.216 110.675C161.764 110.516 162.316 110.384 162.876 110.279C163.118 110.232 163.361 110.193 163.604 110.155C163.678 110.143 163.757 110.131 163.831 110.123C164.007 110.1 163.596 110.151 163.89 110.116C164.042 110.096 164.195 110.081 164.344 110.065C166.333 109.863 168.345 109.906 170.335 110.1C170.566 110.124 170.8 110.147 171.031 110.178C171.133 110.19 171.235 110.205 171.341 110.217C171.564 110.244 171.125 110.186 171.427 110.228C171.756 110.275 172.089 110.325 172.417 110.38C172.707 110.43 172.997 110.481 173.283 110.543C174.508 110.815 175.033 108.943 173.804 108.671Z" fill="black"/>
<path d="M170.79 122.525C170.79 122.525 159.451 121.5 156.977 125.768C154.502 130.036 157.587 135.321 163.915 136.214C167.364 136.704 170.348 135.974 170.348 135.974" fill="white"/>
<path d="M170.79 121.556C169.412 121.431 168.014 121.424 166.632 121.47C164.064 121.556 161.393 121.843 159.025 122.888C157.956 123.357 156.977 124.049 156.307 125.012C155.516 126.146 155.117 127.625 155.148 128.996C155.219 132.045 157.294 134.654 159.964 135.998C161.961 137.004 164.197 137.357 166.417 137.353C167.807 137.353 169.252 137.237 170.606 136.91C171.832 136.615 171.311 134.744 170.086 135.039C169.091 135.279 168.253 135.349 167.22 135.396C165.415 135.474 163.586 135.33 161.879 134.72C160.595 134.262 159.444 133.516 158.547 132.507C157.807 131.676 157.267 130.565 157.134 129.493C157 128.421 157.231 127.253 157.823 126.258C157.885 126.154 157.948 126.056 158.018 125.959C158.101 125.843 157.921 126.076 158.011 125.967C158.046 125.924 158.081 125.886 158.116 125.843C158.281 125.656 158.461 125.493 158.653 125.334C158.535 125.42 158.766 125.241 158.653 125.334C158.7 125.299 158.747 125.268 158.794 125.233C158.899 125.159 159.013 125.089 159.123 125.02C159.354 124.88 159.596 124.755 159.843 124.639C160.121 124.511 160.058 124.538 160.395 124.414C160.673 124.313 160.951 124.223 161.237 124.142C161.809 123.979 162.392 123.855 162.975 123.75C163.997 123.571 165.125 123.47 166.299 123.42C167.791 123.357 169.303 123.361 170.79 123.493C171.319 123.54 171.769 123.012 171.769 122.523C171.769 121.959 171.319 121.598 170.79 121.552V121.556Z" fill="black"/>
<path d="M181.803 30.7331C184.442 30.7331 187.085 30.7331 189.724 30.7331C193.898 30.7331 198.071 30.7331 202.249 30.7331H205.158C206.102 30.7331 206.106 29.2769 205.158 29.2769H181.803C180.859 29.2769 180.855 30.7331 181.803 30.7331Z" fill="black"/>
<path d="M187.91 40.8884H211.912C212.855 40.8884 212.859 39.4321 211.912 39.4321H187.91C186.967 39.4321 186.963 40.8884 187.91 40.8884Z" fill="black"/>
<path d="M193.157 52.3362H217.158C218.102 52.3362 218.106 50.8799 217.158 50.8799H193.157C192.213 50.8799 192.209 52.3362 193.157 52.3362Z" fill="black"/>
<path d="M196.553 64.5935H220.554C221.498 64.5935 221.502 63.1372 220.554 63.1372H196.553C195.609 63.1372 195.605 64.5935 196.553 64.5935Z" fill="black"/>
<path d="M199.911 77.5056H208.059C212.35 77.5056 216.642 77.5056 220.933 77.5056H223.908C224.852 77.5056 224.856 76.0493 223.908 76.0493H215.761C211.469 76.0493 207.178 76.0493 202.887 76.0493H199.911C198.967 76.0493 198.964 77.5056 199.911 77.5056Z" fill="black"/>
<path d="M200.863 92.0066C203.843 92.0066 206.822 92.0066 209.802 92.0066C214.516 92.0066 219.23 92.0066 223.941 92.0066H227.214C228.157 92.0066 228.161 90.5503 227.214 90.5503H200.863C199.92 90.5503 199.916 92.0066 200.863 92.0066Z" fill="black"/>
<path d="M202.05 106.503C205.029 106.503 208.009 106.503 210.988 106.503C215.702 106.503 220.417 106.503 225.127 106.503H228.4C229.344 106.503 229.348 105.046 228.4 105.046C225.42 105.046 222.441 105.046 219.461 105.046C214.747 105.046 210.033 105.046 205.323 105.046H202.05C201.106 105.046 201.102 106.503 202.05 106.503Z" fill="black"/>
<path d="M202.05 121.003H210.989C215.703 121.003 220.417 121.003 225.128 121.003H228.401C229.344 121.003 229.348 119.546 228.401 119.546H219.462C214.748 119.546 210.034 119.546 205.324 119.546H202.05C201.107 119.546 201.103 121.003 202.05 121.003Z" fill="black"/>
<path d="M202.05 134.755H210.988C215.702 134.755 220.417 134.755 225.127 134.755H228.4C229.344 134.755 229.348 133.298 228.4 133.298H219.461C214.747 133.298 210.033 133.298 205.323 133.298H202.05C201.106 133.298 201.102 134.755 202.05 134.755Z" fill="black"/>
<path d="M197.693 158.144H206.632C211.346 158.144 216.06 158.144 220.77 158.144H224.043C224.987 158.144 224.991 156.688 224.043 156.688H197.693C196.749 156.688 196.745 158.144 197.693 158.144Z" fill="black"/>
<path d="M194.021 170.867H219.306C220.25 170.867 220.254 169.411 219.306 169.411H194.021C193.077 169.411 193.073 170.867 194.021 170.867Z" fill="black"/>
<path d="M190.037 183.592H198.157C202.468 183.592 206.783 183.592 211.094 183.592H214.058C215.001 183.592 215.005 182.135 214.058 182.135H190.037C189.093 182.135 189.089 183.592 190.037 183.592Z" fill="black"/>
<path d="M184.096 194.938H206.664C207.608 194.938 207.611 193.482 206.664 193.482H184.096C183.152 193.482 183.148 194.938 184.096 194.938Z" fill="black"/>
<path d="M178.37 204.402H185.649C189.494 204.402 193.343 204.402 197.188 204.402H199.842C200.786 204.402 200.79 202.945 199.842 202.945C197.415 202.945 194.991 202.945 192.564 202.945C188.719 202.945 184.87 202.945 181.025 202.945H178.37C177.427 202.945 177.423 204.402 178.37 204.402Z" fill="black"/>
<path d="M170.273 212.083H177.551C181.396 212.083 185.245 212.083 189.09 212.083H191.745C192.688 212.083 192.692 210.626 191.745 210.626H184.466C180.621 210.626 176.772 210.626 172.927 210.626H170.273C169.329 210.626 169.325 212.083 170.273 212.083Z" fill="black"/>
</g>
<defs>
<clipPath id="clip0_3633_106387">
<rect width="242.307" height="265.289" fill="white" transform="translate(24.2327 3.30518)"/>
</clipPath>
</defs>
</svg>
