<svg width="107" height="107" viewBox="0 0 107 107" fill="none" xmlns="http://www.w3.org/2000/svg">
<ellipse cx="34.9808" cy="5.09524" rx="34.9808" ry="5.09524" transform="matrix(1 0 0 -1 24.6924 107)" fill="#BFC7CE"/>
<g clip-path="url(#clip0_2897_46662)">
<path d="M27.6917 30.5107C27.6917 30.5107 26.2643 29.6514 25.9591 29.5372C25.6539 29.4229 25.7122 28.4346 25.7122 28.4346C25.7122 28.4346 26.0683 26.8482 26.4618 26.5706C26.8553 26.2931 27.3057 25.842 27.7591 25.9563C27.7591 25.9563 29.9944 27.1583 30.2159 27.3364L30.3835 27.0989L30.5406 23.4928L29.0743 21.9851L28.7481 21.4196C28.7481 21.4196 26.8942 20.0262 26.8942 19.9253C26.8942 19.8243 22.2185 15.3842 22.2185 15.3842L19.1348 17.1709L12.7937 24.0092L15.7323 28.8901L17.0385 29.4006H21.2041L23.2793 30.9989L27.6902 30.5122L27.6917 30.5107Z" fill="white"/>
<path d="M28.1884 30.4439C28.1884 30.4439 25.4773 33.7815 22.6942 32.9163C20.4783 32.2277 20.4783 29.3992 20.4783 29.3992C20.4783 29.3992 16.3008 32.2307 14.1926 27.1123" fill="white"/>
<path d="M27.9251 30.1813C27.6648 30.5018 27.3641 30.7941 27.0588 31.0702C26.4543 31.6148 25.7511 32.1223 24.9776 32.4191C24.1412 32.7382 23.2 32.8198 22.3995 32.3939C22.0569 32.2114 21.7547 31.9368 21.5527 31.6489C21.4434 31.4946 21.3492 31.3299 21.2654 31.1592C21.1981 31.0212 21.1472 30.8936 21.0843 30.7021C21.029 30.53 20.9826 30.3534 20.9452 30.1768C20.9287 30.0996 20.9153 30.021 20.9018 29.9423C20.8958 29.9082 20.8913 29.8755 20.8868 29.8414C20.8794 29.7939 20.8958 29.9186 20.8838 29.8117C20.8689 29.6752 20.8539 29.5357 20.8539 29.3977C20.8539 29.1321 20.5307 28.9154 20.2913 29.0772C20.1627 29.1647 20.0235 29.2374 19.8859 29.3087C19.814 29.3458 19.7407 29.3799 19.6674 29.4125C19.63 29.4303 19.5911 29.4452 19.5537 29.463C19.5327 29.4719 19.6315 29.4318 19.5627 29.4585C19.5387 29.4674 19.5133 29.4778 19.4894 29.4882C19.2933 29.5654 19.0929 29.6307 18.8879 29.6826C18.7786 29.7108 18.6679 29.7346 18.5557 29.7553C18.5003 29.7657 18.445 29.7746 18.3896 29.7821C18.4854 29.7687 18.3118 29.7895 18.2744 29.7939C18.02 29.8162 17.7642 29.8132 17.5098 29.785C17.435 29.7776 17.5607 29.7939 17.4859 29.7821C17.4545 29.7761 17.4231 29.7717 17.3931 29.7657C17.3258 29.7539 17.257 29.739 17.1911 29.7227C17.052 29.6886 16.9173 29.644 16.7842 29.5921C16.7677 29.5862 16.7527 29.5802 16.7378 29.5728C16.7438 29.5758 16.7886 29.5951 16.7482 29.5773C16.7168 29.5624 16.6854 29.5491 16.654 29.5342C16.5852 29.5016 16.5178 29.466 16.4505 29.4274C16.3293 29.3591 16.1737 29.2552 16.0869 29.1885C15.3986 28.6601 14.8974 27.8306 14.5578 27.0129C14.4814 26.8274 14.3094 26.6953 14.0969 26.7532C13.9204 26.8007 13.7588 27.0233 13.8351 27.2103C14.4396 28.6661 15.4525 30.113 17.1014 30.4632C18.1218 30.6799 19.1677 30.4632 20.0998 30.0299C20.2958 29.9394 20.4918 29.8399 20.6714 29.7197L20.1088 29.3992C20.1118 30.6784 20.6519 32.0778 21.7143 32.8421C23.5008 34.1272 25.7736 33.1033 27.2623 31.879C27.6902 31.5258 28.1077 31.1384 28.4578 30.7066C28.585 30.5508 28.6119 30.3341 28.4578 30.1813C28.3261 30.0507 28.0568 30.024 27.9281 30.1813H27.9251Z" fill="black"/>
<path d="M25.5118 29.3086C27.1696 30.1338 28.7601 31.1132 30.3072 32.1253C31.0703 32.6254 31.8214 33.1418 32.5605 33.6761C32.9376 33.9491 33.3116 34.2266 33.6827 34.5086C33.364 34.2637 33.9191 34.6956 33.9865 34.7475C34.2034 34.9182 34.4174 35.0918 34.6313 35.2655C36.2667 36.6025 37.8213 38.0435 39.2278 39.6181C40.1345 40.6331 40.5235 41.1184 41.2537 42.2002C41.933 43.2064 42.53 44.263 43.0282 45.3686C43.4741 46.3569 44.9225 46.5914 45.7918 46.0868C46.8167 45.4918 46.9633 44.3372 46.5159 43.3459C44.6801 39.2767 41.52 35.8368 38.1325 32.9682C35.4139 30.6665 32.4648 28.6112 29.3706 26.8378C28.7721 26.495 28.1706 26.1551 27.5526 25.8479C26.5786 25.3627 25.3636 25.5912 24.7891 26.5662C24.2654 27.4551 24.5347 28.8204 25.5133 29.3072L25.5118 29.3086Z" fill="black"/>
<path d="M50.2371 73.2056C45.7738 71.9531 40.9829 74.1109 38.6368 77.9708C37.2483 80.2562 36.6692 82.8799 36.34 85.4962C36.2039 86.5721 37.365 87.4996 38.36 87.4996C39.5644 87.4996 40.2437 86.5751 40.3799 85.4962C40.4188 85.1935 40.516 84.6132 40.6163 84.125C40.7255 83.5952 40.8557 83.0684 41.0128 82.5504C41.1445 82.1112 41.3001 81.6808 41.4662 81.2534C41.327 81.6125 41.5125 81.151 41.5679 81.0338C41.6711 80.8171 41.7804 80.6019 41.8956 80.3912C42.0646 80.0855 42.2472 79.7872 42.4462 79.4993C42.5195 79.3925 42.913 78.9413 42.5494 79.3435C42.6691 79.2114 42.7769 79.069 42.8981 78.9369C43.112 78.7024 43.3379 78.4813 43.5758 78.272C43.6821 78.18 43.7973 78.0954 43.902 78.002C43.4621 78.3952 43.8691 78.0376 44.0142 77.9411C44.2462 77.7883 44.4871 77.6488 44.7339 77.5211C44.8447 77.4647 44.9599 77.4128 45.0721 77.3579C45.4476 77.1739 44.6397 77.5048 45.1185 77.3431C45.5973 77.1813 46.0746 77.0537 46.5713 76.9557C46.9843 76.8741 46.5414 77.0477 46.4367 76.9676C46.4756 76.9973 46.7254 76.9364 46.7823 76.9305C47.0007 76.9112 47.2192 76.9008 47.4376 76.8964C47.7922 76.8904 48.1439 76.9097 48.497 76.9364C48.5852 76.9439 48.6735 76.9617 48.7618 76.9646C48.8246 76.9676 48.1334 76.8622 48.4865 76.929C48.6047 76.9513 48.7244 76.9676 48.8426 76.9913C48.9518 77.0136 49.0611 77.0359 49.1673 77.0655C50.2161 77.3594 51.3653 76.7034 51.6525 75.6661C51.9398 74.6288 51.2949 73.498 50.2416 73.2012L50.2371 73.2056Z" fill="black"/>
<path d="M58.4304 12.0377C53.9567 19.1788 51.054 30.665 51.054 43.6204C51.054 56.5758 53.9567 68.062 58.4304 75.2031V82.4629C58.4304 82.6647 58.6025 82.8265 58.806 82.8146L69.1704 82.2269C78.8032 80.0988 87.2868 65.2202 87.2868 43.6204C87.2868 22.0207 79.4825 8.22236 69.4457 4.95161L59.3207 4.44853C58.8359 4.42478 58.4304 4.80766 58.4304 5.28848V12.0377Z" fill="#674AD6"/>
<path d="M58.7865 83.334C58.5635 83.334 58.3451 83.2494 58.1835 83.0965C58.0084 82.9333 57.9082 82.7018 57.9082 82.4628V75.35C55.6758 71.7468 53.8265 67.0351 52.5561 61.712C51.2125 56.0831 50.5317 49.9957 50.5317 43.6204C50.5317 37.2451 51.2125 31.1577 52.5561 25.5289C53.8265 20.2042 55.6758 15.494 57.9082 11.8908V5.28848C57.9082 4.91747 58.0638 4.55834 58.3346 4.3031C58.6054 4.04785 58.975 3.9128 59.3476 3.93061L69.5429 4.43666L69.6103 4.45892C74.8785 6.17443 79.3717 10.576 82.6021 17.1858C86.009 24.1576 87.8105 33.2991 87.8105 43.6204C87.8105 53.9417 85.9088 63.2197 82.3103 70.4543C78.9228 77.2644 74.2965 81.6259 69.2841 82.7329L69.2003 82.7448L58.8359 83.3325C58.8194 83.3325 58.8029 83.3325 58.7865 83.3325V83.334ZM59.2787 4.96793C59.195 4.96793 59.1172 4.9991 59.0558 5.05697C58.9915 5.11782 58.9556 5.20092 58.9556 5.28996V12.1861L58.8763 12.3123C54.3067 19.6062 51.5791 31.3091 51.5791 43.6204C51.5791 55.9317 54.3067 67.6346 58.8763 74.9285L58.9556 75.0547V82.2862L69.0986 81.7105C73.7803 80.6568 78.1373 76.4986 81.3722 69.9957C84.8988 62.9036 86.7631 53.7829 86.7631 43.6219C86.7631 33.4609 84.9976 24.4723 81.6595 17.6414C78.5697 11.318 74.3129 7.11084 69.3499 5.46953L59.2952 4.9709C59.2952 4.9709 59.2832 4.9709 59.2787 4.9709V4.96793Z" fill="black"/>
<path d="M58.9885 82.8354C68.9939 82.8354 77.105 65.2783 77.105 43.6204C77.105 21.9626 68.9939 4.40552 58.9885 4.40552C48.9831 4.40552 40.8721 21.9626 40.8721 43.6204C40.8721 65.2783 48.9831 82.8354 58.9885 82.8354Z" fill="#A495FC"/>
<path d="M58.9885 83.3548C53.9327 83.3548 49.2151 79.1684 45.7019 71.5658C42.2501 64.0923 40.3484 54.1673 40.3484 43.6204C40.3484 33.0736 42.2501 23.1485 45.7019 15.6751C49.2136 8.0725 53.9327 3.88611 58.9885 3.88611C64.0443 3.88611 68.7619 8.0725 72.2751 15.6751C75.7269 23.1485 77.6286 33.0736 77.6286 43.6204C77.6286 54.1673 75.7269 64.0923 72.2751 71.5658C68.7634 79.1684 64.0443 83.3548 58.9885 83.3548ZM58.9885 4.92343C54.3666 4.92343 49.9857 8.89464 46.655 16.1069C43.2646 23.4468 41.3973 33.2175 41.3973 43.6204C41.3973 54.0233 43.2646 63.7926 46.655 71.134C49.9872 78.3448 54.3666 82.3174 58.9885 82.3174C63.6104 82.3174 67.9914 78.3462 71.322 71.134C74.7125 63.7941 76.5798 54.0233 76.5798 43.6204C76.5798 33.2175 74.7125 23.4483 71.322 16.1069C67.9899 8.89612 63.6104 4.92343 58.9885 4.92343Z" fill="black"/>
<path d="M48.6179 15.353C48.8588 15.353 48.8588 14.982 48.6179 14.982C48.377 14.982 48.377 15.353 48.6179 15.353Z" fill="black"/>
<path d="M48.8604 15.307C50.3223 12.7694 52.2509 10.1961 54.98 8.9065C56.7531 8.06803 58.7506 8.00125 60.567 8.7299C62.2114 9.3888 63.5894 10.5938 64.7295 11.9146C66.1854 13.6004 67.315 15.5549 68.2577 17.5612C70.7504 22.8681 72.0282 28.7432 72.6895 34.5353C73.469 41.3618 73.3838 48.3322 72.3708 55.1304C71.5479 60.6554 70.1414 66.2679 67.4811 71.226C65.7799 74.3973 63.2228 77.9856 59.4717 78.8538C55.999 79.6581 52.9392 77.4558 50.8669 74.9004C49.435 73.1359 48.3278 71.1161 47.4061 69.0504C46.2749 66.5157 45.4281 63.8564 44.7637 61.1674C43.1523 54.6496 42.5942 47.8751 42.7902 41.1778C42.9832 34.6006 43.9094 27.9538 46.037 21.7031C46.4739 20.4209 46.9647 19.158 47.5243 17.9248C47.6709 17.6013 47.1876 17.3179 47.0395 17.6443C44.3986 23.4602 43.1134 29.8533 42.5298 36.1766C41.8805 43.2198 42.1229 50.3905 43.3797 57.3564C44.3567 62.776 45.9323 68.3188 48.8694 73.0409C50.7606 76.0802 53.605 79.2619 57.4369 79.5616C61.1775 79.8555 64.2148 77.1234 66.2377 74.3023C67.6547 72.3256 68.7424 70.1263 69.6432 67.878C70.7309 65.1623 71.5374 62.3382 72.1494 59.4815C73.5992 52.7308 74.0167 45.747 73.6187 38.8627C73.2536 32.5482 72.2077 26.167 69.9753 20.2221C69.0985 17.8877 68.0317 15.5994 66.6402 13.5203C65.5405 11.8775 64.2223 10.3341 62.5824 9.20033C61.2298 8.26541 59.6363 7.65845 57.9725 7.65845C55.2898 7.65845 52.9496 9.20924 51.1931 11.1058C50.0948 12.2915 49.1776 13.6316 48.3727 15.028C48.1931 15.3397 48.6779 15.6202 48.8574 15.3085L48.8604 15.307Z" fill="black"/>
<path d="M69.8601 52.0288C70.7713 53.0186 71.7872 53.9269 72.8301 54.7757C74.9338 56.4883 77.256 58.0806 79.8968 58.8493C82.5377 59.618 85.8743 59.3509 87.5411 56.8875C89.0044 54.7238 88.5571 51.7454 87.8883 49.3932C87.2194 47.0411 86.1347 44.4218 84.6773 42.3204C84.0594 41.43 82.9043 41.0264 81.9138 41.6022C81.025 42.1186 80.5687 43.4468 81.1896 44.3431C81.6669 45.0332 82.0724 45.7722 82.4479 46.5202C82.6574 46.9357 82.8489 47.3586 83.0419 47.7816C83.2694 48.2772 82.8893 47.3928 83.0958 47.9047C83.1377 48.0071 83.1796 48.1095 83.2215 48.2134C83.3472 48.5265 83.4669 48.8441 83.5791 49.1617C83.9517 50.2139 84.2449 51.2898 84.42 52.3909C84.3347 51.8552 84.4379 52.6462 84.4469 52.7871C84.4619 53.0335 84.4664 53.2798 84.4574 53.5262C84.4529 53.6375 84.4245 53.7695 84.4364 53.8808C84.4664 54.1509 84.5561 53.406 84.4469 53.8245C84.3826 54.0767 84.3122 54.3275 84.2464 54.5798C84.2599 54.5249 84.4708 54.1687 84.3018 54.4448C84.2494 54.5294 84.197 54.6243 84.1521 54.7119C83.9576 55.0933 84.3975 54.4552 84.0519 54.8291C83.9262 54.9642 83.6494 55.0681 84.0773 54.8336C84.031 54.8588 83.9217 54.9597 83.8589 54.9701C83.796 54.9805 83.2739 55.1823 83.8499 54.9968C83.7048 55.0428 83.5626 55.0963 83.416 55.1348C83.3038 55.1645 83.1527 55.1705 83.0479 55.2179C82.7995 55.3322 83.5237 55.1986 83.0614 55.2179C82.807 55.2298 82.5557 55.2447 82.2998 55.2343C82.1966 55.2298 82.0948 55.2179 81.9916 55.2135C81.4739 55.1912 82.418 55.3144 81.9078 55.2031C81.6474 55.1467 81.3856 55.0977 81.1268 55.0265C80.8679 54.9553 80.6031 54.8707 80.3457 54.7787C80.1886 54.7223 80.033 54.6614 79.8789 54.5991C79.9507 54.6288 80.238 54.7668 79.8968 54.6006C79.3328 54.3246 78.7747 54.0471 78.236 53.7235C77.7976 53.4624 77.3697 53.1834 76.9523 52.891C76.7248 52.7337 76.5034 52.5675 76.2789 52.4057C75.8361 52.0867 76.5961 52.661 76.1742 52.3271C76.0515 52.2291 75.9273 52.1327 75.8061 52.0347C74.7199 51.1592 73.662 50.2183 72.7164 49.1899C71.9803 48.39 70.6067 48.4494 69.8601 49.1899C69.0581 49.9853 69.1224 51.2215 69.8601 52.0229V52.0288Z" fill="black"/>
<path d="M85.177 77.3772C85.177 77.3772 85.177 74.234 87.5022 72.4369C89.0642 71.2304 92.4457 70.8342 95.3933 73.5128C97.8367 75.7329 102.26 81.617 101.341 88.4063C100.741 92.845 96.2821 92.6817 93.321 90.9395C91.1844 89.6841 88.4104 86.1922 87.6697 84.214" fill="white"/>
<path d="M85.5512 77.3772C85.5512 77.2985 85.5556 77.2199 85.5616 77.1412C85.5676 77.0507 85.5766 76.9602 85.5856 76.8696C85.5886 76.84 85.5931 76.8103 85.596 76.7821C85.5975 76.7687 85.6095 76.6841 85.602 76.7376C85.5946 76.791 85.608 76.7019 85.6095 76.6886C85.6155 76.6545 85.62 76.6188 85.626 76.5847C85.7337 75.9214 85.9282 75.2461 86.2125 74.6555C86.5731 73.9061 87.0998 73.1967 87.7596 72.707C88.3177 72.293 88.9117 72.0822 89.6 71.9576C91.3566 71.6415 93.2343 72.2633 94.6423 73.3644C95.7705 74.2474 96.7281 75.393 97.5495 76.5342C98.5894 77.9782 99.4632 79.5527 100.083 81.2193C100.786 83.1129 101.163 85.1207 101.079 87.1419C101.043 88.0205 100.95 88.9836 100.582 89.7627C100.506 89.9245 100.419 90.0803 100.322 90.2302C100.219 90.389 100.166 90.4587 100.05 90.5878C99.8193 90.8445 99.6278 91.0048 99.3614 91.1681C99.2268 91.2512 99.0861 91.3239 98.9425 91.3877C98.8886 91.4114 98.9545 91.3847 98.8796 91.4144C98.8452 91.4278 98.8108 91.4411 98.7764 91.453C98.7016 91.4797 98.6253 91.5049 98.549 91.5272C98.3889 91.5747 98.2243 91.6133 98.0597 91.6429C98.0223 91.6489 97.9849 91.6548 97.9475 91.6608C97.9295 91.6637 97.9101 91.6667 97.8921 91.6697C97.8996 91.6697 97.9415 91.6637 97.8981 91.6697C97.8098 91.68 97.7216 91.6889 97.6318 91.6949C96.9211 91.7439 96.3091 91.6682 95.6373 91.4975C94.9266 91.3165 94.3161 91.0716 93.6847 90.7214C92.983 90.3311 92.368 89.8206 91.789 89.2685C90.4843 88.0234 89.3067 86.5706 88.4419 84.9886C88.2758 84.6859 88.1337 84.3921 88.0289 84.116C87.9586 83.9291 87.7761 83.8 87.5681 83.8563C87.387 83.9053 87.2359 84.1235 87.3062 84.3134C87.595 85.0792 88.017 85.7915 88.4733 86.4697C89.0299 87.2963 89.6494 88.0828 90.3182 88.8233C90.987 89.5639 91.6498 90.202 92.4159 90.7807C93.0458 91.2556 93.7401 91.6222 94.4747 91.9071C95.8243 92.4295 97.4103 92.6699 98.8168 92.2247C99.4931 92.011 100.12 91.6326 100.588 91.1013C101.133 90.4839 101.468 89.7152 101.63 88.9139C102.053 86.814 101.835 84.5509 101.274 82.497C100.757 80.6019 99.912 78.7929 98.8542 77.1368C98.0223 75.8368 97.0557 74.5991 95.9425 73.5232C94.5032 72.1327 92.6538 71.1592 90.6114 71.1384C89.7825 71.1295 88.9566 71.2838 88.195 71.6088C87.4334 71.9338 86.7781 72.4948 86.2664 73.1507C85.3836 74.283 84.9108 75.7151 84.8105 77.1353C84.8045 77.2169 84.8 77.2985 84.8 77.3801C84.8 77.858 85.5467 77.858 85.5482 77.3801L85.5512 77.3772Z" fill="black"/>
<path d="M85.8952 77.0121L84.1536 78.6727L84.0713 81.108L84.8673 82.5979L87.9854 84.398L90.6069 83.7406L92.3979 79.7917L85.8952 77.0121Z" fill="white"/>
<path d="M70.5618 77.0121C70.5722 80.2354 71.9368 83.8504 74.431 85.9621C76.5751 87.7771 79.3911 88.7461 82.1845 88.0368C84.3691 87.4818 86.2723 86.0126 87.7535 84.3713C88.7171 83.3028 89.6343 82.1171 90.3241 80.8497C90.8418 79.8985 90.5635 78.6682 89.5999 78.1088C88.6812 77.576 87.3555 77.8728 86.8363 78.827C86.7122 79.0556 86.5745 79.2782 86.4339 79.4978C86.2932 79.7174 86.1376 79.9519 85.982 80.1745C85.8832 80.3155 85.783 80.455 85.6798 80.5945C85.6304 80.6598 85.581 80.7251 85.5316 80.7919C85.2698 81.1525 85.8294 80.4431 85.5286 80.7948C84.972 81.4419 84.4229 82.08 83.7825 82.6513C83.609 82.8071 83.4294 82.9541 83.2499 83.101C83.582 82.8279 83.1631 83.1603 83.0299 83.2523C82.617 83.5328 82.1845 83.7688 81.7342 83.9854C81.4723 84.1116 82.0589 83.8741 81.7821 83.9632C81.6579 84.0033 81.5367 84.0522 81.4125 84.0893C81.212 84.1517 81.007 84.1902 80.805 84.2437C80.4519 84.3386 80.7945 84.2541 80.8738 84.2466C80.7676 84.2585 80.6629 84.2689 80.5566 84.2748C80.2843 84.2912 80.0165 84.2748 79.7457 84.263C80.2379 84.2882 79.4913 84.2066 79.3626 84.1724C79.0918 84.1012 78.824 84.0136 78.5651 83.9068C78.9033 84.0448 78.2539 83.745 78.1896 83.7094C77.9248 83.567 77.6779 83.4022 77.4265 83.239C77.1093 83.0312 77.3577 83.1871 77.4205 83.239C77.3337 83.1663 77.247 83.095 77.1617 83.0194C76.9746 82.8546 76.7981 82.6795 76.629 82.4985C76.5437 82.4065 76.1023 81.847 76.3791 82.2254C76.2265 82.0147 76.0784 81.8025 75.9407 81.5813C75.7163 81.2178 75.5547 80.829 75.3482 80.458C75.2136 80.2161 75.4634 80.8008 75.3841 80.5411C75.3572 80.452 75.3153 80.366 75.2824 80.2799C75.2031 80.0677 75.1313 79.854 75.0654 79.6388C74.9457 79.2485 74.8455 78.8523 74.7647 78.4531C74.7303 78.2794 74.7004 78.1058 74.6704 77.9307C74.5702 77.3549 74.6959 78.2601 74.6674 77.9203C74.642 77.6176 74.6046 77.3178 74.6031 77.0136C74.5956 74.4359 70.5558 74.4314 70.5633 77.0136L70.5618 77.0121Z" fill="black"/>
<path d="M85.177 79.6922L85.7979 80.1641L87.4498 80.1656L88.9475 81.0085L89.1705 83.006L92.5609 83.8949L91.5854 75.3114L90.1834 75.1185L87.8059 75.9303L85.177 79.6922Z" fill="white"/>
<path d="M85.0081 82.0043C84.7492 81.5977 84.6116 81.2401 84.4889 80.7696C84.3886 80.3838 84.3393 79.9831 84.3871 79.5854C84.4395 79.1506 84.6295 78.7677 84.8869 78.416C85.3118 77.8357 85.8819 77.4677 86.5672 77.3371C86.6046 77.3297 86.642 77.3238 86.6794 77.3178C86.8006 77.2985 86.6076 77.3238 86.7288 77.3119C86.8021 77.3045 86.8769 77.2985 86.9502 77.2956C87.1043 77.2896 87.2599 77.2926 87.414 77.3059C87.4484 77.3089 87.4829 77.3119 87.5173 77.3163C87.5278 77.3163 87.64 77.3312 87.5532 77.3193C87.619 77.3282 87.6834 77.3386 87.7492 77.3505C87.8809 77.3742 88.011 77.4054 88.1397 77.4395C88.2594 77.4722 88.3791 77.5093 88.4973 77.5508C88.5467 77.5686 88.5976 77.5864 88.6469 77.6057C88.6664 77.6131 88.6858 77.6206 88.7038 77.628C88.7966 77.6636 88.6454 77.6013 88.7008 77.628C88.7786 77.6651 88.8594 77.6977 88.9357 77.7378C89.3591 77.9663 89.7362 77.3252 89.3128 77.0967C88.4883 76.6515 87.4634 76.4615 86.5372 76.5921C85.7338 76.7064 85.0006 77.1234 84.4784 77.7378C84.1403 78.1355 83.856 78.5866 83.7243 79.0942C83.6001 79.5705 83.6046 80.0588 83.6794 80.5426C83.7782 81.1748 84.0176 81.8337 84.3632 82.3768C84.6191 82.779 85.2669 82.408 85.0096 82.0028L85.0081 82.0043Z" fill="black"/>
<path d="M87.4753 84.7927C88.4434 85.1192 89.6643 84.9797 90.5441 84.4841C91.4688 83.9632 91.8937 82.8873 91.9521 81.8782C91.9805 81.3855 91.9207 80.875 91.7052 80.4253C91.6184 80.2443 91.3566 80.1968 91.1935 80.2917C91.0065 80.4001 90.972 80.6182 91.0588 80.7993C91.0663 80.8171 91.0753 80.8334 91.0828 80.8512C91.0813 80.8468 91.0588 80.7919 91.0738 80.8319C91.0858 80.8661 91.0992 80.9002 91.1097 80.9358C91.1366 81.0219 91.1576 81.1109 91.174 81.2C91.1785 81.2252 91.192 81.3127 91.189 81.2949C91.186 81.2756 91.1965 81.3721 91.198 81.3959C91.207 81.5012 91.2099 81.6081 91.2085 81.7134C91.2025 82.1186 91.1366 82.497 90.9705 82.8917C90.8284 83.2286 90.5785 83.5803 90.2598 83.7851C89.7795 84.0938 89.1796 84.217 88.6155 84.214C88.2698 84.2125 88.002 84.1888 87.6713 84.0775C87.215 83.9231 87.019 84.6399 87.4723 84.7927H87.4753Z" fill="black"/>
<path d="M85.9865 80.7266C86.6329 80.36 87.4678 80.3882 88.0543 80.8631C88.6408 81.338 88.8413 82.0548 88.6692 82.7359C88.5525 83.1989 89.2737 83.3963 89.3904 82.9333C89.6298 81.9835 89.3261 80.9314 88.5465 80.3081C87.7072 79.6373 86.5446 79.5542 85.6094 80.0855C85.192 80.3229 85.5675 80.964 85.9865 80.7266Z" fill="black"/>
<path d="M68.1335 54.522C68.1335 54.522 68.5016 56.4824 70.927 56.1885C73.9719 55.8205 75.3604 53.4772 76.104 51.6949C76.7788 50.0774 76.315 46.7814 74.304 46.213" fill="white"/>
<path d="M67.773 54.6199C67.9001 55.2877 68.4104 55.9169 68.9969 56.2419C69.6358 56.5951 70.3749 56.6367 71.0856 56.5387C71.8756 56.4319 72.6447 56.1796 73.3315 55.7759C74.515 55.0799 75.3933 53.9803 76.0127 52.7783C76.2776 52.2633 76.5394 51.7246 76.6561 51.1547C76.7848 50.5285 76.7983 49.8815 76.7175 49.2478C76.5394 47.8543 75.8811 46.2887 74.4028 45.8554C73.9405 45.7203 73.743 46.4356 74.2038 46.5706C74.6646 46.7057 75.0507 47.0262 75.3215 47.4329C75.6417 47.9122 75.8152 48.4242 75.926 49C76.0277 49.5298 76.0516 50.1367 75.9768 50.7066C75.9768 50.7095 75.9679 50.7689 75.9589 50.8238C75.9484 50.8876 75.9364 50.95 75.9215 51.0138C75.893 51.1458 75.8571 51.275 75.8152 51.4026C75.7315 51.6489 75.6566 51.8018 75.5369 52.057C75.0342 53.1196 74.3744 54.1243 73.4168 54.8292C72.8677 55.2343 72.2482 55.5252 71.5839 55.6914C70.9196 55.8576 70.2567 55.9318 69.6373 55.7196C69.4517 55.6557 69.1959 55.5044 69.0597 55.3827C68.9759 55.307 68.8996 55.2239 68.8278 55.1378C68.8877 55.2091 68.7889 55.0829 68.774 55.0607C68.7485 55.0221 68.7231 54.9835 68.7006 54.9434C68.6572 54.8692 68.6228 54.7906 68.5824 54.7149C68.548 54.6511 68.6109 54.7861 68.5929 54.7401C68.5854 54.7208 68.5764 54.7015 68.569 54.6808C68.5585 54.6526 68.548 54.6258 68.539 54.5976C68.5196 54.5398 68.5016 54.4804 68.4897 54.4211C68.4523 54.2237 68.2129 54.1124 68.0288 54.1614C67.8208 54.2177 67.7296 54.4196 67.767 54.6184L67.773 54.6199Z" fill="black"/>
<path d="M58.1206 43.6204L62.2757 44.3595L62.1619 38.7885L58.348 40.3971L58.1206 43.6204Z" fill="white"/>
<path d="M61.6503 44.3595L60.9097 46.4964L62.2757 49.4511L65.1515 48.1333L61.6503 44.3595Z" fill="white"/>
<path d="M24.5928 23.015C24.5928 23.015 21.7963 24.352 21.2053 27.8335L24.5928 23.015Z" fill="white"/>
<path d="M24.4522 22.776C24.0751 22.9571 23.7295 23.2198 23.4093 23.4839C22.6702 24.0909 22.0537 24.8551 21.6183 25.704C21.2876 26.3525 21.0602 27.0455 20.9345 27.7608C20.8732 28.1111 21.4148 28.2609 21.4762 27.9092C21.6692 26.8022 22.1136 25.7426 22.8258 24.864C23.2821 24.3001 23.8043 23.8252 24.3923 23.4542C24.503 23.3845 24.6168 23.3147 24.735 23.2583C25.0596 23.1025 24.7754 22.6217 24.4522 22.7775V22.776Z" fill="black"/>
<path d="M30.4941 27.5798C30.4941 27.5798 33.3758 23.9128 31.8526 22.0489C30.4477 20.3304 27.3445 21.5384 27.3445 21.5384" fill="white"/>
<path d="M30.759 27.8424C31.0522 27.4685 31.3156 27.0708 31.558 26.6626C32.0113 25.8984 32.4168 25.0629 32.5859 24.1873C32.7669 23.2598 32.6517 22.2922 31.9455 21.6007C31.2183 20.8884 30.156 20.6969 29.17 20.7697C28.5221 20.8171 27.8518 20.9448 27.2428 21.1807C27.0543 21.2534 26.9241 21.43 26.981 21.6378C27.0304 21.8159 27.2518 21.9702 27.4418 21.8975C27.8877 21.7254 28.3665 21.617 28.8378 21.5473C28.8962 21.5384 28.8318 21.5473 28.9111 21.5384C28.9575 21.5339 29.0024 21.528 29.0488 21.5235C29.164 21.5131 29.2792 21.5057 29.3944 21.5013C29.6114 21.4938 29.8283 21.5013 30.0423 21.5235C30.4074 21.5636 30.8353 21.6972 31.1675 21.9212C31.2483 21.9762 31.3171 22.0325 31.3994 22.1112C31.4368 22.1483 31.4742 22.1854 31.5101 22.2255C31.531 22.2477 31.5505 22.2715 31.5699 22.2952C31.6208 22.3575 31.5266 22.2314 31.5954 22.3279C31.7196 22.5 31.7764 22.6187 31.8273 22.7805C31.8931 22.9897 31.9081 23.0995 31.9156 23.2806C31.9201 23.3815 31.9186 23.4839 31.9126 23.5848C31.9096 23.6293 31.9066 23.6753 31.9021 23.7199C31.8991 23.7451 31.8961 23.7718 31.8931 23.797C31.8842 23.8683 31.9081 23.711 31.8871 23.8341C31.7555 24.6681 31.4263 25.3805 31.0148 26.1017C30.8368 26.4148 30.6438 26.7205 30.4373 27.0173C30.3744 27.1079 30.3116 27.1969 30.2458 27.2859C30.2084 27.3364 30.1156 27.4551 30.2233 27.3171C30.0991 27.4744 30.0677 27.6881 30.2233 27.8424C30.352 27.9701 30.6273 28.0012 30.753 27.8424H30.759Z" fill="black"/>
<path d="M11.625 20.2888C11.625 20.2888 8.64599 21.8307 9.96567 24.3521C11.2105 26.7294 14.0923 27.4596 15.584 26.4772C16.8992 25.6105 16.8933 24.9056 16.7421 24.1784C16.6539 23.7496 16.413 23.242 16.413 23.242" fill="white"/>
<path d="M11.4351 19.9683C10.8964 20.2488 10.3922 20.6717 10.0137 21.1392C9.68149 21.5473 9.41216 22.0162 9.31042 22.5356C9.18174 23.1945 9.30294 23.8445 9.59471 24.4441C10.1842 25.6595 11.3004 26.6018 12.5827 27.0322C13.666 27.3958 14.9303 27.3839 15.8924 26.7176C16.5298 26.2753 17.1043 25.6995 17.1761 24.8952C17.233 24.266 16.9996 23.616 16.7362 23.0565C16.651 22.8755 16.3876 22.8295 16.2245 22.923C16.0375 23.0313 16.0046 23.248 16.0899 23.4305C16.1811 23.6249 16.2709 23.8594 16.3397 24.1072C16.3727 24.2244 16.3951 24.3446 16.4161 24.4648C16.419 24.4826 16.428 24.5583 16.419 24.4856C16.422 24.5079 16.425 24.5316 16.4265 24.5539C16.431 24.6103 16.4355 24.6667 16.4355 24.7245C16.4355 24.9234 16.4056 25.0807 16.3173 25.2499C16.1826 25.5096 15.9792 25.7114 15.7532 25.8984C15.3268 26.2516 14.9527 26.4341 14.4156 26.5098C14.4709 26.5024 14.3423 26.5172 14.3198 26.5187C14.26 26.5232 14.2001 26.5276 14.1403 26.5291C14.0116 26.5335 13.8814 26.5306 13.7527 26.5217C13.5134 26.5054 13.2949 26.4653 13.0331 26.394C11.9513 26.1002 10.9937 25.3686 10.4161 24.3951C10.1244 23.9054 9.96278 23.4142 10.0107 22.8651C10.0166 22.7879 10.0137 22.8295 10.0107 22.8473C10.0151 22.8146 10.0211 22.7835 10.0271 22.7523C10.0376 22.6959 10.0496 22.6395 10.0645 22.5846C10.0915 22.4852 10.1423 22.3368 10.1678 22.2759C10.2351 22.1201 10.3713 21.896 10.4924 21.7268C10.5717 21.617 10.7618 21.4078 10.9159 21.2609C10.9937 21.1881 11.073 21.1169 11.1568 21.0501C11.1927 21.0205 11.2301 20.9908 11.2675 20.9626C11.1912 21.0219 11.2959 20.9418 11.3184 20.9255C11.4755 20.8112 11.6401 20.6999 11.8136 20.6094C12.2401 20.3883 11.863 19.7472 11.4366 19.9683H11.4351Z" fill="black"/>
<path d="M15.6098 13.6984C15.6098 13.6984 10.2712 15.6305 11.1988 19.1447C11.5894 20.6213 12.5081 21.9509 13.9175 22.7404C15.327 23.5299 17.1599 23.2776 17.7823 21.945" fill="white"/>
<path d="M15.5094 13.3407C15.0052 13.5233 14.5159 13.7622 14.0476 14.0219C13.1454 14.522 12.2701 15.1468 11.6267 15.957C10.886 16.889 10.5329 18.0302 10.8262 19.204C11.2257 20.8023 12.2715 22.2522 13.7274 23.0625C15.1488 23.852 17.3199 23.7629 18.1039 22.1335C18.1907 21.9524 18.1548 21.7328 17.9692 21.6259C17.8061 21.531 17.5443 21.577 17.4575 21.7595C16.8979 22.9215 15.3822 23.0476 14.2915 22.5193C12.9598 21.8753 12.0097 20.602 11.6027 19.2085C11.5174 18.9161 11.4741 18.7069 11.4651 18.4324C11.4606 18.3062 11.4651 18.1816 11.477 18.0554C11.4845 17.9708 11.4995 17.8773 11.5324 17.7393C11.6446 17.2733 11.8391 16.9068 12.1474 16.4942C12.2192 16.3993 12.104 16.5477 12.1773 16.4542C12.1922 16.4349 12.2072 16.4171 12.2237 16.3978C12.2626 16.3503 12.3015 16.3043 12.3419 16.2598C12.4272 16.1648 12.5154 16.0713 12.6052 15.9823C12.7818 15.8086 12.9688 15.6439 13.1633 15.4896C13.1828 15.4747 13.2007 15.4599 13.2202 15.445C13.3129 15.3723 13.1648 15.4866 13.2576 15.4154C13.2995 15.3827 13.3429 15.3515 13.3862 15.3204C13.485 15.2492 13.5852 15.1794 13.687 15.1111C13.8755 14.9865 14.067 14.8678 14.263 14.755C14.6102 14.5561 14.9663 14.3751 15.3314 14.2118C15.3912 14.1851 15.4526 14.1599 15.5139 14.1332C15.5752 14.1065 15.4211 14.1703 15.481 14.1465C15.4944 14.1421 15.5064 14.1361 15.5199 14.1302C15.5423 14.1213 15.5648 14.1124 15.5872 14.1035C15.6276 14.0872 15.6665 14.0723 15.7069 14.0575C15.8969 13.9892 16.0241 13.8052 15.9688 13.6004C15.9179 13.4194 15.6994 13.2725 15.5079 13.3407H15.5094Z" fill="black"/>
<path d="M21.2053 13.0855C21.2053 13.0855 18.8966 10.536 17.6742 8.21645C16.8797 6.71315 15.0528 2.99867 13.1631 3.73919C11.2733 4.47971 11.2239 7.98049 12.4673 10.0017C13.7107 12.0229 16.2184 14.3588 17.8478 15.7062" fill="white"/>
<path d="M21.4702 12.8243C20.369 11.6059 19.3486 10.2837 18.4882 8.88721C17.5321 7.33642 16.8663 5.59419 15.5706 4.26749C15.0035 3.68576 14.2524 3.16932 13.3995 3.29546C12.5766 3.41715 11.9512 4.09238 11.6355 4.81806C11.2614 5.67878 11.1866 6.65526 11.2943 7.5798C11.402 8.50433 11.6998 9.4912 12.228 10.3208C12.8654 11.3195 13.6539 12.2262 14.4723 13.0825C15.2908 13.9388 16.1376 14.7297 17.0249 15.4955C17.2104 15.6543 17.396 15.8131 17.5845 15.9689C17.7401 16.0965 17.9615 16.1188 18.1142 15.9689C18.2473 15.8368 18.2698 15.5727 18.1142 15.4436C17.2987 14.7683 16.5102 14.059 15.7531 13.3185C14.9317 12.5141 14.1327 11.6727 13.4399 10.7556C12.8594 9.98834 12.3985 9.21369 12.1726 8.28173C11.9706 7.45069 11.9257 6.53951 12.1202 5.72182C12.2145 5.3241 12.3297 5.01543 12.5646 4.67856C12.7292 4.4426 12.997 4.20664 13.2753 4.09386C13.3008 4.08347 13.4205 4.04637 13.4833 4.03302C13.5043 4.02856 13.612 4.01521 13.5342 4.02263C13.5791 4.01818 13.6225 4.01669 13.6673 4.01521C13.7062 4.01521 13.7451 4.01818 13.784 4.01966C13.8708 4.02411 13.7706 4.01224 13.8334 4.02708C13.9172 4.04489 13.998 4.06566 14.0788 4.09386C14.0953 4.0998 14.194 4.14135 14.1357 4.11464C14.1746 4.13244 14.212 4.15025 14.2479 4.16954C14.3302 4.21258 14.4095 4.26007 14.4873 4.31201C14.6279 4.4055 14.7461 4.50493 14.8928 4.64294C16.1287 5.80937 16.7795 7.43585 17.6189 8.88424C18.5286 10.4528 19.6688 11.9116 20.8732 13.2695C20.8972 13.2962 20.9211 13.3229 20.945 13.3496C21.2667 13.7058 21.7949 13.179 21.4747 12.8243H21.4702Z" fill="black"/>
<path d="M28.1885 21.292C28.1885 21.292 27.0738 16.6812 25.2963 15.0087C23.5188 13.3363 20.3198 12.756 18.3612 13.7058C16.4027 14.6555 14.0266 16.8608 14.3917 19.0749C14.7568 21.2891 16.9667 22.2774 19.1542 21.4449C22.1168 20.317 21.7951 17.5404 21.7951 17.5404" fill="white"/>
<path d="M28.5491 21.1926C28.4174 20.6465 28.2528 20.1078 28.0793 19.5735C27.7217 18.4754 27.3027 17.3846 26.7461 16.3696C26.4783 15.8813 26.1701 15.4064 25.7975 14.9894C25.38 14.522 24.8519 14.1406 24.3028 13.8379C23.1043 13.1775 21.6933 12.8302 20.3228 12.8836C19.6914 12.9089 19.054 13.0157 18.4689 13.2561C17.8211 13.5218 17.2196 13.9002 16.6645 14.3216C15.5273 15.1868 14.4366 16.3488 14.0879 17.7675C13.7722 19.0556 14.2211 20.5011 15.2804 21.3291C16.3428 22.1587 17.7836 22.2908 19.0465 21.8752C20.1971 21.4968 21.234 20.737 21.7577 19.6299C22.0464 19.017 22.2095 18.324 22.1781 17.6443C22.1766 17.6087 22.1751 17.5746 22.1706 17.539C22.1482 17.3401 22.015 17.168 21.7966 17.168C21.6125 17.168 21.4001 17.3386 21.4225 17.539C21.436 17.6592 21.4345 17.7823 21.43 17.9026C21.4285 17.9604 21.424 18.0168 21.4195 18.0747C21.4165 18.1088 21.4135 18.143 21.4105 18.1756C21.409 18.1949 21.406 18.2157 21.4045 18.235C21.3971 18.3092 21.418 18.1533 21.4045 18.235C21.3761 18.4012 21.3462 18.5659 21.3013 18.7291C21.2774 18.8152 21.2504 18.8998 21.2205 18.9844C21.204 19.0304 21.1861 19.0764 21.1681 19.1239C21.1607 19.1447 21.1517 19.1654 21.1427 19.1862C21.1726 19.115 21.1277 19.2189 21.1247 19.2233C21.0305 19.4222 20.9228 19.6151 20.7956 19.7947C20.5307 20.1716 20.1148 20.5352 19.6764 20.7875C18.6799 21.3603 17.3752 21.5903 16.3188 21.1006C15.2999 20.6287 14.6655 19.5721 14.7328 18.4412C14.8076 17.1709 15.7503 16.0624 16.6734 15.264C17.5787 14.4804 18.6545 13.8082 19.8485 13.6627C21.0425 13.5173 22.3277 13.7355 23.429 14.2311C23.9885 14.4834 24.5227 14.8054 24.9761 15.2195C25.3501 15.5608 25.6 15.9066 25.8648 16.3399C26.4289 17.26 26.8299 18.2439 27.183 19.256C27.4149 19.9223 27.6244 20.599 27.7995 21.2816C27.8084 21.3173 27.8174 21.3529 27.8264 21.3885C27.9386 21.853 28.6598 21.6556 28.5476 21.1911L28.5491 21.1926Z" fill="#1D1D1B"/>
<path d="M29.125 25.3463L26.9764 26.0023L26.1056 27.5798L25.6238 29.0103L25.9844 30.0862L23.4917 29.1899L23.6114 26.0171L28.1884 22.7983L29.125 25.3463Z" fill="white"/>
<path d="M28.9021 24.9457C28.4817 25.0035 28.0613 25.1727 27.6857 25.3642C26.8822 25.7723 26.2104 26.4371 25.8408 27.2592C25.5386 27.9345 25.4234 28.6646 25.4324 29.3992C25.4369 29.7568 25.9979 29.7583 25.9935 29.3992C25.9785 28.347 26.2538 27.2934 27.0109 26.5306C27.2802 26.259 27.5525 26.0631 27.8967 25.8806C28.1735 25.7337 28.3411 25.6639 28.6538 25.5734C28.7839 25.5363 28.9156 25.5007 29.0503 25.4814C29.1999 25.4606 29.2837 25.2707 29.2463 25.1386C29.2014 24.9783 29.0518 24.9234 28.9006 24.9442L28.9021 24.9457Z" fill="black"/>
<path d="M35.3704 84.3431C35.3704 84.3431 37.9589 84.033 40.8586 86.2115C42.7962 87.6673 43.9902 90.6338 42.0331 92.6209" fill="white"/>
<path d="M35.3704 84.7141C35.6936 84.6755 36.0287 84.6993 36.3504 84.7319C36.5405 84.7512 36.5838 84.7571 36.7843 84.7928C36.9848 84.8284 37.1704 84.867 37.3619 84.9159C37.8167 85.0302 38.2671 85.1801 38.6965 85.3686C40.5234 86.1744 42.2381 87.5604 42.6092 89.6113C42.7917 90.6205 42.4865 91.6207 41.7683 92.3597C41.4346 92.704 41.9628 93.2294 42.298 92.8851C43.0446 92.1164 43.4546 91.1028 43.4037 90.0313C43.3558 89.0163 42.9518 88.0294 42.3518 87.2147C41.6531 86.2634 40.6955 85.5555 39.6526 85.0079C38.7654 84.542 37.8018 84.1992 36.8083 84.0493C36.3415 83.9795 35.8432 83.9172 35.3704 83.9736C35.1699 83.9973 34.9963 84.1279 34.9963 84.3446C34.9963 84.5271 35.1684 84.7393 35.3704 84.7156V84.7141Z" fill="black"/>
<path d="M39.0959 87.4788C39.0959 87.4788 33.3399 81.9746 27.8591 81.5146C22.3784 81.0546 20.3405 84.1799 20.8822 87.5144C21.3131 90.1768 23.3824 94.7238 27.6661 98.0554C31.9498 101.387 34.5922 102.402 37.4665 102.331C40.233 102.261 42.214 100.416 42.446 97.2762C42.6779 94.1361 41.3702 89.9378 41.3702 89.9378" fill="white"/>
<path d="M39.3607 87.2162C38.4959 86.3896 37.5398 85.6461 36.5733 84.9441C34.667 83.561 32.5783 82.3367 30.3145 81.6333C29.0816 81.2504 27.7963 81.0649 26.5036 81.102C25.3515 81.1347 24.1859 81.3499 23.155 81.8782C22.3395 82.2967 21.6363 82.9274 21.1605 83.7094C20.6847 84.4915 20.4722 85.3374 20.4303 86.2144C20.3885 87.0915 20.553 87.9656 20.7924 88.804C21.0782 89.8028 21.4792 90.7718 21.949 91.6979C23.1311 94.0307 24.8009 96.141 26.8058 97.8327C27.9639 98.8092 29.2118 99.71 30.4985 100.511C31.495 101.132 32.5394 101.682 33.6481 102.081C34.5503 102.406 35.493 102.61 36.4521 102.678C37.468 102.751 38.5169 102.694 39.4715 102.314C40.4769 101.914 41.3178 101.227 41.8954 100.315C42.5402 99.296 42.8006 98.091 42.844 96.9008C42.8904 95.6082 42.7258 94.3082 42.4954 93.0379C42.3263 92.1045 42.1123 91.177 41.8565 90.2628C41.8176 90.1218 41.7772 89.9809 41.7338 89.8399C41.5916 89.3843 40.8704 89.5787 41.0126 90.0373C41.5049 91.6177 41.849 93.2739 42.0166 94.9182C42.1378 96.1068 42.1812 97.3445 41.8669 98.5095C41.6051 99.4785 41.1024 100.347 40.3228 100.983C38.8909 102.153 36.7678 102.122 35.0606 101.727C32.8207 101.21 30.8277 99.9311 28.9903 98.5911C27.8233 97.7393 26.7101 96.8325 25.721 95.7789C24.8592 94.8618 24.0916 93.863 23.4258 92.7975C22.4039 91.1592 21.56 89.3472 21.2458 87.4328C21.2248 87.3096 21.2248 87.3126 21.2114 87.1865C21.1994 87.0781 21.1904 86.9683 21.183 86.86C21.1695 86.6448 21.168 86.4311 21.1785 86.2159C21.183 86.1165 21.1904 86.0171 21.2009 85.9176C21.2054 85.8687 21.2114 85.8197 21.2174 85.7707C21.2099 85.8271 21.2323 85.6787 21.2368 85.6505C21.2712 85.4532 21.3161 85.2573 21.373 85.0658C21.5944 84.3223 22.0014 83.6694 22.6089 83.1366C22.9111 82.871 23.2792 82.638 23.6817 82.4465C24.1066 82.2447 24.6123 82.0934 25.1046 81.9954C26.2687 81.7639 27.518 81.7862 28.6836 81.9954C30.9803 82.4094 33.1125 83.521 35.0426 84.7883C36.3368 85.6387 37.5114 86.535 38.656 87.5782C38.7144 87.6317 38.7742 87.6866 38.8326 87.7415C39.1797 88.0724 39.7094 87.5486 39.3622 87.2162H39.3607Z" fill="black"/>
<path d="M22.9397 84.0522C22.9397 84.0522 29.3765 79.6937 37.8602 92.2944L22.9397 84.0522Z" fill="white"/>
<path d="M23.0803 84.2927C23.1372 84.2541 23.1985 84.2214 23.2584 84.1888C23.3287 84.1517 23.4005 84.1161 23.4738 84.0819C23.5202 84.0612 23.5681 84.0404 23.6145 84.0196C23.5112 84.0641 23.6773 83.9944 23.7147 83.981C23.9871 83.8786 24.2668 83.797 24.5511 83.7362C24.6334 83.7183 24.7172 83.702 24.7995 83.6887C24.8414 83.6812 24.8833 83.6738 24.9252 83.6679C24.9461 83.6649 24.9686 83.6619 24.9895 83.659C25.0703 83.6471 24.9521 83.6634 25.018 83.6545C25.2155 83.6308 25.4145 83.6145 25.6135 83.607C25.8334 83.5996 26.0549 83.6011 26.2748 83.6145C26.3945 83.6219 26.5157 83.6308 26.6354 83.6441C26.6937 83.6501 26.7506 83.6575 26.809 83.6649C26.8419 83.6694 26.8015 83.6649 26.797 83.6634C26.8134 83.6664 26.8314 83.6679 26.8479 83.6709C26.8823 83.6753 26.9152 83.6812 26.9496 83.6857C27.5092 83.7733 28.0598 83.9217 28.591 84.1146C29.9855 84.6221 31.2917 85.4754 32.4363 86.4385C34.1899 87.9122 35.6772 89.6841 36.9983 91.542C37.2093 91.8374 37.4143 92.1356 37.6178 92.4369C37.8213 92.7382 38.3045 92.4547 38.1026 92.1564C36.7245 90.1144 35.1819 88.1481 33.3445 86.4905C32.1296 85.3953 30.774 84.4218 29.2568 83.7836C28.2109 83.3429 27.0932 83.0639 25.9531 83.0491C25.211 83.0402 24.4569 83.1425 23.7536 83.3815C23.4334 83.4898 23.0923 83.6174 22.808 83.8089C22.8035 83.8118 22.8005 83.8133 22.796 83.8163C22.4998 84.0166 22.7796 84.4989 23.0788 84.2971L23.0803 84.2927Z" fill="black"/>
<path d="M42.5806 25.7307C42.5806 25.7307 41.9866 23.8505 43.7506 23.0447C45.5835 22.2077 47.1501 22.7018 47.991 23.0447" fill="#A495FC"/>
<path d="M42.9413 25.6313C42.9263 25.5838 42.9158 25.5348 42.9054 25.4859C42.8934 25.4324 42.8859 25.379 42.8769 25.3256C42.8665 25.2662 42.8844 25.4117 42.8754 25.3078C42.8724 25.2692 42.868 25.2306 42.865 25.1905C42.859 25.1089 42.8575 25.0258 42.8605 24.9442C42.8605 24.9026 42.8635 24.8611 42.8665 24.8195C42.868 24.7928 42.8874 24.6459 42.8754 24.7216C42.8904 24.6296 42.9098 24.5391 42.9353 24.45C42.9487 24.404 42.9637 24.358 42.9802 24.312C43.0086 24.2289 42.9921 24.2705 43.031 24.1948C43.2674 23.7199 43.7043 23.4409 44.2206 23.2495C44.8789 23.0061 45.5702 22.9111 46.2704 22.9749C46.83 23.0254 47.3746 23.1916 47.8923 23.4023C48.0793 23.478 48.3038 23.3192 48.3532 23.1426C48.4115 22.9304 48.2798 22.7627 48.0913 22.6855C46.8479 22.181 45.4759 22.0474 44.1861 22.4748C43.5098 22.6989 42.8694 23.0343 42.4789 23.6487C42.2216 24.0538 42.1094 24.542 42.1109 25.0184C42.1109 25.2855 42.1393 25.5704 42.2201 25.8272C42.3622 26.2813 43.0849 26.0884 42.9413 25.6298V25.6313Z" fill="black"/>
<path d="M51.1229 32.4043C51.0975 33.2709 51.0197 35.8101 49.281 37.8313C48.8322 38.3537 47.6322 39.7486 45.7305 39.8733C43.9948 39.9875 42.7425 38.9755 42.3983 38.6876C39.967 36.6619 40.0253 33.0097 40.0388 32.1178C40.0537 31.1889 40.1016 28.1229 42.2038 26.1195C42.5719 25.7693 43.6447 24.775 45.2711 24.6444C47.1534 24.493 48.5374 25.5941 49.0581 26.0794C51.2531 28.1244 51.1543 31.3892 51.1229 32.4043Z" fill="white"/>
<path d="M50.7488 32.4043C50.7114 33.6508 50.5333 34.8633 49.9932 36.0267C49.4531 37.1902 48.4985 38.3744 47.3329 39.017C46.6162 39.4132 45.7918 39.5854 44.9748 39.483C44.2731 39.3954 43.6088 39.1001 43.0297 38.7054C42.9833 38.6742 42.9384 38.6416 42.8936 38.6089C42.8696 38.5911 42.8442 38.5733 42.8202 38.5555C42.8951 38.6119 42.8232 38.557 42.8098 38.5466C42.7185 38.4739 42.6272 38.3997 42.5404 38.3225C42.2681 38.0806 42.0168 37.812 41.8028 37.5182C41.3704 36.926 41.0592 36.2597 40.8437 35.5622C40.5145 34.4952 40.4053 33.4757 40.4113 32.3583C40.4173 31.3388 40.4876 30.4113 40.7465 29.4392C41.1071 28.0858 41.8148 26.8645 42.9235 25.983C43.0013 25.9221 43.121 25.8346 43.2422 25.7544C43.3993 25.6506 43.5624 25.5541 43.73 25.468C44.0756 25.2899 44.4422 25.1608 44.8237 25.0822C45.6526 24.9085 46.5339 25.0184 47.306 25.3597C47.87 25.609 48.3369 25.9236 48.7558 26.308C49.3274 26.8303 49.7628 27.4699 50.0785 28.1719C50.6067 29.3442 50.7608 30.5997 50.7578 31.8641C50.7578 32.0451 50.7533 32.2247 50.7473 32.4058C50.7323 32.8836 51.4805 32.8836 51.4954 32.4058C51.5313 31.1993 51.4505 29.9824 51.1064 28.8189C50.668 27.3408 49.7957 26.0349 48.4985 25.1712C47.7967 24.7038 46.9977 24.3951 46.1583 24.2942C45.2082 24.1799 44.2462 24.3788 43.3963 24.8062C42.0631 25.4769 41.0322 26.6834 40.4472 28.0324C39.9146 29.2641 39.6976 30.5968 39.6677 31.9309C39.6452 32.937 39.7021 33.9402 39.9071 34.9286C40.2243 36.4526 40.9245 37.9485 42.1454 38.9636C43.3439 39.9608 44.9015 40.4921 46.4606 40.1419C47.903 39.8184 49.0625 38.7825 49.9154 37.6265C50.8954 36.2998 51.3503 34.6644 51.4655 33.0409C51.4805 32.8302 51.4894 32.618 51.4954 32.4058C51.5104 31.9279 50.7623 31.9279 50.7473 32.4058L50.7488 32.4043Z" fill="black"/>
<path d="M62.6258 31.9576C62.5973 32.8287 62.515 35.3812 60.6477 37.4143C60.166 37.9396 58.8777 39.342 56.8353 39.4667C54.971 39.581 53.6259 38.5629 53.2563 38.275C50.6454 36.239 50.7082 32.5661 50.7232 31.6697C50.7397 30.7363 50.7905 27.6525 53.0484 25.6387C53.4434 25.287 54.5955 24.2868 56.3416 24.1547C58.363 24.0018 59.8502 25.1104 60.4083 25.5971C62.7649 27.654 62.6587 30.9366 62.6258 31.9561V31.9576Z" fill="white"/>
<path d="M62.2517 31.9576C62.2098 33.2368 62.0048 34.4819 61.4048 35.6647C60.7794 36.8964 59.744 38.0213 58.5111 38.6386C57.0313 39.3806 55.3151 39.1803 53.9416 38.3077C53.8443 38.2454 53.7486 38.1815 53.6543 38.1133C53.6169 38.0866 53.581 38.0584 53.5436 38.0317C53.5226 38.0168 53.4763 37.9782 53.5615 38.045C53.5331 38.0228 53.5047 38.0005 53.4763 37.9782C53.1486 37.7171 52.8478 37.4188 52.5875 37.0908C52.1341 36.5209 51.8035 35.8591 51.573 35.1764C51.205 34.0842 51.0853 33.0469 51.0913 31.9012C51.0942 31.5258 51.1032 31.1518 51.1331 30.7778C51.181 30.1634 51.2768 29.5877 51.4578 28.9569C51.6718 28.212 51.992 27.5041 52.4394 26.8689C52.6788 26.5291 52.9586 26.219 53.2668 25.9385C53.3476 25.8658 53.4284 25.793 53.5122 25.7233C53.5511 25.6906 53.5915 25.658 53.6319 25.6253C53.6588 25.6046 53.6842 25.5838 53.7112 25.563C53.6573 25.6046 53.771 25.52 53.7815 25.5126C54.4084 25.057 55.1146 24.7305 55.8792 24.5851C56.768 24.4159 57.6837 24.5361 58.5201 24.8641C58.8403 24.9887 59.1455 25.1534 59.4358 25.336C59.5674 25.4191 59.6946 25.5066 59.8203 25.5986C59.8398 25.612 59.8577 25.6268 59.8757 25.6402C59.9654 25.707 59.8203 25.5957 59.9041 25.6624C59.958 25.7055 60.0103 25.7485 60.0627 25.7916C60.6717 26.305 61.152 26.9357 61.5021 27.6481C62.0841 28.8323 62.2622 30.1085 62.2607 31.3981C62.2607 31.5836 62.2562 31.7691 62.2502 31.9546C62.2352 32.4325 62.9833 32.431 62.9983 31.9546C63.0372 30.7303 62.9489 29.4942 62.5719 28.3203C62.0841 26.7992 61.1175 25.4903 59.741 24.6504C58.9899 24.1918 58.1505 23.8965 57.2737 23.7985C56.2622 23.6857 55.2373 23.8891 54.3216 24.3239C52.9451 24.9783 51.8289 26.1655 51.1945 27.5338C50.6229 28.7655 50.3835 30.113 50.3491 31.462C50.3237 32.4874 50.385 33.5129 50.611 34.516C50.9641 36.0787 51.7406 37.5701 53.0304 38.5689C54.3201 39.5676 55.951 40.0677 57.5774 39.7383C59.0617 39.437 60.3185 38.4472 61.2387 37.2882C62.3056 35.9451 62.8337 34.2994 62.9639 32.6091C62.9804 32.3924 62.9893 32.1743 62.9968 31.9561C63.0118 31.4783 62.2637 31.4798 62.2487 31.9561L62.2517 31.9576Z" fill="black"/>
<path d="M47.5962 32.4236C47.5797 33.17 47.5333 35.3545 46.4575 37.0967C46.1792 37.5464 45.4386 38.7469 44.2626 38.8553C43.1897 38.9532 42.4147 38.0821 42.2022 37.8358C40.6985 36.0921 40.7344 32.9474 40.7434 32.1802C40.7524 31.3818 40.7823 28.7403 42.0825 27.0159C42.31 26.7146 42.9728 25.8583 43.9798 25.7455C45.1438 25.615 45.9997 26.5632 46.3214 26.9802C47.6785 28.7418 47.6171 31.551 47.5992 32.4251L47.5962 32.4236Z" fill="black"/>
<path d="M47.2221 32.4236C47.2012 33.4208 47.0979 34.4122 46.8107 35.3723C46.6341 35.96 46.3857 36.512 46.0581 37.0314C45.8097 37.4247 45.5613 37.7571 45.1917 38.0613C44.7952 38.3863 44.2805 38.5733 43.7658 38.4531C43.2975 38.3448 42.9294 38.0673 42.6107 37.7319C41.8955 36.981 41.5454 35.9615 41.3434 34.9672C41.1713 34.1257 41.1115 33.2606 41.1145 32.3865C41.1175 31.6089 41.1534 30.8209 41.2836 30.0655C41.3853 29.4793 41.5334 28.8961 41.7579 28.344C41.8686 28.0725 42.0033 27.8083 42.1574 27.559C42.2352 27.4329 42.3205 27.3097 42.4087 27.191C42.4162 27.1821 42.4791 27.099 42.4476 27.139C42.4162 27.1791 42.4551 27.1286 42.4641 27.1197C42.4806 27.099 42.497 27.0782 42.515 27.0574C42.8247 26.6864 43.2062 26.3377 43.6775 26.1863C44.2252 26.0082 44.7653 26.1373 45.2351 26.4475C45.4281 26.5751 45.6017 26.7309 45.7648 26.9016C45.8336 26.9743 45.901 27.05 45.9653 27.1272C45.9818 27.1465 46.0551 27.2399 45.9967 27.1643C46.0506 27.234 46.1015 27.3052 46.1523 27.378C46.483 27.8662 46.7089 28.4093 46.8705 28.9733C47.1473 29.9483 47.2326 30.9574 47.2296 31.968C47.2296 32.1194 47.2266 32.2692 47.2236 32.4206C47.2132 32.8985 47.9613 32.8985 47.9717 32.4206C48.0166 30.3148 47.7937 27.8365 46.1972 26.2753C45.7558 25.8435 45.1962 25.4844 44.5738 25.3894C43.887 25.2855 43.2122 25.4844 42.6616 25.8969C41.7025 26.6152 41.1205 27.7312 40.7958 28.8575C40.4995 29.88 40.3903 30.9544 40.3739 32.0155C40.3604 32.8406 40.3948 33.6627 40.5085 34.4804C40.6746 35.6676 41.0142 36.9008 41.7564 37.8669C42.4551 38.7751 43.5683 39.5038 44.7608 39.1283C45.8516 38.7855 46.6027 37.7215 47.0785 36.7406C47.6501 35.5623 47.8909 34.2563 47.9553 32.9578C47.9643 32.7783 47.9688 32.5987 47.9732 32.4191C47.9837 31.9413 47.2356 31.9413 47.2251 32.4191L47.2221 32.4236Z" fill="black"/>
<path d="M58.5232 31.9353C58.5052 32.6818 58.4544 34.8663 57.2948 36.6085C56.9955 37.0581 56.1965 38.2587 54.9277 38.367C53.7711 38.465 52.9362 37.5939 52.7058 37.3475C51.0854 35.6038 51.1243 32.4592 51.1333 31.692C51.1437 30.8936 51.1752 28.252 52.5756 26.5276C52.821 26.2264 53.5362 25.3701 54.6195 25.2573C55.8734 25.1267 56.7965 26.075 57.1437 26.492C58.607 28.2535 58.5411 31.0627 58.5202 31.9368L58.5232 31.9353Z" fill="black"/>
<path d="M58.1492 31.9353C58.1252 32.9563 58.0115 33.9536 57.6898 34.9286C57.4953 35.5162 57.22 36.0624 56.8699 36.5743C56.632 36.9216 56.3537 37.2674 55.9826 37.5508C55.5397 37.8877 54.9771 38.0865 54.4176 37.9738C53.9193 37.8728 53.5034 37.6028 53.1622 37.2778C52.3931 36.5461 51.9921 35.5355 51.7647 34.522C51.5717 33.6627 51.5044 32.7931 51.5089 31.8967C51.5119 31.1058 51.5538 30.3133 51.6974 29.5535C51.9039 28.4642 52.2914 27.3765 53.0545 26.5439C53.3986 26.1685 53.8086 25.8435 54.3083 25.6966C54.8859 25.5274 55.4694 25.6461 55.9766 25.9518C57.805 27.0529 58.1641 29.549 58.1581 31.4946C58.1581 31.643 58.1552 31.7899 58.1507 31.9383C58.1402 32.4161 58.8883 32.4161 58.8988 31.9383C58.9482 29.7939 58.6699 27.277 56.9582 25.7604C56.4883 25.3434 55.9183 25.0065 55.2869 24.9115C54.5597 24.8017 53.834 24.9872 53.234 25.4042C52.2315 26.0987 51.5927 27.2013 51.2306 28.3411C50.9044 29.371 50.7832 30.4602 50.7652 31.5361C50.7503 32.3776 50.7892 33.2145 50.9179 34.0471C51.1064 35.2684 51.5059 36.5001 52.3123 37.4618C53.0679 38.3596 54.244 38.9918 55.441 38.652C56.5661 38.3314 57.3786 37.306 57.9068 36.3191C58.5367 35.1438 58.806 33.8096 58.8793 32.4889C58.8898 32.3063 58.8943 32.1223 58.8988 31.9383C58.9093 31.4604 58.1611 31.4604 58.1507 31.9383L58.1492 31.9353Z" fill="black"/>
<path d="M47.9551 28.4346L44.3462 31.2735L48.7002 32.5186L47.9551 28.4346Z" fill="white"/>
<path d="M58.8599 27.7237L55.251 30.5641L59.605 31.8092L58.8599 27.7237Z" fill="white"/>
<path d="M54.3667 22.9526C54.3667 22.9526 55.8046 21.9198 57.6779 21.7818C60.4235 21.5799 62.2818 23.0817 62.6379 23.8163" fill="#A495FC"/>
<path d="M54.5552 23.2732C56.5392 21.853 59.4314 21.7209 61.4543 23.1218C61.6443 23.2539 61.8209 23.3978 62.0094 23.5922C62.0513 23.6353 62.0902 23.6783 62.1291 23.7243C62.1411 23.7392 62.1531 23.7525 62.165 23.7674C62.2204 23.8312 62.1276 23.7154 62.171 23.7763C62.2234 23.8505 62.2728 23.9247 62.3132 24.0048C62.4029 24.1844 62.6588 24.2333 62.8249 24.1384C63.0089 24.0315 63.0493 23.8119 62.9595 23.6308C62.7561 23.2212 62.382 22.8948 62.0214 22.6217C61.5052 22.2299 60.9157 21.9376 60.3007 21.7313C58.6728 21.1852 56.9088 21.3321 55.3452 22.0029C54.9412 22.1765 54.5342 22.3768 54.1766 22.6336C54.0135 22.7508 53.9327 22.9571 54.042 23.1411C54.1362 23.3014 54.3891 23.3919 54.5537 23.2747L54.5552 23.2732Z" fill="black"/>
<path d="M49.3481 45.7975C49.3481 45.7975 50.6782 47.3676 50.3356 48.4182L52.0593 48.5162L54.8303 48.3233L57.2946 47.1123L59.729 44.5702L60.6417 42.73L60.3484 41.482L59.3789 41.2757L57.317 41.8129L53.762 43.4201L51.169 43.9632L48.986 44.0716L48.0598 43.9885L49.3481 45.799V45.7975Z" fill="black"/>
<path d="M52.0638 48.5711L50.2593 48.4702L50.2817 48.4019C50.6094 47.3928 49.3167 45.8494 49.3047 45.8346L49.3017 45.8301L47.9431 43.9217L48.9905 44.0152L51.166 43.9053L53.75 43.3637L57.2946 41.7609L59.3789 41.2178L59.3923 41.2208L60.3963 41.4345L60.703 42.7359L59.7724 44.6073L57.3215 47.1613L54.8363 48.3781L52.0652 48.5711H52.0638ZM50.4089 48.3663L52.0638 48.4598L54.8168 48.2668L57.2632 47.0648L59.6856 44.536L60.5848 42.7211L60.3035 41.5265L59.3818 41.3306L57.3335 41.8633L53.7874 43.4676L51.1825 44.0152L48.9905 44.125L48.1765 44.0523L49.3945 45.7633C49.4663 45.8494 50.6827 47.3111 50.4119 48.3663H50.4089Z" fill="black"/>
<path d="M47.7366 43.9246C47.7366 43.9246 48.0882 45.9295 50.3819 45.9874C52.6757 46.0453 55.0876 45.6283 56.7409 44.1665C58.3943 42.7048 58.3778 41.4805 58.3778 41.4805" fill="white"/>
<path d="M47.4658 43.9988C47.5437 44.4307 47.7771 44.8536 48.0479 45.1935C48.6733 45.98 49.6159 46.259 50.5945 46.2709C53.2338 46.3035 56.0438 45.6683 57.7525 43.515C58.0921 43.0862 58.3809 42.6143 58.5455 42.0919C58.6068 41.899 58.6607 41.6853 58.6592 41.482C58.6562 41.1243 58.0951 41.1228 58.0981 41.482C58.0981 41.5176 58.0936 41.5532 58.0906 41.5888C58.0861 41.6511 58.1011 41.5309 58.0906 41.5829C58.0861 41.6066 58.0831 41.6318 58.0772 41.6571C58.0652 41.7179 58.0517 41.7788 58.0353 41.8381C57.935 42.2032 57.7585 42.5401 57.5475 42.8547C56.8772 43.8549 55.8567 44.6177 54.7376 45.0569C53.6184 45.4962 52.363 45.6847 51.1391 45.7129C50.5975 45.7247 50.0454 45.7396 49.5262 45.5689C49.1686 45.4517 48.8484 45.2469 48.591 44.9723C48.4743 44.8477 48.3935 44.7394 48.3007 44.585C48.2618 44.5197 48.2244 44.4529 48.1915 44.3847C48.1751 44.352 48.1601 44.3179 48.1436 44.2852C48.1272 44.2496 48.1511 44.309 48.1272 44.2481C48.0778 44.1205 48.0299 43.9884 48.0045 43.8519C47.9417 43.5002 47.4015 43.6486 47.4629 44.0003L47.4658 43.9988Z" fill="black"/>
<path d="M46.7913 42.5238L46.8945 43.6056L49.5728 44.0701L53.3178 43.6427L55.9198 42.5935L58.3781 41.4805L58.9706 41.2742L58.7911 40.7058H57.4385L53.3732 41.0813L46.7913 42.5238Z" fill="#A495FC"/>
<path d="M46.0056 42.8205C46.0145 43.1352 46.2285 43.4379 46.4589 43.6338C47.1831 44.2511 48.2649 44.3431 49.1776 44.352C50.5377 44.3654 51.9307 44.2096 53.2459 43.8593C54.1705 43.6145 55.0518 43.2494 55.9062 42.8235C56.581 42.4866 57.2573 42.1023 57.9411 41.8544C58.3166 41.7179 58.7161 41.5992 59.1156 41.5636C59.364 41.5413 59.6153 41.5428 59.8533 41.6229C59.9999 41.6734 60.1405 41.7758 60.2138 41.8797C60.4293 42.1913 60.3814 42.6202 60.2722 42.9971C60.1106 43.5507 59.7919 44.0448 59.4358 44.496C58.6578 45.4829 57.8109 46.4534 56.7545 47.1583C56.2114 47.5204 55.6234 47.8098 54.995 47.9908C54.2753 48.2001 53.5197 48.255 52.7731 48.2906C51.7003 48.3425 50.4928 48.347 49.4993 47.8766C49.3182 47.7905 49.1477 47.6896 48.9876 47.5709C48.8649 47.4803 48.6749 47.5516 48.603 47.6703C48.5178 47.8113 48.5821 47.9611 48.7033 48.0517C49.5307 48.6631 50.626 48.8204 51.6299 48.8575C52.393 48.8857 53.1591 48.8382 53.9177 48.7581C54.6344 48.6824 55.3211 48.5102 55.9825 48.2208C57.187 47.694 58.1924 46.8036 59.0528 45.8301C59.8443 44.9338 60.7525 43.9202 60.9066 42.6899C60.962 42.2477 60.8842 41.7892 60.5789 41.4463C60.2438 41.0709 59.6976 40.973 59.2159 41.0011C58.3675 41.0501 57.5565 41.3796 56.8024 41.7461C56.0483 42.1127 55.3451 42.5119 54.5805 42.825C53.5197 43.2598 52.399 43.5373 51.2604 43.6738C50.4898 43.7659 49.7058 43.8193 48.9292 43.7911C48.3951 43.7718 47.8594 43.7065 47.3552 43.521C47.0859 43.4216 46.8913 43.2925 46.7028 43.0921C46.6519 43.0387 46.7193 43.1188 46.6938 43.0832C46.6789 43.0624 46.6639 43.0417 46.6504 43.0209C46.6295 42.9868 46.6115 42.9511 46.5921 42.9155C46.5607 42.8576 46.6101 42.9764 46.5951 42.9244C46.5906 42.9096 46.5831 42.8962 46.5801 42.8829C46.5741 42.8606 46.5697 42.8354 46.5622 42.8131C46.5352 42.7345 46.5652 42.8873 46.5622 42.822C46.5532 42.4644 45.9921 42.4629 46.0011 42.822L46.0056 42.8205Z" fill="black"/>
<path d="M50.3732 39.9579C51.6879 39.9579 52.7537 39.0563 52.7537 37.9441C52.7537 36.8319 51.6879 35.9303 50.3732 35.9303C49.0585 35.9303 47.9927 36.8319 47.9927 37.9441C47.9927 39.0563 49.0585 39.9579 50.3732 39.9579Z" fill="#CCFC56"/>
<path d="M52.4723 37.9441C52.4619 38.738 51.8349 39.3495 51.1003 39.5721C50.2968 39.8154 49.3467 39.6463 48.7452 39.0408C48.2021 38.4932 48.1183 37.6696 48.5761 37.0433C49.0639 36.3755 49.9931 36.101 50.7906 36.2434C51.6464 36.3948 52.4604 37.024 52.4723 37.9456C52.4768 38.3032 53.0379 38.3047 53.0334 37.9456C53.02 36.9083 52.2389 36.0921 51.2753 35.7893C50.3118 35.4866 49.0714 35.7107 48.3337 36.472C47.638 37.1902 47.5018 38.3003 48.0928 39.1269C48.7198 40.0024 49.8419 40.3586 50.8878 40.1924C52.0145 40.0128 53.0185 39.1239 53.0349 37.9456C53.0394 37.5879 52.4783 37.5865 52.4738 37.9456L52.4723 37.9441Z" fill="black"/>
<path d="M62.9177 41.5146C64.639 41.5146 66.0344 40.5691 66.0344 39.4029C66.0344 38.2366 64.639 37.2911 62.9177 37.2911C61.1964 37.2911 59.801 38.2366 59.801 39.4029C59.801 40.5691 61.1964 41.5146 62.9177 41.5146Z" fill="#CCFC56"/>
<path d="M65.7545 39.4029C65.741 40.363 64.7191 40.9225 63.8947 41.1228C62.8548 41.3751 61.5755 41.2416 60.7197 40.5559C60.4099 40.3081 60.1466 39.9683 60.0897 39.5676C60.0329 39.1669 60.199 38.7766 60.4683 38.4843C61.2 37.6888 62.4448 37.4677 63.4787 37.6042C64.4199 37.7274 65.738 38.2913 65.753 39.4029C65.7575 39.7605 66.3186 39.762 66.3141 39.4029C66.2961 38.1934 65.1425 37.4217 64.0697 37.1531C62.8114 36.8385 61.3211 37.0284 60.3037 37.8714C59.8922 38.2127 59.5915 38.6846 59.5302 39.2188C59.4688 39.7531 59.6783 40.2651 60.0254 40.6672C60.8693 41.6437 62.364 41.9138 63.5894 41.7461C64.8149 41.5769 66.2931 40.8008 66.3141 39.4058C66.3186 39.0482 65.7575 39.0482 65.753 39.4058L65.7545 39.4029Z" fill="black"/>
<path d="M66.8782 8.21349H69.5744C71.0138 8.21349 72.4547 8.21349 73.894 8.21349H74.8831C75.2436 8.21349 75.2451 7.65698 74.8831 7.65698H72.1868C70.7475 7.65698 69.3066 7.65698 67.8672 7.65698C67.538 7.65698 67.2074 7.65698 66.8782 7.65698C66.5176 7.65698 66.5161 8.21349 66.8782 8.21349Z" fill="black"/>
<path d="M60.6537 38.0094C60.6537 38.0094 58.3794 37.3297 57.0253 40.3289C55.5814 43.5284 58.0203 44.8477 58.8043 45.0465" fill="white"/>
<path d="M60.754 37.6517C59.6184 37.3164 58.3451 37.9055 57.5985 38.7395C56.81 39.6195 56.2623 40.8438 56.207 42.0251C56.1666 42.8918 56.4673 43.7302 57.0538 44.3728C57.4833 44.8447 58.0818 45.2425 58.7057 45.4057C59.171 45.5274 59.37 44.8121 58.9047 44.6904C58.8179 44.6681 58.7341 44.637 58.6503 44.6058C58.577 44.5791 58.6638 44.6117 58.6503 44.6058C58.6264 44.5939 58.6024 44.585 58.5785 44.5732C58.5231 44.5479 58.4693 44.5212 58.4154 44.4915C58.2957 44.4277 58.1805 44.358 58.0698 44.2808C58.0414 44.2615 58.0144 44.2422 57.9875 44.2215C57.9351 44.1844 58.0234 44.2526 57.9576 44.1977C57.8977 44.1487 57.8394 44.0998 57.784 44.0493C57.6658 43.941 57.5551 43.8237 57.4548 43.6976C57.4952 43.7495 57.4339 43.6679 57.4219 43.6531C57.3995 43.6204 57.377 43.5878 57.3546 43.5551C57.3067 43.4824 57.2633 43.4082 57.2214 43.331C57.202 43.2939 57.184 43.2568 57.1661 43.2197C57.1556 43.1975 57.1451 43.1767 57.1361 43.1544C57.1421 43.1693 57.1586 43.2108 57.1316 43.1426C57.0987 43.055 57.0673 42.966 57.0419 42.8755C56.985 42.6692 56.9656 42.5519 56.9551 42.3575C56.8997 41.3454 57.3441 40.277 57.9531 39.4741C58.2059 39.1417 58.4992 38.8686 58.8299 38.6713C58.9017 38.6282 58.975 38.5882 59.0498 38.5511C59.0857 38.5332 59.1216 38.5169 59.159 38.5006C59.1994 38.4828 59.1531 38.5036 59.1471 38.505C59.1725 38.4947 59.1979 38.4858 59.2234 38.4754C59.3655 38.4234 59.5107 38.3819 59.6603 38.3537C59.6962 38.3463 59.7321 38.3418 59.7695 38.3344C59.8578 38.3195 59.7127 38.3374 59.8009 38.3314C59.8698 38.3255 59.9386 38.3195 60.0074 38.3181C60.1196 38.3151 60.2304 38.3195 60.3411 38.3285C60.362 38.3299 60.386 38.3374 60.4069 38.3359C60.4129 38.3359 60.3052 38.3181 60.38 38.3329C60.4114 38.3388 60.4443 38.3433 60.4757 38.3507C60.5027 38.3566 60.5296 38.3626 60.5565 38.37C61.0189 38.5065 61.2164 37.7912 60.7555 37.6547L60.754 37.6517Z" fill="black"/>
<path d="M63.1301 52.2841C63.1301 52.2841 63.8902 55.0042 68.1335 54.5219C76.9793 53.5158 74.705 41.706 71.2068 38.4887C68.346 35.8561 62.0004 36.5432 60.2094 38.6252C58.7656 40.3051 59.7037 41.9212 60.4159 42.1943" fill="white"/>
<path d="M62.7696 52.382C62.9701 53.0914 63.5401 53.7072 64.1311 54.1198C65.584 55.1363 67.5919 55.0903 69.2513 54.706C70.6458 54.3824 71.955 53.6761 72.8841 52.5823C73.752 51.5584 74.2726 50.2955 74.5061 48.9851C74.7544 47.5931 74.7155 46.1744 74.4941 44.7824C74.2726 43.3904 73.8896 42.1542 73.324 40.9314C72.8542 39.9178 72.2437 38.9028 71.3939 38.1563C70.0263 36.9528 68.1381 36.4898 66.3516 36.4156C64.6354 36.3443 62.804 36.6085 61.2614 37.3906C60.5222 37.7645 59.8848 38.2958 59.4778 39.023C58.9901 39.8926 58.9197 41.0071 59.4958 41.8559C59.7053 42.1646 59.9701 42.4124 60.3202 42.5534C60.5073 42.6291 60.7317 42.4718 60.7811 42.2937C60.8394 42.0815 60.7078 41.9138 60.5192 41.8366C60.612 41.8737 60.4594 41.7981 60.428 41.7788C60.3531 41.7342 60.4429 41.7966 60.3935 41.755C60.3606 41.7268 60.3277 41.6971 60.2978 41.6675C60.2738 41.6437 60.2499 41.6185 60.2275 41.5933C60.2125 41.5755 60.196 41.5576 60.1826 41.5398C60.1871 41.5458 60.211 41.5784 60.1856 41.5428C60.1287 41.4656 60.0778 41.3855 60.0329 41.3009C59.8669 40.9893 59.795 40.599 59.8429 40.2131C59.9058 39.7145 60.1661 39.2411 60.4968 38.8671C60.5925 38.7588 60.6973 38.6564 60.808 38.5629C60.8364 38.5377 60.8664 38.5139 60.8963 38.4902C60.9097 38.4798 60.9217 38.4694 60.9352 38.459C60.9232 38.4679 60.8813 38.4991 60.9397 38.4561C61.004 38.4086 61.0698 38.3626 61.1372 38.3195C61.7566 37.9144 62.3716 37.6859 63.0913 37.4959C63.9082 37.2792 64.7042 37.1739 65.5466 37.1516C67.1939 37.1056 68.9341 37.3772 70.3301 38.2765C70.7999 38.5792 71.2024 38.9725 71.566 39.4251C71.6063 39.4756 71.5315 39.3776 71.5824 39.4459C71.6019 39.4711 71.6213 39.4964 71.6408 39.5231C71.6797 39.575 71.7171 39.627 71.7545 39.6804C71.8323 39.7887 71.9056 39.9 71.9774 40.0128C72.1255 40.2443 72.2647 40.4832 72.3934 40.7266C72.5325 40.9878 72.6612 41.2549 72.7809 41.5265C72.7944 41.5562 72.8063 41.5858 72.8198 41.6155C72.8422 41.6689 72.7988 41.5636 72.8198 41.617C72.8258 41.6318 72.8333 41.6467 72.8392 41.663C72.8692 41.7342 72.8976 41.8055 72.926 41.8767C72.9844 42.0221 73.0397 42.1676 73.0921 42.316C73.3091 42.9185 73.4841 43.5358 73.6218 44.1621C73.6906 44.4797 73.749 44.7987 73.7968 45.1193C73.8028 45.1608 73.8088 45.2009 73.8148 45.2424C73.8208 45.287 73.8148 45.2395 73.8148 45.2321C73.8178 45.2558 73.8208 45.2795 73.8238 45.3033C73.8342 45.3849 73.8447 45.468 73.8537 45.5511C73.8716 45.7158 73.8866 45.8806 73.9001 46.0468C73.948 46.6968 73.9495 47.3497 73.8926 47.9982C73.8791 48.1541 73.8627 48.3084 73.8417 48.4627C73.8522 48.3885 73.8357 48.4998 73.8327 48.5176C73.8268 48.5577 73.8208 48.5963 73.8148 48.6364C73.8013 48.715 73.7879 48.7937 73.7729 48.8723C73.7145 49.1825 73.6412 49.4912 73.55 49.7924C73.5066 49.9364 73.4587 50.0788 73.4078 50.2198C73.3809 50.2925 73.354 50.3652 73.324 50.4365C73.3121 50.4676 73.2986 50.4973 73.2866 50.5285C73.2642 50.5819 73.3091 50.478 73.2866 50.5314C73.2776 50.5522 73.2687 50.5715 73.2597 50.5923C73.137 50.8668 72.9978 51.134 72.8392 51.3907C72.7584 51.5213 72.6747 51.6474 72.5849 51.7721C72.5624 51.8032 72.54 51.8329 72.5161 51.8641C72.5056 51.8774 72.4966 51.8908 72.4861 51.9027C72.4951 51.8908 72.528 51.8492 72.4846 51.9056C72.4368 51.965 72.3889 52.0244 72.338 52.0837C72.139 52.3152 71.9236 52.5304 71.6916 52.7278C71.6318 52.7782 71.5704 52.8287 71.5076 52.8777C71.4747 52.9044 71.5106 52.8762 71.5166 52.8717C71.5031 52.8821 71.4896 52.8925 71.4762 52.9029C71.4388 52.9296 71.4029 52.9578 71.3655 52.983C71.2323 53.0765 71.0961 53.1656 70.957 53.2487C70.8178 53.3318 70.6772 53.4075 70.532 53.4787C70.3705 53.5588 70.2328 53.6182 70.1131 53.6657C69.3889 53.9506 68.6064 54.1153 67.8643 54.1777C66.983 54.2519 66.1137 54.2059 65.2847 53.8912C65.174 53.8497 65.0379 53.7888 64.8852 53.7072C64.7536 53.636 64.6249 53.5573 64.5022 53.4698C64.4768 53.452 64.4528 53.4342 64.4289 53.4164C64.375 53.3763 64.4708 53.452 64.4005 53.3926C64.3496 53.3496 64.2987 53.308 64.2508 53.265C64.1611 53.1834 64.0758 53.0973 63.995 53.0068C63.9606 52.9682 63.9277 52.9281 63.8947 52.8881C63.8454 52.8302 63.8917 52.8851 63.8902 52.8836C63.8738 52.8599 63.8558 52.8376 63.8379 52.8139C63.7855 52.7411 63.7376 52.6684 63.6913 52.5912C63.6523 52.526 63.6164 52.4592 63.582 52.3909C63.5686 52.3642 63.5566 52.3375 63.5446 52.3123C63.4982 52.2158 63.5745 52.3954 63.5446 52.3123C63.5282 52.2692 63.5102 52.2262 63.4982 52.1817C63.3681 51.7231 62.6469 51.9175 62.777 52.379L62.7696 52.382Z" fill="black"/>
<path d="M66.3186 41.8856C66.3186 41.8856 60.0194 40.4907 58.9048 44.3402C58.4275 45.9874 59.7636 46.9476 60.6763 47.421" fill="white"/>
<path d="M66.4174 41.528C65.2712 41.2757 64.0398 41.2015 62.8728 41.3113C61.9406 41.3989 60.9935 41.6111 60.187 42.1023C59.3237 42.6291 58.6683 43.4958 58.4828 44.4945C58.3407 45.2603 58.5322 45.9919 59.0185 46.6003C59.4075 47.0871 59.9372 47.4536 60.4878 47.7415C60.9142 47.9641 61.2927 47.323 60.8648 47.1004C59.9805 46.6389 59.0903 45.9221 59.186 44.8343C59.2294 44.3402 59.4165 43.9365 59.6918 43.5433C59.7187 43.5047 59.7471 43.4661 59.7756 43.429C59.7411 43.4735 59.8369 43.3578 59.8504 43.3414C59.9192 43.2643 59.991 43.1886 60.0673 43.1188C60.1436 43.0491 60.2214 42.9808 60.3022 42.9185C60.2499 42.9586 60.3456 42.8873 60.3651 42.8754C60.4115 42.8428 60.4593 42.8102 60.5072 42.7805C60.6868 42.6662 60.8768 42.5697 61.0713 42.4822C61.0803 42.4777 61.1461 42.4495 61.1072 42.4673C61.0593 42.4881 61.1641 42.4451 61.1596 42.4466C61.203 42.4302 61.2464 42.4139 61.2897 42.3976C61.3945 42.3605 61.4992 42.3264 61.607 42.2937C61.8164 42.2329 62.0274 42.1824 62.2414 42.1423C62.3341 42.1245 62.4269 42.1097 62.5197 42.0949C62.5481 42.0904 62.578 42.086 62.6064 42.083C62.6738 42.0741 62.5167 42.0934 62.6289 42.08C62.6872 42.0726 62.7456 42.0667 62.8024 42.0607C63.5625 41.9836 64.3316 41.9999 65.0917 42.0741C65.18 42.083 65.2697 42.0919 65.358 42.1038C65.3969 42.1082 65.4358 42.1142 65.4762 42.1186C65.5615 42.129 65.3939 42.1067 65.5091 42.1231C65.6348 42.1409 65.762 42.1602 65.8877 42.1809C65.9984 42.2002 66.1091 42.2195 66.2184 42.2433C66.6867 42.3471 66.8872 41.6319 66.4174 41.528Z" fill="black"/>
<path d="M65.2653 46.8229C65.2653 46.8229 60.9322 46.4311 59.9866 48.0621C59.0409 49.693 60.22 51.7127 62.6379 52.054C63.9561 52.241 65.0962 51.962 65.0962 51.962" fill="white"/>
<path d="M65.2652 46.4519C64.7386 46.4044 64.2044 46.4015 63.6762 46.4193C62.6947 46.4519 61.6743 46.5617 60.769 46.9609C60.3606 47.1405 59.9865 47.4046 59.7307 47.7727C59.4284 48.206 59.2758 48.7714 59.2878 49.2953C59.3147 50.4602 60.1077 51.4575 61.1281 51.9709C61.8912 52.3553 62.7456 52.4903 63.5939 52.4889C64.1251 52.4889 64.6772 52.4443 65.1949 52.3197C65.6632 52.2069 65.4642 51.4916 64.9959 51.6044C64.6159 51.6964 64.2957 51.7231 63.9007 51.7409C63.2109 51.7706 62.5122 51.7157 61.8598 51.4827C61.369 51.3076 60.9291 51.0227 60.5865 50.6368C60.3037 50.3192 60.0972 49.8948 60.0464 49.4852C59.9955 49.0756 60.0838 48.6289 60.3097 48.249C60.3336 48.209 60.3576 48.1719 60.3845 48.1348C60.4159 48.0903 60.3471 48.1793 60.3815 48.1377C60.395 48.1214 60.4084 48.1066 60.4219 48.0903C60.4848 48.019 60.5536 47.9567 60.6269 47.8958C60.582 47.9285 60.6703 47.8602 60.6269 47.8958C60.6449 47.8825 60.6628 47.8706 60.6808 47.8573C60.7212 47.8291 60.7646 47.8024 60.8064 47.7756C60.8947 47.7222 60.9875 47.6747 61.0818 47.6302C61.188 47.5812 61.164 47.5916 61.2927 47.5441C61.399 47.5056 61.5052 47.4714 61.6144 47.4403C61.8329 47.3779 62.0558 47.3304 62.2787 47.2904C62.6693 47.2221 63.1002 47.1835 63.549 47.1642C64.1191 47.1405 64.6967 47.142 65.2652 47.1924C65.4672 47.2102 65.6393 47.0084 65.6393 46.8214C65.6393 46.6062 65.4672 46.4682 65.2652 46.4504V46.4519Z" fill="black"/>
<path d="M69.4741 11.7439C70.4826 11.7439 71.4926 11.7439 72.501 11.7439C74.096 11.7439 75.691 11.7439 77.2875 11.7439H78.3992C78.7598 11.7439 78.7613 11.1874 78.3992 11.1874H69.4741C69.1135 11.1874 69.112 11.7439 69.4741 11.7439Z" fill="black"/>
<path d="M71.8084 15.6246H80.9803C81.3409 15.6246 81.3424 15.0681 80.9803 15.0681H71.8084C71.4478 15.0681 71.4463 15.6246 71.8084 15.6246Z" fill="black"/>
<path d="M73.8132 19.9995H82.9852C83.3458 19.9995 83.3473 19.443 82.9852 19.443H73.8132C73.4526 19.443 73.4512 19.9995 73.8132 19.9995Z" fill="black"/>
<path d="M75.1104 24.683H84.2823C84.6429 24.683 84.6444 24.1265 84.2823 24.1265H75.1104C74.7498 24.1265 74.7483 24.683 75.1104 24.683Z" fill="black"/>
<path d="M76.3943 29.6173H79.508C81.1478 29.6173 82.7877 29.6173 84.4276 29.6173H85.5647C85.9253 29.6173 85.9268 29.0608 85.5647 29.0608H82.4511C80.8112 29.0608 79.1713 29.0608 77.5314 29.0608H76.3943C76.0337 29.0608 76.0322 29.6173 76.3943 29.6173Z" fill="black"/>
<path d="M76.7578 35.1586C77.8965 35.1586 79.0351 35.1586 80.1737 35.1586C81.9752 35.1586 83.7767 35.1586 85.5766 35.1586H86.8275C87.1881 35.1586 87.1896 34.6021 86.8275 34.6021H76.7578C76.3972 34.6021 76.3957 35.1586 76.7578 35.1586Z" fill="black"/>
<path d="M77.2112 40.6984C78.3498 40.6984 79.4885 40.6984 80.6271 40.6984C82.4286 40.6984 84.23 40.6984 86.03 40.6984H87.2809C87.6415 40.6984 87.643 40.1419 87.2809 40.1419C86.1422 40.1419 85.0036 40.1419 83.865 40.1419C82.0635 40.1419 80.262 40.1419 78.462 40.1419H77.2112C76.8506 40.1419 76.8491 40.6984 77.2112 40.6984Z" fill="black"/>
<path d="M77.2112 46.2397H80.6271C82.4286 46.2397 84.23 46.2397 86.03 46.2397H87.2809C87.6415 46.2397 87.643 45.6832 87.2809 45.6832H83.865C82.0635 45.6832 80.262 45.6832 78.462 45.6832H77.2112C76.8506 45.6832 76.8491 46.2397 77.2112 46.2397Z" fill="black"/>
<path d="M77.2112 51.4946H80.6271C82.4286 51.4946 84.23 51.4946 86.03 51.4946H87.2809C87.6415 51.4946 87.643 50.9381 87.2809 50.9381H83.865C82.0635 50.9381 80.262 50.9381 78.462 50.9381H77.2112C76.8506 50.9381 76.8491 51.4946 77.2112 51.4946Z" fill="black"/>
<path d="M75.5459 60.4328H78.9618C80.7633 60.4328 82.5648 60.4328 84.3647 60.4328H85.6156C85.9762 60.4328 85.9777 59.8763 85.6156 59.8763H75.5459C75.1853 59.8763 75.1838 60.4328 75.5459 60.4328Z" fill="black"/>
<path d="M74.1423 65.2959H83.805C84.1656 65.2959 84.1671 64.7393 83.805 64.7393H74.1423C73.7818 64.7393 73.7803 65.2959 74.1423 65.2959Z" fill="black"/>
<path d="M72.6206 70.1575H75.7238C77.3712 70.1575 79.02 70.1575 80.6674 70.1575H81.8C82.1606 70.1575 82.1621 69.601 81.8 69.601H72.6206C72.26 69.601 72.2585 70.1575 72.6206 70.1575Z" fill="black"/>
<path d="M70.3494 74.4938H78.9737C79.3343 74.4938 79.3358 73.9373 78.9737 73.9373H70.3494C69.9888 73.9373 69.9873 74.4938 70.3494 74.4938Z" fill="black"/>
<path d="M68.1619 78.1103H70.9434C72.4127 78.1103 73.8835 78.1103 75.3528 78.1103H76.3672C76.7278 78.1103 76.7293 77.5538 76.3672 77.5538C75.4396 77.5538 74.5134 77.5538 73.5857 77.5538C72.1164 77.5538 70.6456 77.5538 69.1763 77.5538H68.1619C67.8013 77.5538 67.7998 78.1103 68.1619 78.1103Z" fill="black"/>
<path d="M65.0676 81.0456H67.8491C69.3184 81.0456 70.7892 81.0456 72.2586 81.0456H73.273C73.6336 81.0456 73.6351 80.4891 73.273 80.4891H70.4915C69.0222 80.4891 67.5514 80.4891 66.0821 80.4891H65.0676C64.707 80.4891 64.7055 81.0456 65.0676 81.0456Z" fill="black"/>
</g>
<defs>
<clipPath id="clip0_2897_46662">
<rect width="92.5962" height="101.378" fill="white" transform="translate(9.25952 1.26236)"/>
</clipPath>
</defs>
</svg>
