<svg width="40" height="40" viewBox="0 0 40 40" fill="none" xmlns="http://www.w3.org/2000/svg">
<rect width="40" height="40" rx="8" fill="#F0F2F5"/>
<path d="M13.9287 27.3809L13.9287 27.3809L16.6549 25.3543H25.1913C26.3487 25.3543 27.2871 24.416 27.2871 23.2585V15.9958C27.2871 14.8383 26.3488 13.9 25.1913 13.9H14.9958C13.8383 13.9 12.9 14.8383 12.9 15.9958V26.8638C12.9 27.1074 13.0373 27.3301 13.255 27.4395C13.4726 27.5489 13.7332 27.5262 13.9287 27.3809ZM14.1886 25.582V15.9958C14.1886 15.55 14.55 15.1886 14.9958 15.1886H25.1913C25.6371 15.1886 25.9985 15.55 25.9985 15.9958V23.2585C25.9985 23.7043 25.6371 24.0657 25.1913 24.0657H16.4416C16.3031 24.0657 16.1684 24.1104 16.0573 24.1929L16.0573 24.1929L14.1886 25.582Z" fill="#7C26FA" stroke="#7C26FA" stroke-width="0.2"/>
</svg>
