<svg width="88" height="117" viewBox="0 0 88 117" fill="none" xmlns="http://www.w3.org/2000/svg">
<ellipse cx="30.3117" cy="4.54676" rx="30.3117" ry="4.54676" transform="matrix(1 0 0 -1 16.408 109.816)" fill="#A9A3FF"/>
<g clip-path="url(#clip0_2802_64122)">
<path d="M50.2163 93.915C50.2163 93.7635 55.2171 91.3389 55.2171 91.3389H57.4901L59.0055 92.5512L58.854 94.5212L58.0963 96.3396C58.0963 96.3396 54.3078 96.4912 54.1563 96.4912H50.974L50.2163 93.915Z" fill="white"/>
<path d="M26.5763 94.5205L26.4248 93.1567L28.5463 91.4897C28.5463 91.4897 31.4256 94.0659 31.5771 94.0659C31.7286 94.0659 30.8194 94.9751 30.8194 94.9751L26.5763 94.5205Z" fill="white"/>
<path d="M7.17959 51.9388L5.96729 49.5142L9.75574 43.4526L13.6957 49.8172L9.75574 52.9995L7.17959 51.9388Z" fill="white"/>
<path d="M4.73355 51.5125C3.3197 54.2356 2.11346 58.362 4.47139 60.9063C6.52018 63.1158 10.1586 62.6702 12.7529 61.9353C15.7443 61.0882 18.4265 59.4243 20.7663 57.4073C22.0892 56.2678 23.3121 54.9903 24.3441 53.5795C24.9972 52.6869 24.4956 51.2973 23.6107 50.7806C22.5741 50.1744 21.4664 50.6199 20.8117 51.514C20.5663 51.8504 21.0845 51.1806 20.9618 51.3216C20.8011 51.5049 20.6541 51.7019 20.4965 51.8883C19.9783 52.4945 19.4267 53.0749 18.8508 53.6265C18.4932 53.9689 18.125 54.3023 17.7476 54.6221C17.5309 54.8054 17.3112 54.9842 17.09 55.1615C17.4052 54.9085 17.0945 55.1585 17.0127 55.2191C16.8414 55.3449 16.6717 55.4707 16.4975 55.5919C15.4412 56.3344 14.3108 57.0012 13.1182 57.5028C13.4046 57.3816 13.0848 57.5134 13.0409 57.5286C12.8469 57.5983 12.656 57.674 12.4605 57.7407C12.165 57.8422 11.8649 57.9347 11.5634 58.018C11.2618 58.1014 10.9481 58.1771 10.636 58.2408C10.4253 58.2832 10.2147 58.3226 10.001 58.356C10.3389 58.3029 9.70703 58.3878 9.67975 58.3908C9.36759 58.4181 9.0539 58.4348 8.74022 58.4302C8.56746 58.4272 7.7628 58.2938 8.32955 58.4226C8.12952 58.3772 7.92949 58.3256 7.72946 58.2787C7.55519 58.2362 7.37789 58.0696 7.81583 58.3287C7.72037 58.2726 7.61126 58.2181 7.51276 58.1665C7.43093 58.1226 7.20665 57.8983 7.45669 58.1377C7.7431 58.4135 7.45063 58.1241 7.43093 58.0893C7.18392 57.6513 7.7143 58.409 7.3885 58.0256C7.34607 57.9756 7.33394 57.9013 7.29454 57.8513C7.08694 57.5846 7.37637 58.3075 7.35213 57.9711C7.34758 57.9013 7.27636 57.5089 7.2309 57.4786C7.37031 57.5695 7.26575 58.0301 7.25363 57.6104C7.25211 57.5407 7.24454 57.4695 7.24302 57.3998C7.23696 57.2209 7.24151 57.0421 7.25211 56.8633C7.25666 56.7906 7.26424 56.7193 7.26878 56.6466C7.29757 56.1753 7.29909 56.7603 7.24908 56.7557C7.24908 56.7557 7.33697 56.2738 7.34758 56.2178C7.5067 55.4782 7.75522 54.7706 8.02647 54.0659C8.19468 53.628 7.79613 54.5675 8.00374 54.122C8.04769 54.0295 8.0886 53.9356 8.13103 53.8432C8.17347 53.7507 8.2159 53.6659 8.25984 53.578C8.76901 52.5975 8.51291 51.3564 7.5264 50.7791C6.60808 50.2411 5.23817 50.529 4.72749 51.5125H4.73355Z" fill="black"/>
<path d="M31.9136 90.5426C31.9136 90.5426 33.5851 89.9319 35.2444 90.8275C36.4128 91.4579 36.5295 92.3232 36.1946 93.093C36.0824 93.3522 36.0142 93.6325 36.043 93.9144C36.0597 94.0765 36.3704 94.5963 36.4325 94.7281C36.5795 95.0448 36.8235 95.4707 37.0235 95.9298C37.6205 97.2982 37.8175 97.4907 38.154 98.5378C38.7525 100.4 38.5601 101.118 37.5887 101.885C29.7709 108.05 18.9829 106.401 16.3082 105.906C13.6336 105.41 10.1588 102.687 15.4096 98.3362C22.1591 92.743 27.9751 94.1629 27.9751 94.1629" fill="white"/>
<path d="M32.0152 90.9084C32.879 90.5962 33.964 90.6462 34.8247 91.0402C35.3445 91.2781 35.8734 91.6449 35.9704 92.2116C35.9613 92.1616 35.9734 92.2283 35.9734 92.2343C35.9764 92.2616 35.9779 92.2889 35.9779 92.3162C35.9795 92.3783 35.9779 92.4404 35.9719 92.5011C35.9658 92.5692 35.9795 92.4556 35.9704 92.5238C35.9658 92.5511 35.9613 92.5783 35.9552 92.6056C35.9401 92.6738 35.9219 92.742 35.8991 92.8087C35.7946 93.1239 35.6415 93.4679 35.6597 93.8467C35.6734 94.1225 35.8097 94.365 35.9385 94.6029C36.0674 94.8408 36.1749 95.062 36.2947 95.2939C36.6174 95.9228 36.8932 96.5729 37.2009 97.2093C37.4221 97.6685 37.5827 98.014 37.7403 98.4838C37.9313 99.0536 38.1222 99.6537 38.1161 100.251C38.1116 100.63 37.9889 100.957 37.7418 101.228C37.3448 101.666 36.8175 102.004 36.3325 102.334C35.2445 103.074 34.0777 103.706 32.8638 104.212C30.5983 105.158 28.1752 105.709 25.7355 105.947C23.7064 106.146 21.6576 106.139 19.6255 105.965C19.2254 105.93 18.8253 105.889 18.4268 105.842C18.3435 105.832 18.2616 105.823 18.1783 105.812C18.1374 105.808 18.098 105.802 18.057 105.797C18.0328 105.794 18.007 105.791 17.9828 105.788C17.9343 105.782 18.0555 105.799 17.9828 105.788C17.8222 105.767 17.663 105.744 17.5039 105.72C16.9569 105.638 16.3992 105.562 15.8673 105.408C15.6931 105.358 15.5203 105.298 15.3506 105.233C15.3097 105.218 15.2703 105.201 15.2293 105.185C15.3081 105.217 15.1702 105.159 15.1551 105.151C15.0657 105.111 14.9778 105.068 14.8899 105.023C14.7202 104.935 14.555 104.839 14.3974 104.733C14.3247 104.685 14.255 104.635 14.1853 104.583C14.1277 104.541 14.1731 104.574 14.1853 104.583C14.1686 104.57 14.1519 104.556 14.1352 104.542C14.0943 104.509 14.0534 104.474 14.0125 104.439C13.8731 104.318 13.7428 104.186 13.623 104.045C13.6124 104.033 13.5412 103.944 13.5639 103.974C13.5852 104.001 13.5139 103.906 13.5003 103.886C13.4473 103.81 13.3973 103.732 13.3518 103.65C13.3109 103.577 13.2745 103.504 13.2397 103.428C13.2093 103.363 13.2351 103.421 13.2397 103.433C13.2321 103.413 13.2245 103.395 13.2169 103.375C13.1987 103.327 13.1806 103.278 13.1654 103.228C13.1381 103.144 13.1154 103.057 13.0987 102.969C13.0896 102.927 13.0836 102.886 13.076 102.844C13.0669 102.786 13.0836 102.907 13.076 102.848C13.073 102.816 13.0699 102.783 13.0669 102.751C13.0593 102.657 13.0578 102.562 13.0608 102.468C13.0608 102.422 13.0654 102.377 13.0684 102.33C13.0699 102.307 13.073 102.283 13.0745 102.26C13.0851 102.145 13.0608 102.336 13.079 102.219C13.1124 102.006 13.1669 101.796 13.2397 101.593C13.3988 101.148 13.7003 100.658 14.0186 100.252C14.9732 99.0354 16.2628 98.0595 17.5464 97.2124C19.5876 95.8652 21.8758 94.8832 24.3019 94.515C24.4459 94.4938 24.452 94.4923 24.5702 94.4771C24.6823 94.4635 24.7944 94.4513 24.9051 94.4392C25.1021 94.4195 25.3006 94.4044 25.4991 94.3938C25.8461 94.3741 26.1946 94.3695 26.5432 94.3801C26.8008 94.3877 27.0584 94.4044 27.3145 94.4332C27.363 94.4392 27.413 94.4438 27.4615 94.4498C27.5297 94.4574 27.4918 94.4544 27.4388 94.4468C27.463 94.4498 27.4873 94.4529 27.5115 94.4574C27.5767 94.468 27.6433 94.4771 27.7085 94.4892C27.7631 94.4983 27.8176 94.5089 27.8707 94.5226C28.345 94.6377 28.5465 93.9073 28.0722 93.7922C27.2039 93.5815 26.2492 93.5876 25.3642 93.6452C23.0593 93.7952 20.8211 94.5135 18.7875 95.5924C17.3312 96.3653 15.9522 97.3245 14.7217 98.4232C13.77 99.2718 12.8441 100.301 12.4577 101.543C12.1971 102.384 12.2653 103.292 12.7108 104.059C13.1169 104.76 13.7791 105.298 14.4914 105.668C15.7021 106.299 17.1054 106.443 18.442 106.603C20.3816 106.835 22.3425 106.912 24.2928 106.812C26.8053 106.685 29.3194 106.27 31.7031 105.458C33.0048 105.014 34.2716 104.454 35.4657 103.769C36.081 103.416 36.6765 103.03 37.2493 102.61C37.7176 102.268 38.2131 101.922 38.5374 101.43C39.1906 100.434 38.7632 99.096 38.398 98.0777C38.2268 97.5973 38.004 97.1427 37.7843 96.6835C37.4645 96.0152 37.1569 95.3409 36.8281 94.6771C36.7175 94.4544 36.5947 94.2377 36.4841 94.0149C36.428 93.9013 36.4098 93.8891 36.4144 93.7831C36.425 93.5967 36.4659 93.4269 36.5341 93.2527C36.7508 92.7041 36.8144 92.1465 36.5614 91.5949C36.2522 90.9205 35.5506 90.5068 34.8869 90.2507C34.2186 89.9931 33.4761 89.9113 32.7653 89.987C32.4471 90.0204 32.1152 90.0689 31.8122 90.178C31.6197 90.2477 31.4909 90.4356 31.547 90.6447C31.5985 90.8311 31.8197 90.9796 32.0137 90.9099L32.0152 90.9084Z" fill="black"/>
<path d="M25.0202 78.9366C23.2259 85.4391 26.8022 92.6251 32.1546 96.3681C33.0608 97.0015 34.4276 96.5332 34.9535 95.6346C35.5505 94.6148 35.1277 93.4706 34.22 92.8357C34.1837 92.8099 34.1503 92.7842 34.114 92.7584C33.8654 92.5842 34.3367 92.9281 34.3504 92.9418C34.2882 92.8766 34.2018 92.8251 34.1321 92.7675C33.7578 92.4538 33.3926 92.1311 33.0426 91.7901C32.5152 91.2764 32.0303 90.7263 31.5575 90.1626C31.2984 89.8519 31.6424 90.2974 31.3741 89.9277C31.2469 89.7534 31.1211 89.5791 30.9983 89.4003C30.7407 89.0245 30.4967 88.6396 30.2694 88.2456C29.2996 86.5651 28.7237 84.7981 28.6828 82.8887C28.6737 82.4629 28.6828 82.0371 28.7131 81.6113C28.7253 81.4279 28.7465 81.2446 28.7616 81.0612C28.8025 80.549 28.6919 81.3976 28.7707 80.9809C28.8313 80.6611 28.8783 80.3384 28.9647 80.0232C29.2587 78.9594 28.601 77.7986 27.5357 77.5061C26.4658 77.2121 25.3141 77.8653 25.0186 78.9351L25.0202 78.9366Z" fill="black"/>
<path d="M29.4585 99.2866L28.7251 93.2266L31.0588 92.8356L33.9138 91.5264L36.5581 95.9528L29.4585 99.2866Z" fill="white"/>
<path d="M27.9886 91.3705C27.2067 91.6342 26.4051 92.1934 26.1277 92.998C26.0065 93.3511 26.0201 93.7421 26.1247 94.0967C26.1808 94.2861 26.3929 94.4255 26.5914 94.3619C26.79 94.2982 26.9157 94.0997 26.8566 93.8951C26.8354 93.8254 26.8203 93.7557 26.8066 93.683C26.7945 93.6224 26.8157 93.7072 26.8097 93.7072C26.8097 93.7072 26.8036 93.6527 26.8051 93.6572C26.8021 93.6209 26.8006 93.5845 26.8006 93.5466C26.8006 93.4875 26.8127 93.4284 26.8112 93.3708C26.8142 93.4754 26.8081 93.3996 26.8172 93.3602C26.8248 93.3269 26.8324 93.295 26.8415 93.2632C26.8491 93.2344 26.8582 93.2072 26.8688 93.1799C26.8733 93.1662 26.8794 93.1526 26.8839 93.139C26.8991 93.0935 26.8475 93.2117 26.8718 93.1693C26.9021 93.1162 26.9248 93.0602 26.9567 93.0071C26.9794 92.9692 27.0142 92.8904 27.0521 92.8662C27.0567 92.8632 26.9976 92.9314 27.0248 92.901C27.0339 92.8904 27.043 92.8783 27.0521 92.8677C27.0718 92.8435 27.093 92.8192 27.1143 92.7965C27.1915 92.7116 27.2764 92.6343 27.3658 92.5616C27.3764 92.5525 27.387 92.5449 27.3976 92.5358C27.4279 92.5101 27.3582 92.5692 27.3613 92.5646C27.3719 92.5464 27.4097 92.5283 27.4264 92.5161C27.4719 92.4843 27.5173 92.4525 27.5628 92.4222C27.7128 92.3252 27.8704 92.2403 28.0326 92.1661C28.0492 92.1585 28.0674 92.1509 28.0841 92.1434C28.1477 92.1146 28.0871 92.1434 28.0508 92.157C28.0765 92.1479 28.1008 92.1373 28.125 92.1267C28.1477 92.1176 28.1705 92.1085 28.1947 92.1009C28.3826 92.0373 28.5251 91.8372 28.4599 91.6342C28.3993 91.4478 28.1947 91.3023 27.9932 91.369L27.9886 91.3705Z" fill="black"/>
<path d="M43.158 12.1089C37.148 18.5568 31.8866 29.7706 29.3089 43.0575C26.7328 56.3458 27.4268 68.6932 30.5955 76.8929L29.1513 84.3395C29.1104 84.5471 29.2544 84.7456 29.4665 84.7729L40.2166 86.1973C50.5227 85.8988 62.1836 72.2967 66.4797 50.1449C70.7758 27.9931 65.5144 12.3119 55.8675 6.99596L45.5796 4.50013C45.0871 4.38041 44.5946 4.69409 44.4991 5.18659L43.1565 12.1089H43.158Z" fill="#674AD6"/>
<path d="M40.1893 86.7289L29.3983 85.2999C29.1528 85.2681 28.9285 85.1332 28.7846 84.9332C28.6406 84.7332 28.586 84.4801 28.633 84.2392L30.0484 76.9411C28.4754 72.8102 27.5147 67.6154 27.2707 61.907C27.0116 55.8712 27.5238 49.496 28.7906 42.9572C30.059 36.4183 31.9669 30.3098 34.4657 24.7999C36.8282 19.5869 39.662 15.1166 42.6685 11.8585L43.9823 5.08475C44.0566 4.70439 44.2778 4.37859 44.6051 4.16795C44.9309 3.95883 45.3325 3.89215 45.7083 3.98307L56.0644 6.49557L56.1266 6.53043C61.1864 9.31873 64.9173 14.7089 66.9161 22.1176C69.0255 29.934 69.0543 39.6597 67.0025 50.2446C64.9506 60.828 61.1546 69.9718 56.0251 76.6865C51.1986 83.0056 45.5901 86.5698 40.2333 86.7259H40.1908L40.1893 86.7289ZM29.7059 84.271L40.2439 85.6666C45.2628 85.503 50.5651 82.0873 55.181 76.0455C60.2105 69.4596 63.9384 60.4689 65.9599 50.0446C67.9814 39.6173 67.9572 30.0567 65.8902 22.3949C63.9763 15.3015 60.4439 10.1507 55.6735 7.49421L45.4553 5.01505C45.3583 4.9908 45.2583 5.00747 45.1749 5.06202C45.0931 5.11355 45.0385 5.19386 45.0204 5.28782L43.6489 12.3601L43.5459 12.4707C37.4056 19.0596 32.279 30.531 29.8302 43.1587C27.3813 55.7864 27.8526 68.3261 31.091 76.7017L31.1455 76.8441L29.7059 84.2695V84.271Z" fill="black"/>
<path d="M56.018 48.2232C60.3431 26.0134 55.535 6.38968 45.2787 4.39234C35.0224 2.395 23.2018 18.7804 18.8766 40.9902C14.5514 63.2 19.3595 82.8238 29.6158 84.8211C39.8721 86.8184 51.6928 70.433 56.018 48.2232Z" fill="#A495FC"/>
<path d="M31.3424 85.5195C30.7392 85.5195 30.1422 85.4634 29.5497 85.3513C26.6886 84.8058 24.1958 82.9919 22.141 79.9581C19.5285 76.1029 17.7812 70.4612 17.0872 63.6465C16.3795 56.6909 16.8129 48.8473 18.3404 40.9658C20.4377 30.149 24.361 20.343 29.389 13.3541C34.5004 6.24844 40.1679 2.87974 45.346 3.86626C48.207 4.41179 50.6983 6.2257 52.7547 9.2595C55.3672 13.1146 57.1145 18.7564 57.8085 25.5711C58.5162 32.5267 58.0828 40.3703 56.5553 48.2518C54.458 59.0685 50.5347 68.8746 45.5066 75.8635C40.9802 82.1569 36.0173 85.518 31.3439 85.518L31.3424 85.5195ZM43.5518 4.75882C39.2314 4.75882 34.5701 7.96839 30.2513 13.9723C25.3112 20.8385 21.4515 30.496 19.383 41.1658C16.3765 56.6712 17.804 71.6629 23.0199 79.361C24.9111 82.1523 27.1751 83.8162 29.7482 84.3072C34.4989 85.2134 39.7876 81.9932 44.6444 75.2437C49.5845 68.3775 53.4442 58.72 55.5127 48.0502C58.5192 32.5448 57.0917 17.5532 51.8758 9.85504C49.9846 7.06371 47.7206 5.39982 45.1475 4.90884C44.6217 4.80882 44.0898 4.75882 43.5518 4.75882Z" fill="black"/>
<path d="M32.6684 13.5992C34.749 11.1943 37.3721 8.82269 40.5756 8.13622C42.5881 7.70586 44.6217 8.14532 46.2962 9.32125C47.8419 10.4063 48.9936 11.9838 49.8816 13.628C51.0196 15.7359 51.7682 18.0438 52.3092 20.3714C53.7352 26.4966 53.7928 32.9339 53.2139 39.1712C52.5593 46.2314 51.0166 53.2506 48.5784 59.9107C46.6175 65.2646 44.0459 70.6002 40.3483 74.9857C37.9843 77.7892 34.6899 80.7836 30.7969 80.8518C27.0312 80.9184 24.3505 77.9544 22.7517 74.8478C21.641 72.6884 20.9166 70.3411 20.3983 67.9756C19.7619 65.0812 19.4437 62.1201 19.3255 59.1621C19.0451 52.105 19.8786 45.0009 21.4909 38.1347C23.0215 31.6186 25.2779 25.1767 28.642 19.3697C29.3179 18.2029 30.0422 17.0648 30.8226 15.9662C31.0348 15.6677 30.5423 15.3828 30.3317 15.6798C26.6069 20.9276 24.0716 27.0103 22.232 33.1491C20.1119 40.2274 18.883 47.6286 18.7223 55.0191C18.595 60.8821 19.0678 67.0072 21.1288 72.5444C22.4487 76.0919 24.7157 80.0198 28.6041 81.1351C32.2759 82.1883 35.8734 80.1638 38.5087 77.7467C42.5017 74.0826 45.2885 69.1318 47.4524 64.225C50.315 57.7361 52.1804 50.8033 53.2245 43.7962C54.2171 37.127 54.502 30.2638 53.4958 23.5764C53.0972 20.9306 52.4896 18.2953 51.5061 15.8025C50.7257 13.8234 49.7088 11.8974 48.2632 10.3184C47.0842 9.0303 45.587 8.00287 43.8701 7.60129C41.0894 6.9512 38.3086 8.0256 36.0659 9.64251C34.6535 10.6608 33.4033 11.8853 32.2668 13.2006C32.0289 13.4764 32.429 13.8795 32.6684 13.6022V13.5992Z" fill="black"/>
<path d="M52.5637 9.82641C53.4866 10.0022 54.4094 10.178 55.3338 10.3538C56.8068 10.6341 58.2812 10.916 59.7542 11.1963C60.0951 11.2615 60.4361 11.3266 60.7755 11.3918C61.1332 11.46 61.2862 10.9129 60.9271 10.8432C60.0042 10.6674 59.0813 10.4917 58.157 10.3159C56.684 10.0355 55.2096 9.75367 53.7366 9.47333C53.3956 9.40817 53.0547 9.343 52.7152 9.27784C52.3576 9.20965 52.2046 9.7567 52.5637 9.82641Z" fill="black"/>
<path d="M54.5246 13.9538C55.5581 14.1508 56.59 14.3478 57.6235 14.5448C59.2677 14.8585 60.9119 15.1722 62.5561 15.4859C62.9304 15.5571 63.3062 15.6283 63.6805 15.6996C64.0548 15.7708 64.1912 15.2207 63.8321 15.151C62.7986 14.954 61.7666 14.757 60.7331 14.56L55.8005 13.6189C55.4262 13.5477 55.0504 13.4765 54.6761 13.4053C54.3018 13.3341 54.1654 13.8841 54.5246 13.9538Z" fill="black"/>
<path d="M56.1477 18.3909C57.21 18.5939 58.2722 18.7955 59.336 18.9985C61.0227 19.3198 62.7078 19.6411 64.3944 19.9623C64.7823 20.0366 65.1703 20.1108 65.5582 20.1836C65.9158 20.2518 66.0689 19.7047 65.7097 19.635C64.6475 19.4319 63.5852 19.2304 62.5214 19.0273C60.8348 18.7061 59.1497 18.3848 57.463 18.0635C57.0751 17.9893 56.6872 17.915 56.2992 17.8423C55.9416 17.7741 55.7885 18.3212 56.1477 18.3909Z" fill="black"/>
<path d="M57.3342 23.2707C58.3965 23.4738 59.4588 23.6754 60.5226 23.8784C62.2092 24.1997 63.8943 24.5209 65.5809 24.8422C65.9688 24.9164 66.3568 24.9907 66.7447 25.0634C67.1024 25.1316 67.2554 24.5846 66.8963 24.5149C65.834 24.3118 64.7717 24.1103 63.7079 23.9072C62.0213 23.5859 60.3362 23.2647 58.6496 22.9434C58.2616 22.8692 57.8737 22.7949 57.4857 22.7222C57.1281 22.654 56.9751 23.201 57.3342 23.2707Z" fill="black"/>
<path d="M57.7344 28.3289C58.7966 28.5319 59.8589 28.7335 60.9227 28.9365C62.6093 29.2578 64.2944 29.579 65.9811 29.9003C66.369 29.9746 66.7569 30.0488 67.1449 30.1215C67.5025 30.1897 67.6556 29.6427 67.2964 29.573C66.2341 29.3699 65.1718 29.1684 64.108 28.9653C62.4214 28.6441 60.7363 28.3228 59.0497 28.0015C58.6618 27.9273 58.2738 27.853 57.8859 27.7803C57.5283 27.7121 57.3752 28.2591 57.7344 28.3289Z" fill="black"/>
<path d="M58.0691 33.6389C59.1314 33.842 60.1936 34.0435 61.2574 34.2466C62.9441 34.5678 64.6292 34.8891 66.3158 35.2104C66.7037 35.2846 67.0916 35.3589 67.4796 35.4316C67.8372 35.4998 67.9903 34.9527 67.6311 34.883C66.5688 34.68 65.5066 34.4784 64.4428 34.2754C62.7561 33.9541 61.071 33.6328 59.3844 33.3116C58.9965 33.2373 58.6085 33.1631 58.2206 33.0903C57.863 33.0222 57.7099 33.5692 58.0691 33.6389Z" fill="black"/>
<path d="M57.3403 39.3943C58.5072 39.617 59.674 39.8398 60.8424 40.0626C62.6941 40.4156 64.5459 40.7687 66.3977 41.1218C66.822 41.2021 67.2464 41.284 67.6722 41.3643C68.0298 41.4325 68.1829 40.8854 67.8237 40.8157C66.6569 40.5929 65.49 40.3702 64.3217 40.1474C62.4699 39.7943 60.6181 39.4413 58.7663 39.0882C58.342 39.0079 57.9177 38.926 57.4918 38.8457C57.1342 38.7775 56.9812 39.3246 57.3403 39.3943Z" fill="black"/>
<path d="M56.7038 45.1667C57.8707 45.3895 59.0375 45.6123 60.2059 45.835C62.0577 46.1881 63.9095 46.5412 65.7613 46.8943C66.1856 46.9746 66.6099 47.0564 67.0357 47.1367C67.3933 47.2049 67.5464 46.6579 67.1872 46.5882C66.0204 46.3654 64.8536 46.1426 63.6852 45.9199C61.8334 45.5668 59.9816 45.2137 58.1298 44.8606C57.7055 44.7803 57.2812 44.6985 56.8554 44.6182C56.4977 44.55 56.3447 45.097 56.7038 45.1667Z" fill="black"/>
<path d="M55.602 50.8494C56.7689 51.0721 57.9357 51.2949 59.1041 51.5176C60.9559 51.8707 62.8077 52.2238 64.6595 52.5769C65.0838 52.6572 65.5081 52.739 65.9339 52.8194C66.2915 52.8875 66.4446 52.3405 66.0854 52.2708C64.9186 52.048 63.7517 51.8253 62.5834 51.6025C60.7316 51.2494 58.8798 50.8963 57.028 50.5433C56.6037 50.4629 56.1794 50.3811 55.7536 50.3008C55.3959 50.2326 55.2429 50.7797 55.602 50.8494Z" fill="black"/>
<path d="M54.5536 56.238C55.7022 56.4608 56.8494 56.6836 57.998 56.9063C59.8195 57.2594 61.641 57.6125 63.4625 57.9656C63.8807 58.0459 64.2975 58.1277 64.7157 58.208C65.0673 58.2762 65.2173 57.7292 64.8642 57.6595C63.7156 57.4367 62.5684 57.2139 61.4198 56.9912C59.5983 56.6381 57.7768 56.285 55.9553 55.9319C55.537 55.8516 55.1203 55.7698 54.7021 55.6895C54.3505 55.6213 54.2005 56.1683 54.5536 56.238Z" fill="black"/>
<path d="M51.0696 65.0803C52.2364 65.3031 53.4032 65.5258 54.5716 65.7486C56.4234 66.1017 58.2752 66.4548 60.127 66.8078C60.5513 66.8882 60.9756 66.97 61.4014 67.0503C61.7591 67.1185 61.9121 66.5715 61.553 66.5017C60.3861 66.279 59.2193 66.0562 58.0509 65.8335C56.1991 65.4804 54.3473 65.1273 52.4955 64.7742C52.0712 64.6939 51.6469 64.6121 51.2211 64.5317C50.8635 64.4636 50.7104 65.0106 51.0696 65.0803Z" fill="black"/>
<path d="M48.6648 69.7927C49.7801 70.0049 50.8969 70.2185 52.0122 70.4307C53.7913 70.7701 55.5704 71.1096 57.3494 71.449C57.7586 71.5278 58.1677 71.6051 58.5784 71.6839C58.936 71.7521 59.0891 71.2051 58.7299 71.1353C57.6146 70.9232 56.4978 70.7095 55.3825 70.4974C53.6034 70.1579 51.8243 69.8185 50.0453 69.479C49.6361 69.4002 49.227 69.323 48.8163 69.2442C48.4587 69.176 48.3056 69.723 48.6648 69.7927Z" fill="black"/>
<path d="M46.1369 74.4817C47.2007 74.6847 48.2645 74.8878 49.3268 75.0893C51.0149 75.4106 52.7016 75.7334 54.3897 76.0546C54.7776 76.1289 55.1656 76.2032 55.5535 76.2759C55.9111 76.3441 56.0642 75.797 55.7051 75.7273C54.6413 75.5243 53.5775 75.3212 52.5152 75.1197C50.827 74.7984 49.1404 74.4756 47.4523 74.1544C47.0644 74.0801 46.6764 74.0059 46.2885 73.9331C45.9308 73.8649 45.7778 74.412 46.1369 74.4817Z" fill="black"/>
<path d="M42.9426 78.4853C43.9412 78.6763 44.9414 78.8657 45.94 79.0566C47.5251 79.3582 49.1102 79.6613 50.6953 79.9628C51.0605 80.0325 51.4257 80.1023 51.7909 80.172C52.1561 80.2417 52.3016 79.6931 51.9424 79.6234C50.9438 79.4325 49.9436 79.243 48.945 79.0521C47.3599 78.7505 45.7748 78.4475 44.1897 78.1459C43.8245 78.0762 43.4593 78.0065 43.0941 77.9368C42.7289 77.8671 42.5834 78.4156 42.9426 78.4853Z" fill="black"/>
<path d="M39.98 81.7656C40.9317 81.9475 41.8848 82.1293 42.8365 82.3097C44.3413 82.5961 45.8445 82.884 47.3493 83.1704C47.6993 83.2371 48.0479 83.3037 48.3979 83.3704C48.7556 83.4386 48.9086 82.8916 48.5495 82.8219C47.5978 82.64 46.6446 82.4582 45.693 82.2778C44.1882 81.9914 42.6849 81.7035 41.1802 81.4171C40.8301 81.3504 40.4816 81.2837 40.1315 81.2171C39.7815 81.1504 39.6209 81.6959 39.98 81.7656Z" fill="black"/>
<path d="M36.2219 84.1724C37.1736 84.3542 38.1268 84.5361 39.0784 84.7164C40.5832 85.0028 42.0865 85.2907 43.5912 85.5771C43.9413 85.6438 44.2898 85.7105 44.6399 85.7772C44.9899 85.8438 45.1506 85.2983 44.7914 85.2286C43.8398 85.0467 42.8866 84.8649 41.9349 84.6846C40.4302 84.3982 38.9269 84.1102 37.4221 83.8238C37.0721 83.7572 36.7235 83.6905 36.3735 83.6238C36.0234 83.5571 35.8628 84.1027 36.2219 84.1724Z" fill="black"/>
<path d="M45.6838 76.4879C43.3168 79.8793 43.6138 84.68 45.6838 88.0987C46.9279 90.1536 48.4191 92.1402 50.1997 93.7632C51.2922 94.7603 52.5182 95.6029 53.5638 96.6515C55.4262 98.5185 58.3206 95.6256 56.4567 93.7586C55.4823 92.7827 54.3533 91.9887 53.3213 91.0764C51.809 89.7383 50.7406 88.3896 49.6859 86.7743C48.9676 85.6741 48.4312 84.6406 48.1645 83.345C48.1099 83.0767 48.0842 82.6251 48.0963 82.122C48.1024 81.8523 48.1206 81.581 48.1539 81.3143C48.1084 81.6735 48.1781 81.2204 48.2009 81.1098C48.2903 80.6703 48.413 80.2384 48.5646 79.8171C48.613 79.6808 48.6676 79.5459 48.7206 79.411C48.5009 79.9717 48.7131 79.4489 48.7722 79.3307C48.904 79.0655 49.0449 78.7973 49.2147 78.5548C49.8481 77.6486 49.3798 76.2818 48.4812 75.7559C47.4614 75.1589 46.3157 75.5817 45.6823 76.4894L45.6838 76.4879Z" fill="black"/>
<path d="M49.5753 96.6773C47.4947 97.0319 43.1941 98.4306 39.2192 103.781C35.2535 109.119 39.1131 111.42 41.9105 111.551C45.108 111.701 55.9172 110.779 62.2985 102.527C63.0925 101.501 63.1137 100.701 62.0742 98.8731C61.1286 97.2123 58.9616 95.1226 58.9616 95.1226" fill="white"/>
<path d="M49.4754 96.3123C48.0191 96.5623 46.6128 97.1018 45.3172 97.8034C43.2078 98.946 41.3696 100.561 39.833 102.395C38.9268 103.477 38.063 104.627 37.5402 105.95C37.1887 106.84 37.0205 107.834 37.2538 108.776C37.6387 110.328 39.0571 111.315 40.5286 111.713C41.653 112.018 42.8501 111.969 44.0018 111.892C45.5566 111.787 47.1053 111.552 48.6237 111.205C50.5301 110.771 52.3925 110.148 54.1715 109.332C56.1643 108.419 58.0342 107.244 59.6981 105.814C60.5922 105.045 61.4196 104.201 62.1697 103.291C62.494 102.897 62.8425 102.497 63.0486 102.024C63.2411 101.583 63.2881 101.13 63.2138 100.654C63.1229 100.07 62.8516 99.5127 62.5758 98.9975C62.3031 98.4868 61.9848 98.0065 61.6333 97.5458C61.0105 96.729 60.324 95.9622 59.6057 95.2288C59.4814 95.103 59.3572 94.9772 59.2299 94.853C58.8783 94.5135 58.3419 95.0499 58.6934 95.3894C59.1268 95.8076 59.542 96.2486 59.9451 96.6972C60.674 97.5079 61.3666 98.3565 61.8879 99.3173C62.147 99.7961 62.4031 100.308 62.4834 100.854C62.5304 101.174 62.4652 101.521 62.3122 101.816C62.0803 102.257 61.7348 102.64 61.4151 103.016C61.0377 103.459 60.6422 103.883 60.23 104.292C58.701 105.805 56.9386 107.059 55.0383 108.063C53.3411 108.958 51.5469 109.645 49.6951 110.154C48.8692 110.381 48.0327 110.572 47.1902 110.728C46.4128 110.872 45.7733 110.964 45.0292 111.043C43.9639 111.155 42.8713 111.236 41.8 111.163C41.7197 111.157 41.6378 111.151 41.5575 111.142C41.5408 111.14 41.4348 111.127 41.4772 111.133C41.5075 111.137 41.3893 111.119 41.3635 111.116C41.1968 111.089 41.0302 111.055 40.8665 111.014C40.6937 110.972 40.5225 110.922 40.3543 110.863C40.2725 110.834 40.1906 110.804 40.1103 110.772C40.0891 110.763 40.0679 110.755 40.0467 110.746C40.0527 110.749 40.0982 110.767 40.0573 110.751C40.0088 110.73 39.9618 110.708 39.9148 110.687C39.7587 110.614 39.6057 110.533 39.4572 110.445C39.3829 110.401 39.3117 110.354 39.2405 110.305C39.2026 110.28 39.1647 110.254 39.1283 110.226C39.1147 110.216 39.1011 110.207 39.0874 110.196C38.9995 110.131 39.1177 110.222 39.0692 110.183C38.9313 110.072 38.801 109.955 38.6798 109.826C38.6207 109.764 38.5661 109.701 38.5116 109.635C38.501 109.622 38.4904 109.61 38.4798 109.596C38.5207 109.648 38.4843 109.602 38.4767 109.592C38.4464 109.551 38.4161 109.508 38.3888 109.467C38.2888 109.32 38.204 109.164 38.1297 109.002C38.1297 108.999 38.1055 108.946 38.1206 108.984C38.1373 109.025 38.11 108.957 38.107 108.948C38.0933 108.908 38.0782 108.87 38.0646 108.831C38.0327 108.74 38.007 108.647 37.9842 108.555C37.9297 108.332 37.9206 108.255 37.91 108.038C37.8994 107.822 37.9069 107.611 37.9327 107.4C37.9812 106.987 38.1373 106.467 38.3176 106.044C38.5646 105.461 38.8935 104.911 39.2511 104.389C40.6574 102.342 42.4819 100.498 44.564 99.1369C45.9324 98.2429 47.3357 97.5852 48.9147 97.2003C49.1677 97.1381 49.4238 97.0851 49.6799 97.0412C49.8815 97.0063 49.9951 96.7578 49.9451 96.5744C49.886 96.3608 49.6815 96.2759 49.4784 96.3092L49.4754 96.3123Z" fill="black"/>
<path d="M50.4059 93.6787C50.4059 93.6787 48.7481 94.1485 49.4239 96.2715C49.4239 96.2715 50.0543 97.6732 51.8455 97.5081" fill="white"/>
<path d="M50.3043 93.3134C49.6345 93.5058 49.095 94.115 48.942 94.7848C48.8677 95.1106 48.8707 95.4394 48.9177 95.7683C48.9526 96.0107 48.998 96.2729 49.1102 96.4926C49.2617 96.7912 49.4996 97.0639 49.7588 97.273C50.3513 97.7519 51.0878 97.9489 51.8439 97.8868C52.0485 97.8701 52.2228 97.7246 52.2228 97.5079C52.2228 97.3155 52.0485 97.1124 51.8439 97.1291C51.2848 97.1761 50.7877 97.0821 50.3452 96.773C50.321 96.7563 50.2967 96.7381 50.2725 96.7199C50.2846 96.729 50.3225 96.7609 50.2679 96.7154C50.2346 96.6866 50.2013 96.6578 50.1679 96.629C50.0952 96.5623 50.027 96.4896 49.9633 96.4153C49.9376 96.385 49.8921 96.3229 49.9436 96.3926C49.9239 96.3653 49.9042 96.3381 49.8845 96.3108C49.8527 96.2653 49.8239 96.2183 49.7951 96.1698C49.7815 96.1456 49.7648 96.1198 49.7542 96.0926C49.7527 96.088 49.7497 96.085 49.7482 96.0804C49.7815 96.1683 49.7527 96.0638 49.7512 96.0532C49.7421 95.9971 49.7209 95.9395 49.7072 95.8834C49.6466 95.6289 49.6193 95.3137 49.6527 95.0894C49.6603 95.0364 49.6966 94.8969 49.7224 94.8106C49.7285 94.7878 49.7375 94.7666 49.7466 94.7454C49.7209 94.8121 49.7466 94.7454 49.7557 94.7272C49.78 94.6787 49.8042 94.6317 49.8315 94.5863C49.8557 94.5469 49.8815 94.509 49.9073 94.4726C49.9482 94.415 49.9103 94.4696 49.9012 94.4802C49.9133 94.4651 49.9255 94.4514 49.9376 94.4363C49.9982 94.3696 50.0618 94.3105 50.1285 94.2514C50.1452 94.2377 50.1861 94.209 50.1088 94.265C50.127 94.2514 50.1467 94.2362 50.1664 94.2241C50.1967 94.2044 50.227 94.1832 50.2573 94.165C50.3104 94.1332 50.3649 94.1044 50.4195 94.0771C50.4801 94.0468 50.4755 94.0604 50.4073 94.0817C50.424 94.0771 50.4407 94.068 50.4574 94.062C50.474 94.0559 50.4892 94.0498 50.5058 94.0453C50.9741 93.9104 50.7741 93.18 50.3043 93.3149V93.3134Z" fill="black"/>
<path d="M32.2015 34.8253C32.0454 35.7239 31.5862 38.3561 29.7875 40.2397C29.3223 40.7262 28.0827 42.0248 26.4385 41.9142C24.9383 41.8127 24.0245 40.6004 23.7744 40.2579C22.0105 37.8409 22.6258 34.0479 22.7758 33.1205C22.9319 32.1567 23.4486 28.9713 25.5535 27.1529C25.9217 26.8347 26.9916 25.9376 28.4024 26.0073C30.0345 26.0876 31.0468 27.412 31.415 27.9818C32.9728 30.3897 32.3833 33.7736 32.2 34.8268L32.2015 34.8253Z" fill="white"/>
<path d="M31.8362 34.7255C31.6316 35.8969 31.3286 37.0561 30.7936 38.1245C30.192 39.3231 29.2661 40.4915 28.0841 41.1431C27.4249 41.5068 26.6657 41.6523 25.9323 41.4447C25.317 41.2689 24.8139 40.89 24.3942 40.4248C24.3245 40.3475 24.2563 40.2657 24.1911 40.1854C24.1259 40.1051 24.2169 40.2233 24.1593 40.1445C24.129 40.1035 24.1002 40.0641 24.0714 40.0232C23.8532 39.7156 23.6653 39.3822 23.5168 39.0352C23.2273 38.3578 23.0652 37.6183 22.9894 36.8864C22.9197 36.2045 22.9152 35.5165 22.9576 34.8315C22.9743 34.5588 22.9985 34.286 23.0303 34.0147C23.0364 33.9587 23.044 33.9026 23.05 33.8465C23.0546 33.8147 23.0576 33.7829 23.0622 33.7511C23.0758 33.6511 23.0546 33.8071 23.0622 33.7465C23.0758 33.645 23.0909 33.5435 23.1061 33.4434C23.2546 32.4872 23.4531 31.5401 23.7744 30.6264C24.2351 29.3231 24.9488 28.1245 26.0323 27.2455C26.0368 27.241 26.1247 27.1743 26.0641 27.2198C26.0884 27.2001 26.1141 27.1819 26.1384 27.1637C26.199 27.1198 26.2596 27.0773 26.3202 27.0349C26.4612 26.941 26.6051 26.8531 26.7551 26.7743C27.0764 26.6045 27.4204 26.4833 27.778 26.4197C28.5221 26.2878 29.2661 26.4939 29.8844 26.9106C30.342 27.2198 30.7406 27.6638 31.0134 28.0638C31.4392 28.6882 31.7135 29.3928 31.8786 30.1293C32.0438 30.8658 32.0938 31.6189 32.0802 32.3706C32.0741 32.707 32.0529 33.0434 32.0226 33.3783C32.009 33.5223 31.9938 33.6677 31.9756 33.8117C31.9726 33.839 31.9514 34.0011 31.959 33.9375C31.9499 34.0072 31.9393 34.0769 31.9286 34.1466C31.8999 34.3406 31.8665 34.533 31.8332 34.7255C31.7998 34.9179 31.8877 35.1331 32.0984 35.1922C32.2802 35.2422 32.5287 35.1301 32.5651 34.927C33.0349 32.2251 33.0864 29.0382 31.0558 26.9213C30.5254 26.3681 29.8586 25.9226 29.11 25.7332C28.2281 25.5104 27.3158 25.6574 26.5066 26.0514C25.1837 26.6939 24.1881 27.9123 23.5501 29.211C22.994 30.343 22.653 31.5629 22.4454 32.8024C22.2681 33.8541 22.1484 34.9149 22.1741 35.9832C22.2105 37.5441 22.5242 39.1958 23.4683 40.4778C24.3396 41.6614 25.6535 42.4842 27.1704 42.2554C28.6872 42.0266 29.8495 40.884 30.6966 39.7368C31.6044 38.5079 32.1469 37.0243 32.4515 35.5362C32.4924 35.3331 32.5303 35.1301 32.5651 34.9255C32.6 34.7209 32.5106 34.5179 32.2999 34.4588C32.1181 34.4087 31.8695 34.5209 31.8332 34.7239L31.8362 34.7255Z" fill="black"/>
<path d="M29.1859 34.3962C29.0571 35.1706 28.6783 37.4391 27.4902 39.1136C27.1841 39.5455 26.3643 40.7017 25.3429 40.6638C24.411 40.6305 23.8836 39.6243 23.7397 39.3409C22.7259 37.3345 23.2426 34.0674 23.3684 33.2688C23.5002 32.4383 23.9336 29.694 25.3111 28.0649C25.5521 27.7801 26.2506 26.9739 27.128 26.9845C28.1434 26.9966 28.7268 28.0922 28.9374 28.5681C29.8239 30.5729 29.3375 33.49 29.1859 34.3962Z" fill="black"/>
<path d="M28.8207 34.2964C28.657 35.2723 28.4373 36.2376 28.0842 37.165C27.6993 38.1758 27.1432 39.1744 26.3431 39.8639C25.9748 40.1806 25.505 40.4003 25.0398 40.2215C24.6564 40.0745 24.3852 39.7169 24.1836 39.3684C23.6654 38.4728 23.532 37.3953 23.5078 36.3785C23.4941 35.8239 23.5184 35.2708 23.5654 34.7177C23.5851 34.4934 23.6093 34.2691 23.6366 34.0463C23.6426 33.9994 23.6487 33.9524 23.6548 33.9039C23.6563 33.8887 23.6654 33.8281 23.6548 33.9039C23.6578 33.8827 23.6608 33.8615 23.6639 33.8403C23.676 33.7554 23.6881 33.6705 23.7017 33.5857C23.8199 32.8113 23.9639 32.0415 24.1761 31.2868C24.4761 30.2185 24.8974 29.1244 25.6308 28.2743C25.9233 27.9348 26.2749 27.5863 26.7083 27.4378C27.2083 27.265 27.6433 27.4317 27.9918 27.7878C28.6798 28.491 28.9495 29.6032 29.0374 30.5792C29.092 31.1838 29.0889 31.7915 29.051 32.3976C29.0207 32.8916 28.9647 33.3856 28.898 33.8206C28.8737 33.9797 28.848 34.1373 28.8222 34.2964C28.7889 34.4979 28.8753 34.704 29.0874 34.7631C29.2693 34.8131 29.5193 34.701 29.5541 34.4979C29.7284 33.4553 29.8542 32.4022 29.836 31.3429C29.8163 30.1291 29.6284 28.8304 28.9541 27.7924C28.6404 27.309 28.2176 26.8801 27.6599 26.6922C27.0144 26.4755 26.3218 26.6952 25.793 27.0877C24.8246 27.8075 24.22 28.9153 23.7972 30.0215C23.429 30.9838 23.1971 31.993 23.0319 33.0083C22.891 33.8751 22.7834 34.7464 22.7561 35.6239C22.7167 36.8937 22.8122 38.2303 23.3502 39.3987C23.7927 40.3594 24.6776 41.2747 25.8309 40.9898C26.4173 40.8459 26.9113 40.4246 27.2993 39.9806C27.6872 39.5366 27.9963 39.0835 28.2646 38.5895C28.8662 37.4817 29.2299 36.2527 29.4632 35.0192C29.4966 34.8465 29.5254 34.6722 29.5541 34.4994C29.5875 34.2979 29.5011 34.0918 29.289 34.0327C29.1071 33.9827 28.8571 34.0948 28.8222 34.2979L28.8207 34.2964Z" fill="black"/>
<path d="M30.0087 30.2852L25.8232 33.0583L30.0618 35.1768L30.0087 30.2852Z" fill="white"/>
<path d="M43.6759 36.7229C43.5138 37.6261 43.0395 40.2704 40.927 42.1192C40.3815 42.5965 38.9237 43.871 36.937 43.7103C35.1246 43.5634 33.9866 42.3116 33.6744 41.9586C31.4756 39.4658 32.1045 35.6531 32.2575 34.7211C32.4167 33.7528 32.944 30.5508 35.4292 28.7778C35.8642 28.4671 37.128 27.5928 38.8298 27.7064C40.7997 27.8367 42.0605 29.2036 42.5227 29.7901C44.473 32.2677 43.8638 35.6682 43.6744 36.726L43.6759 36.7229Z" fill="white"/>
<path d="M43.3107 36.623C43.0894 37.8581 42.7303 39.0598 42.0802 40.1417C41.6619 40.8388 41.1376 41.4419 40.5208 41.9708C40.0571 42.3694 39.5283 42.7406 38.9176 43.0013C38.1235 43.3392 37.234 43.4438 36.3899 43.2407C35.6898 43.0725 35.0291 42.7043 34.5139 42.2587C33.444 41.3313 32.8288 40.0523 32.5772 38.6718C32.4514 37.9854 32.4181 37.2701 32.4423 36.5655C32.453 36.273 32.4726 35.982 32.503 35.6911C32.5166 35.5638 32.5318 35.438 32.5469 35.3122C32.556 35.241 32.5469 35.3168 32.5454 35.3274C32.5484 35.3001 32.553 35.2728 32.556 35.2471C32.5636 35.1895 32.5727 35.1319 32.5818 35.0743C32.7348 34.0833 32.953 33.1043 33.3273 32.1724C33.8592 30.851 34.7442 29.6432 35.9717 28.8658C36.599 28.4688 37.3143 28.1733 38.0583 28.0975C38.9494 28.0066 39.8329 28.1899 40.6133 28.6279C41.8286 29.3098 42.7409 30.4812 43.1712 31.8178C43.4152 32.5755 43.5228 33.3635 43.5349 34.1575C43.541 34.5121 43.5274 34.8667 43.5001 35.2213C43.488 35.3683 43.4743 35.5138 43.4576 35.6593C43.4486 35.732 43.441 35.8062 43.4304 35.879C43.4395 35.8062 43.4152 35.9866 43.4107 36.0154C43.3804 36.2199 43.3455 36.423 43.3091 36.6246C43.2728 36.8261 43.3637 37.0322 43.5743 37.0913C43.7577 37.1413 44.0047 37.0292 44.0411 36.8261C44.282 35.482 44.3851 34.1272 44.1744 32.7725C43.9259 31.1783 43.1712 29.6765 41.9286 28.6294C41.2664 28.0717 40.4936 27.6399 39.6465 27.4459C38.6675 27.2216 37.634 27.3019 36.6975 27.6626C35.2125 28.2339 34.0017 29.3492 33.2046 30.7161C32.5439 31.8511 32.1499 33.1271 31.9286 34.4166C31.7407 35.5123 31.6286 36.62 31.7059 37.7323C31.8226 39.4144 32.3454 41.0661 33.4986 42.3284C34.5836 43.515 36.1611 44.2651 37.7901 44.0757C39.4192 43.8863 40.8012 42.924 41.8423 41.7481C42.9121 40.5388 43.5774 39.0279 43.9198 37.4595C43.9653 37.2504 44.0047 37.0382 44.0426 36.8276C44.0805 36.617 43.988 36.42 43.7774 36.3609C43.594 36.3109 43.347 36.423 43.3107 36.6261V36.623Z" fill="black"/>
<path d="M39.7285 36.1135C39.5967 36.8879 39.2087 39.1549 37.8237 40.8006C37.4661 41.2249 36.5099 42.3599 35.2733 42.2918C34.1443 42.2281 33.4745 41.2022 33.2927 40.9128C32.0031 38.8655 32.5259 35.5998 32.6547 34.8012C32.7881 33.9708 33.2275 31.228 34.8429 29.6338C35.1248 29.3549 35.9461 28.567 37.0084 28.6048C38.2359 28.6488 38.9784 29.7686 39.2481 30.2521C40.3847 32.2948 39.8861 35.2089 39.7316 36.1151L39.7285 36.1135Z" fill="black"/>
<path d="M39.3632 36.0137C39.1965 36.9926 38.9632 37.9685 38.557 38.8778C38.1115 39.8764 37.4372 40.919 36.5037 41.5327C36.0233 41.8479 35.4672 42.0161 34.9035 41.8403C34.6686 41.7676 34.4337 41.6252 34.2609 41.4766C34.1685 41.3979 34.0806 41.313 33.9988 41.2236C33.9624 41.1857 33.9291 41.1463 33.8942 41.1054C33.8775 41.0857 33.8624 41.0675 33.8472 41.0478C33.773 40.9569 33.8866 41.1039 33.82 41.0145C33.1699 40.1492 32.9153 39.0642 32.8425 38.0004C32.8031 37.4336 32.8107 36.8638 32.8516 36.2971C32.8683 36.0576 32.891 35.8182 32.9198 35.5788C32.9259 35.5333 32.9304 35.4863 32.9365 35.4409C32.9395 35.4166 32.9562 35.2939 32.9441 35.3818C32.9562 35.2939 32.9683 35.206 32.9819 35.1196C33.1032 34.3241 33.2593 33.5345 33.5017 32.7647C33.8457 31.6737 34.3625 30.6053 35.202 29.8067C35.5611 29.4642 35.9748 29.1687 36.4779 29.0384C37.031 28.8944 37.5917 29.0354 38.0388 29.3748C38.8919 30.0249 39.3147 31.1327 39.4905 32.1934C39.5905 32.8041 39.6057 33.43 39.5814 34.0483C39.5708 34.3271 39.5496 34.6074 39.5208 34.8847C39.5087 35.0045 39.4951 35.1242 39.4799 35.2439C39.4663 35.3515 39.4632 35.3742 39.442 35.5151C39.4178 35.6803 39.389 35.8455 39.3617 36.0107C39.3269 36.2122 39.4147 36.4183 39.6269 36.4774C39.8087 36.5274 40.0588 36.4153 40.0936 36.2122C40.4816 33.9407 40.6346 31.2433 39.0859 29.3475C38.6919 28.8656 38.1661 28.4641 37.5569 28.3019C36.8386 28.1125 36.0885 28.2807 35.4611 28.6565C34.4034 29.2884 33.6608 30.3674 33.1789 31.4782C32.7531 32.4586 32.4849 33.4906 32.3106 34.5438C32.1636 35.4348 32.0591 36.3319 32.0591 37.2366C32.0591 38.555 32.25 39.9643 32.9623 41.1024C33.5896 42.1025 34.6201 42.8572 35.8536 42.6238C37.0871 42.3904 38.0009 41.31 38.6298 40.3371C39.3284 39.2566 39.7451 38.0004 39.9936 36.7456C40.0285 36.5698 40.0603 36.3925 40.0906 36.2152C40.1255 36.0137 40.0376 35.8076 39.8254 35.7485C39.6436 35.6985 39.3935 35.8106 39.3587 36.0137H39.3632Z" fill="black"/>
<path d="M40.6558 31.7705L36.4673 34.38L40.7467 36.4348L40.6558 31.7705Z" fill="white"/>
<path d="M27.0371 47.5641C27.5675 47.9081 28.2115 48.1233 28.8192 48.2764C30.3058 48.6491 31.8818 48.5809 33.3426 48.1324C34.5261 47.7687 35.6263 47.1731 36.6249 46.4443C36.7901 46.323 36.8719 46.1154 36.7613 45.926C36.6658 45.7638 36.4097 45.6684 36.243 45.7896C34.7307 46.8943 32.9638 47.6929 31.0786 47.7581C30.721 47.7702 30.3634 47.7581 30.0088 47.7232C29.839 47.7066 29.8133 47.702 29.6466 47.6747C29.492 47.649 29.339 47.6202 29.1874 47.5853C28.9404 47.5293 28.698 47.4611 28.4585 47.3808C28.357 47.3459 28.2555 47.3095 28.1555 47.2701C28.1176 47.255 28.0797 47.2398 28.0418 47.2247C28.0191 47.2156 27.9433 47.1807 28.0479 47.2277C28.0206 47.2156 27.9948 47.205 27.9676 47.1928C27.7812 47.1095 27.5917 47.0216 27.4205 46.911C27.0098 46.6458 26.6295 47.3004 27.0386 47.5656L27.0371 47.5641Z" fill="black"/>
<path d="M35.8277 45.7403C36.1444 46.0479 36.4596 46.357 36.7764 46.6646C36.8203 46.7071 36.8642 46.751 36.9097 46.7935C37.0522 46.9314 37.3052 46.945 37.4462 46.7935C37.5871 46.6419 37.5977 46.4055 37.4462 46.257C37.1294 45.9494 36.8142 45.6402 36.4975 45.3326C36.4536 45.2902 36.4096 45.2462 36.3642 45.2038C36.2217 45.0659 35.9687 45.0523 35.8277 45.2038C35.6868 45.3554 35.6762 45.5918 35.8277 45.7403Z" fill="black"/>
<path d="M36.572 25.3435C36.572 25.3435 36.5872 25.3359 36.5932 25.3329C36.6902 25.289 36.5038 25.3662 36.5857 25.3359C36.6811 25.2996 36.7751 25.2632 36.8721 25.2314C37.2085 25.1208 37.557 25.042 37.9071 24.9874C37.9313 24.9844 38.0859 24.9632 38.0071 24.9723C38.0662 24.9647 38.1238 24.9586 38.1829 24.9526C38.3208 24.9389 38.4587 24.9283 38.5966 24.9207C38.8921 24.9056 39.1891 24.9071 39.4846 24.9238C40.1695 24.9616 40.8409 25.0889 41.5031 25.2875C42.4896 25.5814 43.417 26.0345 44.2868 26.5816C44.7005 26.8422 45.0809 26.1861 44.6687 25.9269C42.3684 24.4798 39.4422 23.6463 36.7645 24.4722C36.569 24.5328 36.3735 24.601 36.1886 24.6904C36.0038 24.7798 35.9553 25.042 36.0523 25.2087C36.1629 25.3966 36.3856 25.4344 36.5705 25.345L36.572 25.3435Z" fill="black"/>
<path d="M31.2029 23.9953C30.865 23.6816 30.4361 23.4588 30.0148 23.283C29.0753 22.8936 28.0388 22.8269 27.0447 23.0133C26.2143 23.1679 25.4248 23.5103 24.7004 23.9362C24.2806 24.1832 24.661 24.8378 25.0823 24.5908C26.1355 23.9725 27.322 23.5725 28.5555 23.6892C28.895 23.721 29.3269 23.824 29.6921 23.9665C29.7072 23.9725 29.8315 24.0241 29.7527 23.9892C29.7906 24.0059 29.8285 24.0225 29.8663 24.0392C29.936 24.071 30.0057 24.1059 30.0739 24.1423C30.1906 24.2044 30.3058 24.2711 30.4164 24.3438C30.4634 24.3741 30.5089 24.4059 30.5528 24.4393C30.571 24.4529 30.5892 24.4665 30.6074 24.4802C30.6528 24.512 30.5225 24.409 30.5846 24.4635C30.6119 24.4862 30.6392 24.5075 30.6665 24.5317C31.0226 24.8636 31.5605 24.3286 31.2029 23.9953Z" fill="black"/>
<path d="M54.2078 92.1357C54.2745 92.0902 54.3442 92.0508 54.4139 92.0114C54.573 91.9235 54.7851 91.822 54.8988 91.7765C55.4519 91.5583 56.0308 91.4295 56.6279 91.4795C57.2916 91.5341 57.9493 91.8751 58.3948 92.366C58.7267 92.7328 58.8418 93.1374 58.813 93.5965C58.8055 93.7071 58.8024 93.7435 58.7676 93.8935C58.7418 94.0087 58.7085 94.1208 58.6706 94.2315C58.6524 94.2845 58.6312 94.3375 58.6115 94.3891C58.5736 94.4876 58.6312 94.3451 58.6054 94.4042C58.5948 94.4285 58.5842 94.4527 58.5736 94.477C58.5281 94.5755 58.4796 94.6709 58.4281 94.7664C58.1948 95.1953 58.8479 95.5771 59.0828 95.1483C59.5935 94.2118 59.8223 93.0389 59.157 92.1099C58.6948 91.4644 57.9523 90.9886 57.1825 90.8052C56.4642 90.6355 55.7035 90.7067 55.0064 90.934C54.6003 91.0658 54.1835 91.2401 53.8259 91.4811C53.4243 91.7523 53.8017 92.4085 54.2078 92.1357Z" fill="black"/>
<path d="M4.40944 49.2755C4.40944 49.2755 1.68327 49.2164 2.54401 52.5456C3.40474 55.8749 6.42187 57.5297 8.85557 56.5114C10.7104 55.7355 11.6651 55.1885 12.2349 53.0366" fill="white"/>
<path d="M4.40942 48.8964C3.82903 48.8857 3.21984 49.11 2.77735 49.4767C1.70901 50.3632 1.93177 51.9771 2.32577 53.1379C2.83948 54.6518 3.88964 56.0323 5.35956 56.7203C6.0036 57.0218 6.70371 57.1961 7.41594 57.187C8.18726 57.1764 8.86767 56.9248 9.56323 56.6157C10.2588 56.3066 10.9271 55.9535 11.4484 55.4049C12.0454 54.776 12.3773 53.9638 12.6001 53.1364C12.7258 52.6651 11.9954 52.4636 11.8696 52.9348C11.7742 53.2894 11.6651 53.644 11.5075 53.9744C11.3802 54.2426 11.2059 54.5305 11.0453 54.7215C10.6634 55.1746 10.2285 55.4519 9.68901 55.7231C9.11013 56.0141 8.49792 56.3035 7.85236 56.399C7.83266 56.402 7.73871 56.4126 7.67507 56.4172C7.60384 56.4233 7.5311 56.4263 7.45988 56.4278C7.30228 56.4323 7.14317 56.4263 6.98557 56.4111C6.72795 56.3869 6.39305 56.3096 6.10665 56.2111C4.83069 55.7732 3.826 54.6957 3.26076 53.4592C2.96223 52.8045 2.74705 52.0559 2.75462 51.3331C2.75765 51.0527 2.78341 50.8845 2.8804 50.5966C2.88798 50.5769 2.89555 50.5572 2.90313 50.5375C2.86979 50.6209 2.90919 50.5269 2.91525 50.5148C2.93798 50.4708 2.96071 50.4269 2.98496 50.3845C3.00921 50.342 3.03648 50.3041 3.06224 50.2647C3.11528 50.1859 3.01072 50.3254 3.06982 50.2541C3.08649 50.2329 3.10468 50.2132 3.12286 50.192C3.15771 50.1526 3.1956 50.1162 3.23348 50.0799C3.25167 50.0632 3.27137 50.0465 3.29107 50.0283C3.35623 49.9692 3.29107 50.0253 3.30319 50.0177C3.38502 49.9602 3.46837 49.9056 3.55777 49.8586C3.59869 49.8374 3.63961 49.8192 3.68204 49.7995C3.5699 49.851 3.70477 49.7919 3.73356 49.7813C3.80933 49.7541 3.88813 49.7313 3.96693 49.7116C4.03512 49.695 4.10483 49.6828 4.17302 49.6692C4.28516 49.6495 4.09877 49.6753 4.17605 49.6692C4.20181 49.6677 4.22606 49.6631 4.25182 49.6616C4.30334 49.6571 4.35486 49.654 4.40639 49.654C4.89434 49.6631 4.89434 48.9054 4.40639 48.8964H4.40942Z" fill="black"/>
<path d="M10.6514 39.2552C10.6514 39.2552 12.2486 36.6654 13.1563 34.1286C14.0731 31.5646 15.2111 30.9448 16.3159 30.9448C17.4206 30.9448 18.2843 31.7313 17.5615 34.3726C16.8387 37.0154 15.5415 38.5611 14.5247 39.928" fill="white"/>
<path d="M10.9787 39.446C11.597 38.4428 12.1471 37.3912 12.6472 36.3243C12.8593 35.8728 13.0593 35.4151 13.2457 34.9514C13.4321 34.4877 13.5761 34.0346 13.7716 33.5891C14.0625 32.9284 14.4156 32.2874 14.9611 31.8161C15.046 31.7418 15.0824 31.7145 15.2036 31.6373C15.2566 31.6039 15.3097 31.5721 15.3642 31.5433C15.3885 31.5297 15.4127 31.5175 15.4385 31.5054C15.4536 31.4978 15.5794 31.4448 15.4961 31.4782C15.5931 31.4388 15.6916 31.4069 15.7916 31.3812C15.8461 31.3675 15.9007 31.3569 15.9552 31.3463C15.9795 31.3418 16.0052 31.3372 16.0295 31.3342C15.9264 31.3493 16.0583 31.3327 16.0765 31.3312C16.175 31.3221 16.2735 31.319 16.372 31.3221C16.425 31.3221 16.4765 31.3281 16.528 31.3312C16.5523 31.3327 16.619 31.3463 16.525 31.3312C16.5614 31.3372 16.5978 31.3433 16.6341 31.3509C16.6781 31.3599 16.722 31.3721 16.766 31.3857C16.7917 31.3933 16.9205 31.4494 16.8266 31.4039C16.8705 31.4251 16.9145 31.4463 16.9569 31.4706C16.9766 31.4812 16.9948 31.4948 17.013 31.5054C17.1024 31.56 16.9963 31.4857 17.0433 31.5266C17.0766 31.5569 17.1115 31.5873 17.1418 31.6206C17.1615 31.6403 17.1797 31.6615 17.1963 31.6842C17.1888 31.6751 17.1509 31.6191 17.1888 31.6751C17.2221 31.7252 17.2539 31.7736 17.2812 31.8267C17.2903 31.8449 17.2994 31.8631 17.3085 31.8828C17.3267 31.9222 17.3267 31.9206 17.3085 31.8797C17.316 31.8994 17.3251 31.9206 17.3312 31.9419C17.4297 32.2404 17.4494 32.4237 17.4448 32.742C17.4327 33.6315 17.1524 34.5256 16.8448 35.353C16.2386 36.9835 15.2233 38.3504 14.1944 39.7324C14.0716 39.8961 14.1671 40.1552 14.3307 40.2507C14.5232 40.3643 14.7263 40.2795 14.849 40.1143C15.29 39.5218 15.7446 38.9369 16.1537 38.3216C16.6372 37.5942 17.0524 36.829 17.3903 36.0213C17.7797 35.0908 18.0919 34.0982 18.1844 33.0905C18.2404 32.4798 18.1965 31.7827 17.8237 31.269C17.1827 30.384 15.8855 30.4144 14.996 30.8781C13.4624 31.6782 13.0139 33.5633 12.3971 35.0257C11.8122 36.4137 11.1121 37.7746 10.321 39.0581C10.0649 39.4748 10.7196 39.8552 10.9757 39.44L10.9787 39.446Z" fill="black"/>
<path d="M16.0566 43.3753C16.0566 43.3753 19.2314 39.6066 21.706 41.425C23.9427 43.0692 17.4083 47.5396 17.4083 47.5396C17.4083 47.5396 16.6613 51.028 13.6138 52.5267C11.2044 53.7117 8.79492 53.1707 8.79492 53.1707" fill="white"/>
<path d="M16.3249 43.6434C16.6901 43.21 17.119 42.819 17.5599 42.4659C17.6463 42.3977 17.6736 42.375 17.7857 42.2932C17.8979 42.2113 18.0009 42.1401 18.1115 42.0674C18.3267 41.9264 18.5495 41.7961 18.7813 41.6825C19.195 41.4779 19.7027 41.3188 20.1573 41.3097C20.4331 41.3036 20.5907 41.3248 20.8513 41.4051C20.9923 41.4491 21.0453 41.4703 21.1711 41.537C21.2241 41.5643 21.2756 41.593 21.3256 41.6249C21.365 41.6491 21.4029 41.6734 21.4408 41.6991C21.4605 41.7128 21.5696 41.7961 21.4817 41.7249C21.5393 41.7719 21.5893 41.8249 21.6439 41.8764C21.7166 41.9461 21.6211 41.8294 21.6636 41.8992C21.6848 41.934 21.706 41.9673 21.7272 42.0022C21.7636 42.0613 21.7515 42.0568 21.7393 42.0189C21.75 42.0492 21.7606 42.0795 21.7697 42.1098C21.7787 42.1431 21.7833 42.181 21.7939 42.2144C21.8015 42.2386 21.7939 42.2871 21.7894 42.178C21.7894 42.1992 21.7939 42.2204 21.7954 42.2431C21.7954 42.3098 21.7909 42.3765 21.7894 42.4432C21.7878 42.522 21.803 42.3704 21.7924 42.422C21.7878 42.4417 21.7863 42.4614 21.7818 42.4795C21.7727 42.5189 21.7651 42.5583 21.7545 42.5977C21.7348 42.672 21.709 42.7432 21.6833 42.8144C21.6469 42.916 21.706 42.772 21.659 42.872C21.6393 42.9145 21.6196 42.9554 21.5984 42.9963C21.5105 43.169 21.409 43.3342 21.2999 43.4949C21.2423 43.5782 21.1832 43.6615 21.1211 43.7419C21.1135 43.7525 21.0771 43.7979 21.1211 43.7434C21.1074 43.7616 21.0938 43.7782 21.0802 43.7964C21.0408 43.8449 21.0029 43.8934 20.9635 43.9404C20.3846 44.6359 19.7133 45.2527 19.0208 45.8331C18.8616 45.9664 18.701 46.0983 18.5389 46.2286C18.4631 46.2892 18.3873 46.3483 18.3116 46.4089C18.2767 46.4362 18.2434 46.462 18.2085 46.4892C18.1343 46.5468 18.254 46.4544 18.207 46.4892C18.1858 46.5059 18.163 46.5226 18.1418 46.5393C17.9206 46.709 17.6948 46.8757 17.469 47.0393C17.366 47.1136 17.2356 47.1818 17.1447 47.2727C17.0205 47.397 16.9992 47.6394 16.9492 47.8C16.9038 47.9486 16.8538 48.0971 16.8007 48.2425C16.7689 48.3304 16.734 48.4183 16.6992 48.5047C16.6901 48.5289 16.6462 48.6335 16.6749 48.5623C16.6477 48.6244 16.6204 48.6865 16.5931 48.7487C16.3855 49.2063 16.14 49.6488 15.8551 50.064C15.1308 51.1202 14.0988 51.981 12.8774 52.4386C12.1288 52.719 11.3378 52.8751 10.5392 52.9084C10.2406 52.9205 9.94059 52.9175 9.64206 52.8978C9.53295 52.8902 9.42233 52.8811 9.31322 52.869C9.26321 52.8629 9.21169 52.8569 9.16168 52.8508C9.25715 52.8629 9.14805 52.8493 9.11319 52.8432C9.04197 52.8326 8.96923 52.8205 8.89801 52.8054C8.42218 52.6993 8.22063 53.4297 8.69646 53.5358C9.27534 53.6646 9.89361 53.6888 10.4846 53.6676C11.7393 53.6237 13.0001 53.3175 14.0988 52.7023C15.6551 51.831 16.7583 50.3519 17.422 48.7214C17.5645 48.3729 17.6963 48.0107 17.7766 47.6424L17.6024 47.8682C18.1524 47.4924 18.6813 47.0833 19.1981 46.665C20.1346 45.9073 21.0468 45.089 21.7772 44.1253C22.3182 43.41 22.9168 42.3159 22.2849 41.4718C21.8621 40.9051 21.1044 40.6126 20.4179 40.5596C19.6921 40.5035 18.9662 40.7384 18.3282 41.0657C17.3902 41.5461 16.5234 42.2659 15.8324 43.0615C15.8188 43.0766 15.8051 43.0933 15.7915 43.1084C15.6596 43.2645 15.6384 43.4903 15.7915 43.6449C15.9263 43.7797 16.1946 43.8025 16.3279 43.6449L16.3249 43.6434Z" fill="black"/>
<path d="M7.76782 41.9555C7.76782 41.9555 8.7998 39.2309 11.9033 39.0036C15.0068 38.7763 18.2512 43.477 14.0733 45.8122" fill="white"/>
<path d="M8.13293 42.0576C8.13596 42.0485 8.14051 42.0379 8.14505 42.0288C8.09656 42.1531 8.12232 42.0819 8.14808 42.0258C8.19354 41.9288 8.24204 41.8318 8.29508 41.7379C8.37691 41.5909 8.46631 41.4485 8.56178 41.3106C8.58451 41.2787 8.60724 41.2469 8.62997 41.2151C8.64361 41.1969 8.73302 41.0772 8.68301 41.1439C8.7512 41.056 8.82243 40.9711 8.89517 40.8878C9.62406 40.0649 10.6075 39.5179 11.7365 39.3997C11.9911 39.3724 12.2457 39.3678 12.5003 39.3997C12.4381 39.3921 12.5942 39.4148 12.6215 39.4209C12.6836 39.433 12.7442 39.4466 12.8049 39.4603C12.9276 39.4906 13.0473 39.527 13.167 39.5694C13.5565 39.7103 14.0323 39.9982 14.3536 40.2771C14.7461 40.618 15.0158 40.9453 15.2613 41.3833C15.3962 41.6227 15.4553 41.7576 15.5356 42.0061C15.5704 42.1137 15.5992 42.2228 15.6219 42.3319C15.6356 42.3925 15.6462 42.4547 15.6553 42.5153C15.6674 42.5926 15.6598 42.5426 15.6568 42.5259C15.6629 42.5683 15.6659 42.6123 15.6689 42.6562C15.7114 43.2018 15.6098 43.6761 15.3446 44.1383C15.0143 44.7126 14.4748 45.1505 13.8808 45.4869C13.4565 45.7264 13.8383 46.381 14.2626 46.1416C15.4128 45.4915 16.3402 44.4504 16.4296 43.0836C16.5039 41.9516 15.9644 40.8438 15.1976 40.0376C14.4309 39.2315 13.364 38.6617 12.2381 38.6192C10.9273 38.5692 9.5983 39.142 8.65725 40.0376C8.13141 40.5392 7.66316 41.1711 7.40252 41.8546C7.32978 42.0455 7.48283 42.2698 7.66771 42.3213C7.88138 42.3804 8.06019 42.2486 8.13445 42.0561L8.13293 42.0576Z" fill="black"/>
<path d="M5.34884 52.2419C5.34884 52.2419 3.98045 50.7568 4.50174 47.6306C5.12001 43.9225 6.18684 41.7994 9.39036 41.657C12.5939 41.513 14.3366 43.092 14.0395 46.4395C13.7425 49.787 10.092 49.0551 9.53583 47.4775C9.04182 46.0773 9.67676 45.0347 9.67676 45.0347" fill="white"/>
<path d="M5.61706 51.9735C5.61706 51.9735 5.60493 51.9598 5.60039 51.9538C5.55493 51.9007 5.57311 51.881 5.60039 51.9583C5.56856 51.8734 5.47916 51.7871 5.43066 51.7083C5.34732 51.5719 5.27307 51.4294 5.20639 51.284C5.18972 51.2461 5.17153 51.2082 5.15638 51.1703C5.1882 51.2446 5.13365 51.1112 5.12607 51.09C5.08364 50.9809 5.04576 50.8718 5.01242 50.7596C4.63206 49.5231 4.75481 48.2426 5.00333 46.9833C5.22003 45.8862 5.49886 44.7815 6.0747 43.8389C6.53992 43.0797 7.21427 42.519 8.05985 42.2553C9.06152 41.9416 10.2405 41.9326 11.2482 42.1917C11.7195 42.3129 12.0832 42.469 12.4863 42.7645C12.7878 42.9857 13.0727 43.3297 13.2712 43.7071C13.4698 44.0844 13.6077 44.5966 13.6562 45.0315C13.7183 45.5998 13.7213 46.2196 13.6122 46.7696C13.5622 47.0197 13.4849 47.2697 13.391 47.4516C13.344 47.5455 13.2894 47.6334 13.2318 47.7213C13.1909 47.7834 13.153 47.8319 13.0606 47.9244C13.0258 47.9592 12.9894 47.9941 12.953 48.0274C12.9379 48.0395 12.8394 48.1168 12.903 48.0698C12.8181 48.132 12.7272 48.188 12.6333 48.2381C12.5969 48.2578 12.559 48.2744 12.5196 48.2926C12.5984 48.2577 12.4726 48.3093 12.4499 48.3168C12.3575 48.3487 12.262 48.3744 12.165 48.3941C12.1241 48.4017 12.0832 48.4093 12.0423 48.4153C12.1408 48.4002 11.9923 48.4184 11.9741 48.4199C11.8756 48.4275 11.7771 48.429 11.6786 48.4244C11.6316 48.4229 11.5861 48.4199 11.5392 48.4153C11.518 48.4138 11.4983 48.4108 11.477 48.4093C11.4149 48.4032 11.5695 48.4244 11.4695 48.4093C11.377 48.3941 11.2861 48.3759 11.1967 48.3532C11.1073 48.3305 11.0194 48.3032 10.933 48.2714C10.8951 48.2578 10.8572 48.2426 10.8194 48.2274C10.9012 48.2623 10.7678 48.2017 10.7451 48.1911C10.6648 48.1517 10.5875 48.1077 10.5117 48.0607C10.4754 48.038 10.439 48.0123 10.4026 47.988C10.386 47.9774 10.3708 47.9653 10.3557 47.9547C10.3314 47.938 10.4057 47.9986 10.342 47.9441C10.2784 47.8895 10.2223 47.841 10.1662 47.7834C10.1374 47.7546 10.1102 47.7228 10.0829 47.6925C10.0677 47.6758 10.0541 47.6577 10.0405 47.641C10.0783 47.688 10.0602 47.6698 10.0359 47.6319C9.99802 47.5728 9.96014 47.5152 9.92832 47.4531C9.91922 47.4334 9.91013 47.4137 9.90104 47.3955C9.87679 47.3455 9.93135 47.4849 9.90558 47.4031C9.87376 47.3046 9.84042 47.2091 9.81315 47.1091C9.66312 46.5363 9.70707 45.971 9.90558 45.421C9.94347 45.3149 9.88892 45.4452 9.92528 45.374C9.93892 45.3482 9.95105 45.3209 9.96317 45.2937C9.97378 45.2709 9.9859 45.2497 9.99954 45.2285C10.2511 44.8103 9.59645 44.4284 9.34489 44.8466C9.12819 45.2073 9.02818 45.6483 8.98272 46.0604C8.91453 46.6893 9.00545 47.444 9.35853 47.9835C9.83588 48.7124 10.7057 49.1064 11.5528 49.1791C12.4923 49.2609 13.4076 48.8487 13.9213 48.0501C14.2502 47.5395 14.376 46.9318 14.4214 46.3347C14.4699 45.6922 14.4472 45.0406 14.3093 44.4102C14.0805 43.357 13.4652 42.4266 12.5166 41.8932C11.471 41.3037 10.1768 41.193 9.0009 41.3112C7.89619 41.4219 6.83845 41.8098 6.05652 42.6236C5.27458 43.4373 4.82451 44.5572 4.52901 45.6467C4.13956 47.0848 3.86225 48.6108 4.08046 50.0974C4.19714 50.89 4.46234 51.7143 4.95029 52.3599C4.98969 52.4129 5.02909 52.466 5.07455 52.5145C5.4049 52.8751 5.93983 52.3372 5.611 51.978L5.61706 51.9735Z" fill="black"/>
<path d="M62.4441 65.9533C62.4441 65.9533 61.9591 63.6529 59.8543 62.6346C58.0601 61.7663 54.5095 62.5846 54.5171 66.2897" fill="white"/>
<path d="M62.8092 65.8531C62.7001 65.3409 62.4668 64.8332 62.2076 64.3832C61.6818 63.4694 60.8877 62.6678 59.9103 62.248C58.4055 61.6009 56.481 61.9858 55.3233 63.1391C54.4883 63.9725 54.1413 65.1318 54.1367 66.291C54.1367 66.779 54.8929 66.779 54.8944 66.291C54.8944 65.797 54.9565 65.3257 55.1202 64.856C55.1884 64.659 55.2566 64.5074 55.3702 64.312C55.4763 64.1271 55.5748 63.9877 55.6885 63.8558C55.8173 63.7073 55.9597 63.5724 56.1113 63.4452C56.1688 63.3967 56.1219 63.4346 56.1673 63.4012C56.2067 63.3724 56.2476 63.3436 56.2886 63.3148C56.3704 63.2603 56.4537 63.2072 56.5386 63.1588C56.8644 62.9739 57.1311 62.8739 57.5266 62.7845C57.6069 62.7663 57.6888 62.7511 57.7706 62.7375C57.7933 62.7329 57.8176 62.7299 57.8403 62.7269C57.8252 62.7299 57.7691 62.736 57.8449 62.7269C57.8918 62.7208 57.9373 62.7163 57.9843 62.7117C58.1616 62.6966 58.3389 62.692 58.5177 62.6996C58.601 62.7026 58.6859 62.7102 58.7692 62.7178C58.792 62.7193 58.8132 62.7223 58.8344 62.7254C58.8192 62.7238 58.7586 62.7132 58.8314 62.7254C58.8738 62.7314 58.9177 62.739 58.9602 62.7466C59.1208 62.7769 59.2784 62.8163 59.433 62.8693C59.4663 62.8814 59.4997 62.8936 59.533 62.9057C59.6285 62.9405 59.5315 62.9011 59.5815 62.9239C59.6921 62.9754 59.8012 63.0299 59.9088 63.0906C60.1331 63.2163 60.3452 63.3618 60.5392 63.5285C60.8938 63.8331 61.1817 64.1695 61.4257 64.5544C61.5469 64.7454 61.656 64.9439 61.753 65.1469C61.7758 65.1939 61.797 65.2409 61.8182 65.2879C61.8273 65.3076 61.8364 65.3273 61.844 65.3485C61.8303 65.3182 61.8288 65.3106 61.844 65.3454C61.8758 65.4242 61.9076 65.5046 61.9364 65.5849C61.9909 65.7379 62.044 65.894 62.0773 66.0546C62.1789 66.532 62.9093 66.3289 62.8077 65.8531H62.8092Z" fill="black"/>
<path d="M46.949 74.9921L48.1143 77.7349L54.5426 77.9653L59.2539 73.7101L60.4374 72.4402L62.2437 70.7505L62.9044 69.0109L62.127 64.8072L51.5391 64.439L51.3936 70.0853L46.949 74.9921Z" fill="white"/>
<path d="M50.4136 78.2175C50.4136 78.2175 49.9424 79.7889 52.2609 79.7586C54.5794 79.7283 56.0418 78.6933 57.0298 77.5204C58.0178 76.3475 59.7984 72.6045 59.7984 72.6045" fill="white"/>
<path d="M50.0483 78.1174C49.8968 78.6281 50.0483 79.2403 50.4408 79.604C50.8651 79.9965 51.4606 80.1147 52.0213 80.1359C52.7957 80.1662 53.6019 80.0541 54.3399 79.8147C55.531 79.4298 56.5948 78.6781 57.3722 77.6992C58.0374 76.8627 58.542 75.8944 59.0406 74.9533C59.4164 74.2426 59.7816 73.5243 60.1271 72.7969C60.215 72.6121 60.1786 72.3878 59.9907 72.2787C59.8256 72.1817 59.5604 72.2287 59.4725 72.4151C58.7663 73.8986 58.0268 75.4019 57.1145 76.7703C57.0615 76.8506 57.0069 76.9294 56.9509 77.0082C56.9221 77.0491 56.8918 77.0885 56.863 77.1294C56.8509 77.1461 56.8069 77.2021 56.8554 77.14C56.8403 77.1597 56.8251 77.1794 56.8084 77.1991C56.6433 77.3991 56.469 77.5901 56.2826 77.7719C55.8734 78.1705 55.4158 78.5054 54.9081 78.766C54.3459 79.0555 53.7261 79.2373 53.0988 79.3237C52.4714 79.41 51.7865 79.4661 51.2167 79.2221C51.2697 79.2449 51.1455 79.1843 51.1197 79.1691C51.0742 79.1433 51.0303 79.1146 50.9894 79.0827C51.0606 79.1373 50.9575 79.0494 50.9378 79.0297C50.9121 79.0039 50.8454 78.9069 50.8969 78.9857C50.8742 78.9509 50.853 78.9176 50.8318 78.8827C50.8212 78.866 50.8151 78.8478 50.806 78.8297C50.7833 78.7887 50.8333 78.91 50.8136 78.8463C50.7924 78.7781 50.7787 78.7084 50.759 78.6402C50.7393 78.572 50.7651 78.7206 50.7636 78.6721C50.7636 78.6569 50.759 78.6402 50.759 78.6251C50.759 78.5917 50.756 78.5584 50.756 78.5266C50.756 78.4766 50.7696 78.422 50.7666 78.3735C50.7757 78.4826 50.7605 78.4266 50.7727 78.3599C50.7757 78.3463 50.7787 78.3326 50.7833 78.3205C50.9212 77.8522 50.1908 77.6522 50.0529 78.1189L50.0483 78.1174Z" fill="black"/>
<path d="M47.0705 77.1137C47.0705 77.1137 46.675 79.3156 49.8118 78.7428C52.9486 78.17 55.2369 75.1528 55.2369 75.1528" fill="white"/>
<path d="M46.7052 77.0138C46.6476 77.3396 46.6718 77.6942 46.784 78.0048C47.0325 78.6913 47.6432 79.0808 48.3509 79.1793C49.5283 79.3429 50.7664 78.9732 51.8135 78.4564C52.7606 77.9897 53.6214 77.3441 54.3897 76.6228C54.811 76.2273 55.2125 75.806 55.5626 75.3453C55.6868 75.1817 55.5883 74.921 55.4262 74.8271C55.2322 74.7134 55.0322 74.7998 54.9079 74.9635C54.9716 74.8786 54.9595 74.8983 54.9064 74.9635C54.8534 75.0286 54.7973 75.0953 54.7412 75.1605C54.5488 75.3847 54.3472 75.5999 54.1396 75.809C53.5002 76.4501 52.8046 77.0153 52.0257 77.4775C51.1074 78.023 50.0602 78.4246 48.9813 78.4564C48.7661 78.4625 48.5555 78.4534 48.3994 78.4231C48.313 78.4064 48.2281 78.3852 48.1433 78.3594C48.1069 78.3473 48.0721 78.3352 48.0372 78.3216C48.116 78.3503 47.9978 78.3019 47.9766 78.2912C47.919 78.2609 47.8644 78.2261 47.8099 78.1912C47.7326 78.1427 47.8463 78.2321 47.7841 78.17C47.7599 78.1473 47.7341 78.1261 47.7114 78.1018C47.6887 78.0776 47.669 78.0548 47.6462 78.0306C47.5886 77.9715 47.675 78.0791 47.6417 78.0245C47.6099 77.9745 47.5765 77.926 47.5492 77.873C47.5356 77.8472 47.525 77.8215 47.5129 77.7957C47.5674 77.8988 47.5189 77.8124 47.5098 77.7806C47.4932 77.7275 47.4765 77.6745 47.4644 77.6199C47.4583 77.5927 47.4538 77.5654 47.4477 77.5381C47.431 77.4608 47.4477 77.5442 47.4477 77.5517C47.4447 77.5063 47.4386 77.4608 47.4371 77.4154C47.4341 77.3426 47.4371 77.2714 47.4417 77.2002C47.4417 77.182 47.4507 77.1562 47.4477 77.138C47.4477 77.1411 47.428 77.2668 47.4386 77.2123C47.4735 77.0107 47.3841 76.8047 47.1734 76.7456C46.9901 76.6956 46.7431 76.8077 46.7067 77.0108L46.7052 77.0138Z" fill="black"/>
<path d="M55.4249 63.0107C55.4249 63.0107 52.9791 61.1483 49.8422 63.5305C46.7054 65.9127 45.384 64.5867 44.2656 66.0339C43.1473 67.4811 44.8112 70.1966 49.8453 68.7176L50.9227 68.4176C50.9227 68.4176 48.1238 71.3559 45.681 72.691C43.2382 74.026 43.3094 77.2235 46.2144 76.9825C49.1194 76.7416 51.8698 73.1213 51.8698 73.1213" fill="white"/>
<path d="M55.6157 62.6833C55.3233 62.4621 54.9596 62.3106 54.6156 62.1924C53.8064 61.912 52.9259 61.8741 52.0894 62.0454C51.5242 62.1605 50.9787 62.3803 50.4771 62.6606C49.8755 62.9955 49.3542 63.4516 48.7677 63.8108C47.9994 64.2805 47.1826 64.5927 46.2961 64.7503C45.7233 64.8534 45.1187 64.9003 44.6095 65.2125C44.1003 65.5247 43.7018 66.0308 43.5927 66.6067C43.3487 67.8932 44.3564 68.8873 45.4915 69.2737C47.2251 69.8632 49.0662 69.3283 50.7574 68.8585C50.8453 68.8343 50.9332 68.81 51.0211 68.7858C50.8983 68.5751 50.7756 68.363 50.6529 68.1523C49.8285 69.0161 48.939 69.8268 48.0206 70.5891C47.2933 71.1907 46.534 71.7635 45.7157 72.2378C45.0065 72.65 44.3701 73.1092 43.9564 73.8381C43.626 74.42 43.4669 75.1095 43.6094 75.7717C43.7518 76.4339 44.2034 76.9219 44.802 77.1719C45.5551 77.4871 46.4401 77.4068 47.2038 77.1749C48.0312 76.9234 48.7965 76.4824 49.4875 75.9702C50.4604 75.2489 51.3499 74.3897 52.0985 73.4365C52.1303 73.3971 52.1607 73.3562 52.1925 73.3152C52.3167 73.1516 52.2182 72.8909 52.0561 72.797C51.8621 72.6833 51.6621 72.7697 51.5378 72.9334C51.5242 72.9516 51.6212 72.8273 51.5575 72.9091C51.5181 72.9576 51.4803 73.0061 51.4409 73.0546C51.3045 73.2213 51.1635 73.3834 51.0196 73.5426C50.571 74.0396 50.0906 74.5109 49.5784 74.9413C48.9768 75.4474 48.3161 75.8975 47.5978 76.2233C47.2599 76.3763 46.9008 76.4915 46.5356 76.5612C46.3583 76.5945 46.2022 76.6127 46.0128 76.6173C45.9188 76.6203 45.8264 76.6188 45.7324 76.6142C45.6188 76.6082 45.5763 76.6036 45.4915 76.5885C45.4127 76.5748 45.3354 76.5567 45.2596 76.5339C45.2232 76.5233 45.1869 76.5112 45.1505 76.4991C45.1475 76.4991 45.0338 76.4536 45.105 76.4839C45.0399 76.4566 44.9777 76.4233 44.9171 76.3884C44.8883 76.3718 44.8596 76.3521 44.8308 76.3339C44.8126 76.3218 44.7944 76.3081 44.7762 76.296C44.808 76.3218 44.808 76.3218 44.7762 76.296C44.7353 76.2612 44.6944 76.2248 44.6565 76.1869C44.6338 76.1642 44.6125 76.1399 44.5913 76.1172C44.5822 76.1081 44.5201 76.0247 44.5716 76.0945C44.5353 76.0429 44.5004 75.9914 44.4701 75.9369C44.4549 75.9096 44.4413 75.8808 44.4277 75.8535C44.4095 75.8141 44.4095 75.8156 44.4277 75.8581C44.4201 75.8384 44.4125 75.8187 44.4049 75.799C44.3837 75.7383 44.3655 75.6792 44.3504 75.6171C44.3428 75.5868 44.314 75.4095 44.3246 75.4959C44.3079 75.3519 44.3095 75.208 44.3216 75.064C44.3307 74.9519 44.3079 75.1398 44.3261 75.0276C44.3322 74.9928 44.3383 74.9579 44.3443 74.9246C44.3564 74.867 44.3701 74.8094 44.3867 74.7518C44.4368 74.573 44.4686 74.4942 44.5368 74.3578C44.8489 73.735 45.3445 73.3168 45.9597 72.9713C46.7644 72.5197 47.5115 71.9666 48.2298 71.3907C49.2693 70.5573 50.2679 69.6541 51.1878 68.6888C51.4454 68.4191 51.1908 67.9523 50.8195 68.0554C50.2361 68.2175 49.6542 68.3963 49.0662 68.5342C48.1782 68.7418 47.166 68.854 46.3113 68.7024C46.1325 68.6706 45.9537 68.6282 45.7794 68.5736C45.7051 68.5509 45.6309 68.5251 45.5566 68.4963C45.5384 68.4888 45.4399 68.4478 45.5021 68.4751C45.4612 68.4569 45.4202 68.4388 45.3793 68.4191C45.2505 68.3554 45.1263 68.2842 45.0096 68.2024C44.9808 68.1827 44.952 68.1614 44.9247 68.1402C44.9838 68.1842 44.9217 68.1372 44.8974 68.1175C44.8474 68.0751 44.7974 68.0296 44.7504 67.9826C44.708 67.9402 44.6701 67.8962 44.6307 67.8523C44.6186 67.8387 44.608 67.825 44.5974 67.8114C44.5974 67.8114 44.6413 67.869 44.6156 67.8356C44.5944 67.8084 44.5747 67.7796 44.555 67.7508C44.5247 67.7053 44.4959 67.6583 44.4686 67.6098C44.4549 67.5841 44.4413 67.5583 44.4277 67.5326C44.4201 67.5174 44.3792 67.4219 44.4019 67.4765C44.4246 67.531 44.3943 67.4568 44.3898 67.4431C44.3807 67.4159 44.3716 67.3901 44.364 67.3628C44.3473 67.3098 44.3352 67.2568 44.3246 67.2022C44.3216 67.1886 44.3064 67.0931 44.3155 67.1613C44.3246 67.2295 44.314 67.137 44.3125 67.1189C44.3095 67.0658 44.3064 67.0113 44.308 66.9582C44.308 66.9203 44.3322 66.7537 44.3095 66.8764C44.3186 66.8234 44.3276 66.7718 44.3398 66.7203C44.3519 66.6718 44.3671 66.6248 44.3837 66.5779C44.4004 66.5279 44.411 66.5112 44.3837 66.5718C44.3958 66.543 44.4095 66.5157 44.4231 66.4869C44.4459 66.4415 44.4716 66.3975 44.4989 66.3536C44.514 66.3293 44.5292 66.3081 44.5459 66.2839C44.5944 66.2096 44.5277 66.3021 44.5731 66.2475C44.6656 66.1384 44.7626 66.0384 44.8717 65.946C44.9126 65.9111 44.8201 65.9838 44.8626 65.952C44.8747 65.9444 44.8853 65.9353 44.8974 65.9278C44.9247 65.9096 44.9505 65.8914 44.9793 65.8732C45.0338 65.8399 45.0899 65.8111 45.146 65.7808C45.1672 65.7702 45.2581 65.7323 45.1657 65.7702C45.1899 65.7596 45.2157 65.7505 45.2414 65.7414C45.3051 65.7186 45.3702 65.6974 45.4354 65.6792C45.696 65.6065 45.9658 65.5686 46.234 65.5247C47.0205 65.3959 47.7676 65.1837 48.4859 64.8306C49.0223 64.567 49.5254 64.2381 50.0028 63.879C50.4801 63.5198 50.9923 63.1955 51.5545 62.9864C52.3501 62.6894 53.2138 62.6151 53.9867 62.797C54.1413 62.8334 54.2943 62.8788 54.4443 62.9319C54.5065 62.9531 54.5671 62.9773 54.6277 63.0016C54.6929 63.0273 54.5716 62.9743 54.6519 63.0122C54.6838 63.0273 54.7156 63.041 54.7459 63.0561C54.8944 63.1273 55.0353 63.2077 55.1747 63.2956C55.1944 63.3077 55.2141 63.3213 55.2323 63.3365C55.396 63.4607 55.6566 63.3622 55.7506 63.2001C55.8642 63.0061 55.7779 62.8061 55.6142 62.6818L55.6157 62.6833Z" fill="black"/>
<path d="M62.2408 66.67C62.2742 66.77 62.3014 66.8731 62.3272 66.9761C62.3575 67.0928 62.3833 67.2125 62.406 67.3307C62.4196 67.3959 62.4302 67.4625 62.4424 67.5292C62.4484 67.5641 62.4545 67.6004 62.459 67.6353C62.4636 67.6626 62.4818 67.8065 62.4697 67.7035C62.5712 68.5233 62.5515 69.2658 62.3045 70.0144C62.2317 70.2342 62.1817 70.3554 62.0635 70.5706C61.9544 70.7691 61.8271 70.957 61.7014 71.1025C61.3543 71.5071 60.93 71.8117 60.4421 72.0329C59.5147 72.4512 58.5827 72.2239 57.7811 71.6768C57.678 71.6071 57.5932 71.5435 57.5371 71.498C57.4446 71.4222 57.3537 71.3449 57.2673 71.2646C57.1234 71.1313 56.9855 70.9903 56.8552 70.8449C56.8036 70.7858 56.7521 70.7267 56.7021 70.6661C56.6809 70.6388 56.6597 70.613 56.6369 70.5857C56.5718 70.5054 56.6642 70.6251 56.6369 70.5857C56.6051 70.5418 56.5718 70.4994 56.5415 70.4539C56.2702 70.0508 55.6141 70.4297 55.8868 70.8358C56.8097 72.2057 58.4993 73.3392 60.2026 72.9118C61.318 72.6315 62.3242 71.795 62.8167 70.7585C63.2152 69.9175 63.3349 68.9734 63.2637 68.052C63.2228 67.5232 63.1425 66.9746 62.9712 66.47C62.8152 66.0108 62.0832 66.2078 62.2408 66.6715V66.67Z" fill="black"/>
<path d="M60.9331 50.1142C61.2968 50.2218 61.6559 50.3446 62.0136 50.4688C62.4091 50.6067 62.8031 50.7507 63.1941 50.9007C63.388 50.975 63.582 51.0507 63.7744 51.128C63.8972 51.178 64.0199 51.2295 64.1427 51.278C64.4655 51.4053 63.7563 51.1053 64.2942 51.3432C65.4232 51.8418 66.5355 52.3752 67.6023 52.998C68.1069 53.292 68.6025 53.6057 69.0813 53.9421C69.2101 54.033 69.3359 54.127 69.4632 54.2179C69.889 54.527 69.1419 53.939 69.539 54.2785C69.8072 54.5073 70.0754 54.7316 70.3285 54.9771C70.5194 55.162 70.7028 55.3544 70.877 55.556C70.9543 55.6454 71.0286 55.7363 71.1028 55.8272C70.7513 55.4044 71.0483 55.7575 71.1104 55.8575C71.2498 56.0833 71.3695 56.3243 71.512 56.5455C71.7469 56.9107 71.4029 56.1151 71.5089 56.5303C71.5499 56.6925 71.609 56.8546 71.6559 57.0168C71.8151 57.5638 71.6711 56.6773 71.6878 57.1941C71.6938 57.3896 71.7059 57.5835 71.7059 57.7805C71.7059 57.9775 71.6908 58.173 71.6817 58.37C71.6499 59.0171 71.7772 58.0381 71.6665 58.5155C71.5741 58.9156 71.4786 59.3005 71.3468 59.6899C71.2013 60.1172 71.3468 59.5717 71.3953 59.5869C71.3953 59.5869 71.268 59.8551 71.2589 59.8748C71.1604 60.0688 71.0528 60.2582 70.9361 60.4415C70.8392 60.5946 70.3527 61.1598 70.7907 60.6734C70.63 60.8522 70.48 61.0386 70.3118 61.2114C70.1648 61.3629 70.0118 61.5069 69.8526 61.6463C69.7541 61.7342 69.6496 61.8145 69.5511 61.9009C69.3798 62.0357 69.4101 62.013 69.642 61.8311C69.5662 61.8872 69.4905 61.9418 69.4147 61.9948C68.8555 62.36 68.2948 62.701 67.6932 62.9919C67.5402 63.0647 67.3871 63.1344 67.2325 63.2041C67.0189 63.2965 67.0204 63.2965 67.2356 63.2041C67.1234 63.2495 67.0113 63.2935 66.8976 63.3359C66.4794 63.495 66.0551 63.6405 65.6262 63.7723C63.635 64.3846 61.5802 64.7331 59.5602 64.9377C58.4615 65.0498 57.5144 65.7984 57.5144 66.9834C57.5144 68.0033 58.4539 69.1413 59.5602 69.0292C65.3792 68.4367 73.4471 66.8971 75.4232 60.387C76.1127 58.1154 75.9051 55.5181 74.4852 53.5693C72.7637 51.2053 70.1769 49.6081 67.575 48.364C65.7869 47.5093 63.923 46.7364 62.0196 46.1697C60.9619 45.8545 59.792 46.55 59.5026 47.5987C59.2041 48.6867 59.8693 49.7975 60.9316 50.1157L60.9331 50.1142Z" fill="black"/>
<path d="M59.8543 62.636C58.0601 61.7677 54.5095 62.586 54.5171 66.2911L59.8543 62.636Z" fill="white"/>
<path d="M60.0451 62.3086C58.1555 61.407 55.6248 62.1889 54.6474 64.0559C54.2867 64.7454 54.1397 65.5182 54.1382 66.2911C54.1382 66.779 54.8944 66.779 54.8959 66.2911C54.8989 65.1818 55.2474 64.1695 56.0824 63.4709C56.2052 63.3694 56.4234 63.2224 56.6204 63.1179C56.8492 62.9951 56.9583 62.9512 57.2159 62.8709C57.319 62.839 57.422 62.8118 57.5281 62.7875C57.5796 62.7754 57.6327 62.7648 57.6857 62.7557C57.7145 62.7496 57.7433 62.7451 57.7736 62.7405C57.7903 62.7375 57.8933 62.7223 57.813 62.733C58.0297 62.7042 58.2509 62.6936 58.4691 62.6996C58.5873 62.7026 58.704 62.7117 58.8207 62.7254C58.8859 62.733 58.7298 62.7102 58.8343 62.7269C58.8662 62.7314 58.8995 62.7375 58.9313 62.742C58.9844 62.7511 59.0374 62.7617 59.0889 62.7739C59.2011 62.7996 59.3117 62.8299 59.4208 62.8663C59.4693 62.883 59.5163 62.9012 59.5632 62.9178C59.6542 62.9512 59.5148 62.8951 59.5693 62.9193C59.6011 62.933 59.6314 62.9481 59.6633 62.9618C59.8481 63.0497 60.0724 63.0133 60.1815 62.8254C60.2785 62.6602 60.2315 62.395 60.0451 62.3071V62.3086Z" fill="black"/>
<path d="M52.3545 95.6831L54.4518 95.4406L56.6506 93.751L57.5826 94.2344L57.9705 97.3106L53.4001 96.8924L52.3545 95.6831Z" fill="white"/>
<path d="M51.9289 95.8478C53.9837 96.3055 56.1431 95.3447 57.1433 93.4853C57.3161 93.1641 56.8266 92.8762 56.6523 93.1989C56.2416 93.9612 55.6082 94.584 54.8323 94.9734C53.9898 95.3947 52.9881 95.5023 52.0789 95.2992C51.7228 95.2205 51.5697 95.7675 51.9274 95.8478H51.9289Z" fill="black"/>
<g style="mix-blend-mode:multiply" opacity="0.25">
<path d="M24.2776 40.7674C27.3466 40.7674 29.8345 38.2089 29.8345 35.0529C29.8345 31.8968 27.3466 29.3384 24.2776 29.3384C21.2086 29.3384 18.7207 31.8968 18.7207 35.0529C18.7207 38.2089 21.2086 40.7674 24.2776 40.7674Z" fill="#A495FC"/>
</g>
<g style="mix-blend-mode:multiply" opacity="0.25">
<path d="M39.2145 44.2479C42.8685 44.2479 45.8307 41.2858 45.8307 37.6318C45.8307 33.9778 42.8685 31.0156 39.2145 31.0156C35.5605 31.0156 32.5984 33.9778 32.5984 37.6318C32.5984 41.2858 35.5605 44.2479 39.2145 44.2479Z" fill="#A495FC"/>
</g>
<path d="M39.2692 44.8117C38.122 44.8117 36.9734 44.5404 35.9474 44.0267C34.6988 43.4008 33.6274 42.3779 32.9303 41.1459C32.2181 39.8867 31.9059 38.4061 32.0529 36.9756C32.0787 36.721 32.1196 36.4634 32.1757 36.2073L30.1163 35.933C30.0996 36.0785 30.0784 36.2225 30.0541 36.3634C29.5934 38.982 27.5174 41.1187 25.0064 41.5596C24.676 41.6172 24.3396 41.6475 24.0047 41.6475C21.812 41.6475 19.8056 40.4186 18.7691 38.4395C17.5871 36.1831 17.8811 33.2963 19.5025 31.2581C20.6588 29.8033 22.4408 28.9365 24.2684 28.9365C24.9276 28.9365 25.5686 29.0487 26.1763 29.2699C28.4296 30.0912 30.0132 32.3052 30.1541 34.8117L32.5045 35.1178C32.7864 34.3949 33.1819 33.7251 33.6819 33.1235C35.0215 31.5127 37.1128 30.5519 39.2737 30.5519C40.0799 30.5519 40.8679 30.6838 41.6134 30.9459C44.5336 31.9673 46.4824 34.7086 46.4642 37.7666C46.4581 38.15 46.4202 38.5486 46.349 38.9547C45.8353 41.9067 43.3774 44.2843 40.3724 44.7344C40.0087 44.7889 39.6374 44.8162 39.2692 44.8162V44.8117ZM39.2161 31.6885C37.1173 31.6885 35.1352 32.775 34.0426 34.5252C32.75 36.5953 32.8864 39.3745 34.3775 41.2854C35.1352 42.2567 36.1444 42.9705 37.2961 43.3463C37.9099 43.5463 38.5524 43.6478 39.204 43.6478C39.8556 43.6478 40.4708 43.5509 41.077 43.3599C43.4986 42.5977 45.217 40.2867 45.2564 37.7409C45.2595 37.3893 45.2382 37.0832 45.1958 36.8029C44.8064 34.2964 42.8591 32.284 40.3481 31.796C39.9768 31.7233 39.5965 31.6869 39.2161 31.6869V31.6885ZM24.2047 30.0246C22.459 30.0246 20.7951 30.9959 19.8602 32.5598C18.7585 34.404 18.8448 36.8589 20.0723 38.5304C20.9921 39.7836 22.453 40.5322 23.982 40.5322C24.5215 40.5322 25.0549 40.4413 25.5686 40.261C27.5628 39.5654 28.9994 37.5227 29.0631 35.292C29.0691 34.9829 29.057 34.7147 29.0252 34.4722C28.7342 32.2734 27.1537 30.5201 25.0912 30.1109C24.8018 30.0534 24.5048 30.0246 24.2063 30.0246H24.2047Z" fill="#674AD6"/>
<path d="M24.2684 29.1229C24.8912 29.1229 25.514 29.2275 26.1111 29.4442C28.3554 30.261 29.892 32.4628 29.9723 34.9753C29.9814 34.9753 29.992 34.9784 30.0011 34.9784C30.8709 35.092 31.7468 35.2057 32.6287 35.3193C32.903 34.5677 33.3076 33.8646 33.8274 33.2387C35.1564 31.6415 37.2006 30.7353 39.2737 30.7353C40.0405 30.7353 40.8118 30.8596 41.5513 31.1187C44.3684 32.1037 46.2929 34.7768 46.2747 37.7591C46.2687 38.147 46.2293 38.5334 46.1626 38.9153C45.661 41.7945 43.244 44.1055 40.3435 44.5404C39.9859 44.5935 39.6268 44.6207 39.2676 44.6207C38.1447 44.6207 37.037 44.3601 36.0323 43.8555C34.7988 43.2372 33.7653 42.237 33.0955 41.052C32.4014 39.8261 32.0984 38.3865 32.2423 36.9938C32.2757 36.6726 32.3317 36.3558 32.4075 36.0452C32.3726 36.0406 32.3393 36.0361 32.3044 36.0316C31.5134 35.927 30.7284 35.8209 29.9495 35.7179C29.9314 35.9224 29.9041 36.1255 29.8692 36.3286C29.4207 38.8774 27.3885 40.9475 24.9745 41.3702C24.6503 41.4263 24.3275 41.4551 24.0062 41.4551C21.912 41.4551 19.948 40.2761 18.9373 38.3486C17.7825 36.1452 18.0947 33.3311 19.651 31.3733C20.7921 29.9382 22.5272 29.1229 24.2684 29.1229ZM23.9805 40.7232C24.529 40.7232 25.0867 40.6322 25.6307 40.4428C27.7265 39.7109 29.1858 37.6015 29.251 35.3011C29.257 35.0178 29.2479 34.7314 29.2116 34.451C28.91 32.1704 27.2597 30.3519 25.1261 29.9276C24.82 29.867 24.5108 29.8367 24.2047 29.8367C22.412 29.8367 20.6678 30.8399 19.698 32.4644C18.5615 34.3662 18.6342 36.8923 19.9192 38.6441C20.8951 39.9731 22.406 40.7232 23.982 40.7232M39.2055 43.8403C39.8571 43.8403 40.5087 43.7418 41.1361 43.5433C43.6653 42.7462 45.4064 40.3671 45.4473 37.747C45.4504 37.4227 45.4337 37.0984 45.3837 36.7771C44.9821 34.1904 42.9606 32.1143 40.3845 31.6127C39.995 31.5369 39.6056 31.5006 39.2161 31.5006C37.0749 31.5006 35.0139 32.6144 33.882 34.4268C32.5515 36.5574 32.6681 39.4048 34.2275 41.4036C34.9927 42.3855 36.0383 43.1372 37.237 43.5281C37.8735 43.7357 38.5387 43.8403 39.204 43.8403M24.2684 28.7456C22.3832 28.7456 20.5466 29.6397 19.354 31.1399C17.6871 33.2357 17.384 36.2058 18.6009 38.5274C19.6707 40.5686 21.7407 41.837 24.0047 41.837C24.3502 41.837 24.6972 41.8067 25.0382 41.7476C27.6265 41.2945 29.7662 39.0941 30.2405 36.3983C30.2556 36.3164 30.2678 36.2331 30.2799 36.1482L30.7785 36.2149L31.9498 36.371C31.9135 36.568 31.8847 36.765 31.865 36.959C31.715 38.4289 32.0347 39.9488 32.7666 41.2414C33.4819 42.5053 34.5821 43.5554 35.8641 44.1979C36.9157 44.7253 38.0932 45.0026 39.2691 45.0026C39.6465 45.0026 40.0268 44.9738 40.4011 44.9177C43.4864 44.4556 46.0096 42.0143 46.5369 38.9835C46.6096 38.5683 46.649 38.1592 46.6551 37.7667C46.6748 34.6253 44.6745 31.8112 41.6786 30.7641C40.9118 30.4959 40.1041 30.3595 39.2752 30.3595C37.0582 30.3595 34.9124 31.346 33.538 32.9993C33.0561 33.5782 32.6697 34.2192 32.3848 34.9087L31.23 34.7586L30.3344 34.642C30.1329 32.1249 28.519 29.9185 26.2429 29.0896C25.6156 28.8608 24.9518 28.7456 24.2699 28.7456H24.2684ZM23.9805 40.3458C22.5121 40.3458 21.1088 39.626 20.2238 38.4213C19.0403 36.8105 18.9585 34.4404 20.0223 32.6598C20.9224 31.1535 22.5242 30.217 24.2047 30.217C24.4896 30.217 24.776 30.2443 25.0518 30.3004C27.0355 30.6944 28.5554 32.3825 28.8357 34.501C28.866 34.7329 28.8782 34.992 28.8721 35.2936C28.8115 37.4439 27.4264 39.4154 25.5049 40.0852C25.0109 40.258 24.4972 40.3443 23.9805 40.3443V40.3458ZM39.204 43.463C38.5721 43.463 37.9492 43.3645 37.3552 43.1705C36.2399 42.8053 35.261 42.1158 34.526 41.1732C33.0849 39.3245 32.9515 36.6347 34.2032 34.6298C35.2625 32.9341 37.1825 31.8809 39.2161 31.8809C39.5843 31.8809 39.9526 31.9158 40.3117 31.987C42.7439 32.4613 44.6321 34.4101 45.0079 36.8377C45.0503 37.1075 45.0685 37.4045 45.067 37.747C45.0291 40.2095 43.3652 42.4462 41.0209 43.1842C40.4329 43.369 39.8207 43.463 39.204 43.463Z" fill="black"/>
<path d="M44.1229 37.1635C43.9713 37.1635 43.841 37.0499 43.8228 36.8953C43.5501 34.5813 41.3664 33.7373 41.3452 33.7297C41.1891 33.6706 41.1088 33.4963 41.1679 33.3387C41.227 33.1826 41.4012 33.1038 41.5588 33.1614C41.6634 33.2008 44.1108 34.1479 44.426 36.8241C44.4457 36.9908 44.3259 37.1408 44.1608 37.1605C44.1486 37.1605 44.1365 37.162 44.1244 37.162L44.1229 37.1635Z" fill="white"/>
<path d="M44.2714 38.4198C44.4765 38.4198 44.6427 38.2536 44.6427 38.0485C44.6427 37.8435 44.4765 37.6772 44.2714 37.6772C44.0664 37.6772 43.9001 37.8435 43.9001 38.0485C43.9001 38.2536 44.0664 38.4198 44.2714 38.4198Z" fill="white"/>
<path d="M23.7819 39.4579C23.987 39.4579 24.1532 39.2916 24.1532 39.0866C24.1532 38.8816 23.987 38.7153 23.7819 38.7153C23.5769 38.7153 23.4106 38.8816 23.4106 39.0866C23.4106 39.2916 23.5769 39.4579 23.7819 39.4579Z" fill="white"/>
<path d="M22.4468 39.0925C22.4241 39.0925 22.4014 39.0894 22.3787 39.0849C20.2753 38.6 19.7919 35.8389 19.7722 35.7223C19.7449 35.5571 19.8555 35.401 20.0207 35.3737C20.1874 35.3464 20.342 35.4586 20.3693 35.6222C20.3738 35.6465 20.8072 38.1014 22.5135 38.4954C22.6772 38.5333 22.7787 38.6954 22.7408 38.8591C22.709 38.9985 22.5832 39.094 22.4453 39.094L22.4468 39.0925Z" fill="white"/>
<path d="M29.9088 43.695C31.2805 43.695 32.3925 42.7465 32.3925 41.5765C32.3925 40.4065 31.2805 39.458 29.9088 39.458C28.537 39.458 27.425 40.4065 27.425 41.5765C27.425 42.7465 28.537 43.695 29.9088 43.695Z" fill="#CCFC56"/>
<path d="M32.1091 41.5771C32.0985 42.4151 31.4439 43.0606 30.6741 43.297C29.833 43.5546 28.8389 43.3789 28.2085 42.7409C27.6388 42.1635 27.5478 41.2967 28.0222 40.6315C28.5268 39.9238 29.4997 39.6313 30.3331 39.7753C31.2348 39.9314 32.0955 40.5981 32.1076 41.5771C32.1122 41.9423 32.6804 41.9438 32.6759 41.5771C32.6622 40.4905 31.8515 39.6359 30.8499 39.3176C29.8482 38.9994 28.5404 39.2358 27.7721 40.0465C27.0614 40.7982 26.925 41.9498 27.5297 42.8091C28.1828 43.7365 29.3618 44.1108 30.4559 43.9305C31.6212 43.738 32.6592 42.8076 32.6759 41.5771C32.6804 41.2119 32.1122 41.2103 32.1076 41.5771H32.1091Z" fill="black"/>
<path d="M27.8614 93.1497C29.7935 93.9862 32.0953 93.4483 33.4274 91.8116C33.6577 91.5283 33.2304 91.154 33 91.4373C32.453 92.1087 31.715 92.6012 30.8785 92.8376C29.9708 93.0937 28.9676 93.0103 28.1129 92.639C27.778 92.4936 27.5249 93.0027 27.8614 93.1482V93.1497Z" fill="black"/>
</g>
<defs>
<clipPath id="clip0_2802_64122">
<rect width="73.8051" height="108.253" fill="white" transform="translate(2 3.69824)"/>
</clipPath>
</defs>
</svg>
