<svg width="36" height="36" viewBox="0 0 36 36" fill="none" xmlns="http://www.w3.org/2000/svg">
<g clip-path="url(#clip0_2430_47285)">
<circle cx="18" cy="18" r="18" fill="#C9A6FD"/>
<mask id="mask0_2430_47285" style="mask-type:alpha" maskUnits="userSpaceOnUse" x="0" y="0" width="36" height="36">
<circle cx="18" cy="18" r="18" fill="#C9A6FD"/>
</mask>
<g mask="url(#mask0_2430_47285)">
<g clip-path="url(#clip1_2430_47285)">
<path d="M2.30436 32.8156C2.30436 32.8156 1.15582 38.4814 1.23324 41.4157L2.30436 32.8156Z" fill="#674AD6"/>
<path d="M1.46912 32.5842C1.03062 34.7507 0.677051 36.9496 0.4708 39.1501C0.400316 39.9024 0.349476 40.6592 0.367386 41.4149C0.377785 41.8678 0.758511 42.3028 1.23399 42.2815C1.70946 42.2601 2.11214 41.9002 2.10059 41.4149C2.08557 40.7695 2.12138 40.1242 2.17511 39.4812C2.20631 39.1074 2.24444 38.7342 2.28662 38.3615C2.30684 38.1842 2.32821 38.0074 2.35017 37.83C2.36114 37.7416 2.3727 37.6532 2.38425 37.5648C2.38888 37.5267 2.39407 37.4892 2.39927 37.4516C2.38252 37.5776 2.39292 37.4978 2.4039 37.4181C2.57317 36.1974 2.77422 34.9806 3.00127 33.7691C3.04634 33.5276 3.09255 33.2861 3.14108 33.0447C3.23063 32.6015 3.01398 32.0874 2.53562 31.9787C2.10405 31.8805 1.56561 32.1087 1.4697 32.5842H1.46912Z" fill="black"/>
<path d="M18.8799 42.1162C28.3216 42.1162 35.9756 34.4622 35.9756 25.0205C35.9756 15.5788 28.3216 7.9248 18.8799 7.9248C9.43819 7.9248 1.78418 15.5788 1.78418 25.0205C1.78418 34.4622 9.43819 42.1162 18.8799 42.1162Z" fill="#674AD6"/>
<path d="M35.7592 25.02C35.7569 26.7948 35.4825 28.5603 34.9342 30.2485C34.386 31.9366 33.6309 33.4035 32.6453 34.7924C31.6596 36.1812 30.4805 37.4014 29.1402 38.4257C27.7911 39.457 26.2873 40.2889 24.6922 40.8724C23.037 41.4779 21.2905 41.8211 19.5296 41.8869C17.7548 41.9534 15.9759 41.7454 14.267 41.2612C12.6158 40.7933 11.0427 40.0705 9.60872 39.1277C8.19963 38.2016 6.93439 37.0617 5.85923 35.7629C4.77714 34.4561 3.88916 32.9783 3.24961 31.4068C2.61006 29.8354 2.18369 28.0756 2.05081 26.3366C1.91505 24.552 2.05544 22.7483 2.48007 21.0094C2.9047 19.2704 3.54772 17.7469 4.43627 16.2812C5.32483 14.8155 6.41154 13.519 7.67794 12.393C8.94317 11.2682 10.3783 10.338 11.9191 9.63726C13.4998 8.91856 15.2018 8.44713 16.9269 8.25128C18.7005 8.04965 20.5071 8.12129 22.257 8.47832C23.9498 8.82323 25.5848 9.42812 27.0932 10.2705C28.5682 11.0937 29.9143 12.1365 31.0825 13.3573C32.257 14.585 33.2421 15.9871 34.0006 17.5071C34.7719 19.0532 35.2976 20.7188 35.5634 22.4254C35.6974 23.2833 35.7592 24.1522 35.7604 25.0206C35.7604 25.2996 36.1943 25.2996 36.1937 25.0206C36.1914 23.21 35.9123 21.3993 35.3531 19.6771C34.8135 18.015 34.0208 16.4349 33.0075 15.0113C31.9942 13.5878 30.7786 12.3295 29.3955 11.2682C28.0113 10.2057 26.4676 9.35995 24.8297 8.75853C23.1392 8.13688 21.3512 7.79024 19.5532 7.72034C17.7351 7.64985 15.9025 7.86477 14.1514 8.36104C12.4662 8.83825 10.8526 9.57602 9.38918 10.5385C7.93734 11.4929 6.62819 12.664 5.52357 14.0055C4.41316 15.3539 3.51132 16.8601 2.84809 18.476C2.16809 20.1329 1.75732 21.8945 1.61867 23.6796C1.48001 25.4648 1.62502 27.3477 2.05601 29.1231C2.47025 30.8303 3.15082 32.4751 4.06133 33.9772C4.96201 35.4631 6.08801 36.815 7.38791 37.9682C8.68781 39.1213 10.1581 40.0803 11.7411 40.7956C13.3709 41.5316 15.103 42.0094 16.8789 42.2168C18.6988 42.4288 20.5527 42.3479 22.3483 41.9846C24.0763 41.6344 25.7506 41.0128 27.2908 40.1555C28.8311 39.2981 30.2026 38.2316 31.4026 36.9733C32.5996 35.719 33.6107 34.2839 34.3831 32.7316C35.1728 31.144 35.7188 29.4368 35.9869 27.6839C36.1215 26.8023 36.1908 25.912 36.192 25.02C36.192 24.7409 35.7592 24.7409 35.7587 25.02H35.7592Z" fill="black"/>
<path d="M17.5234 42.1162C26.9651 42.1162 34.6192 34.4622 34.6192 25.0205C34.6192 15.5788 26.9651 7.9248 17.5234 7.9248C8.08175 7.9248 0.427734 15.5788 0.427734 25.0205C0.427734 34.4622 8.08175 42.1162 17.5234 42.1162Z" fill="#A495FC"/>
<path d="M34.3777 25.9407C34.2795 27.7115 33.9069 29.4615 33.2685 31.1167C32.6584 32.6996 31.7993 34.1948 30.7409 35.5207C29.6825 36.8466 28.4334 38.0108 27.0353 38.9646C25.6372 39.9184 24.0866 40.6683 22.4608 41.1652C20.7744 41.6805 19.0135 41.9261 17.2502 41.8966C15.4749 41.8671 13.7093 41.5604 12.0298 40.9849C10.407 40.4291 8.87425 39.6186 7.49463 38.6006C6.14331 37.6035 4.937 36.396 3.94099 35.0441C2.93111 33.6731 2.12459 32.1525 1.56766 30.543C0.997437 28.8935 0.686038 27.1603 0.64733 25.4156C0.608622 23.6708 0.848382 21.8342 1.36603 20.1201C1.88368 18.4059 2.61105 16.9212 3.57702 15.5051C4.54299 14.0891 5.70134 12.8545 7.02608 11.799C8.34447 10.7481 9.82983 9.89362 11.4018 9.28353C13.027 8.65265 14.7475 8.27308 16.4876 8.17024C18.2711 8.06451 20.0678 8.23668 21.797 8.68731C23.469 9.12292 25.067 9.81736 26.5281 10.74C27.9562 11.6413 29.2434 12.7586 30.3428 14.04C31.4486 15.3278 32.3557 16.786 33.0304 18.343C33.7145 19.9219 34.1518 21.6158 34.32 23.3282C34.4055 24.1966 34.4222 25.0701 34.3766 25.9413C34.3621 26.2198 34.7954 26.2192 34.8099 25.9413C34.9052 24.133 34.7215 22.3108 34.2552 20.5603C33.8063 18.8728 33.0963 17.2516 32.1621 15.7761C31.2331 14.3092 30.084 12.9793 28.7627 11.8521C27.4357 10.7198 25.9428 9.78616 24.3379 9.10155C22.7329 8.41693 20.9165 7.94781 19.1175 7.78085C17.3184 7.61388 15.4656 7.73116 13.6897 8.13211C11.9137 8.53306 10.3313 9.1703 8.81821 10.0525C7.31784 10.9272 5.94746 12.0295 4.77292 13.3086C3.59608 14.59 2.60989 16.0476 1.86808 17.6214C1.10143 19.2465 0.595334 20.9809 0.360775 22.7621C0.126215 24.5432 0.172433 26.4226 0.506941 28.2211C0.828739 29.9491 1.42207 31.6256 2.25054 33.1751C3.07901 34.7246 4.12355 36.1169 5.35932 37.3377C6.59394 38.5579 8.01459 39.5943 9.55598 40.3933C11.1372 41.2131 12.8444 41.7868 14.6007 42.0838C16.3571 42.3807 18.2659 42.4108 20.0852 42.1433C21.8311 41.8868 23.5325 41.3541 25.1184 40.5805C26.6817 39.8179 28.1278 38.8144 29.3942 37.6225C30.6565 36.4347 31.7421 35.0539 32.5966 33.546C33.4701 32.0046 34.105 30.3252 34.4673 28.5908C34.6493 27.7184 34.7636 26.831 34.8128 25.9413C34.8284 25.6629 34.3951 25.6634 34.3795 25.9413L34.3777 25.9407Z" fill="black"/>
<path d="M32.8195 25.0205C32.8172 26.6278 32.5688 28.2275 32.0725 29.7562C31.5959 31.2237 30.8928 32.6143 30.0002 33.872C29.1133 35.1222 28.0341 36.2413 26.8163 37.172C25.5944 38.1062 24.2315 38.8584 22.7872 39.387C21.288 39.9353 19.7055 40.2455 18.111 40.3051C16.5043 40.3651 14.8919 40.1762 13.3447 39.7377C11.8495 39.3142 10.4237 38.6597 9.12493 37.8058C7.84871 36.9669 6.70191 35.9351 5.72843 34.7588C4.75495 33.5826 3.93977 32.2301 3.35799 30.8019C2.76235 29.3391 2.39376 27.7844 2.27359 26.2095C2.15053 24.5936 2.27821 22.9598 2.66298 21.3849C3.031 19.877 3.63011 18.4298 4.43489 17.1021C5.23043 15.7895 6.22355 14.6 7.37093 13.5803C8.51657 12.5617 9.8159 11.7182 11.2117 11.0833C12.6479 10.4299 14.1922 10.0029 15.7602 9.82442C17.3669 9.64185 19.003 9.70829 20.5877 10.0312C22.1205 10.3438 23.6018 10.8921 24.9675 11.6547C26.3033 12.4005 27.5234 13.3451 28.5807 14.4509C29.6379 15.5567 30.5369 16.8329 31.2238 18.2091C31.9223 19.6089 32.3995 21.1174 32.6404 22.6634C32.7617 23.4428 32.8189 24.2319 32.8201 25.0211C32.8201 25.2071 33.109 25.2071 33.109 25.0211C33.1066 23.3902 32.8553 21.7604 32.3515 20.2086C31.8651 18.7117 31.151 17.2893 30.2382 16.0067C29.3254 14.7242 28.2363 13.5976 26.9948 12.6443C25.7486 11.6876 24.3586 10.9244 22.8836 10.3831C21.3619 9.82442 19.7523 9.51129 18.1329 9.44831C16.4951 9.38476 14.8451 9.5783 13.2679 10.0249C11.7501 10.4547 10.2971 11.1191 8.97934 11.9863C7.67193 12.846 6.49335 13.9015 5.4985 15.1095C4.50133 16.3199 3.69077 17.6741 3.09512 19.1248C2.49948 20.5755 2.11124 22.2029 1.98645 23.8108C1.85877 25.4515 1.99165 27.1142 2.37989 28.7134C2.75311 30.2513 3.3655 31.7321 4.18589 33.0851C4.99702 34.4237 6.01094 35.6404 7.18201 36.6792C8.3525 37.7174 9.67724 38.5805 11.1031 39.2247C12.5659 39.8856 14.1235 40.3149 15.7174 40.5009C17.3565 40.6921 19.0261 40.6205 20.6432 40.2929C22.2002 39.9775 23.7075 39.4182 25.0952 38.6464C26.4639 37.8849 27.7175 36.9138 28.7985 35.7808C29.8765 34.6508 30.7865 33.359 31.4821 31.9603C32.1776 30.5616 32.6837 28.9925 32.9252 27.4135C33.0466 26.6214 33.1078 25.8224 33.109 25.0211C33.109 24.8351 32.8201 24.8351 32.8201 25.0211L32.8195 25.0205Z" fill="black"/>
<path d="M22.6803 19.9233C22.667 20.371 22.6278 21.6831 21.7398 22.7287C21.5104 22.9985 20.898 23.7196 19.9263 23.7843C19.04 23.8432 18.3999 23.3203 18.2243 23.1719C16.9827 22.125 17.0122 20.2376 17.0197 19.776C17.0272 19.2964 17.052 17.7111 18.1255 16.6753C18.3132 16.4944 18.8609 15.9808 19.6917 15.9126C20.6531 15.8341 21.3602 16.4037 21.6254 16.6545C22.7462 17.7117 22.6959 19.3987 22.6803 19.9233Z" fill="white"/>
<path d="M22.536 19.9248C22.5164 20.5788 22.4211 21.2189 22.142 21.8255C21.863 22.4322 21.3638 23.0555 20.756 23.3906C20.3817 23.5969 19.949 23.687 19.5237 23.6286C19.1615 23.579 18.8201 23.4276 18.5214 23.2202C18.4948 23.2017 18.4688 23.1832 18.4434 23.1641C18.4388 23.1607 18.4064 23.1364 18.4214 23.148C18.4347 23.1578 18.4012 23.1318 18.3954 23.1272C18.3509 23.0913 18.307 23.0544 18.2643 23.0162C18.1199 22.8863 17.9876 22.7412 17.8749 22.5835C17.6565 22.2779 17.4982 21.9347 17.3879 21.576C17.218 21.0219 17.1597 20.4783 17.1625 19.8982C17.1654 19.3713 17.2036 18.8802 17.3364 18.3753C17.5236 17.6653 17.894 17.0217 18.4728 16.5606C18.4948 16.5433 18.5087 16.5329 18.5404 16.5092C18.5763 16.4832 18.6127 16.4578 18.6496 16.4335C18.7265 16.3833 18.8056 16.3365 18.8871 16.2943C19.0743 16.1973 19.2747 16.1273 19.4821 16.0869C19.9068 16.0037 20.3563 16.0638 20.7509 16.2406C21.0386 16.3694 21.2824 16.5347 21.5019 16.7374C21.7983 17.0113 22.0248 17.3469 22.1883 17.7144C22.4592 18.3245 22.5424 18.9825 22.5407 19.6405C22.5407 19.7347 22.5384 19.8295 22.5355 19.9236C22.5297 20.1097 22.8186 20.1097 22.8243 19.9236C22.8422 19.3141 22.8035 18.7 22.6354 18.1107C22.4193 17.355 21.986 16.6831 21.3332 16.2365C20.9831 15.9968 20.5827 15.835 20.161 15.7807C19.6792 15.7189 19.1904 15.8165 18.7588 16.0361C18.0858 16.3781 17.5658 16.9934 17.2712 17.6809C17.0025 18.3089 16.8927 18.9889 16.8766 19.6689C16.865 20.1773 16.891 20.6845 16.991 21.1842C17.1481 21.9717 17.4988 22.7476 18.1216 23.2745C18.7207 23.7812 19.5029 24.0544 20.2852 23.8771C21.0143 23.7118 21.6019 23.1809 22.0305 22.5899C22.5216 21.9116 22.751 21.0808 22.8093 20.2541C22.8168 20.1443 22.8214 20.0346 22.8243 19.9242C22.8301 19.7382 22.5412 19.7382 22.5355 19.9242L22.536 19.9248Z" fill="black"/>
<path d="M20.729 19.9131C20.721 20.2967 20.6967 21.4198 20.145 22.3147C20.0028 22.5458 19.6227 23.1628 19.0195 23.2183C18.4695 23.2691 18.072 22.8208 17.9634 22.6937C17.1927 21.7971 17.2112 20.1811 17.2158 19.786C17.2205 19.3752 17.2361 18.0181 17.9022 17.1313C18.0189 16.9764 18.3586 16.5362 18.8745 16.4784C19.4713 16.4114 19.9098 16.899 20.0745 17.1134C20.7701 18.0187 20.7389 19.4636 20.729 19.9125V19.9131Z" fill="black"/>
<path d="M20.5841 19.914C20.5725 20.4363 20.5188 20.9562 20.3663 21.4583C20.2732 21.7651 20.1415 22.0528 19.9699 22.3232C19.8417 22.5254 19.7048 22.7068 19.5112 22.8599C19.294 23.032 19.0184 23.1239 18.7428 23.0569C18.499 22.9974 18.3026 22.8495 18.1362 22.6727C17.7653 22.2798 17.5816 21.7477 17.4759 21.2272C17.3869 20.7881 17.3563 20.3369 17.3586 19.8834C17.3603 19.472 17.3811 19.059 17.4528 18.658C17.5065 18.357 17.5845 18.0577 17.7023 17.7752C17.7624 17.632 17.8346 17.4927 17.9184 17.3616C17.9554 17.3032 17.9952 17.2472 18.0363 17.1917C18.0594 17.1605 18.0241 17.2067 18.0513 17.1727C18.0692 17.1495 18.0877 17.127 18.1067 17.1051C18.272 16.9104 18.4759 16.7347 18.7243 16.6585C19.0167 16.5689 19.3073 16.644 19.5551 16.8116C19.6522 16.8769 19.74 16.956 19.8226 17.0432C19.8573 17.0796 19.8908 17.1178 19.9231 17.1565C19.9301 17.1651 19.9734 17.22 19.9491 17.1883C19.974 17.2206 19.9982 17.2541 20.0214 17.2876C20.197 17.5441 20.3166 17.8313 20.4009 18.1294C20.5448 18.6361 20.5887 19.1629 20.587 19.6881C20.587 19.7632 20.5852 19.8389 20.5835 19.914C20.5794 20.1 20.8683 20.1 20.8724 19.914C20.8833 19.4154 20.8608 18.9163 20.7666 18.4252C20.6522 17.8284 20.4217 17.2281 19.9826 16.7942C19.7654 16.5793 19.4916 16.3991 19.186 16.3477C18.837 16.2893 18.4938 16.3927 18.2142 16.6053C17.7387 16.967 17.4499 17.528 17.2864 18.0918C17.1362 18.6124 17.0801 19.1583 17.0709 19.6985C17.0639 20.1162 17.0795 20.5328 17.1367 20.947C17.2188 21.5467 17.3852 22.1724 17.7538 22.6634C18.0987 23.1239 18.6504 23.5029 19.2495 23.3203C19.8001 23.1528 20.1785 22.6086 20.4183 22.114C20.7094 21.5132 20.8308 20.8442 20.8631 20.1815C20.8677 20.0925 20.87 20.003 20.8718 19.914C20.8758 19.728 20.587 19.728 20.5829 19.914H20.5841Z" fill="black"/>
<path d="M20.8892 17.7488L19.1733 19.2087L21.2439 19.8488L20.8892 17.7488Z" fill="white"/>
<path d="M16.798 20.1014C16.7847 20.5491 16.7454 21.8612 15.8575 22.9068C15.6281 23.1767 15.0157 23.8977 14.0439 23.9624C13.1577 24.0213 12.5176 23.4984 12.3419 23.35C11.1004 22.3031 11.1299 20.4157 11.1374 19.9541C11.1449 19.4745 11.1697 17.8892 12.2432 16.8534C12.4309 16.6725 12.9786 16.1589 13.8094 16.0907C14.7707 16.0122 15.4779 16.5818 15.7431 16.8326C16.8639 17.8898 16.8136 19.5768 16.798 20.1014Z" fill="white"/>
<path d="M16.6527 20.1006C16.6331 20.7546 16.5378 21.3947 16.2587 22.0013C15.9699 22.6293 15.4805 23.2313 14.8727 23.5664C14.4984 23.7726 14.0657 23.8628 13.6404 23.8044C13.2782 23.7547 12.9368 23.6034 12.6381 23.396C12.6115 23.3775 12.5855 23.359 12.5601 23.3399C12.5555 23.3365 12.5231 23.3122 12.5381 23.3237C12.5514 23.3336 12.5179 23.3076 12.5121 23.3029C12.4676 23.2671 12.4237 23.2302 12.381 23.192C12.2366 23.062 12.1042 22.917 11.9916 22.7593C11.7732 22.4537 11.6149 22.1105 11.5046 21.7517C11.3347 21.1977 11.2764 20.654 11.2792 20.074C11.2821 19.5471 11.3203 19.056 11.4531 18.5511C11.6403 17.8411 12.0107 17.1975 12.5895 16.7364C12.6115 16.7191 12.6254 16.7087 12.6571 16.685C12.693 16.659 12.7294 16.6336 12.7663 16.6093C12.8432 16.5591 12.9223 16.5123 13.0038 16.4701C13.191 16.373 13.3914 16.3031 13.5988 16.2627C14.0235 16.1795 14.473 16.2396 14.8675 16.4164C15.1553 16.5452 15.3991 16.7104 15.6186 16.9132C15.915 17.1871 16.1415 17.5227 16.3049 17.8902C16.5759 18.5003 16.6591 19.1583 16.6574 19.8163C16.6574 19.9105 16.6551 20.0052 16.6522 20.0994C16.6464 20.2854 16.9353 20.2854 16.941 20.0994C16.9589 19.4899 16.9202 18.8758 16.7521 18.2865C16.536 17.5308 16.1027 16.8589 15.4499 16.4123C15.0998 16.1726 14.6994 16.0108 14.2777 15.9565C13.7959 15.8947 13.3071 15.9923 12.8755 16.2118C12.2025 16.5539 11.6825 17.1692 11.3879 17.8567C11.1192 18.4847 11.0094 19.1646 10.9933 19.8446C10.9817 20.353 11.0077 20.8603 11.1077 21.36C11.2648 22.1475 11.6155 22.9234 12.2383 23.4503C12.8611 23.9772 13.6196 24.2302 14.4019 24.0528C15.131 23.8876 15.7186 23.3567 16.1472 22.7657C16.6383 22.0874 16.8677 21.2566 16.926 20.4299C16.9335 20.3201 16.9381 20.2103 16.941 20.1C16.9468 19.914 16.6579 19.914 16.6522 20.1L16.6527 20.1006Z" fill="black"/>
<path d="M14.8467 20.091C14.8386 20.4747 14.8144 21.5978 14.2626 22.4927C14.1205 22.7238 13.7404 23.3408 13.1372 23.3963C12.5872 23.4471 12.1897 22.9988 12.0811 22.8717C11.3104 21.975 11.3289 20.3591 11.3335 19.9639C11.3381 19.5532 11.3537 18.1961 12.0199 17.3093C12.1366 17.1544 12.4763 16.7142 12.9922 16.6564C13.589 16.5894 14.0275 17.077 14.1921 17.2913C14.8877 18.1967 14.8565 19.6416 14.8467 20.0905V20.091Z" fill="black"/>
<path d="M14.7022 20.0898C14.6907 20.6121 14.6369 21.132 14.4844 21.6341C14.3914 21.9408 14.2597 22.2286 14.0881 22.4989C13.9598 22.7011 13.8229 22.8825 13.6294 23.0356C13.4122 23.2078 13.1366 23.2997 12.861 23.2327C12.6172 23.1731 12.4208 23.0252 12.2544 22.8485C11.8835 22.4556 11.6998 21.9235 11.594 21.403C11.5051 20.9639 11.4744 20.5127 11.4767 20.0592C11.4785 19.6478 11.4993 19.2347 11.5709 18.8338C11.6246 18.5328 11.7026 18.2335 11.8205 17.951C11.8806 17.8077 11.9528 17.6685 12.0366 17.5374C12.0735 17.479 12.1134 17.423 12.1544 17.3675C12.1775 17.3363 12.1423 17.3825 12.1695 17.3484C12.1874 17.3253 12.2058 17.3028 12.2249 17.2808C12.3901 17.0861 12.5941 16.9105 12.8425 16.8343C13.1348 16.7447 13.4254 16.8198 13.6733 16.9874C13.7703 17.0526 13.8582 17.1318 13.9408 17.219C13.9754 17.2554 14.009 17.2936 14.0413 17.3323C14.0482 17.3409 14.0916 17.3958 14.0673 17.364C14.0921 17.3964 14.1164 17.4299 14.1395 17.4634C14.3152 17.7199 14.4347 18.0071 14.5191 18.3052C14.6629 18.8118 14.7069 19.3387 14.7051 19.8639C14.7051 19.939 14.7034 20.0147 14.7017 20.0898C14.6976 20.2758 14.9865 20.2758 14.9905 20.0898C15.0015 19.5912 14.979 19.092 14.8848 18.601C14.7704 18.0042 14.5399 17.4039 14.1008 16.97C13.8836 16.7551 13.6097 16.5749 13.3041 16.5234C12.9552 16.4651 12.612 16.5685 12.3324 16.7811C11.8569 17.1428 11.568 17.7037 11.4045 18.2676C11.2543 18.7881 11.1983 19.3341 11.189 19.8743C11.1821 20.292 11.1977 20.7085 11.2549 21.1228C11.3369 21.7225 11.5033 22.3481 11.8719 22.8392C12.2168 23.2997 12.7686 23.6787 13.3677 23.4961C13.9182 23.3286 14.2967 22.7843 14.5364 22.2898C14.8276 21.6889 14.9489 21.0199 14.9813 20.3573C14.9859 20.2683 14.9882 20.1788 14.9899 20.0898C14.994 19.9038 14.7051 19.9038 14.7011 20.0898H14.7022Z" fill="black"/>
<path d="M15.0079 17.9246L13.2915 19.3845L15.3621 20.0246L15.0079 17.9246Z" fill="white"/>
<path d="M16.8865 24.4654C17.7058 24.4654 18.3701 23.9722 18.3701 23.3637C18.3701 22.7552 17.7058 22.262 16.8865 22.262C16.0671 22.262 15.4028 22.7552 15.4028 23.3637C15.4028 23.9722 16.0671 24.4654 16.8865 24.4654Z" fill="#CCFC56"/>
<path d="M18.2609 23.3631C18.2557 23.8542 17.7953 24.1778 17.3631 24.2945C16.8542 24.4314 16.2314 24.3534 15.8258 23.9952C15.6658 23.8536 15.5392 23.6653 15.5144 23.4486C15.4896 23.232 15.5641 23.0246 15.6993 22.8611C16.039 22.4497 16.641 22.3146 17.15 22.3879C17.6509 22.4601 18.2546 22.79 18.2604 23.3631C18.2615 23.5024 18.4782 23.503 18.477 23.3631C18.4707 22.7733 17.9484 22.3648 17.4203 22.2227C16.8282 22.0632 16.1222 22.169 15.6588 22.5901C15.4612 22.7698 15.3255 23.0102 15.2977 23.2776C15.27 23.5451 15.3653 23.7895 15.5242 23.9906C15.9125 24.4816 16.6144 24.6365 17.2077 24.5469C17.8011 24.4574 18.4707 24.035 18.4776 23.3626C18.4787 23.2233 18.2621 23.2228 18.2609 23.3626V23.3631Z" fill="black"/>
<path d="M14.3274 26.2614C14.4724 26.3631 14.6353 26.4434 14.7959 26.5167C15.1992 26.7022 15.6256 26.8351 16.0635 26.9096C16.6528 27.0096 17.249 27.0078 17.8371 26.9009C18.3167 26.8137 18.7817 26.6583 19.2254 26.4572C19.4415 26.359 19.6593 26.2521 19.8569 26.1198C20.0106 26.017 19.8661 25.7669 19.7113 25.8703C19.5565 25.9737 19.3918 26.0586 19.226 26.1389C18.8337 26.3296 18.4166 26.478 17.985 26.5763C17.4345 26.7016 16.8671 26.7294 16.3067 26.6566C16.0629 26.6248 15.8214 26.5728 15.5851 26.5046C15.4811 26.4746 15.3789 26.4411 15.2772 26.4047C15.2321 26.3885 15.1877 26.3717 15.1432 26.3538C15.0987 26.3359 15.0623 26.3209 15.0334 26.3088C14.8416 26.2256 14.6457 26.1326 14.473 26.0124C14.4089 25.9679 14.3124 26.0008 14.2754 26.0644C14.2332 26.1366 14.2633 26.2169 14.3274 26.262V26.2614Z" fill="black"/>
<path d="M18.855 14.9865C18.855 14.9865 19.5072 14.5133 20.3577 14.4504C21.6038 14.3579 22.4473 15.0454 22.6091 15.3817" fill="#A495FC"/>
<path d="M18.9284 15.113C19.3022 14.8432 19.78 14.6664 20.2347 14.6087C20.8719 14.5272 21.5444 14.6699 22.0753 15.0368C22.1701 15.1026 22.255 15.1708 22.3446 15.2644C22.363 15.284 22.3809 15.3037 22.3983 15.3245C22.4029 15.3302 22.4075 15.3354 22.4121 15.3412C22.4381 15.3724 22.4075 15.3337 22.4208 15.3528C22.4445 15.3863 22.4665 15.4198 22.4849 15.4568C22.519 15.5267 22.619 15.5457 22.6825 15.5088C22.7542 15.4672 22.7686 15.3817 22.7345 15.3112C22.6444 15.128 22.4786 14.9819 22.3197 14.8594C22.0834 14.678 21.8125 14.5428 21.5299 14.4486C20.7945 14.2042 20.0013 14.2741 19.297 14.5821C19.1191 14.6595 18.94 14.7496 18.7822 14.864C18.7193 14.9097 18.6881 14.99 18.7303 15.0616C18.7666 15.124 18.8643 15.1592 18.9278 15.1136L18.9284 15.113Z" fill="black"/>
<path d="M15.1692 14.9865C15.1692 14.9865 14.5169 14.5133 13.6665 14.4504C12.4203 14.3579 11.5768 15.0454 11.415 15.3817" fill="#A495FC"/>
<path d="M15.2417 14.8621C15.1129 14.7691 14.9684 14.6934 14.8252 14.6252C14.4895 14.4663 14.1348 14.3571 13.765 14.3155C13.0793 14.2381 12.3432 14.4016 11.777 14.8037C11.5916 14.9355 11.3917 15.1001 11.2894 15.3092C11.2554 15.3792 11.2704 15.4652 11.3414 15.5068C11.405 15.5438 11.5044 15.5253 11.539 15.4548C11.554 15.4242 11.5719 15.3947 11.5916 15.3664C11.5974 15.3584 11.6031 15.3508 11.6089 15.3428C11.5858 15.3739 11.6072 15.3451 11.6118 15.3393C11.6263 15.322 11.6401 15.3052 11.6551 15.2884C11.7193 15.2174 11.8163 15.1319 11.8735 15.0885C12.089 14.9262 12.3328 14.802 12.5893 14.7188C13.2543 14.5027 13.9788 14.5582 14.6143 14.8442C14.7801 14.9187 14.9476 15.0042 15.0955 15.1111C15.1591 15.1567 15.2567 15.1221 15.2931 15.0591C15.3359 14.9863 15.3047 14.9071 15.2411 14.8615L15.2417 14.8621Z" fill="black"/>
<path d="M33.1569 18.3434H34.6994C34.8387 18.3434 34.8392 18.1267 34.6994 18.1267H33.1569C33.0177 18.1267 33.0171 18.3434 33.1569 18.3434Z" fill="black"/>
<path d="M29.6359 13.0545H31.0277C31.1669 13.0545 31.1675 12.8379 31.0277 12.8379H29.6359C29.4967 12.8379 29.4961 13.0545 29.6359 13.0545Z" fill="black"/>
<path d="M31.7653 15.6803H33.157C33.2963 15.6803 33.2969 15.4636 33.157 15.4636H31.7653C31.6261 15.4636 31.6255 15.6803 31.7653 15.6803Z" fill="black"/>
<path d="M34.1754 21.2657H35.5672C35.7064 21.2657 35.707 21.0491 35.5672 21.0491H34.1754C34.0362 21.0491 34.0356 21.2657 34.1754 21.2657Z" fill="black"/>
<path d="M34.6193 24.555H36.011C36.1503 24.555 36.1509 24.3384 36.011 24.3384H34.6193C34.4801 24.3384 34.4795 24.555 34.6193 24.555Z" fill="black"/>
<path d="M34.2809 27.9784H35.6727C35.8119 27.9784 35.8125 27.7617 35.6727 27.7617H34.2809C34.1417 27.7617 34.1411 27.9784 34.2809 27.9784Z" fill="black"/>
<path d="M33.5846 30.7667H34.9764C35.1156 30.7667 35.1162 30.55 34.9764 30.55H33.5846C33.4454 30.55 33.4448 30.7667 33.5846 30.7667Z" fill="black"/>
<path d="M32.2672 33.8099H33.659C33.7982 33.8099 33.7988 33.5933 33.659 33.5933H32.2672C32.128 33.5933 32.1274 33.8099 32.2672 33.8099Z" fill="black"/>
<path d="M30.7282 36.016H32.1199C32.2592 36.016 32.2597 35.7993 32.1199 35.7993H30.7282C30.5889 35.7993 30.5884 36.016 30.7282 36.016Z" fill="black"/>
<path d="M34.9764 42.1152C34.9764 42.1152 34.907 35.0986 34.2808 31.3411L34.9764 42.1152Z" fill="#674AD6"/>
<path d="M35.8436 42.1169C35.817 39.4535 35.7119 36.7821 35.4802 34.128C35.3924 33.1193 35.2815 32.1111 35.1168 31.1122C35.0405 30.65 34.468 30.3924 34.0509 30.5068C33.5604 30.6414 33.3692 31.1093 33.4454 31.5727C33.4772 31.7645 33.5067 31.9569 33.5338 32.1498C33.5402 32.1943 33.5459 32.2388 33.5523 32.2839C33.5482 32.255 33.5275 32.0932 33.5482 32.2579C33.5627 32.374 33.5777 32.4907 33.5916 32.6074C33.643 33.0372 33.6869 33.4676 33.7262 33.8992C33.81 34.8201 33.8729 35.7428 33.9244 36.666C34.0087 38.1825 34.063 39.7008 34.0948 41.2191C34.1011 41.5184 34.1069 41.8182 34.1098 42.1175C34.1144 42.5704 34.505 43.0054 34.9764 42.9841C35.4478 42.9627 35.8476 42.6033 35.843 42.1175L35.8436 42.1169Z" fill="black"/>
</g>
</g>
<g clip-path="url(#clip2_2430_47285)">
<circle cx="18" cy="18" r="18" fill="#C9A6FD"/>
<mask id="mask1_2430_47285" style="mask-type:alpha" maskUnits="userSpaceOnUse" x="0" y="0" width="36" height="36">
<circle cx="18" cy="18" r="18" fill="#C9A6FD"/>
</mask>
<g mask="url(#mask1_2430_47285)">
<g clip-path="url(#clip3_2430_47285)">
<path d="M28.9042 20.6229H30.0515C30.1884 20.6229 30.189 20.4099 30.0515 20.4099H28.9042C28.7673 20.4099 28.7667 20.6229 28.9042 20.6229Z" fill="black"/>
<path d="M20.0379 44.565C27.8215 44.565 34.1314 38.2551 34.1314 30.4715C34.1314 22.6878 27.8215 16.3779 20.0379 16.3779C12.2542 16.3779 5.94434 22.6878 5.94434 30.4715C5.94434 38.2551 12.2542 44.565 20.0379 44.565Z" fill="#674AD6"/>
<path d="M33.9179 30.4698C33.9156 31.9301 33.6901 33.382 33.2391 34.7708C32.8062 36.1039 32.1667 37.3654 31.3555 38.5083C30.5547 39.6369 29.5782 40.6508 28.4786 41.4915C27.3789 42.3322 26.1321 43.0251 24.82 43.5051C23.5079 43.9851 22.022 44.2861 20.573 44.3401C19.1126 44.3946 17.65 44.2236 16.2436 43.8255C14.8849 43.4403 13.5915 42.8456 12.4112 42.0697C11.2524 41.3075 10.2119 40.3697 9.32689 39.3012C8.43908 38.2288 7.70919 37.0144 7.18434 35.725C6.6436 34.3964 6.3062 32.9849 6.19771 31.5547C6.08581 30.0864 6.20112 28.6033 6.55044 27.1725C6.885 25.8024 7.42859 24.4892 8.15962 23.2827C8.8827 22.0899 9.78471 21.0112 10.827 20.0842C11.8693 19.1572 13.0491 18.3944 14.3163 17.8179C15.5835 17.2413 17.0115 16.8409 18.427 16.6801C19.8862 16.5143 21.3727 16.5728 22.8121 16.8659C24.2048 17.1499 25.5499 17.6469 26.791 18.3393C28.0048 19.0169 29.1119 19.8746 30.0724 20.8789C31.0386 21.8888 31.8486 23.0424 32.4723 24.2932C33.0959 25.544 33.5384 26.9356 33.7571 28.3397C33.8667 29.0441 33.9173 29.7575 33.9184 30.4698C33.9184 30.7441 34.345 30.7441 34.3444 30.4698C34.3422 28.9742 34.1121 27.4781 33.6503 26.0552C33.1885 24.6323 32.5501 23.3764 31.7134 22.2006C30.8767 21.0243 29.8685 19.9809 28.7234 19.1021C27.58 18.2246 26.3042 17.5265 24.9512 17.0295C23.5982 16.5325 22.0782 16.2308 20.5928 16.1735C19.091 16.115 17.5767 16.2928 16.1305 16.7029C14.7389 17.0971 13.4052 17.7065 12.1965 18.5012C10.9974 19.2896 9.91535 20.2569 9.00255 21.3645C8.08294 22.4812 7.33714 23.7275 6.78787 25.0651C6.22611 26.434 5.88757 27.8893 5.77283 29.3639C5.65582 30.8685 5.77908 32.3942 6.13466 33.8608C6.4766 35.2706 7.03893 36.6299 7.79098 37.871C8.53451 39.0985 9.46491 40.2157 10.5385 41.1677C11.612 42.1197 12.8264 42.9132 14.134 43.504C15.4415 44.0947 16.9167 44.5088 18.3873 44.6803C19.8578 44.8519 21.4216 44.7877 22.9052 44.4878C24.3326 44.1986 25.7158 43.6846 26.9881 42.9763C28.2428 42.2782 29.3936 41.3864 30.3848 40.3475C31.3737 39.3115 32.2093 38.126 32.8471 36.844C33.4992 35.5325 33.9508 34.1227 34.1729 32.6742C34.2848 31.9443 34.3422 31.2076 34.3433 30.4686C34.3433 30.1943 33.9179 30.1943 33.9173 30.4686L33.9179 30.4698Z" fill="black"/>
<path d="M18.9192 44.565C26.7029 44.565 33.0127 38.2551 33.0127 30.4715C33.0127 22.6878 26.7029 16.3779 18.9192 16.3779C11.1356 16.3779 4.82568 22.6878 4.82568 30.4715C4.82568 38.2551 11.1356 44.565 18.9192 44.565Z" fill="#A495FC"/>
<path d="M32.7783 31.2306C32.6977 32.6875 32.3904 34.1269 31.8655 35.4884C31.3645 36.7875 30.6591 38.0155 29.7912 39.1038C28.9227 40.1921 27.8934 41.1526 26.7432 41.9376C25.5879 42.7255 24.3178 43.3395 22.9801 43.7479C21.5925 44.1722 20.1446 44.3738 18.6939 44.35C17.233 44.3256 15.7811 44.0728 14.3991 43.5996C13.0643 43.1424 11.8039 42.475 10.6684 41.6371C9.53298 40.7993 8.5685 39.8269 7.75113 38.7176C6.92013 37.5901 6.25612 36.3393 5.7983 35.0153C5.34048 33.6912 5.07238 32.2331 5.04057 30.7972C5.0082 29.3243 5.20587 27.8509 5.63187 26.4405C6.05788 25.0302 6.65657 23.8089 7.45122 22.6445C8.23678 21.4931 9.19956 20.4645 10.289 19.5966C11.3711 18.7343 12.5912 18.0322 13.8811 17.5318C15.2177 17.0132 16.6331 16.7003 18.0645 16.6151C19.5323 16.5281 21.0097 16.669 22.4325 17.0399C23.8083 17.3983 25.1227 17.9698 26.3246 18.7286C27.4992 19.4705 28.558 20.3895 29.4628 21.4437C30.3722 22.5031 31.118 23.7033 31.673 24.9842C32.2342 26.2798 32.5932 27.6714 32.7312 29.0767C32.8016 29.7924 32.8158 30.5126 32.7778 31.2312C32.7636 31.5049 33.1896 31.5044 33.2038 31.2312C33.2822 29.7378 33.1305 28.2315 32.7454 26.7859C32.3745 25.392 31.7877 24.052 31.0164 22.8337C30.245 21.6153 29.2998 20.523 28.2087 19.592C27.1124 18.6571 25.8798 17.8846 24.5541 17.3194C23.1778 16.7326 21.7214 16.3646 20.2315 16.226C18.7342 16.0868 17.2148 16.1856 15.7476 16.5168C14.3367 16.8354 12.9729 17.3751 11.7232 18.1032C10.4844 18.8252 9.35122 19.7363 8.38105 20.7928C7.40919 21.851 6.59409 23.0552 5.98063 24.3548C5.3456 25.7004 4.92754 27.1352 4.73328 28.6103C4.53618 30.1088 4.57878 31.6344 4.8554 33.1198C5.12123 34.5472 5.61199 35.932 6.29588 37.2123C6.97238 38.4779 7.84372 39.6423 8.86387 40.6511C9.88402 41.6587 11.057 42.5159 12.3304 43.1753C13.6363 43.8524 15.0467 44.3273 16.4974 44.5721C17.9992 44.8254 19.5306 44.8424 21.0369 44.6215C22.4797 44.4096 23.8844 43.9688 25.1942 43.3298C26.4853 42.6999 27.6798 41.87 28.7261 40.8857C29.7724 39.9013 30.6653 38.7636 31.3714 37.5179C32.0774 36.2723 32.6182 34.8573 32.9169 33.4248C33.0674 32.7023 33.1623 31.9679 33.2026 31.2312C33.218 30.9574 32.792 30.9579 32.7766 31.2312L32.7783 31.2306Z" fill="black"/>
<path d="M31.505 30.4714C31.5033 31.7943 31.2988 33.1109 30.8898 34.3691C30.4973 35.5767 29.9185 36.7212 29.1835 37.7567C28.4547 38.7836 27.5675 39.7038 26.5672 40.4689C25.5613 41.238 24.44 41.8577 23.2512 42.2923C22.0169 42.7433 20.715 42.9994 19.4023 43.0483C18.0794 43.0977 16.7531 42.9426 15.4791 42.5814C14.205 42.2201 13.0752 41.6936 12.0062 40.9909C10.9372 40.2883 10.0119 39.4511 9.21047 38.4826C8.40276 37.5068 7.74045 36.4037 7.26219 35.2307C6.77199 34.0265 6.46811 32.7474 6.36927 31.4506C6.26817 30.1203 6.37268 28.7758 6.68963 27.4791C6.99295 26.2374 7.48542 25.0468 8.14772 23.954C8.80264 22.8731 9.62001 21.8949 10.5646 21.0548C11.5092 20.2148 12.5777 19.5223 13.7262 18.9998C14.9065 18.463 16.176 18.1114 17.4643 17.9654C18.7866 17.8149 20.1334 17.8694 21.4375 18.1353C22.7417 18.4011 23.9186 18.8436 25.0427 19.4712C26.1424 20.0852 27.146 20.8629 28.0168 21.7728C28.8876 22.6828 29.6271 23.7336 30.1923 24.8662C30.7575 25.9988 31.1596 27.2604 31.3579 28.5327C31.4578 29.1734 31.5044 29.8221 31.505 30.4702C31.505 30.6531 31.789 30.6531 31.789 30.4702C31.7873 29.124 31.5799 27.7778 31.1636 26.497C30.762 25.261 30.1724 24.0863 29.4192 23.0276C28.666 21.9688 27.764 21.0355 26.7371 20.2471C25.7101 19.4587 24.5599 18.8277 23.3426 18.3806C22.1254 17.9336 20.757 17.661 19.4199 17.6093C18.0681 17.557 16.7054 17.7166 15.4035 18.0853C14.1505 18.4403 12.9508 18.989 11.8625 19.7047C10.7742 20.4204 9.80972 21.2855 8.98838 22.2829C8.16362 23.2843 7.49394 24.4033 7.00147 25.6029C6.509 26.8026 6.18978 28.1448 6.08697 29.4722C5.98189 30.8269 6.09151 32.1998 6.41187 33.5199C6.73223 34.8399 7.22584 36.0123 7.90291 37.1296C8.57998 38.2469 9.40984 39.2398 10.3766 40.0969C11.3434 40.954 12.4368 41.6675 13.6137 42.1991C14.8236 42.7455 16.1107 43.1005 17.4296 43.2545C18.7832 43.4124 20.1612 43.3527 21.4966 43.0824C22.782 42.8222 24.0265 42.3599 25.1722 41.7225C26.302 41.0938 27.3375 40.2917 28.2298 39.3568C29.1222 38.4218 29.8714 37.3574 30.4456 36.2026C31.0329 35.0223 31.4379 33.7528 31.6379 32.4492C31.7379 31.7943 31.789 31.1331 31.7901 30.4708C31.7901 30.2879 31.5061 30.2879 31.5061 30.4708L31.505 30.4714Z" fill="black"/>
<path d="M23.1695 27.7258C23.1587 28.095 23.1263 29.1765 22.3941 30.0382C22.205 30.2608 21.7 30.855 20.8991 30.9084C20.1687 30.9572 19.641 30.5255 19.4961 30.4034C18.4726 29.54 18.497 27.9843 18.5027 27.6043C18.5089 27.2089 18.5294 25.9019 19.4143 25.0482C19.5688 24.8988 20.021 24.4756 20.7054 24.4194C21.4978 24.3547 22.0806 24.8244 22.2998 25.0306C23.224 25.9019 23.1825 27.293 23.1695 27.7252V27.7258Z" fill="white"/>
<path d="M23.0278 27.726C23.0119 28.2622 22.9347 28.7853 22.7046 29.284C22.4683 29.7964 22.069 30.2889 21.5737 30.5621C21.2693 30.7302 20.9171 30.804 20.5706 30.7569C20.2741 30.7166 19.9952 30.5922 19.751 30.4223C19.7305 30.4081 19.7101 30.3934 19.6896 30.378C19.6805 30.3712 19.6714 30.3644 19.6624 30.3576C19.6839 30.3741 19.6646 30.3593 19.655 30.3513C19.6169 30.3207 19.5794 30.2894 19.5431 30.2565C19.4255 30.1508 19.3181 30.0327 19.2261 29.9037C19.0478 29.6532 18.9183 29.3732 18.8279 29.0796C18.6882 28.6223 18.6411 28.181 18.6439 27.7021C18.6462 27.2693 18.6769 26.8711 18.7859 26.457C18.9387 25.8765 19.2398 25.3511 19.7123 24.9734C19.7987 24.9041 19.935 24.8149 20.0532 24.7541C20.202 24.6769 20.361 24.6212 20.5252 24.5877C20.8711 24.5167 21.238 24.5639 21.5607 24.7059C21.697 24.7661 21.8265 24.841 21.9486 24.9262C22.006 24.9666 22.0253 24.9808 22.0741 25.0211C22.1111 25.0512 22.1468 25.083 22.1821 25.1154C22.4246 25.3398 22.6098 25.6141 22.7438 25.9152C22.9671 26.4167 23.0335 26.9552 23.0318 27.4959C23.0318 27.5726 23.0295 27.6499 23.0273 27.7265C23.0216 27.9094 23.3056 27.9094 23.3113 27.7265C23.3266 27.2187 23.2937 26.7064 23.1517 26.2156C22.9705 25.5885 22.6086 25.033 22.0656 24.6638C21.7731 24.4645 21.4385 24.3315 21.0869 24.2872C20.691 24.2372 20.29 24.3185 19.9344 24.4968C19.3721 24.7786 18.9359 25.2932 18.6905 25.8652C18.4678 26.3849 18.3758 26.9472 18.3622 27.5107C18.352 27.9361 18.3741 28.361 18.4587 28.7791C18.59 29.4289 18.8813 30.0696 19.3954 30.5047C19.8918 30.925 20.5377 31.1517 21.1869 31.0108C21.7958 30.8784 22.2849 30.4394 22.6439 29.9492C23.0562 29.3863 23.2488 28.6939 23.2982 28.0049C23.305 27.9123 23.3084 27.8191 23.3113 27.7265C23.317 27.5436 23.0329 27.5436 23.0273 27.7265L23.0278 27.726Z" fill="black"/>
<path d="M21.5606 27.7154C21.5538 28.0317 21.534 28.9576 21.0795 29.6955C20.962 29.8857 20.649 30.3947 20.152 30.4407C19.6987 30.4822 19.371 30.1129 19.2812 30.0084C18.6462 29.2694 18.6609 27.9369 18.6649 27.6114C18.6689 27.2729 18.6814 26.1539 19.2307 25.4229C19.3267 25.2951 19.6073 24.9327 20.0321 24.8844C20.524 24.8287 20.8858 25.2309 21.0216 25.4081C21.5947 26.1545 21.5692 27.3456 21.5612 27.7154H21.5606Z" fill="black"/>
<path d="M21.419 27.7154C21.4099 28.1431 21.3656 28.5686 21.2412 28.9793C21.1657 29.2292 21.0589 29.4632 20.9197 29.6836C20.8152 29.8483 20.709 29.9903 20.5533 30.117C20.3835 30.2561 20.1614 30.3362 19.941 30.2857C19.7399 30.2397 19.5798 30.1198 19.4429 29.9755C19.1396 29.6558 18.9896 29.2218 18.9033 28.7975C18.83 28.4374 18.8044 28.067 18.8061 27.6938C18.8078 27.3604 18.8237 27.0247 18.88 26.701C18.9237 26.4505 18.9873 26.2011 19.085 25.9659C19.1333 25.8495 19.1918 25.737 19.2588 25.6303C19.2906 25.5797 19.3247 25.5308 19.3605 25.4831C19.3651 25.4769 19.3696 25.4706 19.3747 25.4644C19.3719 25.4678 19.3554 25.4888 19.3719 25.4684C19.3844 25.4525 19.3974 25.4366 19.4105 25.4212C19.544 25.2633 19.707 25.1179 19.9075 25.0549C20.1415 24.981 20.3733 25.0372 20.5732 25.1707C20.9373 25.4127 21.1463 25.8217 21.2662 26.2409C21.386 26.6601 21.4224 27.0895 21.4213 27.5217C21.4213 27.5859 21.4201 27.6501 21.4184 27.7149C21.4144 27.8978 21.6985 27.8978 21.7024 27.7149C21.7217 26.8259 21.628 25.7785 20.9566 25.1207C20.7766 24.9441 20.5499 24.7958 20.2972 24.7527C20.0103 24.7038 19.7246 24.7839 19.4917 24.9555C19.0867 25.2548 18.8413 25.7262 18.7028 26.2005C18.5767 26.6339 18.5301 27.0895 18.5227 27.5399C18.517 27.8864 18.5306 28.2317 18.5784 28.5754C18.6477 29.0758 18.788 29.5973 19.0987 30.0051C19.3912 30.3891 19.857 30.7003 20.3579 30.5413C20.8101 30.3976 21.1214 29.9562 21.3213 29.5478C21.565 29.0497 21.6672 28.4947 21.6945 27.9443C21.6985 27.8677 21.7007 27.7904 21.7024 27.7137C21.7064 27.5308 21.4224 27.5308 21.4184 27.7137L21.419 27.7154Z" fill="black"/>
<path d="M21.6936 25.9316L20.2793 27.1353L21.9862 27.6629L21.6936 25.9316Z" fill="white"/>
<path d="M18.3213 27.8708C18.3105 28.24 18.2782 29.3215 17.546 30.1832C17.3568 30.4059 16.8519 31 16.051 31.0534C15.3205 31.1022 14.7928 30.6706 14.648 30.5484C13.6244 29.6851 13.6489 28.1293 13.6545 27.7493C13.6608 27.3539 13.6812 26.0469 14.5662 25.1932C14.7207 25.0438 15.1728 24.6207 15.8573 24.5644C16.6497 24.4997 17.2324 24.9694 17.4517 25.1756C18.3759 26.0469 18.3344 27.438 18.3213 27.8703V27.8708Z" fill="white"/>
<path d="M18.1782 27.871C18.1623 28.4072 18.0851 28.9303 17.855 29.4291C17.6187 29.9414 17.2194 30.4339 16.7241 30.7071C16.4197 30.8752 16.0675 30.9491 15.721 30.9019C15.4245 30.8616 15.1456 30.7372 14.9014 30.5674C14.8809 30.5532 14.8605 30.5384 14.84 30.523C14.8309 30.5162 14.8218 30.5094 14.8127 30.5026C14.8343 30.5191 14.815 30.5043 14.8054 30.4964C14.7673 30.4657 14.7298 30.4344 14.6935 30.4015C14.5759 30.2958 14.4685 30.1777 14.3765 30.0488C14.1982 29.7983 14.0687 29.5182 13.9783 29.2246C13.8386 28.7673 13.7915 28.326 13.7943 27.8471C13.7966 27.4143 13.8272 27.0161 13.9363 26.6021C14.0891 26.0215 14.3901 25.4961 14.8627 25.1184C14.9491 25.0491 15.0854 24.9599 15.2035 24.8992C15.3524 24.8219 15.5114 24.7662 15.6756 24.7327C16.0215 24.6617 16.3884 24.7089 16.711 24.8509C16.8474 24.9111 16.9769 24.9861 17.099 25.0713C17.1564 25.1116 17.1757 25.1258 17.2245 25.1661C17.2615 25.1962 17.2972 25.228 17.3325 25.2604C17.575 25.4848 17.7602 25.7591 17.8942 26.0602C18.1174 26.5617 18.1839 27.1002 18.1822 27.641C18.1822 27.7176 18.1799 27.7949 18.1777 27.8716C18.172 28.0545 18.456 28.0545 18.4617 27.8716C18.477 27.3638 18.4441 26.8514 18.302 26.3607C18.1209 25.7336 17.759 25.1781 17.216 24.8088C16.9235 24.6095 16.5889 24.4766 16.2373 24.4323C15.8414 24.3823 15.4404 24.4635 15.0848 24.6418C14.5225 24.9236 14.0863 25.4382 13.8409 26.0102C13.6182 26.5299 13.5262 27.0923 13.5126 27.6557C13.5023 28.0812 13.5245 28.506 13.6091 28.9241C13.7403 29.5739 14.0317 30.2146 14.5458 30.6497C15.0422 31.07 15.6881 31.2967 16.3373 31.1558C16.9462 31.0235 17.4353 30.5844 17.7942 30.0942C18.2066 29.5313 18.3992 28.8389 18.4486 28.1499C18.4554 28.0573 18.4588 27.9642 18.4617 27.8716C18.4673 27.6887 18.1833 27.6887 18.1777 27.8716L18.1782 27.871Z" fill="black"/>
<path d="M16.7125 27.8626C16.7057 28.179 16.6858 29.1048 16.2314 29.8427C16.1138 30.033 15.8008 30.5419 15.3038 30.5879C14.8506 30.6294 14.5228 30.2602 14.4331 30.1556C13.798 29.4167 13.8128 28.0841 13.8168 27.7586C13.8208 27.4201 13.8333 26.3011 14.3825 25.5701C14.4785 25.4423 14.7591 25.0799 15.184 25.0316C15.6759 24.9759 16.0377 25.3781 16.1735 25.5553C16.7466 26.3017 16.721 27.4928 16.7131 27.8626H16.7125Z" fill="black"/>
<path d="M16.5704 27.8626C16.5613 28.2904 16.517 28.7158 16.3926 29.1265C16.317 29.3764 16.2102 29.6104 16.0711 29.8308C15.9666 29.9955 15.8603 30.1375 15.7047 30.2642C15.5349 30.4034 15.3128 30.4835 15.0924 30.4329C14.8913 30.3869 14.7311 30.267 14.5942 30.1228C14.2909 29.803 14.141 29.369 14.0546 28.9447C13.9814 28.5846 13.9558 28.2142 13.9575 27.8411C13.9592 27.5076 13.9751 27.1719 14.0313 26.8482C14.0751 26.5977 14.1387 26.3483 14.2364 26.1132C14.2847 25.9967 14.3432 25.8843 14.4102 25.7775C14.442 25.7269 14.4761 25.6781 14.5119 25.6304C14.5164 25.6241 14.521 25.6179 14.5261 25.6116C14.5232 25.615 14.5068 25.636 14.5232 25.6156C14.5357 25.5997 14.5488 25.5838 14.5619 25.5684C14.6953 25.4105 14.8584 25.2651 15.0589 25.2021C15.2929 25.1282 15.5246 25.1845 15.7246 25.3179C16.0887 25.5599 16.2977 25.9689 16.4176 26.3881C16.5374 26.8073 16.5738 27.2367 16.5726 27.6689C16.5726 27.7331 16.5715 27.7973 16.5698 27.8621C16.5658 28.045 16.8498 28.045 16.8538 27.8621C16.8731 26.9731 16.7794 25.9257 16.108 25.268C15.9279 25.0913 15.7013 24.9431 15.4485 24.8999C15.1617 24.851 14.876 24.9311 14.6431 25.1027C14.2381 25.402 13.9927 25.8735 13.8541 26.3478C13.728 26.7811 13.6814 27.2367 13.6741 27.6871C13.6684 28.0336 13.682 28.379 13.7297 28.7226C13.799 29.223 13.9393 29.7445 14.25 30.1523C14.5426 30.5363 15.0083 30.8475 15.5093 30.6885C15.9614 30.5448 16.2727 30.1035 16.4727 29.695C16.7163 29.1969 16.8186 28.642 16.8458 28.0916C16.8498 28.0149 16.8521 27.9376 16.8538 27.8609C16.8578 27.678 16.5738 27.678 16.5698 27.8609L16.5704 27.8626Z" fill="black"/>
<path d="M16.8446 26.0767L15.4297 27.2803L17.1371 27.808L16.8446 26.0767Z" fill="white"/>
<path d="M17.2494 30.8386C17.2494 30.8386 14.0219 31.1322 13.7657 32.8544C13.7521 32.947 13.6925 33.3668 13.9288 33.5747C14.244 33.8524 14.8779 33.569 15.0381 33.4969C15.4703 33.3037 15.7453 32.9908 15.9054 32.7584C15.914 32.7459 15.9327 32.755 15.9287 32.7692C15.8049 33.2117 15.9304 33.7246 16.2798 33.8592C16.7512 34.041 17.4624 33.9433 17.7486 33.1952C17.756 33.1759 17.7827 33.1765 17.7901 33.1958C17.9486 33.5991 19.0789 34.5585 20.1502 33.0981C20.2649 33.665 21.9849 34.6476 22.6165 32.8419C22.8539 33.4724 24.4421 33.2833 23.8133 32.1223C23.0096 30.6386 18.6586 30.7386 17.2494 30.8368V30.8386Z" fill="#C6C6C6"/>
<path d="M17.2483 30.7326C17.0137 30.7542 16.7797 30.794 16.5491 30.84C16.06 30.9366 15.5772 31.0746 15.1211 31.2768C14.6496 31.4858 14.1844 31.7801 13.897 32.2191C13.7618 32.4265 13.68 32.6605 13.6516 32.9059C13.6147 33.2194 13.6755 33.6045 13.9993 33.7442C14.3049 33.8766 14.6735 33.7647 14.9655 33.6443C15.3097 33.5017 15.613 33.2921 15.8521 33.0041C15.8783 32.9729 15.9032 32.9411 15.9277 32.9087C15.939 32.8939 15.9504 32.8786 15.9618 32.8633C15.968 32.8547 15.9748 32.8468 15.9799 32.8377C15.9919 32.8178 15.9975 32.8298 15.9697 32.8451H15.8623L15.8726 32.8502L15.8237 32.7866L15.826 32.7985V32.7417C15.7073 33.1791 15.7879 33.7931 16.2707 33.9703C16.6275 34.1015 17.0569 34.0646 17.3738 33.851C17.4755 33.7829 17.5653 33.6994 17.6408 33.6034C17.6817 33.5511 17.7197 33.4966 17.7521 33.4387C17.7703 33.4063 17.7873 33.3728 17.8032 33.3393C17.8089 33.3268 17.8146 33.3137 17.8203 33.3006C17.8254 33.2887 17.8305 33.2773 17.8351 33.2654C17.8532 33.2285 17.8407 33.2353 17.7976 33.2859H17.7408C17.705 33.2751 17.6715 33.1927 17.7033 33.2643C17.705 33.2688 17.7073 33.2728 17.709 33.2773C17.7141 33.2887 17.7198 33.3001 17.726 33.3109C17.7396 33.3353 17.7544 33.3591 17.7709 33.3824C17.8123 33.4415 17.8589 33.4977 17.9095 33.5494C18.0253 33.6676 18.1628 33.7687 18.3111 33.8431C18.6922 34.0334 19.1227 34.0322 19.5016 33.8363C19.8038 33.6801 20.0424 33.4256 20.2423 33.1547L20.0475 33.1291C20.081 33.2859 20.1917 33.4239 20.3053 33.5318C20.457 33.6761 20.6371 33.7869 20.8296 33.8669C21.2545 34.0436 21.7532 34.0373 22.1309 33.7528C22.4212 33.5341 22.6001 33.2103 22.7194 32.8729H22.5138C22.712 33.3824 23.4828 33.4279 23.8566 33.0979C24.09 32.8917 24.1048 32.5651 24.0037 32.2884C23.898 31.9999 23.7111 31.7715 23.4675 31.5886C23.2238 31.4057 22.9409 31.2779 22.6552 31.1751C22.3195 31.0547 21.9708 30.9712 21.6203 30.907C20.8563 30.7662 20.077 30.7099 19.3011 30.6912C18.67 30.6758 18.0378 30.6861 17.4079 30.7236C17.3551 30.727 17.3023 30.7304 17.2494 30.7338C17.1137 30.7434 17.1125 30.9564 17.2494 30.9468C17.805 30.9082 18.3622 30.894 18.9188 30.8979C19.6493 30.9031 20.3826 30.9383 21.1068 31.0388C21.7555 31.1286 22.432 31.2586 23.0187 31.5608C23.2505 31.6801 23.4538 31.8181 23.618 32.0215C23.6396 32.0482 23.6799 32.1067 23.706 32.1521C23.7486 32.2254 23.7844 32.3021 23.8111 32.3827C23.8537 32.5128 23.8691 32.6429 23.831 32.7633C23.8032 32.8502 23.735 32.9337 23.6589 32.9831C23.6078 33.0166 23.5657 33.0359 23.5214 33.0513C23.4947 33.0604 23.4675 33.0683 23.4396 33.0746C23.426 33.078 23.4118 33.0808 23.3976 33.0831C23.3908 33.0842 23.3834 33.0854 23.3766 33.0865C23.3573 33.0893 23.3789 33.0865 23.3675 33.0876C23.2431 33.1024 23.1465 33.095 23.0352 33.0632C22.9722 33.045 22.95 33.0365 22.896 33.0058C22.8421 32.9752 22.8262 32.9632 22.7841 32.9184C22.7597 32.8922 22.7677 32.9025 22.7484 32.8724C22.7415 32.8616 22.7353 32.8508 22.7291 32.8394C22.7262 32.8337 22.7234 32.828 22.7205 32.8224C22.7126 32.8059 22.7296 32.8457 22.7183 32.8167C22.6802 32.7184 22.5496 32.7133 22.5126 32.8167C22.3519 33.2711 22.0259 33.7244 21.5266 33.7704C21.1562 33.8045 20.774 33.659 20.5036 33.4256C20.4684 33.3949 20.4343 33.3631 20.4025 33.329C20.3877 33.3131 20.3735 33.2967 20.3593 33.2796C20.357 33.2773 20.3383 33.2535 20.3536 33.2728C20.3468 33.2637 20.3394 33.2541 20.3332 33.2444C20.3116 33.2132 20.2923 33.1808 20.2752 33.1467C20.2724 33.1416 20.2627 33.1177 20.2741 33.145C20.2707 33.1359 20.2673 33.1274 20.2639 33.1183C20.2588 33.103 20.2548 33.0882 20.2514 33.0723C20.2304 32.9735 20.1065 32.9797 20.0566 33.0467C19.7379 33.4773 19.2505 33.8783 18.6814 33.7516C18.4974 33.7107 18.315 33.6187 18.1759 33.5057C18.0526 33.4051 17.9674 33.312 17.8975 33.1831C17.8765 33.1444 17.9129 33.2001 17.8805 33.1444C17.8618 33.1126 17.8316 33.0893 17.7959 33.0808C17.6817 33.0535 17.6505 33.1626 17.613 33.2416C17.5528 33.3705 17.4727 33.4881 17.3681 33.5846C17.2 33.7403 16.9762 33.8249 16.7484 33.8329C16.5383 33.8402 16.277 33.8022 16.1384 33.6278C15.9606 33.4034 15.9652 33.0842 16.0237 32.8195C16.043 32.7326 15.9953 32.6224 15.8856 32.6514C15.8186 32.669 15.7828 32.7491 15.7431 32.8002C15.6539 32.9155 15.5522 33.0217 15.4415 33.1166C15.2387 33.2904 14.9995 33.412 14.7593 33.4955C14.544 33.5704 14.2344 33.6613 14.0265 33.5193C13.8334 33.3875 13.8385 33.0973 13.8646 32.8917C13.8612 32.9206 13.8669 32.8775 13.8681 32.8706C13.872 32.8445 13.8771 32.8178 13.8828 32.7917C13.8942 32.7406 13.9078 32.69 13.9243 32.64C13.9533 32.5548 13.989 32.4776 14.0356 32.3975C14.1339 32.2282 14.2623 32.0851 14.4111 31.9556C14.7189 31.688 15.0989 31.5012 15.4795 31.358C15.8601 31.2149 16.2151 31.1229 16.5934 31.0473C16.7291 31.0201 16.8655 30.9968 17.0023 30.9763C17.0279 30.9723 17.0529 30.9689 17.0785 30.9655C17.1074 30.9616 17.0569 30.9684 17.0927 30.9638C17.1035 30.9627 17.1142 30.961 17.1256 30.9599C17.1557 30.9559 17.1864 30.9525 17.2165 30.9491C17.2267 30.9479 17.2364 30.9468 17.2466 30.9462C17.3818 30.9337 17.3835 30.7207 17.2466 30.7332L17.2483 30.7326Z" fill="black"/>
<path d="M18.3929 31.4681C19.0683 31.4681 19.6158 31.0615 19.6158 30.5599C19.6158 30.0582 19.0683 29.6516 18.3929 29.6516C17.7174 29.6516 17.1699 30.0582 17.1699 30.5599C17.1699 31.0615 17.7174 31.4681 18.3929 31.4681Z" fill="#CCFC56"/>
<path d="M19.5095 30.5593C19.5044 30.9592 19.1273 31.2188 18.7757 31.3119C18.3644 31.421 17.86 31.3574 17.5323 31.0682C17.4022 30.9535 17.3 30.8018 17.2801 30.6263C17.2602 30.4508 17.3204 30.2889 17.4272 30.1583C17.7021 29.822 18.1952 29.7124 18.6087 29.772C19.0222 29.8317 19.5039 30.0952 19.5095 30.5593C19.5112 30.6962 19.7243 30.6968 19.7225 30.5593C19.7163 30.0702 19.2909 29.7294 18.8524 29.6067C18.3548 29.4676 17.7572 29.5556 17.3681 29.9118C17.204 30.0617 17.0915 30.2617 17.0677 30.4843C17.0438 30.707 17.1239 30.92 17.2596 31.091C17.5828 31.4971 18.1617 31.6255 18.6541 31.5539C19.1625 31.4801 19.7152 31.1256 19.7225 30.5599C19.7243 30.423 19.5112 30.4224 19.5095 30.5599V30.5593Z" fill="black"/>
<path d="M31.808 24.9845H33.0797C33.2166 24.9845 33.2172 24.7715 33.0797 24.7715H31.808C31.6711 24.7715 31.6705 24.9845 31.808 24.9845Z" fill="black"/>
<path d="M30.6595 22.7872H31.8069C31.9438 22.7872 31.9444 22.5742 31.8069 22.5742H30.6595C30.5226 22.5742 30.5221 22.7872 30.6595 22.7872Z" fill="black"/>
<path d="M32.6468 27.3929H33.7942C33.9311 27.3929 33.9317 27.1799 33.7942 27.1799H32.6468C32.5099 27.1799 32.5094 27.3929 32.6468 27.3929Z" fill="black"/>
<path d="M33.0121 30.1041H34.1594C34.2963 30.1041 34.2969 29.8911 34.1594 29.8911H33.0121C32.8752 29.8911 32.8746 30.1041 33.0121 30.1041Z" fill="black"/>
<path d="M32.7337 32.9276H33.8811C34.018 32.9276 34.0186 32.7146 33.8811 32.7146H32.7337C32.5968 32.7146 32.5963 32.9276 32.7337 32.9276Z" fill="black"/>
<path d="M32.1595 35.2237H33.3069C33.4438 35.2237 33.4444 35.0107 33.3069 35.0107H32.1595C32.0226 35.0107 32.0221 35.2237 32.1595 35.2237Z" fill="black"/>
<path d="M14.1105 24.6288L13.873 25.5206L16.3496 26.184L18.007 26.3346L18.5518 25.9534L18.5893 26.2227L18.6597 26.4652L20.7886 25.9534L22.412 25.6149L23.009 25.1054L21.986 23.8398L18.6642 24.3369L16.4024 24.0835L14.1105 24.6288Z" fill="#A495FC"/>
<path d="M12.2515 23.8772C13.6533 23.1115 15.6505 24.1771 16.9671 24.5593L12.2515 23.8772Z" fill="#A495FC"/>
<path d="M12.3055 23.9692C12.857 23.6716 13.5068 23.6721 14.1095 23.7789C14.7587 23.8942 15.3819 24.1197 16.0004 24.3424C16.3111 24.4548 16.6218 24.569 16.9393 24.6616C17.0711 24.7002 17.1274 24.4946 16.9961 24.456C16.3855 24.2776 15.7976 24.0305 15.1921 23.8368C14.5582 23.6341 13.8851 23.4637 13.2143 23.5057C12.8593 23.5284 12.5128 23.6148 12.1987 23.7846C12.0783 23.8499 12.1857 24.0339 12.3061 23.9686L12.3055 23.9692Z" fill="black"/>
<path d="M20.0654 24.4392C20.3307 24.3376 20.5977 24.2387 20.8692 24.1558C21.0441 24.1024 21.2213 24.057 21.398 24.0076C21.7343 23.9138 22.0711 23.8303 22.417 23.7792C22.7629 23.7275 23.1128 23.7054 23.4622 23.7065C23.8115 23.7076 24.1852 23.7349 24.5437 23.7838C24.601 23.7917 24.6573 23.7701 24.6749 23.7093C24.6891 23.6599 24.6573 23.5861 24.6005 23.5781C23.9257 23.4867 23.244 23.4628 22.567 23.5458C21.9995 23.6151 21.448 23.7639 20.9004 23.9241C20.5982 24.0127 20.3029 24.1212 20.0092 24.2336C19.8825 24.2825 19.9376 24.4881 20.066 24.4392H20.0654Z" fill="black"/>
<path d="M18.5517 26.4904C18.8539 26.4597 19.1555 26.4052 19.4537 26.3489C20.2637 26.1961 21.0646 25.9939 21.8553 25.7593C22.4937 25.5702 23.1253 25.3589 23.7501 25.1289C23.8779 25.0817 23.8223 24.8761 23.6933 24.9232C22.6783 25.297 21.6445 25.6225 20.5943 25.8815C20.0069 26.0263 19.4134 26.1535 18.8147 26.2422C18.7738 26.2484 18.7329 26.2541 18.6914 26.2598C18.663 26.2637 18.7153 26.2569 18.6874 26.2598C18.6801 26.2609 18.6727 26.2615 18.6653 26.2626C18.6522 26.2643 18.6386 26.266 18.6255 26.2677C18.6011 26.2706 18.5761 26.274 18.5511 26.2762C18.4938 26.2819 18.4443 26.3211 18.4443 26.383C18.4443 26.4358 18.4932 26.4955 18.5511 26.4898L18.5517 26.4904Z" fill="black"/>
<path d="M13.3438 25.314C13.3438 25.314 15.7305 26.6249 18.1168 26.3682L13.3438 25.314Z" fill="#A495FC"/>
<path d="M13.2899 25.4068C13.5995 25.5766 13.9295 25.7147 14.2578 25.843C14.9957 26.1316 15.7653 26.3429 16.552 26.4463C17.0706 26.5144 17.596 26.5303 18.1169 26.4758C18.1743 26.4696 18.2237 26.4309 18.2237 26.369C18.2237 26.3162 18.1749 26.2565 18.1169 26.2622C17.2354 26.3554 16.3453 26.2446 15.491 26.0208C14.8821 25.8618 14.2857 25.6476 13.7154 25.3807C13.6086 25.3307 13.5012 25.2796 13.3979 25.2228C13.2774 25.1569 13.1701 25.3409 13.2905 25.4068H13.2899Z" fill="black"/>
<path d="M8.10849 19.5563C8.10849 19.5563 4.65271 16.7106 4.99806 15.7768C5.34341 14.8435 3.92281 12.9276 6.72595 11.4809C9.52909 10.0342 13.0741 9.58089 14.1436 9.89443C15.2126 10.208 16.5889 9.98474 17.0337 9.80014C17.4784 9.61554 18.3651 10.1262 20.6264 9.37186C22.8876 8.61754 27.5817 7.03676 29.5572 9.99894C31.5328 12.9611 29.075 16.5095 28.691 17.6631C28.307 18.8162 8.10849 19.5563 8.10849 19.5563Z" fill="#7C26FA"/>
<path d="M8.18474 19.479C7.61105 19.0064 7.06008 18.502 6.5358 17.9755C6.14842 17.5864 5.76558 17.182 5.4492 16.7315C5.27084 16.4776 5.00728 16.101 5.10384 15.796C5.22483 15.4143 5.13622 15.0019 5.08964 14.6151C5.02943 14.1164 5.00785 13.6086 5.18393 13.1292C5.44068 12.4311 6.06606 11.9517 6.70053 11.612C7.51506 11.1769 8.38696 10.8441 9.26965 10.5771C10.0637 10.3368 10.8754 10.1511 11.6962 10.0301C12.3216 9.9381 12.9634 9.87391 13.5962 9.91424C13.8217 9.92844 14.0279 9.97502 14.246 10.0295C14.6737 10.1358 15.1207 10.1659 15.5604 10.1517C15.9347 10.1397 16.3119 10.0971 16.6777 10.0142C16.8492 9.97559 17.0548 9.87789 17.2088 9.86426C17.3723 9.84949 17.5388 9.86937 17.7018 9.8813C17.9449 9.89834 18.188 9.90913 18.4311 9.90175C19.228 9.87903 20.0034 9.68874 20.7566 9.43768C21.925 9.04802 23.1064 8.68279 24.3265 8.49421C25.5983 8.29768 27.0155 8.26814 28.1833 8.88841C29.5545 9.61604 30.2424 11.173 30.2094 12.6816C30.1782 14.1141 29.6005 15.4541 28.9916 16.7253C28.8888 16.9394 28.7843 17.153 28.6911 17.3717C28.6542 17.458 28.6241 17.5461 28.5895 17.6324C28.6014 17.6034 28.5673 17.6574 28.5855 17.6381C28.5787 17.6455 28.5718 17.6534 28.5639 17.6602C28.5457 17.6761 28.5389 17.6801 28.552 17.671C28.5281 17.6881 28.5037 17.7034 28.4781 17.7176C28.3935 17.7642 28.377 17.7682 28.2912 17.7994C27.7959 17.9789 27.2592 18.0601 26.7406 18.1425C25.9317 18.2708 25.1166 18.364 24.3021 18.4486C23.2916 18.5531 22.2794 18.6406 21.2666 18.7201C20.1653 18.8065 19.0627 18.8826 17.9597 18.9525C16.8714 19.0218 15.783 19.0848 14.6942 19.1433C13.7206 19.1956 12.747 19.2444 11.7734 19.2904C11.0265 19.3256 10.2796 19.3592 9.53264 19.3904C9.11288 19.408 8.69311 19.425 8.27335 19.4409C8.21882 19.4432 8.16373 19.4449 8.1092 19.4472C7.97231 19.4523 7.97174 19.6653 8.1092 19.6602C8.34095 19.6517 8.5727 19.6426 8.80388 19.6329C9.42244 19.6079 10.041 19.5818 10.6596 19.554C11.5599 19.5137 12.4602 19.4711 13.3599 19.4256C14.4261 19.3717 15.4922 19.3137 16.5578 19.2507C17.6836 19.1842 18.8094 19.1126 19.9341 19.032C21.011 18.9553 22.0874 18.8707 23.1627 18.7724C24.0851 18.6878 25.0064 18.594 25.9249 18.4731C26.5827 18.3861 27.245 18.2941 27.8908 18.1374C28.0924 18.0885 28.2947 18.0328 28.4849 17.9499C28.594 17.9022 28.7207 17.8392 28.7786 17.7284C28.857 17.5779 28.9058 17.4063 28.9774 17.2518C29.091 17.007 29.2097 16.7645 29.325 16.5202C29.6244 15.8863 29.9016 15.2394 30.1032 14.5674C30.3264 13.8239 30.4605 13.0423 30.4156 12.2647C30.3673 11.4269 30.1043 10.6129 29.6323 9.91708C29.2569 9.36441 28.7451 8.91738 28.1413 8.62997C27.5375 8.34255 26.915 8.21816 26.2708 8.17612C24.9133 8.08808 23.5449 8.37606 22.2465 8.74641C20.9292 9.12243 19.6484 9.69329 18.2556 9.69215C18.025 9.69215 17.7955 9.67511 17.566 9.6592C17.4127 9.64841 17.2559 9.63648 17.1037 9.66659C17.023 9.68249 16.9486 9.71885 16.8708 9.74327C16.7288 9.78814 16.5828 9.82052 16.4363 9.84722C16.0267 9.92276 15.6075 9.9523 15.1912 9.9398C14.964 9.93299 14.7362 9.91197 14.5124 9.87051C14.3573 9.84154 14.2079 9.79326 14.054 9.76031C13.8262 9.71203 13.5917 9.69726 13.3593 9.69272C12.6823 9.68022 12.0018 9.76145 11.3349 9.87335C10.4801 10.0171 9.63602 10.2272 8.81297 10.4987C8.37446 10.6436 7.9422 10.8066 7.51733 10.9889C7.09245 11.1713 6.65793 11.3712 6.26202 11.6206C5.67356 11.9909 5.15383 12.4987 4.94253 13.1769C4.7903 13.6654 4.82097 14.1766 4.88289 14.677C4.90958 14.8917 4.94253 15.1064 4.94878 15.3229C4.95162 15.412 4.95048 15.5023 4.93571 15.591C4.92322 15.6665 4.89197 15.7364 4.87777 15.8113C4.80507 16.1828 5.08055 16.5816 5.28277 16.8661C5.90588 17.7415 6.72325 18.4884 7.52585 19.195C7.69284 19.3421 7.86098 19.4881 8.03308 19.6301C8.13817 19.7164 8.28983 19.5665 8.18361 19.4796L8.18474 19.479Z" fill="black"/>
<path d="M16.9868 17.386C16.8795 16.4374 15.8281 10.9788 15.4242 9.68316C15.0204 8.38809 15.5856 8.29039 15.8821 7.77691C16.178 7.26342 16.232 6.45741 16.232 6.45741L16.8914 6.33643C16.8914 6.33643 17.1993 7.19583 17.6486 7.68091C18.0979 8.16656 18.675 8.13987 18.696 9.63431C18.717 11.1287 19.4333 17.2752 19.6309 18.3255" fill="#E6FDAE"/>
<path d="M17.0934 17.3868C17.0309 16.8359 16.9213 16.2883 16.8219 15.743C16.664 14.8773 16.4964 14.0128 16.3221 13.15C16.1477 12.2872 15.9835 11.4994 15.7921 10.6797C15.7251 10.3929 15.6564 10.106 15.5763 9.8226C15.4689 9.44147 15.3133 9.02625 15.4286 8.62978C15.4678 8.49459 15.5518 8.36622 15.6382 8.26284C15.7353 8.1464 15.8398 8.0362 15.925 7.91067C16.1869 7.52443 16.28 7.02003 16.3295 6.56335C16.3334 6.52813 16.3368 6.49348 16.3391 6.45827L16.2607 6.56108C16.4805 6.52075 16.7004 6.48042 16.9202 6.44009L16.789 6.36568C16.9367 6.77579 17.136 7.18532 17.3939 7.53635C17.5194 7.70733 17.6609 7.85387 17.8279 7.98395C17.9602 8.08676 18.0715 8.1606 18.1914 8.28272C18.5299 8.62694 18.5811 9.16314 18.5896 9.63516C18.5947 9.92087 18.6134 10.206 18.6344 10.4912C18.7003 11.3943 18.7924 12.2952 18.8872 13.196C18.9929 14.1923 19.1059 15.1881 19.2286 16.1821C19.3127 16.866 19.3927 17.5521 19.5063 18.232C19.5132 18.2729 19.5205 18.3138 19.5279 18.3547C19.5529 18.4893 19.7585 18.4325 19.7336 18.2979C19.6188 17.6862 19.5552 17.0903 19.4779 16.4752C19.3553 15.4959 19.2422 14.5155 19.1366 13.534C19.036 12.603 18.94 11.6709 18.8662 10.7371C18.8412 10.4184 18.8173 10.0998 18.806 9.78057C18.7895 9.30571 18.7872 8.79677 18.5333 8.37701C18.4442 8.2299 18.326 8.10607 18.1931 7.99815C18.0602 7.89023 17.9449 7.81525 17.8205 7.70165C17.62 7.51875 17.4695 7.28643 17.3377 7.05127C17.2224 6.84565 17.1201 6.62867 17.0344 6.41339C17.0202 6.37818 17.0065 6.34353 16.994 6.30774C16.973 6.24981 16.9236 6.22197 16.8628 6.23333C16.643 6.27366 16.4232 6.31399 16.2034 6.35432C16.1556 6.36284 16.1284 6.41283 16.125 6.45713C16.0994 6.83315 16.0205 7.23587 15.862 7.58179C15.7847 7.74993 15.6927 7.87262 15.5774 8.00553C15.4797 8.118 15.3792 8.2316 15.3082 8.36338C15.0815 8.78371 15.1894 9.2864 15.3229 9.71809C15.3996 9.96688 15.4621 10.2196 15.5234 10.473C15.7137 11.2602 15.8802 12.0532 16.0426 12.8467C16.2221 13.7226 16.3936 14.6002 16.5567 15.4794C16.6686 16.0832 16.7827 16.6876 16.8679 17.2959C16.8725 17.3272 16.8651 17.2749 16.8691 17.305C16.8702 17.3147 16.8713 17.3243 16.873 17.334C16.8753 17.3516 16.8776 17.3687 16.8793 17.3863C16.8855 17.4436 16.9236 17.493 16.9861 17.493C17.0383 17.493 17.0991 17.4442 17.0929 17.3863L17.0934 17.3868Z" fill="black"/>
<path d="M17.2546 6.3379C17.2546 6.3379 19.2478 9.06663 24.5633 8.56167C29.1886 8.1226 31.5538 9.41028 30.2701 13.1387C29.1193 16.4809 28.7671 16.9387 28.7671 16.9387L29.1806 16.9592C29.1806 16.9592 32.8517 10.5883 31.464 9.01722C30.0923 7.46427 28.0798 7.39952 26.4786 7.70454C24.8768 8.00956 21.4034 8.64233 18.6457 6.95419C15.888 5.26606 17.2546 6.3379 17.2546 6.3379Z" fill="#E6FDAE"/>
<path d="M17.1621 6.39176C17.2809 6.55365 17.4274 6.69792 17.5745 6.83311C17.9619 7.18868 18.4027 7.48746 18.8668 7.73398C19.5853 8.11568 20.3657 8.37583 21.1632 8.5326C22.2896 8.75356 23.4444 8.77287 24.5849 8.66608C25.5903 8.57179 26.6201 8.5326 27.6227 8.67915C28.3276 8.78196 29.0717 8.9836 29.6323 9.41984C29.8754 9.60899 30.0691 9.82881 30.2162 10.0924C30.3633 10.3559 30.4531 10.6575 30.4877 10.9506C30.5917 11.8396 30.3133 12.6961 30.0237 13.5237C29.8328 14.0696 29.6374 14.6143 29.4312 15.1551C29.3591 15.3448 29.2852 15.5339 29.2097 15.7225C29.1529 15.8645 29.0904 16.015 29.0376 16.14C28.9319 16.3865 28.8257 16.637 28.6871 16.8676C28.6837 16.8739 28.6792 16.8795 28.6752 16.8852C28.6224 16.954 28.6956 17.042 28.7672 17.0454C28.9052 17.0522 29.0427 17.059 29.1807 17.0659C29.2176 17.0676 29.2546 17.0443 29.2727 17.013C29.4358 16.7302 29.5897 16.4422 29.7414 16.1531C30.0947 15.4805 30.4281 14.7972 30.7337 14.102C31.0853 13.3022 31.409 12.4843 31.6374 11.6402C31.7396 11.2625 31.822 10.8785 31.8623 10.4888C31.8947 10.1742 31.8987 9.85039 31.8299 9.54026C31.8004 9.40677 31.7544 9.27556 31.6896 9.15514C31.5948 8.97906 31.4477 8.83365 31.3051 8.69562C30.8581 8.26393 30.3196 7.9396 29.7328 7.73511C28.6491 7.35795 27.479 7.4068 26.3668 7.61697C25.3824 7.80327 24.3901 7.94641 23.387 7.96743C22.1039 7.99413 20.7991 7.8294 19.6091 7.32842C18.9747 7.06145 18.4055 6.67463 17.8125 6.32985C17.6393 6.22931 17.4655 6.12934 17.2877 6.03675C17.1979 5.99018 17.1053 5.93962 17.0082 5.90895C16.9338 5.8851 16.8372 5.89078 16.8134 5.98279C16.7958 6.05096 16.8424 6.10832 16.8855 6.1549C16.9577 6.23329 17.0429 6.30202 17.1258 6.36904C17.1434 6.38381 17.1616 6.39801 17.1798 6.41221C17.2252 6.448 17.286 6.45595 17.3303 6.41221C17.3678 6.37586 17.3757 6.2969 17.3303 6.26169C17.2706 6.21511 17.2121 6.16683 17.1553 6.11684C17.1144 6.08106 17.0741 6.04527 17.0372 6.00551C17.0309 5.9987 17.0247 5.99075 17.0179 5.98393C16.9986 5.96405 17.0321 6.01063 17.0179 5.98279C17.0037 5.95496 17.023 6.00324 17.0196 5.99075C17.0281 6.02369 17.015 6.07084 16.9741 6.0964C16.9673 6.10094 16.9264 6.10832 16.9361 6.10832C16.9151 6.10832 16.9134 6.10208 16.9389 6.1106C16.9508 6.11457 16.9628 6.11798 16.9741 6.12252C16.9815 6.12536 16.9883 6.1282 16.9957 6.13104C17.0179 6.13956 16.9747 6.12139 17.0054 6.13502C17.1298 6.19239 17.2502 6.25658 17.3695 6.32246C17.5865 6.44232 17.8 6.56785 18.013 6.69508C18.3215 6.87912 18.6231 7.07565 18.94 7.24435C20.0829 7.85326 21.374 8.12363 22.6605 8.17419C23.7403 8.21622 24.8195 8.10432 25.8828 7.92085C26.3333 7.84303 26.7803 7.74534 27.2359 7.70046C27.7959 7.64593 28.3662 7.64877 28.9217 7.7459C29.4772 7.84303 30.0435 8.04298 30.5332 8.35481C30.8007 8.52522 31.0455 8.728 31.2648 8.95691C31.3108 9.00462 31.3562 9.0529 31.3994 9.10402C31.4045 9.11027 31.4278 9.13924 31.4215 9.13129C31.4164 9.12447 31.4391 9.15571 31.4443 9.1631C31.4783 9.21251 31.5073 9.2642 31.5329 9.31816C31.5368 9.32611 31.5516 9.3602 31.5482 9.35224C31.5448 9.34429 31.559 9.37951 31.5618 9.38803C31.5732 9.4187 31.5834 9.44937 31.5931 9.48061C31.6124 9.54594 31.6277 9.61239 31.6397 9.67999C31.6516 9.74758 31.6561 9.78734 31.6624 9.86857C31.6686 9.94979 31.6703 10.0236 31.6703 10.1009C31.6686 10.4559 31.6164 10.7859 31.5414 11.1324C31.3636 11.9526 31.0716 12.7473 30.7507 13.5209C30.4485 14.2502 30.11 14.9648 29.7516 15.668C29.5482 16.0662 29.3392 16.4621 29.1188 16.8511C29.1086 16.8693 29.0984 16.8875 29.0881 16.9051L29.1802 16.8523C29.0421 16.8455 28.9047 16.8386 28.7666 16.8318L28.8587 16.992C28.9569 16.8636 29.0205 16.6961 29.087 16.5507C29.3988 15.8702 29.6596 15.1647 29.9152 14.4615C30.1225 13.8901 30.344 13.3181 30.5087 12.7331C30.6235 12.3264 30.7041 11.9066 30.7206 11.4834C30.7462 10.8183 30.5877 10.1531 30.1588 9.63227C29.73 9.11141 29.0717 8.799 28.4219 8.62405C27.5227 8.38208 26.5707 8.34913 25.6448 8.38265C25.0456 8.40423 24.4503 8.47864 23.8516 8.50477C23.2677 8.53033 22.6815 8.51783 22.0993 8.45819C21.2126 8.36674 20.3283 8.16055 19.508 7.80611C19.1973 7.67206 18.8952 7.517 18.6066 7.33978C18.4856 7.26537 18.3663 7.18698 18.2505 7.10519C18.1993 7.06883 18.1488 7.03191 18.0988 6.99386C18.0863 6.98477 18.0744 6.97511 18.0624 6.96602C18.0801 6.97966 18.0454 6.95296 18.0414 6.94955C18.0187 6.93137 17.996 6.91377 17.9733 6.89502C17.75 6.71439 17.5365 6.51673 17.3547 6.29406C17.3405 6.27702 17.3343 6.26623 17.353 6.29236C17.3513 6.28952 17.349 6.28725 17.3468 6.28441C17.3127 6.23783 17.2547 6.21568 17.2008 6.24635C17.1548 6.27248 17.1286 6.34575 17.1627 6.39233L17.1621 6.39176Z" fill="black"/>
<path d="M15.8245 6.46314C15.8245 6.46314 14.6907 9.5713 9.41615 10.3512C4.82604 11.03 2.91638 12.8362 5.23444 16.1279C7.31223 19.0781 7.78425 19.4365 7.78425 19.4365L7.39118 19.5547C7.39118 19.5547 2.00472 14.2824 2.88911 12.4364C3.76329 10.6108 5.68601 10.0689 7.31961 9.98084C8.95322 9.89336 12.488 9.67581 14.6606 7.38956C16.8333 5.10331 15.8245 6.46314 15.8245 6.46314Z" fill="#E6FDAE"/>
<path d="M15.7212 6.43556C15.7172 6.44692 15.7121 6.45828 15.7076 6.46965C15.707 6.47135 15.7207 6.43954 15.7093 6.4651C15.7059 6.47249 15.7025 6.48044 15.6991 6.48839C15.6905 6.5077 15.6815 6.52645 15.6724 6.54576C15.6139 6.66788 15.5474 6.78603 15.4764 6.90134C15.4259 6.98256 15.373 7.06265 15.3179 7.14104C15.2861 7.18648 15.2537 7.23078 15.2202 7.27509C15.2117 7.28645 15.2026 7.29838 15.1941 7.30974C15.1759 7.33359 15.1964 7.3069 15.1782 7.33018C15.16 7.35347 15.1407 7.3779 15.1214 7.40175C14.9442 7.62101 14.7505 7.8272 14.5443 8.02032C13.9876 8.54176 13.3412 8.96095 12.6551 9.2921C11.673 9.76639 10.608 10.0572 9.53329 10.2276C8.47281 10.3957 7.41063 10.59 6.41263 11.0001C5.71114 11.2887 5.01248 11.6857 4.56205 12.3134C4.16557 12.8655 4.06674 13.5431 4.20022 14.2014C4.39619 15.1705 4.99658 15.9839 5.55948 16.7706C6.08091 17.4993 6.60916 18.2269 7.17661 18.921C7.33792 19.1181 7.50037 19.3317 7.6935 19.5004C7.70543 19.5106 7.71736 19.5203 7.73042 19.53L7.75598 19.3351C7.62477 19.3743 7.49413 19.4141 7.36292 19.4533L7.46629 19.4805C7.23114 19.2505 7.0028 19.0125 6.77616 18.7739C6.24791 18.2173 5.73442 17.6453 5.24366 17.0551C4.68531 16.3843 4.14967 15.6896 3.69072 14.9467C3.48623 14.6161 3.29538 14.2741 3.14372 13.9152C3.08692 13.78 3.025 13.6101 2.98184 13.4562C2.96195 13.3846 2.94435 13.3119 2.93015 13.2387C2.91367 13.1523 2.90913 13.125 2.90288 13.0421C2.89777 12.9779 2.89607 12.9132 2.89891 12.8484C2.90004 12.8178 2.90288 12.7871 2.90629 12.7564C2.90913 12.7286 2.90231 12.7797 2.90629 12.7519C2.90686 12.7468 2.90799 12.7411 2.90856 12.736C2.91197 12.7172 2.91481 12.699 2.91879 12.6803C2.93071 12.6241 2.94775 12.5684 2.96934 12.515C2.979 12.49 2.95968 12.536 2.97048 12.5122C2.97332 12.5065 2.97559 12.5002 2.97843 12.4946C2.9949 12.461 3.0108 12.4281 3.02784 12.3946C3.06647 12.3196 3.1068 12.2458 3.14997 12.1736C3.44533 11.6778 3.85487 11.2597 4.33882 10.9462C5.25445 10.352 6.34617 10.1418 7.42028 10.0828C8.34955 10.0317 9.27712 9.94418 10.1893 9.75787C11.3305 9.52442 12.4569 9.13987 13.4458 8.51563C13.7082 8.34977 13.9604 8.16687 14.1984 7.96806C14.4568 7.75279 14.6886 7.51308 14.9215 7.27054C15.2515 6.92576 15.5798 6.57018 15.9433 6.25891C15.9621 6.24244 15.9814 6.2271 16.0007 6.2112C16.0223 6.19359 16.0007 6.2112 16.0052 6.20722C16.0132 6.20154 16.0206 6.19586 16.0285 6.19018C16.0399 6.18223 16.0518 6.17598 16.0626 6.16803C16.091 6.14815 16.0421 6.17144 16.0649 6.16633C16.016 6.17769 15.9501 6.12486 15.9507 6.08112C15.9507 6.04136 15.9535 6.05727 15.949 6.07431C15.941 6.10271 15.9638 6.04761 15.9467 6.07942C15.8962 6.17428 15.8365 6.26346 15.7746 6.35093C15.7604 6.37081 15.7462 6.39069 15.7314 6.41C15.6968 6.45658 15.7241 6.52872 15.7695 6.55598C15.8235 6.58836 15.8814 6.56394 15.9155 6.51793C15.9865 6.4225 16.3131 6.02887 16.0791 5.96127C16.0086 5.94083 15.9427 5.98911 15.8899 6.02944C15.7763 6.11577 15.6729 6.21404 15.5701 6.31231C15.3804 6.4935 15.1964 6.68095 15.0129 6.86896C14.7664 7.12229 14.5295 7.38642 14.2682 7.62498C13.3634 8.45144 12.2325 8.98821 11.0624 9.32504C10.0667 9.61132 9.03742 9.75787 8.00534 9.83285C7.55718 9.86522 7.10731 9.87658 6.66142 9.93509C6.10079 10.0084 5.54584 10.1367 5.02157 10.3526C4.48196 10.5747 3.97927 10.8842 3.56405 11.2972C3.3482 11.5119 3.15792 11.7533 2.99774 12.0123C2.88698 12.1918 2.77053 12.3849 2.71998 12.5917C2.65182 12.8706 2.68647 13.1665 2.75633 13.442C2.84494 13.7919 2.99376 14.127 3.15962 14.4468C3.56234 15.2256 4.08435 15.9413 4.6251 16.6286C5.16584 17.3158 5.70091 17.9287 6.2729 18.5479C6.5978 18.8995 6.92782 19.246 7.26692 19.5834C7.28283 19.5987 7.29816 19.6146 7.31407 19.6299C7.34076 19.6561 7.38109 19.6686 7.41744 19.6572C7.54866 19.618 7.6793 19.5782 7.81051 19.539C7.90537 19.5106 7.9065 19.3982 7.83607 19.3442C7.87186 19.3715 7.85368 19.3584 7.84005 19.3459C7.8213 19.3283 7.80256 19.3107 7.78438 19.2925C7.69463 19.2028 7.61114 19.1074 7.52821 19.0114C7.06698 18.4746 6.64438 17.9032 6.22632 17.3329C5.85995 16.8325 5.48563 16.3332 5.1471 15.8135C4.90456 15.4408 4.68701 15.0466 4.53819 14.6263C4.3178 14.0021 4.26327 13.3193 4.5575 12.7291C4.86991 12.1015 5.47484 11.6766 6.09625 11.3722C6.99996 10.9297 8.00307 10.6962 8.9897 10.527C9.59123 10.4241 10.1916 10.3384 10.7841 10.1873C11.2941 10.0572 11.7957 9.89363 12.2813 9.69028C13.0419 9.37219 13.7616 8.95981 14.3966 8.43156C14.8204 8.07882 15.2032 7.67497 15.5184 7.22169C15.6707 7.00301 15.811 6.77069 15.9121 6.52361C15.9166 6.51281 15.9206 6.50259 15.9246 6.4918C15.9717 6.36286 15.7661 6.30719 15.7189 6.435L15.7212 6.43556Z" fill="black"/>
<path d="M16.5429 6.26107L14.9155 4.21339L15.7891 1.52441L17.4511 3.88962L16.5429 6.26107Z" fill="#7C26FA"/>
<path d="M16.6183 6.18702C16.4354 5.95641 16.2519 5.72636 16.069 5.49575C15.777 5.12825 15.4851 4.76074 15.1931 4.39324C15.1255 4.3086 15.0585 4.22397 14.9909 4.13877L15.0182 4.24215C15.1164 3.93996 15.2147 3.63778 15.3124 3.3356C15.4692 2.85336 15.6259 2.37111 15.7821 1.8883C15.8185 1.77641 15.8548 1.66507 15.8912 1.55318L15.6964 1.57874C15.8838 1.8457 16.0713 2.1121 16.2587 2.37907C16.5563 2.80224 16.854 3.22597 17.1516 3.64914C17.2203 3.74741 17.2896 3.84567 17.3584 3.94337L17.3476 3.86158C17.2453 4.12911 17.1425 4.39608 17.0403 4.66361C16.8773 5.08962 16.7143 5.51506 16.5512 5.94107C16.5137 6.0382 16.4768 6.1359 16.4393 6.23303C16.3905 6.3614 16.5961 6.4165 16.645 6.28983C16.7603 5.98879 16.8756 5.68717 16.9914 5.38613C17.1579 4.95216 17.3237 4.5182 17.4902 4.08424C17.5186 4.00983 17.5844 3.90588 17.5379 3.82863C17.4799 3.73207 17.4067 3.64176 17.3419 3.54974L16.5024 2.35521C16.2985 2.06552 16.0974 1.77356 15.8912 1.48558C15.8878 1.48104 15.8844 1.47593 15.881 1.47138C15.8282 1.3964 15.7157 1.40606 15.6861 1.49694C15.593 1.78436 15.4998 2.07177 15.4061 2.35862C15.2516 2.83518 15.0966 3.31174 14.9421 3.78774C14.9017 3.9127 14.8574 4.03709 14.8199 4.16319C14.8057 4.21204 14.8108 4.2518 14.8444 4.29497C14.8682 4.32565 14.8926 4.35632 14.9171 4.38642L15.7543 5.44009C15.9043 5.62867 16.0542 5.81781 16.2042 6.00639C16.2871 6.11091 16.3666 6.2211 16.4547 6.32164C16.4586 6.32675 16.4626 6.33187 16.4666 6.33698C16.5024 6.38242 16.5796 6.3739 16.6171 6.33698C16.662 6.29324 16.6529 6.23133 16.6171 6.18645L16.6183 6.18702Z" fill="black"/>
<path d="M29.5574 19.9071C26.1095 19.7622 22.5782 19.7622 17.891 20.291C14.0381 20.7256 10.4659 21.2953 7.34298 22.2473C7.21745 21.2646 7.09135 20.2814 6.96582 19.2987C10.2109 18.3325 13.6314 17.7543 17.5456 17.3237C21.8193 16.8534 25.5347 16.7665 29.1802 16.9585C29.3057 17.9417 29.4319 18.9244 29.5574 19.9071Z" fill="#E6FDAE"/>
<path d="M29.5574 19.7656C28.2896 19.7128 27.0213 19.6804 25.7523 19.6833C24.3613 19.6867 22.9708 19.7327 21.5831 19.8207C19.9859 19.9224 18.3932 20.0831 16.8044 20.2763C15.2157 20.4694 13.6633 20.6904 12.1053 20.9744C10.6585 21.2385 9.21975 21.5554 7.80597 21.9621C7.63897 22.0104 7.47198 22.0598 7.30555 22.1104L7.48504 22.2473C7.35951 21.2646 7.23341 20.2814 7.10788 19.2987L7.00337 19.4356C8.33025 19.0414 9.67587 18.7142 11.0328 18.4405C12.4671 18.1513 13.9121 17.9207 15.3622 17.7287C16.9163 17.5225 18.4755 17.3527 20.0381 17.2289C21.5093 17.1124 22.9833 17.0392 24.459 17.0142C25.8608 16.9903 27.2632 17.0108 28.6634 17.0744C28.8355 17.0823 29.0076 17.0909 29.1803 17.0999L29.0383 16.9579C29.1638 17.9412 29.2899 18.9238 29.4154 19.9065C29.4251 19.9832 29.4739 20.0474 29.5574 20.0485C29.6267 20.0491 29.7091 19.9826 29.6994 19.9065C29.5739 18.9233 29.4478 17.9406 29.3223 16.9579C29.3121 16.8784 29.2655 16.8205 29.1803 16.8159C27.7796 16.7427 26.3771 16.7109 24.9747 16.7234C23.5723 16.7359 22.0358 16.7989 20.5698 16.9045C18.9981 17.0176 17.4304 17.1812 15.8678 17.3788C14.4057 17.564 12.9471 17.7833 11.4992 18.0599C10.1269 18.3217 8.76421 18.6359 7.42029 19.0181C7.25613 19.0647 7.09198 19.1124 6.92839 19.1613C6.875 19.1772 6.81649 19.2368 6.82388 19.2982C6.94941 20.2808 7.07551 21.264 7.20104 22.2467C7.2124 22.3342 7.2834 22.4131 7.38053 22.3836C8.76762 21.9616 10.1814 21.6304 11.6043 21.3555C13.1419 21.0584 14.6914 20.8261 16.2449 20.629C17.8479 20.4257 19.4542 20.253 21.0662 20.1388C22.4686 20.0394 23.8733 19.982 25.2792 19.969C26.5515 19.957 27.8239 19.9815 29.0951 20.0298C29.249 20.0354 29.4029 20.0417 29.5569 20.0485C29.7398 20.0559 29.7392 19.7719 29.5569 19.7645L29.5574 19.7656Z" fill="black"/>
<path d="M17.7281 6.36976L15.3004 6.6708L15.2056 6.04258L17.6333 5.74097L17.7281 6.36976Z" fill="#E6FDAE"/>
<path d="M17.7283 6.26251C17.4551 6.29659 17.1819 6.3301 16.9087 6.36418C16.473 6.41814 16.0374 6.47211 15.6017 6.52664C15.5012 6.53913 15.4012 6.55163 15.3007 6.56412L15.4035 6.64251C15.3717 6.43291 15.3404 6.22388 15.3086 6.01429L15.2058 6.14891C15.479 6.11483 15.7522 6.08131 16.0254 6.04723C16.4611 5.99327 16.8968 5.93931 17.3324 5.88478C17.433 5.87228 17.5329 5.85979 17.6335 5.84729L17.5307 5.76891C17.5625 5.9785 17.5937 6.18753 17.6255 6.39713C17.6341 6.45393 17.7056 6.48574 17.7567 6.47154C17.8175 6.4545 17.8397 6.3977 17.8312 6.34033C17.7993 6.13073 17.7681 5.9217 17.7363 5.71211C17.73 5.67121 17.6755 5.62861 17.6335 5.63372C17.3603 5.6678 17.0871 5.70131 16.8138 5.73539C16.3782 5.78935 15.9425 5.84332 15.5068 5.89785C15.4063 5.91034 15.3063 5.92284 15.2058 5.93533C15.1314 5.94442 15.0916 5.99554 15.103 6.06995C15.1348 6.27955 15.166 6.48858 15.1978 6.69817C15.2041 6.73907 15.2586 6.78167 15.3007 6.77656C15.5739 6.74248 15.8471 6.70897 16.1203 6.67489C16.556 6.62093 16.9916 6.56696 17.4273 6.51243C17.5278 6.49994 17.6278 6.48744 17.7283 6.47495C17.7851 6.46813 17.8351 6.43121 17.8351 6.36816C17.8351 6.3159 17.7863 6.25456 17.7283 6.26137V6.26251Z" fill="black"/>
<path d="M17.9005 19.2604C18.2525 19.2604 18.5378 19.0013 18.5378 18.6816C18.5378 18.3619 18.2525 18.1028 17.9005 18.1028C17.5485 18.1028 17.2632 18.3619 17.2632 18.6816C17.2632 19.0013 17.5485 19.2604 17.9005 19.2604Z" fill="#CCFC56"/>
<path d="M18.4669 18.6813C18.4635 18.9046 18.305 19.0897 18.0966 19.1579C17.8773 19.2295 17.6234 19.1761 17.4644 19.0057C17.3138 18.8449 17.2934 18.6047 17.4144 18.4212C17.5354 18.2377 17.7893 18.1429 18.0102 18.1838C18.2562 18.2292 18.4629 18.4235 18.4669 18.6819C18.4686 18.7734 18.6106 18.7734 18.6089 18.6819C18.6044 18.3939 18.4039 18.1559 18.134 18.0685C17.8642 17.981 17.5427 18.0548 17.3525 18.2695C17.1622 18.4842 17.1378 18.7813 17.2911 19.0142C17.4445 19.2471 17.7484 19.3658 18.0295 19.3204C18.3453 19.2687 18.6032 19.008 18.6083 18.6819C18.61 18.5905 18.468 18.5905 18.4663 18.6819L18.4669 18.6813Z" fill="black"/>
<path d="M18.0017 16.4575C18.3022 16.4575 18.5458 16.2365 18.5458 15.9639C18.5458 15.6913 18.3022 15.4703 18.0017 15.4703C17.7011 15.4703 17.4575 15.6913 17.4575 15.9639C17.4575 16.2365 17.7011 16.4575 18.0017 16.4575Z" fill="#CCFC56"/>
<path d="M18.4756 15.9649C18.4728 16.1506 18.341 16.3051 18.1672 16.3613C17.9831 16.421 17.7713 16.3767 17.6378 16.2341C17.5123 16.1 17.4958 15.9007 17.5969 15.7479C17.698 15.5951 17.9099 15.5161 18.0939 15.5496C18.299 15.5871 18.4728 15.7484 18.4762 15.9649C18.4779 16.0563 18.6199 16.0563 18.6182 15.9649C18.6142 15.7144 18.4398 15.5076 18.2052 15.4315C17.9706 15.3554 17.6923 15.4196 17.5282 15.6059C17.364 15.7922 17.3407 16.0512 17.4742 16.254C17.6077 16.4568 17.8712 16.5601 18.1161 16.5198C18.3904 16.4749 18.6136 16.2477 18.6182 15.9649C18.6199 15.8734 18.4779 15.8734 18.4762 15.9649H18.4756Z" fill="black"/>
<path d="M17.4582 13.2782C17.7587 13.2782 18.0024 13.0572 18.0024 12.7846C18.0024 12.512 17.7587 12.291 17.4582 12.291C17.1577 12.291 16.9141 12.512 16.9141 12.7846C16.9141 13.0572 17.1577 13.2782 17.4582 13.2782Z" fill="#CCFC56"/>
<path d="M17.9308 12.7832C17.928 12.969 17.7962 13.1235 17.6224 13.1797C17.4384 13.2393 17.2265 13.195 17.093 13.0524C16.9675 12.9184 16.951 12.719 17.0521 12.5662C17.1532 12.4134 17.3651 12.3345 17.5491 12.368C17.7542 12.4055 17.928 12.5668 17.9314 12.7832C17.9331 12.8747 18.0751 12.8747 18.0734 12.7832C18.0694 12.5327 17.895 12.326 17.6605 12.2498C17.4259 12.1737 17.1475 12.2379 16.9834 12.4242C16.8249 12.6037 16.7959 12.8696 16.9294 13.0723C17.0629 13.2751 17.3265 13.3785 17.5713 13.3382C17.8456 13.2933 18.0689 13.0661 18.0734 12.7832C18.0751 12.6918 17.9331 12.6918 17.9314 12.7832H17.9308Z" fill="black"/>
<path d="M16.9284 10.0482C17.229 10.0482 17.4726 9.82725 17.4726 9.55464C17.4726 9.28203 17.229 9.06104 16.9284 9.06104C16.6279 9.06104 16.3843 9.28203 16.3843 9.55464C16.3843 9.82725 16.6279 10.0482 16.9284 10.0482Z" fill="#CCFC56"/>
<path d="M17.4019 9.55543C17.399 9.74117 17.2673 9.89567 17.0934 9.9519C16.9094 10.0115 16.6975 9.96724 16.5641 9.82467C16.4385 9.69061 16.4221 9.49124 16.5232 9.33845C16.6243 9.18565 16.8361 9.1067 17.0202 9.14021C17.2252 9.1777 17.399 9.33902 17.4024 9.55543C17.4042 9.64688 17.5462 9.64688 17.5445 9.55543C17.5405 9.30493 17.3661 9.09818 17.1315 9.02206C16.8969 8.94595 16.6186 9.01014 16.4544 9.19644C16.2903 9.38275 16.267 9.64177 16.4005 9.84455C16.534 10.0473 16.7975 10.1507 17.0423 10.1104C17.3167 10.0655 17.5399 9.8383 17.5445 9.55543C17.5462 9.46398 17.4042 9.46398 17.4024 9.55543H17.4019Z" fill="black"/>
<path d="M16.737 7.73876C16.9518 7.71733 17.1138 7.5795 17.099 7.43091C17.0842 7.28233 16.8981 7.17925 16.6833 7.20069C16.4685 7.22212 16.3065 7.35995 16.3213 7.50854C16.3361 7.65712 16.5222 7.7602 16.737 7.73876Z" fill="#CCFC56"/>
<path d="M17.0267 7.42225C17.0398 7.52506 16.9506 7.60288 16.8552 7.63923C16.7382 7.68411 16.5927 7.68695 16.4825 7.62219C16.3962 7.57164 16.3644 7.48587 16.4212 7.40464C16.4905 7.30638 16.6297 7.26832 16.7438 7.26946C16.858 7.27059 17.0074 7.3166 17.029 7.441C17.0358 7.47905 17.0818 7.50007 17.1164 7.49041C17.1562 7.47962 17.1727 7.441 17.1659 7.40294C17.1369 7.23595 16.9619 7.15074 16.8092 7.132C16.641 7.11098 16.4394 7.1621 16.3269 7.29672C16.2252 7.41771 16.2241 7.58811 16.3457 7.69717C16.4774 7.81532 16.6762 7.83577 16.8421 7.7926C17.008 7.74943 17.1926 7.61311 17.1687 7.42282C17.1636 7.38476 17.1397 7.35182 17.0977 7.35182C17.0631 7.35182 17.0216 7.38476 17.0267 7.42282V7.42225Z" fill="black"/>
<path d="M21.9039 18.9066C22.2559 18.9066 22.5412 18.6475 22.5412 18.3278C22.5412 18.0082 22.2559 17.749 21.9039 17.749C21.5519 17.749 21.2666 18.0082 21.2666 18.3278C21.2666 18.6475 21.5519 18.9066 21.9039 18.9066Z" fill="#CCFC56"/>
<path d="M22.4703 18.3276C22.4669 18.5508 22.3084 18.736 22.1 18.8042C21.8807 18.8757 21.6268 18.8223 21.4678 18.6519C21.3173 18.4912 21.2968 18.2509 21.4178 18.0674C21.5388 17.884 21.7927 17.7891 22.0136 17.83C22.2596 17.8755 22.4663 18.0697 22.4703 18.3282C22.472 18.4196 22.614 18.4196 22.6123 18.3282C22.6078 18.0402 22.4073 17.8022 22.1375 17.7147C21.8677 17.6272 21.5462 17.7011 21.3559 17.9158C21.1656 18.1305 21.1412 18.4276 21.2945 18.6604C21.4479 18.8933 21.7518 19.012 22.033 18.9666C22.3488 18.9149 22.6066 18.6542 22.6118 18.3282C22.6135 18.2367 22.4715 18.2367 22.4698 18.3282L22.4703 18.3276Z" fill="black"/>
<path d="M25.7897 18.8209C26.1416 18.8209 26.427 18.5618 26.427 18.2421C26.427 17.9225 26.1416 17.6633 25.7897 17.6633C25.4377 17.6633 25.1523 17.9225 25.1523 18.2421C25.1523 18.5618 25.4377 18.8209 25.7897 18.8209Z" fill="#CCFC56"/>
<path d="M26.3569 18.2419C26.3535 18.4651 26.1951 18.6503 25.9866 18.7185C25.7673 18.79 25.5134 18.7366 25.3544 18.5662C25.2039 18.4055 25.1834 18.1652 25.3044 17.9817C25.4254 17.7983 25.6793 17.7034 25.9003 17.7443C26.1462 17.7898 26.353 17.984 26.3569 18.2425C26.3586 18.3339 26.5006 18.3339 26.4989 18.2425C26.4944 17.9545 26.2939 17.7165 26.0241 17.629C25.7543 17.5415 25.4328 17.6154 25.2425 17.8301C25.0602 18.0363 25.0278 18.3419 25.1811 18.5748C25.3402 18.8167 25.6384 18.9264 25.9196 18.8809C26.2354 18.8292 26.4933 18.5685 26.4984 18.2425C26.5001 18.151 26.3581 18.151 26.3564 18.2425L26.3569 18.2419Z" fill="black"/>
<path d="M29.1474 18.902C29.4181 18.8602 29.5979 18.57 29.549 18.2537C29.5002 17.9375 29.2412 17.715 28.9705 17.7568C28.6999 17.7986 28.5201 18.0889 28.5689 18.4051C28.6177 18.7213 28.8767 18.9438 29.1474 18.902Z" fill="#CCFC56"/>
<path d="M29.4835 18.2848C29.5011 18.4779 29.4353 18.6898 29.2563 18.7892C29.0882 18.8824 28.8928 18.8182 28.7712 18.6813C28.6338 18.5262 28.5963 18.2894 28.6696 18.0968C28.7343 17.9275 28.8968 17.7992 29.0837 17.823C29.3086 17.852 29.4585 18.0729 29.483 18.2848C29.4932 18.3746 29.6358 18.3757 29.625 18.2848C29.5954 18.0298 29.4455 17.7855 29.1916 17.7026C28.957 17.6265 28.7105 17.7389 28.5855 17.9451C28.4486 18.1718 28.4622 18.4791 28.6071 18.6989C28.74 18.9005 28.9837 19.0272 29.2245 18.9551C29.5085 18.8699 29.6505 18.5643 29.625 18.2848C29.617 18.1945 29.4744 18.1939 29.483 18.2848H29.4835Z" fill="black"/>
<path d="M14.0797 19.7152C14.4317 19.7152 14.717 19.4561 14.717 19.1364C14.717 18.8168 14.4317 18.5576 14.0797 18.5576C13.7277 18.5576 13.4424 18.8168 13.4424 19.1364C13.4424 19.4561 13.7277 19.7152 14.0797 19.7152Z" fill="#CCFC56"/>
<path d="M14.6456 19.1362C14.6422 19.3594 14.4837 19.5446 14.2753 19.6127C14.056 19.6843 13.8021 19.6309 13.6431 19.4605C13.4925 19.2998 13.4721 19.0595 13.5931 18.876C13.7141 18.6926 13.968 18.5977 14.1889 18.6386C14.4349 18.684 14.6416 18.8783 14.6456 19.1368C14.6473 19.2282 14.7893 19.2282 14.7876 19.1368C14.7831 18.8488 14.5826 18.6108 14.3128 18.5233C14.043 18.4358 13.7215 18.5097 13.5312 18.7244C13.3409 18.9391 13.3165 19.2362 13.4698 19.469C13.6289 19.711 13.9271 19.8206 14.2082 19.7752C14.5241 19.7235 14.7819 19.4628 14.787 19.1368C14.7888 19.0453 14.6467 19.0453 14.645 19.1368L14.6456 19.1362Z" fill="black"/>
<path d="M10.3497 20.4096C10.7017 20.4096 10.987 20.1504 10.987 19.8308C10.987 19.5111 10.7017 19.252 10.3497 19.252C9.99774 19.252 9.7124 19.5111 9.7124 19.8308C9.7124 20.1504 9.99774 20.4096 10.3497 20.4096Z" fill="#CCFC56"/>
<path d="M10.9156 19.8308C10.9122 20.054 10.7538 20.2392 10.5453 20.3073C10.326 20.3789 10.0721 20.3255 9.91309 20.1551C9.76257 19.9944 9.74212 19.7541 9.86311 19.5706C9.98409 19.3871 10.238 19.2923 10.459 19.3332C10.7049 19.3786 10.9117 19.5729 10.9156 19.8313C10.9173 19.9228 11.0593 19.9228 11.0576 19.8313C11.0531 19.5434 10.8526 19.3054 10.5828 19.2179C10.313 19.1298 9.99148 19.2042 9.80119 19.419C9.61091 19.6337 9.58648 19.9307 9.73985 20.1636C9.89889 20.4056 10.1971 20.5152 10.4783 20.4698C10.7941 20.4181 11.052 20.1574 11.0571 19.8313C11.0588 19.7399 10.9168 19.7399 10.9151 19.8313L10.9156 19.8308Z" fill="black"/>
<path d="M7.58792 21.1544C7.85287 21.0944 8.01021 20.7922 7.93934 20.4796C7.86847 20.1669 7.59624 19.9621 7.33129 20.0221C7.06635 20.0822 6.90901 20.3843 6.97988 20.697C7.05074 21.0097 7.32297 21.2145 7.58792 21.1544Z" fill="#CCFC56"/>
<path d="M7.87948 20.5443C7.90618 20.7323 7.84086 20.9482 7.66875 21.047C7.49664 21.1458 7.30693 21.0782 7.18367 20.9442C7.04337 20.7908 6.99736 20.5579 7.06439 20.362C7.12346 20.1904 7.28477 20.0598 7.47222 20.0854C7.69999 20.116 7.8437 20.333 7.87892 20.5443C7.89425 20.6341 8.03114 20.596 8.01581 20.5068C7.97377 20.2586 7.8011 20.0189 7.54776 19.9564C7.31033 19.8979 7.07177 20.0212 6.96385 20.237C6.84456 20.475 6.87751 20.7761 7.03655 20.9885C7.18026 21.1799 7.43075 21.2935 7.66534 21.2049C7.94708 21.0981 8.05557 20.7863 8.01581 20.5068C8.01013 20.4688 7.96241 20.4483 7.92833 20.4574C7.88744 20.4682 7.87324 20.5068 7.87892 20.5449L7.87948 20.5443Z" fill="black"/>
<path d="M6.38532 18.5833C6.50504 18.4925 6.46424 18.2371 6.29419 18.0129C6.12414 17.7887 5.88923 17.6806 5.76951 17.7714C5.64979 17.8622 5.69059 18.1175 5.86064 18.3417C6.03069 18.5659 6.2656 18.6741 6.38532 18.5833Z" fill="#CCFC56"/>
<path d="M6.25236 18.0753C6.30518 18.1514 6.34892 18.2332 6.37107 18.3235C6.3847 18.3786 6.39209 18.4496 6.36539 18.4985C6.34324 18.5394 6.30859 18.5473 6.26315 18.5434C6.20691 18.5388 6.14443 18.5053 6.09445 18.4718C5.95585 18.3781 5.84225 18.2253 5.79283 18.0662C5.77352 18.0049 5.75875 17.9322 5.78147 17.8697C5.79624 17.8288 5.82919 17.8101 5.86497 17.8095C6.0189 17.8055 6.16772 17.9572 6.25179 18.0753C6.27394 18.1066 6.3137 18.1213 6.34892 18.1009C6.37959 18.0827 6.39663 18.035 6.37448 18.0038C6.26315 17.8481 6.09558 17.6845 5.89451 17.6686C5.81839 17.6624 5.74001 17.6885 5.69059 17.7481C5.63038 17.8214 5.62243 17.9191 5.63493 18.0094C5.6656 18.2281 5.81158 18.4343 5.98425 18.5667C6.10751 18.6604 6.31313 18.7513 6.44662 18.6235C6.51591 18.557 6.53239 18.4542 6.52103 18.3627C6.50569 18.2327 6.44889 18.1105 6.37448 18.0038C6.32279 17.9293 6.19953 17.9998 6.25179 18.0753H6.25236Z" fill="black"/>
<path d="M4.54235 16.3882C4.66265 16.2982 4.61299 16.0285 4.43142 15.7859C4.24985 15.5433 4.00513 15.4196 3.88482 15.5096C3.76452 15.5996 3.81418 15.8693 3.99575 16.1119C4.17732 16.3545 4.42204 16.4782 4.54235 16.3882Z" fill="#CCFC56"/>
<path d="M4.38925 15.8464C4.44719 15.9298 4.49604 16.019 4.52217 16.1179C4.53694 16.1735 4.54887 16.2451 4.52444 16.2985C4.50456 16.3428 4.4665 16.3513 4.41879 16.3439C4.35972 16.3348 4.29894 16.3002 4.24895 16.265C4.099 16.1599 3.97404 15.9912 3.91724 15.8174C3.89622 15.7538 3.87748 15.6765 3.89906 15.6101C3.91326 15.5663 3.94336 15.5498 3.98256 15.5504C4.05185 15.5516 4.12115 15.5907 4.17852 15.6311C4.26088 15.6884 4.33132 15.7651 4.38925 15.8464C4.41141 15.8776 4.45117 15.8924 4.48638 15.8719C4.51706 15.8537 4.5341 15.806 4.51195 15.7748C4.3955 15.6123 4.21999 15.43 4.00869 15.4101C3.92803 15.4022 3.84794 15.4306 3.79909 15.497C3.74513 15.5703 3.74229 15.6663 3.75592 15.7532C3.79114 15.9815 3.9445 16.2025 4.12172 16.3456C4.24441 16.4445 4.45685 16.5609 4.59999 16.4314C4.67667 16.3621 4.68689 16.2513 4.67326 16.1548C4.65395 16.0173 4.59033 15.8884 4.51138 15.7748C4.45969 15.7004 4.33643 15.7708 4.38869 15.8464H4.38925Z" fill="black"/>
<path d="M3.04444 13.6238C3.23772 13.5909 3.34934 13.2997 3.29375 12.9734C3.23816 12.6472 3.03641 12.4094 2.84313 12.4423C2.64985 12.4753 2.53823 12.7664 2.59382 13.0927C2.64941 13.4189 2.85117 13.6567 3.04444 13.6238Z" fill="#CCFC56"/>
<path d="M3.22761 13.007C3.2509 13.1678 3.24522 13.4024 3.10833 13.5177C2.98564 13.6211 2.84534 13.4944 2.77832 13.3893C2.66869 13.2178 2.62382 12.9894 2.66187 12.7895C2.6846 12.6691 2.75957 12.4782 2.91578 12.5146C2.99927 12.5339 3.0646 12.6077 3.1089 12.677C3.17309 12.777 3.2083 12.8906 3.22761 13.0065C3.24238 13.0962 3.37927 13.0582 3.36451 12.969C3.32759 12.7463 3.21512 12.4777 2.98905 12.3891C2.77889 12.3073 2.60962 12.4765 2.5477 12.6634C2.46591 12.9093 2.51021 13.2093 2.63859 13.4314C2.73628 13.6006 2.92998 13.7653 3.13446 13.6682C3.37984 13.5512 3.39859 13.199 3.36507 12.9684C3.35201 12.8781 3.21512 12.9167 3.22818 13.0059L3.22761 13.007Z" fill="black"/>
<path d="M5.09123 10.9814C5.42027 10.8414 5.62935 10.5923 5.5582 10.4252C5.48705 10.2581 5.16263 10.2362 4.83359 10.3762C4.50454 10.5163 4.29547 10.7654 4.36661 10.9325C4.43776 11.0996 4.76218 11.1215 5.09123 10.9814Z" fill="#CCFC56"/>
<path d="M5.08717 10.907C4.97811 10.9559 4.85882 10.9922 4.73897 11.0013C4.65548 11.0076 4.55778 11.007 4.48394 10.9621C4.35272 10.8815 4.46746 10.7241 4.54358 10.6491C4.69921 10.4946 4.92358 10.393 5.13942 10.364C5.24337 10.3498 5.51601 10.3407 5.50068 10.5094C5.49386 10.5855 5.4382 10.6542 5.38651 10.7059C5.30074 10.7923 5.19622 10.8559 5.0866 10.9076C5.00367 10.9462 5.0758 11.0689 5.15817 11.0303C5.35129 10.94 5.5961 10.7781 5.63757 10.5497C5.67903 10.3214 5.44331 10.2152 5.24734 10.2146C4.97015 10.2135 4.67763 10.3367 4.47201 10.5208C4.33796 10.6412 4.19652 10.8621 4.3425 11.028C4.42373 11.1206 4.55891 11.1456 4.67592 11.1461C4.84292 11.1461 5.00651 11.0979 5.1576 11.0303C5.2411 10.9928 5.16896 10.8707 5.08603 10.9076L5.08717 10.907Z" fill="black"/>
<path d="M8.47816 10.1444C8.79741 10.1227 9.04927 10.0029 9.04072 9.87678C9.03216 9.75065 8.76643 9.66595 8.44719 9.6876C8.12794 9.70925 7.87608 9.82906 7.88463 9.95519C7.89318 10.0813 8.15892 10.166 8.47816 10.1444Z" fill="#CCFC56"/>
<path d="M8.48174 10.0709C8.38461 10.0772 8.28521 10.0772 8.18864 10.0601C8.12105 10.0482 8.04323 10.0317 7.98643 9.98969C7.95462 9.96584 7.94497 9.9505 7.96541 9.92097C8.00006 9.87212 8.06936 9.84315 8.12332 9.82327C8.30395 9.75681 8.51071 9.73807 8.70099 9.76306C8.7754 9.77271 8.85549 9.78919 8.92024 9.82838C8.93615 9.83804 8.95262 9.84883 8.96341 9.8653C8.97023 9.87609 8.9725 9.88007 8.96568 9.89597C8.9424 9.94993 8.85833 9.98345 8.80778 10.0028C8.70383 10.0431 8.59193 10.0624 8.48117 10.0709C8.39086 10.0777 8.38972 10.2197 8.48117 10.2129C8.60727 10.2033 8.7345 10.1828 8.85322 10.1362C8.93672 10.1039 9.02646 10.0596 9.07815 9.98288C9.19232 9.81304 8.99636 9.68865 8.85379 9.64889C8.62033 9.58413 8.34712 9.59947 8.11764 9.67445C7.98302 9.71875 7.73764 9.84088 7.83136 10.0232C7.87396 10.1061 7.97053 10.1493 8.05516 10.1749C8.19205 10.2163 8.33973 10.222 8.48117 10.2129C8.57205 10.2072 8.57262 10.0652 8.48117 10.0709H8.48174Z" fill="black"/>
<path d="M11.9668 9.36051C12.2549 9.23394 12.4465 9.03611 12.3949 8.91864C12.3433 8.80117 12.068 8.80856 11.7799 8.93513C11.4918 9.0617 11.3001 9.25953 11.3518 9.377C11.4034 9.49446 11.6787 9.48708 11.9668 9.36051Z" fill="#CCFC56"/>
<path d="M11.9507 9.28989C11.8542 9.33306 11.7514 9.36714 11.6468 9.38248C11.5844 9.39156 11.5037 9.39952 11.4446 9.37168C11.4083 9.35464 11.4088 9.33704 11.4219 9.30352C11.4424 9.25013 11.4889 9.20639 11.531 9.16947C11.6764 9.04167 11.8701 8.95704 12.0586 8.91955C12.1302 8.90535 12.2114 8.89569 12.2824 8.91614C12.2978 8.92068 12.3182 8.92977 12.3256 8.93886C12.3336 8.94795 12.3336 8.95987 12.3319 8.97067C12.3205 9.03315 12.262 9.08597 12.2166 9.12574C12.1382 9.19446 12.0456 9.24672 11.9513 9.29046C11.8684 9.32908 11.9405 9.45121 12.0229 9.41315C12.1302 9.36316 12.233 9.30125 12.3222 9.22173C12.3841 9.16606 12.4466 9.09563 12.4676 9.0127C12.5187 8.81446 12.2955 8.75482 12.1444 8.76562C11.8968 8.78379 11.644 8.89342 11.4526 9.05019C11.3458 9.13766 11.1913 9.32113 11.3208 9.45518C11.3912 9.52789 11.5082 9.53641 11.6031 9.52959C11.7497 9.5188 11.89 9.47279 12.0234 9.41315C12.1064 9.37566 12.0348 9.25354 11.9519 9.29046L11.9507 9.28989Z" fill="black"/>
<path d="M14.5131 7.83272C14.6976 7.664 14.7747 7.44803 14.6854 7.35033C14.5961 7.25263 14.3741 7.31021 14.1896 7.47893C14.005 7.64765 13.9279 7.86362 14.0172 7.96132C14.1066 8.05902 14.3286 8.00144 14.5131 7.83272Z" fill="#CCFC56"/>
<path d="M14.4857 7.76194C14.4278 7.81818 14.363 7.86646 14.2897 7.90111C14.2352 7.92723 14.1835 7.942 14.1284 7.93916C14.1137 7.93859 14.096 7.93291 14.0847 7.92723C14.0824 7.9261 14.0671 7.91474 14.0796 7.92496C14.075 7.92099 14.0705 7.91701 14.0665 7.91247C14.0529 7.89827 14.0745 7.92383 14.0631 7.90792C14.0608 7.90451 14.0591 7.90111 14.0574 7.89713C14.0603 7.90395 14.0603 7.90508 14.0586 7.89997C14.0569 7.89486 14.0557 7.89031 14.054 7.8852C14.0534 7.88293 14.05 7.86305 14.0517 7.87895C14.05 7.86532 14.0506 7.85112 14.0517 7.83749C14.0534 7.81477 14.05 7.8443 14.0523 7.83067C14.0534 7.82442 14.0546 7.81818 14.0563 7.81136C14.0608 7.79262 14.0665 7.77387 14.0733 7.75569C14.1284 7.61824 14.2523 7.49952 14.3818 7.42966C14.4357 7.40012 14.4999 7.3774 14.5522 7.37626C14.5635 7.37626 14.5755 7.37626 14.5868 7.37797C14.5709 7.37569 14.5919 7.37967 14.5936 7.38024C14.5999 7.38194 14.6056 7.38365 14.6118 7.38592C14.5942 7.3791 14.6368 7.40353 14.622 7.3916C14.626 7.39501 14.6294 7.39841 14.6328 7.40182C14.6453 7.41375 14.6305 7.39841 14.6379 7.40864C14.6391 7.41034 14.6476 7.42852 14.6413 7.41318C14.6447 7.42114 14.6465 7.42909 14.6487 7.43704C14.6538 7.45692 14.6487 7.42341 14.6499 7.44386C14.6499 7.45067 14.6504 7.45749 14.6499 7.4643C14.6499 7.48986 14.6425 7.51883 14.6305 7.55178C14.6016 7.63073 14.5448 7.7023 14.4851 7.76194C14.4204 7.8267 14.5209 7.92723 14.5857 7.86248C14.6998 7.74831 14.8345 7.55916 14.7822 7.38649C14.7299 7.21381 14.5329 7.21211 14.3943 7.2672C14.2119 7.33934 14.0444 7.48589 13.9586 7.66368C13.9222 7.73922 13.8978 7.82272 13.9126 7.90679C13.9256 7.98176 13.9779 8.0397 14.0483 8.06583C14.129 8.09593 14.2239 8.07946 14.3017 8.04936C14.409 8.00789 14.5033 7.942 14.5857 7.86248C14.651 7.79886 14.551 7.69833 14.4851 7.76194H14.4857Z" fill="black"/>
<path d="M30.0686 16.0708C30.181 15.8019 30.1521 15.5338 30.0042 15.472C29.8563 15.4102 29.6453 15.5782 29.533 15.8471C29.4206 16.116 29.4495 16.3841 29.5974 16.4459C29.7453 16.5076 29.9563 16.3397 30.0686 16.0708Z" fill="#CCFC56"/>
<path d="M29.4548 15.8484C29.3866 16.0285 29.3384 16.3039 29.4917 16.4573C29.6292 16.5953 29.8274 16.5045 29.9439 16.3886C30.1052 16.2278 30.2057 15.9853 30.2074 15.7581C30.2091 15.5865 30.1245 15.3724 29.9189 15.3877C29.6871 15.4054 29.5321 15.6553 29.4548 15.8478C29.4406 15.8836 29.4707 15.9256 29.5042 15.9353C29.5445 15.9467 29.5775 15.9211 29.5917 15.8859C29.644 15.7547 29.7399 15.5939 29.8802 15.5405C30.0046 15.494 30.0586 15.6132 30.0643 15.7217C30.0739 15.8995 30.0041 16.0887 29.8956 16.2284C29.8405 16.2988 29.7076 16.4363 29.6087 16.3698C29.5559 16.3346 29.54 16.2585 29.536 16.1994C29.5292 16.0915 29.5542 15.9859 29.5923 15.8853C29.6246 15.7996 29.4872 15.7626 29.4554 15.8478L29.4548 15.8484Z" fill="black"/>
<path d="M31.3897 13.3742C31.5092 13.0845 31.4859 12.8001 31.3377 12.739C31.1895 12.6779 30.9725 12.8632 30.853 13.1529C30.7336 13.4426 30.7569 13.727 30.9051 13.7881C31.0532 13.8493 31.2702 13.6639 31.3897 13.3742Z" fill="#CCFC56"/>
<path d="M30.7785 13.1558C30.708 13.3421 30.6439 13.6414 30.8035 13.8033C30.946 13.9481 31.1505 13.8357 31.2636 13.7135C31.4283 13.5358 31.5334 13.2813 31.5391 13.0387C31.543 12.8666 31.4669 12.6383 31.255 12.6593C31.0148 12.6832 30.8574 12.957 30.7785 13.1558C30.7444 13.2404 30.8819 13.2773 30.9154 13.1932C30.9716 13.0518 31.0716 12.8735 31.2215 12.8121C31.3522 12.7587 31.3948 12.9019 31.3976 13.0069C31.4022 13.2006 31.3249 13.4028 31.2102 13.5573C31.1579 13.6272 31.0233 13.78 30.9222 13.717C30.8643 13.6812 30.8529 13.5914 30.8512 13.5301C30.8472 13.4142 30.8756 13.3006 30.9165 13.1932C30.9489 13.1075 30.812 13.0706 30.7796 13.1558H30.7785Z" fill="black"/>
<path d="M31.7311 10.6198C31.9355 10.5991 32.0727 10.3007 32.0375 9.95332C32.0023 9.60595 31.808 9.34115 31.6035 9.36188C31.3991 9.38261 31.262 9.68101 31.2972 10.0284C31.3324 10.3758 31.5267 10.6406 31.7311 10.6198Z" fill="#CCFC56"/>
<path d="M31.2248 10.0226C31.2486 10.2543 31.3384 10.5497 31.5667 10.6599C31.7803 10.7627 31.9683 10.6082 32.0484 10.4139C32.1529 10.1606 32.1285 9.84875 32.0126 9.60337C31.928 9.42274 31.74 9.22962 31.5219 9.31084C31.2555 9.41081 31.2038 9.77832 31.2242 10.022C31.2316 10.1123 31.3736 10.1134 31.3662 10.022C31.3515 9.84477 31.3662 9.6011 31.515 9.4767C31.6468 9.36651 31.7888 9.49602 31.857 9.61246C31.966 9.79877 31.9979 10.0419 31.9507 10.2515C31.9223 10.3781 31.8354 10.586 31.669 10.5468C31.5821 10.5264 31.5179 10.4463 31.4747 10.373C31.4122 10.2668 31.3787 10.1441 31.3662 10.0214C31.3571 9.93168 31.2146 9.93054 31.2242 10.0214L31.2248 10.0226Z" fill="black"/>
<path d="M29.7322 7.94273C29.7715 7.75769 29.5031 7.54396 29.1327 7.46537C28.7623 7.38677 28.4302 7.47307 28.3909 7.65811C28.3517 7.84316 28.6201 8.05688 28.9905 8.13547C29.3609 8.21407 29.693 8.12777 29.7322 7.94273Z" fill="#CCFC56"/>
<path d="M28.952 8.20005C29.1894 8.25174 29.5273 8.27787 29.7205 8.09554C29.8966 7.92911 29.7625 7.70758 29.6046 7.59057C29.3757 7.42074 29.0542 7.34519 28.7725 7.36905C28.581 7.38552 28.2925 7.4747 28.3158 7.71895C28.3425 8.00182 28.7208 8.14552 28.952 8.20005C29.0406 8.22107 29.0786 8.08418 28.9894 8.06316C28.8117 8.02113 28.5612 7.93877 28.4731 7.75984C28.3947 7.60023 28.6157 7.53207 28.7327 7.51503C28.9622 7.48208 29.2178 7.53321 29.4211 7.64226C29.5154 7.69282 29.7409 7.8388 29.6398 7.97285C29.5859 8.04442 29.4791 8.06998 29.3961 8.08304C29.2615 8.10406 29.1218 8.09099 28.9894 8.06202C28.9003 8.04271 28.8622 8.1796 28.952 8.19892V8.20005Z" fill="black"/>
<path d="M25.2729 8.20493C25.6041 8.16126 25.8584 8.01846 25.841 7.88597C25.8235 7.75348 25.5408 7.68147 25.2096 7.72513C24.8784 7.7688 24.624 7.9116 24.6415 8.0441C24.659 8.17659 24.9416 8.2486 25.2729 8.20493Z" fill="#CCFC56"/>
<path d="M25.2999 8.27454C25.4282 8.2558 25.5543 8.22342 25.6725 8.16889C25.7526 8.1314 25.84 8.07858 25.8855 7.99906C25.9906 7.81672 25.7849 7.69915 25.6339 7.66677C25.3828 7.61338 25.0959 7.64746 24.8597 7.74515C24.7245 7.80082 24.4927 7.93885 24.5927 8.11891C24.6398 8.20354 24.7449 8.24387 24.8341 8.26432C24.9801 8.2984 25.1329 8.29613 25.2806 8.27681C25.3186 8.2717 25.351 8.24785 25.3516 8.20581C25.3516 8.17116 25.3186 8.1297 25.2806 8.13481C25.1755 8.14844 25.0693 8.15356 24.9636 8.14276C24.892 8.13538 24.8085 8.12118 24.7478 8.07915C24.7137 8.05586 24.7029 8.03655 24.7239 8.00303C24.7574 7.94907 24.8278 7.91442 24.8835 7.88886C25.0693 7.80309 25.2902 7.77412 25.493 7.78946C25.5509 7.794 25.8054 7.82638 25.7685 7.91897C25.7435 7.98088 25.6571 8.02064 25.6015 8.0462C25.4953 8.09505 25.3782 8.12118 25.2629 8.13765C25.1726 8.15072 25.2113 8.28761 25.3004 8.27454H25.2999Z" fill="black"/>
<path d="M22.1567 8.03737C22.1852 7.9065 21.9445 7.74287 21.619 7.67189C21.2935 7.60092 21.0065 7.64948 20.9779 7.78036C20.9494 7.91124 21.1901 8.07487 21.5157 8.14584C21.8412 8.21681 22.1282 8.16825 22.1567 8.03737Z" fill="#CCFC56"/>
<path d="M21.4865 8.21266C21.6183 8.24163 21.7557 8.25867 21.8909 8.24674C21.9858 8.23822 22.0914 8.21891 22.1653 8.15416C22.3175 8.02011 22.1721 7.84686 22.046 7.7645C21.8313 7.62477 21.5433 7.55945 21.2894 7.57024C21.1417 7.57649 20.8685 7.63102 20.9094 7.83777C20.9281 7.93377 21.0128 8.0042 21.0906 8.05532C21.2099 8.13314 21.349 8.18029 21.4865 8.21266C21.5757 8.23368 21.6132 8.09679 21.524 8.07577C21.3729 8.04055 21.1701 7.98432 21.0701 7.85368C21.044 7.81903 21.0361 7.79347 21.0713 7.7662C21.1218 7.72701 21.2014 7.71849 21.2627 7.71395C21.4649 7.69975 21.6819 7.74178 21.8654 7.82755C21.9335 7.85936 22.0045 7.89742 22.0556 7.95422C22.0812 7.98262 22.1011 8.01329 22.0801 8.03999C22.0403 8.09111 21.9409 8.10076 21.8824 8.10531C21.762 8.11496 21.6416 8.10133 21.524 8.07577C21.4348 8.05646 21.3968 8.19335 21.4865 8.21266Z" fill="black"/>
<path d="M19.0786 7.15328C19.1481 7.03548 19.0178 6.82989 18.7876 6.69407C18.5574 6.55826 18.3145 6.54366 18.245 6.66146C18.1755 6.77926 18.3058 6.98485 18.536 7.12067C18.7662 7.25648 19.0091 7.27109 19.0786 7.15328Z" fill="#CCFC56"/>
<path d="M18.4754 7.16462C18.6322 7.26118 18.865 7.35547 19.0462 7.26913C19.2093 7.19132 19.1803 6.99876 19.094 6.87437C18.9747 6.70283 18.7747 6.57502 18.5725 6.52674C18.4265 6.49209 18.2005 6.49721 18.1596 6.68067C18.1141 6.88459 18.326 7.06919 18.476 7.16519C18.5532 7.21461 18.6242 7.09192 18.5475 7.0425C18.4476 6.97888 18.3078 6.86357 18.2965 6.74486C18.2925 6.70339 18.3022 6.68238 18.3425 6.6642C18.3891 6.64318 18.4572 6.64773 18.5106 6.65852C18.6719 6.69033 18.827 6.78064 18.9366 6.90277C18.9747 6.94537 19.0093 6.99478 19.0224 7.05102C19.0258 7.06692 19.0258 7.06465 19.0258 7.07999C19.0258 7.0976 19.0269 7.08851 19.0224 7.10157C19.019 7.11293 19.0122 7.12429 19.0002 7.13338C18.9548 7.16689 18.8793 7.16348 18.823 7.15326C18.7242 7.13565 18.6327 7.09476 18.5481 7.0425C18.4703 6.99422 18.3987 7.11691 18.4765 7.16519L18.4754 7.16462Z" fill="black"/>
<path d="M11.5014 18.0117C11.2697 17.9078 11.0482 17.7703 10.8431 17.6215C10.4926 17.367 10.1354 17.02 10.0184 16.5854C9.94508 16.3128 9.98882 16.0299 10.1172 15.7771C10.1791 15.655 9.99506 15.5471 9.93315 15.6698C9.80137 15.9299 9.74116 16.2128 9.78433 16.5031C9.82125 16.7513 9.93599 16.9842 10.0848 17.1835C10.3575 17.5482 10.7312 17.8311 11.1243 18.0554C11.2123 18.1054 11.3015 18.1543 11.3941 18.1957C11.4469 18.2196 11.5083 18.2105 11.5401 18.1577C11.5673 18.1122 11.5543 18.0356 11.502 18.0117H11.5014Z" fill="black"/>
<path d="M15.668 10.7551C15.4079 10.888 15.1551 10.9851 14.8762 11.0828C14.2935 11.2873 13.6828 11.4367 13.0648 11.4731C12.6746 11.4958 12.2816 11.4731 11.9016 11.3765C11.7686 11.343 11.7118 11.548 11.8448 11.5821C12.5303 11.7559 13.2534 11.7094 13.9401 11.5668C14.4712 11.4566 14.9898 11.2856 15.488 11.0709C15.5845 11.0294 15.6817 10.9868 15.7754 10.9386C15.8975 10.8761 15.7896 10.6926 15.668 10.7545V10.7551Z" fill="black"/>
<path d="M26.456 16.9654C26.7065 16.9273 26.9559 16.8699 27.2001 16.8046C27.6449 16.6859 28.1061 16.5337 28.4878 16.2707C28.6815 16.1372 28.8525 15.9725 28.9428 15.751C28.9644 15.6976 28.9189 15.6345 28.8684 15.6197C28.8076 15.6021 28.7588 15.6413 28.7372 15.6942C28.7122 15.7555 28.6582 15.835 28.6065 15.8918C28.5423 15.9628 28.4691 16.0247 28.3912 16.0793C28.2146 16.2031 28.0181 16.2991 27.8176 16.3792C27.4415 16.5297 27.0468 16.6348 26.6497 16.7143C26.5662 16.7308 26.4827 16.7473 26.3981 16.7598C26.3413 16.7683 26.3095 16.8398 26.3237 16.891C26.3407 16.9517 26.3975 16.9739 26.4549 16.9654H26.456Z" fill="black"/>
<path d="M25.3336 16.9189C25.5392 16.5111 25.7948 16.1237 26.0607 15.7528C26.6037 14.9956 27.2512 14.2833 28.0334 13.7693C28.5048 13.4591 29.0268 13.2285 29.5863 13.1376C29.7215 13.1155 29.6641 12.9104 29.5295 12.932C28.5071 13.0984 27.617 13.7147 26.8962 14.4327C26.3146 15.0126 25.8142 15.6789 25.391 16.3827C25.3064 16.523 25.2234 16.665 25.1496 16.811C25.0882 16.9331 25.2717 17.041 25.3336 16.9183V16.9189Z" fill="black"/>
</g>
</g>
</g>
</g>
<defs>
<clipPath id="clip0_2430_47285">
<rect width="36" height="36" fill="white"/>
</clipPath>
<clipPath id="clip1_2430_47285">
<rect width="43.3052" height="52.0313" fill="white" transform="translate(-3.65234 7.70801)"/>
</clipPath>
<clipPath id="clip2_2430_47285">
<rect width="36" height="36" fill="white"/>
</clipPath>
<clipPath id="clip3_2430_47285">
<rect width="45.9607" height="57.6936" fill="white" transform="translate(-3.53955 1.42139)"/>
</clipPath>
</defs>
</svg>
