<svg width="36" height="36" viewBox="0 0 36 36" fill="none" xmlns="http://www.w3.org/2000/svg">
<g clip-path="url(#clip0_2430_47097)">
<circle cx="18" cy="18" r="18" fill="#C9A6FD"/>
<mask id="mask0_2430_47097" style="mask-type:alpha" maskUnits="userSpaceOnUse" x="0" y="0" width="36" height="36">
<circle cx="18" cy="18" r="18" fill="#C9A6FD"/>
</mask>
<g mask="url(#mask0_2430_47097)">
<g clip-path="url(#clip1_2430_47097)">
<path d="M2.30436 32.8156C2.30436 32.8156 1.15582 38.4814 1.23324 41.4157L2.30436 32.8156Z" fill="#674AD6"/>
<path d="M1.46912 32.5842C1.03062 34.7507 0.677051 36.9496 0.4708 39.1501C0.400316 39.9024 0.349476 40.6592 0.367386 41.4149C0.377785 41.8678 0.758511 42.3028 1.23399 42.2815C1.70946 42.2601 2.11214 41.9002 2.10059 41.4149C2.08557 40.7695 2.12138 40.1242 2.17511 39.4812C2.20631 39.1074 2.24444 38.7342 2.28662 38.3615C2.30684 38.1842 2.32821 38.0074 2.35017 37.83C2.36114 37.7416 2.3727 37.6532 2.38425 37.5648C2.38888 37.5267 2.39407 37.4892 2.39927 37.4516C2.38252 37.5776 2.39292 37.4978 2.4039 37.4181C2.57317 36.1974 2.77422 34.9806 3.00127 33.7691C3.04634 33.5276 3.09255 33.2861 3.14108 33.0447C3.23063 32.6015 3.01398 32.0874 2.53562 31.9787C2.10405 31.8805 1.56561 32.1087 1.4697 32.5842H1.46912Z" fill="black"/>
<path d="M18.8799 42.1162C28.3216 42.1162 35.9756 34.4622 35.9756 25.0205C35.9756 15.5788 28.3216 7.9248 18.8799 7.9248C9.43819 7.9248 1.78418 15.5788 1.78418 25.0205C1.78418 34.4622 9.43819 42.1162 18.8799 42.1162Z" fill="#674AD6"/>
<path d="M35.7592 25.02C35.7569 26.7948 35.4825 28.5603 34.9342 30.2485C34.386 31.9366 33.6309 33.4035 32.6453 34.7924C31.6596 36.1812 30.4805 37.4014 29.1402 38.4257C27.7911 39.457 26.2873 40.2889 24.6922 40.8724C23.037 41.4779 21.2905 41.8211 19.5296 41.8869C17.7548 41.9534 15.9759 41.7454 14.267 41.2612C12.6158 40.7933 11.0427 40.0705 9.60872 39.1277C8.19963 38.2016 6.93439 37.0617 5.85923 35.7629C4.77714 34.4561 3.88916 32.9783 3.24961 31.4068C2.61006 29.8354 2.18369 28.0756 2.05081 26.3366C1.91505 24.552 2.05544 22.7483 2.48007 21.0094C2.9047 19.2704 3.54772 17.7469 4.43627 16.2812C5.32483 14.8155 6.41154 13.519 7.67794 12.393C8.94317 11.2682 10.3783 10.338 11.9191 9.63726C13.4998 8.91856 15.2018 8.44713 16.9269 8.25128C18.7005 8.04965 20.5071 8.12129 22.257 8.47832C23.9498 8.82323 25.5848 9.42812 27.0932 10.2705C28.5682 11.0937 29.9143 12.1365 31.0825 13.3573C32.257 14.585 33.2421 15.9871 34.0006 17.5071C34.7719 19.0532 35.2976 20.7188 35.5634 22.4254C35.6974 23.2833 35.7592 24.1522 35.7604 25.0206C35.7604 25.2996 36.1943 25.2996 36.1937 25.0206C36.1914 23.21 35.9123 21.3993 35.3531 19.6771C34.8135 18.015 34.0208 16.4349 33.0075 15.0113C31.9942 13.5878 30.7786 12.3295 29.3955 11.2682C28.0113 10.2057 26.4676 9.35995 24.8297 8.75853C23.1392 8.13688 21.3512 7.79024 19.5532 7.72034C17.7351 7.64985 15.9025 7.86477 14.1514 8.36104C12.4662 8.83825 10.8526 9.57602 9.38918 10.5385C7.93734 11.4929 6.62819 12.664 5.52357 14.0055C4.41316 15.3539 3.51132 16.8601 2.84809 18.476C2.16809 20.1329 1.75732 21.8945 1.61867 23.6796C1.48001 25.4648 1.62502 27.3477 2.05601 29.1231C2.47025 30.8303 3.15082 32.4751 4.06133 33.9772C4.96201 35.4631 6.08801 36.815 7.38791 37.9682C8.68781 39.1213 10.1581 40.0803 11.7411 40.7956C13.3709 41.5316 15.103 42.0094 16.8789 42.2168C18.6988 42.4288 20.5527 42.3479 22.3483 41.9846C24.0763 41.6344 25.7506 41.0128 27.2908 40.1555C28.8311 39.2981 30.2026 38.2316 31.4026 36.9733C32.5996 35.719 33.6107 34.2839 34.3831 32.7316C35.1728 31.144 35.7188 29.4368 35.9869 27.6839C36.1215 26.8023 36.1908 25.912 36.192 25.02C36.192 24.7409 35.7592 24.7409 35.7587 25.02H35.7592Z" fill="black"/>
<path d="M17.5234 42.1162C26.9651 42.1162 34.6192 34.4622 34.6192 25.0205C34.6192 15.5788 26.9651 7.9248 17.5234 7.9248C8.08175 7.9248 0.427734 15.5788 0.427734 25.0205C0.427734 34.4622 8.08175 42.1162 17.5234 42.1162Z" fill="#A495FC"/>
<path d="M34.3777 25.9407C34.2795 27.7115 33.9069 29.4615 33.2685 31.1167C32.6584 32.6996 31.7993 34.1948 30.7409 35.5207C29.6825 36.8466 28.4334 38.0108 27.0353 38.9646C25.6372 39.9184 24.0866 40.6683 22.4608 41.1652C20.7744 41.6805 19.0135 41.9261 17.2502 41.8966C15.4749 41.8671 13.7093 41.5604 12.0298 40.9849C10.407 40.4291 8.87425 39.6186 7.49463 38.6006C6.14331 37.6035 4.937 36.396 3.94099 35.0441C2.93111 33.6731 2.12459 32.1525 1.56766 30.543C0.997437 28.8935 0.686038 27.1603 0.64733 25.4156C0.608622 23.6708 0.848382 21.8342 1.36603 20.1201C1.88368 18.4059 2.61105 16.9212 3.57702 15.5051C4.54299 14.0891 5.70134 12.8545 7.02608 11.799C8.34447 10.7481 9.82983 9.89362 11.4018 9.28353C13.027 8.65265 14.7475 8.27308 16.4876 8.17024C18.2711 8.06451 20.0678 8.23668 21.797 8.68731C23.469 9.12292 25.067 9.81736 26.5281 10.74C27.9562 11.6413 29.2434 12.7586 30.3428 14.04C31.4486 15.3278 32.3557 16.786 33.0304 18.343C33.7145 19.9219 34.1518 21.6158 34.32 23.3282C34.4055 24.1966 34.4222 25.0701 34.3766 25.9413C34.3621 26.2198 34.7954 26.2192 34.8099 25.9413C34.9052 24.133 34.7215 22.3108 34.2552 20.5603C33.8063 18.8728 33.0963 17.2516 32.1621 15.7761C31.2331 14.3092 30.084 12.9793 28.7627 11.8521C27.4357 10.7198 25.9428 9.78616 24.3379 9.10155C22.7329 8.41693 20.9165 7.94781 19.1175 7.78085C17.3184 7.61388 15.4656 7.73116 13.6897 8.13211C11.9137 8.53306 10.3313 9.1703 8.81821 10.0525C7.31784 10.9272 5.94746 12.0295 4.77292 13.3086C3.59608 14.59 2.60989 16.0476 1.86808 17.6214C1.10143 19.2465 0.595334 20.9809 0.360775 22.7621C0.126215 24.5432 0.172433 26.4226 0.506941 28.2211C0.828739 29.9491 1.42207 31.6256 2.25054 33.1751C3.07901 34.7246 4.12355 36.1169 5.35932 37.3377C6.59394 38.5579 8.01459 39.5943 9.55598 40.3933C11.1372 41.2131 12.8444 41.7868 14.6007 42.0838C16.3571 42.3807 18.2659 42.4108 20.0852 42.1433C21.8311 41.8868 23.5325 41.3541 25.1184 40.5805C26.6817 39.8179 28.1278 38.8144 29.3942 37.6225C30.6565 36.4347 31.7421 35.0539 32.5966 33.546C33.4701 32.0046 34.105 30.3252 34.4673 28.5908C34.6493 27.7184 34.7636 26.831 34.8128 25.9413C34.8284 25.6629 34.3951 25.6634 34.3795 25.9413L34.3777 25.9407Z" fill="black"/>
<path d="M32.8195 25.0205C32.8172 26.6278 32.5688 28.2275 32.0725 29.7562C31.5959 31.2237 30.8928 32.6143 30.0002 33.872C29.1133 35.1222 28.0341 36.2413 26.8163 37.172C25.5944 38.1062 24.2315 38.8584 22.7872 39.387C21.288 39.9353 19.7055 40.2455 18.111 40.3051C16.5043 40.3651 14.8919 40.1762 13.3447 39.7377C11.8495 39.3142 10.4237 38.6597 9.12493 37.8058C7.84871 36.9669 6.70191 35.9351 5.72843 34.7588C4.75495 33.5826 3.93977 32.2301 3.35799 30.8019C2.76235 29.3391 2.39376 27.7844 2.27359 26.2095C2.15053 24.5936 2.27821 22.9598 2.66298 21.3849C3.031 19.877 3.63011 18.4298 4.43489 17.1021C5.23043 15.7895 6.22355 14.6 7.37093 13.5803C8.51657 12.5617 9.8159 11.7182 11.2117 11.0833C12.6479 10.4299 14.1922 10.0029 15.7602 9.82442C17.3669 9.64185 19.003 9.70829 20.5877 10.0312C22.1205 10.3438 23.6018 10.8921 24.9675 11.6547C26.3033 12.4005 27.5234 13.3451 28.5807 14.4509C29.6379 15.5567 30.5369 16.8329 31.2238 18.2091C31.9223 19.6089 32.3995 21.1174 32.6404 22.6634C32.7617 23.4428 32.8189 24.2319 32.8201 25.0211C32.8201 25.2071 33.109 25.2071 33.109 25.0211C33.1066 23.3902 32.8553 21.7604 32.3515 20.2086C31.8651 18.7117 31.151 17.2893 30.2382 16.0067C29.3254 14.7242 28.2363 13.5976 26.9948 12.6443C25.7486 11.6876 24.3586 10.9244 22.8836 10.3831C21.3619 9.82442 19.7523 9.51129 18.1329 9.44831C16.4951 9.38476 14.8451 9.5783 13.2679 10.0249C11.7501 10.4547 10.2971 11.1191 8.97934 11.9863C7.67193 12.846 6.49335 13.9015 5.4985 15.1095C4.50133 16.3199 3.69077 17.6741 3.09512 19.1248C2.49948 20.5755 2.11124 22.2029 1.98645 23.8108C1.85877 25.4515 1.99165 27.1142 2.37989 28.7134C2.75311 30.2513 3.3655 31.7321 4.18589 33.0851C4.99702 34.4237 6.01094 35.6404 7.18201 36.6792C8.3525 37.7174 9.67724 38.5805 11.1031 39.2247C12.5659 39.8856 14.1235 40.3149 15.7174 40.5009C17.3565 40.6921 19.0261 40.6205 20.6432 40.2929C22.2002 39.9775 23.7075 39.4182 25.0952 38.6464C26.4639 37.8849 27.7175 36.9138 28.7985 35.7808C29.8765 34.6508 30.7865 33.359 31.4821 31.9603C32.1776 30.5616 32.6837 28.9925 32.9252 27.4135C33.0466 26.6214 33.1078 25.8224 33.109 25.0211C33.109 24.8351 32.8201 24.8351 32.8201 25.0211L32.8195 25.0205Z" fill="black"/>
<path d="M22.6803 19.9233C22.667 20.371 22.6278 21.6831 21.7398 22.7287C21.5104 22.9985 20.898 23.7196 19.9263 23.7843C19.04 23.8432 18.3999 23.3203 18.2243 23.1719C16.9827 22.125 17.0122 20.2376 17.0197 19.776C17.0272 19.2964 17.052 17.7111 18.1255 16.6753C18.3132 16.4944 18.8609 15.9808 19.6917 15.9126C20.6531 15.8341 21.3602 16.4037 21.6254 16.6545C22.7462 17.7117 22.6959 19.3987 22.6803 19.9233Z" fill="white"/>
<path d="M22.536 19.9248C22.5164 20.5788 22.4211 21.2189 22.142 21.8255C21.863 22.4322 21.3638 23.0555 20.756 23.3906C20.3817 23.5969 19.949 23.687 19.5237 23.6286C19.1615 23.579 18.8201 23.4276 18.5214 23.2202C18.4948 23.2017 18.4688 23.1832 18.4434 23.1641C18.4388 23.1607 18.4064 23.1364 18.4214 23.148C18.4347 23.1578 18.4012 23.1318 18.3954 23.1272C18.3509 23.0913 18.307 23.0544 18.2643 23.0162C18.1199 22.8863 17.9876 22.7412 17.8749 22.5835C17.6565 22.2779 17.4982 21.9347 17.3879 21.576C17.218 21.0219 17.1597 20.4783 17.1625 19.8982C17.1654 19.3713 17.2036 18.8802 17.3364 18.3753C17.5236 17.6653 17.894 17.0217 18.4728 16.5606C18.4948 16.5433 18.5087 16.5329 18.5404 16.5092C18.5763 16.4832 18.6127 16.4578 18.6496 16.4335C18.7265 16.3833 18.8056 16.3365 18.8871 16.2943C19.0743 16.1973 19.2747 16.1273 19.4821 16.0869C19.9068 16.0037 20.3563 16.0638 20.7509 16.2406C21.0386 16.3694 21.2824 16.5347 21.5019 16.7374C21.7983 17.0113 22.0248 17.3469 22.1883 17.7144C22.4592 18.3245 22.5424 18.9825 22.5407 19.6405C22.5407 19.7347 22.5384 19.8295 22.5355 19.9236C22.5297 20.1097 22.8186 20.1097 22.8243 19.9236C22.8422 19.3141 22.8035 18.7 22.6354 18.1107C22.4193 17.355 21.986 16.6831 21.3332 16.2365C20.9831 15.9968 20.5827 15.835 20.161 15.7807C19.6792 15.7189 19.1904 15.8165 18.7588 16.0361C18.0858 16.3781 17.5658 16.9934 17.2712 17.6809C17.0025 18.3089 16.8927 18.9889 16.8766 19.6689C16.865 20.1773 16.891 20.6845 16.991 21.1842C17.1481 21.9717 17.4988 22.7476 18.1216 23.2745C18.7207 23.7812 19.5029 24.0544 20.2852 23.8771C21.0143 23.7118 21.6019 23.1809 22.0305 22.5899C22.5216 21.9116 22.751 21.0808 22.8093 20.2541C22.8168 20.1443 22.8214 20.0346 22.8243 19.9242C22.8301 19.7382 22.5412 19.7382 22.5355 19.9242L22.536 19.9248Z" fill="black"/>
<path d="M20.729 19.9131C20.721 20.2967 20.6967 21.4198 20.145 22.3147C20.0028 22.5458 19.6227 23.1628 19.0195 23.2183C18.4695 23.2691 18.072 22.8208 17.9634 22.6937C17.1927 21.7971 17.2112 20.1811 17.2158 19.786C17.2205 19.3752 17.2361 18.0181 17.9022 17.1313C18.0189 16.9764 18.3586 16.5362 18.8745 16.4784C19.4713 16.4114 19.9098 16.899 20.0745 17.1134C20.7701 18.0187 20.7389 19.4636 20.729 19.9125V19.9131Z" fill="black"/>
<path d="M20.5841 19.914C20.5725 20.4363 20.5188 20.9562 20.3663 21.4583C20.2732 21.7651 20.1415 22.0528 19.9699 22.3232C19.8417 22.5254 19.7048 22.7068 19.5112 22.8599C19.294 23.032 19.0184 23.1239 18.7428 23.0569C18.499 22.9974 18.3026 22.8495 18.1362 22.6727C17.7653 22.2798 17.5816 21.7477 17.4759 21.2272C17.3869 20.7881 17.3563 20.3369 17.3586 19.8834C17.3603 19.472 17.3811 19.059 17.4528 18.658C17.5065 18.357 17.5845 18.0577 17.7023 17.7752C17.7624 17.632 17.8346 17.4927 17.9184 17.3616C17.9554 17.3032 17.9952 17.2472 18.0363 17.1917C18.0594 17.1605 18.0241 17.2067 18.0513 17.1727C18.0692 17.1495 18.0877 17.127 18.1067 17.1051C18.272 16.9104 18.4759 16.7347 18.7243 16.6585C19.0167 16.5689 19.3073 16.644 19.5551 16.8116C19.6522 16.8769 19.74 16.956 19.8226 17.0432C19.8573 17.0796 19.8908 17.1178 19.9231 17.1565C19.9301 17.1651 19.9734 17.22 19.9491 17.1883C19.974 17.2206 19.9982 17.2541 20.0214 17.2876C20.197 17.5441 20.3166 17.8313 20.4009 18.1294C20.5448 18.6361 20.5887 19.1629 20.587 19.6881C20.587 19.7632 20.5852 19.8389 20.5835 19.914C20.5794 20.1 20.8683 20.1 20.8724 19.914C20.8833 19.4154 20.8608 18.9163 20.7666 18.4252C20.6522 17.8284 20.4217 17.2281 19.9826 16.7942C19.7654 16.5793 19.4916 16.3991 19.186 16.3477C18.837 16.2893 18.4938 16.3927 18.2142 16.6053C17.7387 16.967 17.4499 17.528 17.2864 18.0918C17.1362 18.6124 17.0801 19.1583 17.0709 19.6985C17.0639 20.1162 17.0795 20.5328 17.1367 20.947C17.2188 21.5467 17.3852 22.1724 17.7538 22.6634C18.0987 23.1239 18.6504 23.5029 19.2495 23.3203C19.8001 23.1528 20.1785 22.6086 20.4183 22.114C20.7094 21.5132 20.8308 20.8442 20.8631 20.1815C20.8677 20.0925 20.87 20.003 20.8718 19.914C20.8758 19.728 20.587 19.728 20.5829 19.914H20.5841Z" fill="black"/>
<path d="M20.8892 17.7488L19.1733 19.2087L21.2439 19.8488L20.8892 17.7488Z" fill="white"/>
<path d="M16.798 20.1014C16.7847 20.5491 16.7454 21.8612 15.8575 22.9068C15.6281 23.1767 15.0157 23.8977 14.0439 23.9624C13.1577 24.0213 12.5176 23.4984 12.3419 23.35C11.1004 22.3031 11.1299 20.4157 11.1374 19.9541C11.1449 19.4745 11.1697 17.8892 12.2432 16.8534C12.4309 16.6725 12.9786 16.1589 13.8094 16.0907C14.7707 16.0122 15.4779 16.5818 15.7431 16.8326C16.8639 17.8898 16.8136 19.5768 16.798 20.1014Z" fill="white"/>
<path d="M16.6527 20.1006C16.6331 20.7546 16.5378 21.3947 16.2587 22.0013C15.9699 22.6293 15.4805 23.2313 14.8727 23.5664C14.4984 23.7726 14.0657 23.8628 13.6404 23.8044C13.2782 23.7547 12.9368 23.6034 12.6381 23.396C12.6115 23.3775 12.5855 23.359 12.5601 23.3399C12.5555 23.3365 12.5231 23.3122 12.5381 23.3237C12.5514 23.3336 12.5179 23.3076 12.5121 23.3029C12.4676 23.2671 12.4237 23.2302 12.381 23.192C12.2366 23.062 12.1042 22.917 11.9916 22.7593C11.7732 22.4537 11.6149 22.1105 11.5046 21.7517C11.3347 21.1977 11.2764 20.654 11.2792 20.074C11.2821 19.5471 11.3203 19.056 11.4531 18.5511C11.6403 17.8411 12.0107 17.1975 12.5895 16.7364C12.6115 16.7191 12.6254 16.7087 12.6571 16.685C12.693 16.659 12.7294 16.6336 12.7663 16.6093C12.8432 16.5591 12.9223 16.5123 13.0038 16.4701C13.191 16.373 13.3914 16.3031 13.5988 16.2627C14.0235 16.1795 14.473 16.2396 14.8675 16.4164C15.1553 16.5452 15.3991 16.7104 15.6186 16.9132C15.915 17.1871 16.1415 17.5227 16.3049 17.8902C16.5759 18.5003 16.6591 19.1583 16.6574 19.8163C16.6574 19.9105 16.6551 20.0052 16.6522 20.0994C16.6464 20.2854 16.9353 20.2854 16.941 20.0994C16.9589 19.4899 16.9202 18.8758 16.7521 18.2865C16.536 17.5308 16.1027 16.8589 15.4499 16.4123C15.0998 16.1726 14.6994 16.0108 14.2777 15.9565C13.7959 15.8947 13.3071 15.9923 12.8755 16.2118C12.2025 16.5539 11.6825 17.1692 11.3879 17.8567C11.1192 18.4847 11.0094 19.1646 10.9933 19.8446C10.9817 20.353 11.0077 20.8603 11.1077 21.36C11.2648 22.1475 11.6155 22.9234 12.2383 23.4503C12.8611 23.9772 13.6196 24.2302 14.4019 24.0528C15.131 23.8876 15.7186 23.3567 16.1472 22.7657C16.6383 22.0874 16.8677 21.2566 16.926 20.4299C16.9335 20.3201 16.9381 20.2103 16.941 20.1C16.9468 19.914 16.6579 19.914 16.6522 20.1L16.6527 20.1006Z" fill="black"/>
<path d="M14.8467 20.091C14.8386 20.4747 14.8144 21.5978 14.2626 22.4927C14.1205 22.7238 13.7404 23.3408 13.1372 23.3963C12.5872 23.4471 12.1897 22.9988 12.0811 22.8717C11.3104 21.975 11.3289 20.3591 11.3335 19.9639C11.3381 19.5532 11.3537 18.1961 12.0199 17.3093C12.1366 17.1544 12.4763 16.7142 12.9922 16.6564C13.589 16.5894 14.0275 17.077 14.1921 17.2913C14.8877 18.1967 14.8565 19.6416 14.8467 20.0905V20.091Z" fill="black"/>
<path d="M14.7022 20.0898C14.6907 20.6121 14.6369 21.132 14.4844 21.6341C14.3914 21.9408 14.2597 22.2286 14.0881 22.4989C13.9598 22.7011 13.8229 22.8825 13.6294 23.0356C13.4122 23.2078 13.1366 23.2997 12.861 23.2327C12.6172 23.1731 12.4208 23.0252 12.2544 22.8485C11.8835 22.4556 11.6998 21.9235 11.594 21.403C11.5051 20.9639 11.4744 20.5127 11.4767 20.0592C11.4785 19.6478 11.4993 19.2347 11.5709 18.8338C11.6246 18.5328 11.7026 18.2335 11.8205 17.951C11.8806 17.8077 11.9528 17.6685 12.0366 17.5374C12.0735 17.479 12.1134 17.423 12.1544 17.3675C12.1775 17.3363 12.1423 17.3825 12.1695 17.3484C12.1874 17.3253 12.2058 17.3028 12.2249 17.2808C12.3901 17.0861 12.5941 16.9105 12.8425 16.8343C13.1348 16.7447 13.4254 16.8198 13.6733 16.9874C13.7703 17.0526 13.8582 17.1318 13.9408 17.219C13.9754 17.2554 14.009 17.2936 14.0413 17.3323C14.0482 17.3409 14.0916 17.3958 14.0673 17.364C14.0921 17.3964 14.1164 17.4299 14.1395 17.4634C14.3152 17.7199 14.4347 18.0071 14.5191 18.3052C14.6629 18.8118 14.7069 19.3387 14.7051 19.8639C14.7051 19.939 14.7034 20.0147 14.7017 20.0898C14.6976 20.2758 14.9865 20.2758 14.9905 20.0898C15.0015 19.5912 14.979 19.092 14.8848 18.601C14.7704 18.0042 14.5399 17.4039 14.1008 16.97C13.8836 16.7551 13.6097 16.5749 13.3041 16.5234C12.9552 16.4651 12.612 16.5685 12.3324 16.7811C11.8569 17.1428 11.568 17.7037 11.4045 18.2676C11.2543 18.7881 11.1983 19.3341 11.189 19.8743C11.1821 20.292 11.1977 20.7085 11.2549 21.1228C11.3369 21.7225 11.5033 22.3481 11.8719 22.8392C12.2168 23.2997 12.7686 23.6787 13.3677 23.4961C13.9182 23.3286 14.2967 22.7843 14.5364 22.2898C14.8276 21.6889 14.9489 21.0199 14.9813 20.3573C14.9859 20.2683 14.9882 20.1788 14.9899 20.0898C14.994 19.9038 14.7051 19.9038 14.7011 20.0898H14.7022Z" fill="black"/>
<path d="M15.0079 17.9246L13.2915 19.3845L15.3621 20.0246L15.0079 17.9246Z" fill="white"/>
<path d="M16.8865 24.4654C17.7058 24.4654 18.3701 23.9722 18.3701 23.3637C18.3701 22.7552 17.7058 22.262 16.8865 22.262C16.0671 22.262 15.4028 22.7552 15.4028 23.3637C15.4028 23.9722 16.0671 24.4654 16.8865 24.4654Z" fill="#CCFC56"/>
<path d="M18.2609 23.3631C18.2557 23.8542 17.7953 24.1778 17.3631 24.2945C16.8542 24.4314 16.2314 24.3534 15.8258 23.9952C15.6658 23.8536 15.5392 23.6653 15.5144 23.4486C15.4896 23.232 15.5641 23.0246 15.6993 22.8611C16.039 22.4497 16.641 22.3146 17.15 22.3879C17.6509 22.4601 18.2546 22.79 18.2604 23.3631C18.2615 23.5024 18.4782 23.503 18.477 23.3631C18.4707 22.7733 17.9484 22.3648 17.4203 22.2227C16.8282 22.0632 16.1222 22.169 15.6588 22.5901C15.4612 22.7698 15.3255 23.0102 15.2977 23.2776C15.27 23.5451 15.3653 23.7895 15.5242 23.9906C15.9125 24.4816 16.6144 24.6365 17.2077 24.5469C17.8011 24.4574 18.4707 24.035 18.4776 23.3626C18.4787 23.2233 18.2621 23.2228 18.2609 23.3626V23.3631Z" fill="black"/>
<path d="M14.3274 26.2614C14.4724 26.3631 14.6353 26.4434 14.7959 26.5167C15.1992 26.7022 15.6256 26.8351 16.0635 26.9096C16.6528 27.0096 17.249 27.0078 17.8371 26.9009C18.3167 26.8137 18.7817 26.6583 19.2254 26.4572C19.4415 26.359 19.6593 26.2521 19.8569 26.1198C20.0106 26.017 19.8661 25.7669 19.7113 25.8703C19.5565 25.9737 19.3918 26.0586 19.226 26.1389C18.8337 26.3296 18.4166 26.478 17.985 26.5763C17.4345 26.7016 16.8671 26.7294 16.3067 26.6566C16.0629 26.6248 15.8214 26.5728 15.5851 26.5046C15.4811 26.4746 15.3789 26.4411 15.2772 26.4047C15.2321 26.3885 15.1877 26.3717 15.1432 26.3538C15.0987 26.3359 15.0623 26.3209 15.0334 26.3088C14.8416 26.2256 14.6457 26.1326 14.473 26.0124C14.4089 25.9679 14.3124 26.0008 14.2754 26.0644C14.2332 26.1366 14.2633 26.2169 14.3274 26.262V26.2614Z" fill="black"/>
<path d="M18.855 14.9865C18.855 14.9865 19.5072 14.5133 20.3577 14.4504C21.6038 14.3579 22.4473 15.0454 22.6091 15.3817" fill="#A495FC"/>
<path d="M18.9284 15.113C19.3022 14.8432 19.78 14.6664 20.2347 14.6087C20.8719 14.5272 21.5444 14.6699 22.0753 15.0368C22.1701 15.1026 22.255 15.1708 22.3446 15.2644C22.363 15.284 22.3809 15.3037 22.3983 15.3245C22.4029 15.3302 22.4075 15.3354 22.4121 15.3412C22.4381 15.3724 22.4075 15.3337 22.4208 15.3528C22.4445 15.3863 22.4665 15.4198 22.4849 15.4568C22.519 15.5267 22.619 15.5457 22.6825 15.5088C22.7542 15.4672 22.7686 15.3817 22.7345 15.3112C22.6444 15.128 22.4786 14.9819 22.3197 14.8594C22.0834 14.678 21.8125 14.5428 21.5299 14.4486C20.7945 14.2042 20.0013 14.2741 19.297 14.5821C19.1191 14.6595 18.94 14.7496 18.7822 14.864C18.7193 14.9097 18.6881 14.99 18.7303 15.0616C18.7666 15.124 18.8643 15.1592 18.9278 15.1136L18.9284 15.113Z" fill="black"/>
<path d="M15.1692 14.9865C15.1692 14.9865 14.5169 14.5133 13.6665 14.4504C12.4203 14.3579 11.5768 15.0454 11.415 15.3817" fill="#A495FC"/>
<path d="M15.2417 14.8621C15.1129 14.7691 14.9684 14.6934 14.8252 14.6252C14.4895 14.4663 14.1348 14.3571 13.765 14.3155C13.0793 14.2381 12.3432 14.4016 11.777 14.8037C11.5916 14.9355 11.3917 15.1001 11.2894 15.3092C11.2554 15.3792 11.2704 15.4652 11.3414 15.5068C11.405 15.5438 11.5044 15.5253 11.539 15.4548C11.554 15.4242 11.5719 15.3947 11.5916 15.3664C11.5974 15.3584 11.6031 15.3508 11.6089 15.3428C11.5858 15.3739 11.6072 15.3451 11.6118 15.3393C11.6263 15.322 11.6401 15.3052 11.6551 15.2884C11.7193 15.2174 11.8163 15.1319 11.8735 15.0885C12.089 14.9262 12.3328 14.802 12.5893 14.7188C13.2543 14.5027 13.9788 14.5582 14.6143 14.8442C14.7801 14.9187 14.9476 15.0042 15.0955 15.1111C15.1591 15.1567 15.2567 15.1221 15.2931 15.0591C15.3359 14.9863 15.3047 14.9071 15.2411 14.8615L15.2417 14.8621Z" fill="black"/>
<path d="M33.1569 18.3434H34.6994C34.8387 18.3434 34.8392 18.1267 34.6994 18.1267H33.1569C33.0177 18.1267 33.0171 18.3434 33.1569 18.3434Z" fill="black"/>
<path d="M29.6359 13.0545H31.0277C31.1669 13.0545 31.1675 12.8379 31.0277 12.8379H29.6359C29.4967 12.8379 29.4961 13.0545 29.6359 13.0545Z" fill="black"/>
<path d="M31.7653 15.6803H33.157C33.2963 15.6803 33.2969 15.4636 33.157 15.4636H31.7653C31.6261 15.4636 31.6255 15.6803 31.7653 15.6803Z" fill="black"/>
<path d="M34.1754 21.2657H35.5672C35.7064 21.2657 35.707 21.0491 35.5672 21.0491H34.1754C34.0362 21.0491 34.0356 21.2657 34.1754 21.2657Z" fill="black"/>
<path d="M34.6193 24.555H36.011C36.1503 24.555 36.1509 24.3384 36.011 24.3384H34.6193C34.4801 24.3384 34.4795 24.555 34.6193 24.555Z" fill="black"/>
<path d="M34.2809 27.9784H35.6727C35.8119 27.9784 35.8125 27.7617 35.6727 27.7617H34.2809C34.1417 27.7617 34.1411 27.9784 34.2809 27.9784Z" fill="black"/>
<path d="M33.5846 30.7667H34.9764C35.1156 30.7667 35.1162 30.55 34.9764 30.55H33.5846C33.4454 30.55 33.4448 30.7667 33.5846 30.7667Z" fill="black"/>
<path d="M32.2672 33.8099H33.659C33.7982 33.8099 33.7988 33.5933 33.659 33.5933H32.2672C32.128 33.5933 32.1274 33.8099 32.2672 33.8099Z" fill="black"/>
<path d="M30.7282 36.016H32.1199C32.2592 36.016 32.2597 35.7993 32.1199 35.7993H30.7282C30.5889 35.7993 30.5884 36.016 30.7282 36.016Z" fill="black"/>
<path d="M34.9764 42.1152C34.9764 42.1152 34.907 35.0986 34.2808 31.3411L34.9764 42.1152Z" fill="#674AD6"/>
<path d="M35.8436 42.1169C35.817 39.4535 35.7119 36.7821 35.4802 34.128C35.3924 33.1193 35.2815 32.1111 35.1168 31.1122C35.0405 30.65 34.468 30.3924 34.0509 30.5068C33.5604 30.6414 33.3692 31.1093 33.4454 31.5727C33.4772 31.7645 33.5067 31.9569 33.5338 32.1498C33.5402 32.1943 33.5459 32.2388 33.5523 32.2839C33.5482 32.255 33.5275 32.0932 33.5482 32.2579C33.5627 32.374 33.5777 32.4907 33.5916 32.6074C33.643 33.0372 33.6869 33.4676 33.7262 33.8992C33.81 34.8201 33.8729 35.7428 33.9244 36.666C34.0087 38.1825 34.063 39.7008 34.0948 41.2191C34.1011 41.5184 34.1069 41.8182 34.1098 42.1175C34.1144 42.5704 34.505 43.0054 34.9764 42.9841C35.4478 42.9627 35.8476 42.6033 35.843 42.1175L35.8436 42.1169Z" fill="black"/>
</g>
</g>
</g>
<defs>
<clipPath id="clip0_2430_47097">
<rect width="36" height="36" fill="white"/>
</clipPath>
<clipPath id="clip1_2430_47097">
<rect width="43.3052" height="52.0313" fill="white" transform="translate(-3.65234 7.70801)"/>
</clipPath>
</defs>
</svg>
