<svg width="40" height="40" viewBox="0 0 40 40" fill="none" xmlns="http://www.w3.org/2000/svg">
<path d="M18.4571 4.93124C19.1739 3.68959 20.9661 3.68959 21.6829 4.93124L37.8877 32.9987C38.6046 34.2403 37.7085 35.7924 36.2747 35.7924H3.86525C2.43152 35.7924 1.53544 34.2403 2.2523 32.9987L18.4571 4.93124Z" fill="#7C26FA"/>
<path d="M18.29 28.9842C18.1002 28.7944 18.1002 28.4867 18.29 28.2969L19.6559 26.931C19.8457 26.7412 20.1534 26.7412 20.3432 26.931L21.7091 28.2969C21.8989 28.4867 21.8989 28.7944 21.7091 28.9842L20.3432 30.3501C20.1534 30.5399 19.8457 30.5399 19.6559 30.3501L18.29 28.9842Z" fill="#CCFC56"/>
<path d="M19.96 25.4427C19.5755 25.4427 19.2068 25.29 18.9349 25.0181C18.663 24.7462 18.5103 24.3774 18.5103 23.9929V16.0191C18.5103 15.6346 18.663 15.2659 18.9349 14.994C19.2068 14.7221 19.5755 14.5693 19.96 14.5693C20.3445 14.5693 20.7133 14.7221 20.9852 14.994C21.2571 15.2659 21.4098 15.6346 21.4098 16.0191V23.9929C21.4098 24.3774 21.2571 24.7462 20.9852 25.0181C20.7133 25.29 20.3445 25.4427 19.96 25.4427Z" fill="#CCFC56"/>
</svg>
