<svg width="259" height="207" viewBox="0 0 259 207" fill="none" xmlns="http://www.w3.org/2000/svg">
<rect x="0.5" y="0.5" width="258" height="206" rx="9.5" fill="white"/>
<rect x="104" y="10" width="51" height="14" rx="7" fill="#52667A"/>
<circle cx="147.5" cy="17" r="3.5" fill="#3A4857"/>
<rect x="0.5" y="0.5" width="258" height="206" rx="9.5" stroke="#E0E5EB"/>
<path d="M32.8125 42.5859H29.918V43.6055H34.043V44.8125H24.3164V43.6055H28.418V42.5859H25.5234V38.8359H32.8125V42.5859ZM25.3945 45.5977H32.8594V49.0781H31.3711V46.7695H25.3945V45.5977ZM31.3477 41.4141V39.9961H26.9883V41.4141H31.3477ZM44.1492 47.8945H34.3875V46.6992H36.8133V44.6719H35.1961V43.4648H36.6258V40.4648H35.1492V39.2695H43.3289V40.4648H41.8289V43.4648H43.282V44.6719H41.6766V46.6992H44.1492V47.8945ZM40.3523 43.4648V40.4648H38.1258V43.4648H40.3523ZM40.1766 46.6992V44.6719H38.3133V46.6992H40.1766ZM53.018 40.0195H50.8969C50.9086 40.3867 51.0063 40.7441 51.1898 41.0918C51.3734 41.4395 51.6449 41.752 52.0043 42.0293C52.3676 42.3066 52.8109 42.5195 53.3344 42.668L52.643 43.8516C52.0609 43.6836 51.5609 43.4336 51.143 43.1016C50.725 42.7656 50.393 42.3691 50.1469 41.9121C49.893 42.4238 49.5473 42.8672 49.1098 43.2422C48.6723 43.6172 48.1547 43.8945 47.557 44.0742L46.8305 42.9141C47.3656 42.7422 47.8227 42.502 48.2016 42.1934C48.5805 41.8848 48.8695 41.543 49.0688 41.168C49.268 40.793 49.3773 40.4102 49.3969 40.0195H47.2406V38.8242H53.018V40.0195ZM48.8109 44.25H55.9125V47.1328H50.3227V47.8125H56.2289V48.9727H48.8227V46.043H54.4242V45.4336H48.8109V44.25ZM52.7484 40.6055H54.4242V38.4141H55.9125V43.8398H54.4242V41.7891H52.7484V40.6055ZM66.8391 41.0273H65.4562V42.1172H66.8391V43.3594H65.4562V44.707H63.9562V38.4141H65.4562V39.8203H66.8391V41.0273ZM57.0656 41.5898C57.0656 41.0977 57.1926 40.6543 57.4465 40.2598C57.7004 39.8613 58.05 39.5527 58.4953 39.334C58.9445 39.1113 59.4445 39 59.9953 39C60.5383 39 61.0305 39.1113 61.4719 39.334C61.9172 39.5527 62.2668 39.8613 62.5207 40.2598C62.7746 40.6543 62.9016 41.0977 62.9016 41.5898C62.9016 42.0938 62.7746 42.5449 62.5207 42.9434C62.2668 43.3418 61.9191 43.6523 61.4777 43.875C61.0363 44.0938 60.5422 44.2031 59.9953 44.2031C59.4445 44.2031 58.9445 44.0938 58.4953 43.875C58.05 43.6523 57.7004 43.3418 57.4465 42.9434C57.1926 42.5449 57.0656 42.0938 57.0656 41.5898ZM58.2727 45.1289H65.4562V49.0781H63.9562V46.3359H58.2727V45.1289ZM58.5422 41.5898C58.5383 41.8711 58.5988 42.1133 58.7238 42.3164C58.8488 42.5195 59.0207 42.6758 59.2395 42.7852C59.4621 42.8906 59.7141 42.9414 59.9953 42.9375C60.2727 42.9414 60.5207 42.8906 60.7395 42.7852C60.9582 42.6758 61.1301 42.5195 61.2551 42.3164C61.384 42.1133 61.4484 41.8711 61.4484 41.5898C61.4484 41.3203 61.384 41.0859 61.2551 40.8867C61.1301 40.6875 60.9562 40.5352 60.7336 40.4297C60.5148 40.3242 60.2687 40.2734 59.9953 40.2773C59.7141 40.2734 59.4621 40.3242 59.2395 40.4297C59.0207 40.5352 58.8488 40.6875 58.7238 40.8867C58.5988 41.0859 58.5383 41.3203 58.5422 41.5898ZM78.1336 39.75V40.084C78.1336 40.5332 78.116 40.9648 78.0809 41.3789C78.0496 41.793 77.9832 42.2422 77.8816 42.7266H79.2938V43.9336H69.532V42.7266H76.3758C76.4773 42.25 76.5457 41.8105 76.5809 41.4082C76.616 41.002 76.6375 40.5625 76.6453 40.0898H70.7273V38.8945H78.1336V39.75ZM70.6922 45.0586H78.0984V48.9609H70.6922V45.0586ZM76.6102 47.7656V46.2305H72.157V47.7656H76.6102ZM82.0992 39.0586C82.568 39.0586 82.9898 39.1699 83.3648 39.3926C83.7398 39.6113 84.0348 39.918 84.2496 40.3125C84.4645 40.707 84.5719 41.1562 84.5719 41.6602C84.5719 42.1641 84.4645 42.6133 84.2496 43.0078C84.0348 43.3984 83.7398 43.7031 83.3648 43.9219C82.9898 44.1406 82.568 44.25 82.0992 44.25C81.6266 44.25 81.2047 44.1426 80.8336 43.9277C80.4625 43.709 80.1715 43.4023 79.9605 43.0078C79.7535 42.6133 79.65 42.1641 79.65 41.6602C79.65 41.1562 79.7535 40.707 79.9605 40.3125C80.1715 39.918 80.4625 39.6113 80.8336 39.3926C81.2086 39.1699 81.6305 39.0586 82.0992 39.0586ZM80.9859 41.6426C80.9859 41.9199 81.0328 42.1621 81.1266 42.3691C81.2203 42.5762 81.3512 42.7344 81.5191 42.8438C81.6871 42.9531 81.8805 43.0078 82.0992 43.0078C82.3141 43.0078 82.5055 42.9531 82.6734 42.8438C82.8414 42.7344 82.9723 42.5781 83.066 42.375C83.1637 42.1719 83.2125 41.9336 83.2125 41.6602C83.2086 41.2461 83.1051 40.9219 82.902 40.6875C82.6988 40.4492 82.4313 40.3281 82.0992 40.3242C81.7672 40.3281 81.4977 40.4473 81.2906 40.6816C81.0875 40.916 80.9859 41.2363 80.9859 41.6426ZM81.3961 45.2578H88.7672V49.0781H87.2789V46.4531H81.3961V45.2578ZM85.0875 38.6133H86.4703V41.0039H87.3492V38.4258H88.7672V44.7891H87.3492V42.1992H86.4703V44.7305H85.0875V38.6133ZM94.5375 38.5664C95.3539 38.5664 96.0512 38.6367 96.6293 38.7773C97.2113 38.918 97.6547 39.125 97.9594 39.3984C98.2641 39.668 98.4164 39.9961 98.4164 40.3828C98.4164 40.7773 98.2641 41.1113 97.9594 41.3848C97.6547 41.6543 97.2133 41.8594 96.6352 42C96.057 42.1406 95.3578 42.2109 94.5375 42.2109C93.7172 42.2109 93.016 42.1406 92.434 42C91.852 41.8594 91.4086 41.6543 91.1039 41.3848C90.7992 41.1113 90.6469 40.7773 90.6469 40.3828C90.6469 39.9961 90.7992 39.668 91.1039 39.3984C91.4086 39.125 91.852 38.918 92.434 38.7773C93.016 38.6367 93.7172 38.5664 94.5375 38.5664ZM89.6742 42.7148H99.4008V43.8984H89.6742V42.7148ZM90.7992 44.5195H98.2172V47.2383H92.2758V47.8828H98.4984V49.0078H90.8109V46.1953H96.7406V45.6094H90.7992V44.5195ZM92.2172 40.3828C92.2133 40.6406 92.3988 40.8262 92.7738 40.9395C93.1527 41.0527 93.7406 41.1094 94.5375 41.1094C95.3383 41.1094 95.9262 41.0527 96.3012 40.9395C96.6801 40.8262 96.8695 40.6406 96.8695 40.3828C96.8695 39.8984 96.0922 39.6562 94.5375 39.6562C93.7602 39.6562 93.1781 39.7188 92.7914 39.8438C92.4047 39.9648 92.2133 40.1445 92.2172 40.3828ZM111.199 43.8398H109.711V41.1914H107.707V40.0078H109.711V38.4141H111.199V43.8398ZM102.129 42.7383C102.699 42.5703 103.176 42.3242 103.559 42C103.941 41.6758 104.225 41.3027 104.408 40.8809C104.596 40.459 104.691 40.0117 104.695 39.5391V38.7656H106.207V39.5391C106.203 39.9766 106.289 40.3945 106.465 40.793C106.641 41.1875 106.91 41.5391 107.273 41.8477C107.641 42.1523 108.098 42.3867 108.645 42.5508L107.859 43.6992C107.301 43.5234 106.82 43.2656 106.418 42.9258C106.016 42.582 105.695 42.1758 105.457 41.707C105.215 42.2344 104.881 42.6875 104.455 43.0664C104.029 43.4453 103.512 43.7305 102.902 43.9219L102.129 42.7383ZM104.109 44.2852H111.199V47.1328H105.598V47.7891H111.504V48.9609H104.121V46.043H109.723V45.4336H104.109V44.2852ZM121.27 44.7422H119.782V42.2227H118.118V41.0156H119.782V38.4141H121.27V44.7422ZM112.212 43.5703C112.77 43.3828 113.241 43.1152 113.624 42.7676C114.007 42.4199 114.294 42.0293 114.485 41.5957C114.677 41.1621 114.778 40.7148 114.79 40.2539H112.645V39.0586H118.434V40.2539H116.313C116.325 40.6836 116.421 41.0977 116.6 41.4961C116.78 41.8906 117.052 42.2461 117.415 42.5625C117.782 42.8789 118.231 43.125 118.762 43.3008L118.024 44.4727C117.454 44.2891 116.962 44.0156 116.548 43.6523C116.137 43.2852 115.813 42.8555 115.575 42.3633C115.333 42.9219 114.995 43.4082 114.561 43.8223C114.128 44.2324 113.602 44.543 112.985 44.7539L112.212 43.5703ZM113.958 47.0391C113.958 46.6133 114.104 46.2461 114.397 45.9375C114.694 45.625 115.118 45.3867 115.669 45.2227C116.22 45.0586 116.872 44.9766 117.626 44.9766C118.384 44.9766 119.038 45.0586 119.589 45.2227C120.139 45.3867 120.563 45.623 120.86 45.9316C121.157 46.2402 121.305 46.6094 121.305 47.0391C121.305 47.4688 121.157 47.8359 120.86 48.1406C120.563 48.4492 120.139 48.6836 119.589 48.8438C119.038 49.0078 118.384 49.0898 117.626 49.0898C116.872 49.0898 116.22 49.0078 115.669 48.8438C115.118 48.6836 114.694 48.4492 114.397 48.1406C114.104 47.832 113.958 47.4648 113.958 47.0391ZM115.446 47.0391C115.446 47.3398 115.632 47.5684 116.003 47.7246C116.374 47.877 116.915 47.9531 117.626 47.9531C118.341 47.9531 118.884 47.877 119.255 47.7246C119.626 47.5723 119.813 47.3438 119.817 47.0391C119.813 46.7383 119.628 46.5117 119.261 46.3594C118.897 46.2031 118.366 46.125 117.667 46.125C116.186 46.125 115.446 46.4297 115.446 47.0391ZM127.498 41.2266H122.341V40.043H124.193V38.707H125.67V40.043H127.498V41.2266ZM122.588 44.2383C122.588 43.75 122.689 43.3145 122.892 42.9316C123.095 42.5488 123.375 42.25 123.73 42.0352C124.089 41.8164 124.494 41.707 124.943 41.707C125.392 41.707 125.795 41.8164 126.15 42.0352C126.505 42.25 126.783 42.5488 126.982 42.9316C127.185 43.3145 127.287 43.75 127.287 44.2383C127.287 44.7266 127.185 45.1641 126.982 45.5508C126.783 45.9375 126.505 46.2402 126.15 46.459C125.795 46.6738 125.392 46.7812 124.943 46.7812C124.494 46.7812 124.089 46.6738 123.73 46.459C123.375 46.2402 123.095 45.9375 122.892 45.5508C122.689 45.1641 122.588 44.7266 122.588 44.2383ZM123.9 44.2383C123.9 44.6406 123.994 44.9551 124.181 45.1816C124.373 45.4043 124.627 45.5156 124.943 45.5156C125.248 45.5156 125.494 45.4023 125.681 45.1758C125.873 44.9492 125.97 44.6367 125.974 44.2383C125.974 43.9766 125.929 43.748 125.839 43.5527C125.75 43.3574 125.627 43.209 125.47 43.1074C125.318 43.002 125.142 42.9492 124.943 42.9492C124.63 42.9492 124.379 43.0645 124.187 43.2949C123.996 43.5254 123.9 43.8398 123.9 44.2383ZM127.896 38.625H129.291V42.75H130.158V38.4141H131.576V49.0781H130.158V43.9453H129.291V48.6211H127.896V38.625ZM142.151 45.4922H138.002V49.0781H136.526V45.4922H132.424V44.2969H142.151V45.4922ZM132.905 42.5039C133.596 42.418 134.196 42.2578 134.704 42.0234C135.215 41.7891 135.614 41.5078 135.899 41.1797C136.188 40.8516 136.36 40.5078 136.414 40.1484H133.303V38.9766H141.284V40.1484H138.172C138.223 40.5078 138.391 40.8516 138.676 41.1797C138.961 41.5078 139.36 41.7891 139.871 42.0234C140.383 42.2578 140.991 42.418 141.694 42.5039L141.155 43.6758C140.233 43.5508 139.44 43.3027 138.776 42.9316C138.116 42.5566 137.621 42.0898 137.293 41.5312C136.961 42.0898 136.467 42.5566 135.811 42.9316C135.155 43.3027 134.37 43.5508 133.455 43.6758L132.905 42.5039ZM145.917 41.0977C145.913 42.0508 146.064 42.9199 146.368 43.7051C146.673 44.4902 147.167 45.1016 147.851 45.5391L147.042 46.6992C146.187 46.1836 145.571 45.3262 145.196 44.127C144.997 44.7559 144.734 45.3105 144.405 45.791C144.077 46.2715 143.679 46.6523 143.21 46.9336L142.296 45.832C143.042 45.3711 143.589 44.7246 143.937 43.8926C144.288 43.0605 144.464 42.1523 144.464 41.168V39.3281H145.917V41.0977ZM146.726 42.0117H148.109V38.5664H149.503V48.5859H148.109V43.2305H146.726V42.0117ZM150.312 38.4141H151.741V49.0781H150.312V38.4141ZM162.328 47.8359H152.566V46.6055H154.746V43.9922C154.324 43.7383 153.998 43.4258 153.768 43.0547C153.537 42.6797 153.422 42.2617 153.422 41.8008C153.422 41.2344 153.594 40.7344 153.938 40.3008C154.281 39.8672 154.756 39.5312 155.361 39.293C155.971 39.0508 156.66 38.9297 157.43 38.9297C158.195 38.9297 158.883 39.0508 159.492 39.293C160.102 39.5312 160.58 39.8672 160.928 40.3008C161.275 40.7344 161.449 41.2344 161.449 41.8008C161.445 42.2539 161.332 42.6641 161.109 43.0312C160.887 43.3984 160.57 43.709 160.16 43.9629V46.6055H162.328V47.8359ZM154.898 41.8008C154.898 42.1445 155.002 42.4434 155.209 42.6973C155.42 42.9512 155.715 43.1465 156.094 43.2832C156.477 43.4199 156.922 43.4883 157.43 43.4883C157.93 43.4883 158.371 43.4199 158.754 43.2832C159.137 43.1465 159.436 42.9512 159.65 42.6973C159.865 42.4434 159.973 42.1445 159.973 41.8008C159.973 41.4492 159.865 41.1465 159.65 40.8926C159.439 40.6387 159.143 40.4453 158.76 40.3125C158.377 40.1758 157.934 40.1094 157.43 40.1133C156.922 40.1133 156.477 40.1797 156.094 40.3125C155.715 40.4453 155.42 40.6387 155.209 40.8926C155.002 41.1465 154.898 41.4492 154.898 41.8008ZM158.648 46.6055V44.5312C158.258 44.6094 157.852 44.6484 157.43 44.6484C157.02 44.6484 156.617 44.6113 156.223 44.5371V46.6055H158.648Z" fill="#14191F"/>
<path d="M32.8125 122.586H29.918V123.605H34.043V124.812H24.3164V123.605H28.418V122.586H25.5234V118.836H32.8125V122.586ZM25.3945 125.598H32.8594V129.078H31.3711V126.77H25.3945V125.598ZM31.3477 121.414V119.996H26.9883V121.414H31.3477ZM44.1492 127.895H34.3875V126.699H36.8133V124.672H35.1961V123.465H36.6258V120.465H35.1492V119.27H43.3289V120.465H41.8289V123.465H43.282V124.672H41.6766V126.699H44.1492V127.895ZM40.3523 123.465V120.465H38.1258V123.465H40.3523ZM40.1766 126.699V124.672H38.3133V126.699H40.1766ZM53.018 120.02H50.8969C50.9086 120.387 51.0063 120.744 51.1898 121.092C51.3734 121.439 51.6449 121.752 52.0043 122.029C52.3676 122.307 52.8109 122.52 53.3344 122.668L52.643 123.852C52.0609 123.684 51.5609 123.434 51.143 123.102C50.725 122.766 50.393 122.369 50.1469 121.912C49.893 122.424 49.5473 122.867 49.1098 123.242C48.6723 123.617 48.1547 123.895 47.557 124.074L46.8305 122.914C47.3656 122.742 47.8227 122.502 48.2016 122.193C48.5805 121.885 48.8695 121.543 49.0688 121.168C49.268 120.793 49.3773 120.41 49.3969 120.02H47.2406V118.824H53.018V120.02ZM48.8109 124.25H55.9125V127.133H50.3227V127.812H56.2289V128.973H48.8227V126.043H54.4242V125.434H48.8109V124.25ZM52.7484 120.605H54.4242V118.414H55.9125V123.84H54.4242V121.789H52.7484V120.605ZM66.8391 121.027H65.4562V122.117H66.8391V123.359H65.4562V124.707H63.9562V118.414H65.4562V119.82H66.8391V121.027ZM57.0656 121.59C57.0656 121.098 57.1926 120.654 57.4465 120.26C57.7004 119.861 58.05 119.553 58.4953 119.334C58.9445 119.111 59.4445 119 59.9953 119C60.5383 119 61.0305 119.111 61.4719 119.334C61.9172 119.553 62.2668 119.861 62.5207 120.26C62.7746 120.654 62.9016 121.098 62.9016 121.59C62.9016 122.094 62.7746 122.545 62.5207 122.943C62.2668 123.342 61.9191 123.652 61.4777 123.875C61.0363 124.094 60.5422 124.203 59.9953 124.203C59.4445 124.203 58.9445 124.094 58.4953 123.875C58.05 123.652 57.7004 123.342 57.4465 122.943C57.1926 122.545 57.0656 122.094 57.0656 121.59ZM58.2727 125.129H65.4562V129.078H63.9562V126.336H58.2727V125.129ZM58.5422 121.59C58.5383 121.871 58.5988 122.113 58.7238 122.316C58.8488 122.52 59.0207 122.676 59.2395 122.785C59.4621 122.891 59.7141 122.941 59.9953 122.938C60.2727 122.941 60.5207 122.891 60.7395 122.785C60.9582 122.676 61.1301 122.52 61.2551 122.316C61.384 122.113 61.4484 121.871 61.4484 121.59C61.4484 121.32 61.384 121.086 61.2551 120.887C61.1301 120.688 60.9562 120.535 60.7336 120.43C60.5148 120.324 60.2687 120.273 59.9953 120.277C59.7141 120.273 59.4621 120.324 59.2395 120.43C59.0207 120.535 58.8488 120.688 58.7238 120.887C58.5988 121.086 58.5383 121.32 58.5422 121.59ZM72.5672 118.73C73.1023 118.73 73.5867 118.834 74.0203 119.041C74.4539 119.248 74.7938 119.537 75.0398 119.908C75.2898 120.279 75.4148 120.699 75.4148 121.168C75.4148 121.633 75.2898 122.049 75.0398 122.416C74.7938 122.783 74.4539 123.072 74.0203 123.283C73.5867 123.49 73.1023 123.594 72.5672 123.594C72.0242 123.594 71.534 123.49 71.0965 123.283C70.659 123.072 70.3152 122.783 70.0652 122.416C69.8191 122.049 69.6961 121.633 69.6961 121.168C69.6961 120.699 69.8191 120.279 70.0652 119.908C70.3152 119.537 70.659 119.248 71.0965 119.041C71.534 118.834 72.0242 118.73 72.5672 118.73ZM71.1492 121.168C71.1453 121.418 71.2039 121.635 71.325 121.818C71.4461 121.998 71.6141 122.137 71.8289 122.234C72.0438 122.332 72.2898 122.383 72.5672 122.387C72.8367 122.383 73.077 122.332 73.2879 122.234C73.5027 122.137 73.6707 121.998 73.7918 121.818C73.9129 121.635 73.9734 121.418 73.9734 121.168C73.9734 120.918 73.9129 120.701 73.7918 120.518C73.6707 120.334 73.5027 120.193 73.2879 120.096C73.077 119.998 72.8367 119.949 72.5672 119.949C72.2938 119.949 72.0477 119.998 71.8289 120.096C71.6141 120.193 71.4461 120.334 71.325 120.518C71.2039 120.701 71.1453 120.918 71.1492 121.168ZM71.3016 124.203H78.4617V127.098H72.7898V127.789H78.7547V128.961H71.325V126.008H76.9734V125.352H71.3016V124.203ZM76.9617 118.414H78.4617V123.758H76.9617V118.414ZM85.2633 119.246C85.2594 119.68 85.402 120.105 85.691 120.523C85.984 120.938 86.4117 121.297 86.9742 121.602C87.5367 121.902 88.2086 122.102 88.9898 122.199L88.4039 123.406C87.4898 123.273 86.6949 123.008 86.0191 122.609C85.3473 122.207 84.8336 121.711 84.4781 121.121C84.1188 121.711 83.6031 122.207 82.9313 122.609C82.2633 123.008 81.4781 123.273 80.5758 123.406L79.9781 122.199C80.7516 122.102 81.4176 121.902 81.9762 121.602C82.5387 121.297 82.9645 120.938 83.2535 120.523C83.5426 120.105 83.6891 119.68 83.693 119.246V118.73H85.2633V119.246ZM79.6031 124.215H89.3297V125.434H85.1813V129.078H83.7047V125.434H79.6031V124.215ZM99.4242 124.309H89.6625V123.195H99.4242V124.309ZM90.7758 124.836H98.2523V127.355H92.2758V127.965H98.5687V128.984H90.7875V126.406H96.7758V125.867H90.7758V124.836ZM90.8578 118.602H98.2406V121.109H92.3695V121.684H98.4281V122.691H90.8812V120.16H96.7406V119.621H90.8578V118.602ZM111.199 123.84H109.711V121.191H107.707V120.008H109.711V118.414H111.199V123.84ZM102.129 122.738C102.699 122.57 103.176 122.324 103.559 122C103.941 121.676 104.225 121.303 104.408 120.881C104.596 120.459 104.691 120.012 104.695 119.539V118.766H106.207V119.539C106.203 119.977 106.289 120.395 106.465 120.793C106.641 121.188 106.91 121.539 107.273 121.848C107.641 122.152 108.098 122.387 108.645 122.551L107.859 123.699C107.301 123.523 106.82 123.266 106.418 122.926C106.016 122.582 105.695 122.176 105.457 121.707C105.215 122.234 104.881 122.688 104.455 123.066C104.029 123.445 103.512 123.73 102.902 123.922L102.129 122.738ZM104.109 124.285H111.199V127.133H105.598V127.789H111.504V128.961H104.121V126.043H109.723V125.434H104.109V124.285ZM121.27 124.742H119.782V122.223H118.118V121.016H119.782V118.414H121.27V124.742ZM112.212 123.57C112.77 123.383 113.241 123.115 113.624 122.768C114.007 122.42 114.294 122.029 114.485 121.596C114.677 121.162 114.778 120.715 114.79 120.254H112.645V119.059H118.434V120.254H116.313C116.325 120.684 116.421 121.098 116.6 121.496C116.78 121.891 117.052 122.246 117.415 122.562C117.782 122.879 118.231 123.125 118.762 123.301L118.024 124.473C117.454 124.289 116.962 124.016 116.548 123.652C116.137 123.285 115.813 122.855 115.575 122.363C115.333 122.922 114.995 123.408 114.561 123.822C114.128 124.232 113.602 124.543 112.985 124.754L112.212 123.57ZM113.958 127.039C113.958 126.613 114.104 126.246 114.397 125.938C114.694 125.625 115.118 125.387 115.669 125.223C116.22 125.059 116.872 124.977 117.626 124.977C118.384 124.977 119.038 125.059 119.589 125.223C120.139 125.387 120.563 125.623 120.86 125.932C121.157 126.24 121.305 126.609 121.305 127.039C121.305 127.469 121.157 127.836 120.86 128.141C120.563 128.449 120.139 128.684 119.589 128.844C119.038 129.008 118.384 129.09 117.626 129.09C116.872 129.09 116.22 129.008 115.669 128.844C115.118 128.684 114.694 128.449 114.397 128.141C114.104 127.832 113.958 127.465 113.958 127.039ZM115.446 127.039C115.446 127.34 115.632 127.568 116.003 127.725C116.374 127.877 116.915 127.953 117.626 127.953C118.341 127.953 118.884 127.877 119.255 127.725C119.626 127.572 119.813 127.344 119.817 127.039C119.813 126.738 119.628 126.512 119.261 126.359C118.897 126.203 118.366 126.125 117.667 126.125C116.186 126.125 115.446 126.43 115.446 127.039ZM127.498 121.227H122.341V120.043H124.193V118.707H125.67V120.043H127.498V121.227ZM122.588 124.238C122.588 123.75 122.689 123.314 122.892 122.932C123.095 122.549 123.375 122.25 123.73 122.035C124.089 121.816 124.494 121.707 124.943 121.707C125.392 121.707 125.795 121.816 126.15 122.035C126.505 122.25 126.783 122.549 126.982 122.932C127.185 123.314 127.287 123.75 127.287 124.238C127.287 124.727 127.185 125.164 126.982 125.551C126.783 125.938 126.505 126.24 126.15 126.459C125.795 126.674 125.392 126.781 124.943 126.781C124.494 126.781 124.089 126.674 123.73 126.459C123.375 126.24 123.095 125.938 122.892 125.551C122.689 125.164 122.588 124.727 122.588 124.238ZM123.9 124.238C123.9 124.641 123.994 124.955 124.181 125.182C124.373 125.404 124.627 125.516 124.943 125.516C125.248 125.516 125.494 125.402 125.681 125.176C125.873 124.949 125.97 124.637 125.974 124.238C125.974 123.977 125.929 123.748 125.839 123.553C125.75 123.357 125.627 123.209 125.47 123.107C125.318 123.002 125.142 122.949 124.943 122.949C124.63 122.949 124.379 123.064 124.187 123.295C123.996 123.525 123.9 123.84 123.9 124.238ZM127.896 118.625H129.291V122.75H130.158V118.414H131.576V129.078H130.158V123.945H129.291V128.621H127.896V118.625ZM142.151 125.492H138.002V129.078H136.526V125.492H132.424V124.297H142.151V125.492ZM132.905 122.504C133.596 122.418 134.196 122.258 134.704 122.023C135.215 121.789 135.614 121.508 135.899 121.18C136.188 120.852 136.36 120.508 136.414 120.148H133.303V118.977H141.284V120.148H138.172C138.223 120.508 138.391 120.852 138.676 121.18C138.961 121.508 139.36 121.789 139.871 122.023C140.383 122.258 140.991 122.418 141.694 122.504L141.155 123.676C140.233 123.551 139.44 123.303 138.776 122.932C138.116 122.557 137.621 122.09 137.293 121.531C136.961 122.09 136.467 122.557 135.811 122.932C135.155 123.303 134.37 123.551 133.455 123.676L132.905 122.504ZM145.917 121.098C145.913 122.051 146.064 122.92 146.368 123.705C146.673 124.49 147.167 125.102 147.851 125.539L147.042 126.699C146.187 126.184 145.571 125.326 145.196 124.127C144.997 124.756 144.734 125.311 144.405 125.791C144.077 126.271 143.679 126.652 143.21 126.934L142.296 125.832C143.042 125.371 143.589 124.725 143.937 123.893C144.288 123.061 144.464 122.152 144.464 121.168V119.328H145.917V121.098ZM146.726 122.012H148.109V118.566H149.503V128.586H148.109V123.23H146.726V122.012ZM150.312 118.414H151.741V129.078H150.312V118.414ZM162.328 127.836H152.566V126.605H154.746V123.992C154.324 123.738 153.998 123.426 153.768 123.055C153.537 122.68 153.422 122.262 153.422 121.801C153.422 121.234 153.594 120.734 153.938 120.301C154.281 119.867 154.756 119.531 155.361 119.293C155.971 119.051 156.66 118.93 157.43 118.93C158.195 118.93 158.883 119.051 159.492 119.293C160.102 119.531 160.58 119.867 160.928 120.301C161.275 120.734 161.449 121.234 161.449 121.801C161.445 122.254 161.332 122.664 161.109 123.031C160.887 123.398 160.57 123.709 160.16 123.963V126.605H162.328V127.836ZM154.898 121.801C154.898 122.145 155.002 122.443 155.209 122.697C155.42 122.951 155.715 123.146 156.094 123.283C156.477 123.42 156.922 123.488 157.43 123.488C157.93 123.488 158.371 123.42 158.754 123.283C159.137 123.146 159.436 122.951 159.65 122.697C159.865 122.443 159.973 122.145 159.973 121.801C159.973 121.449 159.865 121.146 159.65 120.893C159.439 120.639 159.143 120.445 158.76 120.312C158.377 120.176 157.934 120.109 157.43 120.113C156.922 120.113 156.477 120.18 156.094 120.312C155.715 120.445 155.42 120.639 155.209 120.893C155.002 121.146 154.898 121.449 154.898 121.801ZM158.648 126.605V124.531C158.258 124.609 157.852 124.648 157.43 124.648C157.02 124.648 156.617 124.611 156.223 124.537V126.605H158.648Z" fill="#14191F"/>
<rect x="24.5" y="53.5" width="210" height="31" rx="2.21188" fill="white"/>
<path d="M172.123 73.6357C170.102 73.6357 168.653 72.5234 168.615 70.9153H170.547C170.579 71.6018 171.246 72.053 172.136 72.0594C173.051 72.053 173.706 71.5446 173.699 70.8009C173.706 70.0509 173.038 69.5234 171.958 69.517H171.106V68.106H171.958C172.867 68.106 173.502 67.6102 173.496 66.8856C173.502 66.1801 172.962 65.6971 172.149 65.7034C171.335 65.6971 170.668 66.1547 170.636 66.8602H168.805C168.837 65.2776 170.261 64.178 172.149 64.178C174.068 64.178 175.346 65.3157 175.339 66.7712C175.346 67.8009 174.627 68.5318 173.598 68.7162V68.7924C174.952 68.9577 175.695 69.7776 175.682 70.928C175.695 72.5043 174.202 73.6357 172.123 73.6357ZM180.277 73.6357C177.969 73.6357 176.577 71.9196 176.577 68.9068C176.577 65.9005 177.982 64.178 180.277 64.178C182.571 64.178 183.976 65.9005 183.976 68.9068C183.976 71.9323 182.577 73.6357 180.277 73.6357ZM178.535 68.9068C178.522 71.0297 179.209 72.0594 180.277 72.0594C181.344 72.0594 182.024 71.0297 182.018 68.9068C182.024 66.803 181.338 65.7479 180.277 65.7416C179.215 65.7479 178.535 66.803 178.535 68.9068ZM186.65 72.5679L185.557 76.1908H184.21L184.845 72.5679H186.65ZM191.194 73.6357C188.886 73.6357 187.494 71.9196 187.494 68.9068C187.494 65.9005 188.899 64.178 191.194 64.178C193.488 64.178 194.893 65.9005 194.893 68.9068C194.893 71.9323 193.494 73.6357 191.194 73.6357ZM189.452 68.9068C189.439 71.0297 190.126 72.0594 191.194 72.0594C192.261 72.0594 192.941 71.0297 192.935 68.9068C192.941 66.803 192.255 65.7479 191.194 65.7416C190.132 65.7479 189.452 66.803 189.452 68.9068ZM199.461 73.6357C197.154 73.6357 195.762 71.9196 195.762 68.9068C195.762 65.9005 197.167 64.178 199.461 64.178C201.756 64.178 203.161 65.9005 203.161 68.9068C203.161 71.9323 201.762 73.6357 199.461 73.6357ZM197.72 68.9068C197.707 71.0297 198.394 72.0594 199.461 72.0594C200.529 72.0594 201.209 71.0297 201.203 68.9068C201.209 66.803 200.523 65.7479 199.461 65.7416C198.4 65.7479 197.72 66.803 197.72 68.9068ZM207.729 73.6357C205.422 73.6357 204.03 71.9196 204.03 68.9068C204.03 65.9005 205.435 64.178 207.729 64.178C210.024 64.178 211.428 65.9005 211.428 68.9068C211.428 71.9323 210.03 73.6357 207.729 73.6357ZM205.988 68.9068C205.975 71.0297 206.661 72.0594 207.729 72.0594C208.797 72.0594 209.477 71.0297 209.471 68.9068C209.477 66.803 208.791 65.7479 207.729 65.7416C206.668 65.7479 205.988 66.803 205.988 68.9068Z" fill="#7C26FA"/>
<path d="M222.224 71.3625H221.021V70.5139H219.12V69.676H221.021V64.0149H222.224V71.3625ZM214.039 68.3762C215.324 68.3691 216.463 68.3476 217.455 68.3118C218.447 68.276 219.396 68.2008 220.302 68.0862L220.366 68.9456C219.65 69.0673 218.833 69.1604 217.917 69.2249V71.094H216.724V69.2893C216.033 69.318 215.188 69.3323 214.189 69.3323L214.039 68.3762ZM214.78 66.0881C214.78 65.7515 214.882 65.4526 215.086 65.1912C215.29 64.9298 215.575 64.7275 215.94 64.5842C216.309 64.441 216.732 64.3694 217.208 64.3694C217.673 64.3694 218.089 64.441 218.454 64.5842C218.819 64.7275 219.104 64.9298 219.308 65.1912C219.516 65.4526 219.621 65.7515 219.625 66.0881C219.621 66.4283 219.516 66.7273 219.308 66.9851C219.104 67.2429 218.819 67.4434 218.454 67.5867C218.092 67.7263 217.677 67.7961 217.208 67.7961C216.732 67.7961 216.309 67.7263 215.94 67.5867C215.575 67.4434 215.29 67.2447 215.086 66.9905C214.882 66.7327 214.78 66.4319 214.78 66.0881ZM215.328 70.6536H216.52V72.5549H222.45V73.5217H215.328V70.6536ZM215.908 66.0881C215.908 66.3495 216.026 66.5536 216.262 66.7004C216.499 66.8472 216.814 66.9224 217.208 66.926C217.587 66.9224 217.893 66.8472 218.126 66.7004C218.363 66.55 218.483 66.3459 218.486 66.0881C218.483 65.8303 218.364 65.6262 218.132 65.4758C217.899 65.3254 217.596 65.2502 217.224 65.2502C216.823 65.2502 216.502 65.3254 216.262 65.4758C216.026 65.6226 215.908 65.8267 215.908 66.0881Z" fill="#14191F"/>
<rect x="24.5" y="53.5" width="210" height="31" rx="2.21188" stroke="#7C26FA"/>
<rect x="24.5" y="133.5" width="210" height="31" rx="2.21188" fill="white"/>
<path d="M207.971 153.635C206.051 153.635 204.647 152.504 204.615 150.915H206.471C206.515 151.633 207.17 152.129 207.971 152.123C208.924 152.129 209.604 151.455 209.598 150.496C209.604 149.517 208.911 148.837 207.945 148.83C207.253 148.83 206.769 149.091 206.496 149.606H204.767L205.263 144.305H210.933V145.868H206.839L206.585 148.195H206.661C206.998 147.743 207.697 147.413 208.505 147.419C210.195 147.413 211.454 148.678 211.454 150.445C211.454 152.307 210.043 153.635 207.971 153.635Z" fill="#7C26FA"/>
<path d="M216.832 144.315C217.319 144.315 217.757 144.41 218.148 144.6C218.538 144.786 218.844 145.046 219.066 145.379C219.292 145.712 219.406 146.088 219.41 146.507C219.406 146.929 219.292 147.307 219.066 147.64C218.844 147.97 218.538 148.229 218.148 148.419C217.757 148.605 217.319 148.698 216.832 148.698C216.341 148.698 215.899 148.605 215.505 148.419C215.115 148.229 214.809 147.97 214.587 147.64C214.365 147.307 214.254 146.929 214.254 146.507C214.254 146.088 214.365 145.712 214.587 145.379C214.809 145.046 215.115 144.786 215.505 144.6C215.899 144.41 216.341 144.315 216.832 144.315ZM215.414 146.507C215.414 146.754 215.475 146.971 215.596 147.157C215.718 147.339 215.886 147.481 216.101 147.581C216.316 147.681 216.56 147.731 216.832 147.731C217.104 147.731 217.346 147.681 217.557 147.581C217.772 147.481 217.94 147.339 218.062 147.157C218.187 146.971 218.25 146.754 218.25 146.507C218.25 146.267 218.187 146.056 218.062 145.873C217.94 145.69 217.772 145.551 217.557 145.454C217.346 145.354 217.104 145.304 216.832 145.304C216.56 145.304 216.316 145.354 216.101 145.454C215.886 145.551 215.718 145.69 215.596 145.873C215.475 146.056 215.414 146.267 215.414 146.507ZM215.725 149.332H222.171V151.867H216.918V152.651H222.461V153.597H215.747V150.986H220.978V150.267H215.725V149.332ZM220.968 144.004H222.171V148.913H220.968V144.004Z" fill="#14191F"/>
<rect x="24.5" y="133.5" width="210" height="31" rx="2.21188" stroke="#7C26FA"/>
<path d="M27.8633 90.7383C27.8633 91.1035 27.9564 91.4598 28.1426 91.8071C28.3324 92.1545 28.6009 92.4642 28.9482 92.7363C29.2992 93.0049 29.7074 93.209 30.1729 93.3486L29.6895 94.1543C29.1488 93.986 28.6779 93.7354 28.2769 93.4023C27.8794 93.0658 27.575 92.6719 27.3638 92.2207C27.1418 92.7184 26.8213 93.1571 26.4023 93.5366C25.987 93.9162 25.5036 94.1973 24.9521 94.3799L24.4473 93.5742C24.9235 93.4167 25.3424 93.1893 25.7041 92.8921C26.0658 92.5949 26.3451 92.2583 26.542 91.8823C26.7425 91.5028 26.8428 91.1178 26.8428 90.7275V90.5771H24.748V89.75H29.9365V90.5771H27.8633V90.7383ZM26.166 94.6807H32.4609V97.0869H27.208V98H32.8047V98.8057H26.1875V96.3135H31.4512V95.4971H26.166V94.6807ZM29.6572 91.3828H31.4512V89.2881H32.4609V94.2402H31.4512V92.21H29.6572V91.3828ZM42.5809 91.5332H41.2166V92.7578H42.5809V93.6172H41.2166V94.9922H40.1961V89.2881H41.2166V90.6953H42.5809V91.5332ZM33.8045 92.1455C33.8009 91.7051 33.9083 91.3094 34.1268 90.9585C34.3488 90.6076 34.6549 90.3354 35.0452 90.1421C35.4355 89.9451 35.8742 89.8467 36.3611 89.8467C36.8481 89.8467 37.285 89.9451 37.6717 90.1421C38.062 90.3354 38.3681 90.6076 38.5901 90.9585C38.8121 91.3058 38.9249 91.7015 38.9285 92.1455C38.9249 92.5931 38.8121 92.9906 38.5901 93.3379C38.3681 93.6852 38.062 93.9574 37.6717 94.1543C37.285 94.3477 36.8481 94.4443 36.3611 94.4443C35.8742 94.4443 35.4355 94.3477 35.0452 94.1543C34.6549 93.9574 34.3488 93.6852 34.1268 93.3379C33.9083 92.987 33.8009 92.5895 33.8045 92.1455ZM34.8035 92.1455C34.7999 92.4284 34.8644 92.679 34.9969 92.8975C35.1329 93.1159 35.3191 93.2842 35.5555 93.4023C35.7954 93.5205 36.0639 93.5778 36.3611 93.5742C36.6583 93.5778 36.9251 93.5205 37.1614 93.4023C37.4013 93.2842 37.5893 93.1159 37.7254 92.8975C37.8615 92.679 37.9295 92.4284 37.9295 92.1455C37.9295 91.8626 37.8615 91.6138 37.7254 91.3989C37.5893 91.1841 37.4031 91.0176 37.1668 90.8994C36.9305 90.7777 36.6619 90.7168 36.3611 90.7168C36.0604 90.7168 35.7918 90.7777 35.5555 90.8994C35.3191 91.0176 35.1329 91.1859 34.9969 91.4043C34.8644 91.6191 34.7999 91.8662 34.8035 92.1455ZM34.8572 95.4219H41.2166V98.9131H40.1961V96.249H34.8572V95.4219ZM52.9379 90.502V90.7974C52.9379 91.2163 52.9218 91.6209 52.8896 92.0112C52.8573 92.4015 52.7911 92.8258 52.6908 93.2842H54.0551V94.1221H45.2465V93.2842H51.6596C51.7742 92.7829 51.8476 92.3317 51.8798 91.9307C51.912 91.5296 51.9281 91.0892 51.9281 90.6094H46.3529V89.7715H52.9379V90.502ZM46.3207 95.3467H52.9486V98.7949H46.3207V95.3467ZM51.9389 97.9678V96.1523H47.3197V97.9678H51.9389ZM56.7414 89.8789C57.1604 89.8789 57.5381 89.9774 57.8747 90.1743C58.2113 90.3713 58.4745 90.6452 58.6643 90.9961C58.8576 91.347 58.9543 91.7445 58.9543 92.1885C58.9543 92.6325 58.8576 93.0282 58.6643 93.3755C58.4745 93.7192 58.2113 93.9878 57.8747 94.1812C57.5417 94.3709 57.1639 94.4658 56.7414 94.4658C56.3189 94.4658 55.9393 94.3709 55.6027 94.1812C55.2661 93.9878 55.0048 93.7192 54.8186 93.3755C54.6324 93.0282 54.5393 92.6325 54.5393 92.1885C54.5393 91.7409 54.6324 91.3434 54.8186 90.9961C55.0083 90.6452 55.2697 90.3713 55.6027 90.1743C55.9393 89.9774 56.3189 89.8789 56.7414 89.8789ZM55.4523 92.1885C55.4523 92.4642 55.5061 92.7095 55.6135 92.9243C55.7245 93.1392 55.8784 93.3075 56.0754 93.4292C56.2723 93.5474 56.4943 93.6064 56.7414 93.6064C56.9849 93.6064 57.2033 93.5474 57.3967 93.4292C57.5936 93.311 57.7476 93.1445 57.8586 92.9297C57.9696 92.7113 58.0269 92.4642 58.0305 92.1885C58.0269 91.9092 57.9696 91.6621 57.8586 91.4473C57.7476 91.2288 57.5936 91.0605 57.3967 90.9424C57.2033 90.8206 56.9849 90.7598 56.7414 90.7598C56.4943 90.7598 56.2723 90.8206 56.0754 90.9424C55.8784 91.0605 55.7245 91.2288 55.6135 91.4473C55.5061 91.6621 55.4523 91.9092 55.4523 92.1885ZM56.1184 95.5293H62.6604V98.9131H61.6506V96.3457H56.1184V95.5293ZM59.6203 89.4707H60.5764V91.7266H61.6936V89.2988H62.6604V95.0352H61.6936V92.5537H60.5764V94.9707H59.6203V89.4707ZM68.043 89.4492C68.7663 89.4492 69.384 89.5119 69.896 89.6372C70.408 89.7625 70.8001 89.9505 71.0723 90.2012C71.3444 90.4482 71.4805 90.749 71.4805 91.1035C71.4805 91.4616 71.3444 91.766 71.0723 92.0166C70.8001 92.2637 70.408 92.4517 69.896 92.5806C69.384 92.7059 68.7663 92.7686 68.043 92.7686C67.3197 92.7686 66.7002 92.7059 66.1846 92.5806C65.6725 92.4517 65.2804 92.2637 65.0083 92.0166C64.7397 91.766 64.6055 91.4616 64.6055 91.1035C64.6055 90.749 64.7397 90.4482 65.0083 90.2012C65.2804 89.9505 65.6725 89.7625 66.1846 89.6372C66.7002 89.5119 67.3197 89.4492 68.043 89.4492ZM63.6602 93.3594H72.4365V94.1758H63.6602V93.3594ZM64.7129 94.917H71.3301V97.1729H65.7227V98.0322H71.5986V98.8164H64.7236V96.4316H70.3203V95.6797H64.7129V94.917ZM65.6689 91.1035C65.6654 91.4007 65.8677 91.6263 66.2759 91.7803C66.6841 91.9307 67.2731 92.0059 68.043 92.0059C68.82 92.0059 69.4126 91.9307 69.8208 91.7803C70.229 91.6263 70.4313 91.4007 70.4277 91.1035C70.4313 90.8171 70.2254 90.5951 69.8101 90.4375C69.3983 90.2799 68.8092 90.2012 68.043 90.2012C67.2803 90.2012 66.693 90.2799 66.2812 90.4375C65.8695 90.5951 65.6654 90.8171 65.6689 91.1035ZM78.3463 98.1074C77.8163 98.1074 77.3401 98.0179 76.9176 97.8389C76.4986 97.6598 76.1674 97.4092 75.9239 97.0869C75.684 96.7611 75.5569 96.3887 75.5426 95.9697H76.7457C76.76 96.1917 76.837 96.3887 76.9767 96.5605C77.1199 96.7288 77.3097 96.8595 77.546 96.9526C77.7823 97.0422 78.0455 97.0869 78.3355 97.0869C78.6471 97.0869 78.9246 97.035 79.1681 96.9312C79.4151 96.8237 79.6085 96.6733 79.7481 96.48C79.8878 96.2866 79.9576 96.0664 79.9576 95.8193C79.9576 95.5615 79.8878 95.3341 79.7481 95.1372C79.6121 94.9367 79.4116 94.7809 79.1466 94.6699C78.8816 94.5553 78.5683 94.498 78.2066 94.498H77.5406V93.5312H78.2066C78.5003 93.5312 78.7599 93.4811 78.9855 93.3809C79.2146 93.277 79.3919 93.132 79.5172 92.9458C79.6461 92.7596 79.7105 92.543 79.7105 92.2959C79.7105 92.0596 79.655 91.8519 79.544 91.6729C79.433 91.4938 79.2755 91.3542 79.0714 91.2539C78.8673 91.1536 78.6292 91.1035 78.357 91.1035C78.0956 91.1035 77.8504 91.1501 77.6212 91.2432C77.3956 91.3363 77.213 91.4705 77.0733 91.646C76.9337 91.8179 76.8603 92.0166 76.8531 92.2422H75.7145C75.7252 91.8304 75.8487 91.4634 76.0851 91.1411C76.325 90.8153 76.6454 90.5628 77.0465 90.3838C77.4475 90.2048 77.888 90.1152 78.3678 90.1152C78.8655 90.1152 79.3023 90.2101 79.6783 90.3999C80.0543 90.5897 80.3443 90.8475 80.5484 91.1733C80.7525 91.4956 80.8528 91.8483 80.8492 92.2314C80.8528 92.6683 80.7311 93.0389 80.484 93.3433C80.2369 93.6476 79.9003 93.8535 79.4742 93.9609V94.0146C79.8251 94.0648 80.1259 94.174 80.3766 94.3423C80.6308 94.507 80.8224 94.7201 80.9513 94.9814C81.0838 95.2428 81.15 95.5365 81.15 95.8623C81.15 96.2884 81.0283 96.6733 80.7848 97.0171C80.5449 97.3573 80.2101 97.624 79.7804 97.8174C79.3543 98.0107 78.8762 98.1074 78.3463 98.1074ZM86.6937 94.627H82.1928V90.1367H86.6937V94.627ZM85.6947 93.8213V90.9639H83.1918V93.8213H85.6947ZM83.2777 95.6582H84.2982V97.8818H89.7875V98.709H83.2777V95.6582ZM88.3588 89.2773H89.3793V92.1562H90.7758V93.0156H89.3793V96.335H88.3588V89.2773ZM99.0266 96.5928H98.0061V95.6689H96.0725V94.9492H98.0061V89.2988H99.0266V96.5928ZM91.0988 93.6924C92.3736 93.6816 93.4908 93.6584 94.4504 93.6226C95.41 93.5868 96.3303 93.5133 97.2111 93.4023L97.2756 94.1328C96.5559 94.2546 95.7108 94.3494 94.7404 94.4175V96.292H93.7199V94.4712C93.0969 94.4963 92.2268 94.5088 91.1096 94.5088L90.9807 93.6924H91.0988ZM91.7326 91.3613C91.7326 91.0247 91.8311 90.7293 92.028 90.4751C92.2286 90.2173 92.5096 90.0186 92.8713 89.8789C93.2365 89.7357 93.6555 89.6641 94.1281 89.6641C94.5936 89.6641 95.0072 89.7357 95.3689 89.8789C95.7305 90.0186 96.0116 90.2173 96.2121 90.4751C96.4126 90.7293 96.5129 91.0247 96.5129 91.3613C96.5129 91.6979 96.4126 91.9933 96.2121 92.2476C96.0116 92.4982 95.7305 92.6934 95.3689 92.833C95.0072 92.9691 94.5936 93.0371 94.1281 93.0371C93.6555 93.0371 93.2383 92.9691 92.8767 92.833C92.515 92.6934 92.2339 92.4982 92.0334 92.2476C91.8329 91.9933 91.7326 91.6979 91.7326 91.3613ZM92.3127 95.8838H93.3225V97.8818H99.2629V98.709H92.3127V95.8838ZM92.6994 91.3613C92.6994 91.5475 92.7585 91.7104 92.8767 91.8501C92.9948 91.9897 93.1613 92.0972 93.3762 92.1724C93.5946 92.2476 93.8453 92.2852 94.1281 92.2852C94.4003 92.2852 94.6438 92.2476 94.8586 92.1724C95.0734 92.0972 95.2417 91.9897 95.3635 91.8501C95.4852 91.7104 95.5461 91.5475 95.5461 91.3613C95.5461 91.1715 95.4852 91.0068 95.3635 90.8672C95.2417 90.724 95.0734 90.6147 94.8586 90.5396C94.6438 90.4608 94.4003 90.4232 94.1281 90.4268C93.8453 90.4232 93.5946 90.4608 93.3762 90.5396C93.1613 90.6147 92.9948 90.724 92.8767 90.8672C92.7585 91.0068 92.6994 91.1715 92.6994 91.3613ZM110.587 98.9346H109.566V89.2881H110.587V98.9346ZM102.949 93.3809C102.949 92.7077 103.055 92.1169 103.266 91.6084C103.477 91.0964 103.771 90.7025 104.147 90.4268C104.526 90.1475 104.958 90.0078 105.441 90.0078C105.917 90.0078 106.344 90.1475 106.72 90.4268C107.096 90.7025 107.389 91.0964 107.6 91.6084C107.815 92.1169 107.923 92.7077 107.923 93.3809C107.923 94.0612 107.815 94.6574 107.6 95.1694C107.389 95.6815 107.096 96.0754 106.72 96.3511C106.344 96.6268 105.917 96.7646 105.441 96.7646C104.958 96.7646 104.526 96.6268 104.147 96.3511C103.771 96.0754 103.477 95.6815 103.266 95.1694C103.055 94.6574 102.949 94.0612 102.949 93.3809ZM103.937 93.3809C103.937 93.8822 104 94.319 104.125 94.6914C104.251 95.0638 104.426 95.3503 104.652 95.5508C104.881 95.7513 105.144 95.8516 105.441 95.8516C105.735 95.8516 105.994 95.7513 106.22 95.5508C106.446 95.3503 106.621 95.0638 106.746 94.6914C106.872 94.319 106.934 93.8822 106.934 93.3809C106.934 92.8867 106.872 92.4552 106.746 92.0864C106.621 91.714 106.446 91.4276 106.22 91.2271C105.994 91.0229 105.735 90.9209 105.441 90.9209C105.144 90.9209 104.881 91.0229 104.652 91.2271C104.426 91.4276 104.251 91.714 104.125 92.0864C104 92.4552 103.937 92.8867 103.937 93.3809ZM115.142 90.8242C115.142 91.2432 115.235 91.646 115.421 92.0327C115.611 92.4194 115.882 92.7614 116.233 93.0586C116.583 93.3558 116.993 93.5814 117.463 93.7354L116.915 94.541C116.395 94.3584 115.941 94.0881 115.55 93.73C115.164 93.3683 114.865 92.9476 114.653 92.4678C114.442 93.0156 114.134 93.4919 113.73 93.8965C113.329 94.3011 112.851 94.6055 112.296 94.8096L111.748 93.9932C112.242 93.8177 112.666 93.5671 113.021 93.2412C113.379 92.9154 113.653 92.5376 113.842 92.1079C114.032 91.6746 114.129 91.2181 114.132 90.7383V89.793H115.142V90.8242ZM113.047 97.1084C113.047 96.736 113.176 96.4155 113.434 96.147C113.696 95.8784 114.068 95.6743 114.551 95.5347C115.038 95.395 115.615 95.3252 116.281 95.3252C116.936 95.3252 117.504 95.395 117.983 95.5347C118.463 95.6743 118.83 95.8784 119.085 96.147C119.342 96.4155 119.471 96.736 119.471 97.1084C119.471 97.4844 119.342 97.8066 119.085 98.0752C118.83 98.3438 118.463 98.5461 117.983 98.6821C117.507 98.8218 116.94 98.8916 116.281 98.8916C115.615 98.8916 115.038 98.8218 114.551 98.6821C114.068 98.5461 113.696 98.3438 113.434 98.0752C113.176 97.8066 113.047 97.4844 113.047 97.1084ZM114.068 97.1084C114.064 97.4235 114.256 97.6652 114.643 97.8335C115.033 98.0018 115.579 98.0895 116.281 98.0967C116.979 98.0895 117.52 98.0018 117.903 97.8335C118.286 97.6652 118.476 97.4235 118.472 97.1084C118.472 96.9043 118.386 96.7288 118.214 96.582C118.043 96.4352 117.792 96.3242 117.463 96.249C117.133 96.1702 116.739 96.1309 116.281 96.1309C115.819 96.1309 115.421 96.1702 115.088 96.249C114.759 96.3242 114.507 96.4352 114.331 96.582C114.156 96.7288 114.068 96.9043 114.068 97.1084ZM118.365 89.2881H119.385V91.7051H120.782V92.5645H119.385V95.0996H118.365V89.2881ZM125.412 89.8682C126.082 89.8682 126.687 89.981 127.228 90.2065C127.769 90.4285 128.193 90.7437 128.501 91.1519C128.812 91.5565 128.968 92.0238 128.968 92.5537C128.968 93.0837 128.812 93.5527 128.501 93.9609C128.193 94.3691 127.769 94.6842 127.228 94.9062C126.687 95.1283 126.082 95.2393 125.412 95.2393C124.743 95.2393 124.138 95.1283 123.597 94.9062C123.06 94.6842 122.637 94.3691 122.329 93.9609C122.022 93.5527 121.868 93.0837 121.868 92.5537C121.868 92.0273 122.022 91.5601 122.329 91.1519C122.637 90.7437 123.06 90.4285 123.597 90.2065C124.138 89.981 124.743 89.8682 125.412 89.8682ZM121.03 96.8184H129.838V97.667H121.03V96.8184ZM122.845 92.5537C122.845 92.9225 122.954 93.2466 123.173 93.5259C123.395 93.8052 123.701 94.0218 124.091 94.1758C124.482 94.3262 124.922 94.4014 125.412 94.4014C125.903 94.4014 126.342 94.3262 126.728 94.1758C127.119 94.0218 127.425 93.8052 127.647 93.5259C127.869 93.2466 127.98 92.9225 127.98 92.5537C127.98 92.1885 127.869 91.8644 127.647 91.5815C127.425 91.2987 127.119 91.0802 126.728 90.9263C126.338 90.7723 125.899 90.6953 125.412 90.6953C124.922 90.6953 124.482 90.7723 124.091 90.9263C123.701 91.0802 123.395 91.2987 123.173 91.5815C122.954 91.8644 122.845 92.1885 122.845 92.5537ZM139.045 97.7637H130.237V96.9043H134.114V95.2178H131.311V92.1562H136.961V90.8027H131.289V89.9648H137.971V92.9727H132.321V94.3799H138.196V95.2178H135.124V96.9043H139.045V97.7637ZM149.853 94.2402H148.833V91.7695H146.803V90.9424H148.833V89.2881H149.853V94.2402ZM141.797 93.4668C142.291 93.3092 142.719 93.0801 143.08 92.7793C143.442 92.4749 143.72 92.1222 143.913 91.7212C144.106 91.3166 144.203 90.8887 144.203 90.4375V89.5996H145.213V90.4375C145.213 90.8457 145.306 91.2378 145.492 91.6138C145.682 91.9862 145.952 92.3174 146.303 92.6074C146.654 92.8939 147.068 93.1123 147.544 93.2627L147.007 94.0576C146.484 93.875 146.026 93.61 145.632 93.2627C145.241 92.9154 144.939 92.5107 144.724 92.0488C144.513 92.5752 144.203 93.0317 143.795 93.4185C143.39 93.8016 142.907 94.0898 142.345 94.2832L141.797 93.4668ZM143.558 94.6914H149.853V97.0869H144.579V97.9785H150.186V98.7949H143.58V96.3135H148.844V95.4971H143.558V94.6914ZM159.06 95.0137H158.04V92.5752H156.246V91.7373H158.04V89.2881H159.06V95.0137ZM151.036 94.1436C151.523 93.9717 151.949 93.7246 152.314 93.4023C152.679 93.0765 152.959 92.7059 153.152 92.2905C153.349 91.8716 153.446 91.4401 153.442 90.9961V90.7812H151.358V89.9541H156.546V90.7812H154.484V90.9854C154.48 91.3936 154.572 91.7892 154.758 92.1724C154.944 92.5555 155.213 92.8975 155.564 93.1982C155.914 93.4954 156.328 93.7246 156.804 93.8857L156.278 94.6914C155.748 94.5088 155.286 94.2367 154.892 93.875C154.502 93.5098 154.199 93.0837 153.984 92.5967C153.773 93.141 153.46 93.619 153.045 94.0308C152.629 94.4425 152.139 94.7523 151.573 94.96L151.036 94.1436ZM152.583 97.0977C152.583 96.7181 152.712 96.394 152.969 96.1255C153.231 95.8534 153.605 95.6457 154.092 95.5024C154.582 95.3556 155.164 95.2822 155.838 95.2822C156.507 95.2822 157.085 95.3556 157.572 95.5024C158.059 95.6457 158.434 95.8534 158.695 96.1255C158.96 96.394 159.092 96.7181 159.092 97.0977C159.092 97.4772 158.96 97.8013 158.695 98.0698C158.434 98.342 158.059 98.5496 157.572 98.6929C157.085 98.8397 156.507 98.9131 155.838 98.9131C155.164 98.9131 154.582 98.8397 154.092 98.6929C153.605 98.5496 153.231 98.342 152.969 98.0698C152.712 97.8013 152.583 97.4772 152.583 97.0977ZM153.592 97.0977C153.589 97.4235 153.784 97.6759 154.178 97.855C154.575 98.0304 155.129 98.1146 155.838 98.1074C156.539 98.1146 157.087 98.0304 157.481 97.855C157.879 97.6759 158.079 97.4235 158.083 97.0977C158.079 96.7754 157.882 96.5247 157.492 96.3457C157.105 96.1667 156.564 96.0771 155.87 96.0771C155.146 96.0771 154.584 96.1649 154.183 96.3403C153.786 96.5158 153.589 96.7682 153.592 97.0977ZM165.001 91.7051H160.221V90.8779H162.112V89.5674H163.121V90.8779H165.001V91.7051ZM160.533 94.498C160.533 94.0719 160.62 93.6906 160.796 93.354C160.975 93.0174 161.224 92.756 161.542 92.5698C161.861 92.38 162.219 92.2852 162.617 92.2852C163.018 92.2852 163.376 92.38 163.691 92.5698C164.01 92.756 164.258 93.0174 164.437 93.354C164.62 93.6906 164.711 94.0719 164.711 94.498C164.711 94.9313 164.62 95.318 164.437 95.6582C164.258 95.9984 164.01 96.2633 163.691 96.4531C163.376 96.6393 163.018 96.7324 162.617 96.7324C162.219 96.7324 161.861 96.6393 161.542 96.4531C161.224 96.2633 160.975 95.9984 160.796 95.6582C160.62 95.318 160.533 94.9313 160.533 94.498ZM161.435 94.498C161.435 94.7666 161.485 95.0047 161.585 95.2124C161.686 95.4165 161.825 95.5758 162.004 95.6904C162.183 95.805 162.387 95.8623 162.617 95.8623C162.846 95.8623 163.05 95.805 163.229 95.6904C163.412 95.5758 163.553 95.4165 163.653 95.2124C163.757 95.0047 163.809 94.7666 163.809 94.498C163.809 94.2367 163.757 94.0021 163.653 93.7944C163.553 93.5868 163.412 93.4256 163.229 93.311C163.05 93.1929 162.846 93.1338 162.617 93.1338C162.387 93.1338 162.183 93.1929 162.004 93.311C161.825 93.4256 161.686 93.5868 161.585 93.7944C161.485 94.0021 161.435 94.2367 161.435 94.498ZM165.442 89.5029H166.409V93.2949H167.515V89.2881H168.482V98.9131H167.515V94.1328H166.409V98.4619H165.442V89.5029ZM178.226 95.54H174.316V98.9023H173.317V95.54H169.449V94.7129H178.226V95.54ZM169.944 93.1768C170.538 93.0944 171.086 92.9315 171.587 92.688C172.092 92.4409 172.495 92.1401 172.796 91.7856C173.096 91.4312 173.252 91.0605 173.263 90.6738H170.266V89.8574H177.399V90.6738H174.423C174.427 91.0605 174.577 91.4312 174.874 91.7856C175.175 92.1401 175.578 92.4409 176.083 92.688C176.588 92.9315 177.141 93.0944 177.742 93.1768L177.366 93.9824C176.84 93.9001 176.344 93.7622 175.879 93.5688C175.413 93.3719 175.005 93.1284 174.654 92.8384C174.303 92.5448 174.031 92.2189 173.838 91.8608C173.644 92.2189 173.372 92.5448 173.021 92.8384C172.67 93.1284 172.264 93.3719 171.802 93.5688C171.34 93.7622 170.849 93.9001 170.33 93.9824L169.944 93.1768ZM181.589 91.9199C181.589 92.4427 181.662 92.9601 181.809 93.4722C181.956 93.9806 182.174 94.4461 182.464 94.8687C182.754 95.2912 183.107 95.6296 183.522 95.8838L182.953 96.668C182.516 96.4066 182.142 96.0503 181.831 95.5991C181.523 95.1444 181.283 94.6287 181.111 94.0522C180.932 94.6789 180.676 95.2375 180.343 95.728C180.013 96.2186 179.619 96.6035 179.161 96.8828L178.527 96.1201C178.968 95.8551 179.344 95.5024 179.655 95.062C179.97 94.6216 180.207 94.1346 180.364 93.6011C180.525 93.064 180.604 92.5179 180.601 91.9629V90.1689H181.589V91.9199ZM182.48 92.6719H183.974V89.4707H184.94V98.4404H183.974V93.5205H182.48V92.6719ZM185.961 89.2881H186.938V98.9131H185.961V89.2881ZM196.672 97.71H187.863V96.8613H189.969V94.3477C189.564 94.1257 189.251 93.8446 189.029 93.5044C188.807 93.1642 188.697 92.7829 188.701 92.3604C188.701 91.8626 188.851 91.424 189.152 91.0444C189.453 90.6649 189.872 90.3713 190.409 90.1636C190.95 89.9523 191.562 89.8467 192.246 89.8467C192.93 89.8467 193.542 89.9523 194.083 90.1636C194.623 90.3713 195.044 90.6649 195.345 91.0444C195.649 91.424 195.802 91.8626 195.802 92.3604C195.802 92.7793 195.694 93.1571 195.479 93.4937C195.264 93.8267 194.96 94.1042 194.566 94.3262V96.8613H196.672V97.71ZM189.689 92.3604C189.689 92.7005 189.797 92.9995 190.012 93.2573C190.226 93.5151 190.527 93.7157 190.914 93.8589C191.301 93.9985 191.745 94.0684 192.246 94.0684C192.744 94.0684 193.186 93.9967 193.573 93.8535C193.963 93.7103 194.267 93.5116 194.486 93.2573C194.704 92.9995 194.813 92.7005 194.813 92.3604C194.813 92.0202 194.704 91.723 194.486 91.4688C194.267 91.2109 193.963 91.0122 193.573 90.8726C193.186 90.7329 192.744 90.6631 192.246 90.6631C191.745 90.6631 191.301 90.7329 190.914 90.8726C190.527 91.0122 190.226 91.2109 190.012 91.4688C189.797 91.723 189.689 92.0202 189.689 92.3604ZM193.535 96.8613V94.7236C193.134 94.8167 192.704 94.8633 192.246 94.8633C191.795 94.8633 191.372 94.8167 190.978 94.7236V96.8613H193.535Z" fill="#97A2AF"/>
<path d="M27.8633 170.738C27.8633 171.104 27.9564 171.46 28.1426 171.807C28.3324 172.154 28.6009 172.464 28.9482 172.736C29.2992 173.005 29.7074 173.209 30.1729 173.349L29.6895 174.154C29.1488 173.986 28.6779 173.735 28.2769 173.402C27.8794 173.066 27.575 172.672 27.3638 172.221C27.1418 172.718 26.8213 173.157 26.4023 173.537C25.987 173.916 25.5036 174.197 24.9521 174.38L24.4473 173.574C24.9235 173.417 25.3424 173.189 25.7041 172.892C26.0658 172.595 26.3451 172.258 26.542 171.882C26.7425 171.503 26.8428 171.118 26.8428 170.728V170.577H24.748V169.75H29.9365V170.577H27.8633V170.738ZM26.166 174.681H32.4609V177.087H27.208V178H32.8047V178.806H26.1875V176.313H31.4512V175.497H26.166V174.681ZM29.6572 171.383H31.4512V169.288H32.4609V174.24H31.4512V172.21H29.6572V171.383ZM42.5809 171.533H41.2166V172.758H42.5809V173.617H41.2166V174.992H40.1961V169.288H41.2166V170.695H42.5809V171.533ZM33.8045 172.146C33.8009 171.705 33.9083 171.309 34.1268 170.958C34.3488 170.608 34.6549 170.335 35.0452 170.142C35.4355 169.945 35.8742 169.847 36.3611 169.847C36.8481 169.847 37.285 169.945 37.6717 170.142C38.062 170.335 38.3681 170.608 38.5901 170.958C38.8121 171.306 38.9249 171.701 38.9285 172.146C38.9249 172.593 38.8121 172.991 38.5901 173.338C38.3681 173.685 38.062 173.957 37.6717 174.154C37.285 174.348 36.8481 174.444 36.3611 174.444C35.8742 174.444 35.4355 174.348 35.0452 174.154C34.6549 173.957 34.3488 173.685 34.1268 173.338C33.9083 172.987 33.8009 172.59 33.8045 172.146ZM34.8035 172.146C34.7999 172.428 34.8644 172.679 34.9969 172.897C35.1329 173.116 35.3191 173.284 35.5555 173.402C35.7954 173.521 36.0639 173.578 36.3611 173.574C36.6583 173.578 36.9251 173.521 37.1614 173.402C37.4013 173.284 37.5893 173.116 37.7254 172.897C37.8615 172.679 37.9295 172.428 37.9295 172.146C37.9295 171.863 37.8615 171.614 37.7254 171.399C37.5893 171.184 37.4031 171.018 37.1668 170.899C36.9305 170.778 36.6619 170.717 36.3611 170.717C36.0604 170.717 35.7918 170.778 35.5555 170.899C35.3191 171.018 35.1329 171.186 34.9969 171.404C34.8644 171.619 34.7999 171.866 34.8035 172.146ZM34.8572 175.422H41.2166V178.913H40.1961V176.249H34.8572V175.422ZM52.9379 170.502V170.797C52.9379 171.216 52.9218 171.621 52.8896 172.011C52.8573 172.402 52.7911 172.826 52.6908 173.284H54.0551V174.122H45.2465V173.284H51.6596C51.7742 172.783 51.8476 172.332 51.8798 171.931C51.912 171.53 51.9281 171.089 51.9281 170.609H46.3529V169.771H52.9379V170.502ZM46.3207 175.347H52.9486V178.795H46.3207V175.347ZM51.9389 177.968V176.152H47.3197V177.968H51.9389ZM56.7414 169.879C57.1604 169.879 57.5381 169.977 57.8747 170.174C58.2113 170.371 58.4745 170.645 58.6643 170.996C58.8576 171.347 58.9543 171.744 58.9543 172.188C58.9543 172.632 58.8576 173.028 58.6643 173.375C58.4745 173.719 58.2113 173.988 57.8747 174.181C57.5417 174.371 57.1639 174.466 56.7414 174.466C56.3189 174.466 55.9393 174.371 55.6027 174.181C55.2661 173.988 55.0048 173.719 54.8186 173.375C54.6324 173.028 54.5393 172.632 54.5393 172.188C54.5393 171.741 54.6324 171.343 54.8186 170.996C55.0083 170.645 55.2697 170.371 55.6027 170.174C55.9393 169.977 56.3189 169.879 56.7414 169.879ZM55.4523 172.188C55.4523 172.464 55.5061 172.709 55.6135 172.924C55.7245 173.139 55.8784 173.307 56.0754 173.429C56.2723 173.547 56.4943 173.606 56.7414 173.606C56.9849 173.606 57.2033 173.547 57.3967 173.429C57.5936 173.311 57.7476 173.145 57.8586 172.93C57.9696 172.711 58.0269 172.464 58.0305 172.188C58.0269 171.909 57.9696 171.662 57.8586 171.447C57.7476 171.229 57.5936 171.061 57.3967 170.942C57.2033 170.821 56.9849 170.76 56.7414 170.76C56.4943 170.76 56.2723 170.821 56.0754 170.942C55.8784 171.061 55.7245 171.229 55.6135 171.447C55.5061 171.662 55.4523 171.909 55.4523 172.188ZM56.1184 175.529H62.6604V178.913H61.6506V176.346H56.1184V175.529ZM59.6203 169.471H60.5764V171.727H61.6936V169.299H62.6604V175.035H61.6936V172.554H60.5764V174.971H59.6203V169.471ZM68.043 169.449C68.7663 169.449 69.384 169.512 69.896 169.637C70.408 169.763 70.8001 169.951 71.0723 170.201C71.3444 170.448 71.4805 170.749 71.4805 171.104C71.4805 171.462 71.3444 171.766 71.0723 172.017C70.8001 172.264 70.408 172.452 69.896 172.581C69.384 172.706 68.7663 172.769 68.043 172.769C67.3197 172.769 66.7002 172.706 66.1846 172.581C65.6725 172.452 65.2804 172.264 65.0083 172.017C64.7397 171.766 64.6055 171.462 64.6055 171.104C64.6055 170.749 64.7397 170.448 65.0083 170.201C65.2804 169.951 65.6725 169.763 66.1846 169.637C66.7002 169.512 67.3197 169.449 68.043 169.449ZM63.6602 173.359H72.4365V174.176H63.6602V173.359ZM64.7129 174.917H71.3301V177.173H65.7227V178.032H71.5986V178.816H64.7236V176.432H70.3203V175.68H64.7129V174.917ZM65.6689 171.104C65.6654 171.401 65.8677 171.626 66.2759 171.78C66.6841 171.931 67.2731 172.006 68.043 172.006C68.82 172.006 69.4126 171.931 69.8208 171.78C70.229 171.626 70.4313 171.401 70.4277 171.104C70.4313 170.817 70.2254 170.595 69.8101 170.438C69.3983 170.28 68.8092 170.201 68.043 170.201C67.2803 170.201 66.693 170.28 66.2812 170.438C65.8695 170.595 65.6654 170.817 65.6689 171.104ZM78.2281 178.107C77.7447 178.107 77.3061 178.016 76.9122 177.833C76.5183 177.651 76.205 177.397 75.9723 177.071C75.7395 176.745 75.6142 176.378 75.5963 175.97H76.7457C76.7672 176.188 76.846 176.385 76.982 176.561C77.1181 176.732 77.2953 176.868 77.5138 176.969C77.7322 177.069 77.9703 177.119 78.2281 177.119C78.5396 177.119 78.8172 177.049 79.0606 176.91C79.3077 176.77 79.5011 176.578 79.6407 176.335C79.7804 176.088 79.8502 175.812 79.8502 175.508C79.8502 175.196 79.7786 174.917 79.6354 174.67C79.4921 174.419 79.2934 174.224 79.0392 174.084C78.7849 173.941 78.4967 173.868 78.1744 173.864C77.5156 173.864 77.0608 174.093 76.8102 174.552H75.693L76.1979 170.223H80.6021V171.232H77.1754L76.9176 173.413H76.9928C77.1575 173.256 77.3688 173.13 77.6266 173.037C77.888 172.94 78.1637 172.89 78.4537 172.887C78.9371 172.887 79.3722 173 79.7589 173.225C80.1456 173.447 80.4482 173.755 80.6666 174.149C80.8886 174.539 80.9996 174.981 80.9996 175.476C80.9996 175.98 80.8814 176.433 80.6451 176.834C80.4088 177.232 80.0794 177.543 79.6568 177.769C79.2379 177.995 78.7617 178.107 78.2281 178.107ZM84.352 169.61C84.8318 169.614 85.2632 169.709 85.6464 169.895C86.0295 170.078 86.3303 170.332 86.5487 170.658C86.7672 170.984 86.8764 171.354 86.8764 171.77C86.8764 172.185 86.7672 172.556 86.5487 172.881C86.3303 173.207 86.0295 173.461 85.6464 173.644C85.2632 173.827 84.8318 173.918 84.352 173.918C83.8686 173.918 83.4335 173.827 83.0468 173.644C82.6636 173.461 82.3629 173.207 82.1444 172.881C81.926 172.556 81.8168 172.185 81.8168 171.77C81.8168 171.354 81.926 170.984 82.1444 170.658C82.3629 170.332 82.6636 170.078 83.0468 169.895C83.4335 169.709 83.8686 169.614 84.352 169.61ZM82.8158 171.77C82.8158 172.031 82.8803 172.262 83.0092 172.462C83.1417 172.659 83.3243 172.813 83.557 172.924C83.7934 173.035 84.0583 173.091 84.352 173.091C84.6456 173.091 84.9088 173.035 85.1415 172.924C85.3742 172.813 85.5569 172.659 85.6894 172.462C85.8218 172.262 85.8881 172.031 85.8881 171.77C85.8881 171.512 85.8218 171.284 85.6894 171.087C85.5569 170.887 85.3725 170.733 85.1361 170.625C84.9034 170.518 84.642 170.466 84.352 170.47C84.0583 170.466 83.7934 170.518 83.557 170.625C83.3243 170.733 83.1417 170.887 83.0092 171.087C82.8803 171.284 82.8158 171.512 82.8158 171.77ZM83.2777 174.627H89.6049V177.055H84.2982V177.979H89.9271V178.795H83.31V176.292H88.5951V175.443H83.2777V174.627ZM88.5844 169.288H89.6049V174.187H88.5844V169.288ZM101.187 178.935H100.166V169.288H101.187V178.935ZM93.5488 173.381C93.5488 172.708 93.6545 172.117 93.8657 171.608C94.077 171.096 94.3706 170.702 94.7466 170.427C95.1261 170.147 95.5576 170.008 96.041 170.008C96.5173 170.008 96.9434 170.147 97.3193 170.427C97.6953 170.702 97.9889 171.096 98.2002 171.608C98.415 172.117 98.5225 172.708 98.5225 173.381C98.5225 174.061 98.415 174.657 98.2002 175.169C97.9889 175.681 97.6953 176.075 97.3193 176.351C96.9434 176.627 96.5173 176.765 96.041 176.765C95.5576 176.765 95.1261 176.627 94.7466 176.351C94.3706 176.075 94.077 175.681 93.8657 175.169C93.6545 174.657 93.5488 174.061 93.5488 173.381ZM94.5371 173.381C94.5371 173.882 94.5998 174.319 94.7251 174.691C94.8504 175.064 95.0259 175.35 95.2515 175.551C95.4806 175.751 95.7438 175.852 96.041 175.852C96.3346 175.852 96.5942 175.751 96.8198 175.551C97.0454 175.35 97.2209 175.064 97.3462 174.691C97.4715 174.319 97.5342 173.882 97.5342 173.381C97.5342 172.887 97.4715 172.455 97.3462 172.086C97.2209 171.714 97.0454 171.428 96.8198 171.227C96.5942 171.023 96.3346 170.921 96.041 170.921C95.7438 170.921 95.4806 171.023 95.2515 171.227C95.0259 171.428 94.8504 171.714 94.7251 172.086C94.5998 172.455 94.5371 172.887 94.5371 173.381ZM105.742 170.824C105.742 171.243 105.835 171.646 106.021 172.033C106.211 172.419 106.481 172.761 106.832 173.059C107.183 173.356 107.593 173.581 108.062 173.735L107.514 174.541C106.995 174.358 106.54 174.088 106.15 173.73C105.763 173.368 105.464 172.948 105.253 172.468C105.042 173.016 104.734 173.492 104.329 173.896C103.928 174.301 103.45 174.605 102.895 174.81L102.347 173.993C102.842 173.818 103.266 173.567 103.62 173.241C103.978 172.915 104.252 172.538 104.442 172.108C104.632 171.675 104.729 171.218 104.732 170.738V169.793H105.742V170.824ZM103.647 177.108C103.647 176.736 103.776 176.416 104.034 176.147C104.295 175.878 104.668 175.674 105.151 175.535C105.638 175.395 106.215 175.325 106.881 175.325C107.536 175.325 108.103 175.395 108.583 175.535C109.063 175.674 109.43 175.878 109.684 176.147C109.942 176.416 110.071 176.736 110.071 177.108C110.071 177.484 109.942 177.807 109.684 178.075C109.43 178.344 109.063 178.546 108.583 178.682C108.107 178.822 107.54 178.892 106.881 178.892C106.215 178.892 105.638 178.822 105.151 178.682C104.668 178.546 104.295 178.344 104.034 178.075C103.776 177.807 103.647 177.484 103.647 177.108ZM104.668 177.108C104.664 177.424 104.856 177.665 105.242 177.833C105.633 178.002 106.179 178.09 106.881 178.097C107.579 178.09 108.12 178.002 108.503 177.833C108.886 177.665 109.076 177.424 109.072 177.108C109.072 176.904 108.986 176.729 108.814 176.582C108.642 176.435 108.392 176.324 108.062 176.249C107.733 176.17 107.339 176.131 106.881 176.131C106.419 176.131 106.021 176.17 105.688 176.249C105.359 176.324 105.106 176.435 104.931 176.582C104.755 176.729 104.668 176.904 104.668 177.108ZM108.965 169.288H109.985V171.705H111.382V172.564H109.985V175.1H108.965V169.288ZM116.012 169.868C116.682 169.868 117.287 169.981 117.828 170.207C118.368 170.429 118.793 170.744 119.101 171.152C119.412 171.556 119.568 172.024 119.568 172.554C119.568 173.084 119.412 173.553 119.101 173.961C118.793 174.369 118.368 174.684 117.828 174.906C117.287 175.128 116.682 175.239 116.012 175.239C115.343 175.239 114.738 175.128 114.197 174.906C113.66 174.684 113.237 174.369 112.929 173.961C112.621 173.553 112.467 173.084 112.467 172.554C112.467 172.027 112.621 171.56 112.929 171.152C113.237 170.744 113.66 170.429 114.197 170.207C114.738 169.981 115.343 169.868 116.012 169.868ZM111.629 176.818H120.438V177.667H111.629V176.818ZM113.445 172.554C113.445 172.923 113.554 173.247 113.773 173.526C113.995 173.805 114.301 174.022 114.691 174.176C115.081 174.326 115.522 174.401 116.012 174.401C116.503 174.401 116.942 174.326 117.328 174.176C117.719 174.022 118.025 173.805 118.247 173.526C118.469 173.247 118.58 172.923 118.58 172.554C118.58 172.188 118.469 171.864 118.247 171.582C118.025 171.299 117.719 171.08 117.328 170.926C116.938 170.772 116.499 170.695 116.012 170.695C115.522 170.695 115.081 170.772 114.691 170.926C114.301 171.08 113.995 171.299 113.773 171.582C113.554 171.864 113.445 172.188 113.445 172.554ZM129.645 177.764H120.836V176.904H124.714V175.218H121.911V172.156H127.561V170.803H121.889V169.965H128.571V172.973H122.92V174.38H128.796V175.218H125.724V176.904H129.645V177.764ZM140.453 174.24H139.433V171.77H137.402V170.942H139.433V169.288H140.453V174.24ZM132.396 173.467C132.891 173.309 133.319 173.08 133.68 172.779C134.042 172.475 134.319 172.122 134.513 171.721C134.706 171.317 134.803 170.889 134.803 170.438V169.6H135.812V170.438C135.812 170.846 135.906 171.238 136.092 171.614C136.282 171.986 136.552 172.317 136.903 172.607C137.254 172.894 137.667 173.112 138.144 173.263L137.606 174.058C137.084 173.875 136.625 173.61 136.231 173.263C135.841 172.915 135.539 172.511 135.324 172.049C135.112 172.575 134.803 173.032 134.395 173.418C133.99 173.802 133.507 174.09 132.944 174.283L132.396 173.467ZM134.158 174.691H140.453V177.087H135.179V177.979H140.786V178.795H134.18V176.313H139.443V175.497H134.158V174.691ZM149.66 175.014H148.639V172.575H146.846V171.737H148.639V169.288H149.66V175.014ZM141.636 174.144C142.123 173.972 142.549 173.725 142.914 173.402C143.279 173.076 143.558 172.706 143.752 172.291C143.949 171.872 144.045 171.44 144.042 170.996V170.781H141.958V169.954H147.146V170.781H145.084V170.985C145.08 171.394 145.172 171.789 145.358 172.172C145.544 172.556 145.812 172.897 146.163 173.198C146.514 173.495 146.928 173.725 147.404 173.886L146.878 174.691C146.348 174.509 145.886 174.237 145.492 173.875C145.102 173.51 144.799 173.084 144.584 172.597C144.373 173.141 144.06 173.619 143.644 174.031C143.229 174.443 142.738 174.752 142.173 174.96L141.636 174.144ZM143.182 177.098C143.182 176.718 143.311 176.394 143.569 176.125C143.831 175.853 144.205 175.646 144.692 175.502C145.182 175.356 145.764 175.282 146.437 175.282C147.107 175.282 147.685 175.356 148.172 175.502C148.659 175.646 149.033 175.853 149.295 176.125C149.56 176.394 149.692 176.718 149.692 177.098C149.692 177.477 149.56 177.801 149.295 178.07C149.033 178.342 148.659 178.55 148.172 178.693C147.685 178.84 147.107 178.913 146.437 178.913C145.764 178.913 145.182 178.84 144.692 178.693C144.205 178.55 143.831 178.342 143.569 178.07C143.311 177.801 143.182 177.477 143.182 177.098ZM144.192 177.098C144.189 177.424 144.384 177.676 144.778 177.855C145.175 178.03 145.728 178.115 146.437 178.107C147.139 178.115 147.687 178.03 148.081 177.855C148.478 177.676 148.679 177.424 148.682 177.098C148.679 176.775 148.482 176.525 148.092 176.346C147.705 176.167 147.164 176.077 146.47 176.077C145.746 176.077 145.184 176.165 144.783 176.34C144.386 176.516 144.189 176.768 144.192 177.098ZM155.601 171.705H150.821V170.878H152.712V169.567H153.721V170.878H155.601V171.705ZM151.132 174.498C151.132 174.072 151.22 173.691 151.396 173.354C151.575 173.017 151.824 172.756 152.142 172.57C152.461 172.38 152.819 172.285 153.216 172.285C153.617 172.285 153.976 172.38 154.291 172.57C154.609 172.756 154.858 173.017 155.037 173.354C155.22 173.691 155.311 174.072 155.311 174.498C155.311 174.931 155.22 175.318 155.037 175.658C154.858 175.998 154.609 176.263 154.291 176.453C153.976 176.639 153.617 176.732 153.216 176.732C152.819 176.732 152.461 176.639 152.142 176.453C151.824 176.263 151.575 175.998 151.396 175.658C151.22 175.318 151.132 174.931 151.132 174.498ZM152.035 174.498C152.035 174.767 152.085 175.005 152.185 175.212C152.285 175.417 152.425 175.576 152.604 175.69C152.783 175.805 152.987 175.862 153.216 175.862C153.446 175.862 153.65 175.805 153.829 175.69C154.011 175.576 154.153 175.417 154.253 175.212C154.357 175.005 154.409 174.767 154.409 174.498C154.409 174.237 154.357 174.002 154.253 173.794C154.153 173.587 154.011 173.426 153.829 173.311C153.65 173.193 153.446 173.134 153.216 173.134C152.987 173.134 152.783 173.193 152.604 173.311C152.425 173.426 152.285 173.587 152.185 173.794C152.085 174.002 152.035 174.237 152.035 174.498ZM156.042 169.503H157.008V173.295H158.115V169.288H159.082V178.913H158.115V174.133H157.008V178.462H156.042V169.503ZM168.826 175.54H164.915V178.902H163.916V175.54H160.049V174.713H168.826V175.54ZM160.543 173.177C161.138 173.094 161.686 172.931 162.187 172.688C162.692 172.441 163.095 172.14 163.395 171.786C163.696 171.431 163.852 171.061 163.863 170.674H160.866V169.857H167.998V170.674H165.023C165.026 171.061 165.177 171.431 165.474 171.786C165.775 172.14 166.178 172.441 166.683 172.688C167.187 172.931 167.741 173.094 168.342 173.177L167.966 173.982C167.44 173.9 166.944 173.762 166.478 173.569C166.013 173.372 165.605 173.128 165.254 172.838C164.903 172.545 164.631 172.219 164.437 171.861C164.244 172.219 163.972 172.545 163.621 172.838C163.27 173.128 162.864 173.372 162.402 173.569C161.94 173.762 161.449 173.9 160.93 173.982L160.543 173.177ZM172.189 171.92C172.189 172.443 172.262 172.96 172.409 173.472C172.556 173.981 172.774 174.446 173.064 174.869C173.354 175.291 173.707 175.63 174.122 175.884L173.553 176.668C173.116 176.407 172.742 176.05 172.43 175.599C172.122 175.144 171.883 174.629 171.711 174.052C171.532 174.679 171.276 175.237 170.943 175.728C170.613 176.219 170.219 176.604 169.761 176.883L169.127 176.12C169.568 175.855 169.944 175.502 170.255 175.062C170.57 174.622 170.807 174.135 170.964 173.601C171.125 173.064 171.204 172.518 171.2 171.963V170.169H172.189V171.92ZM173.08 172.672H174.573V169.471H175.54V178.44H174.573V173.521H173.08V172.672ZM176.561 169.288H177.538V178.913H176.561V169.288ZM187.271 177.71H178.463V176.861H180.568V174.348C180.164 174.126 179.85 173.845 179.628 173.504C179.406 173.164 179.297 172.783 179.301 172.36C179.301 171.863 179.451 171.424 179.752 171.044C180.053 170.665 180.472 170.371 181.009 170.164C181.549 169.952 182.162 169.847 182.846 169.847C183.53 169.847 184.142 169.952 184.683 170.164C185.223 170.371 185.644 170.665 185.945 171.044C186.249 171.424 186.401 171.863 186.401 172.36C186.401 172.779 186.294 173.157 186.079 173.494C185.864 173.827 185.56 174.104 185.166 174.326V176.861H187.271V177.71ZM180.289 172.36C180.289 172.701 180.396 173 180.611 173.257C180.826 173.515 181.127 173.716 181.514 173.859C181.9 173.999 182.344 174.068 182.846 174.068C183.343 174.068 183.786 173.997 184.172 173.854C184.563 173.71 184.867 173.512 185.085 173.257C185.304 173 185.413 172.701 185.413 172.36C185.413 172.02 185.304 171.723 185.085 171.469C184.867 171.211 184.563 171.012 184.172 170.873C183.786 170.733 183.343 170.663 182.846 170.663C182.344 170.663 181.9 170.733 181.514 170.873C181.127 171.012 180.826 171.211 180.611 171.469C180.396 171.723 180.289 172.02 180.289 172.36ZM184.135 176.861V174.724C183.734 174.817 183.304 174.863 182.846 174.863C182.395 174.863 181.972 174.817 181.578 174.724V176.861H184.135Z" fill="#97A2AF"/>
</svg>
