<svg width="24" height="24" viewBox="0 0 24 24" fill="none" xmlns="http://www.w3.org/2000/svg">
<g clip-path="url(#clip0_1834_45237)">
<path fill-rule="evenodd" clip-rule="evenodd" d="M19.8901 8.76503L22.5401 6.08503C22.7501 5.87503 22.8101 5.56503 22.7001 5.28503C22.5901 5.00503 22.3301 4.82503 22.0401 4.80503L20.0501 4.71503L19.9601 2.71503C19.9501 2.41503 19.7601 2.15503 19.4801 2.04503C19.2001 1.93503 18.8901 2.00503 18.6801 2.21503L16.4601 4.43503C16.3501 4.37503 16.2201 4.33503 16.0901 4.33503H6.70012C6.43012 4.33503 6.19012 4.47503 6.05012 4.70503L1.35012 12.795C1.21012 13.025 1.21012 13.315 1.35012 13.545L6.05012 21.615C6.18012 21.845 6.43012 21.985 6.70012 21.985H16.0801C16.3501 21.985 16.5901 21.845 16.7301 21.615L21.4301 13.545C21.5701 13.315 21.5701 13.025 21.4301 12.795L19.2201 9.00503H19.4101C19.5901 8.97503 19.7601 8.89503 19.8901 8.76503ZM19.9101 13.175L15.6501 20.495H7.13012L2.87012 13.175L7.13012 5.84503H15.6501L15.7501 6.01503L15.5801 8.13503L14.8801 8.84503L14.6401 8.44503C14.5001 8.21503 14.2601 8.08503 14.0001 8.08503H8.79012C8.53012 8.08503 8.28012 8.22503 8.15012 8.44503L5.54012 12.795C5.40012 13.035 5.40012 13.325 5.54012 13.565L8.15012 17.915C8.29012 18.145 8.53012 18.275 8.79012 18.275H14.0001C14.2601 18.275 14.5101 18.135 14.6401 17.915L17.2501 13.565C17.3901 13.325 17.3901 13.035 17.2501 12.795L15.6801 10.175L16.6501 9.20503L17.5601 9.13503L19.9101 13.185V13.175ZM11.0701 13.725C11.3601 14.015 11.8401 14.015 12.1301 13.725L14.5801 11.265L15.7301 13.175L13.5701 16.775H9.21012L7.05012 13.175L9.21012 9.57503H13.5701L13.7901 9.93503L11.0701 12.665C10.7801 12.955 10.7801 13.435 11.0701 13.725ZM19.0201 7.51503L18.3801 7.56503L17.1201 7.65503L17.2701 5.74503L17.3001 5.71503L18.5201 4.49503L18.5601 5.48503C18.5801 5.87503 18.8901 6.18503 19.2801 6.20503L20.2701 6.24503L19.0101 7.52503L19.0201 7.51503Z" fill="#BFC7CE"/>
</g>
<defs>
<clipPath id="clip0_1834_45237">
<rect width="21.5" height="19.99" fill="white" transform="translate(1.25 2.005)"/>
</clipPath>
</defs>
</svg>
