<svg width="338" height="26" viewBox="0 0 338 26" fill="none" xmlns="http://www.w3.org/2000/svg">
<path d="M0.5 13C0.5 6.09644 6.09644 0.5 13 0.5H91.9821V25.5H13C6.09643 25.5 0.5 19.9036 0.5 13Z" fill="#C9A6FD" stroke="#C9A6FD"/>
<circle cx="13" cy="13" r="12.5" fill="white" stroke="#C9A6FD"/>
<path d="M47.2066 8.5293V9.50684H46.1148V12.9473C46.5973 12.9092 47.0606 12.8647 47.5113 12.8076L47.5621 13.7217C45.3722 14.0645 42.8204 14.1025 40.9986 14.1025L40.8463 13.0996C41.2716 13.0996 41.7413 13.0996 42.2301 13.0933V9.50684H41.1637V8.5293H47.2066ZM42.6617 16.9971C42.6554 15.6704 44.1026 14.915 46.5084 14.915C48.9078 14.915 50.3487 15.6704 50.3551 16.9971C50.3487 18.2983 48.9078 19.0601 46.5084 19.0537C44.1026 19.0601 42.6554 18.2983 42.6617 16.9971ZM43.398 13.0742C43.9122 13.0615 44.4327 13.0425 44.9596 13.0171V9.50684H43.398V13.0742ZM43.8551 16.9971C43.8487 17.7144 44.8263 18.1206 46.5084 18.127C48.1778 18.1206 49.1554 17.7144 49.1617 16.9971C49.1554 16.2607 48.1778 15.8481 46.5084 15.8545C44.8263 15.8481 43.8487 16.2607 43.8551 16.9971ZM47.3717 12.7188V11.7539H49.1109V10.6494H47.3717V9.68457H49.1109V7.7041H50.317V14.6992H49.1109V12.7188H47.3717ZM57.7738 8.66895V14.0137H52.3656V8.66895H57.7738ZM53.5463 13.0488H56.5805V9.64648H53.5463V13.0488ZM53.7621 18.7363V15.0801H54.9809V17.7461H61.5443V18.7363H53.7621ZM59.9955 15.8672V7.7168H61.2016V15.8672H59.9955Z" fill="white"/>
<path d="M78.5 13C78.5 6.09644 84.0964 0.5 91 0.5H168.5V25.5H91C84.0964 25.5 78.5 19.9036 78.5 13Z" fill="#7C26FA" stroke="#7C26FA"/>
<circle cx="91" cy="13" r="12.5" fill="white" stroke="#7C26FA"/>
<path d="M128.292 7.7041V19.0791H127.073V7.7041H128.292ZM118.948 16.0322C121.969 14.5913 123.448 12.541 123.683 9.8877H119.494V8.92285H124.902C124.902 12.2554 123.486 15.1372 119.583 17.0098L118.948 16.0322ZM133.717 10.5986C133.704 12.6108 134.879 14.6738 136.574 15.499L135.825 16.4639C134.587 15.8164 133.628 14.5469 133.127 13.0298C132.619 14.6421 131.622 16.0068 130.328 16.6797L129.579 15.7021C131.324 14.8643 132.505 12.6807 132.511 10.5986V8.65625H133.717V10.5986ZM137.424 19.0791V7.7041H138.63V12.2363H140.458V13.2646H138.63V19.0791H137.424Z" fill="white"/>
<path d="M156.5 13C156.5 6.09644 162.096 0.5 169 0.5H246.5V25.5H169C162.096 25.5 156.5 19.9036 156.5 13Z" fill="#E0E5EB" stroke="#E0E5EB"/>
<circle cx="169" cy="13" r="12.5" fill="white" stroke="#E0E5EB"/>
<path d="M206.406 7.7041V19.0791H205.187V7.7041H206.406ZM196.757 13.0615C198.236 13.0552 199.938 13.0425 201.632 12.96C201.912 11.4492 201.962 10.313 201.982 9.53223H197.748V8.55469H203.181V9.0752C203.175 9.81787 203.175 11.0938 202.864 12.8901C203.391 12.8521 203.918 12.8076 204.425 12.7568L204.502 13.6582C203.378 13.8042 202.216 13.8994 201.074 13.9629V18.4189H199.868V14.02C198.833 14.0518 197.837 14.0645 196.922 14.0645L196.757 13.0615ZM217.214 8.14844V9.12598H213.755C213.882 10.2559 215.513 11.2017 217.608 11.4238L217.163 12.376C215.196 12.1475 213.571 11.3159 212.949 10.1035C212.327 11.3159 210.708 12.1475 208.746 12.376L208.315 11.4238C210.391 11.2017 212.022 10.2495 212.142 9.12598H208.721V8.14844H217.214ZM207.769 14.3438V13.3662H212.352V11.7158H213.545V13.3662H218.166V14.3438H207.769ZM208.924 16.3242V15.3594H216.871V19.0791H215.653V16.3242H208.924Z" fill="#97A2AF"/>
<path d="M234.5 13C234.5 6.09644 240.096 0.5 247 0.5H323.5V25.5H247C240.096 25.5 234.5 19.9036 234.5 13Z" fill="#E0E5EB" stroke="#E0E5EB"/>
<circle cx="247" cy="13" r="12.5" fill="white" stroke="#E0E5EB"/>
<path d="M283.784 7.7168V11.0684H285.409V12.0713H283.784V15.4102H282.578V7.7168H283.784ZM274.757 14.0137C275.64 14.02 276.662 14.02 277.728 13.9883V13.1567C276.421 13.0234 275.608 12.4395 275.621 11.5635C275.608 10.5479 276.674 9.94482 278.325 9.95117C279.962 9.94482 281.023 10.5479 281.029 11.5635C281.023 12.4331 280.223 13.0171 278.934 13.1567V13.9375C279.95 13.8867 280.978 13.8042 281.93 13.6709L282.032 14.5088C279.594 14.9277 276.903 14.9658 274.884 14.9658L274.757 14.0137ZM275.049 9.53223V8.63086H277.728V7.61523H278.934V8.63086H281.613V9.53223H275.049ZM276.268 17.3145C276.268 16.1655 277.652 15.5308 280.064 15.5371C282.457 15.5308 283.847 16.1655 283.86 17.3145C283.847 18.457 282.457 19.0728 280.064 19.0791C277.652 19.0728 276.268 18.457 276.268 17.3145ZM276.763 11.5635C276.763 12.0776 277.354 12.376 278.325 12.376C279.283 12.376 279.88 12.0776 279.874 11.5635C279.88 11.0684 279.283 10.7637 278.325 10.7637C277.354 10.7637 276.763 11.0684 276.763 11.5635ZM277.487 17.3145C277.474 17.8667 278.369 18.1841 280.064 18.1777C281.74 18.1841 282.629 17.8667 282.629 17.3145C282.629 16.7368 281.74 16.4194 280.064 16.4258C278.369 16.4194 277.474 16.7368 277.487 17.3145ZM295.532 7.7041V19.0791H294.376V7.7041H295.532ZM285.604 15.9434C287.216 14.9722 288.035 12.9028 288.041 10.8779V9.96387H285.947V8.98633H291.152V9.96387H289.197V10.8779C289.197 12.8203 289.984 14.769 291.583 15.6895L290.86 16.5781C289.774 15.9307 289.032 14.769 288.632 13.3979C288.225 14.8833 287.451 16.1528 286.34 16.8447L285.604 15.9434ZM290.314 12.7188V11.7285H292.079V7.94531H293.221V18.5078H292.079V12.7188H290.314Z" fill="#97A2AF"/>
<circle cx="325" cy="13" r="12.5" fill="white" stroke="#E0E5EB"/>
<path d="M10.897 14.608C10.897 15.832 9.997 16.516 8.953 16.516C7.909 16.516 7 15.832 7 14.608V11.908C7 10.684 7.909 10 8.953 10C9.997 10 10.897 10.684 10.897 11.908V14.608ZM9.727 14.599V11.926C9.727 11.386 9.412 11.053 8.953 11.053C8.494 11.053 8.17 11.386 8.17 11.926V14.599C8.17 15.139 8.494 15.463 8.953 15.463C9.412 15.463 9.727 15.139 9.727 14.599Z" fill="#C9A6FD"/>
<path d="M18.3307 15.283C18.3307 16.093 17.7277 16.516 17.0257 16.516C16.3147 16.516 15.7207 16.093 15.7207 15.283V14.392C15.7207 13.582 16.3147 13.159 17.0257 13.159C17.7277 13.159 18.3307 13.582 18.3307 14.392V15.283ZM14.2447 12.124C14.2447 12.934 13.6417 13.357 12.9397 13.357C12.2287 13.357 11.6347 12.934 11.6347 12.124V11.233C11.6347 10.423 12.2287 10 12.9397 10C13.6417 10 14.2447 10.423 14.2447 11.233V12.124ZM16.9627 10.054L13.9297 16.462H13.0117L16.0447 10.054H16.9627ZM17.4847 15.247V14.428C17.4847 14.086 17.3137 13.915 17.0257 13.915C16.7287 13.915 16.5667 14.086 16.5667 14.428V15.247C16.5667 15.589 16.7287 15.76 17.0257 15.76C17.3137 15.76 17.4847 15.589 17.4847 15.247ZM13.3987 12.088V11.269C13.3987 10.927 13.2277 10.756 12.9397 10.756C12.6427 10.756 12.4807 10.927 12.4807 11.269V12.088C12.4807 12.43 12.6517 12.601 12.9397 12.601C13.2277 12.601 13.3987 12.43 13.3987 12.088Z" fill="#C9A6FD"/>
<path d="M86.897 16.462H83V15.409L85.394 12.628C85.628 12.349 85.727 12.151 85.727 11.854C85.727 11.377 85.448 11.053 84.953 11.053C84.566 11.053 84.17 11.251 84.17 11.872H83C83 10.702 83.855 10 84.953 10C86.087 10 86.897 10.711 86.897 11.863C86.897 12.484 86.654 12.817 86.213 13.33L84.422 15.409H86.897V16.462Z" fill="#7C26FA"/>
<path d="M91.5767 14.302C91.5767 15.022 91.4777 15.526 91.0097 15.994C90.7217 16.282 90.2627 16.516 89.5967 16.516C88.9307 16.516 88.4447 16.282 88.1657 16.003C87.7697 15.607 87.6797 15.139 87.6437 14.671H88.8137C88.8767 15.175 89.1107 15.463 89.5967 15.463C89.8217 15.463 90.0107 15.4 90.1547 15.256C90.3617 15.049 90.4067 14.707 90.4067 14.302C90.4067 13.564 90.1907 13.15 89.6237 13.15C89.1467 13.15 88.9307 13.42 88.8497 13.672H87.7787V10.054H91.4327V11.107H88.8407V12.484C89.0117 12.322 89.3717 12.16 89.8037 12.16C90.3347 12.16 90.7397 12.331 91.0007 12.592C91.5047 13.096 91.5767 13.699 91.5767 14.302Z" fill="#7C26FA"/>
<path d="M98.9564 15.283C98.9564 16.093 98.3534 16.516 97.6514 16.516C96.9404 16.516 96.3464 16.093 96.3464 15.283V14.392C96.3464 13.582 96.9404 13.159 97.6514 13.159C98.3534 13.159 98.9564 13.582 98.9564 14.392V15.283ZM94.8704 12.124C94.8704 12.934 94.2674 13.357 93.5654 13.357C92.8544 13.357 92.2604 12.934 92.2604 12.124V11.233C92.2604 10.423 92.8544 10 93.5654 10C94.2674 10 94.8704 10.423 94.8704 11.233V12.124ZM97.5884 10.054L94.5554 16.462H93.6374L96.6704 10.054H97.5884ZM98.1104 15.247V14.428C98.1104 14.086 97.9394 13.915 97.6514 13.915C97.3544 13.915 97.1924 14.086 97.1924 14.428V15.247C97.1924 15.589 97.3544 15.76 97.6514 15.76C97.9394 15.76 98.1104 15.589 98.1104 15.247ZM94.0244 12.088V11.269C94.0244 10.927 93.8534 10.756 93.5654 10.756C93.2684 10.756 93.1064 10.927 93.1064 11.269V12.088C93.1064 12.43 93.2774 12.601 93.5654 12.601C93.8534 12.601 94.0244 12.43 94.0244 12.088Z" fill="#7C26FA"/>
<path d="M164.933 14.302C164.933 15.022 164.834 15.526 164.366 15.994C164.078 16.282 163.619 16.516 162.953 16.516C162.287 16.516 161.801 16.282 161.522 16.003C161.126 15.607 161.036 15.139 161 14.671H162.17C162.233 15.175 162.467 15.463 162.953 15.463C163.178 15.463 163.367 15.4 163.511 15.256C163.718 15.049 163.763 14.707 163.763 14.302C163.763 13.564 163.547 13.15 162.98 13.15C162.503 13.15 162.287 13.42 162.206 13.672H161.135V10.054H164.789V11.107H162.197V12.484C162.368 12.322 162.728 12.16 163.16 12.16C163.691 12.16 164.096 12.331 164.357 12.592C164.861 13.096 164.933 13.699 164.933 14.302Z" fill="#BFC7CE"/>
<path d="M169.541 14.608C169.541 15.832 168.641 16.516 167.597 16.516C166.553 16.516 165.644 15.832 165.644 14.608V11.908C165.644 10.684 166.553 10 167.597 10C168.641 10 169.541 10.684 169.541 11.908V14.608ZM168.371 14.599V11.926C168.371 11.386 168.056 11.053 167.597 11.053C167.138 11.053 166.814 11.386 166.814 11.926V14.599C166.814 15.139 167.138 15.463 167.597 15.463C168.056 15.463 168.371 15.139 168.371 14.599Z" fill="#BFC7CE"/>
<path d="M176.974 15.283C176.974 16.093 176.371 16.516 175.669 16.516C174.958 16.516 174.364 16.093 174.364 15.283V14.392C174.364 13.582 174.958 13.159 175.669 13.159C176.371 13.159 176.974 13.582 176.974 14.392V15.283ZM172.888 12.124C172.888 12.934 172.285 13.357 171.583 13.357C170.872 13.357 170.278 12.934 170.278 12.124V11.233C170.278 10.423 170.872 10 171.583 10C172.285 10 172.888 10.423 172.888 11.233V12.124ZM175.606 10.054L172.573 16.462H171.655L174.688 10.054H175.606ZM176.128 15.247V14.428C176.128 14.086 175.957 13.915 175.669 13.915C175.372 13.915 175.21 14.086 175.21 14.428V15.247C175.21 15.589 175.372 15.76 175.669 15.76C175.957 15.76 176.128 15.589 176.128 15.247ZM172.042 12.088V11.269C172.042 10.927 171.871 10.756 171.583 10.756C171.286 10.756 171.124 10.927 171.124 11.269V12.088C171.124 12.43 171.295 12.601 171.583 12.601C171.871 12.601 172.042 12.43 172.042 12.088Z" fill="#BFC7CE"/>
<path d="M243.077 11.107L240.998 16.462H239.729L241.808 11.107H240.116V12.115H239V10.054H243.077V11.107Z" fill="#BFC7CE"/>
<path d="M247.658 14.302C247.658 15.022 247.559 15.526 247.091 15.994C246.803 16.282 246.344 16.516 245.678 16.516C245.012 16.516 244.526 16.282 244.247 16.003C243.851 15.607 243.761 15.139 243.725 14.671H244.895C244.958 15.175 245.192 15.463 245.678 15.463C245.903 15.463 246.092 15.4 246.236 15.256C246.443 15.049 246.488 14.707 246.488 14.302C246.488 13.564 246.272 13.15 245.705 13.15C245.228 13.15 245.012 13.42 244.931 13.672H243.86V10.054H247.514V11.107H244.922V12.484C245.093 12.322 245.453 12.16 245.885 12.16C246.416 12.16 246.821 12.331 247.082 12.592C247.586 13.096 247.658 13.699 247.658 14.302Z" fill="#BFC7CE"/>
<path d="M255.037 15.283C255.037 16.093 254.434 16.516 253.732 16.516C253.021 16.516 252.427 16.093 252.427 15.283V14.392C252.427 13.582 253.021 13.159 253.732 13.159C254.434 13.159 255.037 13.582 255.037 14.392V15.283ZM250.951 12.124C250.951 12.934 250.348 13.357 249.646 13.357C248.935 13.357 248.341 12.934 248.341 12.124V11.233C248.341 10.423 248.935 10 249.646 10C250.348 10 250.951 10.423 250.951 11.233V12.124ZM253.669 10.054L250.636 16.462H249.718L252.751 10.054H253.669ZM254.191 15.247V14.428C254.191 14.086 254.02 13.915 253.732 13.915C253.435 13.915 253.273 14.086 253.273 14.428V15.247C253.273 15.589 253.435 15.76 253.732 15.76C254.02 15.76 254.191 15.589 254.191 15.247ZM250.105 12.088V11.269C250.105 10.927 249.934 10.756 249.646 10.756C249.349 10.756 249.187 10.927 249.187 11.269V12.088C249.187 12.43 249.358 12.601 249.646 12.601C249.934 12.601 250.105 12.43 250.105 12.088Z" fill="#BFC7CE"/>
<path d="M317.475 16.462H316.305V11.314L315 12.448V11.188L316.305 10.054H317.475V16.462Z" fill="#BFC7CE"/>
<path d="M323.127 14.608C323.127 15.832 322.227 16.516 321.183 16.516C320.139 16.516 319.23 15.832 319.23 14.608V11.908C319.23 10.684 320.139 10 321.183 10C322.227 10 323.127 10.684 323.127 11.908V14.608ZM321.957 14.599V11.926C321.957 11.386 321.642 11.053 321.183 11.053C320.724 11.053 320.4 11.386 320.4 11.926V14.599C320.4 15.139 320.724 15.463 321.183 15.463C321.642 15.463 321.957 15.139 321.957 14.599Z" fill="#BFC7CE"/>
<path d="M327.788 14.608C327.788 15.832 326.888 16.516 325.844 16.516C324.8 16.516 323.891 15.832 323.891 14.608V11.908C323.891 10.684 324.8 10 325.844 10C326.888 10 327.788 10.684 327.788 11.908V14.608ZM326.618 14.599V11.926C326.618 11.386 326.303 11.053 325.844 11.053C325.385 11.053 325.061 11.386 325.061 11.926V14.599C325.061 15.139 325.385 15.463 325.844 15.463C326.303 15.463 326.618 15.139 326.618 14.599Z" fill="#BFC7CE"/>
<path d="M335.222 15.283C335.222 16.093 334.619 16.516 333.917 16.516C333.206 16.516 332.612 16.093 332.612 15.283V14.392C332.612 13.582 333.206 13.159 333.917 13.159C334.619 13.159 335.222 13.582 335.222 14.392V15.283ZM331.136 12.124C331.136 12.934 330.533 13.357 329.831 13.357C329.12 13.357 328.526 12.934 328.526 12.124V11.233C328.526 10.423 329.12 10 329.831 10C330.533 10 331.136 10.423 331.136 11.233V12.124ZM333.854 10.054L330.821 16.462H329.903L332.936 10.054H333.854ZM334.376 15.247V14.428C334.376 14.086 334.205 13.915 333.917 13.915C333.62 13.915 333.458 14.086 333.458 14.428V15.247C333.458 15.589 333.62 15.76 333.917 15.76C334.205 15.76 334.376 15.589 334.376 15.247ZM330.29 12.088V11.269C330.29 10.927 330.119 10.756 329.831 10.756C329.534 10.756 329.372 10.927 329.372 11.269V12.088C329.372 12.43 329.543 12.601 329.831 12.601C330.119 12.601 330.29 12.43 330.29 12.088Z" fill="#BFC7CE"/>
</svg>
