<svg width="69" height="69" viewBox="0 0 69 69" fill="none" xmlns="http://www.w3.org/2000/svg">
<path fill-rule="evenodd" clip-rule="evenodd" d="M26.4233 42.1155H42.5772V43.5001H26.4233V42.1155Z" fill="#97A2AF"/>
<path fill-rule="evenodd" clip-rule="evenodd" d="M37.0387 25.5C37.2223 25.5 37.3984 25.5729 37.5283 25.7028L41.4513 29.6258C41.7217 29.8962 41.7217 30.3346 41.4513 30.6049L31.5283 40.528C31.3951 40.6612 31.2134 40.7343 31.0252 40.7306L27.1021 40.6537C26.7251 40.6463 26.4233 40.3386 26.4233 39.9615V36.1154C26.4233 35.9318 26.4963 35.7557 26.6261 35.6258L36.5492 25.7028C36.679 25.5729 36.8551 25.5 37.0387 25.5ZM27.808 36.4021V39.2827L30.7576 39.3405L39.9827 30.1154L37.0387 27.1714L27.808 36.4021Z" fill="#97A2AF"/>
</svg>
